g Burger_Lettuce
v -26.76442 0.1773722 21.04012
v -27.2161 1.008614 18.47098
v -16.9435 2.079989 20.93561
v -16.72632 0.7924578 25.96939
v -6.60886 3.17322 22.91993
v -6.564014 1.412298 29.93803
v -6.661777 1.416773 15.51009
v -17.14464 0.7785609 15.01401
v -27.61199 0.145756 14.39785
v 3.849843 3.900288 23.94359
v 3.846684 1.682663 31.98535
v 13.93835 4.098795 23.9852
v 13.51622 1.456043 32.06854
v 14.27342 1.421341 15.77641
v 3.852154 1.682663 15.76601
v 23.16236 3.958433 23.02331
v 21.45496 0.9992354 30.14478
v 31.95416 3.772661 21.55969
v 28.52833 0.5141013 27.21755
v 34.57511 0.1827891 15.17003
v 24.47834 0.8043444 15.53594
v -17.18229 2.066296 7.316743
v -27.69992 0.9689162 7.316743
v -6.664669 3.170763 7.316743
v -6.635395 1.416773 -0.8711231
v -17.11319 0.7796614 -0.3703906
v -27.57872 0.1465971 0.2511761
v 3.866971 1.682663 -1.130156
v 3.852955 3.900425 7.316743
v 14.28717 1.421381 -1.154479
v 14.37058 4.097616 7.316743
v 14.27342 1.421341 15.77641
v 24.88821 3.920006 7.316743
v 24.47834 0.8043444 15.53594
v 35.40583 3.749481 7.316743
v 34.57511 0.1827891 15.17003
v 34.65551 0.1799433 -0.6336734
v 24.51855 0.80283 -0.9510105
v -16.81782 2.088238 -6.261611
v -6.503444 3.180231 -8.264518
v -6.352947 1.416428 -15.26067
v -16.4747 0.8043444 -11.25486
v -27.08317 1.020396 -3.775328
v -26.49829 0.1870177 -6.282301
v 3.909047 3.902895 -9.300673
v 13.99329 4.101377 -9.397918
v 14.28717 1.421381 -1.154479
v 13.62623 1.456675 -17.52748
v 3.965222 1.682663 -17.33299
v 23.32295 3.959934 -8.58409
v 24.51855 0.80283 -0.9510105
v 32.27532 3.774931 -7.314719
v 34.65551 0.1799433 -0.6336734
v 29.17146 0.4837763 -13.36109
v 21.77653 0.9897254 -15.89983
v 24.98777 0.9507773 19.84599
v 22.767 1.804753 21.1835
v 21.24818 3.258227 10.71878
v 25.84601 1.923575 8.703752
v 19.26023 4.760561 0.3742993
v 25.766 2.913742 -2.197936
v 12.40166 3.092615 3.23697
v 15.82575 2.032585 13.14991
v 19.13256 0.9854872 23.09294
v 16.33406 5.444195 -9.729728
v 23.80944 3.136015 -12.6185
v 12.63298 4.990246 -19.12575
v 20.3033 2.295183 -21.62364
v 4.890629 2.378392 -16.29172
v 8.742992 3.321879 -6.615836
v 8.320324 3.867037 -27.34627
v 15.57447 1.022345 -28.27906
v 3.701886 2.686497 -34.97904
v 10.23436 -0.2724988 -33.75962
v -3.196178 -1.083421 -34.9092
v 0.8854336 0.6499979 -25.67389
v 8.687572 3.40507 15.98533
v 12.58637 1.886976 25.76495
v 4.788785 4.939013 6.20569
v -2.822887 3.279614 9.28016
v 1.525158 2.210436 18.81919
v 5.980893 1.148495 28.30206
v -6.955554 3.515187 -0.3711688
v 0.8899883 5.634951 -3.573951
v -10.83976 2.572172 -10.03321
v -3.008808 5.140371 -13.35359
v 4.890629 2.378392 -16.29172
v -6.907596 3.807783 -23.13323
v 0.8854336 0.6499979 -25.67389
v -10.80639 2.491051 -32.91286
v -3.196178 -1.083421 -34.9092
v -17.90436 -0.9116676 -29.13006
v -14.44243 0.8341467 -19.60436
v -4.059017 3.577469 20.67591
v -9.742764 5.124575 11.82714
v -16.29249 3.434178 14.34798
v -8.820881 2.368483 22.25827
v 2.055501 2.074457 29.30004
v -0.4877583 1.276591 29.71933
v -14.56497 5.826105 2.529062
v -18.39342 5.373871 -6.811583
v -10.83976 2.572172 -10.03321
v -25.80197 2.861325 -3.35517
v -22.04106 3.697664 5.539247
v -21.09597 4.21789 -15.78808
v -14.44243 0.8341467 -19.60436
v -23.23556 2.99264 -24.5825
v -17.90436 -0.9116676 -29.13006
v -27.69317 0.09984802 -19.32609
v -27.31063 1.516594 -11.52241
vt 0.08931559 0.4583166
vt 0.08646409 0.4723067
vt 0.1428164 0.4596757
vt 0.1445267 0.4322072
vt 0.1994691 0.4496725
vt 0.2003389 0.4113536
vt 0.1986441 0.4901317
vt 0.1413609 0.491997
vt 0.08415285 0.4945194
vt 0.2567228 0.444925
vt 0.2573528 0.4010116
vt 0.3118737 0.4455106
vt 0.3101614 0.4013353
vt 0.3129853 0.490362
vt 0.2560776 0.4895801
vt 0.3622184 0.451506
vt 0.3533573 0.4124792
vt 0.4101599 0.4602065
vt 0.391747 0.429033
vt 0.4237969 0.4953068
vt 0.3686914 0.4924963
vt 0.1404152 0.5340244
vt 0.08292183 0.533177
vt 0.1979085 0.5348716
vt 0.19747 0.5795859
vt 0.1402947 0.5760084
vt 0.0831961 0.571772
vt 0.2547989 0.5818455
vt 0.2554019 0.5357188
vt 0.311698 0.5828168
vt 0.3128953 0.536566
vt 0.3129853 0.490362
vt 0.3703886 0.5374131
vt 0.3686914 0.4924963
vt 0.427882 0.5382603
vt 0.4237969 0.4953068
vt 0.4229642 0.5816117
vt 0.3675843 0.5825289
vt 0.1413149 0.6082003
vt 0.1975361 0.6199682
vt 0.1978545 0.6581849
vt 0.1429054 0.6354961
vt 0.08540064 0.5937967
vt 0.08857036 0.6075361
vt 0.2543714 0.6264651
vt 0.3094879 0.6278083
vt 0.311698 0.5828168
vt 0.3067714 0.6721706
vt 0.2540317 0.6703314
vt 0.3605531 0.624116
vt 0.3675843 0.5825289
vt 0.4095924 0.6179054
vt 0.4229642 0.5816117
vt 0.3919937 0.6506703
vt 0.3514083 0.6639384
vt 0.08931559 0.4583166
vt 0.08646409 0.4723067
vt 0.1428164 0.4596757
vt 0.1445267 0.4322072
vt 0.1994691 0.4496725
vt 0.2003389 0.4113536
vt 0.1986441 0.4901317
vt 0.1413609 0.491997
vt 0.08415285 0.4945194
vt 0.2567228 0.444925
vt 0.2573528 0.4010116
vt 0.3118737 0.4455106
vt 0.3101614 0.4013353
vt 0.3129853 0.490362
vt 0.2560776 0.4895801
vt 0.3622184 0.451506
vt 0.3533573 0.4124792
vt 0.4101599 0.4602065
vt 0.391747 0.429033
vt 0.4237969 0.4953068
vt 0.3686914 0.4924963
vt 0.1404152 0.5340244
vt 0.08292183 0.533177
vt 0.1979085 0.5348716
vt 0.19747 0.5795859
vt 0.1402947 0.5760084
vt 0.0831961 0.571772
vt 0.2547989 0.5818455
vt 0.2554019 0.5357188
vt 0.311698 0.5828168
vt 0.3128953 0.536566
vt 0.3129853 0.490362
vt 0.3703886 0.5374131
vt 0.3686914 0.4924963
vt 0.427882 0.5382603
vt 0.4237969 0.4953068
vt 0.4229642 0.5816117
vt 0.3675843 0.5825289
vt 0.1413149 0.6082003
vt 0.1975361 0.6199682
vt 0.1978545 0.6581849
vt 0.1429054 0.6354961
vt 0.08540064 0.5937967
vt 0.08857036 0.6075361
vt 0.2543714 0.6264651
vt 0.3094879 0.6278083
vt 0.311698 0.5828168
vt 0.3067714 0.6721706
vt 0.2540317 0.6703314
vt 0.3605531 0.624116
vt 0.3675843 0.5825289
vt 0.4095924 0.6179054
vt 0.4229642 0.5816117
vt 0.3919937 0.6506703
vt 0.3514083 0.6639384
vn -0.1797982 0.9433913 0.278721
vn -0.09418103 0.9941756 -0.05238977
vn -0.1059044 0.9943711 -0.003220008
vn -0.1587192 0.9540567 0.2541336
vn -0.08014211 0.9967775 0.003458322
vn -0.1075028 0.9618387 0.2516137
vn -0.056308 0.9984134 -0.0001267231
vn -0.07252938 0.997364 0.002124534
vn -0.0733102 0.9972127 0.01387074
vn -0.02871915 0.9995804 0.003777513
vn -0.03890699 0.9611671 0.2732104
vn 0.02751828 0.999613 -0.004084544
vn 0.03688577 0.9480146 0.3160816
vn 0.009372224 0.9485083 -0.3166136
vn -0.0186931 0.9998253 -3.334839E-05
vn 0.07021135 0.9971911 -0.02608207
vn 0.1147643 0.9120723 0.3936411
vn 0.04459394 0.97418 -0.2213243
vn 0.170671 0.8573137 0.4856795
vn -0.004002471 0.8989601 -0.4380125
vn 0.004886287 0.9181942 -0.3961003
vn -0.08679934 0.9962258 -6.185671E-05
vn -0.086376 0.9962626 0.0001045851
vn -0.06809919 0.9976786 -1.234408E-05
vn -0.05618618 0.9984202 -0.0002273964
vn -0.07236198 0.9973752 -0.002518684
vn -0.07332756 0.9971825 -0.01581597
vn -0.01840337 0.9998306 -0.0001604676
vn -0.02338006 0.9997266 2.394139E-05
vn 0.0209567 0.9527993 -0.3028767
vn 0.02235958 0.99975 -8.395354E-05
vn 0.02124586 0.9526301 0.3033883
vn 0.04367052 0.9990459 -0.0002601144
vn 0.04109851 0.933382 0.3565237
vn 0.04527947 0.9989728 -0.001808861
vn 0.04226064 0.9213871 0.3863414
vn 0.04133296 0.9227055 -0.3832835
vn 0.04036776 0.9341078 -0.3547015
vn -0.1066311 0.9942937 0.003121223
vn -0.08057427 0.9967429 -0.00336696
vn -0.108216 0.9611 -0.2541182
vn -0.1607836 0.9523844 -0.2590614
vn -0.09291006 0.9939277 0.05895346
vn -0.1839546 0.9397794 -0.2880548
vn -0.02912682 0.9995708 -0.003141447
vn 0.02553877 0.9996642 0.004399488
vn 0.01164688 0.9490348 0.3149559
vn 0.03265395 0.9487107 -0.3144547
vn -0.03999921 0.9608971 -0.2740014
vn 0.0642065 0.9976713 0.02300742
vn 0.01022382 0.9216218 0.3879547
vn 0.04732085 0.980796 0.1892086
vn 0.002876126 0.9047012 0.4260368
vn 0.1443169 0.8757902 -0.4606127
vn 0.1014188 0.9171756 -0.385361
vn 0.3459727 0.933499 0.09424673
vn 0.01585886 0.9902422 0.1384517
vn 0.06315462 0.9892415 0.1319573
vn 0.3162921 0.9448521 0.08493475
vn 0.04980992 0.9952554 0.08357936
vn 0.2872729 0.9577405 0.01440409
vn 0.03845201 0.9971544 0.06484321
vn 0.05510075 0.9935226 0.09938188
vn 0.06641604 0.9932373 0.09522882
vn 0.01181276 0.9998724 -0.01075261
vn 0.2657205 0.9587681 -0.1007786
vn -0.03467152 0.993827 -0.1053828
vn 0.2609737 0.9384831 -0.2261465
vn -0.3179564 0.9476841 0.02825716
vn 0.004716625 0.9998099 -0.01891932
vn -0.07839344 0.9838575 -0.1608696
vn 0.2951103 0.8907431 -0.3456682
vn -0.2462707 0.9667566 -0.06879173
vn 0.3581098 0.8295223 -0.4285442
vn -0.430654 0.9000539 0.06663413
vn -0.3962376 0.9171157 0.04352446
vn 0.05732786 0.991899 0.1133577
vn 0.0573065 0.9919912 0.112558
vn 0.0422322 0.9962617 0.07535993
vn 0.03747177 0.9971735 0.06512128
vn 0.04875791 0.9936147 0.1017477
vn 0.03612619 0.9935573 0.1074187
vn 0.004775807 0.9998022 -0.01930821
vn 0.006333773 0.9998697 -0.01484503
vn -0.3091568 0.9509462 0.011111
vn -0.02983202 0.9940048 -0.1051884
vn 0.253063 0.9437995 -0.2126068
vn -0.04578235 0.9883923 -0.1448606
vn 0.2875979 0.9197933 -0.26696
vn -0.04740702 0.9881418 -0.1460418
vn 0.314872 0.9075899 -0.2777341
vn -0.397039 0.9177835 0.005787917
vn -0.3707471 0.9287211 -0.004869269
vn 0.06582255 0.989105 0.131676
vn 0.04249159 0.9953083 0.08692388
vn -0.1802322 0.96275 0.2015656
vn -0.1545485 0.9487934 0.2755102
vn 0.1100202 0.9889513 0.09935355
vn -0.1731455 0.935986 0.3065139
vn 0.005857336 0.9999501 -0.008100273
vn -0.02512993 0.9938983 -0.1074
vn 0.2684709 0.9406846 -0.2074507
vn -0.3217479 0.946779 0.009365723
vn -0.2420353 0.9648617 0.1022774
vn -0.03286796 0.9844406 -0.1726163
vn 0.3284557 0.9108375 -0.2499834
vn 0.1232175 0.9680288 -0.2184896
vn 0.3650255 0.8948974 -0.2567394
vn -0.5050852 0.8609609 -0.06029395
vn -0.4202463 0.9061323 -0.04813608
g Burger_Lettuce_0
f 3/3/3 2/2/2 1/1/1
f 4/4/4 3/3/3 1/1/1
f 5/5/5 3/3/3 4/4/4
f 6/6/6 5/5/5 4/4/4
f 5/5/5 7/7/7 3/3/3
f 7/7/7 8/8/8 3/3/3
f 3/3/3 8/8/8 2/2/2
f 8/8/8 9/9/9 2/2/2
f 10/10/10 5/5/5 6/6/6
f 11/11/11 10/10/10 6/6/6
f 12/12/12 10/10/10 11/11/11
f 13/13/13 12/12/12 11/11/11
f 12/12/12 14/14/14 10/10/10
f 14/14/14 15/15/15 10/10/10
f 15/15/15 7/7/7 5/5/5
f 10/10/10 15/15/15 5/5/5
f 16/16/16 12/12/12 13/13/13
f 17/17/17 16/16/16 13/13/13
f 18/18/18 16/16/16 17/17/17
f 19/19/19 18/18/18 17/17/17
f 18/18/18 20/20/20 16/16/16
f 20/20/20 21/21/21 16/16/16
f 21/21/21 14/14/14 12/12/12
f 16/16/16 21/21/21 12/12/12
f 8/8/8 22/22/22 9/9/9
f 22/22/22 23/23/23 9/9/9
f 24/24/24 22/22/22 8/8/8
f 24/24/24 25/25/25 22/22/22
f 25/25/25 26/26/26 22/22/22
f 22/22/22 26/26/26 23/23/23
f 26/26/26 27/27/27 23/23/23
f 28/28/28 25/25/25 24/24/24
f 29/29/29 28/28/28 24/24/24
f 29/29/29 24/24/24 7/7/7
f 15/15/15 29/29/29 7/7/7
f 7/7/7 24/24/24 8/8/8
f 30/30/30 28/28/28 29/29/29
f 31/31/31 30/30/30 29/29/29
f 31/31/31 29/29/29 15/15/15
f 32/32/32 31/31/31 15/15/15
f 33/33/33 31/31/31 32/32/32
f 34/34/34 33/33/33 32/32/32
f 35/35/35 33/33/33 34/34/34
f 36/36/36 35/35/35 34/34/34
f 35/35/35 37/37/37 33/33/33
f 37/37/37 38/38/38 33/33/33
f 38/38/38 30/30/30 31/31/31
f 33/33/33 38/38/38 31/31/31
f 26/26/26 39/39/39 27/27/27
f 40/40/40 39/39/39 26/26/26
f 25/25/25 40/40/40 26/26/26
f 40/40/40 41/41/41 39/39/39
f 41/41/41 42/42/42 39/39/39
f 39/39/39 42/42/42 43/43/43
f 39/39/39 43/43/43 27/27/27
f 42/42/42 44/44/44 43/43/43
f 45/45/45 40/40/40 25/25/25
f 28/28/28 45/45/45 25/25/25
f 46/46/46 45/45/45 28/28/28
f 47/47/47 46/46/46 28/28/28
f 46/46/46 48/48/48 45/45/45
f 48/48/48 49/49/49 45/45/45
f 49/49/49 41/41/41 40/40/40
f 45/45/45 49/49/49 40/40/40
f 50/50/50 46/46/46 47/47/47
f 51/51/51 50/50/50 47/47/47
f 52/52/52 50/50/50 51/51/51
f 53/53/53 52/52/52 51/51/51
f 52/52/52 54/54/54 50/50/50
f 54/54/54 55/55/55 50/50/50
f 55/55/55 48/48/48 46/46/46
f 50/50/50 55/55/55 46/46/46
f 58/58/58 57/57/57 56/56/56
f 59/59/59 58/58/58 56/56/56
f 60/60/60 58/58/58 59/59/59
f 61/61/61 60/60/60 59/59/59
f 60/60/60 62/62/62 58/58/58
f 62/62/62 63/63/63 58/58/58
f 58/58/58 63/63/63 57/57/57
f 63/63/63 64/64/64 57/57/57
f 65/65/65 60/60/60 61/61/61
f 66/66/66 65/65/65 61/61/61
f 67/67/67 65/65/65 66/66/66
f 68/68/68 67/67/67 66/66/66
f 67/67/67 69/69/69 65/65/65
f 69/69/69 70/70/70 65/65/65
f 70/70/70 62/62/62 60/60/60
f 65/65/65 70/70/70 60/60/60
f 71/71/71 67/67/67 68/68/68
f 72/72/72 71/71/71 68/68/68
f 73/73/73 71/71/71 72/72/72
f 74/74/74 73/73/73 72/72/72
f 73/73/73 75/75/75 71/71/71
f 75/75/75 76/76/76 71/71/71
f 76/76/76 69/69/69 67/67/67
f 71/71/71 76/76/76 67/67/67
f 63/63/63 77/77/77 64/64/64
f 77/77/77 78/78/78 64/64/64
f 79/79/79 77/77/77 63/63/63
f 79/79/79 80/80/80 77/77/77
f 80/80/80 81/81/81 77/77/77
f 77/77/77 81/81/81 78/78/78
f 81/81/81 82/82/82 78/78/78
f 83/83/83 80/80/80 79/79/79
f 84/84/84 83/83/83 79/79/79
f 84/84/84 79/79/79 62/62/62
f 70/70/70 84/84/84 62/62/62
f 62/62/62 79/79/79 63/63/63
f 85/85/85 83/83/83 84/84/84
f 86/86/86 85/85/85 84/84/84
f 86/86/86 84/84/84 70/70/70
f 87/87/87 86/86/86 70/70/70
f 88/88/88 86/86/86 87/87/87
f 89/89/89 88/88/88 87/87/87
f 90/90/90 88/88/88 89/89/89
f 91/91/91 90/90/90 89/89/89
f 90/90/90 92/92/92 88/88/88
f 92/92/92 93/93/93 88/88/88
f 93/93/93 85/85/85 86/86/86
f 88/88/88 93/93/93 86/86/86
f 81/81/81 94/94/94 82/82/82
f 95/95/95 94/94/94 81/81/81
f 80/80/80 95/95/95 81/81/81
f 95/95/95 96/96/96 94/94/94
f 96/96/96 97/97/97 94/94/94
f 94/94/94 97/97/97 98/98/98
f 94/94/94 98/98/98 82/82/82
f 97/97/97 99/99/99 98/98/98
f 100/100/100 95/95/95 80/80/80
f 83/83/83 100/100/100 80/80/80
f 101/101/101 100/100/100 83/83/83
f 102/102/102 101/101/101 83/83/83
f 101/101/101 103/103/103 100/100/100
f 103/103/103 104/104/104 100/100/100
f 104/104/104 96/96/96 95/95/95
f 100/100/100 104/104/104 95/95/95
f 105/105/105 101/101/101 102/102/102
f 106/106/106 105/105/105 102/102/102
f 107/107/107 105/105/105 106/106/106
f 108/108/108 107/107/107 106/106/106
f 107/107/107 109/109/109 105/105/105
f 109/109/109 110/110/110 105/105/105
f 110/110/110 103/103/103 101/101/101
f 105/105/105 110/110/110 101/101/101
