g m_air_balloon_side_low_x2_01
v -41.3523 66.41083 -56.57379
v -41.3523 46.34027 -56.57379
v -38.00775 46.34027 -60
v -38.00775 66.41083 -60
v -41.35228 66.41083 56.73687
v -41.35228 46.34027 56.73687
v -38.00767 69.75548 -56.57382
v -38.00768 69.75548 56.7369
v -41.35228 66.41083 56.73687
v -41.3523 66.41083 -56.57379
v -38.00775 66.41083 -60
v -38.00775 66.41083 -60
v 14.47443 66.41083 -60
v 14.47433 69.75548 -56.57379
v -38.00767 69.75548 -56.57382
v -38.00768 69.75548 56.7369
v 14.47434 69.75548 56.73687
v 17.81912 66.41083 -56.5738
v 17.81906 66.41083 56.73684
v 14.47443 66.41083 -60
v 14.47443 46.34027 -60
v 17.81912 46.34027 -56.5738
v 17.81912 66.41083 -56.5738
v -38.00775 46.34027 -60
v -38.00775 66.41083 -60
v -41.3523 46.34027 -56.57379
v -41.35228 46.34027 56.73687
v -38.00768 42.99562 56.7369
v -38.00767 42.99562 -56.57382
v 14.47433 42.99562 -56.57379
v 14.47434 42.99562 56.73687
v 17.81906 46.34027 56.73684
v 17.81912 46.34027 -56.5738
v -38.00771 46.34027 59.99994
v 14.47437 46.34027 59.99993
v -38.00767 42.99562 -56.57382
v 14.47433 42.99562 -56.57379
v 14.47443 46.34027 -60
v -38.00775 46.34027 -60
v 17.81912 46.34027 -56.5738
v -41.35228 46.34027 56.73687
v -41.35228 66.41083 56.73687
v -38.00771 66.41083 59.99994
v -38.00771 46.34027 59.99994
v 14.47437 46.34027 59.99993
v 14.47437 66.41083 59.99993
v -38.00768 69.75548 56.7369
v 14.47434 69.75548 56.73687
v 14.47437 66.41083 59.99993
v -38.00771 66.41083 59.99994
v -41.35228 66.41083 56.73687
v 14.47437 46.34027 59.99993
v 14.47437 66.41083 59.99993
v 17.81906 66.41083 56.73684
v 17.81906 46.34027 56.73684
v 17.81912 66.41083 -56.5738
v 17.81912 46.34027 -56.5738
v -41.3523 46.34027 -56.57379
v -38.00767 42.99562 -56.57382
v -38.00775 46.34027 -60
v 14.47437 66.41083 59.99993
v 14.47434 69.75548 56.73687
v 17.81906 66.41083 56.73684
v -1.999935 -431 -60.00011
v -1.999924 -431 60.00003
v 0 -420 60.00003
v -1.144409E-05 -420 -60.00008
v -7.999973 -443 -60.00004
v -7.999893 -443 60.00006
v -14.99994 -453 -60.00004
v -14.99991 -453 60.00003
v -25.99986 -461 -59.9999
v -25.99991 -461 60.00004
v -36.99989 -465 -59.99999
v -36.9999 -465 60
v -48.99988 -467 -59.99997
v -48.99988 -467 60.00003
v -0.04407501 60 60.00002
v -0.04410553 60 -59.99998
v 3.814697E-06 -60 -60.00003
v 0 -60 60.00003
v 0 -60 60.00003
v 3.814697E-06 -60 -60.00003
v -1.144409E-05 -180 -60.00008
v 0 -180 60.00003
v 0 -300 60.00003
v 3.814697E-06 -300 -60.00003
v -1.144409E-05 -420 -60.00008
v 0 -420 60.00003
v 0 -180 60.00003
v 3.814697E-06 -180 -60.00003
v -1.144409E-05 -300 -60.00008
v 0 -300 60.00003
vt 0.8476563 0.1392822
vt 0.8251953 0.1392822
vt 0.8251953 0.1445313
vt 0.8476563 0.1445313
vt 0.8476563 0.01196289
vt 0.8251953 0.01196289
vt 0.4550781 0.01817322
vt 0.5844727 0.01919556
vt 0.5854492 0.01397705
vt 0.4541016 0.01255035
vt 0.449707 0.01702881
vt 0.449707 0.01702881
vt 0.4504395 0.08044434
vt 0.4555664 0.0791626
vt 0.4550781 0.01817322
vt 0.5844727 0.01919556
vt 0.5849609 0.07910156
vt 0.4543457 0.08441162
vt 0.5864258 0.08441162
vt 0.8476563 0.2034912
vt 0.8251953 0.2034912
vt 0.8251953 0.2088623
vt 0.8476563 0.2088623
vt 0.8251953 0.1445313
vt 0.8476563 0.1445313
vt 0.3083496 0.08251953
vt 0.4384766 0.08251953
vt 0.4372559 0.07733154
vt 0.3093262 0.07739258
vt 0.3110352 0.01856995
vt 0.4387207 0.01853943
vt 0.4399414 0.0133667
vt 0.3098145 0.01338196
vt 0.4423828 0.07855225
vt 0.4440918 0.01739502
vt 0.3093262 0.07739258
vt 0.3110352 0.01856995
vt 0.3056641 0.01739502
vt 0.3041992 0.07855225
vt 0.3098145 0.01338196
vt 0.9072266 0.01150513
vt 0.8847656 0.01150513
vt 0.8847656 0.01681519
vt 0.9072266 0.01681519
vt 0.9072266 0.07574463
vt 0.8847656 0.07574463
vt 0.5844727 0.01919556
vt 0.5849609 0.07910156
vt 0.590332 0.0803833
vt 0.5898438 0.01803589
vt 0.5854492 0.01397705
vt 0.9072266 0.07574463
vt 0.8847656 0.07574463
vt 0.8847656 0.08105469
vt 0.9072266 0.08105469
vt 0.8847656 0.208374
vt 0.9072266 0.208374
vt 0.3083496 0.08251953
vt 0.3093262 0.07739258
vt 0.3041992 0.07855225
vt 0.590332 0.0803833
vt 0.5849609 0.07910156
vt 0.5864258 0.08441162
vt 17.54688 14.50781
vt 17.54688 12.45313
vt 17.34375 12.45313
vt 17.34375 14.50781
vt 17.76563 14.50781
vt 17.76563 12.45313
vt 17.96875 14.50781
vt 17.96875 12.45313
vt 18.17188 14.50781
vt 18.17188 12.45313
vt 18.375 14.50781
vt 18.375 12.45313
vt 18.54688 14.50781
vt 18.54688 12.45313
vt 16.42188 12.45313
vt 16.42188 14.50781
vt 18.34375 14.50781
vt 18.32813 12.45313
vt 16.42188 12.45313
vt 16.42188 14.50781
vt 18.34375 14.50781
vt 18.32813 12.45313
vt 16.42188 12.45313
vt 16.42188 14.50781
vt 18.34375 14.50781
vt 18.32813 12.45313
vt 16.42188 12.45313
vt 16.42188 14.50781
vt 18.34375 14.50781
vt 18.32813 12.45313
vn -1 0 0
vn -1 0 0
vn 0 0 -1
vn 0 0 -1
vn -1 0 0
vn -1 0 0
vn 0 1 0
vn 0 1 0
vn -1 0 0
vn -1 0 0
vn 0 0 -1
vn 0 0 -1
vn 0 0 -1
vn 0 1 0
vn 0 1 0
vn 0 1 0
vn 0 1 0
vn 1 0 0
vn 1 0 0
vn 0 0 -1
vn 0 0 -1
vn 1 0 0
vn 1 0 0
vn 0 0 -1
vn 0 0 -1
vn -1 0 0
vn -1 0 0
vn 0 -1 0
vn 0 -1 0
vn 0 -1 0
vn 0 -1 0
vn 1 0 0
vn 1 0 0
vn 0 0 1
vn 0 0 1
vn 0 -1 0
vn 0 -1 0
vn 0 0 -1
vn 0 0 -1
vn 1 0 0
vn -1 0 0
vn -1 0 0
vn 0 0 1
vn 0 0 1
vn 0 0 1
vn 0 0 1
vn 0 1 0
vn 0 1 0
vn 0 0 1
vn 0 0 1
vn -1 0 0
vn 0 0 1
vn 0 0 1
vn 1 0 0
vn 1 0 0
vn 1 0 0
vn 1 0 0
vn -1 0 0
vn 0 -1 0
vn 0 0 -1
vn 0 0 1
vn 0 1 0
vn 1 0 0
vn 0.991165 -0.1325726 0.004066653
vn 0.9893841 -0.145267 0.004064486
vn 1 0 0
vn 1 0 0
vn 0.867947 -0.4966498 0.002634589
vn 0.867947 -0.4966498 0.002634589
vn 0.6964453 -0.7176086 0.001337104
vn 0.6964453 -0.7176086 0.001337104
vn 0.4869865 -0.8734095 3.099966E-05
vn 0.4869865 -0.8734095 3.099966E-05
vn 0.2568308 -0.9664556 -0.001215125
vn 0.2568308 -0.9664556 -0.001215125
vn 0.1284869 -0.9917095 -0.001844582
vn 0.1284869 -0.9917095 -0.001844582
vn 0.9999821 0.005650918 0.001999725
vn 0.9999821 0.005650918 0.001999725
vn 1 0 0
vn 1 0 0
vn 1 0 0
vn 1 0 0
vn 1 0 0
vn 1 0 0
vn 1 0 0
vn 1 0 0
vn 1 0 0
vn 1 0 0
vn 1 0 0
vn 1 0 0
vn 1 0 0
vn 1 0 0
g m_air_balloon_side_low_x2_01_0
f 3/3/3 2/2/2 1/1/1
f 4/4/4 3/3/3 1/1/1
f 5/5/5 1/1/1 2/2/2
f 6/6/6 5/5/5 2/2/2
f 9/9/9 8/8/8 7/7/7
f 10/10/10 9/9/9 7/7/7
f 7/7/7 11/11/11 10/10/10
f 14/14/14 13/13/13 12/12/12
f 15/15/15 14/14/14 12/12/12
f 14/14/14 15/15/15 16/16/16
f 17/17/17 14/14/14 16/16/16
f 14/14/14 17/17/17 18/18/18
f 14/14/14 18/18/18 13/13/13
f 17/17/17 19/19/19 18/18/18
f 22/22/22 21/21/21 20/20/20
f 23/23/23 22/22/22 20/20/20
f 21/21/21 24/24/24 20/20/20
f 24/24/24 25/25/25 20/20/20
f 28/28/28 27/27/27 26/26/26
f 29/29/29 28/28/28 26/26/26
f 28/28/28 29/29/29 30/30/30
f 31/31/31 28/28/28 30/30/30
f 32/32/32 31/31/31 30/30/30
f 33/33/33 32/32/32 30/30/30
f 28/28/28 31/31/31 34/34/34
f 27/27/27 28/28/28 34/34/34
f 31/31/31 35/35/35 34/34/34
f 32/32/32 35/35/35 31/31/31
f 38/38/38 37/37/37 36/36/36
f 39/39/39 38/38/38 36/36/36
f 38/38/38 40/40/40 37/37/37
f 43/43/43 42/42/42 41/41/41
f 44/44/44 43/43/43 41/41/41
f 43/43/43 44/44/44 45/45/45
f 46/46/46 43/43/43 45/45/45
f 49/49/49 48/48/48 47/47/47
f 50/50/50 49/49/49 47/47/47
f 51/51/51 50/50/50 47/47/47
f 54/54/54 53/53/53 52/52/52
f 55/55/55 54/54/54 52/52/52
f 56/56/56 54/54/54 55/55/55
f 57/57/57 56/56/56 55/55/55
f 60/60/60 59/59/59 58/58/58
f 63/63/63 62/62/62 61/61/61
g m_air_balloon_side_low_x2_01_1
f 66/66/66 65/65/65 64/64/64
f 67/67/67 66/66/66 64/64/64
f 64/64/64 65/65/65 68/68/68
f 65/65/65 69/69/69 68/68/68
f 68/68/68 69/69/69 70/70/70
f 69/69/69 71/71/71 70/70/70
f 70/70/70 71/71/71 72/72/72
f 71/71/71 73/73/73 72/72/72
f 72/72/72 73/73/73 74/74/74
f 73/73/73 75/75/75 74/74/74
f 74/74/74 75/75/75 76/76/76
f 75/75/75 77/77/77 76/76/76
f 80/80/80 79/79/79 78/78/78
f 81/81/81 80/80/80 78/78/78
f 84/84/84 83/83/83 82/82/82
f 85/85/85 84/84/84 82/82/82
f 88/88/88 87/87/87 86/86/86
f 89/89/89 88/88/88 86/86/86
f 92/92/92 91/91/91 90/90/90
f 93/93/93 92/92/92 90/90/90
