g m_airballoon_basket_top_corner_02
v 0.3380643 -0.4013054 -0.8621323
v 0.3379154 -0.4010173 0.0758432
v 0.3046183 -0.4346119 0.07511322
v 0.3046183 -0.4347517 -0.8621323
v 0.3046183 -0.4347166 0.2127072
v 0.338035 -0.4012492 0.2461282
v 0.3046183 -0.4347517 -0.8621323
v 0.3380643 -0.4347517 -0.8955789
v 0.3380643 -0.4347517 -0.8955789
v 0.862565 -0.4350716 -0.8955789
v 0.8622477 -0.4011366 -0.862131
v 0.3380643 -0.4013054 -0.8621323
v 0.3379154 -0.4010173 0.0758432
v 0.8441789 -0.396638 0.08860016
v 0.8957011 -0.4345851 -0.8621371
v 0.8777958 -0.429944 0.08768341
v 0.8609269 -0.3955286 0.3190671
v 0.8948563 -0.4288469 0.3199606
v 0.8509562 -0.4290654 0.5402701
v 0.8190494 -0.3960554 0.5270419
v 0.701591 -0.3962956 0.7024948
v 0.7260904 -0.4291871 0.7270102
v 0.338035 -0.4012492 0.2461282
v 0.3111918 -0.4013042 0.3109976
v 0.3046183 -0.4347166 0.2127072
v 0.2777555 -0.4347475 0.2775589
v 0.3046183 -0.4347517 -0.8621323
v 0.3046183 -0.6689039 -0.8621323
v 0.3380643 -0.6354573 -0.8955789
v 0.3380643 -0.4347517 -0.8955789
v 0.3046183 -0.4347517 -0.8621323
v 0.3046183 -0.4346119 0.07511322
v 0.3046183 -0.6689039 0.07511322
v 0.3046183 -0.6689039 0.2127072
v 0.3046183 -0.4347166 0.2127072
v 0.2777555 -0.4347475 0.2775589
v 0.2777555 -0.6689039 0.2775589
v 0.862565 -0.4350716 -0.8955789
v 0.8629691 -0.6355415 -0.8955789
v 0.8957011 -0.6356241 -0.8621371
v 0.8957011 -0.4345851 -0.8621371
v 0.3046183 -0.6689039 -0.8621323
v 0.8622477 -0.6690727 -0.862131
v 0.8629691 -0.6355415 -0.8955789
v 0.3380643 -0.6354573 -0.8955789
v 0.3046183 -0.6689039 0.07511322
v 0.8441789 -0.6735712 0.08860016
v 0.861088 -0.6746824 0.3190714
v 0.3046183 -0.6689039 0.2127072
v 0.8190836 -0.6742302 0.527056
v 0.2777555 -0.6689039 0.2775589
v 0.7016251 -0.6740108 0.7025284
v 0.7260904 -0.6410716 0.7270102
v 0.8957011 -0.6356241 -0.8621371
v 0.8629691 -0.6355415 -0.8955789
v 0.8622477 -0.6690727 -0.862131
v 0.8441789 -0.6735712 0.08860016
v 0.8777958 -0.6402653 0.08768341
v 0.8957011 -0.6356241 -0.8621371
v 0.8948563 -0.638018 0.3199606
v 0.861088 -0.6746824 0.3190714
v 0.8190836 -0.6742302 0.527056
v 0.8509562 -0.6411827 0.5402701
v 0.7260904 -0.6410716 0.7270102
v 0.8777958 -0.429944 0.08768341
v 0.8957011 -0.4345851 -0.8621371
v 0.8509562 -0.4290654 0.5402701
v 0.7260904 -0.4291871 0.7270102
v 0.8948563 -0.4288469 0.3199606
v -0.895345 -0.6354576 0.3378677
v -0.8947604 -0.6351954 0.8624258
v -0.8613131 -0.6690733 0.8621268
v -0.8619356 -0.6689039 0.3044211
v -0.895345 -0.4347517 0.3378677
v -0.8619356 -0.4347517 0.3044211
v -0.8947591 -0.4346679 0.8627725
v -0.8618978 -0.4013054 0.3378677
v -0.8613985 -0.4011372 0.8622134
v -0.8947591 -0.4346679 0.8627725
v -0.895345 -0.4347517 0.3378677
v 0.06714025 -0.3967348 0.8465493
v 0.06639928 -0.4300371 0.8801498
v -0.8610176 -0.4348448 0.8955746
v 0.3189261 -0.4322139 0.8955002
v 0.3181095 -0.395526 0.8617752
v 0.5260587 -0.3960542 0.8198343
v 0.5392655 -0.4290645 0.8517501
v 0.7260904 -0.4291871 0.7270102
v 0.701591 -0.3962956 0.7024948
v 0.05559362 -0.4010246 0.3377231
v -0.8619356 -0.4347517 0.3044211
v 0.05493078 -0.4346149 0.3044211
v -0.8619356 -0.4347517 0.3044211
v 0.2463224 -0.4012605 0.3378439
v 0.2129044 -0.4347233 0.3044211
v 0.2777555 -0.4347475 0.2775589
v 0.3111918 -0.4013042 0.3109976
v -0.8612789 -0.6356251 0.8955789
v 0.06639928 -0.6401722 0.8801498
v 0.06714025 -0.6734746 0.8465493
v -0.8613131 -0.6690733 0.8621268
v 0.3181058 -0.6746814 0.8615866
v 0.3189261 -0.6413951 0.8955002
v 0.5392655 -0.641183 0.8517501
v 0.5260733 -0.6742311 0.8198684
v 0.7016251 -0.6740108 0.7025284
v 0.7260904 -0.6410716 0.7270102
v 0.05493078 -0.6689039 0.3044211
v -0.8619356 -0.6689039 0.3044211
v 0.2129044 -0.6689039 0.3044211
v 0.2777555 -0.6689039 0.2775589
v -0.8947604 -0.6351954 0.8624258
v -0.8947591 -0.4346679 0.8627725
v -0.8610176 -0.4348448 0.8955746
v -0.8612789 -0.6356251 0.8955789
v 0.06639928 -0.4300371 0.8801498
v 0.06639928 -0.6401722 0.8801498
v 0.3189261 -0.6413951 0.8955002
v 0.3189261 -0.4322139 0.8955002
v 0.5392655 -0.4290645 0.8517501
v 0.5392655 -0.641183 0.8517501
v 0.7260904 -0.4291871 0.7270102
v 0.7260904 -0.6410716 0.7270102
v -0.8613131 -0.6690733 0.8621268
v 0.862565 -0.4350716 -0.8955789
v 0.3380643 -0.4347517 -0.8955789
v 0.3380643 -0.6354573 -0.8955789
v 0.8629691 -0.6355415 -0.8955789
v 0.05493078 -0.4346149 0.3044211
v -0.8619356 -0.4347517 0.3044211
v -0.8619356 -0.6689039 0.3044211
v 0.05493078 -0.6689039 0.3044211
v 0.2129044 -0.4347233 0.3044211
v 0.2129044 -0.6689039 0.3044211
v 0.2777555 -0.6689039 0.2775589
v 0.2777555 -0.4347475 0.2775589
v -0.8947591 -0.4346679 0.8627725
v -0.8613985 -0.4011372 0.8622134
v -0.8610176 -0.4348448 0.8955746
vt 0.6098633 0.2227783
vt 0.7177734 0.2220459
vt 0.7172852 0.2166748
vt 0.6098633 0.2175293
vt 0.7333984 0.217041
vt 0.7373047 0.22229
vt 0.6069336 0.2185059
vt 0.6044922 0.2232666
vt 0.6044922 0.2232666
vt 0.609375 0.2824707
vt 0.6147461 0.2810059
vt 0.6098633 0.2227783
vt 0.7177734 0.2220459
vt 0.7192383 0.2792969
vt 0.6132813 0.2861328
vt 0.7192383 0.284668
vt 0.7446289 0.2810059
vt 0.7446289 0.286377
vt 0.7695313 0.2824707
vt 0.7675781 0.2773438
vt 0.7885742 0.2661133
vt 0.7915039 0.2705078
vt 0.7373047 0.22229
vt 0.7451172 0.2198486
vt 0.7333984 0.217041
vt 0.7407227 0.2145996
vt 0.6777344 0.3933105
vt 0.7041016 0.3884277
vt 0.6987305 0.3845215
vt 0.6767578 0.3881836
vt 0.7036133 0.4140625
vt 0.8081055 0.4140625
vt 0.8100586 0.3876953
vt 0.8261719 0.3879395
vt 0.8232422 0.4143066
vt 0.8310547 0.4155273
vt 0.8344727 0.3894043
vt 0.6928711 0.3000488
vt 0.6972656 0.3227539
vt 0.7021484 0.3210449
vt 0.6982422 0.2990723
vt 0.7041016 0.3884277
vt 0.7016602 0.3261719
vt 0.6962891 0.3261719
vt 0.6987305 0.3845215
vt 0.8100586 0.3876953
vt 0.8076172 0.3269043
vt 0.8330078 0.3249512
vt 0.8261719 0.3879395
vt 0.8564453 0.3266602
vt 0.8344727 0.3894043
vt 0.8789063 0.3339844
vt 0.8808594 0.3286133
vt 0.7021484 0.3210449
vt 0.6972656 0.3227539
vt 0.7016602 0.3261719
vt 0.8076172 0.3269043
vt 0.8071289 0.3212891
vt 0.7021484 0.3210449
vt 0.8325195 0.3193359
vt 0.8330078 0.3249512
vt 0.8564453 0.3266602
vt 0.8569336 0.3215332
vt 0.8808594 0.3286133
vt 0.8061523 0.2971191
vt 0.6982422 0.2990723
vt 0.8598633 0.2980957
vt 0.8857422 0.3041992
vt 0.8334961 0.2961426
vt 0.2817383 0.6396484
vt 0.2785645 0.6982422
vt 0.2839355 0.6982422
vt 0.2868652 0.6357422
vt 0.2597656 0.6362305
vt 0.2602539 0.6308594
vt 0.2558594 0.6958008
vt 0.5917969 0.2763672
vt 0.5336914 0.2727051
vt 0.5322266 0.277832
vt 0.5917969 0.2817383
vt 0.5332031 0.1705322
vt 0.527832 0.1708984
vt 0.5283203 0.2739258
vt 0.5258789 0.1430664
vt 0.53125 0.1429443
vt 0.534668 0.119812
vt 0.5292969 0.1182861
vt 0.5410156 0.0958252
vt 0.5454102 0.09887695
vt 0.5908203 0.1707764
vt 0.597168 0.276123
vt 0.5961914 0.1712646
vt 0.5961914 0.279541
vt 0.590332 0.1489258
vt 0.5957031 0.152832
vt 0.5976563 0.1452637
vt 0.5927734 0.1412354
vt 0.2844238 0.7036133
vt 0.387207 0.7045898
vt 0.3876953 0.6987305
vt 0.2839355 0.6982422
vt 0.4152832 0.7006836
vt 0.4147949 0.7060547
vt 0.4396973 0.7041016
vt 0.4387207 0.6992188
vt 0.4611816 0.6918945
vt 0.463623 0.6972656
vt 0.3908691 0.6376953
vt 0.2868652 0.6357422
vt 0.4094238 0.637207
vt 0.4174805 0.6357422
vt 0.279541 0.7016602
vt 0.2749023 0.7241211
vt 0.2802734 0.7250977
vt 0.2844238 0.7036133
vt 0.3862305 0.7280273
vt 0.387207 0.7045898
vt 0.4147949 0.7060547
vt 0.4157715 0.7294922
vt 0.4431152 0.7270508
vt 0.4396973 0.7041016
vt 0.4680176 0.7211914
vt 0.463623 0.6972656
vt 0.2839355 0.6982422
vt 0.6733398 0.3276367
vt 0.6767578 0.3881836
vt 0.6987305 0.3845215
vt 0.6962891 0.3261719
vt 0.3896484 0.6118164
vt 0.2868652 0.6098633
vt 0.2868652 0.6357422
vt 0.3908691 0.6376953
vt 0.4067383 0.6108398
vt 0.4094238 0.637207
vt 0.4174805 0.6357422
vt 0.4143066 0.6098633
vt 0.5322266 0.277832
vt 0.5336914 0.2727051
vt 0.5283203 0.2739258
vn -0.004399943 0.999987 -0.002599966
vn -0.004399943 0.999987 -0.002599966
vn -1 0 0
vn -1 0 0
vn -1 0 0
vn -0.004399943 0.999987 -0.002599966
vn -1 0 0
vn 0 0 -1
vn 0 0 -1
vn 0 0 -1
vn -0.004399943 0.999987 -0.002599966
vn -0.004399943 0.999987 -0.002599966
vn -0.004399943 0.999987 -0.002599966
vn -0.004399943 0.999987 -0.002599966
vn 0.9998233 0 0.01880044
vn 0.9998233 0 0.01880044
vn -0.004399943 0.999987 -0.002599966
vn 0.9973171 0 -0.07320126
vn 0.9807227 0 0.1954045
vn -0.004399943 0.999987 -0.002599966
vn -0.004399943 0.999987 -0.002599966
vn 0.8313111 0 0.5558074
vn -0.004399943 0.999987 -0.002599966
vn -0.004399943 0.999987 -0.002599966
vn -1 0 0
vn -0.9238766 0 -0.3826903
vn -1 0 0
vn -1 0 0
vn 0 0 -1
vn 0 0 -1
vn -1 0 0
vn -1 0 0
vn -1 0 0
vn -1 0 0
vn -1 0 0
vn -0.9238766 0 -0.3826903
vn -0.9238766 0 -0.3826903
vn 0 0 -1
vn 0 0 -1
vn 0.9998233 0 0.01880044
vn 0.9998233 0 0.01880044
vn -1 0 0
vn -0.004399945 -0.9999875 -0.00239997
vn 0 0 -1
vn 0 0 -1
vn -1 0 0
vn -0.004399945 -0.9999875 -0.00239997
vn -0.004399945 -0.9999875 -0.00239997
vn -1 0 0
vn -0.004399945 -0.9999875 -0.00239997
vn -0.9238766 0 -0.3826903
vn -0.004399945 -0.9999875 -0.00239997
vn 0.8313111 0 0.5558074
vn 0.9998233 0 0.01880044
vn 0 0 -1
vn -0.004399945 -0.9999875 -0.00239997
vn -0.004399945 -0.9999875 -0.00239997
vn 0.9998233 0 0.01880044
vn 0.9998233 0 0.01880044
vn 0.9973171 0 -0.07320126
vn -0.004399945 -0.9999875 -0.00239997
vn -0.004399945 -0.9999875 -0.00239997
vn 0.9807227 0 0.1954045
vn 0.8313111 0 0.5558074
vn 0.9998233 0 0.01880044
vn 0.9998233 0 0.01880044
vn 0.9807227 0 0.1954045
vn 0.8313111 0 0.5558074
vn 0.9973171 0 -0.07320126
vn -0.9999994 0 0.001099999
vn -0.9999994 0 0.001099999
vn -0.004399945 -0.9999875 -0.00239997
vn 0 0 -1
vn -0.9999994 0 0.001099999
vn 0 0 -1
vn -0.9999994 0 0.001099999
vn -0.004399943 0.999987 -0.002599966
vn -0.004399943 0.999987 -0.002599966
vn -0.9999994 0 0.001099999
vn -0.9999994 0 0.001099999
vn -0.004399943 0.999987 -0.002599966
vn -0.06069734 0 0.9981562
vn 0.01659937 0 0.9998622
vn 0.1947891 0 0.9808452
vn -0.004399943 0.999987 -0.002599966
vn -0.004399943 0.999987 -0.002599966
vn 0.555277 0 0.8316655
vn 0.8313111 0 0.5558074
vn -0.004399943 0.999987 -0.002599966
vn -0.004399943 0.999987 -0.002599966
vn 0 0 -1
vn 0 0 -1
vn 0 0 -1
vn -0.004399943 0.999987 -0.002599966
vn -0.3826903 0 -0.9238766
vn -0.9238766 0 -0.3826903
vn -0.004399943 0.999987 -0.002599966
vn 0.01659937 0 0.9998622
vn -0.06069734 0 0.9981562
vn -0.004399945 -0.9999875 -0.00239997
vn -0.004399945 -0.9999875 -0.00239997
vn -0.004399945 -0.9999875 -0.00239997
vn 0.1947891 0 0.9808452
vn 0.555277 0 0.8316655
vn -0.004399945 -0.9999875 -0.00239997
vn -0.004399945 -0.9999875 -0.00239997
vn 0.8313111 0 0.5558074
vn 0 0 -1
vn 0 0 -1
vn -0.3826903 0 -0.9238766
vn -0.9238766 0 -0.3826903
vn -0.9999994 0 0.001099999
vn -0.9999994 0 0.001099999
vn 0.01659937 0 0.9998622
vn 0.01659937 0 0.9998622
vn -0.06069734 0 0.9981562
vn -0.06069734 0 0.9981562
vn 0.1947891 0 0.9808452
vn 0.1947891 0 0.9808452
vn 0.555277 0 0.8316655
vn 0.555277 0 0.8316655
vn 0.8313111 0 0.5558074
vn 0.8313111 0 0.5558074
vn -0.004399945 -0.9999875 -0.00239997
vn 0 0 -1
vn 0 0 -1
vn 0 0 -1
vn 0 0 -1
vn 0 0 -1
vn 0 0 -1
vn 0 0 -1
vn 0 0 -1
vn -0.3826903 0 -0.9238766
vn -0.3826903 0 -0.9238766
vn -0.9238766 0 -0.3826903
vn -0.9238766 0 -0.3826903
vn -0.9999994 0 0.001099999
vn -0.004399943 0.999987 -0.002599966
vn 0.01659937 0 0.9998622
g m_airballoon_basket_top_corner_02_0
f 3/3/3 2/2/2 1/1/1
f 4/4/4 3/3/3 1/1/1
f 2/2/2 3/3/3 5/5/5
f 6/6/6 2/2/2 5/5/5
f 8/8/8 7/7/7 1/1/1
f 11/11/11 10/10/10 9/9/9
f 12/12/12 11/11/11 9/9/9
f 11/11/11 12/12/12 13/13/13
f 14/14/14 11/11/11 13/13/13
f 11/11/11 14/14/14 15/15/15
f 10/10/10 11/11/11 15/15/15
f 14/14/14 16/16/16 15/15/15
f 16/16/16 14/14/14 17/17/17
f 18/18/18 16/16/16 17/17/17
f 19/19/19 18/18/18 17/17/17
f 20/20/20 19/19/19 17/17/17
f 19/19/19 20/20/20 21/21/21
f 22/22/22 19/19/19 21/21/21
f 14/14/14 13/13/13 23/23/23
f 17/17/17 14/14/14 23/23/23
f 21/21/21 20/20/20 24/24/24
f 20/20/20 17/17/17 24/24/24
f 17/17/17 23/23/23 24/24/24
f 23/23/23 25/25/25 24/24/24
f 25/25/25 26/26/26 24/24/24
f 29/29/29 28/28/28 27/27/27
f 30/30/30 29/29/29 27/27/27
f 32/32/32 31/31/31 28/28/28
f 33/33/33 32/32/32 28/28/28
f 33/33/33 34/34/34 32/32/32
f 34/34/34 35/35/35 32/32/32
f 35/35/35 34/34/34 36/36/36
f 34/34/34 37/37/37 36/36/36
f 40/40/40 39/39/39 38/38/38
f 41/41/41 40/40/40 38/38/38
f 44/44/44 43/43/43 42/42/42
f 45/45/45 44/44/44 42/42/42
f 46/46/46 42/42/42 43/43/43
f 47/47/47 46/46/46 43/43/43
f 46/46/46 47/47/47 48/48/48
f 49/49/49 46/46/46 48/48/48
f 49/49/49 48/48/48 50/50/50
f 51/51/51 49/49/49 50/50/50
f 51/51/51 50/50/50 52/52/52
f 52/52/52 50/50/50 53/53/53
f 55/55/55 54/54/54 43/43/43
f 58/58/58 57/57/57 56/56/56
f 59/59/59 58/58/58 56/56/56
f 58/58/58 60/60/60 57/57/57
f 60/60/60 61/61/61 57/57/57
f 62/62/62 61/61/61 60/60/60
f 63/63/63 62/62/62 60/60/60
f 62/62/62 63/63/63 64/64/64
f 58/58/58 59/59/59 65/65/65
f 60/60/60 58/58/58 65/65/65
f 59/59/59 66/66/66 65/65/65
f 63/63/63 67/67/67 64/64/64
f 67/67/67 68/68/68 64/64/64
f 69/69/69 67/67/67 63/63/63
f 60/60/60 69/69/69 63/63/63
f 69/69/69 60/60/60 65/65/65
f 72/72/72 71/71/71 70/70/70
f 73/73/73 72/72/72 70/70/70
f 70/70/70 74/74/74 73/73/73
f 74/74/74 70/70/70 71/71/71
f 74/74/74 75/75/75 73/73/73
f 76/76/76 74/74/74 71/71/71
f 79/79/79 78/78/78 77/77/77
f 80/80/80 79/79/79 77/77/77
f 78/78/78 81/81/81 77/77/77
f 82/82/82 81/81/81 78/78/78
f 83/83/83 82/82/82 78/78/78
f 82/82/82 84/84/84 81/81/81
f 84/84/84 85/85/85 81/81/81
f 86/86/86 85/85/85 84/84/84
f 87/87/87 86/86/86 84/84/84
f 87/87/87 88/88/88 86/86/86
f 88/88/88 89/89/89 86/86/86
f 81/81/81 90/90/90 77/77/77
f 81/81/81 85/85/85 90/90/90
f 77/77/77 90/90/90 91/91/91
f 90/90/90 92/92/92 91/91/91
f 93/93/93 80/80/80 77/77/77
f 92/92/92 90/90/90 94/94/94
f 85/85/85 94/94/94 90/90/90
f 95/95/95 92/92/92 94/94/94
f 96/96/96 95/95/95 94/94/94
f 97/97/97 96/96/96 94/94/94
f 86/86/86 89/89/89 97/97/97
f 85/85/85 86/86/86 97/97/97
f 85/85/85 97/97/97 94/94/94
f 100/100/100 99/99/99 98/98/98
f 101/101/101 100/100/100 98/98/98
f 99/99/99 100/100/100 102/102/102
f 103/103/103 99/99/99 102/102/102
f 104/104/104 103/103/103 102/102/102
f 105/105/105 104/104/104 102/102/102
f 105/105/105 106/106/106 104/104/104
f 106/106/106 107/107/107 104/104/104
f 100/100/100 101/101/101 108/108/108
f 101/101/101 109/109/109 108/108/108
f 100/100/100 108/108/108 110/110/110
f 102/102/102 100/100/100 110/110/110
f 105/105/105 102/102/102 110/110/110
f 111/111/111 105/105/105 110/110/110
f 111/111/111 106/106/106 105/105/105
f 114/114/114 113/113/113 112/112/112
f 115/115/115 114/114/114 112/112/112
f 116/116/116 114/114/114 115/115/115
f 117/117/117 116/116/116 115/115/115
f 117/117/117 118/118/118 116/116/116
f 118/118/118 119/119/119 116/116/116
f 120/120/120 119/119/119 118/118/118
f 121/121/121 120/120/120 118/118/118
f 122/122/122 120/120/120 121/121/121
f 123/123/123 122/122/122 121/121/121
f 112/112/112 124/124/124 115/115/115
f 127/127/127 126/126/126 125/125/125
f 128/128/128 127/127/127 125/125/125
f 131/131/131 130/130/130 129/129/129
f 132/132/132 131/131/131 129/129/129
f 132/132/132 129/129/129 133/133/133
f 134/134/134 132/132/132 133/133/133
f 135/135/135 134/134/134 133/133/133
f 136/136/136 135/135/135 133/133/133
f 139/139/139 138/138/138 137/137/137
