g m_airballoon_side_low_02
v -0.01999935 -1.91 -0.6000011
v -0.01999924 -1.91 0.6000003
v 0 -1.8 0.6000003
v -1.144409E-07 -1.8 -0.6000007
v -0.07999973 -2.03 -0.6000004
v -0.07999893 -2.03 0.6000006
v -0.1499994 -2.13 -0.6000004
v -0.1499991 -2.13 0.6000003
v -0.07999893 -2.03 0.6000006
v -0.07999973 -2.03 -0.6000004
v -0.2599986 -2.21 -0.5999989
v -0.2599992 -2.21 0.6000004
v -0.3699988 -2.25 -0.5999998
v -0.3699991 -2.25 0.6
v -0.4899988 -2.27 -0.5999997
v -0.4899988 -2.27 0.6000003
v 0 -0.6 0.6000003
v -3.814697E-08 -0.6 -0.6000006
v -1.144409E-07 -1.8 -0.6000007
v 0 -1.8 0.6000003
v 0 0.4692038 0.6000003
v 3.814697E-08 0.4692038 -0.6000003
v -3.814697E-08 -0.6 -0.6000006
v 0 -0.6 0.6000003
vt 17.54688 14.50781
vt 17.54688 12.45313
vt 17.34375 12.45313
vt 17.34375 14.50781
vt 17.76563 14.50781
vt 17.76563 12.45313
vt 17.96875 14.50781
vt 17.96875 12.45313
vt 17.76563 12.45313
vt 17.76563 14.50781
vt 18.17188 14.50781
vt 18.17188 12.45313
vt 18.375 14.50781
vt 18.375 12.45313
vt 18.54688 14.50781
vt 18.54688 12.45313
vt 16.42188 12.45313
vt 16.42188 14.50781
vt 18.34375 14.50781
vt 18.32813 12.45313
vt 16.64063 12.45313
vt 16.64063 14.50781
vt 18.34375 14.50781
vt 18.32813 12.45313
vn 0.991165 -0.1325725 0.004066653
vn 0.9893841 -0.145267 0.004064486
vn 1 0 0
vn 1 0 0
vn 0.867947 -0.4966498 0.002634589
vn 0.867947 -0.4966498 0.002634589
vn 0.6964453 -0.7176086 0.001337104
vn 0.6964453 -0.7176086 0.001337104
vn 0.867947 -0.4966498 0.002634589
vn 0.867947 -0.4966498 0.002634589
vn 0.4869865 -0.8734095 3.099966E-05
vn 0.4869865 -0.8734095 3.099966E-05
vn 0.2568308 -0.9664556 -0.001215125
vn 0.2568308 -0.9664556 -0.001215125
vn 0.1284869 -0.9917095 -0.001844582
vn 0.1284869 -0.9917095 -0.001844582
vn 1 0 0
vn 1 0 0
vn 1 0 0
vn 1 0 0
vn 1 0 0
vn 1 0 0
vn 1 0 0
vn 1 0 0
g m_airballoon_side_low_02_0
f 3/3/3 2/2/2 1/1/1
f 4/4/4 3/3/3 1/1/1
f 1/1/1 2/2/2 5/5/5
f 2/2/2 6/6/6 5/5/5
f 9/9/9 8/8/8 7/7/7
f 10/10/10 9/9/9 7/7/7
f 7/7/7 8/8/8 11/11/11
f 8/8/8 12/12/12 11/11/11
f 11/11/11 12/12/12 13/13/13
f 12/12/12 14/14/14 13/13/13
f 13/13/13 14/14/14 15/15/15
f 14/14/14 16/16/16 15/15/15
f 19/19/19 18/18/18 17/17/17
f 20/20/20 19/19/19 17/17/17
f 23/23/23 22/22/22 21/21/21
f 24/24/24 23/23/23 21/21/21
