g m_airballoon_floorboard_broken_01
v -0.3102583 0.05626239 -1.038268
v 0.3019095 0.05540851 -1.052203
v 0.2994024 0.06486613 -1.035994
v -0.3091003 0.06509905 -1.021725
v -0.3238828 0.05430498 -1.025996
v 0.3151238 0.05403749 -1.040246
v 0.2956759 0.06496675 0.9064277
v 0.1516584 0.06501613 0.797501
v -0.1955296 0.06506557 0.6606306
v -0.3048846 0.06506536 0.6708704
v -0.2096938 0.04809462 0.6790696
v 0.07819295 0.06504525 0.797995
v 0.1376404 0.04804847 0.8145688
v 0.0922318 0.04806919 0.8148722
v -0.124756 0.065057 1.090661
v -0.1416151 0.0487588 1.092725
v -0.2096938 0.04809462 0.6790696
v 0.02453237 0.06505584 1.079231
v 0.0922318 0.04806919 0.8148722
v 0.04134466 0.04785356 1.079779
v 0.1808864 0.06501269 0.948649
v 0.294861 0.0468535 0.9259672
v 0.1850326 0.04826434 0.9655912
v 0.1643192 0.04826804 0.9541038
v -0.3197193 0.05429384 0.6721351
v -0.3238828 0.05430498 -1.025996
v -0.3571479 -0.04867736 -1.089208
v -0.3440593 -0.04888879 -1.104145
v -0.3102583 0.05626239 -1.038268
v -0.3550914 -0.04870735 0.6681385
v -0.3197193 0.05429384 0.6721351
v -0.3379234 -0.06485929 -1.09696
v 0.3479793 -0.06454241 -1.100429
v 0.3445914 -0.04921196 -1.108806
v -0.3440593 -0.04888879 -1.104145
v -0.3571479 -0.04867736 -1.089208
v 0.3019095 0.05540851 -1.052203
v 0.3445914 -0.04921196 -1.108806
v 0.3571478 -0.04914526 -1.09427
v 0.3151238 0.05403749 -1.040246
v 0.3108236 0.05406774 0.9071085
v 0.2956759 0.06496675 0.9064277
v 0.2994024 0.06486613 -1.035994
v 0.3488224 -0.04892718 0.9020716
v 0.3276908 -0.04531319 0.9227692
v 0.294861 0.0468535 0.9259672
v -0.3102583 0.05626239 -1.038268
v -0.3440593 -0.04888879 -1.104145
v 0.3445914 -0.04921196 -1.108806
v 0.3019095 0.05540851 -1.052203
v 0.3479793 -0.06454241 -1.100429
v 0.3571478 -0.04914526 -1.09427
v 0.3445914 -0.04921196 -1.108806
v 0.1644234 -0.04590131 0.9546494
v 0.1643192 0.04826804 0.9541038
v 0.1850326 0.04826434 0.9655912
v 0.184956 -0.04590708 0.9670759
v 0.1808864 0.06501269 0.948649
v 0.1809189 -0.06383776 0.9505701
v 0.1516555 -0.06383578 0.7975047
v 0.1376404 -0.04685935 0.8145688
v 0.1644234 -0.04590131 0.9546494
v 0.3316613 -0.06388989 0.9056525
v 0.184956 -0.04590708 0.9670759
v -0.3379234 -0.06485929 -1.09696
v 0.3479793 -0.06454241 -1.100429
v -0.1953509 -0.06364713 0.6616602
v 0.07819021 -0.06380666 0.7979917
v 0.0922318 -0.0468384 0.8148722
v 0.1376404 -0.04685935 0.8145688
v -0.1247558 -0.0637949 1.090661
v -0.2096938 -0.0467762 0.6790696
v -0.1416151 -0.04749678 1.092725
v 0.02453283 -0.06379607 1.079232
v -0.1227207 -0.04749708 1.107524
v 0.02321477 -0.04659337 1.096001
v -0.3361348 -0.06481503 0.6659061
v -0.3326377 -0.04566612 0.6837681
v -0.2096938 -0.0467762 0.6790696
v -0.3550914 -0.04870735 0.6681385
v -0.3571479 -0.04867736 -1.089208
v 0.3571478 -0.04914526 -1.09427
v 0.3488224 -0.04892718 0.9020716
v 0.3276908 -0.04531319 0.9227692
v 0.184956 -0.04590708 0.9670759
v 0.3276908 -0.04531319 0.9227692
v 0.3316613 -0.06388989 0.9056525
v 0.294861 0.0468535 0.9259672
v 0.1850326 0.04826434 0.9655912
v 0.1644234 -0.04590131 0.9546494
v 0.1809189 -0.06383776 0.9505701
v 0.07819021 -0.06380666 0.7979917
v 0.02453283 -0.06379607 1.079232
v 0.04134466 -0.04659395 1.079779
v 0.0922318 -0.0468384 0.8148722
v 0.02321477 -0.04659337 1.096001
v 0.02321477 -0.04659337 1.096001
v 0.02321477 0.04785414 1.096001
v 0.04134466 0.04785356 1.079779
v 0.04134466 -0.04659395 1.079779
v 0.0922318 0.04806919 0.8148722
v 0.0922318 -0.0468384 0.8148722
v -0.1416151 -0.04749678 1.092725
v -0.1416151 0.0487588 1.092725
v -0.1227207 0.04875851 1.107524
v -0.1227207 -0.04749708 1.107524
v -0.2096938 -0.0467762 0.6790696
v -0.2096938 0.04809462 0.6790696
v -0.1247558 -0.0637949 1.090661
v 0.1643192 0.04826804 0.9541038
v 0.1376404 0.04804847 0.8145688
v 0.1516584 0.06501613 0.797501
v 0.1376404 -0.04685935 0.8145688
v 0.1643192 0.04826804 0.9541038
v 0.1644234 -0.04590131 0.9546494
v 0.3108236 0.05406774 0.9071085
v 0.294861 0.0468535 0.9259672
v 0.02321477 0.04785414 1.096001
v -0.1227207 0.04875851 1.107524
v -0.124756 0.065057 1.090661
v 0.02453237 0.06505584 1.079231
v -0.1227207 -0.04749708 1.107524
v 0.02321477 -0.04659337 1.096001
v 0.04134466 0.04785356 1.079779
v -0.2096938 0.04809462 0.6790696
v -0.3020579 0.04535169 0.6877958
v -0.3048846 0.06506536 0.6708704
v -0.3020579 0.04535169 0.6877958
v -0.3197193 0.05429384 0.6721351
v -0.3550914 -0.04870735 0.6681385
v -0.3326377 -0.04566612 0.6837681
v 0.0922318 -0.0468384 0.8148722
v 0.0922318 0.04806919 0.8148722
v 0.1376404 0.04804847 0.8145688
v 0.1376404 -0.04685935 0.8145688
v -0.3020579 0.04535169 0.6877958
v -0.2096938 0.04809462 0.6790696
v -0.2096938 -0.0467762 0.6790696
v -0.3326377 -0.04566612 0.6837681
v -0.1227207 0.04875851 1.107524
v -0.1416151 0.0487588 1.092725
v -0.124756 0.065057 1.090661
vt 0.3464355 0.5566406
vt 0.4863281 0.5654297
vt 0.4858398 0.5620117
vt 0.3469238 0.5532227
vt 0.3435059 0.5537109
vt 0.489502 0.5629883
vt 0.486084 0.2384033
vt 0.4526367 0.2558594
vt 0.3725586 0.2766113
vt 0.347168 0.2746582
vt 0.3691406 0.2736816
vt 0.435791 0.2553711
vt 0.4494629 0.2529297
vt 0.4389648 0.2526855
vt 0.3886719 0.2062988
vt 0.3847656 0.2058105
vt 0.3691406 0.2736816
vt 0.4230957 0.2088623
vt 0.4389648 0.2526855
vt 0.427002 0.2087402
vt 0.4594727 0.230957
vt 0.4858398 0.2351074
vt 0.4604492 0.2281494
vt 0.4555664 0.2299805
vt 0.34375 0.2741699
vt 0.3435059 0.5537109
vt 0.3352051 0.5683594
vt 0.3378906 0.5717773
vt 0.3464355 0.5566406
vt 0.3352051 0.2749023
vt 0.34375 0.2741699
vt 0.3371582 0.5703125
vt 0.4963379 0.5776367
vt 0.4953613 0.5791016
vt 0.3378906 0.5717773
vt 0.3352051 0.5683594
vt 0.4863281 0.5654297
vt 0.4953613 0.5791016
vt 0.4985352 0.5761719
vt 0.489502 0.5629883
vt 0.489502 0.2384033
vt 0.486084 0.2384033
vt 0.4858398 0.5620117
vt 0.4980469 0.2385254
vt 0.4868164 0.2357178
vt 0.4858398 0.2351074
vt 0.3464355 0.5566406
vt 0.3378906 0.5717773
vt 0.4953613 0.5791016
vt 0.4863281 0.5654297
vt 0.4963379 0.5776367
vt 0.4985352 0.5761719
vt 0.4953613 0.5791016
vt 0.4555664 0.2298584
vt 0.4555664 0.2299805
vt 0.4604492 0.2281494
vt 0.4602051 0.2281494
vt 0.4594727 0.230957
vt 0.4587402 0.2305908
vt 0.4521484 0.2556152
vt 0.4494629 0.2529297
vt 0.4555664 0.2298584
vt 0.486084 0.2385254
vt 0.4602051 0.2281494
vt 0.3371582 0.5703125
vt 0.4858398 0.5620117
vt 0.3725586 0.2766113
vt 0.435791 0.2553711
vt 0.4389648 0.2526855
vt 0.4494629 0.2529297
vt 0.3886719 0.2062988
vt 0.3691406 0.2736816
vt 0.3847656 0.2058105
vt 0.4230957 0.2088623
vt 0.3891602 0.2034912
vt 0.4228516 0.2060547
vt 0.3371582 0.2751465
vt 0.3393555 0.2722168
vt 0.3691406 0.2736816
vt 0.3352051 0.2749023
vt 0.3352051 0.5683594
vt 0.4985352 0.5761719
vt 0.4980469 0.2385254
vt 0.4868164 0.2357178
vt 0.4602051 0.2281494
vt 0.4868164 0.2357178
vt 0.486084 0.2385254
vt 0.4858398 0.2351074
vt 0.4604492 0.2281494
vt 0.4555664 0.2298584
vt 0.4587402 0.2305908
vt 0.435791 0.2553711
vt 0.4230957 0.2088623
vt 0.427002 0.2087402
vt 0.4389648 0.2526855
vt 0.4228516 0.2060547
vt 0.4228516 0.2060547
vt 0.4228516 0.2060547
vt 0.427002 0.2087402
vt 0.427002 0.2087402
vt 0.4389648 0.2526855
vt 0.4389648 0.2526855
vt 0.3847656 0.2058105
vt 0.3847656 0.2058105
vt 0.3891602 0.2034912
vt 0.3891602 0.2034912
vt 0.3691406 0.2736816
vt 0.3691406 0.2736816
vt 0.3886719 0.2062988
vt 0.4555664 0.2299805
vt 0.4494629 0.2529297
vt 0.4526367 0.2558594
vt 0.4494629 0.2529297
vt 0.4555664 0.2299805
vt 0.4555664 0.2298584
vt 0.489502 0.2384033
vt 0.487793 0.2358398
vt 0.4228516 0.2060547
vt 0.3891602 0.2034912
vt 0.3886719 0.2062988
vt 0.4230957 0.2088623
vt 0.3891602 0.2034912
vt 0.4228516 0.2060547
vt 0.427002 0.2087402
vt 0.3691406 0.2736816
vt 0.3483887 0.2719727
vt 0.347168 0.2746582
vt 0.3476563 0.2719727
vt 0.34375 0.2741699
vt 0.3352051 0.2749023
vt 0.3393555 0.2722168
vt 0.4389648 0.2526855
vt 0.4389648 0.2526855
vt 0.4494629 0.2529297
vt 0.4494629 0.2529297
vt 0.3476563 0.2719727
vt 0.3691406 0.2736816
vt 0.3691406 0.2736816
vt 0.3393555 0.2722168
vt 0.3891602 0.2034912
vt 0.3847656 0.2058105
vt 0.3886719 0.2062988
vn -0.02689439 0.5543617 -0.8318412
vn 0.001741491 0.5490927 -0.8357597
vn 0.02044277 0.9997776 -0.005170084
vn -0.01710069 0.9998426 -0.004721568
vn -0.9285879 0.3710986 -0.003230755
vn 0.9096191 0.4154402 -0.001625258
vn 0.01553847 0.9998786 0.001170683
vn -0.0009732526 0.9999993 0.0007216245
vn -0.00326484 0.9999936 0.001512255
vn -0.01662088 0.9998604 0.001709334
vn 0.06538486 0.1656981 0.9840066
vn 0.00263912 0.9999961 0.0009357209
vn 0.006605018 0.2320141 0.97269
vn 0.006605439 0.2316485 0.9727771
vn -0.005208998 0.9999822 0.002926369
vn -0.969507 0.1508644 0.193122
vn -0.967665 0.1957301 0.1591046
vn 0.003654061 0.9999906 0.002343019
vn 0.9638028 0.1919054 0.1850854
vn 0.9608856 0.1541164 0.2301024
vn -0.001536217 0.9999957 0.002514329
vn 0.3729468 0.1900909 0.908172
vn 0.2088865 0.1677128 0.9634516
vn -0.9480125 0.1421674 0.2847118
vn -0.9195478 0.3928087 0.01153741
vn -0.9285879 0.3710986 -0.003230755
vn -0.9999506 0.004649091 -0.008780466
vn -0.03027466 0.4103557 -0.9114229
vn -0.02689439 0.5543617 -0.8318412
vn -0.9905199 0.1370394 0.009520806
vn -0.9195478 0.3928087 0.01153741
vn -0.0160728 -0.9998296 -0.009077221
vn 0.018431 -0.999809 -0.006510428
vn 0.008088177 0.3659016 -0.9306184
vn -0.03027466 0.4103557 -0.9114229
vn -0.9999506 0.004649091 -0.008780466
vn 0.001741491 0.5490927 -0.8357597
vn 0.008088177 0.3659016 -0.9306184
vn 0.9904417 0.1378693 -0.004174403
vn 0.9096191 0.4154402 -0.001625258
vn 0.9000162 0.4357227 0.01079424
vn 0.01553847 0.9998786 0.001170683
vn 0.02044277 0.9997776 -0.005170084
vn 0.9777089 0.2097476 0.009562548
vn 0.3996588 -0.1130553 0.9096655
vn 0.3729468 0.1900909 0.908172
vn -0.02689439 0.5543617 -0.8318412
vn -0.03027466 0.4103557 -0.9114229
vn 0.008088177 0.3659016 -0.9306184
vn 0.001741491 0.5490927 -0.8357597
vn 0.018431 -0.999809 -0.006510428
vn 0.9904417 0.1378693 -0.004174403
vn 0.008088177 0.3659016 -0.9306184
vn -0.9479141 -0.1424576 0.2848939
vn -0.9480125 0.1421674 0.2847118
vn 0.2088865 0.1677128 0.9634516
vn 0.2072394 -0.1133647 0.9716996
vn -0.001536217 0.9999957 0.002514329
vn -0.000750071 -0.999995 0.003067005
vn -0.0004058672 -0.9999994 0.00106604
vn -0.9627998 -0.1972119 0.1847266
vn -0.9479141 -0.1424576 0.2848939
vn 0.01795986 -0.9998369 0.001886307
vn 0.2072394 -0.1133647 0.9716996
vn -0.0160728 -0.9998296 -0.009077221
vn 0.018431 -0.999809 -0.006510428
vn -0.002339812 -0.9999954 0.001962221
vn 0.002765787 -0.9999955 0.001239098
vn 0.006396175 -0.2315075 0.9728121
vn 0.006394859 -0.2321478 0.9726595
vn -0.004013554 -0.9999876 0.002957896
vn -0.968092 -0.1935895 0.1591255
vn -0.969515 -0.150832 0.1931075
vn 0.003645261 -0.9999903 0.002457434
vn -0.011109 -0.14248 0.9897354
vn 0.1559428 -0.1456449 0.9769695
vn -0.02144438 -0.9997677 0.002146949
vn -0.1042245 -0.1678822 0.9802821
vn 0.05371326 -0.2531021 0.9659473
vn -0.9905199 0.1370394 0.009520806
vn -0.9999506 0.004649091 -0.008780466
vn 0.9904417 0.1378693 -0.004174403
vn 0.9777089 0.2097476 0.009562548
vn 0.3996588 -0.1130553 0.9096655
vn 0.2072394 -0.1133647 0.9716996
vn 0.3996588 -0.1130553 0.9096655
vn 0.01795986 -0.9998369 0.001886307
vn 0.3729468 0.1900909 0.908172
vn 0.2088865 0.1677128 0.9634516
vn -0.9479141 -0.1424576 0.2848939
vn -0.000750071 -0.999995 0.003067005
vn 0.002765787 -0.9999955 0.001239098
vn 0.003645261 -0.9999903 0.002457434
vn 0.9608822 -0.1541211 0.2301135
vn 0.9637903 -0.1919544 0.1850993
vn 0.1559428 -0.1456449 0.9769695
vn 0.1559428 -0.1456449 0.9769695
vn 0.1559427 0.145646 0.9769694
vn 0.9608856 0.1541164 0.2301024
vn 0.9608822 -0.1541211 0.2301135
vn 0.9638028 0.1919054 0.1850854
vn 0.9637903 -0.1919544 0.1850993
vn -0.969515 -0.150832 0.1931075
vn -0.969507 0.1508644 0.193122
vn -0.01110844 0.1424822 0.989735
vn -0.011109 -0.14248 0.9897354
vn -0.968092 -0.1935895 0.1591255
vn -0.967665 0.1957301 0.1591046
vn -0.004013554 -0.9999876 0.002957896
vn -0.9480125 0.1421674 0.2847118
vn -0.962752 0.1979884 0.184145
vn -0.0009732526 0.9999993 0.0007216245
vn -0.9627998 -0.1972119 0.1847266
vn -0.9480125 0.1421674 0.2847118
vn -0.9479141 -0.1424576 0.2848939
vn 0.9000162 0.4357227 0.01079424
vn 0.3729468 0.1900909 0.908172
vn 0.1559427 0.145646 0.9769694
vn -0.01110844 0.1424822 0.989735
vn -0.005208998 0.9999822 0.002926369
vn 0.003654061 0.9999906 0.002343019
vn -0.011109 -0.14248 0.9897354
vn 0.1559428 -0.1456449 0.9769695
vn 0.9608856 0.1541164 0.2301024
vn 0.06538486 0.1656981 0.9840066
vn -0.04472071 0.1147271 0.99239
vn -0.01662088 0.9998604 0.001709334
vn -0.04472071 0.1147271 0.99239
vn -0.9195478 0.3928087 0.01153741
vn -0.9905199 0.1370394 0.009520806
vn -0.1042245 -0.1678822 0.9802821
vn 0.006396175 -0.2315075 0.9728121
vn 0.006605439 0.2316485 0.9727771
vn 0.006605018 0.2320141 0.97269
vn 0.006394859 -0.2321478 0.9726595
vn -0.04472071 0.1147271 0.99239
vn 0.06538486 0.1656981 0.9840066
vn 0.05371326 -0.2531021 0.9659473
vn -0.1042245 -0.1678822 0.9802821
vn -0.01110844 0.1424822 0.989735
vn -0.969507 0.1508644 0.193122
vn -0.005208998 0.9999822 0.002926369
g m_airballoon_floorboard_broken_01_0
f 3/3/3 2/2/2 1/1/1
f 4/4/4 3/3/3 1/1/1
f 5/5/5 4/4/4 1/1/1
f 2/2/2 3/3/3 6/6/6
f 7/7/7 3/3/3 4/4/4
f 4/4/4 8/8/8 7/7/7
f 4/4/4 9/9/9 8/8/8
f 9/9/9 4/4/4 10/10/10
f 9/9/9 10/10/10 11/11/11
f 12/12/12 8/8/8 9/9/9
f 8/8/8 12/12/12 13/13/13
f 12/12/12 14/14/14 13/13/13
f 9/9/9 15/15/15 12/12/12
f 15/15/15 9/9/9 16/16/16
f 9/9/9 17/17/17 16/16/16
f 15/15/15 18/18/18 12/12/12
f 12/12/12 18/18/18 19/19/19
f 18/18/18 20/20/20 19/19/19
f 8/8/8 21/21/21 7/7/7
f 22/22/22 7/7/7 21/21/21
f 23/23/23 22/22/22 21/21/21
f 21/21/21 8/8/8 24/24/24
f 25/25/25 10/10/10 4/4/4
f 5/5/5 25/25/25 4/4/4
f 28/28/28 27/27/27 26/26/26
f 29/29/29 28/28/28 26/26/26
f 26/26/26 27/27/27 30/30/30
f 31/31/31 26/26/26 30/30/30
f 34/34/34 33/33/33 32/32/32
f 35/35/35 34/34/34 32/32/32
f 35/35/35 32/32/32 36/36/36
f 39/39/39 38/38/38 37/37/37
f 40/40/40 39/39/39 37/37/37
f 39/39/39 40/40/40 41/41/41
f 42/42/42 41/41/41 40/40/40
f 43/43/43 42/42/42 40/40/40
f 44/44/44 39/39/39 41/41/41
f 45/45/45 44/44/44 41/41/41
f 46/46/46 45/45/45 41/41/41
f 49/49/49 48/48/48 47/47/47
f 50/50/50 49/49/49 47/47/47
f 53/53/53 52/52/52 51/51/51
f 56/56/56 55/55/55 54/54/54
f 57/57/57 56/56/56 54/54/54
f 58/58/58 55/55/55 56/56/56
f 61/61/61 60/60/60 59/59/59
f 62/62/62 61/61/61 59/59/59
f 63/63/63 59/59/59 60/60/60
f 59/59/59 63/63/63 64/64/64
f 63/63/63 60/60/60 65/65/65
f 65/65/65 66/66/66 63/63/63
f 60/60/60 67/67/67 65/65/65
f 67/67/67 60/60/60 68/68/68
f 69/69/69 68/68/68 60/60/60
f 70/70/70 69/69/69 60/60/60
f 68/68/68 71/71/71 67/67/67
f 72/72/72 67/67/67 71/71/71
f 73/73/73 72/72/72 71/71/71
f 68/68/68 74/74/74 71/71/71
f 75/75/75 71/71/71 74/74/74
f 76/76/76 75/75/75 74/74/74
f 65/65/65 67/67/67 77/77/77
f 78/78/78 77/77/77 67/67/67
f 79/79/79 78/78/78 67/67/67
f 80/80/80 77/77/77 78/78/78
f 81/81/81 65/65/65 77/77/77
f 80/80/80 81/81/81 77/77/77
f 66/66/66 82/82/82 63/63/63
f 82/82/82 83/83/83 63/63/63
f 63/63/63 83/83/83 84/84/84
f 87/87/87 86/86/86 85/85/85
f 85/85/85 86/86/86 88/88/88
f 89/89/89 85/85/85 88/88/88
f 91/91/91 85/85/85 90/90/90
f 94/94/94 93/93/93 92/92/92
f 95/95/95 94/94/94 92/92/92
f 93/93/93 94/94/94 96/96/96
f 99/99/99 98/98/98 97/97/97
f 100/100/100 99/99/99 97/97/97
f 101/101/101 99/99/99 100/100/100
f 102/102/102 101/101/101 100/100/100
f 105/105/105 104/104/104 103/103/103
f 106/106/106 105/105/105 103/103/103
f 103/103/103 104/104/104 107/107/107
f 104/104/104 108/108/108 107/107/107
f 109/109/109 106/106/106 103/103/103
f 112/112/112 111/111/111 110/110/110
f 114/114/114 111/111/111 113/113/113
f 115/115/115 114/114/114 113/113/113
f 117/117/117 116/116/116 7/7/7
f 120/120/120 119/119/119 118/118/118
f 121/121/121 120/120/120 118/118/118
f 118/118/118 119/119/119 122/122/122
f 123/123/123 118/118/118 122/122/122
f 121/121/121 118/118/118 124/124/124
f 127/127/127 126/126/126 125/125/125
f 127/127/127 129/129/129 128/128/128
f 129/129/129 130/130/130 128/128/128
f 130/130/130 131/131/131 128/128/128
f 134/134/134 133/133/133 132/132/132
f 135/135/135 134/134/134 132/132/132
f 138/138/138 137/137/137 136/136/136
f 139/139/139 138/138/138 136/136/136
f 142/142/142 141/141/141 140/140/140
