g m_air_balloon_side_end_v2_02
v 0.2165065 0.1636172 -0.1154019
v 0.125023 0.07272591 -0.1151279
v 0.1250227 0.07272629 0.09041229
v 0.2165063 0.1636172 0.09011535
v 0.001756515 0.04050545 -0.1151868
v 0.001756439 0.04050545 0.09038055
v 0.2165065 0.163617 -0.185097
v 0.2500001 0.2886169 -0.185097
v 0.2500001 0.288617 -0.1154019
v 0.125023 0.07272591 -0.1848416
v -0.1215097 0.07272591 -0.115141
v -0.2165063 0.1636172 -0.11543
v -0.2165065 0.1636172 0.09008209
v -0.12151 0.07272629 0.09037963
v -0.2500001 0.2886172 0.09011535
v -0.25 0.288617 -0.1154019
v 0.001756439 0.04050545 0.09038055
v 0.001756515 0.04050545 -0.1151868
v -0.1215097 0.07272591 -0.1848538
v -0.2165063 0.163617 -0.1851233
v -0.25 0.288617 -0.1154019
v -0.2165063 0.413617 -0.1154019
v -0.2165065 0.4136172 0.09011474
v -0.2500001 0.2886172 0.09011535
v -0.125 0.5051234 0.09011474
v -0.125 0.5051234 -0.1154019
v -0.2499999 0.2886169 -0.185097
v -0.2165063 0.163617 -0.1851233
v -0.2165063 0.1636172 -0.11543
v -0.2165063 0.413617 -0.185097
v -0.125 0.5051234 -0.185097
v -0.125 0.5051234 -0.1154019
v 0 0.538617 -0.1154019
v 0 0.5386171 0.09011474
v -0.125 0.5051234 0.09011474
v 0.1250001 0.5051234 0.09011535
v 0.1250001 0.5051234 -0.1154019
v -0.125 0.5051234 -0.185097
v 1.907349E-08 0.538617 -0.185097
v 0.1250001 0.5051234 -0.185097
v 0.1250001 0.5051234 -0.1154019
v 0.2165065 0.413617 -0.1154019
v 0.2165063 0.4136172 0.09011535
v 0.1250001 0.5051234 0.09011535
v 0.2499998 0.2886172 0.09011535
v 0.2500001 0.288617 -0.1154019
v 0.2165063 0.1636172 0.09011535
v 0.2165065 0.1636172 -0.1154019
v 0.1250001 0.5051234 -0.185097
v 0.2165065 0.413617 -0.185097
v 0.2500001 0.2886169 -0.185097
v 0 0.4404975 0.1849234
v 0.0001604271 0.2892989 0.1849722
v -0.07594024 0.4201494 0.1849234
v -0.1315323 0.3645574 0.1849234
v -0.1518805 0.2886172 0.1849234
v -0.1317936 0.2137814 0.1849234
v -0.07372131 0.1582626 0.1851227
v 0.001756439 0.1385331 0.1851233
v 0.0763263 0.1579914 0.1851227
v 0.07594024 0.4201494 0.1849234
v 0.1315322 0.3645574 0.1849234
v 0.1518803 0.2886172 0.1849234
v 0.131575 0.2128362 0.1849234
v 0.1916322 0.1780323 0.1571429
v 0.2212631 0.2886172 0.1571429
v 0.1107571 0.097705 0.157417
v -0.1916962 0.1783091 0.1571329
v -0.10751 0.0977845 0.1574081
v 0.001756439 0.06922302 0.1574084
v -0.2212634 0.2886172 0.1571429
v -0.1916198 0.399249 0.1571429
v 0.1916196 0.399249 0.1571429
v 0.1106316 0.480237 0.1571429
v 0 0.5098804 0.1571429
v -0.1106318 0.480237 0.1571429
v 0.2165063 0.1636172 0.09011535
v 0.1916322 0.1780323 0.1571429
v 0.2212631 0.2886172 0.1571429
v 0.1250227 0.07272629 0.09041229
v 0.1107571 0.097705 0.157417
v 0.001756439 0.04050545 0.09038055
v 0.001756439 0.06922302 0.1574084
v 0.2165063 0.1636172 0.09011535
v 0.2212631 0.2886172 0.1571429
v 0.2499998 0.2886172 0.09011535
v 0.1916196 0.399249 0.1571429
v 0.2165063 0.4136172 0.09011535
v 0.1106316 0.480237 0.1571429
v 0.1250001 0.5051234 0.09011535
v -0.2165065 0.1636172 0.09008209
v -0.1916962 0.1783091 0.1571329
v -0.10751 0.0977845 0.1574081
v -0.12151 0.07272629 0.09037963
v 0.001756439 0.06922302 0.1574084
v 0.001756439 0.04050545 0.09038055
v -0.2500001 0.2886172 0.09011535
v -0.1916962 0.1783091 0.1571329
v -0.2500001 0.2886172 0.09011535
v -0.2212634 0.2886172 0.1571429
v -0.2165065 0.4136172 0.09011474
v -0.1916198 0.399249 0.1571429
v -0.125 0.5051234 0.09011474
v -0.1106318 0.480237 0.1571429
v -0.1106318 0.480237 0.1571429
v -0.125 0.5051234 0.09011474
v 0 0.5386171 0.09011474
v 0 0.5098804 0.1571429
v 0.1250001 0.5051234 0.09011535
v 0.1106316 0.480237 0.1571429
v -0.158996 0.1905236 -0.1848132
v -0.158996 -0.5386171 -0.1848648
v 0.1653686 -0.5386171 -0.1848648
v 0.1653686 0.1905236 -0.1848132
v 0.189657 0.1905234 -0.1605249
v 0.189657 -0.5386171 -0.1605765
v -0.158996 -0.5386171 0.009463158
v -0.158996 0.190523 0.009513511
v 0.1653686 0.190523 0.009513511
v 0.1653686 -0.5386171 0.009463158
v -0.1832844 0.190523 -0.01477417
v -0.1832844 -0.5386171 -0.01482544
v 0.189657 -0.5386171 -0.01482544
v 0.189657 0.190523 -0.01477417
v 0.189657 0.1905234 -0.1605249
v 0.189657 -0.5386171 -0.1605765
v 0.189657 -0.5386171 -0.01482544
v 0.189657 0.190523 -0.01477417
v -0.1832844 0.190523 -0.01477417
v -0.1832844 -0.5386171 -0.01482544
v -0.1832844 -0.5386171 -0.1605765
v -0.1832844 0.1905234 -0.1605249
v -0.158996 0.1905236 -0.1848132
v -0.158996 -0.5386171 -0.1848648
vt 0.8652536 0.6299275
vt 0.8652836 0.6154432
vt 0.8883692 0.615442
vt 0.8883365 0.6299264
vt 0.8652751 0.6011323
vt 0.8883643 0.6011311
vt 0.857112 0.6299278
vt 0.857113 0.6444621
vt 0.8652546 0.6444619
vt 0.8571424 0.6154435
vt 0.865285 0.7609733
vt 0.8652521 0.7462049
vt 0.8883352 0.7462049
vt 0.8883692 0.760971
vt 0.8883388 0.7316718
vt 0.8652558 0.7316718
vt 0.8883692 0.775283
vt 0.8652802 0.775283
vt 0.857144 0.7609735
vt 0.8571108 0.7462051
vt 0.8652558 0.7316718
vt 0.8652546 0.7171352
vt 0.8883376 0.7171352
vt 0.8883388 0.7316718
vt 0.8883376 0.702601
vt 0.8652546 0.702601
vt 0.8571143 0.731672
vt 0.8571108 0.7462051
vt 0.8652521 0.7462049
vt 0.8571131 0.7171354
vt 0.857113 0.7026012
vt 0.8652546 0.702601
vt 0.8652546 0.6880668
vt 0.8883376 0.6880656
vt 0.8883376 0.702601
vt 0.8883376 0.6735302
vt 0.8652546 0.6735314
vt 0.857113 0.7026012
vt 0.8571129 0.688067
vt 0.857113 0.6735317
vt 0.8652546 0.6735314
vt 0.8652546 0.6589973
vt 0.8883376 0.658996
vt 0.8883376 0.6735302
vt 0.8883376 0.6444594
vt 0.8652546 0.6444619
vt 0.8883365 0.6299264
vt 0.8652536 0.6299275
vt 0.857113 0.6735317
vt 0.857113 0.6589975
vt 0.857113 0.6444621
vt 0.9759946 0.3935408
vt 0.9595669 0.397425
vt 0.9717209 0.3858452
vt 0.9641951 0.3812619
vt 0.9553294 0.381087
vt 0.9478486 0.385617
vt 0.9433333 0.3934509
vt 0.9434122 0.4022256
vt 0.9477552 0.409517
vt 0.9758599 0.4022692
vt 0.971381 0.4096821
vt 0.9638066 0.4138054
vt 0.9552383 0.4135941
vt 0.9533266 0.4215094
vt 0.9662902 0.4216769
vt 0.9418171 0.4152473
vt 0.9422724 0.3798926
vt 0.9353536 0.3916789
vt 0.9353258 0.404408
vt 0.9533326 0.3730808
vt 0.9663022 0.37331
vt 0.977455 0.4154294
vt 0.9839948 0.4043935
vt 0.9841211 0.3914506
vt 0.9776793 0.380053
vt 0.9517061 0.4293835
vt 0.9533266 0.4215094
vt 0.9662902 0.4216769
vt 0.9369594 0.4215786
vt 0.9418171 0.4152473
vt 0.9279529 0.406724
vt 0.9353258 0.404408
vt 0.9517061 0.4293835
vt 0.9662902 0.4216769
vt 0.9681411 0.4293835
vt 0.977455 0.4154294
vt 0.98277 0.4214025
vt 0.9839948 0.4043935
vt 0.9915485 0.4071246
vt 0.9366427 0.3743868
vt 0.9422724 0.3798926
vt 0.9353536 0.3916789
vt 0.9280452 0.3892865
vt 0.9353258 0.404408
vt 0.9279529 0.406724
vt 0.9515423 0.3656232
vt 0.9422724 0.3798926
vt 0.9515423 0.3656232
vt 0.9533326 0.3730808
vt 0.9693466 0.366037
vt 0.9663022 0.37331
vt 0.9840264 0.375183
vt 0.9776793 0.380053
vt 0.9776793 0.380053
vt 0.9840264 0.375183
vt 0.9920607 0.3902343
vt 0.9841211 0.3914506
vt 0.9915485 0.4071246
vt 0.9839948 0.4043935
vt 0.2762911 0.3701255
vt 0.1943964 0.3700704
vt 0.1944209 0.3336389
vt 0.2763156 0.333694
vt 0.2763181 0.3298354
vt 0.1944235 0.3297828
vt 0.1944627 0.273122
vt 0.2763575 0.2731771
vt 0.2763342 0.3096085
vt 0.1944382 0.3095534
vt 0.27636 0.2693196
vt 0.1944653 0.2692646
vt 0.1944357 0.3134122
vt 0.2763304 0.3134672
vt 0.2763181 0.3298354
vt 0.1944235 0.3297828
vt 0.1944357 0.3134122
vt 0.2763304 0.3134672
vt 0.27636 0.2693196
vt 0.1944653 0.2692646
vt 0.194475 0.2528951
vt 0.2763698 0.25295
vt 0.2763724 0.2490913
vt 0.1944777 0.2490362
vn 0.8653778 -0.5011201 4.006599E-07
vn 0.6534617 -0.7569595 4.463576E-07
vn 0.4950569 -0.8636062 0.09541
vn 0.8615214 -0.4987237 0.0951604
vn -2.291353E-06 -1 8.781149E-07
vn -3.459635E-05 -0.9954471 0.09531505
vn 0.8655241 -0.5008674 0
vn 1 -3.763239E-07 3.502977E-07
vn 1 0 3.429849E-07
vn 0.7048066 -0.7093995 0
vn -0.641779 -0.7668896 0
vn -0.8592527 -0.5115513 -1.707205E-07
vn -0.85538 -0.5091736 0.09522205
vn -0.4890303 -0.8670276 0.09545877
vn -0.9954538 3.618156E-05 0.09524438
vn -1 1.426636E-05 -3.429954E-07
vn -3.459635E-05 -0.9954471 0.09531505
vn -2.291353E-06 -1 8.781149E-07
vn -0.6913213 -0.7225475 0
vn -0.8593964 -0.5113099 -3.487656E-07
vn -1 1.426636E-05 -3.429954E-07
vn -0.8660254 0.5 -4.001492E-07
vn -0.862086 0.4977254 0.0952742
vn -0.9954538 3.618156E-05 0.09524438
vn -0.4977253 0.862086 0.09527446
vn -0.5000001 0.8660254 -3.429851E-07
vn -1 -1.590224E-05 -7.006008E-07
vn -0.8593964 -0.5113099 -3.487656E-07
vn -0.8592527 -0.5115513 -1.707205E-07
vn -0.8660256 0.4999997 -1.050894E-06
vn -0.5 0.8660254 -7.005958E-07
vn -0.5000001 0.8660254 -3.429851E-07
vn 0 1 -2.286566E-07
vn 1.315707E-07 0.995451 0.09527455
vn -0.4977253 0.862086 0.09527446
vn 0.4977255 0.8620858 0.09527497
vn 0.4999998 0.8660256 0
vn -0.5 0.8660254 -7.005958E-07
vn 0 1 0
vn 0.4999999 0.8660255 -7.005956E-07
vn 0.4999998 0.8660256 0
vn 0.8660255 0.4999999 1.714925E-07
vn 0.8620859 0.4977253 0.09527526
vn 0.4977255 0.8620858 0.09527497
vn 0.9954516 6.056048E-06 0.09526882
vn 1 0 3.429849E-07
vn 0.8615214 -0.4987237 0.0951604
vn 0.8653778 -0.5011201 4.006599E-07
vn 0.4999999 0.8660255 -7.005956E-07
vn 0.8660255 0.4999998 -3.502979E-07
vn 1 -3.763239E-07 3.502977E-07
vn 0 0.2372564 0.971447
vn -2.304588E-06 0.0006010917 0.9999999
vn -0.1185784 0.205384 0.9714714
vn -0.2052298 0.1184892 0.9715148
vn -0.2370996 0.000187732 0.9714854
vn -0.2047859 -0.120982 0.9713012
vn -0.1167926 -0.2047056 0.9718308
vn -0.0002501416 -0.2358685 0.9717849
vn 0.1183977 -0.2042677 0.9717287
vn 0.118625 0.2054643 0.9714487
vn 0.2053691 0.1185694 0.9714755
vn 0.2369989 3.517928E-05 0.9715099
vn 0.2058616 -0.1177091 0.9714759
vn 0.6580923 -0.3801011 0.6499521
vn 0.7596235 3.95329E-05 0.650363
vn 0.3781794 -0.6585464 0.6506128
vn -0.6534241 -0.3886717 0.6495932
vn -0.3731546 -0.660265 0.6517713
vn -0.0002977275 -0.7588851 0.6512245
vn -0.7599563 0.0001941914 0.6499742
vn -0.6578048 0.3797847 0.6504278
vn 0.6578039 0.3797829 0.6504298
vn 0.3797824 0.657805 0.650429
vn -6.785672E-07 0.7595682 0.6504277
vn -0.379784 0.6578066 0.6504265
vn 0.8615214 -0.4987237 0.0951604
vn 0.6580923 -0.3801011 0.6499521
vn 0.7596235 3.95329E-05 0.650363
vn 0.4950569 -0.8636062 0.09541
vn 0.3781794 -0.6585464 0.6506128
vn -3.459635E-05 -0.9954471 0.09531505
vn -0.0002977275 -0.7588851 0.6512245
vn 0.8615214 -0.4987237 0.0951604
vn 0.7596235 3.95329E-05 0.650363
vn 0.9954516 6.056048E-06 0.09526882
vn 0.6578039 0.3797829 0.6504298
vn 0.8620859 0.4977253 0.09527526
vn 0.3797824 0.657805 0.650429
vn 0.4977255 0.8620858 0.09527497
vn -0.85538 -0.5091736 0.09522205
vn -0.6534241 -0.3886717 0.6495932
vn -0.3731546 -0.660265 0.6517713
vn -0.4890303 -0.8670276 0.09545877
vn -0.0002977275 -0.7588851 0.6512245
vn -3.459635E-05 -0.9954471 0.09531505
vn -0.9954538 3.618156E-05 0.09524438
vn -0.6534241 -0.3886717 0.6495932
vn -0.9954538 3.618156E-05 0.09524438
vn -0.7599563 0.0001941914 0.6499742
vn -0.862086 0.4977254 0.0952742
vn -0.6578048 0.3797847 0.6504278
vn -0.4977253 0.862086 0.09527446
vn -0.379784 0.6578066 0.6504265
vn -0.379784 0.6578066 0.6504265
vn -0.4977253 0.862086 0.09527446
vn 1.315707E-07 0.995451 0.09527455
vn -6.785672E-07 0.7595682 0.6504277
vn 0.4977255 0.8620858 0.09527497
vn 0.3797824 0.657805 0.650429
vn 0 0.0001 -1
vn 0 0.0001 -1
vn 0 0.0001 -1
vn 0 0.0001 -1
vn 1 0 0
vn 1 0 0
vn 0 -0.0001 1
vn 0 -0.0001 1
vn 0 -0.0001 1
vn 0 -0.0001 1
vn -1 0 0
vn -1 0 0
vn 1 0 0
vn 1 0 0
vn 1 0 0
vn 1 0 0
vn 1 0 0
vn 1 0 0
vn -1 0 0
vn -1 0 0
vn -1 0 0
vn -1 0 0
vn 0 0.0001 -1
vn 0 0.0001 -1
g m_air_balloon_side_end_v2_02_0
f 3/3/3 2/2/2 1/1/1
f 4/4/4 3/3/3 1/1/1
f 5/5/5 2/2/2 3/3/3
f 6/6/6 5/5/5 3/3/3
f 1/1/1 2/2/2 7/7/7
f 1/1/1 7/7/7 8/8/8
f 9/9/9 1/1/1 8/8/8
f 2/2/2 10/10/10 7/7/7
f 13/13/13 12/12/12 11/11/11
f 14/14/14 13/13/13 11/11/11
f 13/13/13 15/15/15 12/12/12
f 15/15/15 16/16/16 12/12/12
f 14/14/14 11/11/11 17/17/17
f 11/11/11 18/18/18 17/17/17
f 11/11/11 12/12/12 19/19/19
f 12/12/12 20/20/20 19/19/19
f 23/23/23 22/22/22 21/21/21
f 24/24/24 23/23/23 21/21/21
f 23/23/23 25/25/25 22/22/22
f 25/25/25 26/26/26 22/22/22
f 21/21/21 22/22/22 27/27/27
f 21/21/21 27/27/27 28/28/28
f 29/29/29 21/21/21 28/28/28
f 22/22/22 30/30/30 27/27/27
f 22/22/22 26/26/26 30/30/30
f 26/26/26 31/31/31 30/30/30
f 34/34/34 33/33/33 32/32/32
f 35/35/35 34/34/34 32/32/32
f 34/34/34 36/36/36 33/33/33
f 36/36/36 37/37/37 33/33/33
f 32/32/32 33/33/33 38/38/38
f 33/33/33 39/39/39 38/38/38
f 33/33/33 37/37/37 39/39/39
f 37/37/37 40/40/40 39/39/39
f 43/43/43 42/42/42 41/41/41
f 44/44/44 43/43/43 41/41/41
f 43/43/43 45/45/45 42/42/42
f 45/45/45 46/46/46 42/42/42
f 45/45/45 47/47/47 46/46/46
f 47/47/47 48/48/48 46/46/46
f 41/41/41 42/42/42 49/49/49
f 42/42/42 50/50/50 49/49/49
f 42/42/42 46/46/46 50/50/50
f 46/46/46 51/51/51 50/50/50
f 54/54/54 53/53/53 52/52/52
f 54/54/54 55/55/55 53/53/53
f 55/55/55 56/56/56 53/53/53
f 56/56/56 57/57/57 53/53/53
f 57/57/57 58/58/58 53/53/53
f 58/58/58 59/59/59 53/53/53
f 53/53/53 59/59/59 60/60/60
f 52/52/52 53/53/53 61/61/61
f 61/61/61 53/53/53 62/62/62
f 62/62/62 53/53/53 63/63/63
f 63/63/63 53/53/53 64/64/64
f 64/64/64 53/53/53 60/60/60
f 63/63/63 64/64/64 65/65/65
f 66/66/66 63/63/63 65/65/65
f 63/63/63 66/66/66 62/62/62
f 67/67/67 65/65/65 64/64/64
f 60/60/60 67/67/67 64/64/64
f 58/58/58 57/57/57 68/68/68
f 69/69/69 58/58/58 68/68/68
f 59/59/59 58/58/58 69/69/69
f 70/70/70 59/59/59 69/69/69
f 70/70/70 67/67/67 60/60/60
f 59/59/59 70/70/70 60/60/60
f 71/71/71 68/68/68 57/57/57
f 56/56/56 71/71/71 57/57/57
f 72/72/72 71/71/71 56/56/56
f 62/62/62 73/73/73 61/61/61
f 66/66/66 73/73/73 62/62/62
f 73/73/73 74/74/74 61/61/61
f 61/61/61 74/74/74 52/52/52
f 74/74/74 75/75/75 52/52/52
f 52/52/52 75/75/75 54/54/54
f 75/75/75 76/76/76 54/54/54
f 76/76/76 72/72/72 55/55/55
f 54/54/54 76/76/76 55/55/55
f 55/55/55 72/72/72 56/56/56
f 79/79/79 78/78/78 77/77/77
f 80/80/80 77/77/77 78/78/78
f 81/81/81 80/80/80 78/78/78
f 82/82/82 80/80/80 81/81/81
f 83/83/83 82/82/82 81/81/81
f 86/86/86 85/85/85 84/84/84
f 85/85/85 86/86/86 87/87/87
f 86/86/86 88/88/88 87/87/87
f 87/87/87 88/88/88 89/89/89
f 88/88/88 90/90/90 89/89/89
f 93/93/93 92/92/92 91/91/91
f 94/94/94 93/93/93 91/91/91
f 95/95/95 93/93/93 94/94/94
f 96/96/96 95/95/95 94/94/94
f 97/97/97 91/91/91 92/92/92
f 100/100/100 99/99/99 98/98/98
f 101/101/101 99/99/99 100/100/100
f 102/102/102 101/101/101 100/100/100
f 103/103/103 101/101/101 102/102/102
f 104/104/104 103/103/103 102/102/102
f 107/107/107 106/106/106 105/105/105
f 108/108/108 107/107/107 105/105/105
f 109/109/109 107/107/107 108/108/108
f 110/110/110 109/109/109 108/108/108
f 113/113/113 112/112/112 111/111/111
f 114/114/114 113/113/113 111/111/111
f 114/114/114 115/115/115 113/113/113
f 115/115/115 116/116/116 113/113/113
f 119/119/119 118/118/118 117/117/117
f 120/120/120 119/119/119 117/117/117
f 117/117/117 118/118/118 121/121/121
f 122/122/122 117/117/117 121/121/121
f 120/120/120 123/123/123 119/119/119
f 123/123/123 124/124/124 119/119/119
f 127/127/127 126/126/126 125/125/125
f 128/128/128 127/127/127 125/125/125
f 131/131/131 130/130/130 129/129/129
f 132/132/132 131/131/131 129/129/129
f 132/132/132 133/133/133 131/131/131
f 133/133/133 134/134/134 131/131/131
