g m_airballoon_basket_middle_corner_01
v -0.0002062988 1.18 1.130043
v 0 1.18 0
v 0 0 0
v 0.003787842 -3.051758E-07 1.130043
v -0.03713989 -3.051758E-07 1.315015
v -0.03713989 1.18 1.315015
v -0.1420361 -3.051758E-07 1.471779
v -0.1420361 1.18 1.471779
v -1.61 1.18 1.616718
v -0.4839502 1.18 1.613183
v -0.4839502 -3.051758E-07 1.613183
v -1.61 -3.051758E-07 1.616718
v -0.2989331 1.18 1.57648
v -0.2989331 -3.051758E-07 1.57648
v -0.1420361 1.18 1.471779
v -0.1420361 -3.051758E-07 1.471779
v -0.01581543 -3.051758E-07 1.380113
v -0.01516357 1.18 1.379841
v -0.062406 1.18 1.333523
v -0.062406 -3.051758E-07 1.333523
v -0.004660645 -3.051758E-07 1.449651
v -0.004660645 1.18 1.449651
v -0.03192627 -3.051758E-07 1.523508
v -0.03192627 1.18 1.523508
v -0.280293 -3.051758E-07 1.55141
v -0.280293 1.18 1.55141
v -0.2337036 1.18 1.598
v -0.2337036 -3.051758E-07 1.598
v -0.164165 1.18 1.609156
v -0.164165 -3.051758E-07 1.609156
v -0.164165 -3.051758E-07 1.609156
v -0.164165 1.18 1.609156
v -0.09030884 1.18 1.58189
v -0.09030884 -3.051758E-07 1.58189
v -0.03192627 1.18 1.523508
v -0.03192627 -3.051758E-07 1.523508
vt 16.42188 10.69531
vt 16.42188 12.45313
vt 18.32813 12.45313
vt 18.32813 10.69531
vt 18.32813 10.39063
vt 16.42188 10.39063
vt 18.32813 10.09375
vt 16.42188 10.09375
vt 16.42188 7.503906
vt 16.42188 9.5
vt 18.32813 9.5
vt 18.32813 7.5
vt 16.42188 9.789063
vt 18.32813 9.789063
vt 16.42188 10.09375
vt 18.32813 10.09375
vt 0.5371094 0.5834961
vt 0.5371094 0.4648438
vt 0.5297852 0.4648438
vt 0.5297852 0.5834961
vt 0.5444336 0.5834961
vt 0.5444336 0.4648438
vt 0.5537109 0.5834961
vt 0.5537109 0.4648438
vt 0.5869141 0.5834961
vt 0.5869141 0.4648438
vt 0.5795898 0.4648438
vt 0.5795898 0.5834961
vt 0.5717773 0.4648438
vt 0.5717773 0.5834961
vt 0.5717773 0.5834961
vt 0.5717773 0.4648438
vt 0.5629883 0.4648438
vt 0.5629883 0.5834961
vt 0.5537109 0.4648438
vt 0.5537109 0.5834961
vn 0.9995998 0.001691375 0.02824247
vn 0.9999974 0.001692035 -0.001584689
vn 1 0 0
vn 0.9893165 0.1248311 0.07530024
vn 0.9161804 -0.02007331 0.4002632
vn 0.9236131 0 0.383326
vn 0.7066656 0 0.7075477
vn 0.7066656 0 0.7075477
vn 0 0 1
vn 0.09752105 0 0.9952335
vn 0.06214562 -0.06341691 0.9960503
vn 0 0 1
vn 0.3821729 0 0.9240908
vn 0.3812981 -0.06448472 0.9222003
vn 0.7066656 0 0.7075477
vn 0.7066656 0 0.7075477
vn 0.8850023 0.01532621 -0.4653341
vn 0.8954131 -0.0002989574 -0.4452363
vn 0.7071068 0 -0.7071068
vn 0.7071068 0 -0.7071068
vn 0.9942801 -0.0453908 0.09667821
vn 0.9952713 0 0.09713503
vn 0.8272378 -0.0148798 0.5616549
vn 0.842156 0 0.539234
vn -0.7071062 0 0.7071072
vn -0.7071062 0 0.7071072
vn -0.4548803 0 0.8905526
vn -0.455034 -0.018152 0.8902891
vn 0.09713601 0 0.9952711
vn 0.09669004 -0.04535922 0.9942805
vn 0.09669004 -0.04535922 0.9942805
vn 0.09713601 0 0.9952711
vn 0.5392347 0 0.8421556
vn 0.5382481 -0.05718361 0.8408442
vn 0.842156 0 0.539234
vn 0.8272378 -0.0148798 0.5616549
g m_airballoon_basket_middle_corner_01_0
f 3/3/3 2/2/2 1/1/1
f 4/4/4 3/3/3 1/1/1
f 5/5/5 4/4/4 1/1/1
f 6/6/6 5/5/5 1/1/1
f 7/7/7 5/5/5 6/6/6
f 8/8/8 7/7/7 6/6/6
f 11/11/11 10/10/10 9/9/9
f 12/12/12 11/11/11 9/9/9
f 10/10/10 11/11/11 13/13/13
f 11/11/11 14/14/14 13/13/13
f 13/13/13 14/14/14 15/15/15
f 14/14/14 16/16/16 15/15/15
g m_airballoon_basket_middle_corner_01_1
f 19/19/19 18/18/18 17/17/17
f 20/20/20 19/19/19 17/17/17
f 21/21/21 17/17/17 18/18/18
f 22/22/22 21/21/21 18/18/18
f 21/21/21 22/22/22 23/23/23
f 22/22/22 24/24/24 23/23/23
f 27/27/27 26/26/26 25/25/25
f 28/28/28 27/27/27 25/25/25
f 29/29/29 27/27/27 28/28/28
f 30/30/30 29/29/29 28/28/28
f 33/33/33 32/32/32 31/31/31
f 34/34/34 33/33/33 31/31/31
f 35/35/35 33/33/33 34/34/34
f 36/36/36 35/35/35 34/34/34
