g m_airballoon_floorboard_broken_03
v -1.27571 -3.987145E-17 4.540943
v -1.281992 -8.495466E-05 -1.650494
v -1.299023 0.01609697 -1.636311
v -0.03423142 -3.987145E-17 4.540744
v -0.008024305 -0.0003247118 -1.657638
v -1.27571 -3.987145E-17 4.540943
v -1.299023 0.01609697 -1.636311
v -1.291809 0.01603949 4.528007
v -1.268794 0.0159508 4.554779
v -0.04070741 0.01591099 4.554568
v -0.03423142 -3.987145E-17 4.540744
v -1.27571 -3.987145E-17 4.540943
v -1.291809 0.01603949 4.528007
v -1.223587 0.119058 4.421819
v -1.199557 0.1206605 4.443897
v -1.268794 0.0159508 4.554779
v -0.04070741 0.01591099 4.554568
v -0.1061552 0.1207203 4.442008
v -0.08213685 0.1188625 4.419752
v -0.01781328 0.01599763 4.527524
v -1.196348 0.1298089 4.414104
v -1.21111 0.1298734 -1.512836
v -1.238158 0.1190793 -1.52065
v -0.109144 0.1298089 4.412072
v -0.06896165 0.1188118 -1.546724
v -0.0977269 0.1296405 -1.538944
v -1.213229 0.1210367 -1.543103
v -0.09313966 0.1201828 -1.568602
v 0.007930132 0.01562907 -1.645573
v -0.01504426 0.01556237 -1.672169
v -1.275074 0.01588554 -1.663641
v -0.01781328 0.01599763 4.527524
v 0.007930132 0.01562907 -1.645573
v -0.008024305 -0.0003247118 -1.657638
v -0.03423142 -3.987145E-17 4.540744
v -1.238158 0.1190793 -1.52065
v -1.299023 0.01609697 -1.636311
v -1.275074 0.01588554 -1.663641
v -1.213229 0.1210367 -1.543103
v -1.291809 0.01603949 4.528007
v -1.223587 0.119058 4.421819
v -1.281992 -8.495466E-05 -1.650494
v -0.008024305 -0.0003247118 -1.657638
v -0.01504426 0.01556237 -1.672169
v -1.275074 0.01588554 -1.663641
v -1.27571 -3.987145E-17 4.540943
v -1.291809 0.01603949 4.528007
v -1.268794 0.0159508 4.554779
v -0.01781328 0.01599763 4.527524
v -0.03423142 -3.987145E-17 4.540744
v -0.04070741 0.01591099 4.554568
v -1.299023 0.01609697 -1.636311
v -1.281992 -8.495466E-05 -1.650494
v -1.275074 0.01588554 -1.663641
v -0.008024305 -0.0003247118 -1.657638
v 0.007930132 0.01562907 -1.645573
v -0.01504426 0.01556237 -1.672169
vt 0.3371582 0.003921509
vt 0.3371582 0.5703125
vt 0.3352051 0.5683594
vt 0.4956055 0.003948212
vt 0.4963379 0.5776367
vt 0.3371582 0.003921509
vt 0.3352051 0.5683594
vt 0.3352051 0.005573273
vt 0.3381348 0.002155304
vt 0.494873 0.002180099
vt 0.4956055 0.003948212
vt 0.3371582 0.003921509
vt 0.3352051 0.005573273
vt 0.34375 0.01911926
vt 0.3469238 0.01631165
vt 0.3381348 0.002155304
vt 0.494873 0.002180099
vt 0.4865723 0.01655579
vt 0.489502 0.01939392
vt 0.4978027 0.005634308
vt 0.3474121 0.02011108
vt 0.3469238 0.5532227
vt 0.3435059 0.5537109
vt 0.486084 0.02037048
vt 0.489502 0.5629883
vt 0.4858398 0.5620117
vt 0.3464355 0.5566406
vt 0.4863281 0.5654297
vt 0.4985352 0.5761719
vt 0.4953613 0.5791016
vt 0.3378906 0.5717773
vt 0.4978027 0.005634308
vt 0.4985352 0.5761719
vt 0.4963379 0.5776367
vt 0.4956055 0.003948212
vt 0.3435059 0.5537109
vt 0.3352051 0.5683594
vt 0.3378906 0.5717773
vt 0.3464355 0.5566406
vt 0.3352051 0.005573273
vt 0.34375 0.01911926
vt 0.3371582 0.5703125
vt 0.4963379 0.5776367
vt 0.4953613 0.5791016
vt 0.3378906 0.5717773
vt 0.3371582 0.003921509
vt 0.3352051 0.005573273
vt 0.3381348 0.002155304
vt 0.4978027 0.005634308
vt 0.4956055 0.003948212
vt 0.494873 0.002180099
vt 0.3352051 0.5683594
vt 0.3371582 0.5703125
vt 0.3378906 0.5717773
vt 0.4963379 0.5776367
vt 0.4985352 0.5761719
vt 0.4953613 0.5791016
vn -0.00858791 -0.999961 0.002059983
vn -0.008389219 -0.9999628 -0.002009322
vn -0.9893679 0.1453478 -0.005010751
vn 0.008260163 -0.9999636 0.002110857
vn 0.008624126 -0.9999608 -0.002021945
vn -0.00858791 -0.999961 0.002059983
vn -0.9893679 0.1453478 -0.005010751
vn -0.9852114 0.1711849 0.007376052
vn -0.01632372 0.5610617 0.8276131
vn 0.01711945 0.5658702 0.8243166
vn 0.008260163 -0.9999636 0.002110857
vn -0.00858791 -0.999961 0.002059983
vn -0.9852114 0.1711849 0.007376052
vn -0.8058451 0.5921165 0.003415526
vn -0.01048773 0.7685356 0.6397211
vn -0.01632372 0.5610617 0.8276131
vn 0.01711945 0.5658702 0.8243166
vn 0.01210228 0.7691552 0.6389474
vn 0.7835728 0.6212854 0.004259776
vn 0.9772987 0.2116634 0.009264907
vn -0.01090291 0.9999393 0.001598616
vn -0.01085666 0.9999399 -0.00152741
vn -0.8071209 0.590386 -0.0004121953
vn 0.0112478 0.9999355 0.00157904
vn 0.7821162 0.6231325 0.000420007
vn 0.01136909 0.999934 -0.001695791
vn -0.02066633 0.7712548 -0.636191
vn 0.0009841052 0.7661626 -0.6426462
vn 0.9707647 0.2400251 -0.001968574
vn 0.008088989 0.5519978 -0.8338063
vn -0.02535629 0.5689147 -0.8220056
vn 0.9772987 0.2116634 0.009264907
vn 0.9707647 0.2400251 -0.001968574
vn 0.008624126 -0.9999608 -0.002021945
vn 0.008260163 -0.9999636 0.002110857
vn -0.8071209 0.590386 -0.0004121953
vn -0.9893679 0.1453478 -0.005010751
vn -0.02535629 0.5689147 -0.8220056
vn -0.02066633 0.7712548 -0.636191
vn -0.9852114 0.1711849 0.007376052
vn -0.8058451 0.5921165 0.003415526
vn -0.008389219 -0.9999628 -0.002009322
vn 0.008624126 -0.9999608 -0.002021945
vn 0.008088989 0.5519978 -0.8338063
vn -0.02535629 0.5689147 -0.8220056
vn -0.00858791 -0.999961 0.002059983
vn -0.9852114 0.1711849 0.007376052
vn -0.01632372 0.5610617 0.8276131
vn 0.9772987 0.2116634 0.009264907
vn 0.008260163 -0.9999636 0.002110857
vn 0.01711945 0.5658702 0.8243166
vn -0.9893679 0.1453478 -0.005010751
vn -0.008389219 -0.9999628 -0.002009322
vn -0.02535629 0.5689147 -0.8220056
vn 0.008624126 -0.9999608 -0.002021945
vn 0.9707647 0.2400251 -0.001968574
vn 0.008088989 0.5519978 -0.8338063
g m_airballoon_floorboard_broken_03_0
f 3/3/3 2/2/2 1/1/1
f 1/1/1 2/2/2 4/4/4
f 2/2/2 5/5/5 4/4/4
f 8/8/8 7/7/7 6/6/6
f 11/11/11 10/10/10 9/9/9
f 12/12/12 11/11/11 9/9/9
f 15/15/15 14/14/14 13/13/13
f 16/16/16 15/15/15 13/13/13
f 15/15/15 16/16/16 17/17/17
f 18/18/18 15/15/15 17/17/17
f 19/19/19 18/18/18 17/17/17
f 20/20/20 19/19/19 17/17/17
f 15/15/15 18/18/18 21/21/21
f 14/14/14 15/15/15 21/21/21
f 14/14/14 21/21/21 22/22/22
f 23/23/23 14/14/14 22/22/22
f 18/18/18 24/24/24 21/21/21
f 19/19/19 24/24/24 18/18/18
f 24/24/24 19/19/19 25/25/25
f 25/25/25 19/19/19 20/20/20
f 26/26/26 24/24/24 25/25/25
f 26/26/26 22/22/22 21/21/21
f 24/24/24 26/26/26 21/21/21
f 22/22/22 26/26/26 27/27/27
f 23/23/23 22/22/22 27/27/27
f 26/26/26 28/28/28 27/27/27
f 28/28/28 26/26/26 25/25/25
f 25/25/25 29/29/29 28/28/28
f 29/29/29 25/25/25 20/20/20
f 29/29/29 30/30/30 28/28/28
f 28/28/28 30/30/30 27/27/27
f 30/30/30 31/31/31 27/27/27
f 34/34/34 33/33/33 32/32/32
f 35/35/35 34/34/34 32/32/32
f 38/38/38 37/37/37 36/36/36
f 39/39/39 38/38/38 36/36/36
f 36/36/36 37/37/37 40/40/40
f 41/41/41 36/36/36 40/40/40
f 44/44/44 43/43/43 42/42/42
f 45/45/45 44/44/44 42/42/42
f 48/48/48 47/47/47 46/46/46
f 51/51/51 50/50/50 49/49/49
f 54/54/54 53/53/53 52/52/52
f 57/57/57 56/56/56 55/55/55
