g m_airballooon_bottom_straight_01
v 0.2249999 0.11 -0.6000007
v 0.225 0.11 0.6000004
v 0.2449997 0.25 0.6000004
v 0.2449996 0.25 -0.6000007
v 0.1649999 -0.01 -0.6000007
v 0.165 -0.01 0.6000007
v 0.09499989 -0.11 -0.6000007
v 0.09500004 -0.11 0.6000004
v -0.01499996 -0.19 -0.5999988
v -0.01499996 -0.19 0.6000004
v -0.1249999 -0.23 -0.5999994
v -0.125 -0.23 0.6000004
v -0.2449997 -0.25 -0.5999993
v -0.2449995 -0.25 0.6000004
vt 17.54688 14.50781
vt 17.54688 12.45313
vt 17.34375 12.45313
vt 17.34375 14.50781
vt 17.76563 14.50781
vt 17.76563 12.45313
vt 17.96875 14.50781
vt 17.96875 12.45313
vt 18.17188 14.50781
vt 18.17188 12.45313
vt 18.375 14.50781
vt 18.375 12.45313
vt 18.54688 14.50781
vt 18.54688 12.45313
vn 0.991165 -0.1325726 0.004066653
vn 0.9893841 -0.145267 0.004064486
vn 1 0 0
vn 1 0 0
vn 0.867947 -0.4966498 0.002634589
vn 0.867947 -0.4966498 0.002634589
vn 0.6964453 -0.7176086 0.001337104
vn 0.6964453 -0.7176086 0.001337104
vn 0.4869865 -0.8734095 3.099966E-05
vn 0.4869865 -0.8734095 3.099966E-05
vn 0.2568308 -0.9664556 -0.001215126
vn 0.2568308 -0.9664556 -0.001215126
vn 0.1284869 -0.9917095 -0.001844582
vn 0.1284869 -0.9917095 -0.001844582
g m_airballooon_bottom_straight_01_0
f 3/3/3 2/2/2 1/1/1
f 4/4/4 3/3/3 1/1/1
f 1/1/1 2/2/2 5/5/5
f 2/2/2 6/6/6 5/5/5
f 5/5/5 6/6/6 7/7/7
f 6/6/6 8/8/8 7/7/7
f 7/7/7 8/8/8 9/9/9
f 8/8/8 10/10/10 9/9/9
f 9/9/9 10/10/10 11/11/11
f 10/10/10 12/12/12 11/11/11
f 11/11/11 12/12/12 13/13/13
f 12/12/12 14/14/14 13/13/13
