g m_airballoon_basket_middle_straight_01
v -0.2958568 0.6103309 -0.5665526
v -0.2958568 0.4096253 -0.5665526
v -0.2624098 0.4096253 -0.5999989
v -0.2624098 0.6103309 -0.5999989
v -0.2958565 0.6103309 0.5665547
v -0.2958565 0.4096253 0.5665547
v -0.2624098 0.6437774 -0.5665523
v -0.2624098 0.6437774 0.566555
v -0.2958565 0.6103309 0.5665547
v -0.2958568 0.6103309 -0.5665526
v -0.2624098 0.6103309 -0.5999989
v -0.2624098 0.6103309 -0.5999989
v 0.2624098 0.6103309 -0.5999992
v 0.2624098 0.6437774 -0.5665526
v -0.2624098 0.6103309 -0.5999989
v 0.2624098 0.6437774 -0.5665526
v -0.2624098 0.6437774 -0.5665523
v -0.2624098 0.6437774 0.566555
v 0.2624098 0.6437774 0.5665541
v 0.2958565 0.6103309 -0.5665526
v 0.2958568 0.6103309 0.5665547
v 0.2624098 0.6103309 -0.5999992
v 0.2624098 0.6103309 -0.5999992
v 0.2624098 0.4096253 -0.5999992
v 0.2958565 0.4096253 -0.5665526
v 0.2958565 0.6103309 -0.5665526
v -0.2624098 0.4096253 -0.5999989
v -0.2624098 0.6103309 -0.5999989
v -0.2958568 0.4096253 -0.5665526
v -0.2958565 0.4096253 0.5665547
v -0.2624098 0.3761788 0.566555
v -0.2624098 0.3761788 -0.5665523
v 0.2624098 0.3761788 -0.5665526
v 0.2624098 0.3761788 0.5665541
v 0.2958568 0.4096253 0.5665547
v 0.2958565 0.4096253 -0.5665526
v -0.2624098 0.4096253 0.600001
v 0.2624098 0.4096253 0.6000007
v 0.2624098 0.4096253 -0.5999992
v -0.2624098 0.3761788 -0.5665523
v 0.2624098 0.3761788 -0.5665526
v 0.2624098 0.4096253 -0.5999992
v -0.2624098 0.4096253 -0.5999989
v -0.2958565 0.4096253 0.5665547
v -0.2958565 0.6103309 0.5665547
v -0.2624098 0.6103309 0.600001
v -0.2624098 0.4096253 0.600001
v 0.2624098 0.4096253 0.6000007
v 0.2624098 0.6103309 0.6000007
v -0.2624098 0.6437774 0.566555
v 0.2624098 0.6437774 0.5665541
v 0.2624098 0.6103309 0.6000007
v -0.2624098 0.6103309 0.600001
v -0.2958565 0.6103309 0.5665547
v 0.2624098 0.4096253 0.6000007
v 0.2624098 0.6103309 0.6000007
v 0.2958568 0.6103309 0.5665547
v 0.2958568 0.4096253 0.5665547
v 0.2958565 0.6103309 -0.5665526
v 0.2958565 0.4096253 -0.5665526
v -0.2958568 0.4096253 -0.5665526
v -0.2624098 0.3761788 -0.5665523
v -0.2624098 0.4096253 -0.5999989
v 0.2624098 0.6103309 0.6000007
v 0.2624098 0.6437774 0.5665541
v 0.2958568 0.6103309 0.5665547
v 0.1161233 0.5362226 0.5999989
v 0.1161233 0.5362226 -0.600001
v 0.1161224 -0.6437774 -0.600001
v 0.1161227 -0.6437774 0.5999989
vt 0.9936523 0.1323242
vt 0.9711914 0.1323242
vt 0.9711914 0.1376953
vt 0.9936523 0.1376953
vt 0.9936523 0.005119324
vt 0.9711914 0.005119324
vt 0.2927246 0.07965088
vt 0.1640625 0.07684326
vt 0.1629639 0.08209229
vt 0.2946777 0.0848999
vt 0.2983398 0.07836914
vt 0.2983398 0.07836914
vt 0.2973633 0.01712036
vt 0.2922363 0.01847839
vt 0.2983398 0.07836914
vt 0.2922363 0.01847839
vt 0.2927246 0.07965088
vt 0.1640625 0.07684326
vt 0.1625977 0.01698303
vt 0.2932129 0.01316833
vt 0.161377 0.01169586
vt 0.2973633 0.01712036
vt 0.9936523 0.1966553
vt 0.9711914 0.1966553
vt 0.9711914 0.2019043
vt 0.9936523 0.2019043
vt 0.9711914 0.1376953
vt 0.9936523 0.1376953
vt 0.01282501 0.0848999
vt 0.1429443 0.0838623
vt 0.1417236 0.07867432
vt 0.01393127 0.07971191
vt 0.01501465 0.02090454
vt 0.1428223 0.01983643
vt 0.1439209 0.01465607
vt 0.01383209 0.01571655
vt 0.1469727 0.07977295
vt 0.1480713 0.01864624
vt 0.009803772 0.01976013
vt 0.01393127 0.07971191
vt 0.01501465 0.02090454
vt 0.009803772 0.01976013
vt 0.008766174 0.08093262
vt 0.9960938 0.237793
vt 0.9960938 0.215332
vt 0.9907227 0.215332
vt 0.9907227 0.237915
vt 0.9316406 0.2385254
vt 0.9316406 0.2159424
vt 0.1640625 0.07684326
vt 0.1625977 0.01698303
vt 0.1573486 0.01576233
vt 0.1586914 0.078125
vt 0.1629639 0.08209229
vt 0.9316406 0.2385254
vt 0.9316406 0.2159424
vt 0.9262695 0.2159424
vt 0.9267578 0.2385254
vt 0.7988281 0.2171631
vt 0.7993164 0.2397461
vt 0.01282501 0.0848999
vt 0.01393127 0.07971191
vt 0.008766174 0.08093262
vt 0.1573486 0.01576233
vt 0.1625977 0.01698303
vt 0.161377 0.01169586
vt 16.42188 12.45313
vt 16.42188 14.50781
vt 18.34375 14.50781
vt 18.32813 12.45313
vn -1 0 0
vn -1 0 0
vn 0 0 -1
vn 0 0 -1
vn -1 0 0
vn -1 0 0
vn 0 1 0
vn 0 1 0
vn -1 0 0
vn -1 0 0
vn 0 0 -1
vn 0 0 -1
vn 0 0 -1
vn 0 1 0
vn 0 0 -1
vn 0 1 0
vn 0 1 0
vn 0 1 0
vn 0 1 0
vn 1 0 0
vn 1 0 0
vn 0 0 -1
vn 0 0 -1
vn 0 0 -1
vn 1 0 0
vn 1 0 0
vn 0 0 -1
vn 0 0 -1
vn -1 0 0
vn -1 0 0
vn 0 -1 0
vn 0 -1 0
vn 0 -1 0
vn 0 -1 0
vn 1 0 0
vn 1 0 0
vn 0 0 1
vn 0 0 1
vn 0 0 -1
vn 0 -1 0
vn 0 -1 0
vn 0 0 -1
vn 0 0 -1
vn -1 0 0
vn -1 0 0
vn 0 0 1
vn 0 0 1
vn 0 0 1
vn 0 0 1
vn 0 1 0
vn 0 1 0
vn 0 0 1
vn 0 0 1
vn -1 0 0
vn 0 0 1
vn 0 0 1
vn 1 0 0
vn 1 0 0
vn 1 0 0
vn 1 0 0
vn -1 0 0
vn 0 -1 0
vn 0 0 -1
vn 0 0 1
vn 0 1 0
vn 1 0 0
vn 0.9999821 0.005650919 0.001999725
vn 0.9999821 0.005650919 0.001999725
vn 1 0 0
vn 1 0 0
g m_airballoon_basket_middle_straight_01_0
f 3/3/3 2/2/2 1/1/1
f 4/4/4 3/3/3 1/1/1
f 5/5/5 1/1/1 2/2/2
f 6/6/6 5/5/5 2/2/2
f 9/9/9 8/8/8 7/7/7
f 10/10/10 9/9/9 7/7/7
f 7/7/7 11/11/11 10/10/10
f 14/14/14 13/13/13 12/12/12
f 17/17/17 16/16/16 15/15/15
f 16/16/16 17/17/17 18/18/18
f 19/19/19 16/16/16 18/18/18
f 16/16/16 19/19/19 20/20/20
f 19/19/19 21/21/21 20/20/20
f 16/16/16 20/20/20 22/22/22
f 25/25/25 24/24/24 23/23/23
f 26/26/26 25/25/25 23/23/23
f 24/24/24 27/27/27 23/23/23
f 27/27/27 28/28/28 23/23/23
f 31/31/31 30/30/30 29/29/29
f 32/32/32 31/31/31 29/29/29
f 31/31/31 32/32/32 33/33/33
f 34/34/34 31/31/31 33/33/33
f 35/35/35 34/34/34 33/33/33
f 36/36/36 35/35/35 33/33/33
f 31/31/31 34/34/34 37/37/37
f 30/30/30 31/31/31 37/37/37
f 34/34/34 38/38/38 37/37/37
f 35/35/35 38/38/38 34/34/34
f 39/39/39 36/36/36 33/33/33
f 42/42/42 41/41/41 40/40/40
f 43/43/43 42/42/42 40/40/40
f 46/46/46 45/45/45 44/44/44
f 47/47/47 46/46/46 44/44/44
f 46/46/46 47/47/47 48/48/48
f 49/49/49 46/46/46 48/48/48
f 52/52/52 51/51/51 50/50/50
f 53/53/53 52/52/52 50/50/50
f 54/54/54 53/53/53 50/50/50
f 57/57/57 56/56/56 55/55/55
f 58/58/58 57/57/57 55/55/55
f 59/59/59 57/57/57 58/58/58
f 60/60/60 59/59/59 58/58/58
f 63/63/63 62/62/62 61/61/61
f 66/66/66 65/65/65 64/64/64
g m_airballoon_basket_middle_straight_01_1
f 69/69/69 68/68/68 67/67/67
f 70/70/70 69/69/69 67/67/67
