g m_airballoon_basket_top_straight_01
v 0.2082447 0.2805135 0.6
v 0.2082447 0.280514 -0.5993402
v 0.1167603 0.189623 -0.5996704
v 0.1167615 0.1896229 0.6
v 0.2417383 0.4055137 0.6
v 0.2417383 0.405514 -0.5993402
v 0.2082447 0.5305137 0.6
v 0.2082447 0.530514 -0.5993402
v -0.1297717 0.1896229 0.6
v -0.1297717 0.189623 -0.5996704
v -0.224768 0.280514 -0.5993402
v -0.224768 0.2805135 0.6
v -0.2582617 0.405514 -0.5993402
v -0.2582617 0.4055137 0.6
v -0.224768 0.530514 -0.5993402
v -0.224768 0.5305137 0.6
v -0.1332617 0.6220203 -0.5993402
v -0.1332617 0.62202 0.6
v -0.1332617 0.62202 0.6
v -0.1332617 0.6220203 -0.5993402
v -0.008261663 0.655514 -0.5993402
v -0.008261663 0.6555136 0.6
v 0.1167383 0.6220203 -0.5993402
v 0.1167383 0.62202 0.6
v 0.2082447 0.530514 -0.5993402
v 0.2082447 0.5305137 0.6
v -0.2958569 -0.4213619 -0.5665534
v -0.2958569 -0.6220675 -0.5665534
v -0.2624108 -0.6220675 -0.6
v -0.2624108 -0.4213619 -0.6
v -0.2958569 -0.4213619 0.5665534
v -0.2958569 -0.6220675 0.5665534
v -0.2624108 -0.3879154 -0.5665534
v -0.2624108 -0.3879154 0.5665534
v -0.2958569 -0.4213619 0.5665534
v -0.2958569 -0.4213619 -0.5665534
v -0.2624108 -0.4213619 -0.6
v -0.2624108 -0.4213619 -0.6
v 0.2624097 -0.4213619 -0.6
v 0.2624097 -0.3879154 -0.5665534
v -0.2624108 -0.4213619 -0.6
v 0.2624097 -0.3879154 -0.5665534
v -0.2624108 -0.3879154 -0.5665534
v -0.2624108 -0.3879154 0.5665534
v 0.2624097 -0.3879154 0.5665534
v 0.295857 -0.4213619 -0.5665534
v 0.295857 -0.4213619 0.5665534
v 0.2624097 -0.4213619 -0.6
v 0.2624097 -0.4213619 -0.6
v 0.2624097 -0.6220675 -0.6
v 0.295857 -0.6220675 -0.5665534
v 0.295857 -0.4213619 -0.5665534
v -0.2624108 -0.6220675 -0.6
v -0.2624108 -0.4213619 -0.6
v -0.2958569 -0.6220675 -0.5665534
v -0.2958569 -0.6220675 0.5665534
v -0.2624108 -0.655514 0.5665534
v -0.2624108 -0.655514 -0.5665534
v 0.2624097 -0.655514 -0.5665534
v 0.2624097 -0.655514 0.5665534
v 0.295857 -0.6220675 0.5665534
v 0.295857 -0.6220675 -0.5665534
v -0.2624108 -0.6220675 0.6
v 0.2624097 -0.6220675 0.6
v 0.2624097 -0.6220675 -0.6
v -0.2624108 -0.655514 -0.5665534
v 0.2624097 -0.655514 -0.5665534
v 0.2624097 -0.6220675 -0.6
v -0.2624108 -0.6220675 -0.6
v -0.2958569 -0.6220675 0.5665534
v -0.2958569 -0.4213619 0.5665534
v -0.2624108 -0.4213619 0.6
v -0.2624108 -0.6220675 0.6
v 0.2624097 -0.6220675 0.6
v 0.2624097 -0.4213619 0.6
v -0.2624108 -0.3879154 0.5665534
v 0.2624097 -0.3879154 0.5665534
v 0.2624097 -0.4213619 0.6
v -0.2624108 -0.4213619 0.6
v -0.2958569 -0.4213619 0.5665534
v 0.2624097 -0.6220675 0.6
v 0.2624097 -0.4213619 0.6
v 0.295857 -0.4213619 0.5665534
v 0.295857 -0.6220675 0.5665534
v 0.295857 -0.4213619 -0.5665534
v 0.295857 -0.6220675 -0.5665534
v -0.2958569 -0.6220675 -0.5665534
v -0.2624108 -0.655514 -0.5665534
v -0.2624108 -0.6220675 -0.6
v 0.2624097 -0.4213619 0.6
v 0.2624097 -0.3879154 0.5665534
v 0.295857 -0.4213619 0.5665534
v -0.1297717 0.1896229 0.6
v -0.1262817 -0.4606168 0.6
v -0.1262817 -0.4606168 -0.6
v -0.1297717 0.189623 -0.5996704
v 0.1167615 0.1896229 0.6
v 0.1167603 0.189623 -0.5996704
v 0.1167835 -0.4606168 -0.6
v 0.1167835 -0.4606168 0.6
vt 0.7124023 0.6328125
vt 0.7124023 0.7675781
vt 0.7270508 0.7675781
vt 0.7270508 0.6328125
vt 0.6977539 0.6328125
vt 0.6977539 0.7675781
vt 0.6831055 0.6328125
vt 0.6831055 0.7675781
vt 0.581543 0.6328125
vt 0.581543 0.7675781
vt 0.5961914 0.7675781
vt 0.5961914 0.6328125
vt 0.6108398 0.7675781
vt 0.6108398 0.6328125
vt 0.625 0.7675781
vt 0.625 0.6328125
vt 0.6396484 0.7675781
vt 0.6396484 0.6328125
vt 0.6396484 0.6328125
vt 0.6396484 0.7675781
vt 0.6542969 0.7675781
vt 0.6542969 0.6328125
vt 0.6689453 0.7675781
vt 0.6689453 0.6328125
vt 0.6831055 0.7675781
vt 0.6831055 0.6328125
vt 0.8476563 0.1392822
vt 0.8251953 0.1392822
vt 0.8251953 0.1445313
vt 0.8476563 0.1445313
vt 0.8476563 0.01196289
vt 0.8251953 0.01196289
vt 0.4550781 0.01817322
vt 0.5844727 0.01919556
vt 0.5854492 0.01397705
vt 0.4541016 0.01255035
vt 0.449707 0.01702881
vt 0.449707 0.01702881
vt 0.4504395 0.08044434
vt 0.4555664 0.0791626
vt 0.449707 0.01702881
vt 0.4555664 0.0791626
vt 0.4550781 0.01817322
vt 0.5844727 0.01919556
vt 0.5849609 0.07910156
vt 0.4543457 0.08441162
vt 0.5864258 0.08441162
vt 0.4504395 0.08044434
vt 0.8476563 0.2034912
vt 0.8251953 0.2034912
vt 0.8251953 0.2088623
vt 0.8476563 0.2088623
vt 0.8251953 0.1445313
vt 0.8476563 0.1445313
vt 0.3083496 0.08251953
vt 0.4384766 0.08251953
vt 0.4372559 0.07733154
vt 0.3093262 0.07739258
vt 0.3110352 0.01856995
vt 0.4387207 0.01853943
vt 0.4399414 0.0133667
vt 0.3098145 0.01338196
vt 0.4423828 0.07855225
vt 0.4440918 0.01739502
vt 0.3056641 0.01739502
vt 0.3093262 0.07739258
vt 0.3110352 0.01856995
vt 0.3056641 0.01739502
vt 0.3041992 0.07855225
vt 0.9072266 0.01150513
vt 0.8847656 0.01150513
vt 0.8847656 0.01681519
vt 0.9072266 0.01681519
vt 0.9072266 0.07574463
vt 0.8847656 0.07574463
vt 0.5844727 0.01919556
vt 0.5849609 0.07910156
vt 0.590332 0.0803833
vt 0.5898438 0.01803589
vt 0.5854492 0.01397705
vt 0.9072266 0.07574463
vt 0.8847656 0.07574463
vt 0.8847656 0.08105469
vt 0.9072266 0.08105469
vt 0.8847656 0.208374
vt 0.9072266 0.208374
vt 0.3083496 0.08251953
vt 0.3093262 0.07739258
vt 0.3041992 0.07855225
vt 0.590332 0.0803833
vt 0.5849609 0.07910156
vt 0.5864258 0.08441162
vt -16.10938 16.76563
vt -17.26563 16.76563
vt -17.26563 14.94531
vt -16.10938 14.94531
vt -16.10938 16.76563
vt -16.10938 14.94531
vt -17.26563 14.94531
vt -17.26563 16.76563
vn 0.865437 -0.5010178 -2.85589E-07
vn 0.865327 -0.5012077 -2.857554E-07
vn 0.7048017 -0.7094043 -4.734851E-07
vn 0.7048017 -0.7094043 -4.73485E-07
vn 1 0 0
vn 1 0 0
vn 0.8660253 0.5000002 0
vn 0.8660253 0.5000002 0
vn -0.691321 -0.7225479 0
vn -0.691321 -0.7225479 0
vn -0.8604522 -0.5095312 0
vn -0.8604522 -0.5095312 0
vn -1 0 0
vn -1 0 0
vn -0.8660253 0.5000002 1E-06
vn -0.8660253 0.5000002 1E-06
vn -0.5000002 0.8660253 1E-06
vn -0.5000002 0.8660253 1E-06
vn -0.5000002 0.8660253 1E-06
vn -0.5000002 0.8660253 1E-06
vn 0 1 0
vn 0 1 0
vn 0.4999998 0.8660256 0
vn 0.4999998 0.8660256 0
vn 0.8660253 0.5000002 0
vn 0.8660253 0.5000002 0
vn -1 0 0
vn -1 0 0
vn 0 0 -1
vn 0 0 -1
vn -1 0 0
vn -1 0 0
vn 0 1 0
vn 0 1 0
vn -1 0 0
vn -1 0 0
vn 0 0 -1
vn 0 0 -1
vn 0 0 -1
vn 0 1 0
vn 0 0 -1
vn 0 1 0
vn 0 1 0
vn 0 1 0
vn 0 1 0
vn 1 0 0
vn 1 0 0
vn 0 0 -1
vn 0 0 -1
vn 0 0 -1
vn 1 0 0
vn 1 0 0
vn 0 0 -1
vn 0 0 -1
vn -1 0 0
vn -1 0 0
vn 0 -1 0
vn 0 -1 0
vn 0 -1 0
vn 0 -1 0
vn 1 0 0
vn 1 0 0
vn 0 0 1
vn 0 0 1
vn 0 0 -1
vn 0 -1 0
vn 0 -1 0
vn 0 0 -1
vn 0 0 -1
vn -1 0 0
vn -1 0 0
vn 0 0 1
vn 0 0 1
vn 0 0 1
vn 0 0 1
vn 0 1 0
vn 0 1 0
vn 0 0 1
vn 0 0 1
vn -1 0 0
vn 0 0 1
vn 0 0 1
vn 1 0 0
vn 1 0 0
vn 1 0 0
vn 1 0 0
vn -1 0 0
vn 0 -1 0
vn 0 0 -1
vn 0 0 1
vn 0 1 0
vn 1 0 0
vn -0.9999824 -0.005937002 0
vn -0.9999824 -0.005937002 0
vn -0.9999824 -0.005937002 0
vn -0.9999824 -0.005937002 0
vn 1 3.9E-05 0
vn 1 3.9E-05 0
vn 1 3.9E-05 0
vn 1 3.9E-05 0
g m_airballoon_basket_top_straight_01_0
f 3/3/3 2/2/2 1/1/1
f 4/4/4 3/3/3 1/1/1
f 1/1/1 2/2/2 5/5/5
f 2/2/2 6/6/6 5/5/5
f 5/5/5 6/6/6 7/7/7
f 6/6/6 8/8/8 7/7/7
f 11/11/11 10/10/10 9/9/9
f 12/12/12 11/11/11 9/9/9
f 13/13/13 11/11/11 12/12/12
f 14/14/14 13/13/13 12/12/12
f 15/15/15 13/13/13 14/14/14
f 16/16/16 15/15/15 14/14/14
f 17/17/17 15/15/15 16/16/16
f 18/18/18 17/17/17 16/16/16
f 21/21/21 20/20/20 19/19/19
f 22/22/22 21/21/21 19/19/19
f 23/23/23 21/21/21 22/22/22
f 24/24/24 23/23/23 22/22/22
f 25/25/25 23/23/23 24/24/24
f 26/26/26 25/25/25 24/24/24
f 29/29/29 28/28/28 27/27/27
f 30/30/30 29/29/29 27/27/27
f 31/31/31 27/27/27 28/28/28
f 32/32/32 31/31/31 28/28/28
f 35/35/35 34/34/34 33/33/33
f 36/36/36 35/35/35 33/33/33
f 33/33/33 37/37/37 36/36/36
f 40/40/40 39/39/39 38/38/38
f 43/43/43 42/42/42 41/41/41
f 42/42/42 43/43/43 44/44/44
f 45/45/45 42/42/42 44/44/44
f 42/42/42 45/45/45 46/46/46
f 45/45/45 47/47/47 46/46/46
f 42/42/42 46/46/46 48/48/48
f 51/51/51 50/50/50 49/49/49
f 52/52/52 51/51/51 49/49/49
f 50/50/50 53/53/53 49/49/49
f 53/53/53 54/54/54 49/49/49
f 57/57/57 56/56/56 55/55/55
f 58/58/58 57/57/57 55/55/55
f 57/57/57 58/58/58 59/59/59
f 60/60/60 57/57/57 59/59/59
f 61/61/61 60/60/60 59/59/59
f 62/62/62 61/61/61 59/59/59
f 57/57/57 60/60/60 63/63/63
f 56/56/56 57/57/57 63/63/63
f 60/60/60 64/64/64 63/63/63
f 61/61/61 64/64/64 60/60/60
f 65/65/65 62/62/62 59/59/59
f 68/68/68 67/67/67 66/66/66
f 69/69/69 68/68/68 66/66/66
f 72/72/72 71/71/71 70/70/70
f 73/73/73 72/72/72 70/70/70
f 72/72/72 73/73/73 74/74/74
f 75/75/75 72/72/72 74/74/74
f 78/78/78 77/77/77 76/76/76
f 79/79/79 78/78/78 76/76/76
f 80/80/80 79/79/79 76/76/76
f 83/83/83 82/82/82 81/81/81
f 84/84/84 83/83/83 81/81/81
f 85/85/85 83/83/83 84/84/84
f 86/86/86 85/85/85 84/84/84
f 89/89/89 88/88/88 87/87/87
f 92/92/92 91/91/91 90/90/90
g m_airballoon_basket_top_straight_01_1
f 95/95/95 94/94/94 93/93/93
f 96/96/96 95/95/95 93/93/93
f 99/99/99 98/98/98 97/97/97
f 100/100/100 99/99/99 97/97/97
