g m_air_balloon_side_end_01
v -1.999939 -191 -42.37312
v -1.999924 -191 77.62698
v 3.814697E-06 -179.9999 77.62694
v -7.629395E-06 -180 -42.37309
v -7.999938 -203 -42.37312
v -7.999924 -203 77.62701
v -14.99994 -213 -42.37312
v -14.99992 -213 77.62698
v -25.99993 -221 -42.37294
v -25.99993 -221 77.62698
v -36.99992 -225 -42.373
v -36.99992 -225 77.62698
v -48.9999 -227 -42.37298
v -48.99988 -227 77.62698
v -0.04410553 60.00021 77.62694
v -0.04410553 60 -42.37304
v 0 -60 -42.37305
v 0 -60.00003 77.62695
v 0 -60.00003 77.62695
v 0 -60 -42.37305
v -7.629395E-06 -180 -42.37309
v 3.814697E-06 -179.9999 77.62694
v -24.74377 127.5093 77.62695
v -24.39478 62.48532 77.62695
v -24.39481 62.48532 -30.01123
v -24.74381 127.5093 -29.97363
v -0.09057617 127.5093 77.62695
v -0.09053802 127.5093 -29.97495
v -0.08821106 60.00021 -30.01123
v -0.04410553 60.00021 77.62694
v 9.057808 136.5984 -29.94754
v 9.057785 136.5984 -50.49927
v -0.09056854 127.5093 -50.52896
v -0.09053802 127.5093 -29.97495
v -12.41719 124.2873 -29.96906
v -12.4172 124.2873 -50.52579
v 9.057838 136.5984 77.62683
v -0.09057617 127.5093 77.62695
v -24.74381 127.5093 -29.97363
v -24.74384 127.5093 -50.5257
v -34.24349 136.5984 -50.49594
v -34.24348 136.5984 -29.94473
v -37.59285 149.0984 -50.49927
v -37.59284 149.0984 -29.94754
v -34.24349 161.5984 -50.49921
v -34.24348 161.5984 -29.94754
v -25.09284 170.7491 -50.49921
v -25.09284 170.7491 -29.94754
v -24.74377 127.5093 77.62695
v -34.24344 136.5984 77.62683
v -37.59281 149.0984 77.62683
v -34.24344 161.5984 77.62683
v -25.09281 170.749 77.62683
v -25.09284 170.7491 -29.94754
v -25.09284 170.7491 -50.49921
v -12.59284 174.0984 -50.49921
v -12.59284 174.0984 -29.94754
v -0.09283447 170.7491 -50.49927
v -0.09283447 170.7491 -29.94754
v 9.057785 161.5984 -50.49927
v 9.057808 161.5984 -29.94754
v -25.09281 170.749 77.62683
v -12.59281 174.0984 77.62683
v -0.09281158 170.749 77.62683
v 9.057838 161.5984 77.62683
v 9.057808 161.5984 -29.94754
v 9.057785 161.5984 -50.49927
v 12.40714 149.0984 -50.49927
v 12.40717 149.0984 -29.94754
v 9.057785 136.5984 -50.49927
v 9.057808 136.5984 -29.94754
v 9.057838 161.5984 77.62683
v 12.40717 149.0984 77.62683
v 9.057838 136.5984 77.62683
v -12.4172 124.2873 -50.52579
v -24.74384 127.5093 -50.5257
v -24.74381 127.5093 -29.97363
v -12.41719 124.2873 -29.96906
v -12.59284 164.2865 -59.98007
v -20.18687 162.2517 -59.98007
v -12.5768 149.1666 -59.98495
v -25.74608 156.6925 -59.98007
v -27.78089 149.0984 -59.98007
v -25.77221 141.6149 -59.98007
v -19.96497 136.063 -60
v -12.4172 134.09 -60.00006
v -4.960213 136.0359 -60
v -4.998817 162.2517 -59.98007
v 0.560379 156.6925 -59.98007
v 2.595192 149.0984 -59.98007
v 0.5646591 141.5203 -59.98007
v 6.570381 138.0399 -57.20203
v 9.53347 149.0984 -57.20203
v -1.517136 130.0072 -57.22943
v -31.76247 138.0676 -57.20102
v -23.34384 130.0152 -57.22855
v -12.4172 127.159 -57.22858
v -34.71918 149.0984 -57.20203
v -31.75482 160.1616 -57.20203
v 6.569114 160.1616 -57.20203
v -1.529678 168.2604 -57.20203
v -12.59284 171.2248 -57.20203
v -23.65602 168.2604 -57.20203
v 9.057785 136.5984 -50.49927
v 12.40714 149.0984 -50.49927
v 9.53347 149.0984 -57.20203
v 6.570381 138.0399 -57.20203
v 6.569114 160.1616 -57.20203
v 9.057785 161.5984 -50.49927
v 6.570381 138.0399 -57.20203
v -1.517136 130.0072 -57.22943
v -0.09056854 127.5093 -50.52896
v 9.057785 136.5984 -50.49927
v -12.4172 124.2873 -50.52579
v -12.4172 127.159 -57.22858
v -24.74384 127.5093 -50.5257
v -23.34384 130.0152 -57.22855
v -34.24349 136.5984 -50.49594
v -24.74384 127.5093 -50.5257
v -23.34384 130.0152 -57.22855
v -31.76247 138.0676 -57.20102
v -37.59285 149.0984 -50.49927
v -34.71918 149.0984 -57.20203
v -34.24349 161.5984 -50.49921
v -31.75482 160.1616 -57.20203
v -25.09284 170.7491 -50.49921
v -23.65602 168.2604 -57.20203
v -23.65602 168.2604 -57.20203
v -12.59284 171.2248 -57.20203
v -12.59284 174.0984 -50.49921
v -25.09284 170.7491 -50.49921
v -0.09283447 170.7491 -50.49927
v -1.529678 168.2604 -57.20203
v 9.057785 161.5984 -50.49927
v 6.569114 160.1616 -57.20203
v -28.49244 139.2891 -23.00641
v 3.944016 139.2891 -23.00641
v 3.944016 66.375 -23.00125
v -28.49244 66.375 -23.00125
v 6.372864 139.2891 -25.43524
v 6.372864 66.375 -25.43008
v -28.49244 66.375 -42.43405
v 3.944016 66.375 -42.43405
v 3.944016 139.289 -42.43908
v -28.49244 139.289 -42.43908
v -30.92128 139.289 -40.01031
v -30.92128 66.375 -40.00519
v 6.372864 66.375 -40.00519
v 6.372864 139.289 -40.01031
v 6.372864 139.2891 -25.43524
v 6.372864 139.289 -40.01031
v 6.372864 66.375 -40.00519
v 6.372864 66.375 -25.43008
v -30.92128 139.289 -40.01031
v -30.92128 139.2891 -25.43524
v -30.92128 66.375 -25.43008
v -30.92128 66.375 -40.00519
v -28.49244 139.2891 -23.00641
v -28.49244 66.375 -23.00125
v -41.35229 66.4108 -39.09448
v -41.35229 46.34023 -39.09448
v -38.00764 46.34023 -42.43908
v -38.00764 66.4108 -42.43908
v -41.35229 66.4108 74.21625
v -41.35229 46.34023 74.21625
v -38.00764 69.75545 -39.09448
v -38.00764 69.75545 74.21625
v -41.35229 66.4108 74.21625
v -41.35229 66.4108 -39.09448
v 14.47438 69.75545 -39.09448
v -38.00764 66.4108 -42.43908
v 14.47438 66.4108 -42.43908
v 14.47438 69.75545 74.21625
v 17.81902 66.4108 -39.09448
v 17.81902 66.4108 74.21625
v 14.47438 66.4108 77.56088
v -38.00764 66.4108 77.56088
v 14.47438 66.4108 -42.43908
v 14.47438 46.34023 -42.43908
v 17.81902 46.34023 -39.09448
v 17.81902 66.4108 -39.09448
v -38.00764 46.34023 -42.43908
v -38.00764 66.4108 -42.43908
v -41.35229 46.34023 -39.09448
v -41.35229 46.34023 74.21625
v -38.00764 42.99558 74.21625
v -38.00764 42.99558 -39.09448
v 14.47438 42.99558 -39.09448
v 14.47438 46.34023 -42.43908
v -38.00764 46.34023 -42.43908
v 14.47438 42.99558 74.21625
v -38.00764 46.34023 77.56088
v 14.47438 46.34023 77.56088
v 17.81902 46.34023 -39.09448
v 17.81902 46.34023 74.21625
v 14.47438 42.99558 -39.09448
v 14.47438 42.99558 74.21625
v 17.81902 46.34023 74.21625
v 17.81902 46.34023 -39.09448
v -41.35229 46.34023 74.21625
v -41.35229 66.4108 74.21625
v -38.00764 66.4108 77.56088
v -38.00764 46.34023 77.56088
v 14.47438 46.34023 77.56088
v 14.47438 66.4108 77.56088
v 14.47438 46.34023 77.56088
v 14.47438 66.4108 77.56088
v 17.81902 66.4108 74.21625
v 17.81902 46.34023 74.21625
v 17.81902 66.4108 -39.09448
v 17.81902 46.34023 -39.09448
v -41.35229 66.4108 -39.09448
v -38.00764 66.4108 -42.43908
v -38.00764 69.75545 -39.09448
v -38.00764 46.34023 77.56088
v -38.00764 42.99558 74.21625
v -41.35229 46.34023 74.21625
vt 17.54688 14.50781
vt 17.54688 12.45313
vt 17.34375 12.45313
vt 17.34375 14.50781
vt 17.76563 14.50781
vt 17.76563 12.45313
vt 17.96875 14.50781
vt 17.96875 12.45313
vt 18.17188 14.50781
vt 18.17188 12.45313
vt 18.375 14.50781
vt 18.375 12.45313
vt 18.54688 14.50781
vt 18.54688 12.45313
vt 16.42188 12.45313
vt 16.42188 14.50781
vt 18.34375 14.50781
vt 18.32813 12.45313
vt 16.42188 12.45313
vt 16.42188 14.50781
vt 18.34375 14.50781
vt 18.32813 12.45313
vt -16.10938 16.9375
vt -17.26563 16.9375
vt -17.26563 15.125
vt -16.10938 15.125
vt -16.10938 16.9375
vt -16.10938 15.125
vt -17.26563 15.125
vt -17.26563 16.9375
vt 0.8652344 0.6298828
vt 0.8881836 0.6298828
vt 0.8881836 0.6152344
vt 0.8652344 0.6152344
vt 0.8652344 0.6010742
vt 0.8881836 0.6010742
vt 0.7446289 0.6298828
vt 0.7446289 0.6152344
vt 0.8652344 0.7607422
vt 0.8881836 0.7607422
vt 0.8881836 0.7460938
vt 0.8652344 0.7460938
vt 0.8881836 0.7314453
vt 0.8652344 0.7314453
vt 0.8881836 0.7172852
vt 0.8652344 0.7172852
vt 0.8881836 0.7026367
vt 0.8652344 0.7026367
vt 0.7446289 0.7607422
vt 0.7446289 0.7460938
vt 0.7446289 0.7314453
vt 0.7446289 0.7172852
vt 0.7446289 0.7026367
vt 0.8652344 0.7026367
vt 0.8881836 0.7026367
vt 0.8881836 0.6879883
vt 0.8652344 0.6879883
vt 0.8881836 0.6733398
vt 0.8652344 0.6733398
vt 0.8881836 0.6591797
vt 0.8652344 0.6591797
vt 0.7446289 0.7026367
vt 0.7446289 0.6879883
vt 0.7446289 0.6733398
vt 0.7446289 0.6591797
vt 0.8652344 0.6591797
vt 0.8881836 0.6591797
vt 0.8881836 0.6445313
vt 0.8652344 0.6445313
vt 0.8881836 0.6298828
vt 0.8652344 0.6298828
vt 0.7446289 0.6591797
vt 0.7446289 0.6445313
vt 0.7446289 0.6298828
vt 0.8881836 0.7753906
vt 0.8881836 0.7607422
vt 0.8652344 0.7607422
vt 0.8652344 0.7753906
vt 0.9760742 0.3935547
vt 0.9716797 0.3857422
vt 0.9594727 0.3974609
vt 0.9643555 0.3813477
vt 0.9555664 0.3811035
vt 0.9477539 0.385498
vt 0.9433594 0.3935547
vt 0.9433594 0.4023438
vt 0.9477539 0.4094238
vt 0.9760742 0.4023438
vt 0.9711914 0.409668
vt 0.9638672 0.4138184
vt 0.9550781 0.4135742
vt 0.953125 0.4216309
vt 0.9663086 0.4216309
vt 0.9418945 0.4152832
vt 0.9423828 0.3798828
vt 0.9355469 0.3916016
vt 0.9355469 0.4042969
vt 0.953125 0.3730469
vt 0.9663086 0.373291
vt 0.9775391 0.4155273
vt 0.9838867 0.4042969
vt 0.9838867 0.3913574
vt 0.9775391 0.380127
vt 0.9516602 0.4294434
vt 0.9682617 0.4294434
vt 0.9663086 0.4216309
vt 0.953125 0.4216309
vt 0.9775391 0.4155273
vt 0.9829102 0.4213867
vt 0.953125 0.4216309
vt 0.9418945 0.4152832
vt 0.9370117 0.4216309
vt 0.9516602 0.4294434
vt 0.9277344 0.4067383
vt 0.9355469 0.4042969
vt 0.9282227 0.3894043
vt 0.9355469 0.3916016
vt 0.9365234 0.3742676
vt 0.9282227 0.3894043
vt 0.9355469 0.3916016
vt 0.9423828 0.3798828
vt 0.9516602 0.3657227
vt 0.953125 0.3730469
vt 0.9692383 0.3659668
vt 0.9663086 0.373291
vt 0.9838867 0.3752441
vt 0.9775391 0.380127
vt 0.9775391 0.380127
vt 0.9838867 0.3913574
vt 0.9921875 0.3901367
vt 0.9838867 0.3752441
vt 0.9916992 0.4072266
vt 0.9838867 0.4042969
vt 0.9829102 0.4213867
vt 0.9775391 0.4155273
vt 0.2763672 0.3701172
vt 0.2763672 0.3337402
vt 0.194458 0.3337402
vt 0.1943359 0.3701172
vt 0.2763672 0.329834
vt 0.194458 0.329834
vt 0.194458 0.2731934
vt 0.194458 0.3095703
vt 0.2763672 0.3095703
vt 0.2763672 0.2731934
vt 0.2763672 0.2692871
vt 0.194458 0.2692871
vt 0.194458 0.3134766
vt 0.2763672 0.3134766
vt 0.2763672 0.329834
vt 0.2763672 0.3134766
vt 0.194458 0.3134766
vt 0.194458 0.329834
vt 0.2763672 0.2692871
vt 0.2763672 0.2529297
vt 0.194458 0.2529297
vt 0.194458 0.2692871
vt 0.2763672 0.2491455
vt 0.194458 0.2490234
vt 0.9648438 0.1340332
vt 0.9423828 0.133667
vt 0.9423828 0.1390381
vt 0.9648438 0.1392822
vt 0.9663086 0.006721497
vt 0.9438477 0.006443024
vt 0.3083496 0.09393311
vt 0.4367676 0.09460449
vt 0.4377441 0.0894165
vt 0.3071289 0.08782959
vt 0.3076172 0.1541748
vt 0.3015137 0.09356689
vt 0.3024902 0.1553955
vt 0.4372559 0.154541
vt 0.3063965 0.1594238
vt 0.4382324 0.15979
vt 0.4423828 0.1557617
vt 0.4418945 0.09344482
vt 0.9638672 0.1982422
vt 0.9414063 0.197998
vt 0.9414063 0.2032471
vt 0.9638672 0.2034912
vt 0.9423828 0.1390381
vt 0.9648438 0.1392822
vt 0.1617432 0.2376709
vt 0.2919922 0.2376709
vt 0.2907715 0.2325439
vt 0.1628418 0.2325439
vt 0.1644287 0.1737061
vt 0.1593018 0.1724854
vt 0.1577148 0.2336426
vt 0.2922363 0.1737061
vt 0.2958984 0.2336426
vt 0.2973633 0.1724854
vt 0.1633301 0.1685791
vt 0.293457 0.168457
vt 0.1644287 0.1737061
vt 0.2922363 0.1737061
vt 0.293457 0.168457
vt 0.1633301 0.1685791
vt 0.9130859 0.2045898
vt 0.9355469 0.2045898
vt 0.9355469 0.1992188
vt 0.9130859 0.1992188
vt 0.9130859 0.1402588
vt 0.9355469 0.1402588
vt 0.9130859 0.1402588
vt 0.9355469 0.1402588
vt 0.9355469 0.1350098
vt 0.9130859 0.1350098
vt 0.9355469 0.007724762
vt 0.9130859 0.007724762
vt 0.3071289 0.08782959
vt 0.3015137 0.09356689
vt 0.3083496 0.09393311
vt 0.2958984 0.2336426
vt 0.2907715 0.2325439
vt 0.2919922 0.2376709
vn 0.991165 -0.1325726 0.004066653
vn 0.9893841 -0.145267 0.004064486
vn 1 0 0
vn 1 0 0
vn 0.867947 -0.4966498 0.002634589
vn 0.867947 -0.4966498 0.002634589
vn 0.6964453 -0.7176086 0.001337104
vn 0.6964453 -0.7176086 0.001337104
vn 0.4869865 -0.8734095 3.099966E-05
vn 0.4869865 -0.8734095 3.099966E-05
vn 0.2568308 -0.9664556 -0.001215125
vn 0.2568308 -0.9664556 -0.001215125
vn 0.1284869 -0.9917095 -0.001844582
vn 0.1284869 -0.9917095 -0.001844582
vn 0.9999821 0.005650918 0.001999725
vn 0.9999821 0.005650918 0.001999725
vn 1 0 0
vn 1 0 0
vn 1 0 0
vn 1 0 0
vn 1 0 0
vn 1 0 0
vn -0.9999856 -0.005367231 0
vn -0.9999856 -0.005367231 0
vn -0.9999856 -0.005367231 0
vn -0.9999856 -0.005367231 0
vn 1 0.0003614701 -0.000204736
vn 1 0.0003614702 -0.000204736
vn 1 0.0003614702 -0.000204736
vn 1 0.0003614702 -0.000204736
vn 0.8653777 -0.5011202 0
vn 0.8615214 -0.4987237 -0.09516025
vn 0.4950569 -0.8636062 -0.09540993
vn 0.6534618 -0.7569595 0
vn 0 -1 0
vn -3.461302E-05 -0.9954471 -0.09531515
vn 0.8654385 -0.5010152 0
vn 0.7048048 -0.7094013 0
vn -0.641779 -0.7668896 0
vn -0.4890304 -0.8670276 -0.09545878
vn -0.8553801 -0.5091736 -0.09522203
vn -0.8592527 -0.5115514 0
vn -0.9954538 3.616511E-05 -0.09524438
vn -1 1.42785E-05 0
vn -0.8620859 0.4977254 -0.09527417
vn -0.8660254 0.5 0
vn -0.4977253 0.862086 -0.0952744
vn -0.5000001 0.8660253 0
vn -0.6913208 -0.7225481 0
vn -0.8593121 -0.5114516 0
vn -1 0 0
vn -0.8660254 0.5 0
vn -0.5000001 0.8660254 0
vn -0.5000001 0.8660253 0
vn -0.4977253 0.862086 -0.0952744
vn 0 0.995451 -0.09527455
vn 0 1 0
vn 0.4977256 0.8620858 -0.09527504
vn 0.4999998 0.8660256 0
vn 0.8620859 0.4977252 -0.09527531
vn 0.8660256 0.4999998 0
vn -0.5000001 0.8660254 0
vn 0 1 0
vn 0.4999998 0.8660255 0
vn 0.8660256 0.4999998 0
vn 0.8660256 0.4999998 0
vn 0.8620859 0.4977252 -0.09527531
vn 0.9954516 0 -0.09526877
vn 1 0 0
vn 0.8615214 -0.4987237 -0.09516025
vn 0.8653777 -0.5011202 0
vn 0.8660256 0.4999998 0
vn 1 0 0
vn 0.8654385 -0.5010152 0
vn -3.461302E-05 -0.9954471 -0.09531515
vn -0.4890304 -0.8670276 -0.09545878
vn -0.641779 -0.7668896 0
vn 0 -1 0
vn 0 0.2372565 -0.971447
vn -0.1185782 0.205384 -0.9714714
vn 0 0.0006010916 -0.9999999
vn -0.2052298 0.1184892 -0.9715148
vn -0.2371 0.0001876813 -0.9714853
vn -0.2047858 -0.120982 -0.9713012
vn -0.1167919 -0.2047055 -0.9718309
vn -0.0002499096 -0.2358685 -0.9717849
vn 0.1183973 -0.2042677 -0.9717288
vn 0.1186247 0.2054645 -0.9714487
vn 0.2053691 0.1185694 -0.9714755
vn 0.2369993 3.512878E-05 -0.9715099
vn 0.2058615 -0.1177091 -0.971476
vn 0.6580926 -0.3801011 -0.6499518
vn 0.7596238 3.949809E-05 -0.6503628
vn 0.3781794 -0.6585463 -0.6506128
vn -0.6534242 -0.3886716 -0.649593
vn -0.3731546 -0.660265 -0.6517713
vn -0.0002976041 -0.758885 -0.6512247
vn -0.7599564 0.0001941478 -0.6499741
vn -0.6578048 0.3797848 -0.6504278
vn 0.6578038 0.3797829 -0.6504299
vn 0.3797823 0.6578051 -0.6504289
vn 0 0.7595684 -0.6504275
vn -0.3797841 0.6578068 -0.6504263
vn 0.8615214 -0.4987237 -0.09516025
vn 0.9954516 0 -0.09526877
vn 0.7596238 3.949809E-05 -0.6503628
vn 0.6580926 -0.3801011 -0.6499518
vn 0.6578038 0.3797829 -0.6504299
vn 0.8620859 0.4977252 -0.09527531
vn 0.6580926 -0.3801011 -0.6499518
vn 0.3781794 -0.6585463 -0.6506128
vn 0.4950569 -0.8636062 -0.09540993
vn 0.8615214 -0.4987237 -0.09516025
vn -3.461302E-05 -0.9954471 -0.09531515
vn -0.0002976041 -0.758885 -0.6512247
vn -0.4890304 -0.8670276 -0.09545878
vn -0.3731546 -0.660265 -0.6517713
vn -0.8553801 -0.5091736 -0.09522203
vn -0.4890304 -0.8670276 -0.09545878
vn -0.3731546 -0.660265 -0.6517713
vn -0.6534242 -0.3886716 -0.649593
vn -0.9954538 3.616511E-05 -0.09524438
vn -0.7599564 0.0001941478 -0.6499741
vn -0.8620859 0.4977254 -0.09527417
vn -0.6578048 0.3797848 -0.6504278
vn -0.4977253 0.862086 -0.0952744
vn -0.3797841 0.6578068 -0.6504263
vn -0.3797841 0.6578068 -0.6504263
vn 0 0.7595684 -0.6504275
vn 0 0.995451 -0.09527455
vn -0.4977253 0.862086 -0.0952744
vn 0.4977256 0.8620858 -0.09527504
vn 0.3797823 0.6578051 -0.6504289
vn 0.8620859 0.4977252 -0.09527531
vn 0.6578038 0.3797829 -0.6504299
vn 0 0.0001 1
vn 0 0.0001 1
vn 0 0.0001 1
vn 0 0.0001 1
vn 1 0 0
vn 1 0 0
vn 0 -0.0001 -1
vn 0 -0.0001 -1
vn 0 -0.0001 -1
vn 0 -0.0001 -1
vn -1 0 0
vn -1 0 0
vn 1 0 0
vn 1 0 0
vn 1 0 0
vn 1 0 0
vn 1 0 0
vn 1 0 0
vn -1 0 0
vn -1 0 0
vn -1 0 0
vn -1 0 0
vn 0 0.0001 1
vn 0 0.0001 1
vn -1 0 0
vn -1 0 0
vn 0 -0.0001 -1
vn 0 -0.0001 -1
vn -1 0 0
vn -1 0 0
vn -0.05870965 0.9978962 -0.02749959
vn -0.05870964 0.9978962 0.02749959
vn -1 0 0
vn -1 0 0
vn 0.05870967 0.9978962 -0.02749959
vn 0 -0.0001 -1
vn 0 -0.0001 -1
vn 0.05870965 0.9978962 0.02749959
vn 1 0 0
vn 1 0 0
vn 0 0.0001 1
vn 0 0.0001 1
vn 0 -0.0001 -1
vn 0 -0.0001 -1
vn 1 0 0
vn 1 0 0
vn 0 -0.0001 -1
vn 0 -0.0001 -1
vn -1 0 0
vn -1 0 0
vn -0.05870977 -0.9978962 0.02749962
vn -0.05870979 -0.9978962 -0.02749963
vn 0.05870979 -0.9978962 -0.02749963
vn 0 -0.0001 -1
vn 0 -0.0001 -1
vn 0.05870979 -0.9978962 0.02749963
vn 0 0.0001 1
vn 0 0.0001 1
vn 1 0 0
vn 1 0 0
vn 0.05870979 -0.9978962 -0.02749963
vn 0.05870979 -0.9978962 0.02749963
vn 1 0 0
vn 1 0 0
vn -1 0 0
vn -1 0 0
vn 0 0.0001 1
vn 0 0.0001 1
vn 0 0.0001 1
vn 0 0.0001 1
vn 0 0.0001 1
vn 0 0.0001 1
vn 1 0 0
vn 1 0 0
vn 1 0 0
vn 1 0 0
vn -1 0 0
vn 0 -0.0001 -1
vn -0.05870965 0.9978962 -0.02749959
vn 0 0.0001 1
vn -0.05870977 -0.9978962 0.02749962
vn -1 0 0
g m_air_balloon_side_end_01_0
f 3/3/3 2/2/2 1/1/1
f 4/4/4 3/3/3 1/1/1
f 1/1/1 2/2/2 5/5/5
f 2/2/2 6/6/6 5/5/5
f 5/5/5 6/6/6 7/7/7
f 6/6/6 8/8/8 7/7/7
f 7/7/7 8/8/8 9/9/9
f 8/8/8 10/10/10 9/9/9
f 9/9/9 10/10/10 11/11/11
f 10/10/10 12/12/12 11/11/11
f 11/11/11 12/12/12 13/13/13
f 12/12/12 14/14/14 13/13/13
f 17/17/17 16/16/16 15/15/15
f 18/18/18 17/17/17 15/15/15
f 21/21/21 20/20/20 19/19/19
f 22/22/22 21/21/21 19/19/19
f 25/25/25 24/24/24 23/23/23
f 26/26/26 25/25/25 23/23/23
f 29/29/29 28/28/28 27/27/27
f 30/30/30 29/29/29 27/27/27
g m_air_balloon_side_end_01_1
f 33/33/33 32/32/32 31/31/31
f 34/34/34 33/33/33 31/31/31
f 34/34/34 35/35/35 33/33/33
f 35/35/35 36/36/36 33/33/33
f 34/34/34 31/31/31 37/37/37
f 38/38/38 34/34/34 37/37/37
f 41/41/41 40/40/40 39/39/39
f 42/42/42 41/41/41 39/39/39
f 43/43/43 41/41/41 42/42/42
f 44/44/44 43/43/43 42/42/42
f 45/45/45 43/43/43 44/44/44
f 46/46/46 45/45/45 44/44/44
f 47/47/47 45/45/45 46/46/46
f 48/48/48 47/47/47 46/46/46
f 42/42/42 39/39/39 49/49/49
f 50/50/50 42/42/42 49/49/49
f 44/44/44 42/42/42 50/50/50
f 51/51/51 44/44/44 50/50/50
f 46/46/46 44/44/44 51/51/51
f 52/52/52 46/46/46 51/51/51
f 48/48/48 46/46/46 52/52/52
f 53/53/53 48/48/48 52/52/52
f 56/56/56 55/55/55 54/54/54
f 57/57/57 56/56/56 54/54/54
f 58/58/58 56/56/56 57/57/57
f 59/59/59 58/58/58 57/57/57
f 60/60/60 58/58/58 59/59/59
f 61/61/61 60/60/60 59/59/59
f 57/57/57 54/54/54 62/62/62
f 63/63/63 57/57/57 62/62/62
f 59/59/59 57/57/57 63/63/63
f 64/64/64 59/59/59 63/63/63
f 61/61/61 59/59/59 64/64/64
f 65/65/65 61/61/61 64/64/64
f 68/68/68 67/67/67 66/66/66
f 69/69/69 68/68/68 66/66/66
f 70/70/70 68/68/68 69/69/69
f 71/71/71 70/70/70 69/69/69
f 69/69/69 66/66/66 72/72/72
f 73/73/73 69/69/69 72/72/72
f 71/71/71 69/69/69 73/73/73
f 74/74/74 71/71/71 73/73/73
f 77/77/77 76/76/76 75/75/75
f 78/78/78 77/77/77 75/75/75
f 81/81/81 80/80/80 79/79/79
f 82/82/82 80/80/80 81/81/81
f 83/83/83 82/82/82 81/81/81
f 84/84/84 83/83/83 81/81/81
f 85/85/85 84/84/84 81/81/81
f 86/86/86 85/85/85 81/81/81
f 86/86/86 81/81/81 87/87/87
f 81/81/81 79/79/79 88/88/88
f 81/81/81 88/88/88 89/89/89
f 81/81/81 89/89/89 90/90/90
f 81/81/81 90/90/90 91/91/91
f 81/81/81 91/91/91 87/87/87
f 91/91/91 90/90/90 92/92/92
f 90/90/90 93/93/93 92/92/92
f 93/93/93 90/90/90 89/89/89
f 94/94/94 87/87/87 91/91/91
f 92/92/92 94/94/94 91/91/91
f 84/84/84 85/85/85 95/95/95
f 85/85/85 96/96/96 95/95/95
f 85/85/85 86/86/86 96/96/96
f 86/86/86 97/97/97 96/96/96
f 97/97/97 86/86/86 87/87/87
f 94/94/94 97/97/97 87/87/87
f 98/98/98 83/83/83 84/84/84
f 95/95/95 98/98/98 84/84/84
f 98/98/98 99/99/99 83/83/83
f 100/100/100 89/89/89 88/88/88
f 100/100/100 93/93/93 89/89/89
f 101/101/101 100/100/100 88/88/88
f 101/101/101 88/88/88 79/79/79
f 102/102/102 101/101/101 79/79/79
f 102/102/102 79/79/79 80/80/80
f 103/103/103 102/102/102 80/80/80
f 103/103/103 80/80/80 82/82/82
f 99/99/99 103/103/103 82/82/82
f 99/99/99 82/82/82 83/83/83
f 106/106/106 105/105/105 104/104/104
f 107/107/107 106/106/106 104/104/104
f 105/105/105 106/106/106 108/108/108
f 109/109/109 105/105/105 108/108/108
f 112/112/112 111/111/111 110/110/110
f 113/113/113 112/112/112 110/110/110
f 112/112/112 114/114/114 111/111/111
f 114/114/114 115/115/115 111/111/111
f 115/115/115 114/114/114 116/116/116
f 117/117/117 115/115/115 116/116/116
f 120/120/120 119/119/119 118/118/118
f 121/121/121 120/120/120 118/118/118
f 118/118/118 122/122/122 121/121/121
f 122/122/122 123/123/123 121/121/121
f 122/122/122 124/124/124 123/123/123
f 124/124/124 125/125/125 123/123/123
f 124/124/124 126/126/126 125/125/125
f 126/126/126 127/127/127 125/125/125
f 130/130/130 129/129/129 128/128/128
f 131/131/131 130/130/130 128/128/128
f 130/130/130 132/132/132 129/129/129
f 132/132/132 133/133/133 129/129/129
f 132/132/132 134/134/134 133/133/133
f 134/134/134 135/135/135 133/133/133
f 138/138/138 137/137/137 136/136/136
f 139/139/139 138/138/138 136/136/136
f 140/140/140 137/137/137 138/138/138
f 141/141/141 140/140/140 138/138/138
f 144/144/144 143/143/143 142/142/142
f 145/145/145 144/144/144 142/142/142
f 145/145/145 142/142/142 146/146/146
f 142/142/142 147/147/147 146/146/146
f 148/148/148 143/143/143 144/144/144
f 149/149/149 148/148/148 144/144/144
f 152/152/152 151/151/151 150/150/150
f 153/153/153 152/152/152 150/150/150
f 156/156/156 155/155/155 154/154/154
f 157/157/157 156/156/156 154/154/154
f 158/158/158 155/155/155 156/156/156
f 159/159/159 158/158/158 156/156/156
f 162/162/162 161/161/161 160/160/160
f 163/163/163 162/162/162 160/160/160
f 164/164/164 160/160/160 161/161/161
f 165/165/165 164/164/164 161/161/161
f 168/168/168 167/167/167 166/166/166
f 169/169/169 168/168/168 166/166/166
f 170/170/170 166/166/166 167/167/167
f 166/166/166 170/170/170 171/171/171
f 170/170/170 172/172/172 171/171/171
f 173/173/173 170/170/170 167/167/167
f 170/170/170 173/173/173 174/174/174
f 170/170/170 174/174/174 172/172/172
f 173/173/173 175/175/175 174/174/174
f 176/176/176 173/173/173 167/167/167
f 175/175/175 173/173/173 176/176/176
f 177/177/177 176/176/176 167/167/167
f 168/168/168 177/177/177 167/167/167
f 180/180/180 179/179/179 178/178/178
f 181/181/181 180/180/180 178/178/178
f 179/179/179 182/182/182 178/178/178
f 182/182/182 183/183/183 178/178/178
f 186/186/186 185/185/185 184/184/184
f 187/187/187 186/186/186 184/184/184
f 186/186/186 187/187/187 188/188/188
f 189/189/189 188/188/188 187/187/187
f 190/190/190 189/189/189 187/187/187
f 190/190/190 187/187/187 184/184/184
f 191/191/191 186/186/186 188/188/188
f 186/186/186 191/191/191 192/192/192
f 191/191/191 193/193/193 192/192/192
f 189/189/189 194/194/194 188/188/188
f 195/195/195 193/193/193 191/191/191
f 198/198/198 197/197/197 196/196/196
f 199/199/199 198/198/198 196/196/196
f 202/202/202 201/201/201 200/200/200
f 203/203/203 202/202/202 200/200/200
f 202/202/202 203/203/203 204/204/204
f 205/205/205 202/202/202 204/204/204
f 208/208/208 207/207/207 206/206/206
f 209/209/209 208/208/208 206/206/206
f 210/210/210 208/208/208 209/209/209
f 211/211/211 210/210/210 209/209/209
f 214/214/214 213/213/213 212/212/212
f 217/217/217 216/216/216 215/215/215
