g m_airballoon_basket_top_end_01
v 0.2082447 0.2805143 -0.3876094
v 0.2082435 0.2805143 -0.5931267
v 0.1167603 0.1896233 -0.5934236
v 0.1167603 0.189623 -0.3878838
v 0.2417371 0.4055141 -0.3876094
v 0.2417371 0.4055141 -0.5931267
v 0.2082447 0.5305141 -0.3876094
v 0.2082435 0.5305141 -0.5931267
v 0.2082447 0.5305138 0.6881346
v 0.2417383 0.4055138 0.6881346
v 0.2082447 0.2805138 0.6881346
v 0.1167603 0.1896229 0.6878044
v -0.1297717 0.189623 -0.38787
v -0.1297729 0.1896233 -0.5933906
v -0.2247692 0.2805143 -0.5930931
v -0.2247692 0.2805143 -0.3875813
v -0.006506292 0.1574026 -0.5933915
v -0.006506292 0.1574026 -0.3878245
v -0.1297717 0.1896229 0.6878044
v -0.224768 0.2805138 0.6881346
v -0.2247692 0.2805143 -0.3875813
v -0.2247692 0.2805143 -0.5930931
v -0.2582629 0.4055141 -0.5931267
v -0.2582629 0.4055141 -0.3876094
v -0.2247692 0.5305141 -0.5931261
v -0.2247692 0.5305141 -0.3876094
v -0.224768 0.2805138 0.6881346
v -0.2582617 0.4055138 0.6881346
v -0.224768 0.5305138 0.6881346
v -0.2247692 0.5305141 -0.3876094
v -0.2247692 0.5305141 -0.5931261
v -0.1332629 0.6220205 -0.5931261
v -0.1332629 0.6220205 -0.3876094
v -0.008262884 0.6555141 -0.5931261
v -0.008262884 0.6555141 -0.3876094
v -0.224768 0.5305138 0.6881346
v -0.1332617 0.6220202 0.6881346
v -0.008261663 0.6555138 0.6881346
v -0.008262884 0.6555141 -0.3876094
v -0.008262884 0.6555141 -0.5931261
v 0.1167371 0.6220205 -0.5931267
v 0.1167371 0.6220205 -0.3876094
v 0.2082435 0.5305141 -0.5931267
v 0.2082447 0.5305141 -0.3876094
v -0.008261663 0.6555138 0.6881346
v 0.1167383 0.6220202 0.6881346
v 0.2082447 0.5305138 0.6881346
v 0.1167603 0.1896233 -0.5934236
v -0.006506292 0.1574026 -0.5933915
v -0.006506292 0.1574026 -0.3878245
v 0.1167603 0.189623 -0.3878838
v -0.008262884 0.5573946 -0.6879347
v -0.08420282 0.5370467 -0.6879347
v -0.008101751 0.4061959 -0.6879835
v -0.1397949 0.4814547 -0.6879347
v -0.1601428 0.4055141 -0.6879347
v -0.1400561 0.3306785 -0.6879347
v -0.08198358 0.2751597 -0.6881343
v -0.006506292 0.2554302 -0.6881346
v 0.06806402 0.2748885 -0.6881343
v 0.06767828 0.5370467 -0.6879347
v 0.1232703 0.4814547 -0.6879347
v 0.1436182 0.4055141 -0.6879347
v 0.123313 0.3297333 -0.6879347
v 0.1833704 0.2949294 -0.6601542
v 0.2130005 0.4055141 -0.6601542
v 0.1024952 0.2146021 -0.6604286
v -0.1999584 0.2952062 -0.6601442
v -0.1157726 0.2146816 -0.6604192
v -0.006506292 0.1861202 -0.6604198
v -0.2295263 0.4055141 -0.6601542
v -0.1998827 0.5161461 -0.6601542
v 0.183357 0.5161461 -0.6601542
v 0.1023694 0.597134 -0.6601542
v -0.008262884 0.6267775 -0.6601542
v -0.118894 0.597134 -0.6601542
v 0.2082435 0.2805143 -0.5931267
v 0.2417371 0.4055141 -0.5931267
v 0.2130005 0.4055141 -0.6601542
v 0.1833704 0.2949294 -0.6601542
v 0.1167603 0.1896233 -0.5934236
v 0.1024952 0.2146021 -0.6604286
v 0.183357 0.5161461 -0.6601542
v 0.2082435 0.5305141 -0.5931267
v -0.2247692 0.2805143 -0.5930931
v -0.1297729 0.1896233 -0.5933906
v -0.1157726 0.2146816 -0.6604192
v -0.1999584 0.2952062 -0.6601442
v -0.006506292 0.1861202 -0.6604198
v -0.006506292 0.1574026 -0.5933915
v 0.1024952 0.2146021 -0.6604286
v 0.1167603 0.1896233 -0.5934236
v -0.1999584 0.2952062 -0.6601442
v -0.2295263 0.4055141 -0.6601542
v -0.2582629 0.4055141 -0.5931267
v -0.2247692 0.2805143 -0.5930931
v -0.2247692 0.5305141 -0.5931261
v -0.1998827 0.5161461 -0.6601542
v -0.1998827 0.5161461 -0.6601542
v -0.118894 0.597134 -0.6601542
v -0.1332629 0.6220205 -0.5931261
v -0.2247692 0.5305141 -0.5931261
v -0.008262884 0.6555141 -0.5931261
v -0.008262884 0.6267775 -0.6601542
v -0.008262884 0.6267775 -0.6601542
v 0.1023694 0.597134 -0.6601542
v 0.1167371 0.6220205 -0.5931267
v -0.008262884 0.6555141 -0.5931261
v 0.2082435 0.5305141 -0.5931267
v 0.183357 0.5161461 -0.6601542
v -0.1672582 0.3074207 -0.3181981
v 0.1571058 0.3074207 -0.3181981
v 0.1571058 -0.42172 -0.3181468
v -0.1672582 -0.42172 -0.3181468
v 0.1813941 0.3074206 -0.3424861
v 0.1813941 -0.42172 -0.3424348
v -0.1672582 -0.42172 -0.5124742
v 0.1571058 -0.42172 -0.5124742
v 0.1571058 0.3074201 -0.5125251
v -0.1672582 0.3074201 -0.5125251
v 0.1813941 -0.42172 -0.4881856
v 0.1813941 0.3074201 -0.4882371
v 0.1813941 0.3074206 -0.3424861
v 0.1813941 0.3074201 -0.4882371
v 0.1813941 -0.42172 -0.4881856
v 0.1813941 -0.42172 -0.3424348
v -0.1915466 0.3074201 -0.4882371
v -0.1915466 0.3074206 -0.3424861
v -0.1915466 -0.42172 -0.3424348
v -0.1915466 -0.42172 -0.4881856
v -0.1672582 -0.42172 -0.5124742
v -0.1672582 0.3074201 -0.5125251
v -0.1915466 -0.42172 -0.3424348
v -0.1915466 0.3074206 -0.3424861
v -0.1672582 0.3074207 -0.3181981
v -0.1672582 -0.42172 -0.3181468
v -0.2958569 -0.4213621 -0.4790788
v -0.2958569 -0.6220676 -0.4790788
v -0.2624108 -0.6220676 -0.5125251
v -0.2624108 -0.4213621 -0.5125251
v -0.2958569 -0.4213621 0.6540282
v -0.2958569 -0.6220676 0.6540282
v -0.2624108 -0.3879156 -0.4790788
v -0.2624108 -0.3879156 0.6540282
v -0.2958569 -0.4213621 0.6540282
v -0.2958569 -0.4213621 -0.4790788
v -0.2624108 -0.4213621 -0.5125251
v -0.2624108 -0.4213621 -0.5125251
v 0.2624097 -0.4213621 -0.5125251
v 0.2624097 -0.3879156 -0.4790788
v -0.2624108 -0.4213621 -0.5125251
v 0.2624097 -0.3879156 -0.4790788
v -0.2624108 -0.3879156 -0.4790788
v -0.2624108 -0.3879156 0.6540282
v 0.2624097 -0.3879156 0.6540282
v 0.295857 -0.4213621 -0.4790788
v 0.295857 -0.4213621 0.6540282
v 0.2624097 -0.4213621 -0.5125251
v 0.2624097 -0.4213621 -0.5125251
v 0.2624097 -0.6220676 -0.5125251
v 0.295857 -0.6220676 -0.4790788
v 0.295857 -0.4213621 -0.4790788
v -0.2624108 -0.6220676 -0.5125251
v -0.2624108 -0.4213621 -0.5125251
v -0.2958569 -0.6220676 -0.4790788
v -0.2958569 -0.6220676 0.6540282
v -0.2624108 -0.6555141 0.6540282
v -0.2624108 -0.6555141 -0.4790788
v 0.2624097 -0.6555141 -0.4790788
v 0.2624097 -0.6555141 0.6540282
v 0.295857 -0.6220676 0.6540282
v 0.295857 -0.6220676 -0.4790788
v -0.2624108 -0.6220676 0.6874748
v 0.2624097 -0.6220676 0.6874748
v 0.2624097 -0.6220676 -0.5125251
v -0.2624108 -0.6555141 -0.4790788
v 0.2624097 -0.6555141 -0.4790788
v 0.2624097 -0.6220676 -0.5125251
v -0.2624108 -0.6220676 -0.5125251
v -0.2958569 -0.6220676 0.6540282
v -0.2958569 -0.4213621 0.6540282
v -0.2624108 -0.4213621 0.6874748
v -0.2624108 -0.6220676 0.6874748
v 0.2624097 -0.6220676 0.6874748
v 0.2624097 -0.4213621 0.6874748
v -0.2624108 -0.3879156 0.6540282
v 0.2624097 -0.3879156 0.6540282
v 0.2624097 -0.4213621 0.6874748
v -0.2624108 -0.4213621 0.6874748
v -0.2958569 -0.4213621 0.6540282
v 0.2624097 -0.6220676 0.6874748
v 0.2624097 -0.4213621 0.6874748
v 0.295857 -0.4213621 0.6540282
v 0.295857 -0.6220676 0.6540282
v 0.295857 -0.4213621 -0.4790788
v 0.295857 -0.6220676 -0.4790788
v -0.2958569 -0.6220676 -0.4790788
v -0.2624108 -0.6555141 -0.4790788
v -0.2624108 -0.6220676 -0.5125251
v 0.2624097 -0.4213621 0.6874748
v 0.2624097 -0.3879156 0.6540282
v 0.295857 -0.4213621 0.6540282
v -0.1297717 0.1896229 0.6878044
v -0.1262817 -0.460617 0.6874748
v -0.1262817 -0.460617 -0.3882463
v -0.1297717 0.189623 -0.38787
v 0.1167603 0.1896229 0.6878044
v 0.1167603 0.189623 -0.3878838
v 0.1167835 -0.460617 -0.3882463
v 0.1167835 -0.460617 0.6874748
vt 0.8652344 0.6298828
vt 0.8881836 0.6298828
vt 0.8881836 0.6152344
vt 0.8652344 0.6152344
vt 0.8652344 0.6445313
vt 0.8881836 0.6445313
vt 0.8652344 0.6591797
vt 0.8881836 0.6591797
vt 0.7446289 0.6591797
vt 0.7446289 0.6445313
vt 0.7446289 0.6298828
vt 0.7446289 0.6152344
vt 0.8652344 0.7607422
vt 0.8881836 0.7607422
vt 0.8881836 0.7460938
vt 0.8652344 0.7460938
vt 0.8881836 0.7753906
vt 0.8652344 0.7753906
vt 0.7446289 0.7607422
vt 0.7446289 0.7460938
vt 0.8652344 0.7460938
vt 0.8881836 0.7460938
vt 0.8881836 0.7314453
vt 0.8652344 0.7314453
vt 0.8881836 0.7172852
vt 0.8652344 0.7172852
vt 0.7446289 0.7460938
vt 0.7446289 0.7314453
vt 0.7446289 0.7172852
vt 0.8652344 0.7172852
vt 0.8881836 0.7172852
vt 0.8881836 0.7026367
vt 0.8652344 0.7026367
vt 0.8881836 0.6879883
vt 0.8652344 0.6879883
vt 0.7446289 0.7172852
vt 0.7446289 0.7026367
vt 0.7446289 0.6879883
vt 0.8652344 0.6879883
vt 0.8881836 0.6879883
vt 0.8881836 0.6733398
vt 0.8652344 0.6733398
vt 0.8881836 0.6591797
vt 0.8652344 0.6591797
vt 0.7446289 0.6879883
vt 0.7446289 0.6733398
vt 0.7446289 0.6591797
vt 0.8881836 0.6152344
vt 0.8881836 0.6010742
vt 0.8652344 0.6010742
vt 0.8652344 0.6152344
vt 0.9760742 0.3935547
vt 0.9716797 0.3857422
vt 0.9594727 0.3974609
vt 0.9643555 0.3813477
vt 0.9555664 0.3811035
vt 0.9477539 0.385498
vt 0.9433594 0.3935547
vt 0.9433594 0.4023438
vt 0.9477539 0.4094238
vt 0.9760742 0.4023438
vt 0.9711914 0.409668
vt 0.9638672 0.4138184
vt 0.9550781 0.4135742
vt 0.953125 0.4216309
vt 0.9663086 0.4216309
vt 0.9418945 0.4152832
vt 0.9423828 0.3798828
vt 0.9355469 0.3916016
vt 0.9355469 0.4042969
vt 0.953125 0.3730469
vt 0.9663086 0.373291
vt 0.9775391 0.4155273
vt 0.9838867 0.4042969
vt 0.9838867 0.3913574
vt 0.9775391 0.380127
vt 0.9516602 0.4294434
vt 0.9682617 0.4294434
vt 0.9663086 0.4216309
vt 0.953125 0.4216309
vt 0.9370117 0.4216309
vt 0.9418945 0.4152832
vt 0.9775391 0.4155273
vt 0.9829102 0.4213867
vt 0.9365234 0.3742676
vt 0.9282227 0.3894043
vt 0.9355469 0.3916016
vt 0.9423828 0.3798828
vt 0.9355469 0.4042969
vt 0.9277344 0.4067383
vt 0.9418945 0.4152832
vt 0.9370117 0.4216309
vt 0.9423828 0.3798828
vt 0.953125 0.3730469
vt 0.9516602 0.3657227
vt 0.9365234 0.3742676
vt 0.9692383 0.3659668
vt 0.9663086 0.373291
vt 0.9663086 0.373291
vt 0.9775391 0.380127
vt 0.9838867 0.3752441
vt 0.9692383 0.3659668
vt 0.9921875 0.3901367
vt 0.9838867 0.3913574
vt 0.9838867 0.3913574
vt 0.9838867 0.4042969
vt 0.9916992 0.4072266
vt 0.9921875 0.3901367
vt 0.9829102 0.4213867
vt 0.9775391 0.4155273
vt 0.2763672 0.3701172
vt 0.2763672 0.3337402
vt 0.194458 0.3337402
vt 0.1943359 0.3701172
vt 0.2763672 0.329834
vt 0.194458 0.329834
vt 0.194458 0.2731934
vt 0.194458 0.3095703
vt 0.2763672 0.3095703
vt 0.2763672 0.2731934
vt 0.194458 0.3134766
vt 0.2763672 0.3134766
vt 0.2763672 0.329834
vt 0.2763672 0.3134766
vt 0.194458 0.3134766
vt 0.194458 0.329834
vt 0.2763672 0.2692871
vt 0.2763672 0.2529297
vt 0.194458 0.2529297
vt 0.194458 0.2692871
vt 0.194458 0.2731934
vt 0.2763672 0.2731934
vt 0.194458 0.2529297
vt 0.2763672 0.2529297
vt 0.2763672 0.2491455
vt 0.194458 0.2490234
vt 0.9648438 0.1340332
vt 0.9423828 0.133667
vt 0.9423828 0.1390381
vt 0.9648438 0.1392822
vt 0.9663086 0.006721497
vt 0.9438477 0.006443024
vt 0.3083496 0.09393311
vt 0.4367676 0.09460449
vt 0.4377441 0.0894165
vt 0.3071289 0.08782959
vt 0.3015137 0.09356689
vt 0.3015137 0.09356689
vt 0.3024902 0.1553955
vt 0.3076172 0.1541748
vt 0.3015137 0.09356689
vt 0.3076172 0.1541748
vt 0.3083496 0.09393311
vt 0.4367676 0.09460449
vt 0.4372559 0.154541
vt 0.3063965 0.1594238
vt 0.4382324 0.15979
vt 0.3024902 0.1553955
vt 0.9638672 0.1982422
vt 0.9414063 0.197998
vt 0.9414063 0.2032471
vt 0.9638672 0.2034912
vt 0.9423828 0.1390381
vt 0.9648438 0.1392822
vt 0.1617432 0.2376709
vt 0.2919922 0.2376709
vt 0.2907715 0.2325439
vt 0.1628418 0.2325439
vt 0.1644287 0.1737061
vt 0.2922363 0.1737061
vt 0.293457 0.168457
vt 0.1633301 0.1685791
vt 0.2958984 0.2336426
vt 0.2973633 0.1724854
vt 0.1593018 0.1724854
vt 0.1628418 0.2325439
vt 0.1644287 0.1737061
vt 0.1593018 0.1724854
vt 0.1577148 0.2336426
vt 0.9130859 0.2045898
vt 0.9355469 0.2045898
vt 0.9355469 0.1992188
vt 0.9130859 0.1992188
vt 0.9130859 0.1402588
vt 0.9355469 0.1402588
vt 0.4367676 0.09460449
vt 0.4372559 0.154541
vt 0.4423828 0.1557617
vt 0.4418945 0.09344482
vt 0.4377441 0.0894165
vt 0.9130859 0.1402588
vt 0.9355469 0.1402588
vt 0.9355469 0.1350098
vt 0.9130859 0.1350098
vt 0.9355469 0.007724762
vt 0.9130859 0.007724762
vt 0.1617432 0.2376709
vt 0.1628418 0.2325439
vt 0.1577148 0.2336426
vt 0.4423828 0.1557617
vt 0.4372559 0.154541
vt 0.4382324 0.15979
vt -16.10938 16.9375
vt -17.26563 16.9375
vt -17.26563 15.125
vt -16.10938 15.125
vt -16.10938 16.9375
vt -16.10938 15.125
vt -17.26563 15.125
vt -17.26563 16.9375
vn 0.8653878 -0.5011028 -8.854674E-07
vn 0.861524 -0.4987194 -0.09515958
vn 0.495058 -0.8636055 -0.09540979
vn 0.6534554 -0.756965 -7.52533E-07
vn 1 0 -9.602394E-07
vn 0.9954516 5.480413E-06 -0.09526899
vn 0.8660269 0.4999976 -7.373242E-07
vn 0.8620873 0.4977227 -0.09527612
vn 0.8660268 0.4999976 -3.290371E-07
vn 1 0 -5.718449E-07
vn 0.8655604 -0.5008046 -5.049795E-07
vn 0.704804 -0.7094021 -3.519809E-07
vn -0.6417738 -0.766894 0
vn -0.4890333 -0.867026 -0.09545893
vn -0.8553815 -0.5091713 -0.09522214
vn -0.8592607 -0.5115377 5.645492E-07
vn -3.428322E-05 -0.9954471 -0.09531526
vn -2.569379E-06 -1 -9.635664E-07
vn -0.6913208 -0.722548 1.726271E-07
vn -0.8594364 -0.5112427 6.056696E-07
vn -0.8592607 -0.5115377 5.645492E-07
vn -0.8553815 -0.5091713 -0.09522214
vn -0.9954538 3.308545E-05 -0.09524514
vn -1 1.264078E-05 9.452227E-07
vn -0.8620842 0.4977283 -0.09527483
vn -0.8660241 0.5000022 9.452307E-07
vn -0.8594364 -0.5112427 6.056696E-07
vn -1 1.011375E-07 1.125823E-06
vn -0.8660242 0.5000022 1.125814E-06
vn -0.8660241 0.5000022 9.452307E-07
vn -0.8620842 0.4977283 -0.09527483
vn -0.4977247 0.8620862 -0.09527494
vn -0.500001 0.8660248 7.489459E-07
vn 1.918737E-07 0.995451 -0.09527429
vn -1.213061E-07 1 3.487955E-07
vn -0.8660242 0.5000022 1.125814E-06
vn -0.500001 0.8660248 8.920294E-07
vn 2.022737E-07 1 4.154311E-07
vn -1.213061E-07 1 3.487955E-07
vn 1.918737E-07 0.995451 -0.09527429
vn 0.4977229 0.8620874 -0.09527443
vn 0.4999983 0.8660264 -2.609547E-07
vn 0.8620873 0.4977227 -0.09527612
vn 0.8660269 0.4999976 -7.373242E-07
vn 2.022737E-07 1 4.154311E-07
vn 0.4999987 0.866026 0
vn 0.8660268 0.4999976 -3.290371E-07
vn 0.495058 -0.8636055 -0.09540979
vn -3.428322E-05 -0.9954471 -0.09531526
vn -2.569379E-06 -1 -9.635664E-07
vn 0.6534554 -0.756965 -7.52533E-07
vn -6.159465E-07 0.2372558 -0.9714472
vn -0.1185771 0.205385 -0.9714713
vn -2.243179E-06 0.0006016825 -0.9999999
vn -0.2052262 0.1184902 -0.9715155
vn -0.2370987 0.0001879194 -0.9714855
vn -0.2047878 -0.1209825 -0.9713008
vn -0.1167924 -0.204707 -0.9718305
vn -0.0002510744 -0.2358682 -0.9717851
vn 0.1183964 -0.2042666 -0.9717291
vn 0.1186244 0.2054627 -0.9714491
vn 0.2053687 0.1185688 -0.9714757
vn 0.2369979 3.773088E-05 -0.9715101
vn 0.2058621 -0.1177083 -0.9714759
vn 0.6580951 -0.3801017 -0.6499488
vn 0.7596269 3.99594E-05 -0.6503592
vn 0.3781787 -0.6585466 -0.6506129
vn -0.6534241 -0.388667 -0.6495959
vn -0.3731551 -0.6602646 -0.6517714
vn -0.0002976552 -0.7588865 -0.6512229
vn -0.7599549 0.0001899907 -0.6499758
vn -0.6578022 0.3797855 -0.65043
vn 0.6578072 0.3797824 -0.6504267
vn 0.3797831 0.6578063 -0.6504273
vn -8.351598E-07 0.7595688 -0.650427
vn -0.3797808 0.6578079 -0.6504269
vn 0.861524 -0.4987194 -0.09515958
vn 0.9954516 5.480413E-06 -0.09526899
vn 0.7596269 3.99594E-05 -0.6503592
vn 0.6580951 -0.3801017 -0.6499488
vn 0.495058 -0.8636055 -0.09540979
vn 0.3781787 -0.6585466 -0.6506129
vn 0.6578072 0.3797824 -0.6504267
vn 0.8620873 0.4977227 -0.09527612
vn -0.8553815 -0.5091713 -0.09522214
vn -0.4890333 -0.867026 -0.09545893
vn -0.3731551 -0.6602646 -0.6517714
vn -0.6534241 -0.388667 -0.6495959
vn -0.0002976552 -0.7588865 -0.6512229
vn -3.428322E-05 -0.9954471 -0.09531526
vn 0.3781787 -0.6585466 -0.6506129
vn 0.495058 -0.8636055 -0.09540979
vn -0.6534241 -0.388667 -0.6495959
vn -0.7599549 0.0001899907 -0.6499758
vn -0.9954538 3.308545E-05 -0.09524514
vn -0.8553815 -0.5091713 -0.09522214
vn -0.8620842 0.4977283 -0.09527483
vn -0.6578022 0.3797855 -0.65043
vn -0.6578022 0.3797855 -0.65043
vn -0.3797808 0.6578079 -0.6504269
vn -0.4977247 0.8620862 -0.09527494
vn -0.8620842 0.4977283 -0.09527483
vn 1.918737E-07 0.995451 -0.09527429
vn -8.351598E-07 0.7595688 -0.650427
vn -8.351598E-07 0.7595688 -0.650427
vn 0.3797831 0.6578063 -0.6504273
vn 0.4977229 0.8620874 -0.09527443
vn 1.918737E-07 0.995451 -0.09527429
vn 0.8620873 0.4977227 -0.09527612
vn 0.6578072 0.3797824 -0.6504267
vn 0 0.0001 1
vn 0 0.0001 1
vn 0 0.0001 1
vn 0 0.0001 1
vn 1 0 0
vn 1 0 0
vn 0 -0.0001 -1
vn 0 -0.0001 -1
vn 0 -0.0001 -1
vn 0 -0.0001 -1
vn 1 0 0
vn 1 0 0
vn 1 0 0
vn 1 0 0
vn 1 0 0
vn 1 0 0
vn -1 0 0
vn -1 0 0
vn -1 0 0
vn -1 0 0
vn 0 -0.0001 -1
vn 0 -0.0001 -1
vn -1 0 0
vn -1 0 0
vn 0 0.0001 1
vn 0 0.0001 1
vn -1 0 0
vn -1 0 0
vn 0 -0.0001 -1
vn 0 -0.0001 -1
vn -1 0 0
vn -1 0 0
vn -0.05870987 0.9978962 -0.0274997
vn -0.05870987 0.9978962 0.02749969
vn -1 0 0
vn -1 0 0
vn 0 -0.0001 -1
vn 0 -0.0001 -1
vn 0 -0.0001 -1
vn 0.05870973 0.9978962 -0.02749966
vn 0 -0.0001 -1
vn 0.05870973 0.9978962 -0.02749966
vn -0.05870987 0.9978962 -0.0274997
vn -0.05870987 0.9978962 0.02749969
vn 0.05870972 0.9978962 0.02749966
vn 1 0 0
vn 1 0 0
vn 0 -0.0001 -1
vn 0 -0.0001 -1
vn 0 -0.0001 -1
vn 1 0 0
vn 1 0 0
vn 0 -0.0001 -1
vn 0 -0.0001 -1
vn -1 0 0
vn -1 0 0
vn -0.05870987 -0.9978962 0.02749969
vn -0.05870987 -0.9978962 -0.0274997
vn 0.05870973 -0.9978962 -0.02749966
vn 0.05870972 -0.9978962 0.02749966
vn 1 0 0
vn 1 0 0
vn 0 0.0001 1
vn 0 0.0001 1
vn 0 -0.0001 -1
vn -0.05870987 -0.9978962 -0.0274997
vn 0.05870973 -0.9978962 -0.02749966
vn 0 -0.0001 -1
vn 0 -0.0001 -1
vn -1 0 0
vn -1 0 0
vn 0 0.0001 1
vn 0 0.0001 1
vn 0 0.0001 1
vn 0 0.0001 1
vn -0.05870987 0.9978962 0.02749969
vn 0.05870972 0.9978962 0.02749966
vn 0 0.0001 1
vn 0 0.0001 1
vn -1 0 0
vn 0 0.0001 1
vn 0 0.0001 1
vn 1 0 0
vn 1 0 0
vn 1 0 0
vn 1 0 0
vn -1 0 0
vn -0.05870987 -0.9978962 -0.0274997
vn 0 -0.0001 -1
vn 0 0.0001 1
vn 0.05870972 0.9978962 0.02749966
vn 1 0 0
vn -0.9999856 -0.005368128 0
vn -0.9999856 -0.005368129 0
vn -0.9999856 -0.005368129 0
vn -0.9999856 -0.005368129 0
vn 1 3.574155E-05 0
vn 1 3.574155E-05 0
vn 1 3.574156E-05 0
vn 1 3.574155E-05 0
g m_airballoon_basket_top_end_01_0
f 3/3/3 2/2/2 1/1/1
f 4/4/4 3/3/3 1/1/1
f 1/1/1 2/2/2 5/5/5
f 2/2/2 6/6/6 5/5/5
f 5/5/5 6/6/6 7/7/7
f 6/6/6 8/8/8 7/7/7
f 5/5/5 7/7/7 9/9/9
f 10/10/10 5/5/5 9/9/9
f 1/1/1 5/5/5 10/10/10
f 11/11/11 1/1/1 10/10/10
f 4/4/4 1/1/1 11/11/11
f 12/12/12 4/4/4 11/11/11
f 15/15/15 14/14/14 13/13/13
f 16/16/16 15/15/15 13/13/13
f 13/13/13 14/14/14 17/17/17
f 18/18/18 13/13/13 17/17/17
f 16/16/16 13/13/13 19/19/19
f 20/20/20 16/16/16 19/19/19
f 23/23/23 22/22/22 21/21/21
f 24/24/24 23/23/23 21/21/21
f 25/25/25 23/23/23 24/24/24
f 26/26/26 25/25/25 24/24/24
f 24/24/24 21/21/21 27/27/27
f 28/28/28 24/24/24 27/27/27
f 26/26/26 24/24/24 28/28/28
f 29/29/29 26/26/26 28/28/28
f 32/32/32 31/31/31 30/30/30
f 33/33/33 32/32/32 30/30/30
f 34/34/34 32/32/32 33/33/33
f 35/35/35 34/34/34 33/33/33
f 33/33/33 30/30/30 36/36/36
f 37/37/37 33/33/33 36/36/36
f 35/35/35 33/33/33 37/37/37
f 38/38/38 35/35/35 37/37/37
f 41/41/41 40/40/40 39/39/39
f 42/42/42 41/41/41 39/39/39
f 43/43/43 41/41/41 42/42/42
f 44/44/44 43/43/43 42/42/42
f 42/42/42 39/39/39 45/45/45
f 46/46/46 42/42/42 45/45/45
f 44/44/44 42/42/42 46/46/46
f 47/47/47 44/44/44 46/46/46
f 50/50/50 49/49/49 48/48/48
f 51/51/51 50/50/50 48/48/48
f 54/54/54 53/53/53 52/52/52
f 55/55/55 53/53/53 54/54/54
f 56/56/56 55/55/55 54/54/54
f 57/57/57 56/56/56 54/54/54
f 58/58/58 57/57/57 54/54/54
f 59/59/59 58/58/58 54/54/54
f 59/59/59 54/54/54 60/60/60
f 54/54/54 52/52/52 61/61/61
f 54/54/54 61/61/61 62/62/62
f 54/54/54 62/62/62 63/63/63
f 54/54/54 63/63/63 64/64/64
f 54/54/54 64/64/64 60/60/60
f 64/64/64 63/63/63 65/65/65
f 63/63/63 66/66/66 65/65/65
f 66/66/66 63/63/63 62/62/62
f 67/67/67 60/60/60 64/64/64
f 65/65/65 67/67/67 64/64/64
f 57/57/57 58/58/58 68/68/68
f 58/58/58 69/69/69 68/68/68
f 58/58/58 59/59/59 69/69/69
f 59/59/59 70/70/70 69/69/69
f 70/70/70 59/59/59 60/60/60
f 67/67/67 70/70/70 60/60/60
f 71/71/71 56/56/56 57/57/57
f 68/68/68 71/71/71 57/57/57
f 71/71/71 72/72/72 56/56/56
f 73/73/73 62/62/62 61/61/61
f 73/73/73 66/66/66 62/62/62
f 74/74/74 73/73/73 61/61/61
f 74/74/74 61/61/61 52/52/52
f 75/75/75 74/74/74 52/52/52
f 75/75/75 52/52/52 53/53/53
f 76/76/76 75/75/75 53/53/53
f 76/76/76 53/53/53 55/55/55
f 72/72/72 76/76/76 55/55/55
f 72/72/72 55/55/55 56/56/56
f 79/79/79 78/78/78 77/77/77
f 80/80/80 79/79/79 77/77/77
f 77/77/77 81/81/81 80/80/80
f 81/81/81 82/82/82 80/80/80
f 78/78/78 79/79/79 83/83/83
f 84/84/84 78/78/78 83/83/83
f 87/87/87 86/86/86 85/85/85
f 88/88/88 87/87/87 85/85/85
f 87/87/87 89/89/89 86/86/86
f 89/89/89 90/90/90 86/86/86
f 90/90/90 89/89/89 91/91/91
f 92/92/92 90/90/90 91/91/91
f 95/95/95 94/94/94 93/93/93
f 96/96/96 95/95/95 93/93/93
f 95/95/95 97/97/97 94/94/94
f 97/97/97 98/98/98 94/94/94
f 101/101/101 100/100/100 99/99/99
f 102/102/102 101/101/101 99/99/99
f 101/101/101 103/103/103 100/100/100
f 103/103/103 104/104/104 100/100/100
f 107/107/107 106/106/106 105/105/105
f 108/108/108 107/107/107 105/105/105
f 107/107/107 109/109/109 106/106/106
f 109/109/109 110/110/110 106/106/106
f 113/113/113 112/112/112 111/111/111
f 114/114/114 113/113/113 111/111/111
f 115/115/115 112/112/112 113/113/113
f 116/116/116 115/115/115 113/113/113
f 119/119/119 118/118/118 117/117/117
f 120/120/120 119/119/119 117/117/117
f 121/121/121 118/118/118 119/119/119
f 122/122/122 121/121/121 119/119/119
f 125/125/125 124/124/124 123/123/123
f 126/126/126 125/125/125 123/123/123
f 129/129/129 128/128/128 127/127/127
f 130/130/130 129/129/129 127/127/127
f 131/131/131 130/130/130 127/127/127
f 132/132/132 131/131/131 127/127/127
f 135/135/135 134/134/134 133/133/133
f 136/136/136 135/135/135 133/133/133
f 139/139/139 138/138/138 137/137/137
f 140/140/140 139/139/139 137/137/137
f 141/141/141 137/137/137 138/138/138
f 142/142/142 141/141/141 138/138/138
f 145/145/145 144/144/144 143/143/143
f 146/146/146 145/145/145 143/143/143
f 143/143/143 147/147/147 146/146/146
f 150/150/150 149/149/149 148/148/148
f 153/153/153 152/152/152 151/151/151
f 152/152/152 153/153/153 154/154/154
f 155/155/155 152/152/152 154/154/154
f 152/152/152 155/155/155 156/156/156
f 155/155/155 157/157/157 156/156/156
f 152/152/152 156/156/156 158/158/158
f 161/161/161 160/160/160 159/159/159
f 162/162/162 161/161/161 159/159/159
f 160/160/160 163/163/163 159/159/159
f 163/163/163 164/164/164 159/159/159
f 167/167/167 166/166/166 165/165/165
f 168/168/168 167/167/167 165/165/165
f 167/167/167 168/168/168 169/169/169
f 170/170/170 167/167/167 169/169/169
f 171/171/171 170/170/170 169/169/169
f 172/172/172 171/171/171 169/169/169
f 167/167/167 170/170/170 173/173/173
f 166/166/166 167/167/167 173/173/173
f 170/170/170 174/174/174 173/173/173
f 171/171/171 174/174/174 170/170/170
f 175/175/175 172/172/172 169/169/169
f 178/178/178 177/177/177 176/176/176
f 179/179/179 178/178/178 176/176/176
f 182/182/182 181/181/181 180/180/180
f 183/183/183 182/182/182 180/180/180
f 182/182/182 183/183/183 184/184/184
f 185/185/185 182/182/182 184/184/184
f 188/188/188 187/187/187 186/186/186
f 189/189/189 188/188/188 186/186/186
f 190/190/190 189/189/189 186/186/186
f 193/193/193 192/192/192 191/191/191
f 194/194/194 193/193/193 191/191/191
f 195/195/195 193/193/193 194/194/194
f 196/196/196 195/195/195 194/194/194
f 199/199/199 198/198/198 197/197/197
f 202/202/202 201/201/201 200/200/200
g m_airballoon_basket_top_end_01_1
f 205/205/205 204/204/204 203/203/203
f 206/206/206 205/205/205 203/203/203
f 209/209/209 208/208/208 207/207/207
f 210/210/210 209/209/209 207/207/207
