g m_airlock_outerdoor_01
v 0.3105725 0.9976458 0.3510138
v 0.2865015 1.020009 0.3510138
v 0.3105725 0.9976458 -0.09204768
v 0.2865015 1.020009 -0.09204768
v -0.2865039 1.020009 0.3510138
v -0.2865039 1.020009 -0.09204768
v -0.2865039 0.9976458 -0.1149505
v 0.2865015 0.9976458 -0.1149505
v -0.3105737 0.9976464 0.3510138
v -0.3105737 0.9976458 -0.09204768
v 0.2192126 0.9583727 -0.1149505
v -0.2192151 0.9583727 -0.1149505
v -0.195144 0.9360101 -0.09088068
v 0.1951416 0.9360101 -0.09088068
v 0.1951416 0.9360101 0.3326911
v -0.195144 0.9360101 0.3326911
v 0.3105725 0.9976458 -0.09204768
v 0.2865015 0.9976458 -0.1149505
v 0.2865015 0.3092083 -0.1149505
v 0.3105725 0.2901019 -0.08799495
v 0.3105725 0.2931091 0.3510138
v 0.3105725 0.9976458 0.3510138
v 0.3105725 -0.4337917 0.3510138
v 0.3105725 -0.4372718 -0.3195672
v 0.3105725 -1.020009 0.3510138
v 0.3105725 -1.020009 -0.3269427
v 0.2865015 0.2776891 -0.1211029
v 0.2192126 0.2776891 -0.1211029
v 0.2192126 0.3092083 -0.1149505
v 0.2865015 -0.4498914 -0.351015
v 0.2865015 -0.4183721 -0.3460296
v 0.2192126 -0.4498914 -0.3510125
v 0.2192126 -0.4183719 -0.3460296
v 0.2865015 -1.020009 -0.351015
v 0.2192126 -1.020009 -0.3510125
v 0.2192126 0.9583727 -0.1149505
v -0.2865039 0.9976458 -0.1149505
v -0.3105737 0.9976458 -0.09204768
v -0.2865039 0.3092089 -0.1149505
v -0.3105737 0.2901022 -0.08799495
v -0.3105737 0.2931091 0.3510138
v -0.3105737 0.9976464 0.3510138
v -0.3105737 -0.4337919 0.3510138
v -0.3105737 -0.4372717 -0.3195672
v -0.3105737 -1.020009 0.3510138
v -0.3105737 -1.020009 -0.3269427
v -0.2865039 0.2776897 -0.1211029
v -0.2192151 0.3092089 -0.1149505
v -0.2192151 0.2776897 -0.1211029
v -0.2865039 -0.4183719 -0.3460296
v -0.2865039 -0.4498914 -0.351015
v -0.2192151 -0.4183719 -0.3460296
v -0.2192151 -0.4498914 -0.351015
v -0.2865039 -1.020009 -0.351015
v -0.2192151 -1.020009 -0.351015
v -0.2192151 0.9583727 -0.1149505
v -0.195144 -1.020009 0.3326911
v -0.195144 -0.4337917 0.3326911
v -0.195144 -0.4372396 -0.3195672
v -0.1866345 -1.020009 -0.3389788
v -0.195144 0.2901147 -0.08682796
v -0.195144 0.2931091 0.3326911
v -0.195144 0.9360101 -0.09088068
v -0.195144 0.9360101 0.3326911
v -0.2192151 0.2776897 -0.1211029
v -0.2192151 0.3092089 -0.1149505
v -0.2192151 -0.4183719 -0.3460296
v -0.2192151 -0.4498914 -0.351015
v -0.2192151 0.9583727 -0.1149505
v -0.2192151 -1.020009 -0.351015
v 0.1951416 0.2931091 0.3326911
v 0.1951416 0.9360101 -0.09088068
v 0.1951416 0.9360101 0.3326911
v 0.1951416 0.2901147 -0.08799495
v 0.1951416 -0.4337917 0.3326911
v 0.1951416 -0.4372394 -0.3195672
v 0.1951416 -1.020009 0.3326911
v 0.1866333 -1.020009 -0.3389788
v 0.2192126 0.3092083 -0.1149505
v 0.2192126 0.2776891 -0.1211029
v 0.2192126 0.9583727 -0.1149505
v 0.2192126 -0.4183719 -0.3460296
v 0.2192126 -0.4498914 -0.3510125
v 0.2192126 -1.020009 -0.3510125
vt 0.958195 0.566755
vt 0.955865 0.566376
vt 0.9535 0.596992
vt 0.951641 0.598082
vt 0.911704 0.56581
vt 0.912916 0.596826
vt 0.912447 0.599037
vt 0.953237 0.599587
vt 0.90931 0.566094
vt 0.910717 0.597435
vt 0.948169 0.60212
vt 0.91718 0.601971
vt 0.918875 0.604317
vt 0.946439 0.604417
vt 0.946439 0.634172
vt 0.918937 0.634179
vt 0.765264 0.459103
vt 0.765375 0.456789
vt 0.716676 0.453649
vt 0.715235 0.456203
vt 0.715016 0.487477
vt 0.76438 0.489656
vt 0.664003 0.489541
vt 0.662923 0.443101
vt 0.621724 0.489656
vt 0.621716 0.440625
vt 0.714466 0.453268
vt 0.715268 0.448583
vt 0.717451 0.448957
vt 0.662064 0.440295
vt 0.664304 0.440635
vt 0.662725 0.435577
vt 0.664983 0.435938
vt 0.62183 0.438194
vt 0.622166 0.433408
vt 0.762804 0.451968
vt 0.326423 0.35479
vt 0.326331 0.352467
vt 0.277802 0.356356
vt 0.276476 0.353784
vt 0.277078 0.321963
vt 0.326767 0.321584
vt 0.225141 0.318718
vt 0.223754 0.365149
vt 0.183823 0.318718
vt 0.182961 0.366618
vt 0.27559 0.356686
vt 0.278384 0.361056
vt 0.276207 0.361411
vt 0.225105 0.367642
vt 0.222853 0.367905
vt 0.225619 0.37238
vt 0.22334 0.372585
vt 0.182941 0.369045
vt 0.183246 0.373773
vt 0.323947 0.359667
vt 0.687619 0.741713
vt 0.687619 0.78314
vt 0.733562 0.782639
vt 0.735092 0.741521
vt 0.718242 0.834438
vt 0.688485 0.834666
vt 0.717925 0.880058
vt 0.688158 0.879902
vt 0.721229 0.833642
vt 0.720816 0.835861
vt 0.736038 0.784062
vt 0.736381 0.781829
vt 0.720294 0.881685
vt 0.737546 0.741597
vt 0.500094 0.353917
vt 0.454885 0.324024
vt 0.454683 0.353917
vt 0.500595 0.324096
vt 0.55117 0.355322
vt 0.552483 0.309452
vt 0.592715 0.356248
vt 0.593672 0.308643
vt 0.499199 0.32156
vt 0.501428 0.321189
vt 0.453286 0.321636
vt 0.551082 0.306969
vt 0.553319 0.306636
vt 0.593621 0.306187
vn 1 0 0
vn 0.03742801 0.9992993 0
vn 1 0 0
vn 0.03620299 0.9982539 -0.04667399
vn -0.03742801 0.9992993 0
vn -0.03620299 0.9982539 -0.04667399
vn 0 0 -1
vn 0 0 -1
vn -1 0 0
vn -1 0 0
vn 0 0 -1
vn 0 0 -1
vn 0 -0.9974202 -0.07178502
vn 0 -0.9974202 -0.07178502
vn 0 -1 0
vn 0 -1 0
vn 1 0 0
vn 0 0 -1
vn 0 0 -1
vn 1 0 0
vn 1 0 0
vn 1 0 0
vn 1 0 0
vn 1 0 0
vn 1 0 0
vn 1 0 0
vn 0 0.3074401 -0.9515674
vn 0 0.3074401 -0.9515674
vn 0 0 -1
vn 0 0 -1
vn 0 0.3074401 -0.9515674
vn 0 0 -1
vn 0 0.3074401 -0.9515674
vn 0 0 -1
vn 0 0 -1
vn 0 0 -1
vn 0 0 -1
vn -1 0 0
vn 0 0 -1
vn -1 0 0
vn -1 0 0
vn -1 0 0
vn -1 0 0
vn -1 0 0
vn -1 0 0
vn -1 0 0
vn 0 0.3074401 -0.9515674
vn 0 0 -1
vn 0 0.3074401 -0.9515674
vn 0 0.3074401 -0.9515674
vn 0 0 -1
vn 0 0.3074401 -0.9515674
vn 0 0 -1
vn 0 0 -1
vn 0 0 -1
vn 0 0 -1
vn 0.9999537 0.007171998 0.006408999
vn 0.9999887 0.003561999 0.003183999
vn 0.9994073 0.010308 -0.03284401
vn 0.9993395 0.007875997 -0.03547299
vn 0.999572 0.004762 -0.028864
vn 1 1E-06 1E-06
vn 0.9972812 -0.000229 -0.07368901
vn 1 1E-06 1E-06
vn 0 0.3074401 -0.9515674
vn 0 0 -1
vn 0 0.3074401 -0.9515674
vn 0 0 -1
vn 0 0 -1
vn 0 0 -1
vn -1 0 0
vn -0.9972868 -0.000164 -0.07361399
vn -1 0 0
vn -0.9995758 0.004753999 -0.02873199
vn -0.9999887 0.003559999 0.003180999
vn -0.9994086 0.01028199 -0.03281299
vn -0.9999537 0.007171998 0.006408999
vn -0.9993396 0.007875998 -0.03547199
vn 0 0 -1
vn 0 0.3074401 -0.9515674
vn 0 0 -1
vn 0 0.3074401 -0.9515674
vn 0 0 -1
vn 0 0 -1
g m_airlock_outerdoor_01_0
f 3/3/3 2/2/2 1/1/1
f 3/3/3 4/4/4 2/2/2
f 2/2/2 4/4/4 5/5/5
f 4/4/4 6/6/6 5/5/5
f 4/4/4 7/7/7 6/6/6
f 7/7/7 4/4/4 8/8/8
f 4/4/4 3/3/3 8/8/8
f 6/6/6 9/9/9 5/5/5
f 6/6/6 10/10/10 9/9/9
f 10/10/10 6/6/6 7/7/7
f 8/8/8 11/11/11 7/7/7
f 11/11/11 12/12/12 7/7/7
f 13/13/13 12/12/12 11/11/11
f 11/11/11 14/14/14 13/13/13
f 13/13/13 14/14/14 15/15/15
f 16/16/16 13/13/13 15/15/15
f 19/19/19 18/18/18 17/17/17
f 17/17/17 20/20/20 19/19/19
f 21/21/21 20/20/20 17/17/17
f 17/17/17 22/22/22 21/21/21
f 23/23/23 20/20/20 21/21/21
f 20/20/20 23/23/23 24/24/24
f 25/25/25 24/24/24 23/23/23
f 26/26/26 24/24/24 25/25/25
f 19/19/19 20/20/20 27/27/27
f 24/24/24 27/27/27 20/20/20
f 19/19/19 27/27/27 28/28/28
f 28/28/28 29/29/29 19/19/19
f 26/26/26 30/30/30 24/24/24
f 30/30/30 31/31/31 24/24/24
f 24/24/24 31/31/31 27/27/27
f 31/31/31 30/30/30 32/32/32
f 32/32/32 33/33/33 31/31/31
f 27/27/27 31/31/31 33/33/33
f 33/33/33 28/28/28 27/27/27
f 30/30/30 26/26/26 34/34/34
f 30/30/30 34/34/34 35/35/35
f 35/35/35 32/32/32 30/30/30
f 36/36/36 19/19/19 29/29/29
f 36/36/36 18/18/18 19/19/19
f 39/39/39 38/38/38 37/37/37
f 38/38/38 39/39/39 40/40/40
f 38/38/38 40/40/40 41/41/41
f 38/38/38 41/41/41 42/42/42
f 43/43/43 41/41/41 40/40/40
f 40/40/40 44/44/44 43/43/43
f 45/45/45 43/43/43 44/44/44
f 44/44/44 46/46/46 45/45/45
f 47/47/47 40/40/40 39/39/39
f 44/44/44 40/40/40 47/47/47
f 48/48/48 47/47/47 39/39/39
f 47/47/47 48/48/48 49/49/49
f 47/47/47 50/50/50 44/44/44
f 50/50/50 47/47/47 49/49/49
f 50/50/50 51/51/51 44/44/44
f 46/46/46 44/44/44 51/51/51
f 52/52/52 51/51/51 50/50/50
f 49/49/49 52/52/52 50/50/50
f 51/51/51 52/52/52 53/53/53
f 51/51/51 54/54/54 46/46/46
f 54/54/54 51/51/51 53/53/53
f 53/53/53 55/55/55 54/54/54
f 56/56/56 48/48/48 39/39/39
f 39/39/39 37/37/37 56/56/56
f 59/59/59 58/58/58 57/57/57
f 57/57/57 60/60/60 59/59/59
f 58/58/58 59/59/59 61/61/61
f 61/61/61 62/62/62 58/58/58
f 62/62/62 61/61/61 63/63/63
f 63/63/63 64/64/64 62/62/62
f 59/59/59 65/65/65 61/61/61
f 66/66/66 61/61/61 65/65/65
f 63/63/63 61/61/61 66/66/66
f 65/65/65 59/59/59 67/67/67
f 67/67/67 59/59/59 68/68/68
f 68/68/68 59/59/59 60/60/60
f 66/66/66 69/69/69 63/63/63
f 68/68/68 60/60/60 70/70/70
f 73/73/73 72/72/72 71/71/71
f 72/72/72 74/74/74 71/71/71
f 71/71/71 74/74/74 75/75/75
f 74/74/74 76/76/76 75/75/75
f 75/75/75 76/76/76 77/77/77
f 76/76/76 78/78/78 77/77/77
f 72/72/72 79/79/79 74/74/74
f 80/80/80 74/74/74 79/79/79
f 76/76/76 74/74/74 80/80/80
f 72/72/72 81/81/81 79/79/79
f 80/80/80 82/82/82 76/76/76
f 83/83/83 76/76/76 82/82/82
f 78/78/78 76/76/76 83/83/83
f 83/83/83 84/84/84 78/78/78
