g m_airlock_innerdoor_02
v -0.143269 -0.3939782 0.03560735
v 0.1432666 -0.3939782 0.03560735
v 0.1432666 -0.3431129 0.02418645
v -0.143269 -0.3431129 0.02418645
v 0.1828149 0.9444692 0.2854486
v 0.1445239 0.9800416 0.2854486
v 0.1828149 0.9444692 -0.2471612
v 0.1445239 0.9800416 -0.2471612
v -0.1445288 0.9800416 -0.2471612
v -0.1445288 0.9444692 -0.2854498
v 0.1445239 0.9444692 -0.2854498
v -0.1445288 0.9800416 0.2854486
v -0.1828149 0.9444692 0.2854486
v -0.1828149 0.9444692 -0.2471612
v 0.1432666 0.3428368 -0.2854498
v 0.1828149 0.3233269 -0.2491827
v 0.1828149 0.9444692 -0.2471612
v 0.1445239 0.9444692 -0.2854498
v 0.1828149 0.9444692 0.2854486
v 0.1828149 0.3162971 0.2854486
v 0.1828149 -0.3610868 0.06828801
v 0.1828149 -0.3674384 0.2854486
v 0.1828149 -0.9800416 0.07389592
v 0.1828149 -0.9800416 0.2854486
v 0.1432666 0.2919713 -0.2740289
v 0.1432666 -0.3431129 0.02418645
v 0.1432666 -0.3939782 0.03560735
v 0.1445239 -0.9800416 0.03560735
v -0.1828149 0.3233269 -0.2491827
v -0.143269 0.3428368 -0.2854498
v -0.1828149 0.9444692 -0.2471612
v -0.1445288 0.9444692 -0.2854498
v -0.1828149 0.9444692 0.2854486
v -0.1828149 0.3162971 0.2854486
v -0.1828149 -0.3610868 0.06828801
v -0.1828149 -0.3674384 0.2854486
v -0.1828149 -0.9800416 0.07389592
v -0.1828149 -0.9800416 0.2854486
v -0.143269 0.2919713 -0.2740289
v -0.143269 -0.3939782 0.03560735
v -0.1445288 -0.9800416 0.03560735
v -0.143269 -0.3431129 0.02418645
v -0.143269 0.3428368 -0.2854498
v -0.143269 0.2919713 -0.2740289
v 0.1432666 0.3428368 -0.2854498
v 0.1432666 0.2919713 -0.2740289
v 0.1445239 0.9444692 -0.2854498
v -0.1445288 0.9444692 -0.2854498
v 0.1432666 -0.3431129 0.02418645
v -0.143269 -0.3431129 0.02418645
v 0.1445239 -0.9800416 0.03560735
v 0.1432666 -0.3939782 0.03560735
v -0.143269 -0.3939782 0.03560735
v -0.1445288 -0.9800416 0.03560735
vt 0.123218 0.496683
vt 0.102973 0.496683
vt 0.102973 0.500366
vt 0.123218 0.500366
vt 0.050279 0.165051
vt 0.050862 0.161369
vt 0.013058 0.163492
vt 0.014018 0.160109
vt 0.013618 0.140734
vt 0.01 0.140031
vt 0.01036 0.160634
vt 0.050658 0.138627
vt 0.050279 0.13473
vt 0.012604 0.137252
vt 0.914369 0.134563
vt 0.910539 0.13333
vt 0.910614 0.176981
vt 0.914462 0.177018
vt 0.872966 0.176342
vt 0.873127 0.131915
vt 0.891237 0.083619
vt 0.875825 0.083018
vt 0.890462 0.039907
vt 0.875657 0.039907
vt 0.913684 0.130916
vt 0.895487 0.084712
vt 0.894776 0.081163
vt 0.894278 0.039817
vt 0.912493 0.747615
vt 0.91631 0.746372
vt 0.912625 0.703865
vt 0.91645 0.703924
vt 0.874574 0.704546
vt 0.875198 0.749559
vt 0.893015 0.797044
vt 0.87763 0.79757
vt 0.891954 0.840802
vt 0.877069 0.840802
vt 0.915636 0.750025
vt 0.896544 0.799533
vt 0.895769 0.840913
vt 0.897274 0.795994
vt 0.123218 0.553622
vt 0.123218 0.54994
vt 0.102973 0.553622
vt 0.102973 0.54994
vt 0.102884 0.596131
vt 0.123306 0.596131
vt 0.102973 0.500366
vt 0.123218 0.500366
vt 0.102884 0.455274
vt 0.102973 0.496683
vt 0.123218 0.496683
vt 0.123306 0.455274
vn 0 -0.2190778 -0.9757074
vn 0 -0.2190778 -0.9757074
vn 0 -0.2190778 -0.9757074
vn 0 -0.2190778 -0.9757074
vn 1 0 0
vn 0.108035 0.9941471 0
vn 1 0 0
vn 0.103624 0.9929619 -0.05734599
vn -0.103624 0.9929619 -0.05734599
vn -0.111305 0.05533902 -0.9922443
vn 0.111305 0.05533902 -0.9922443
vn -0.108035 0.9941471 0
vn -1 0 0
vn -1 0 0
vn 0.1306809 -0.01548499 -0.9913036
vn 1 0 0
vn 1 0 0
vn 0.111305 0.05533902 -0.9922443
vn 1 0 0
vn 1 0 0
vn 1 0 0
vn 1 0 0
vn 0.9886863 -0.0005540002 -0.1499971
vn 1 1E-06 0
vn 0.1230609 -0.4093977 -0.9040185
vn 0.1354501 -0.4088731 -0.9024832
vn 0.1371109 -0.016295 -0.9904217
vn 0.11104 -0.0004499999 -0.9938159
vn -1 0 0
vn -0.1306809 -0.01548599 -0.9913036
vn -1 0 0
vn -0.111305 0.05533902 -0.9922443
vn -1 0 0
vn -1 0 0
vn -1 0 0
vn -1 0 0
vn -0.9886863 -0.0005540002 -0.1499971
vn -1 1E-06 0
vn -0.123061 -0.4093969 -0.9040189
vn -0.137114 -0.016295 -0.9904212
vn -0.11104 -0.0004499999 -0.9938159
vn -0.135452 -0.408873 -0.902483
vn -0.1306809 -0.01548599 -0.9913036
vn -0.123061 -0.4093969 -0.9040189
vn 0.1306809 -0.01548499 -0.9913036
vn 0.1230609 -0.4093977 -0.9040185
vn 0.111305 0.05533902 -0.9922443
vn -0.111305 0.05533902 -0.9922443
vn 0.1354501 -0.4088731 -0.9024832
vn -0.135452 -0.408873 -0.902483
vn 0.11104 -0.0004499999 -0.9938159
vn 0.1371109 -0.016295 -0.9904217
vn -0.137114 -0.016295 -0.9904212
vn -0.11104 -0.0004499999 -0.9938159
g m_airlock_innerdoor_02_0
f 3/3/3 2/2/2 1/1/1
f 1/1/1 4/4/4 3/3/3
f 7/7/7 6/6/6 5/5/5
f 7/7/7 8/8/8 6/6/6
f 8/8/8 9/9/9 6/6/6
f 8/8/8 10/10/10 9/9/9
f 10/10/10 8/8/8 11/11/11
f 8/8/8 7/7/7 11/11/11
f 12/12/12 6/6/6 9/9/9
f 9/9/9 13/13/13 12/12/12
f 9/9/9 14/14/14 13/13/13
f 9/9/9 10/10/10 14/14/14
f 17/17/17 16/16/16 15/15/15
f 15/15/15 18/18/18 17/17/17
f 16/16/16 17/17/17 19/19/19
f 19/19/19 20/20/20 16/16/16
f 21/21/21 16/16/16 20/20/20
f 20/20/20 22/22/22 21/21/21
f 23/23/23 21/21/21 22/22/22
f 22/22/22 24/24/24 23/23/23
f 15/15/15 16/16/16 25/25/25
f 25/25/25 16/16/16 21/21/21
f 21/21/21 26/26/26 25/25/25
f 23/23/23 27/27/27 21/21/21
f 21/21/21 27/27/27 26/26/26
f 23/23/23 28/28/28 27/27/27
f 31/31/31 30/30/30 29/29/29
f 31/31/31 32/32/32 30/30/30
f 31/31/31 29/29/29 33/33/33
f 33/33/33 29/29/29 34/34/34
f 35/35/35 34/34/34 29/29/29
f 34/34/34 35/35/35 36/36/36
f 37/37/37 36/36/36 35/35/35
f 36/36/36 37/37/37 38/38/38
f 39/39/39 29/29/29 30/30/30
f 35/35/35 29/29/29 39/39/39
f 35/35/35 40/40/40 37/37/37
f 40/40/40 41/41/41 37/37/37
f 39/39/39 42/42/42 35/35/35
f 40/40/40 35/35/35 42/42/42
f 45/45/45 44/44/44 43/43/43
f 44/44/44 45/45/45 46/46/46
f 47/47/47 45/45/45 43/43/43
f 43/43/43 48/48/48 47/47/47
f 44/44/44 46/46/46 49/49/49
f 44/44/44 49/49/49 50/50/50
f 53/53/53 52/52/52 51/51/51
f 51/51/51 54/54/54 53/53/53
