g m_airballoon_bridge_middle_01
v 0.6009655 -0.1485703 0.3670115
v 0.06660394 -0.1485703 0.3670115
v 0.06660394 -0.1750101 0.3934506
v 0.6009655 -0.1750101 0.3934506
v -0.5984644 -0.1750101 0.3934525
v -0.5984644 -0.1485699 0.3670115
v 0.6009655 0.1750103 0.392515
v 0.07732904 0.1750103 0.3914774
v 0.06660394 0.1474368 0.3662235
v 0.6009655 0.1485709 0.3662162
v -0.5984644 0.1485001 0.3662162
v -0.5984644 0.1750103 0.3925864
v -0.5984644 -0.1485699 0.3670115
v 0.06660394 -0.1485703 0.3670115
v 0.6009655 -0.1485703 0.3670115
v 0.6009655 -0.1750101 0.6907559
v 0.06660394 -0.1750101 0.6896878
v 0.07734003 -0.1496836 0.7171963
v 0.6009655 -0.1485703 0.7171963
v -0.5984644 -0.1485705 0.7171963
v -0.5984644 -0.1750101 0.6907559
v -0.5984644 -0.1750101 0.3934525
v 0.06660394 -0.1750101 0.3934506
v 0.6009655 -0.1750101 0.3934506
v 0.6009655 0.1485705 0.7171963
v 0.3090417 0.1499714 0.7171963
v 0.3090453 0.1750103 0.6921567
v 0.6009655 0.1750103 0.6907559
v 0.6009655 -0.1485703 0.7171963
v 0.07734003 -0.1496836 0.7171963
v 0.1674059 0.05611076 0.7171963
v 0.177882 0.1044286 0.700264
v 0.2594982 0.1579581 0.7001376
v 0.177882 0.1577807 0.6468875
v 0.1210363 0.1492525 0.7171963
v 0.1538317 0.1541422 0.6963248
v 0.177882 0.1044286 0.700264
v -0.5984644 0.14857 0.7171963
v -0.5984644 -0.1485705 0.7171963
v 0.1210339 0.1750103 0.6914365
v -0.5984644 0.1750103 0.6907553
v 0.1210339 0.1750103 0.6914365
v 0.1210363 0.1492525 0.7171963
v -0.5984644 0.14857 0.7171963
v 0.1674035 0.1750103 0.5982493
v 0.177882 0.1577807 0.6468875
v 0.1538317 0.1541422 0.6963248
v -0.5984644 0.1750103 0.3925864
v 0.07732904 0.1750103 0.3914774
v 0.6009655 0.1750103 0.392515
v 0.6009655 0.1750103 0.6907559
v 0.3090453 0.1750103 0.6921567
v 0.2594982 0.1579581 0.7001376
v 0.177882 0.1577807 0.6468875
v 0.177882 0.1044286 0.700264
v 0.1538317 0.1541422 0.6963248
v 0.177882 0.1577807 0.6468875
v 0.271809 0.07160331 -0.4968814
v 0.5683092 0.05761314 -0.4846365
v 0.5260363 0.02565788 0.5025638
v 0.2295361 0.03964806 0.4903201
v 0.5918615 0.0317585 -0.4844674
v 0.5495886 -0.0001966095 0.5027365
v 0.2220007 -0.1249706 0.4846689
v 0.5185022 -0.1389605 0.4969126
v 0.5607751 -0.1070054 -0.4902889
v 0.2642761 -0.09301537 -0.5025332
v 0.2407238 -0.06716057 -0.5027047
v 0.1984484 -0.09911583 0.4844974
v 0.5443139 -0.115435 0.4987796
v 0.5865881 -0.08347999 -0.4884225
v 0.5918615 0.0317585 -0.4844674
v 0.5865881 -0.08347999 -0.4884225
v 0.5443139 -0.115435 0.4987796
v 0.5495886 -0.0001966095 0.5027365
v 0.2407238 -0.06716057 -0.5027047
v 0.2459973 0.04807777 -0.4987484
v 0.2037243 0.01612236 0.4884519
v 0.1984484 -0.09911583 0.4844974
v 0.271809 0.07160331 -0.4968814
v 0.2295361 0.03964806 0.4903201
v -0.008278865 0.1048318 -0.5136794
v 0.2785034 0.1088247 -0.4362344
v 0.02125605 0.07935508 0.5178775
v -0.2655262 0.07536201 0.4404325
v 0.3028906 0.08443977 -0.4304122
v 0.04564325 0.05497001 0.5237015
v -0.2621058 -0.08943748 0.4362656
v 0.02467646 -0.08544456 0.5137107
v 0.2819238 -0.05597496 -0.4404025
v -0.004858455 -0.05996788 -0.5178475
v -0.02924444 -0.03558296 -0.5236697
v -0.286493 -0.06505256 0.4304428
v 0.04803827 -0.06039482 0.5207834
v 0.3052844 -0.03092522 -0.433331
v 0.3028906 0.08443977 -0.4304122
v 0.3052844 -0.03092522 -0.433331
v 0.04803827 -0.06039482 0.5207834
v 0.04564325 0.05497001 0.5237015
v -0.02924444 -0.03558296 -0.5236697
v -0.03163946 0.07978188 -0.5207516
v -0.2888856 0.05031227 0.4333615
v -0.286493 -0.06505256 0.4304428
v -0.008278865 0.1048318 -0.5136794
v -0.2655262 0.07536201 0.4404325
v 0.6009655 -0.1750101 -0.3925155
v -0.1962964 -0.1750101 -0.3925155
v -0.1962964 -0.1485703 -0.3660751
v 0.6009655 -0.1485703 -0.3660763
v -0.5982068 -0.1485691 -0.3660763
v -0.5986267 -0.1750072 -0.3925174
v -0.1962964 -0.1750103 -0.6898685
v -0.5982556 -0.1750103 -0.6898569
v -0.2009949 -0.1486175 -0.7163547
v 0.6009655 -0.1485703 -0.7162601
v 0.6009655 -0.1750101 -0.6898202
v -0.5982117 -0.148606 -0.7163321
v 0.6010363 0.1486413 -0.366871
v -0.1962964 0.1486411 -0.366871
v -0.1962964 0.17501 -0.3933804
v 0.6010363 0.1750103 -0.3933816
v -0.5986255 0.1750068 -0.3933828
v -0.5982068 0.1486393 -0.366871
v -0.5982068 -0.1485691 -0.3660763
v -0.1962964 -0.1485703 -0.3660751
v 0.6009655 -0.1485703 -0.3660763
v 0.6008947 0.1750103 -0.6906845
v -0.1426551 0.1750103 -0.6913925
v -0.1426563 0.1492066 -0.7171963
v 0.6008947 0.1484995 -0.7170547
v -0.1846827 0.1750103 -0.5977255
v -0.1962964 0.1576589 -0.6470114
v -0.1748536 0.1537263 -0.6959103
v 0.6010363 0.1750103 -0.3933816
v -0.1962964 0.17501 -0.3933804
v -0.5986255 0.1750068 -0.3933828
v -0.5982556 0.17501 -0.6907205
v -0.3289002 0.1750103 -0.6921518
v -0.2789625 0.1579681 -0.7001492
v -0.1962964 0.1576589 -0.6470114
v -0.3289197 0.1499601 -0.7171438
v -0.5982105 0.1485351 -0.7171255
v -0.3289197 0.1499601 -0.7171438
v -0.3289002 0.1750103 -0.6921518
v -0.5982556 0.17501 -0.6907205
v -0.5982117 -0.148606 -0.7163321
v -0.2009949 -0.1486175 -0.7163547
v -0.1846461 0.0555114 -0.7169955
v -0.1962964 0.1045594 -0.700134
v -0.2789625 0.1579681 -0.7001492
v -0.1962964 0.1576589 -0.6470114
v -0.1426563 0.1492066 -0.7171963
v -0.1748536 0.1537263 -0.6959103
v -0.1962964 0.1045594 -0.700134
v 0.6008947 0.1484995 -0.7170547
v 0.6009655 -0.1485703 -0.7162601
v -0.1426551 0.1750103 -0.6913925
v -0.1962964 0.1576589 -0.6470114
v -0.1962964 0.1045594 -0.700134
v -0.1748536 0.1537263 -0.6959103
v -0.5087171 0.1168935 -0.5014974
v -0.2126929 0.1305265 -0.4804562
v -0.2815479 0.1040008 0.5054105
v -0.577572 0.09036811 0.484368
v -0.6010352 0.06453728 0.4820346
v -0.5321802 0.09106285 -0.5038314
v -0.1868726 0.1069656 -0.4792868
v -0.2557276 0.08044014 0.5065793
v -0.5697132 -0.07428688 0.4804874
v -0.273689 -0.06065422 0.501528
v -0.2048353 -0.03412834 -0.4843374
v -0.5008569 -0.04776161 -0.5053787
v -0.2502259 -0.03482338 0.503862
v -0.1813709 -0.008297806 -0.4820034
v -0.1868726 0.1069656 -0.4792868
v -0.1813709 -0.008297806 -0.4820034
v -0.2502259 -0.03482338 0.503862
v -0.2557276 0.08044014 0.5065793
v -0.5266785 -0.02420036 -0.5065475
v -0.5321802 0.09106285 -0.5038314
v -0.6010352 0.06453728 0.4820346
v -0.5955335 -0.05072578 0.479318
v -0.5697132 -0.07428688 0.4804874
v -0.5008569 -0.04776161 -0.5053787
vt 0.01000214 0.9819336
vt 0.1330566 0.9848633
vt 0.1333008 0.9765625
vt 0.01030731 0.9731445
vt 0.286377 0.9814453
vt 0.2861328 0.9902344
vt 0.01266479 0.7573242
vt 0.1333008 0.7553711
vt 0.1356201 0.746582
vt 0.01237488 0.7490234
vt 0.2890625 0.7431641
vt 0.2897949 0.7514648
vt 0.2866211 0.6743164
vt 0.1334229 0.6782227
vt 0.01000214 0.6811523
vt 0.01230621 0.90625
vt 0.135498 0.9082031
vt 0.1333008 0.8994141
vt 0.01237488 0.8984375
vt 0.2895508 0.9033203
vt 0.2890625 0.9121094
vt 0.286377 0.9814453
vt 0.1333008 0.9765625
vt 0.01030731 0.9731445
vt 0.01261902 0.8320313
vt 0.07995605 0.831543
vt 0.07989502 0.8237305
vt 0.01264954 0.8237305
vt 0.01237488 0.8984375
vt 0.1333008 0.8994141
vt 0.1135864 0.8500977
vt 0.1118164 0.8374023
vt 0.09155273 0.8276367
vt 0.1118774 0.8183594
vt 0.1281738 0.8320313
vt 0.1199951 0.828125
vt 0.1118164 0.8374023
vt 0.293457 0.8320313
vt 0.2895508 0.9033203
vt 0.1279297 0.8242188
vt 0.293457 0.8232422
vt 0.1279297 0.8242188
vt 0.1281738 0.8320313
vt 0.293457 0.8320313
vt 0.1140137 0.8056641
vt 0.1118774 0.8183594
vt 0.1199951 0.828125
vt 0.2897949 0.7514648
vt 0.1333008 0.7553711
vt 0.01266479 0.7573242
vt 0.01264954 0.8237305
vt 0.07989502 0.8237305
vt 0.09155273 0.8276367
vt 0.1118774 0.8183594
vt 0.1118164 0.8374023
vt 0.1199951 0.828125
vt 0.1118774 0.8183594
vt 0.7006836 0.7558594
vt 0.769043 0.7558594
vt 0.769043 0.527832
vt 0.7006836 0.527832
vt 0.7773438 0.7558594
vt 0.7773438 0.527832
vt 0.6577148 0.527832
vt 0.5893555 0.527832
vt 0.5893555 0.7558594
vt 0.6577148 0.7558594
vt 0.6660156 0.7558594
vt 0.6660156 0.527832
vt 0.5810547 0.527832
vt 0.5810547 0.7558594
vt 0.7773438 0.7558594
vt 0.8041992 0.7558594
vt 0.8041992 0.527832
vt 0.7773438 0.527832
vt 0.6660156 0.7558594
vt 0.6923828 0.7558594
vt 0.6923828 0.527832
vt 0.6660156 0.527832
vt 0.7006836 0.7558594
vt 0.7006836 0.527832
vt 0.7036133 0.8867188
vt 0.7036133 0.9550781
vt 0.9321289 0.9550781
vt 0.9321289 0.8867188
vt 0.7036133 0.9633789
vt 0.9321289 0.9633789
vt 0.9321289 0.84375
vt 0.9321289 0.7753906
vt 0.7036133 0.7753906
vt 0.7036133 0.84375
vt 0.7036133 0.8520508
vt 0.9321289 0.8520508
vt 0.9321289 0.7670898
vt 0.7036133 0.7670898
vt 0.7036133 0.9633789
vt 0.7036133 0.9902344
vt 0.9321289 0.9902344
vt 0.9321289 0.9633789
vt 0.7036133 0.8520508
vt 0.7036133 0.878418
vt 0.9321289 0.878418
vt 0.9321289 0.8520508
vt 0.7036133 0.8867188
vt 0.9321289 0.8867188
vt 0.2971191 0.4384766
vt 0.480957 0.4436035
vt 0.4812012 0.4350586
vt 0.2973633 0.4296875
vt 0.5742188 0.4370117
vt 0.5737305 0.4455566
vt 0.4787598 0.512207
vt 0.5717773 0.5126953
vt 0.4797363 0.5205078
vt 0.2946777 0.5170898
vt 0.2949219 0.5083008
vt 0.5717773 0.5209961
vt 0.2949219 0.6772461
vt 0.4790039 0.6708984
vt 0.4787598 0.6625977
vt 0.2944336 0.668457
vt 0.5717773 0.6606445
vt 0.5717773 0.6689453
vt 0.5742188 0.7368164
vt 0.4814453 0.7397461
vt 0.2973633 0.7460938
vt 0.2910156 0.597168
vt 0.4616699 0.5952148
vt 0.4614258 0.5869141
vt 0.2912598 0.5883789
vt 0.4750977 0.6137695
vt 0.4772949 0.6005859
vt 0.4697266 0.5908203
vt 0.2944336 0.668457
vt 0.4787598 0.6625977
vt 0.5717773 0.6606445
vt 0.5717773 0.5947266
vt 0.5097656 0.5952148
vt 0.4980469 0.5913086
vt 0.4772949 0.6005859
vt 0.5097656 0.5874023
vt 0.5717773 0.5864258
vt 0.5097656 0.5874023
vt 0.5097656 0.5952148
vt 0.5717773 0.5947266
vt 0.5717773 0.5209961
vt 0.4797363 0.5205078
vt 0.4753418 0.5683594
vt 0.4772949 0.581543
vt 0.4980469 0.5913086
vt 0.4772949 0.6005859
vt 0.4614258 0.5869141
vt 0.4697266 0.5908203
vt 0.4772949 0.581543
vt 0.2912598 0.5883789
vt 0.2946777 0.5170898
vt 0.4616699 0.5952148
vt 0.4772949 0.6005859
vt 0.4772949 0.581543
vt 0.4697266 0.5908203
vt 0.8505859 0.5200195
vt 0.9194336 0.5200195
vt 0.9194336 0.291748
vt 0.8505859 0.291748
vt 0.8427734 0.291748
vt 0.8427734 0.5200195
vt 0.9272461 0.5200195
vt 0.9272461 0.291748
vt 0.8076172 0.291748
vt 0.7392578 0.291748
vt 0.7392578 0.5200195
vt 0.8076172 0.5200195
vt 0.730957 0.291748
vt 0.730957 0.5200195
vt 0.9272461 0.5200195
vt 0.9541016 0.5200195
vt 0.9541016 0.291748
vt 0.9272461 0.291748
vt 0.815918 0.5200195
vt 0.8427734 0.5200195
vt 0.8427734 0.291748
vt 0.815918 0.291748
vt 0.8076172 0.291748
vt 0.8076172 0.5200195
vn 0 -0.00269999 -0.9999964
vn 0 -0.00269999 -0.9999964
vn 0 -1 0
vn 0 -1 0
vn 0 -1 0
vn 0 -0.00269999 -0.9999964
vn 0 1 0
vn 0 1 0
vn 0 -0.00269999 -0.9999964
vn 0 -0.00269999 -0.9999964
vn 0 -0.00269999 -0.9999964
vn 0 1 0
vn 0 -0.00269999 -0.9999964
vn 0 -0.00269999 -0.9999964
vn 0 -0.00269999 -0.9999964
vn 0 -1 0
vn 0 -1 0
vn 0 0 1
vn 0 0 1
vn 0 0 1
vn 0 -1 0
vn 0 -1 0
vn 0 -1 0
vn 0 -1 0
vn 0 0 1
vn 0 0 1
vn 0 1 0
vn 0 1 0
vn 0 0 1
vn 0 0 1
vn 0 0 1
vn -0.2933678 0.4464095 0.845372
vn -0.2776892 0.6796008 0.6789929
vn -0.2945011 0.8446108 0.4471039
vn 0 0 1
vn 0.5559107 0.5882552 0.587298
vn 0.5135735 0.2777475 0.8118488
vn 0 0 1
vn 0 0 1
vn 0 1 0
vn 0 1 0
vn 0 1 0
vn 0 0 1
vn 0 0 1
vn 0 1 0
vn 0.5161345 0.8102292 0.2777298
vn 0.5559107 0.5882552 0.587298
vn 0 1 0
vn 0 1 0
vn 0 1 0
vn 0 1 0
vn 0 1 0
vn -0.2776892 0.6796008 0.6789929
vn -0.2945011 0.8446108 0.4471039
vn 0.5135735 0.2777475 0.8118488
vn 0.5559107 0.5882552 0.587298
vn 0.5161345 0.8102292 0.2777298
vn 0.04569845 0.9983663 0.03429884
vn 0.04569845 0.9983663 0.03429884
vn 0.04569845 0.9983663 0.03429884
vn 0.04569845 0.9983663 0.03429884
vn 0.99804 -0.04710189 0.04120165
vn 0.99804 -0.04710189 0.04120165
vn -0.1220274 -0.9918244 -0.03733057
vn 0.03091403 -0.9990407 -0.03101491
vn 0.03091406 -0.9990407 -0.0310149
vn -0.1220268 -0.9918246 -0.03733055
vn -0.99804 0.04710189 -0.04120165
vn -0.99804 0.04710189 -0.04120165
vn 0.99804 -0.04710189 0.04120165
vn 0.99804 -0.04710189 0.04120165
vn 0.99804 -0.04710189 0.04120165
vn 0.99804 -0.04710189 0.04120165
vn 0.99804 -0.04710189 0.04120165
vn 0.99804 -0.04710189 0.04120165
vn -0.99804 0.04710189 -0.04120165
vn -0.99804 0.04710189 -0.04120165
vn -0.99804 0.04710189 -0.04120165
vn -0.99804 0.04710189 -0.04120165
vn 0.04569845 0.9983663 0.03429884
vn 0.04569845 0.9983663 0.03429884
vn -0.02069929 0.9994656 0.02529913
vn -0.02069929 0.9994656 0.02529913
vn -0.02069929 0.9994656 0.02529913
vn -0.02069929 0.9994656 0.02529913
vn 0.9653251 0.01340035 0.2607067
vn 0.9653251 0.01340035 0.2607067
vn -0.0532837 -0.9975569 -0.04517786
vn 0.09464689 -0.9954972 -0.005229204
vn 0.09464743 -0.9954971 -0.005229058
vn -0.05328486 -0.9975568 -0.04517817
vn -0.9653251 -0.01340035 -0.2607067
vn -0.9653251 -0.01340035 -0.2607067
vn 0.9653251 0.01340035 0.2607067
vn 0.9653251 0.01340035 0.2607067
vn 0.9653251 0.01340035 0.2607067
vn 0.9653251 0.01340035 0.2607067
vn 0.9653251 0.01340035 0.2607067
vn 0.9653251 0.01340035 0.2607067
vn -0.9653251 -0.01340035 -0.2607067
vn -0.9653251 -0.01340035 -0.2607067
vn -0.9653251 -0.01340035 -0.2607067
vn -0.9653251 -0.01340035 -0.2607067
vn -0.02069929 0.9994656 0.02529913
vn -0.02069929 0.9994656 0.02529913
vn 0 -1 0
vn 0 -1 0
vn 0 0 1
vn 0 0 1
vn 0 0 1
vn 0 -1 0
vn 0 -1 0
vn 0 -1 0
vn 0 -0.00269999 -0.9999964
vn 0 -0.00269999 -0.9999964
vn 0 -1 0
vn 0 -0.00269999 -0.9999964
vn 0 0 1
vn 0 0 1
vn 0 1 0
vn 0 1 0
vn 0 1 0
vn 0 0 1
vn 0 0 1
vn 0 0 1
vn 0 0 1
vn 0 1 0
vn 0 1 0
vn 0 -0.00269999 -0.9999964
vn 0 -0.00269999 -0.9999964
vn 0 1 0
vn -0.5307585 0.8064107 -0.2607627
vn -0.5778843 0.5768959 -0.5772702
vn 0 1 0
vn 0 1 0
vn 0 1 0
vn 0 1 0
vn 0 1 0
vn 0.274772 0.6792054 -0.6805735
vn 0.2917545 0.8450243 -0.4481218
vn 0 -0.00269999 -0.9999964
vn 0 -0.00269999 -0.9999964
vn 0 -0.00269999 -0.9999964
vn 0 1 0
vn 0 1 0
vn 0 -0.00269999 -0.9999964
vn 0 -0.00269999 -0.9999964
vn 0 -0.00269999 -0.9999964
vn 0.2898384 0.4454259 -0.8471065
vn 0.274772 0.6792054 -0.6805735
vn 0.2917545 0.8450243 -0.4481218
vn 0 -0.00269999 -0.9999964
vn -0.5778843 0.5768959 -0.5772702
vn -0.5271129 0.2591889 -0.8093041
vn 0 -0.00269999 -0.9999964
vn 0 -0.00269999 -0.9999964
vn 0 1 0
vn -0.5307585 0.8064107 -0.2607627
vn -0.5271129 0.2591889 -0.8093041
vn -0.5778843 0.5768959 -0.5772702
vn -0.04769929 0.9985852 0.02349965
vn -0.04769929 0.9985852 0.02349965
vn -0.04769929 0.9985852 0.02349965
vn -0.04769929 0.9985852 0.02349965
vn -0.9964336 -0.04590154 -0.07080239
vn -0.9964336 -0.04590154 -0.07080239
vn 0.9729911 0.2187139 0.07384016
vn 0.9729909 0.2187153 0.07384019
vn -0.02882843 -0.9991666 -0.02889686
vn 0.1238701 -0.9921343 -0.01804303
vn 0.1238696 -0.9921345 -0.01804307
vn -0.02882718 -0.9991666 -0.02889678
vn 0.9895579 -0.1283121 0.06565996
vn 0.9895578 -0.1283132 0.06565992
vn 0.9729911 0.2187139 0.07384016
vn 0.9895578 -0.1283132 0.06565992
vn 0.9895579 -0.1283121 0.06565996
vn 0.9729909 0.2187153 0.07384019
vn -0.9964336 -0.04590154 -0.07080239
vn -0.9964336 -0.04590154 -0.07080239
vn -0.9964336 -0.04590154 -0.07080239
vn -0.9964336 -0.04590154 -0.07080239
vn -0.02882843 -0.9991666 -0.02889686
vn -0.02882718 -0.9991666 -0.02889678
g m_airballoon_bridge_middle_01_0
f 3/3/3 2/2/2 1/1/1
f 4/4/4 3/3/3 1/1/1
f 2/2/2 3/3/3 5/5/5
f 6/6/6 2/2/2 5/5/5
f 9/9/9 8/8/8 7/7/7
f 10/10/10 9/9/9 7/7/7
f 9/9/9 11/11/11 8/8/8
f 11/11/11 12/12/12 8/8/8
f 11/11/11 9/9/9 13/13/13
f 9/9/9 14/14/14 13/13/13
f 9/9/9 10/10/10 14/14/14
f 10/10/10 15/15/15 14/14/14
f 18/18/18 17/17/17 16/16/16
f 19/19/19 18/18/18 16/16/16
f 18/18/18 20/20/20 17/17/17
f 20/20/20 21/21/21 17/17/17
f 17/17/17 21/21/21 22/22/22
f 23/23/23 17/17/17 22/22/22
f 24/24/24 16/16/16 17/17/17
f 23/23/23 24/24/24 17/17/17
f 27/27/27 26/26/26 25/25/25
f 28/28/28 27/27/27 25/25/25
f 29/29/29 25/25/25 26/26/26
f 26/26/26 30/30/30 29/29/29
f 26/26/26 31/31/31 30/30/30
f 32/32/32 31/31/31 26/26/26
f 33/33/33 32/32/32 26/26/26
f 26/26/26 27/27/27 33/33/33
f 33/33/33 34/34/34 32/32/32
f 30/30/30 31/31/31 35/35/35
f 35/35/35 31/31/31 36/36/36
f 31/31/31 37/37/37 36/36/36
f 35/35/35 38/38/38 30/30/30
f 38/38/38 39/39/39 30/30/30
f 40/40/40 35/35/35 36/36/36
f 43/43/43 42/42/42 41/41/41
f 44/44/44 43/43/43 41/41/41
f 41/41/41 42/42/42 45/45/45
f 46/46/46 45/45/45 42/42/42
f 47/47/47 46/46/46 42/42/42
f 48/48/48 41/41/41 45/45/45
f 45/45/45 49/49/49 48/48/48
f 50/50/50 49/49/49 45/45/45
f 45/45/45 51/51/51 50/50/50
f 45/45/45 52/52/52 51/51/51
f 52/52/52 45/45/45 53/53/53
f 45/45/45 54/54/54 53/53/53
f 57/57/57 56/56/56 55/55/55
f 60/60/60 59/59/59 58/58/58
f 61/61/61 60/60/60 58/58/58
f 62/62/62 59/59/59 60/60/60
f 63/63/63 62/62/62 60/60/60
f 66/66/66 65/65/65 64/64/64
f 67/67/67 66/66/66 64/64/64
f 68/68/68 67/67/67 64/64/64
f 69/69/69 68/68/68 64/64/64
f 65/65/65 66/66/66 70/70/70
f 66/66/66 71/71/71 70/70/70
f 74/74/74 73/73/73 72/72/72
f 75/75/75 74/74/74 72/72/72
f 78/78/78 77/77/77 76/76/76
f 79/79/79 78/78/78 76/76/76
f 80/80/80 77/77/77 78/78/78
f 81/81/81 80/80/80 78/78/78
f 84/84/84 83/83/83 82/82/82
f 85/85/85 84/84/84 82/82/82
f 86/86/86 83/83/83 84/84/84
f 87/87/87 86/86/86 84/84/84
f 90/90/90 89/89/89 88/88/88
f 91/91/91 90/90/90 88/88/88
f 92/92/92 91/91/91 88/88/88
f 93/93/93 92/92/92 88/88/88
f 89/89/89 90/90/90 94/94/94
f 90/90/90 95/95/95 94/94/94
f 98/98/98 97/97/97 96/96/96
f 99/99/99 98/98/98 96/96/96
f 102/102/102 101/101/101 100/100/100
f 103/103/103 102/102/102 100/100/100
f 104/104/104 101/101/101 102/102/102
f 105/105/105 104/104/104 102/102/102
f 108/108/108 107/107/107 106/106/106
f 109/109/109 108/108/108 106/106/106
f 107/107/107 108/108/108 110/110/110
f 111/111/111 107/107/107 110/110/110
f 112/112/112 107/107/107 111/111/111
f 113/113/113 112/112/112 111/111/111
f 112/112/112 113/113/113 114/114/114
f 112/112/112 114/114/114 115/115/115
f 116/116/116 112/112/112 115/115/115
f 116/116/116 106/106/106 107/107/107
f 112/112/112 116/116/116 107/107/107
f 113/113/113 117/117/117 114/114/114
f 120/120/120 119/119/119 118/118/118
f 121/121/121 120/120/120 118/118/118
f 120/120/120 122/122/122 119/119/119
f 122/122/122 123/123/123 119/119/119
f 123/123/123 124/124/124 119/119/119
f 124/124/124 125/125/125 119/119/119
f 126/126/126 118/118/118 119/119/119
f 125/125/125 126/126/126 119/119/119
f 129/129/129 128/128/128 127/127/127
f 130/130/130 129/129/129 127/127/127
f 127/127/127 128/128/128 131/131/131
f 132/132/132 131/131/131 128/128/128
f 133/133/133 132/132/132 128/128/128
f 131/131/131 134/134/134 127/127/127
f 131/131/131 135/135/135 134/134/134
f 136/136/136 135/135/135 131/131/131
f 137/137/137 136/136/136 131/131/131
f 131/131/131 138/138/138 137/137/137
f 138/138/138 131/131/131 139/139/139
f 131/131/131 140/140/140 139/139/139
f 141/141/141 138/138/138 139/139/139
f 144/144/144 143/143/143 142/142/142
f 145/145/145 144/144/144 142/142/142
f 146/146/146 142/142/142 143/143/143
f 147/147/147 146/146/146 143/143/143
f 143/143/143 148/148/148 147/147/147
f 149/149/149 148/148/148 143/143/143
f 150/150/150 149/149/149 143/143/143
f 149/149/149 150/150/150 151/151/151
f 147/147/147 148/148/148 152/152/152
f 152/152/152 148/148/148 153/153/153
f 148/148/148 154/154/154 153/153/153
f 147/147/147 152/152/152 155/155/155
f 155/155/155 156/156/156 147/147/147
f 157/157/157 152/152/152 153/153/153
f 160/160/160 159/159/159 158/158/158
f 163/163/163 162/162/162 161/161/161
f 164/164/164 163/163/163 161/161/161
f 164/164/164 161/161/161 165/165/165
f 161/161/161 166/166/166 165/165/165
f 167/167/167 162/162/162 163/163/163
f 168/168/168 167/167/167 163/163/163
f 171/171/171 170/170/170 169/169/169
f 172/172/172 171/171/171 169/169/169
f 170/170/170 171/171/171 173/173/173
f 171/171/171 174/174/174 173/173/173
f 177/177/177 176/176/176 175/175/175
f 178/178/178 177/177/177 175/175/175
f 181/181/181 180/180/180 179/179/179
f 182/182/182 181/181/181 179/179/179
f 182/182/182 179/179/179 183/183/183
f 179/179/179 184/184/184 183/183/183
