g m_dlc2_airbed_collider_01
v 2.582805 -0.2804395 -0.8392041
v 2.262222 0.02333924 -0.7350391
v 1.92436 0.02333924 -1.39813
v 2.197065 -0.2804395 -1.59626
v 1.39813 0.02333924 -1.924359
v 1.596262 -0.2804395 -2.197064
v 0.7350415 0.02333924 -2.262219
v 0.8392065 -0.2804395 -2.582803
v 2.441406E-06 0.02333924 -2.378638
v 2.441406E-06 -0.2804395 -2.71572
v -0.7350391 0.02333924 -2.262219
v -0.8392041 -0.2804395 -2.582803
v -1.398127 0.02333924 -1.924358
v -1.59626 -0.2804395 -2.197063
v -1.924355 0.02333924 -1.39813
v -2.197063 -0.2804395 -1.59626
v -2.262217 0.02333924 -0.7350391
v -2.5828 -0.2804395 -0.8392041
v -2.378635 0.02333924 0
v -2.715718 -0.2804395 0
v -2.262217 0.02333924 0.7350391
v -2.5828 -0.2804395 0.8392041
v -1.924355 0.02333924 1.398127
v -2.197063 -0.2804395 1.59626
v -1.398127 0.02333924 1.924358
v -1.596257 -0.2804395 2.197063
v -0.7350391 0.02333924 2.262219
v -0.8392041 -0.2804395 2.582803
v 2.441406E-06 0.02333924 2.378638
v 2.441406E-06 -0.2804395 2.71572
v 0.7350415 0.02333924 2.262219
v 0.8392041 -0.2804395 2.582803
v 1.39813 0.02333924 1.924358
v 1.59626 -0.2804395 2.197063
v 1.92436 0.02333924 1.398127
v 2.197063 -0.2804395 1.59626
v 2.262219 0.02333924 0.7350391
v 2.582803 -0.2804395 0.8392041
v 2.378638 0.02333924 0
v 2.71572 -0.2804395 0
v 2.262222 0.02333924 -0.7350391
v 2.582805 -0.2804395 -0.8392041
v 2.197065 -0.2804395 -1.59626
v 2.441406E-06 -0.2804395 0
v 2.582805 -0.2804395 -0.8392041
v 1.596262 -0.2804395 -2.197064
v 0.8392065 -0.2804395 -2.582803
v 2.441406E-06 -0.2804395 -2.71572
v -0.8392041 -0.2804395 -2.582803
v -1.59626 -0.2804395 -2.197063
v -2.197063 -0.2804395 -1.59626
v -2.5828 -0.2804395 -0.8392041
v -2.715718 -0.2804395 0
v -2.5828 -0.2804395 0.8392041
v -2.197063 -0.2804395 1.59626
v -1.596257 -0.2804395 2.197063
v -0.8392041 -0.2804395 2.582803
v 2.441406E-06 -0.2804395 2.71572
v 0.8392041 -0.2804395 2.582803
v 1.59626 -0.2804395 2.197063
v 2.197063 -0.2804395 1.59626
v 2.582803 -0.2804395 0.8392041
v 2.71572 -0.2804395 0
v 2.262222 0.02333924 -0.7350391
v 2.441406E-06 0.02333924 0
v 1.92436 0.02333924 -1.39813
v 1.39813 0.02333924 -1.924359
v 0.7350415 0.02333924 -2.262219
v 2.441406E-06 0.02333924 -2.378638
v -0.7350391 0.02333924 -2.262219
v -1.398127 0.02333924 -1.924358
v -1.924355 0.02333924 -1.39813
v -2.262217 0.02333924 -0.7350391
v -2.378635 0.02333924 0
v -2.262217 0.02333924 0.7350391
v -1.924355 0.02333924 1.398127
v -1.398127 0.02333924 1.924358
v -0.7350391 0.02333924 2.262219
v 2.441406E-06 0.02333924 2.378638
v 0.7350415 0.02333924 2.262219
v 1.39813 0.02333924 1.924358
v 1.92436 0.02333924 1.398127
v 2.262219 0.02333924 0.7350391
v 2.378638 0.02333924 0
vt 0.375 0.3125
vt 0.375 0.6884398
vt 0.3875 0.6884398
vt 0.3875 0.3125
vt 0.4 0.6884398
vt 0.4 0.3125
vt 0.4125 0.6884398
vt 0.4125 0.3125
vt 0.425 0.6884398
vt 0.425 0.3125
vt 0.4374999 0.6884398
vt 0.4374999 0.3125
vt 0.4499999 0.6884398
vt 0.4499999 0.3125
vt 0.4624999 0.6884398
vt 0.4624999 0.3125
vt 0.4749999 0.6884398
vt 0.4749999 0.3125
vt 0.4874999 0.6884398
vt 0.4874999 0.3125
vt 0.4999999 0.6884398
vt 0.4999999 0.3125
vt 0.5124999 0.6884398
vt 0.5124999 0.3125
vt 0.5249999 0.6884398
vt 0.5249999 0.3125
vt 0.5374998 0.6884398
vt 0.5374998 0.3125
vt 0.5499998 0.6884398
vt 0.5499998 0.3125
vt 0.5624998 0.6884398
vt 0.5624998 0.3125
vt 0.5749998 0.6884398
vt 0.5749998 0.3125
vt 0.5874998 0.6884398
vt 0.5874998 0.3125
vt 0.5999998 0.6884398
vt 0.5999998 0.3125
vt 0.6124998 0.6884398
vt 0.6124998 0.3125
vt 0.6249998 0.6884398
vt 0.6249998 0.3125
vt 0.626409 0.0644085
vt 0.5 0.15
vt 0.6486027 0.1079661
vt 0.5918415 0.02984102
vt 0.5482839 0.007647336
vt 0.5 -7.450581E-08
vt 0.4517161 0.00764735
vt 0.4081585 0.02984105
vt 0.3735911 0.06440853
vt 0.3513974 0.1079661
vt 0.34375 0.15625
vt 0.3513974 0.2045339
vt 0.3735911 0.2480915
vt 0.4081585 0.2826589
vt 0.4517161 0.3048526
vt 0.5 0.3125
vt 0.5482839 0.3048526
vt 0.5918415 0.2826589
vt 0.6264089 0.2480915
vt 0.6486026 0.2045339
vt 0.65625 0.15625
vt 0.6486026 0.8920339
vt 0.5 0.8375
vt 0.6264089 0.9355915
vt 0.5918415 0.9701589
vt 0.5482839 0.9923526
vt 0.5 1
vt 0.4517161 0.9923526
vt 0.4081585 0.9701589
vt 0.3735911 0.9355915
vt 0.3513974 0.8920339
vt 0.34375 0.84375
vt 0.3513974 0.7954661
vt 0.3735911 0.7519085
vt 0.4081585 0.7173411
vt 0.4517161 0.6951473
vt 0.5 0.6874999
vt 0.5482839 0.6951473
vt 0.5918415 0.717341
vt 0.626409 0.7519085
vt 0.6486027 0.7954661
vt 0.65625 0.84375
vn 0.6366923 0.7428502 -0.2068729
vn 0.6366925 0.7428502 -0.2068723
vn 0.5416013 0.7428515 -0.3934968
vn 0.5416013 0.7428516 -0.3934966
vn 0.393497 0.7428505 -0.5416024
vn 0.393497 0.7428505 -0.5416024
vn 0.2068737 0.7428508 -0.6366915
vn 0.2068741 0.7428508 -0.6366913
vn 0 0.7428511 -0.6694567
vn 0 0.7428511 -0.6694567
vn -0.2068736 0.7428511 -0.636691
vn -0.2068739 0.7428511 -0.6366909
vn -0.3934978 0.7428505 -0.5416018
vn -0.3934976 0.7428505 -0.5416019
vn -0.5416027 0.7428501 -0.3934976
vn -0.541603 0.74285 -0.3934972
vn -0.6366927 0.7428497 -0.2068736
vn -0.6366927 0.7428498 -0.2068735
vn -0.6694584 0.7428496 0
vn -0.6694584 0.7428496 -1.037653E-07
vn -0.6366929 0.7428495 0.2068741
vn -0.6366929 0.7428495 0.2068739
vn -0.5416037 0.742849 0.3934981
vn -0.5416037 0.7428491 0.393498
vn -0.3934977 0.7428503 0.5416023
vn -0.3934973 0.7428503 0.5416026
vn -0.2068733 0.7428506 0.6366917
vn -0.2068737 0.7428506 0.6366916
vn 0 0.7428499 0.669458
vn 0 0.7428498 0.6694581
vn 0.206874 0.74285 0.6366922
vn 0.2068738 0.74285 0.6366922
vn 0.3934975 0.7428502 0.5416026
vn 0.3934973 0.7428502 0.5416026
vn 0.5416026 0.7428501 0.3934976
vn 0.5416024 0.7428502 0.3934978
vn 0.6366935 0.7428488 0.2068742
vn 0.6366937 0.7428489 0.2068741
vn 0.6694605 0.7428477 6.840064E-07
vn 0.6694605 0.7428477 5.72499E-07
vn 0.6366925 0.7428502 -0.2068723
vn 0.6366923 0.7428502 -0.2068729
vn 0 -1 0
vn 0 -1 0
vn 0 -1 0
vn 0 -1 0
vn 0 -1 0
vn 0 -1 0
vn 0 -1 0
vn 0 -1 0
vn 0 -1 0
vn 0 -1 0
vn 0 -1 0
vn 0 -1 0
vn 0 -1 0
vn 0 -1 0
vn 0 -1 0
vn 0 -1 0
vn 0 -1 0
vn 0 -1 0
vn 0 -1 0
vn 0 -1 0
vn 0 -1 0
vn 0 1 0
vn 0 1 0
vn 0 1 0
vn 0 1 0
vn 0 1 0
vn 0 1 0
vn 0 1 0
vn 0 1 0
vn 0 1 0
vn 0 1 0
vn 0 1 0
vn 0 1 0
vn 0 1 0
vn 0 1 0
vn 0 1 0
vn 0 1 0
vn 0 1 0
vn 0 1 0
vn 0 1 0
vn 0 1 0
vn 0 1 0
g m_dlc2_airbed_collider_01_0
f 3/3/3 2/2/2 1/1/1
f 4/4/4 3/3/3 1/1/1
f 5/5/5 3/3/3 4/4/4
f 6/6/6 5/5/5 4/4/4
f 7/7/7 5/5/5 6/6/6
f 8/8/8 7/7/7 6/6/6
f 9/9/9 7/7/7 8/8/8
f 10/10/10 9/9/9 8/8/8
f 11/11/11 9/9/9 10/10/10
f 12/12/12 11/11/11 10/10/10
f 13/13/13 11/11/11 12/12/12
f 14/14/14 13/13/13 12/12/12
f 15/15/15 13/13/13 14/14/14
f 16/16/16 15/15/15 14/14/14
f 17/17/17 15/15/15 16/16/16
f 18/18/18 17/17/17 16/16/16
f 19/19/19 17/17/17 18/18/18
f 20/20/20 19/19/19 18/18/18
f 21/21/21 19/19/19 20/20/20
f 22/22/22 21/21/21 20/20/20
f 23/23/23 21/21/21 22/22/22
f 24/24/24 23/23/23 22/22/22
f 25/25/25 23/23/23 24/24/24
f 26/26/26 25/25/25 24/24/24
f 27/27/27 25/25/25 26/26/26
f 28/28/28 27/27/27 26/26/26
f 29/29/29 27/27/27 28/28/28
f 30/30/30 29/29/29 28/28/28
f 31/31/31 29/29/29 30/30/30
f 32/32/32 31/31/31 30/30/30
f 33/33/33 31/31/31 32/32/32
f 34/34/34 33/33/33 32/32/32
f 35/35/35 33/33/33 34/34/34
f 36/36/36 35/35/35 34/34/34
f 37/37/37 35/35/35 36/36/36
f 38/38/38 37/37/37 36/36/36
f 39/39/39 37/37/37 38/38/38
f 40/40/40 39/39/39 38/38/38
f 41/41/41 39/39/39 40/40/40
f 42/42/42 41/41/41 40/40/40
f 45/45/45 44/44/44 43/43/43
f 43/43/43 44/44/44 46/46/46
f 46/46/46 44/44/44 47/47/47
f 47/47/47 44/44/44 48/48/48
f 48/48/48 44/44/44 49/49/49
f 49/49/49 44/44/44 50/50/50
f 50/50/50 44/44/44 51/51/51
f 51/51/51 44/44/44 52/52/52
f 52/52/52 44/44/44 53/53/53
f 53/53/53 44/44/44 54/54/54
f 54/54/54 44/44/44 55/55/55
f 55/55/55 44/44/44 56/56/56
f 56/56/56 44/44/44 57/57/57
f 57/57/57 44/44/44 58/58/58
f 58/58/58 44/44/44 59/59/59
f 59/59/59 44/44/44 60/60/60
f 60/60/60 44/44/44 61/61/61
f 61/61/61 44/44/44 62/62/62
f 62/62/62 44/44/44 63/63/63
f 63/63/63 44/44/44 45/45/45
f 66/66/66 65/65/65 64/64/64
f 67/67/67 65/65/65 66/66/66
f 68/68/68 65/65/65 67/67/67
f 69/69/69 65/65/65 68/68/68
f 70/70/70 65/65/65 69/69/69
f 71/71/71 65/65/65 70/70/70
f 72/72/72 65/65/65 71/71/71
f 73/73/73 65/65/65 72/72/72
f 74/74/74 65/65/65 73/73/73
f 75/75/75 65/65/65 74/74/74
f 76/76/76 65/65/65 75/75/75
f 77/77/77 65/65/65 76/76/76
f 78/78/78 65/65/65 77/77/77
f 79/79/79 65/65/65 78/78/78
f 80/80/80 65/65/65 79/79/79
f 81/81/81 65/65/65 80/80/80
f 82/82/82 65/65/65 81/81/81
f 83/83/83 65/65/65 82/82/82
f 84/84/84 65/65/65 83/83/83
f 64/64/64 65/65/65 84/84/84
