g m_sp_airlock_main_01
v -0.3236353 -0.07729467 -1.465546
v -0.3236353 2.111288 -1.465546
v 0.3236353 2.111288 -1.465546
v 0.3236353 -0.07729467 -1.465546
v 0.5677789 2.29927 -0.8060303
v 0.516867 2.350182 -0.8060303
v 0.5156482 2.350182 -1.468446
v 0.5677789 2.301191 -1.484065
v 0.5156482 2.315439 -1.533469
v 0.5677789 1.960765 -1.662884
v 0.516867 1.985858 -1.70735
v 0.5677789 1.658882 -1.804331
v 0.516867 1.675894 -1.852583
v 0.516867 1.312099 -1.941527
v 0.5677789 1.303884 -1.891124
v 0.5677789 0.9535993 -1.920391
v 0.516867 0.9535993 -1.971477
v 0.516867 0.5950999 -1.941527
v 0.5677789 0.6034127 -1.891133
v 0.5677789 0.2541801 -1.804327
v 0.516867 0.2372591 -1.852583
v 0.516867 -0.07729467 -1.706505
v 0.5677789 -0.07729452 -1.653479
v 0.5677789 -0.07729467 -0.8060315
v 0.5156482 2.350182 -1.468446
v -0.5156488 2.350182 -1.468446
v -0.5156488 2.315439 -1.533469
v 0.5156482 2.315439 -1.533469
v 0.516867 1.985858 -1.70735
v -0.5168683 1.985858 -1.70735
v 0.516867 1.675894 -1.852583
v -0.5168683 1.675894 -1.852583
v 0.516867 1.312099 -1.941527
v -0.5168683 1.312099 -1.941527
v 0.516867 0.9535993 -1.971477
v -0.5168683 0.9535993 -1.971477
v 0.516867 0.5950999 -1.941527
v -0.5168683 0.5950999 -1.941527
v 0.516867 0.2372591 -1.852583
v -0.5168683 0.2372591 -1.852583
v 0.516867 -0.07729467 -1.706505
v -0.5168683 -0.07729467 -1.706505
v -0.5677789 1.960765 -1.662884
v -0.5168683 1.985858 -1.70735
v -0.5156488 2.315439 -1.533469
v -0.5677789 2.301191 -1.484065
v -0.5677789 1.658882 -1.804331
v -0.5168683 1.675894 -1.852583
v -0.5168683 1.312099 -1.941527
v -0.5677789 1.303884 -1.891124
v -0.5677789 0.9535993 -1.920391
v -0.5168683 0.9535993 -1.971477
v -0.5168683 0.5950999 -1.941527
v -0.5677789 0.6034127 -1.891133
v -0.5677789 0.2541801 -1.804327
v -0.5168683 0.2372591 -1.852583
v -0.5168683 -0.07729467 -1.706505
v -0.5677789 -0.07729452 -1.653479
v -0.5156488 2.350182 -1.468446
v -0.5677789 2.29927 -0.8060303
v -0.5168683 2.350182 -0.8060303
v -0.5677789 -0.07729467 -0.8060315
v -0.5677789 2.29927 -0.8060303
v -0.5168683 2.29927 -0.7551196
v -0.5677789 -0.07729467 -0.8060315
v -0.5168683 -0.07729467 -0.7551208
v -0.3745459 2.162199 -0.7551196
v -0.3745459 -0.07729467 -0.7551208
v -0.5168683 2.350182 -0.8060303
v -0.3236353 2.111287 -0.8060303
v -0.3236353 -0.07729467 -0.8060315
v 0.516867 2.29927 -0.7551196
v 0.5677789 2.29927 -0.8060303
v 0.516867 -0.07729467 -0.7551208
v 0.5677789 -0.07729467 -0.8060315
v 0.516867 2.350182 -0.8060303
v 0.3745441 2.162199 -0.7551196
v 0.3745441 -0.07729467 -0.7551208
v 0.3236353 2.111287 -0.8060303
v 0.3236353 -0.07729467 -0.8060315
v -0.5168683 2.350182 -0.8060303
v 0.516867 2.350182 -0.8060303
v 0.516867 2.29927 -0.7551196
v -0.5168683 2.29927 -0.7551196
v 0.3745441 2.162199 -0.7551196
v -0.3745459 2.162199 -0.7551196
v -0.3236353 2.111287 -0.8060303
v 0.3236353 2.111287 -0.8060303
v 0.516867 2.350182 -0.8060303
v -0.5168683 2.350182 -0.8060303
v -0.3236353 2.111287 -0.8060303
v 0.3236353 2.111287 -0.8060303
v -0.3236353 2.111288 -1.465546
v 0.3236353 2.111288 -1.465546
v -0.3236353 -0.07729467 -1.465546
v -0.3236353 -0.07729467 -0.8060315
v -0.3236353 2.111287 -0.8060303
v -0.3236353 2.111288 -1.465546
v 0.3236353 2.111287 -0.8060303
v 0.3236353 -0.07729467 -0.8060315
v 0.3236353 -0.07729467 -1.465546
v 0.3236353 2.111288 -1.465546
v -0.323634 -0.07729467 1.465544
v 0.3236353 -0.07729467 1.465544
v -0.323634 2.111288 1.465544
v 0.3236353 2.111288 1.465544
v -0.5156482 2.350182 1.468445
v -0.5677789 2.301191 1.484062
v -0.5677789 2.29927 0.806029
v -0.5168683 2.350182 0.806029
v -0.5156482 2.315439 1.53347
v -0.5677789 1.960765 1.662883
v -0.5168683 1.985858 1.707349
v -0.5677789 1.658882 1.804332
v -0.5168683 1.675894 1.852582
v -0.5168683 1.312099 1.941525
v -0.5677789 1.303884 1.891124
v -0.5677789 0.9535993 1.920389
v -0.5168683 0.9535993 1.971478
v -0.5168683 0.5950999 1.941525
v -0.5677789 0.6034127 1.891132
v -0.5677789 0.2541801 1.804329
v -0.5168683 0.2372591 1.852582
v -0.5168683 -0.07729467 1.706503
v -0.5677789 -0.07729452 1.653478
v -0.5677789 -0.07729467 0.8060315
v 0.5156488 2.350182 1.468445
v 0.5156488 2.315439 1.53347
v -0.5156482 2.350182 1.468445
v -0.5156482 2.315439 1.53347
v 0.516867 1.985858 1.707349
v -0.5168683 1.985858 1.707349
v -0.5168683 1.675894 1.852582
v 0.516867 1.675894 1.852582
v -0.5168683 1.312099 1.941525
v 0.516867 1.312099 1.941525
v -0.5168683 0.9535993 1.971478
v 0.516867 0.9535993 1.971478
v -0.5168683 0.5950999 1.941525
v 0.516867 0.5950999 1.941525
v -0.5168683 0.2372591 1.852582
v 0.516867 0.2372591 1.852582
v -0.5168683 -0.07729467 1.706503
v 0.516867 -0.07729467 1.706503
v 0.516867 2.350182 0.806029
v -0.5168683 2.350182 0.806029
v 0.5156488 2.315439 1.53347
v 0.5677789 2.301191 1.484062
v 0.5677789 1.960765 1.662883
v 0.516867 1.985858 1.707349
v 0.5677789 1.658882 1.804332
v 0.516867 1.675894 1.852582
v 0.516867 1.312099 1.941525
v 0.5677789 1.303884 1.891124
v 0.5677789 0.9535993 1.920389
v 0.516867 0.9535993 1.971478
v 0.516867 0.5950999 1.941525
v 0.5677789 0.6034127 1.891132
v 0.5677789 0.2541801 1.804329
v 0.516867 0.2372591 1.852582
v 0.516867 -0.07729467 1.706503
v 0.5677789 -0.07729452 1.653478
v 0.5156488 2.350182 1.468445
v 0.5677789 2.29927 0.806029
v 0.516867 2.350182 0.806029
v 0.5677789 -0.07729467 0.8060315
v 0.516867 -0.07729467 0.7551196
v 0.5677789 -0.07729467 0.8060315
v 0.516867 2.29927 0.7551196
v 0.5677789 2.29927 0.806029
v 0.3745459 2.162199 0.7551196
v 0.3745459 -0.07729467 0.7551196
v 0.516867 2.350182 0.806029
v 0.3236353 2.111287 0.806029
v 0.3236353 -0.07729467 0.8060315
v -0.5677789 -0.07729467 0.8060315
v -0.5168683 -0.07729467 0.7551196
v -0.5677789 2.29927 0.806029
v -0.5168683 2.29927 0.7551196
v -0.5168683 2.350182 0.806029
v -0.3745453 2.162199 0.7551196
v -0.3745453 -0.07729467 0.7551196
v -0.323634 2.111287 0.806029
v -0.323634 -0.07729467 0.8060315
v -0.5168683 2.350182 0.806029
v -0.5168683 2.29927 0.7551196
v 0.516867 2.350182 0.806029
v 0.516867 2.29927 0.7551196
v -0.3745453 2.162199 0.7551196
v 0.3745459 2.162199 0.7551196
v -0.323634 2.111287 0.806029
v 0.3236353 2.111287 0.806029
v 0.3236353 2.111288 1.465544
v -0.323634 2.111287 0.806029
v -0.323634 2.111288 1.465544
v 0.3236353 2.111287 0.806029
v 0.3236353 2.111288 1.465544
v 0.3236353 -0.07729467 1.465544
v 0.3236353 -0.07729467 0.8060315
v 0.3236353 2.111287 0.806029
v -0.323634 -0.07729467 0.8060315
v -0.323634 -0.07729467 1.465544
v -0.323634 2.111288 1.465544
v -0.323634 2.111287 0.806029
v 0.4086529 0.147525 1.537552
v -0.4086529 0.147525 1.537552
v -0.4086529 0.147525 -1.537552
v 0.4086529 0.147525 -1.537552
v -0.4714343 0.1004537 1.537552
v -0.4714343 0.1004537 -1.537552
v -0.4714343 -0.06931509 -1.537552
v -0.4714343 -0.06931509 1.537552
v 0.4714331 0.1004537 -1.537552
v 0.4714331 0.1004537 1.537552
v 0.4714331 -0.06931509 1.537552
v 0.4714331 -0.06931509 -1.537552
vt 0.056599 0.788766
vt 0.056599 0.943401
vt 0.102332 0.943401
vt 0.102332 0.788766
vt 0.143185 0.672086
vt 0.143728 0.677153
vt 0.190384 0.671324
vt 0.19028 0.666209
vt 0.194892 0.668403
vt 0.203221 0.642626
vt 0.207589 0.645174
vt 0.213269 0.621441
vt 0.218001 0.623232
vt 0.224671 0.597541
vt 0.219708 0.596591
vt 0.222036 0.57203
vt 0.227084 0.57217
vt 0.22523 0.546772
vt 0.220229 0.547447
vt 0.214368 0.522893
vt 0.219188 0.521418
vt 0.209527 0.499006
vt 0.204343 0.499365
vt 0.143185 0.501255
vt 0.455871 0.704658
vt 0.528737 0.704657
vt 0.528737 0.699448
vt 0.455871 0.699448
vt 0.455784 0.67312
vt 0.528823 0.67312
vt 0.455784 0.648934
vt 0.528823 0.648934
vt 0.455784 0.622473
vt 0.528823 0.622473
vt 0.455784 0.597054
vt 0.528823 0.597054
vt 0.455784 0.571636
vt 0.528823 0.571636
vt 0.455785 0.545584
vt 0.528823 0.545584
vt 0.455785 0.521079
vt 0.528823 0.52108
vt 0.425147 0.539843
vt 0.429702 0.537413
vt 0.417256 0.513526
vt 0.412563 0.51588
vt 0.434456 0.561488
vt 0.439346 0.559815
vt 0.445258 0.585818
vt 0.440169 0.586707
vt 0.442158 0.611526
vt 0.447322 0.611362
vt 0.445593 0.636967
vt 0.440457 0.636395
vt 0.435154 0.661416
vt 0.440142 0.662747
vt 0.431015 0.685828
vt 0.425728 0.685486
vt 0.412727 0.510704
vt 0.364929 0.510137
vt 0.365558 0.50497
vt 0.364929 0.680796
vt 0.765375 0.716728
vt 0.760289 0.716727
vt 0.765375 0.884645
vt 0.760289 0.884645
vt 0.750232 0.726412
vt 0.750233 0.884645
vt 0.762833 0.712321
vt 0.745145 0.730009
vt 0.745145 0.884645
vt 0.015089 0.612741
vt 0.01 0.612738
vt 0.015086 0.780656
vt 0.01 0.780656
vt 0.012549 0.608337
vt 0.025144 0.622427
vt 0.025141 0.780657
vt 0.030231 0.626024
vt 0.030229 0.780657
vt 0.306206 0.2411
vt 0.306206 0.314138
vt 0.311292 0.314138
vt 0.311292 0.2411
vt 0.320977 0.304082
vt 0.320977 0.251155
vt 0.326065 0.254753
vt 0.326065 0.300485
vt 0.455785 0.75146
vt 0.528823 0.75146
vt 0.056599 0.99
vt 0.102332 0.99
vt 0.056599 0.943401
vt 0.102332 0.943401
vt 0.056599 0.788766
vt 0.010001 0.788766
vt 0.01 0.943401
vt 0.056599 0.943401
vt 0.14893 0.943401
vt 0.14893 0.788766
vt 0.102332 0.788766
vt 0.102332 0.943401
vt 0.24965 0.683874
vt 0.203916 0.683874
vt 0.24965 0.83851
vt 0.203916 0.83851
vt 0.281825 0.614435
vt 0.281721 0.60932
vt 0.234625 0.615198
vt 0.235168 0.620264
vt 0.286333 0.611513
vt 0.294658 0.585735
vt 0.299027 0.588283
vt 0.304705 0.56455
vt 0.309438 0.56634
vt 0.31611 0.540649
vt 0.311147 0.539699
vt 0.313477 0.51514
vt 0.318525 0.51528
vt 0.31667 0.489881
vt 0.31167 0.490557
vt 0.305808 0.466002
vt 0.31063 0.464527
vt 0.300969 0.442115
vt 0.295785 0.442473
vt 0.234625 0.444364
vt 0.454677 0.943197
vt 0.454677 0.937988
vt 0.381811 0.943197
vt 0.381811 0.937988
vt 0.454763 0.911659
vt 0.381724 0.911659
vt 0.381724 0.887473
vt 0.454763 0.887473
vt 0.381724 0.861012
vt 0.454763 0.861012
vt 0.381724 0.835594
vt 0.454763 0.835594
vt 0.381724 0.810176
vt 0.454763 0.810175
vt 0.381724 0.784123
vt 0.454763 0.784122
vt 0.381724 0.759618
vt 0.454763 0.759618
vt 0.454763 0.99
vt 0.381724 0.99
vt 0.105168 0.608942
vt 0.100476 0.611296
vt 0.11306 0.635259
vt 0.117614 0.632828
vt 0.122369 0.656902
vt 0.127258 0.65523
vt 0.133169 0.681235
vt 0.128081 0.682124
vt 0.130067 0.706943
vt 0.135233 0.706777
vt 0.133503 0.732384
vt 0.128366 0.731812
vt 0.123064 0.756833
vt 0.128053 0.758164
vt 0.118928 0.781246
vt 0.113641 0.780904
vt 0.100638 0.60612
vt 0.052842 0.605552
vt 0.053471 0.600385
vt 0.052842 0.776213
vt 0.3308 0.435396
vt 0.325713 0.435396
vt 0.330801 0.603313
vt 0.325713 0.603313
vt 0.340856 0.593629
vt 0.340856 0.435396
vt 0.328256 0.607719
vt 0.345943 0.590031
vt 0.345943 0.435396
vt 0.759412 0.254503
vt 0.754325 0.254503
vt 0.759412 0.42242
vt 0.754325 0.42242
vt 0.756869 0.426827
vt 0.744269 0.412736
vt 0.744268 0.254503
vt 0.739182 0.409139
vt 0.739182 0.254503
vt 0.956207 0.258989
vt 0.95112 0.258989
vt 0.956207 0.332028
vt 0.95112 0.332028
vt 0.941435 0.269046
vt 0.941435 0.321974
vt 0.936349 0.272642
vt 0.936349 0.318375
vt 0.203916 0.83851
vt 0.24965 0.885108
vt 0.24965 0.83851
vt 0.203916 0.885108
vt 0.203916 0.83851
vt 0.203916 0.683874
vt 0.157318 0.683874
vt 0.157318 0.83851
vt 0.296247 0.683874
vt 0.24965 0.683874
vt 0.24965 0.83851
vt 0.296247 0.83851
vt 0.374372 0.972462
vt 0.374372 0.914714
vt 0.157099 0.914714
vt 0.157099 0.972462
vt 0.374372 0.90917
vt 0.157099 0.90917
vt 0.157099 0.897175
vt 0.374371 0.897175
vt 0.157099 0.978005
vt 0.374372 0.978005
vt 0.374372 0.99
vt 0.157099 0.99
vn 0 0 1
vn 0 0 1
vn 0 0 1
vn 0 0 1
vn 1 0 0
vn 0.04442501 0.9966164 0.06915303
vn 0.04901598 0.9977447 -0.04585798
vn 1 0 0
vn 0.04603801 0.5451121 -0.8370981
vn 1 0 0
vn 0.04656501 0.4460191 -0.8938112
vn 1 0 0
vn 0.04456902 0.3279752 -0.9436344
vn 0.04493999 0.162256 -0.9857248
vn 1 0 0
vn 1 0 0
vn 0.044867 0 -0.998993
vn 0.04490702 -0.1635691 -0.9855093
vn 1 0 0
vn 1 0 0
vn 0.044822 -0.3296119 -0.9430519
vn 0.05535 -0.420348 -0.9056731
vn 1 0 0
vn 0.9988039 0 0.04889699
vn 0.04901598 0.9977447 -0.04585798
vn -0.04901598 0.9977447 -0.04585798
vn -0.04603801 0.5451121 -0.8370981
vn 0.04603801 0.5451121 -0.8370981
vn 0.04656501 0.4460191 -0.8938112
vn -0.04656501 0.4460191 -0.8938112
vn 0.04456902 0.3279752 -0.9436344
vn -0.04456902 0.3279752 -0.9436344
vn 0.04493999 0.162256 -0.9857248
vn -0.04493999 0.162256 -0.9857248
vn 0.044867 0 -0.998993
vn -0.044867 0 -0.998993
vn 0.04490702 -0.1635691 -0.9855093
vn -0.04490702 -0.1635691 -0.9855093
vn 0.044822 -0.3296119 -0.9430519
vn -0.044822 -0.3296119 -0.9430519
vn 0.05535 -0.420348 -0.9056731
vn -0.05535 -0.420348 -0.9056731
vn -1 0 0
vn -0.04656501 0.4460191 -0.8938112
vn -0.04603801 0.5451121 -0.8370981
vn -1 0 0
vn -1 0 0
vn -0.04456902 0.3279752 -0.9436344
vn -0.04493999 0.162256 -0.9857248
vn -1 0 0
vn -1 0 0
vn -0.044867 0 -0.998993
vn -0.04490702 -0.1635691 -0.9855093
vn -1 0 0
vn -1 0 0
vn -0.044822 -0.3296119 -0.9430519
vn -0.05535 -0.420348 -0.9056731
vn -0.9999882 -0.00203 -0.004417
vn -0.04901598 0.9977447 -0.04585798
vn -1 0 0
vn -0.04442501 0.9966164 0.06915303
vn -0.9988039 0 0.04889799
vn -1 0 0
vn 0 0 1
vn -0.9988039 0 0.04889799
vn -0.2599359 0 0.9656258
vn 0 0 1
vn 0.247531 0 0.9688801
vn -0.04442501 0.9966164 0.06915303
vn 0.9952289 0 0.09756799
vn 0.9973868 0 0.07224698
vn 0 0 1
vn 1 0 0
vn 0.259935 0 0.9656261
vn 0.9988039 0 0.04889699
vn 0.04442501 0.9966164 0.06915303
vn 0 0 1
vn -0.247531 0 0.9688801
vn -0.995229 0 0.09756699
vn -0.9973869 0 0.07224599
vn -0.04442501 0.9966164 0.06915303
vn 0.04442501 0.9966164 0.06915303
vn 0 0 1
vn 0 0 1
vn 0 0 1
vn 0 0 1
vn 0 -0.9946503 0.1033
vn 0 -0.9946503 0.1033
vn 0.04442501 0.9966164 0.06915303
vn -0.04442501 0.9966164 0.06915303
vn 0 -0.9946503 0.1033
vn 0 -0.9946503 0.1033
vn 0 -1 -1E-06
vn 0 -1 -1E-06
vn 1 0 0
vn 0.9973868 0 0.07224698
vn 0.9952289 0 0.09756799
vn 1 0 0
vn -0.995229 0 0.09756699
vn -0.9973869 0 0.07224599
vn -1 0 0
vn -1 0 0
vn 0 0 -1
vn 0 0 -1
vn 0 0 -1
vn 0 0 -1
vn -0.04901598 0.9977447 0.04585798
vn -1 0 0
vn -1 0 0
vn -0.04442501 0.9966164 -0.06915303
vn -0.04603801 0.5451121 0.8370981
vn -1 0 0
vn -0.04656501 0.4460191 0.8938112
vn -1 0 0
vn -0.04456902 0.3279752 0.9436344
vn -0.04493999 0.162256 0.9857248
vn -1 0 0
vn -1 0 0
vn -0.044867 0 0.998993
vn -0.04490702 -0.1635691 0.9855093
vn -1 0 0
vn -1 0 0
vn -0.044822 -0.3296119 0.9430519
vn -0.05535 -0.420348 0.9056731
vn -1 0 0
vn -0.9988039 0 -0.04889699
vn 0.04901598 0.9977447 0.04585798
vn 0.04603801 0.5451121 0.8370981
vn -0.04901598 0.9977447 0.04585798
vn -0.04603801 0.5451121 0.8370981
vn 0.04656501 0.4460191 0.8938112
vn -0.04656501 0.4460191 0.8938112
vn -0.04456902 0.3279752 0.9436344
vn 0.04456902 0.3279752 0.9436344
vn -0.04493999 0.162256 0.9857248
vn 0.04493999 0.162256 0.9857248
vn -0.044867 0 0.998993
vn 0.044867 0 0.998993
vn -0.04490702 -0.1635691 0.9855093
vn 0.04490702 -0.1635691 0.9855093
vn -0.044822 -0.3296119 0.9430519
vn 0.044822 -0.3296119 0.9430519
vn -0.05535 -0.420348 0.9056731
vn 0.05535 -0.420348 0.9056731
vn 0.04442501 0.9966164 -0.06915303
vn -0.04442501 0.9966164 -0.06915303
vn 0.04603801 0.5451121 0.8370981
vn 1 0 0
vn 1 0 0
vn 0.04656501 0.4460191 0.8938112
vn 1 0 0
vn 0.04456902 0.3279752 0.9436344
vn 0.04493999 0.162256 0.9857248
vn 1 0 0
vn 1 0 0
vn 0.044867 0 0.998993
vn 0.04490702 -0.1635691 0.9855093
vn 1 0 0
vn 1 0 0
vn 0.044822 -0.3296119 0.9430519
vn 0.05535 -0.420348 0.9056731
vn 0.9999882 -0.00203 0.004417
vn 0.04901598 0.9977447 0.04585798
vn 1 0 0
vn 0.04442501 0.9966164 -0.06915303
vn 0.9988039 0 -0.04889799
vn 0.2599359 0 -0.9656258
vn 0.9988039 0 -0.04889799
vn 0 0 -1
vn 1 0 0
vn 0 0 -1
vn -0.247531 0 -0.9688801
vn 0.04442501 0.9966164 -0.06915303
vn -0.9952289 0 -0.09756799
vn -0.9973868 0 -0.07224698
vn -0.9988039 0 -0.04889699
vn -0.259935 0 -0.9656261
vn -1 0 0
vn 0 0 -1
vn -0.04442501 0.9966164 -0.06915303
vn 0 0 -1
vn 0.247531 0 -0.9688801
vn 0.995229 0 -0.09756699
vn 0.9973869 0 -0.07224599
vn -0.04442501 0.9966164 -0.06915303
vn 0 0 -1
vn 0.04442501 0.9966164 -0.06915303
vn 0 0 -1
vn 0 0 -1
vn 0 0 -1
vn 0 -0.9946503 -0.1033
vn 0 -0.9946503 -0.1033
vn 0 -1 1E-06
vn 0 -0.9946503 -0.1033
vn 0 -1 1E-06
vn 0 -0.9946503 -0.1033
vn -1 0 0
vn -1 0 0
vn -0.9973868 0 -0.07224698
vn -0.9952289 0 -0.09756799
vn 0.9973869 0 -0.07224599
vn 1 0 0
vn 1 0 0
vn 0.995229 0 -0.09756699
vn 0.05340799 0.9985728 0
vn -0.05340799 0.9985728 0
vn -0.05340799 0.9985728 0
vn 0.05340799 0.9985728 0
vn -0.960551 0.278104 0
vn -0.960551 0.278104 0
vn -1 0 0
vn -1 0 0
vn 0.960551 0.278104 0
vn 0.960551 0.278104 0
vn 1 0 0
vn 1 0 0
g m_sp_airlock_main_01_0
f 3/3/3 2/2/2 1/1/1
f 1/1/1 4/4/4 3/3/3
f 7/7/7 6/6/6 5/5/5
f 5/5/5 8/8/8 7/7/7
f 9/9/9 7/7/7 8/8/8
f 9/9/9 8/8/8 10/10/10
f 10/10/10 8/8/8 5/5/5
f 9/9/9 10/10/10 11/11/11
f 11/11/11 10/10/10 12/12/12
f 5/5/5 12/12/12 10/10/10
f 11/11/11 12/12/12 13/13/13
f 14/14/14 13/13/13 12/12/12
f 12/12/12 15/15/15 14/14/14
f 5/5/5 15/15/15 12/12/12
f 14/14/14 15/15/15 16/16/16
f 16/16/16 17/17/17 14/14/14
f 18/18/18 17/17/17 16/16/16
f 16/16/16 19/19/19 18/18/18
f 18/18/18 19/19/19 20/20/20
f 20/20/20 21/21/21 18/18/18
f 22/22/22 21/21/21 20/20/20
f 20/20/20 23/23/23 22/22/22
f 20/20/20 19/19/19 24/24/24
f 24/24/24 23/23/23 20/20/20
f 24/24/24 19/19/19 16/16/16
f 24/24/24 16/16/16 15/15/15
f 15/15/15 5/5/5 24/24/24
f 27/27/27 26/26/26 25/25/25
f 25/25/25 28/28/28 27/27/27
f 27/27/27 28/28/28 29/29/29
f 30/30/30 27/27/27 29/29/29
f 30/30/30 29/29/29 31/31/31
f 32/32/32 30/30/30 31/31/31
f 32/32/32 31/31/31 33/33/33
f 34/34/34 32/32/32 33/33/33
f 34/34/34 33/33/33 35/35/35
f 35/35/35 36/36/36 34/34/34
f 36/36/36 35/35/35 37/37/37
f 38/38/38 36/36/36 37/37/37
f 38/38/38 37/37/37 39/39/39
f 40/40/40 38/38/38 39/39/39
f 40/40/40 39/39/39 41/41/41
f 42/42/42 40/40/40 41/41/41
f 45/45/45 44/44/44 43/43/43
f 43/43/43 46/46/46 45/45/45
f 47/47/47 43/43/43 44/44/44
f 44/44/44 48/48/48 47/47/47
f 49/49/49 47/47/47 48/48/48
f 47/47/47 49/49/49 50/50/50
f 51/51/51 50/50/50 49/49/49
f 49/49/49 52/52/52 51/51/51
f 53/53/53 51/51/51 52/52/52
f 51/51/51 53/53/53 54/54/54
f 55/55/55 54/54/54 53/53/53
f 53/53/53 56/56/56 55/55/55
f 57/57/57 55/55/55 56/56/56
f 55/55/55 57/57/57 58/58/58
f 46/46/46 59/59/59 45/45/45
f 59/59/59 46/46/46 60/60/60
f 60/60/60 47/47/47 50/50/50
f 59/59/59 60/60/60 61/61/61
f 50/50/50 62/62/62 60/60/60
f 55/55/55 58/58/58 62/62/62
f 62/62/62 50/50/50 51/51/51
f 62/62/62 51/51/51 54/54/54
f 62/62/62 54/54/54 55/55/55
f 43/43/43 47/47/47 60/60/60
f 60/60/60 46/46/46 43/43/43
f 65/65/65 64/64/64 63/63/63
f 65/65/65 66/66/66 64/64/64
f 66/66/66 67/67/67 64/64/64
f 66/66/66 68/68/68 67/67/67
f 63/63/63 64/64/64 69/69/69
f 68/68/68 70/70/70 67/67/67
f 68/68/68 71/71/71 70/70/70
f 74/74/74 73/73/73 72/72/72
f 74/74/74 75/75/75 73/73/73
f 76/76/76 72/72/72 73/73/73
f 74/74/74 72/72/72 77/77/77
f 77/77/77 78/78/78 74/74/74
f 78/78/78 77/77/77 79/79/79
f 79/79/79 80/80/80 78/78/78
f 83/83/83 82/82/82 81/81/81
f 81/81/81 84/84/84 83/83/83
f 84/84/84 85/85/85 83/83/83
f 84/84/84 86/86/86 85/85/85
f 85/85/85 86/86/86 87/87/87
f 87/87/87 88/88/88 85/85/85
f 26/26/26 90/90/90 89/89/89
f 89/89/89 25/25/25 26/26/26
f 93/93/93 92/92/92 91/91/91
f 93/93/93 94/94/94 92/92/92
f 97/97/97 96/96/96 95/95/95
f 95/95/95 98/98/98 97/97/97
f 101/101/101 100/100/100 99/99/99
f 99/99/99 102/102/102 101/101/101
f 105/105/105 104/104/104 103/103/103
f 105/105/105 106/106/106 104/104/104
f 109/109/109 108/108/108 107/107/107
f 107/107/107 110/110/110 109/109/109
f 111/111/111 107/107/107 108/108/108
f 112/112/112 111/111/111 108/108/108
f 112/112/112 108/108/108 109/109/109
f 112/112/112 113/113/113 111/111/111
f 113/113/113 112/112/112 114/114/114
f 109/109/109 114/114/114 112/112/112
f 114/114/114 115/115/115 113/113/113
f 116/116/116 115/115/115 114/114/114
f 114/114/114 117/117/117 116/116/116
f 109/109/109 117/117/117 114/114/114
f 118/118/118 116/116/116 117/117/117
f 116/116/116 118/118/118 119/119/119
f 120/120/120 119/119/119 118/118/118
f 118/118/118 121/121/121 120/120/120
f 122/122/122 120/120/120 121/121/121
f 120/120/120 122/122/122 123/123/123
f 124/124/124 123/123/123 122/122/122
f 122/122/122 125/125/125 124/124/124
f 122/122/122 121/121/121 126/126/126
f 126/126/126 125/125/125 122/122/122
f 126/126/126 121/121/121 118/118/118
f 126/126/126 118/118/118 117/117/117
f 117/117/117 109/109/109 126/126/126
f 129/129/129 128/128/128 127/127/127
f 128/128/128 129/129/129 130/130/130
f 131/131/131 128/128/128 130/130/130
f 130/130/130 132/132/132 131/131/131
f 132/132/132 133/133/133 131/131/131
f 133/133/133 134/134/134 131/131/131
f 133/133/133 135/135/135 134/134/134
f 135/135/135 136/136/136 134/134/134
f 135/135/135 137/137/137 136/136/136
f 137/137/137 138/138/138 136/136/136
f 137/137/137 139/139/139 138/138/138
f 139/139/139 140/140/140 138/138/138
f 139/139/139 141/141/141 140/140/140
f 141/141/141 142/142/142 140/140/140
f 141/141/141 143/143/143 142/142/142
f 143/143/143 144/144/144 142/142/142
f 127/127/127 145/145/145 129/129/129
f 145/145/145 146/146/146 129/129/129
f 149/149/149 148/148/148 147/147/147
f 147/147/147 150/150/150 149/149/149
f 151/151/151 149/149/149 150/150/150
f 150/150/150 152/152/152 151/151/151
f 151/151/151 152/152/152 153/153/153
f 153/153/153 154/154/154 151/151/151
f 155/155/155 154/154/154 153/153/153
f 153/153/153 156/156/156 155/155/155
f 155/155/155 156/156/156 157/157/157
f 157/157/157 158/158/158 155/155/155
f 159/159/159 158/158/158 157/157/157
f 157/157/157 160/160/160 159/159/159
f 159/159/159 160/160/160 161/161/161
f 159/159/159 161/161/161 162/162/162
f 148/148/148 163/163/163 147/147/147
f 164/164/164 163/163/163 148/148/148
f 149/149/149 151/151/151 164/164/164
f 164/164/164 151/151/151 154/154/154
f 164/164/164 165/165/165 163/163/163
f 154/154/154 166/166/166 164/164/164
f 159/159/159 162/162/162 166/166/166
f 166/166/166 154/154/154 155/155/155
f 166/166/166 155/155/155 158/158/158
f 166/166/166 158/158/158 159/159/159
f 164/164/164 148/148/148 149/149/149
f 169/169/169 168/168/168 167/167/167
f 169/169/169 170/170/170 168/168/168
f 171/171/171 169/169/169 167/167/167
f 171/171/171 167/167/167 172/172/172
f 170/170/170 169/169/169 173/173/173
f 172/172/172 174/174/174 171/171/171
f 174/174/174 172/172/172 175/175/175
f 178/178/178 177/177/177 176/176/176
f 178/178/178 179/179/179 177/177/177
f 180/180/180 179/179/179 178/178/178
f 177/177/177 179/179/179 181/181/181
f 181/181/181 182/182/182 177/177/177
f 182/182/182 181/181/181 183/183/183
f 183/183/183 184/184/184 182/182/182
f 187/187/187 186/186/186 185/185/185
f 186/186/186 187/187/187 188/188/188
f 188/188/188 189/189/189 186/186/186
f 188/188/188 190/190/190 189/189/189
f 190/190/190 191/191/191 189/189/189
f 190/190/190 192/192/192 191/191/191
f 195/195/195 194/194/194 193/193/193
f 194/194/194 196/196/196 193/193/193
f 199/199/199 198/198/198 197/197/197
f 197/197/197 200/200/200 199/199/199
f 203/203/203 202/202/202 201/201/201
f 201/201/201 204/204/204 203/203/203
f 207/207/207 206/206/206 205/205/205
f 205/205/205 208/208/208 207/207/207
f 209/209/209 206/206/206 207/207/207
f 207/207/207 210/210/210 209/209/209
f 209/209/209 210/210/210 211/211/211
f 211/211/211 212/212/212 209/209/209
f 213/213/213 208/208/208 205/205/205
f 213/213/213 205/205/205 214/214/214
f 214/214/214 215/215/215 213/213/213
f 216/216/216 213/213/213 215/215/215
