g m_dlc08_map_hay_pile_02
v -0.1735818 0.08643316 -0.5375929
v -0.03385466 0.087791 -0.6284
v 0.1299453 0.09181248 -0.5978525
v 0.2737517 0.09637243 -0.5402105
v 0.4228993 0.1010443 -0.498289
v -0.2844938 0.08627694 -0.4293773
v 0.5713744 0.106362 -0.4227049
v -0.3825201 0.08691396 -0.3177157
v 0.6267841 0.1116549 -0.2655794
v -0.4483117 0.08886462 -0.1844949
v 0.6487325 0.1162856 -0.1122127
v -0.5059935 0.09157903 -0.04068252
v 0.6583598 0.1203843 0.03603676
v -0.5365821 0.09536894 0.1231144
v 0.6292867 0.1235157 0.1817355
v -0.4458091 0.1007254 0.2628197
v 0.5634952 0.1254663 0.3149559
v -0.3376234 0.1060298 0.3737037
v 0.4843627 0.1266883 0.4481818
v -0.2259835 0.1111892 0.4716976
v 0.3728902 0.1267631 0.5720549
v -0.1020065 0.1162963 0.5645971
v 0.2067547 0.1238596 0.5849416
v 0.04829537 0.1211616 0.6364971
v 0.9701964 -0.005271186 0.2806537
v 1.012562 -0.005990823 0.04057655
v 0.6487325 0.1162856 -0.1122127
v 0.9913475 -0.007098243 -0.2022852
v 1.056716 -0.007129534 -0.517298
v 0.8889723 -0.01033651 -0.7569275
v 0.5814661 -0.01189267 -0.7878171
v 0.3605362 -0.01361765 -0.8908719
v 0.1117699 -0.01965482 -1.119445
v -0.1796349 -0.02195282 -1.093978
v -0.3514921 -0.0175829 -0.828663
v -0.5512078 -0.01820047 -0.6888583
v -0.7079343 -0.01837375 -0.5021259
v -0.8109919 -0.01809093 -0.2811935
v -1.056716 -0.02169443 -0.04898499
v -1.031265 -0.01931809 0.2424186
v -0.9312595 -0.01642794 0.5173
v -0.7635165 -0.01322096 0.7569295
v -0.4222625 -0.01146945 0.7872773
v -0.2743756 -0.006737398 1.068622
v 0.01368672 -0.003902655 1.119445
v 0.2816035 -0.006798984 0.911477
v 0.5799789 0 0.9939607
v 0.8196169 0.0008019519 0.8262055
v 0.867139 -0.004988369 0.5015858
vt 0.6499023 0.71875
vt 0.6386719 0.6879883
vt 0.6098633 0.6733398
vt 0.5805664 0.6655273
vt 0.5522461 0.6542969
vt 0.6542969 0.7485352
vt 0.5200195 0.6489258
vt 0.65625 0.777832
vt 0.4929199 0.6665039
vt 0.6508789 0.8061523
vt 0.4714355 0.6879883
vt 0.6425781 0.8354492
vt 0.4526367 0.7099609
vt 0.6279297 0.8642578
vt 0.4399414 0.7358398
vt 0.5976563 0.8754883
vt 0.4345703 0.7641602
vt 0.5673828 0.8798828
vt 0.4309082 0.7944336
vt 0.5385742 0.8818359
vt 0.4335938 0.8266602
vt 0.5083008 0.8818359
vt 0.4577637 0.8486328
vt 0.4763184 0.875
vt 0.3713379 0.7089844
vt 0.3937988 0.6660156
vt 0.4714355 0.6879883
vt 0.4262695 0.6303711
vt 0.4553223 0.5742188
vt 0.5102539 0.5566406
vt 0.5629883 0.5869141
vt 0.6098633 0.5976563
vt 0.6757813 0.5927734
vt 0.7182617 0.6318359
vt 0.7148438 0.6938477
vt 0.7294922 0.7392578
vt 0.7314453 0.7875977
vt 0.7216797 0.8344727
vt 0.7314453 0.8999023
vt 0.6933594 0.9428711
vt 0.6450195 0.9741211
vt 0.590332 0.9921875
vt 0.5327148 0.9584961
vt 0.4753418 0.9833984
vt 0.4240723 0.9575195
vt 0.4038086 0.894043
vt 0.3483887 0.8686523
vt 0.3310547 0.8134766
vt 0.3608398 0.7563477
vn -0.03604516 0.9985763 -0.03932163
vn -0.03208443 0.998259 -0.04949256
vn -0.01379156 0.9989007 -0.04480224
vn -0.01283897 0.9990318 -0.04208038
vn -0.01547378 0.9988021 -0.04642343
vn -0.03429702 0.9987223 -0.03711323
vn -0.001944497 0.9987953 -0.04903285
vn -0.03826171 0.9986506 -0.03511457
vn 0.003032522 0.9996018 -0.02805817
vn -0.03861398 0.9986469 -0.03483276
vn -0.02297466 0.9994088 -0.02557358
vn -0.04210985 0.9985785 -0.03267479
vn 0.003034134 0.9997266 -0.02318436
vn -0.05160163 0.9985173 -0.01733258
vn 0.002400659 0.9998606 -0.0165192
vn -0.0417038 0.9990613 -0.01171664
vn 0.002248276 0.9998705 -0.01593275
vn -0.03388639 0.9994117 -0.005278605
vn 0.002538796 0.9999425 -0.01041226
vn -0.0354569 0.9993601 -0.00471078
vn -0.01233443 0.999854 0.01183022
vn -0.03778003 0.9992784 -0.003928682
vn -0.01678551 0.9998587 0.0008091726
vn -0.01529271 0.9998043 0.01255208
vn 0.3259932 0.9402903 0.09789128
vn 0.3353525 0.9420719 0.006255046
vn 0.3197846 0.9474425 -0.009502674
vn 0.3162905 0.9486606 -0.001840653
vn 0.2359359 0.9680645 -0.0847666
vn 0.1510171 0.9689528 -0.1957659
vn 0.07317354 0.9507168 -0.3013026
vn 0.1285429 0.9587422 -0.253555
vn 0.0359997 0.9743089 -0.2223197
vn -0.07712576 0.9753249 -0.2068646
vn -0.1930859 0.9609504 -0.1982227
vn -0.1932711 0.9609631 -0.1979804
vn -0.2274621 0.9621771 -0.1499209
vn -0.2240981 0.9623747 -0.1536718
vn -0.2145387 0.9747415 -0.06206484
vn -0.2088307 0.9774987 0.02976703
vn -0.1883556 0.9775856 0.09406678
vn -0.1469296 0.9762199 0.1593936
vn -0.1736893 0.9614179 0.2133258
vn -0.1402954 0.9679518 0.2082942
vn 0.001801078 0.9685732 0.2487223
vn 0.05564801 0.9456484 0.320394
vn 0.08625814 0.96496 0.2478138
vn 0.215 0.9643069 0.1545547
vn 0.3149735 0.9439493 0.09874884
g m_dlc08_map_hay_pile_02_0
f 3/3/3 2/2/2 1/1/1
f 1/1/1 4/4/4 3/3/3
f 1/1/1 5/5/5 4/4/4
f 1/1/1 6/6/6 5/5/5
f 6/6/6 7/7/7 5/5/5
f 6/6/6 8/8/8 7/7/7
f 8/8/8 9/9/9 7/7/7
f 8/8/8 10/10/10 9/9/9
f 10/10/10 11/11/11 9/9/9
f 10/10/10 12/12/12 11/11/11
f 12/12/12 13/13/13 11/11/11
f 12/12/12 14/14/14 13/13/13
f 14/14/14 15/15/15 13/13/13
f 14/14/14 16/16/16 15/15/15
f 16/16/16 17/17/17 15/15/15
f 16/16/16 18/18/18 17/17/17
f 18/18/18 19/19/19 17/17/17
f 18/18/18 20/20/20 19/19/19
f 20/20/20 21/21/21 19/19/19
f 20/20/20 22/22/22 21/21/21
f 22/22/22 23/23/23 21/21/21
f 22/22/22 24/24/24 23/23/23
f 15/15/15 25/25/25 13/13/13
f 25/25/25 26/26/26 13/13/13
f 13/13/13 26/26/26 27/27/27
f 26/26/26 28/28/28 27/27/27
f 27/27/27 28/28/28 9/9/9
f 28/28/28 29/29/29 9/9/9
f 9/9/9 29/29/29 7/7/7
f 29/29/29 30/30/30 7/7/7
f 7/7/7 30/30/30 5/5/5
f 30/30/30 31/31/31 5/5/5
f 5/5/5 31/31/31 4/4/4
f 31/31/31 32/32/32 4/4/4
f 4/4/4 32/32/32 3/3/3
f 32/32/32 33/33/33 3/3/3
f 3/3/3 33/33/33 2/2/2
f 33/33/33 34/34/34 2/2/2
f 2/2/2 34/34/34 1/1/1
f 34/34/34 35/35/35 1/1/1
f 1/1/1 35/35/35 6/6/6
f 35/35/35 36/36/36 6/6/6
f 6/6/6 36/36/36 8/8/8
f 36/36/36 37/37/37 8/8/8
f 8/8/8 37/37/37 10/10/10
f 37/37/37 38/38/38 10/10/10
f 10/10/10 38/38/38 12/12/12
f 38/38/38 39/39/39 12/12/12
f 12/12/12 39/39/39 14/14/14
f 39/39/39 40/40/40 14/14/14
f 16/16/16 14/14/14 40/40/40
f 41/41/41 16/16/16 40/40/40
f 16/16/16 41/41/41 18/18/18
f 41/41/41 42/42/42 18/18/18
f 18/18/18 42/42/42 20/20/20
f 42/42/42 43/43/43 20/20/20
f 20/20/20 43/43/43 22/22/22
f 43/43/43 44/44/44 22/22/22
f 22/22/22 44/44/44 24/24/24
f 44/44/44 45/45/45 24/24/24
f 24/24/24 45/45/45 23/23/23
f 45/45/45 46/46/46 23/23/23
f 23/23/23 46/46/46 21/21/21
f 46/46/46 47/47/47 21/21/21
f 21/21/21 47/47/47 19/19/19
f 47/47/47 48/48/48 19/19/19
f 19/19/19 48/48/48 17/17/17
f 48/48/48 49/49/49 17/17/17
f 17/17/17 49/49/49 15/15/15
f 49/49/49 25/25/25 15/15/15
