g m_dlc7_map_cobble_05
v -0.1840613 0.05532605 0.08459007
v -0.191228 0.05532605 -0.09068466
v -0.1393286 0.09443966 -0.07784569
v -0.1323157 0.09443965 0.07162033
v -0.08307068 0.110641 -0.07358497
v -0.07627075 0.110641 0.06717796
v 0.09927185 0.110641 -0.0598526
v -0.09018188 0.09443966 -0.1270151
v 0.1060156 0.09443965 -0.113595
v -0.1098718 0.05532605 -0.172041
v 0.1257056 0.05532605 -0.1586212
v 0.1106226 0.110641 0.07396042
v 0.1179797 0.09443966 0.127015
v -0.08301514 0.09443965 0.1209204
v 0.1376685 0.05532605 0.1720412
v -0.1027051 0.05532605 0.1659466
v 0.1553162 0.09443966 -0.06429496
v 0.1670227 0.09443966 0.07800277
v 0.2070618 0.05532605 -0.07726471
v 0.2190253 0.05532605 0.09068466
v 0.1512512 6.285029E-09 0.1890147
v 0.1951965 0.05532605 0.1482123
v 0.2144543 7.197372E-09 0.162835
v 0.2406348 6.994629E-09 0.09963165
v -0.1162872 6.994629E-09 0.1829202
v -0.1794904 5.271315E-09 0.1567404
v -0.1602319 0.05532605 0.1421178
v -0.2056702 6.386401E-09 0.09353714
v 0.2286713 7.602858E-09 -0.0862117
v 0.183233 0.05532605 -0.1347923
v 0.2024914 5.676801E-09 -0.149415
v 0.1392883 5.271315E-09 -0.1755948
v -0.123454 6.487772E-09 -0.1890149
v -0.1673993 0.05532605 -0.1482124
v -0.1866577 6.487772E-09 -0.1628351
v -0.2128375 5.372686E-09 -0.09963165
v -0.1289307 0.08725102 0.1160912
v -0.1360974 0.08725102 -0.1221858
v 0.1519312 0.08725102 -0.1087657
v 0.1638947 0.08725102 0.1221857
vt 0.5449219 0.5009766
vt 0.5566406 0.5009766
vt 0.5551758 0.4973145
vt 0.5458984 0.4968262
vt 0.5551758 0.4938965
vt 0.5463867 0.4934082
vt 0.5541992 0.482666
vt 0.5581055 0.4943848
vt 0.5576172 0.4821777
vt 0.5620117 0.4958496
vt 0.5610352 0.4807129
vt 0.5463867 0.4819336
vt 0.5429688 0.4814453
vt 0.5429688 0.4938965
vt 0.5395508 0.4797363
vt 0.5395508 0.4953613
vt 0.5546875 0.479248
vt 0.5458984 0.4785156
vt 0.5556641 0.4753418
vt 0.5449219 0.4746094
vt 0.5361328 0.4782715
vt 0.5415039 0.4763184
vt 0.5390625 0.4736328
vt 0.543457 0.4711914
vt 0.5361328 0.4968262
vt 0.5390625 0.5014648
vt 0.5415039 0.4990234
vt 0.543457 0.5043945
vt 0.5571289 0.4716797
vt 0.5595703 0.4770508
vt 0.5620117 0.4743652
vt 0.5649414 0.4790039
vt 0.5654297 0.4973145
vt 0.5600586 0.4995117
vt 0.5625 0.5019531
vt 0.5576172 0.5048828
vt 0.543457 0.496582
vt 0.5581055 0.4970703
vt 0.5576172 0.4794922
vt 0.543457 0.4787598
vn -0.8082541 0.5805212 0.09859195
vn -0.8151445 0.5772153 -0.04860086
vn -0.4676563 0.8834454 -0.0286683
vn -0.4607093 0.8853342 0.06269224
vn -0.06023677 0.9947084 -0.08322662
vn -0.06194975 0.9947816 0.08106601
vn 0.0607082 0.9950148 -0.07912062
vn -0.008823629 0.8582645 -0.5131318
vn 0.06519672 0.8628591 -0.5012222
vn -0.02128912 0.5021051 -0.8645445
vn 0.0999447 0.5076752 -0.8557318
vn 0.06163241 0.9947103 0.08217514
vn 0.0239572 0.8592443 0.5110041
vn -0.04928664 0.8615506 0.5052735
vn 0.04217818 0.5039538 0.8627002
vn -0.07735038 0.5064685 0.858782
vn 0.4572723 0.8860323 -0.0764772
vn 0.4693711 0.8828259 0.01758729
vn 0.805037 0.5812057 -0.1188075
vn 0.8170521 0.575636 0.03269605
vn 0.07259137 0.3126765 0.9470817
vn 0.5823389 0.5648508 0.5846581
vn 0.6582316 0.3980124 0.6389972
vn 0.9238122 0.3779742 0.06088066
vn -0.1066354 0.3115641 0.9442229
vn -0.6582345 0.3980062 0.6389979
vn -0.5823658 0.5648334 0.584648
vn -0.9183521 0.3749276 0.126723
vn 0.9155101 0.3741722 -0.147772
vn 0.5823647 0.5648337 -0.5846488
vn 0.6582332 0.3980076 -0.6389984
vn 0.1288223 0.3109373 -0.9416596
vn -0.05284663 0.3134567 -0.9481309
vn -0.5823519 0.5648853 -0.5846118
vn -0.658231 0.3980108 -0.6389986
vn -0.9230528 0.3770787 -0.07606024
vn -0.3654511 0.8529414 0.3727419
vn -0.3655649 0.8529513 -0.3726075
vn 0.3654515 0.8529402 -0.3727443
vn 0.3657155 0.8527957 0.3728157
g m_dlc7_map_cobble_05_0
f 3/3/3 2/2/2 1/1/1
f 4/4/4 3/3/3 1/1/1
f 5/5/5 3/3/3 4/4/4
f 6/6/6 5/5/5 4/4/4
f 7/7/7 5/5/5 6/6/6
f 5/5/5 7/7/7 8/8/8
f 5/5/5 8/8/8 3/3/3
f 7/7/7 9/9/9 8/8/8
f 8/8/8 9/9/9 10/10/10
f 9/9/9 11/11/11 10/10/10
f 12/12/12 7/7/7 6/6/6
f 13/13/13 12/12/12 6/6/6
f 14/14/14 13/13/13 6/6/6
f 6/6/6 4/4/4 14/14/14
f 15/15/15 13/13/13 14/14/14
f 16/16/16 15/15/15 14/14/14
f 17/17/17 7/7/7 12/12/12
f 7/7/7 17/17/17 9/9/9
f 18/18/18 17/17/17 12/12/12
f 12/12/12 13/13/13 18/18/18
f 19/19/19 17/17/17 18/18/18
f 20/20/20 19/19/19 18/18/18
f 21/21/21 15/15/15 16/16/16
f 15/15/15 21/21/21 22/22/22
f 20/20/20 18/18/18 22/22/22
f 15/15/15 22/22/22 13/13/13
f 22/22/22 23/23/23 20/20/20
f 21/21/21 23/23/23 22/22/22
f 23/23/23 24/24/24 20/20/20
f 25/25/25 21/21/21 16/16/16
f 26/26/26 25/25/25 16/16/16
f 27/27/27 26/26/26 16/16/16
f 16/16/16 14/14/14 27/27/27
f 28/28/28 26/26/26 27/27/27
f 1/1/1 28/28/28 27/27/27
f 29/29/29 19/19/19 20/20/20
f 24/24/24 29/29/29 20/20/20
f 19/19/19 29/29/29 30/30/30
f 19/19/19 30/30/30 17/17/17
f 29/29/29 31/31/31 30/30/30
f 30/30/30 31/31/31 11/11/11
f 31/31/31 32/32/32 11/11/11
f 11/11/11 32/32/32 10/10/10
f 32/32/32 33/33/33 10/10/10
f 10/10/10 33/33/33 34/34/34
f 33/33/33 35/35/35 34/34/34
f 34/34/34 35/35/35 2/2/2
f 28/28/28 1/1/1 2/2/2
f 35/35/35 36/36/36 2/2/2
f 36/36/36 28/28/28 2/2/2
f 1/1/1 27/27/27 4/4/4
f 27/27/27 37/37/37 4/4/4
f 4/4/4 37/37/37 14/14/14
f 14/14/14 37/37/37 27/27/27
f 10/10/10 34/34/34 8/8/8
f 34/34/34 38/38/38 8/8/8
f 3/3/3 38/38/38 34/34/34
f 2/2/2 3/3/3 34/34/34
f 8/8/8 38/38/38 3/3/3
f 11/11/11 9/9/9 30/30/30
f 9/9/9 39/39/39 30/30/30
f 30/30/30 39/39/39 17/17/17
f 17/17/17 39/39/39 9/9/9
f 18/18/18 40/40/40 22/22/22
f 13/13/13 40/40/40 18/18/18
f 22/22/22 40/40/40 13/13/13
