g m_dlc07_map_plank_03
v -0.1717241 0.03788187 0.9594766
v -0.1717241 0.03788187 -0.9484121
v -0.09712479 0.1125552 -0.9195359
v -0.09712479 0.1125552 0.9306004
v 0.1026572 0.1125552 -0.9195359
v -0.124855 0.03788187 -0.9857802
v -0.124855 -0.07414686 -0.9857802
v -0.1717241 -0.07414686 -0.9484121
v 0.1303874 0.03788187 -0.9857802
v 0.1026572 0.1125552 0.9306004
v 0.1303874 0.03788187 1.007909
v -0.124855 0.03788187 1.007909
v -0.1717241 -0.07414686 0.9594766
v -0.124855 -0.07414686 1.007909
v 0.1772565 0.03788187 -0.9484121
v 0.1772565 0.03788187 0.9594766
v 0.1303874 -0.07414686 1.007909
v 0.1772565 -0.07414686 0.9594766
v 0.1772565 -0.07414686 -0.9484121
v 0.1303874 -0.07414686 -0.9857802
vt 0.421875 0.1477051
vt 0.4194336 0.01605225
vt 0.4125977 0.01863098
vt 0.4150391 0.1452637
vt 0.3996582 0.01885986
vt 0.4162598 0.0137558
vt 0.4196777 0.008506775
vt 0.4265137 0.01490021
vt 0.3959961 0.0138092
vt 0.4018555 0.1456299
vt 0.3981934 0.1512451
vt 0.4182129 0.1505127
vt 0.4289551 0.1485596
vt 0.4221191 0.1560059
vt 0.3928223 0.01638794
vt 0.3950195 0.1481934
vt 0.3952637 0.1558838
vt 0.3876953 0.149292
vt 0.385498 0.015625
vt 0.392334 0.009155273
vn -0.9433564 0.3312543 0.01869171
vn -0.9432479 0.3315738 -0.01850301
vn 0 1 0
vn 0 1 0
vn 0 1 0
vn -0.1045879 0.2761592 -0.9554043
vn -0.1227548 0 -0.9924371
vn -0.9997098 0 -0.02408702
vn 0.1045879 0.2761592 -0.9554043
vn 0 1 0
vn 0.1300538 0.3173724 0.9393407
vn -0.1300538 0.3173724 0.9393407
vn -0.9997131 0 0.02395087
vn -0.1582928 0 0.9873922
vn 0.9432479 0.3315737 -0.01850301
vn 0.9433564 0.3312542 0.01869171
vn 0.1582928 0 0.9873922
vn 0.9997131 0 0.02395087
vn 0.9997098 0 -0.02408702
vn 0.1227548 0 -0.9924371
g m_dlc07_map_plank_03_0
f 3/3/3 2/2/2 1/1/1
f 4/4/4 3/3/3 1/1/1
f 5/5/5 3/3/3 4/4/4
f 3/3/3 5/5/5 6/6/6
f 3/3/3 6/6/6 2/2/2
f 6/6/6 7/7/7 2/2/2
f 7/7/7 8/8/8 2/2/2
f 5/5/5 9/9/9 6/6/6
f 10/10/10 5/5/5 4/4/4
f 11/11/11 10/10/10 4/4/4
f 12/12/12 11/11/11 4/4/4
f 12/12/12 4/4/4 1/1/1
f 1/1/1 13/13/13 12/12/12
f 13/13/13 1/1/1 2/2/2
f 8/8/8 13/13/13 2/2/2
f 13/13/13 14/14/14 12/12/12
f 15/15/15 5/5/5 10/10/10
f 5/5/5 15/15/15 9/9/9
f 16/16/16 15/15/15 10/10/10
f 11/11/11 16/16/16 10/10/10
f 11/11/11 17/17/17 16/16/16
f 17/17/17 11/11/11 12/12/12
f 14/14/14 17/17/17 12/12/12
f 17/17/17 18/18/18 16/16/16
f 15/15/15 19/19/19 9/9/9
f 19/19/19 15/15/15 16/16/16
f 18/18/18 19/19/19 16/16/16
f 19/19/19 20/20/20 9/9/9
f 20/20/20 7/7/7 6/6/6
f 9/9/9 20/20/20 6/6/6
