g m_dlc07_map_crenellation_01
v 0.02564056 -0.09158066 0.6348846
v 0.02309265 -0.09158066 0.4182973
v 0 -0.06738663 0.4247189
v 0 -0.06828415 0.6463497
v 0 0.06828468 0.6463497
v 0 0.0671212 0.4249361
v 0.1873187 -0.09158066 0.3244457
v 0.2821796 -0.09158066 0.4887496
v 0.3507098 -0.09158066 0.2291476
v 0.4585519 -0.09158066 0.3869212
v 0.5370056 -0.09158066 0.3396478
v 0.0285321 -0.06828415 0.6628225
v 0.2941437 -0.06765289 0.5094718
v 0.2821796 -0.09158066 0.4887496
v 0.02564056 -0.09158066 0.6348846
v 0.4585519 -0.09158066 0.3869212
v 0.4706299 -0.06765267 0.4075774
v 0.5370056 -0.09158066 0.3396478
v 0.5597553 -0.06828415 0.3561209
v 0.4498504 0.06758713 0.4195744
v 0.5597553 0.06828468 0.3561209
v 0.5605286 0.06891602 0.3236215
v 0.5597553 -0.06828415 0.3231749
v 0.4585351 0.09158096 0.3868929
v 0.5370056 0.09158096 0.3396478
v 0.3148657 0.06765319 0.4975078
v 0.02775848 0.06891602 0.6632692
v 0 -0.06828415 0.6463497
v 0 0.06828468 0.6463497
v 0.02564056 0.09158096 0.6348846
v 0.2821796 0.09158096 0.4887496
v 0.4499078 0.2376532 0.4195413
v 0.4585522 0.2376532 0.3869215
v 0.4585351 0.09158096 0.3868929
v 0.3148657 0.2376532 0.4975078
v 0.2821796 0.09158096 0.4887496
v 0.2821796 0.2376532 0.4887496
v 0.3029016 0.2615811 0.4767857
v 0.4378296 0.2615811 0.3988852
v 0 0.06828468 0.6463497
v 0 0.0671212 0.4249361
v 0.02309265 0.09158096 0.4182973
v 0.02564056 0.09158096 0.6348846
v 0.1873187 0.09158096 0.3244457
v 0.2821796 0.09158096 0.4887496
v 0.5597553 -0.06828415 0.3231749
v 0.3680054 -0.06712066 0.2124682
v 0.3507098 -0.09158066 0.2291476
v 0.5370056 -0.09158066 0.3396478
v 0.3666141 0.06307632 0.2116648
v 0.330824 0.07158112 0.2139635
v 0.3336023 -0.06738663 0.2123595
v 0.1873187 -0.09158066 0.3244457
v 0.1753546 -0.06765289 0.3037235
v 0.02309265 -0.09158066 0.4182973
v 0.01710754 -0.06738663 0.3950876
v 0.5605286 0.06891602 0.3236215
v 0.5370056 0.09158096 0.3396478
v 0.3637711 0.09158096 0.2248208
v 0.196077 0.06765319 0.2917596
v 0.01729553 0.0671212 0.3949789
v 0 0.0671212 0.4249361
v 0 -0.06738663 0.4247189
v 0.1873187 0.09158096 0.3244457
v 0.02309265 0.09158096 0.4182973
v 0.196077 0.2376532 0.2917596
v 0.1873187 0.2376532 0.3244457
v 0.1873187 0.09158096 0.3244457
v 0.2080408 0.2615811 0.3124818
v 0.3420651 0.2615811 0.2351029
v 0.3299878 0.2376532 0.2144464
v 0.3637711 0.09158096 0.2248208
v 0.3627875 0.2376532 0.2231385
v 0.2080408 0.2615811 0.3124818
v 0.3029016 0.2615811 0.4767857
v 0.2821796 0.2376532 0.4887496
v 0.1873187 0.2376532 0.3244457
v 0.4378296 0.2615811 0.3988852
v 0.3420651 0.2615811 0.2351029
v 0.3627875 0.2376532 0.2231385
v 0.4585522 0.2376532 0.3869215
v 0.1873187 0.09158096 0.3244457
v 0.2821796 0.09158096 0.4887496
v 0.4585351 0.09158096 0.3868929
v 0.3637711 0.09158096 0.2248208
v 0.3637711 0.09158096 0.2248208
v 0.5370056 0.09158096 0.3396478
v 0.4585351 0.09158096 0.3868929
vt 0.2039795 0.8466797
vt 0.2344971 0.8579102
vt 0.2354736 0.8530273
vt 0.2043457 0.8413086
vt 0.2120361 0.8232422
vt 0.243042 0.8354492
vt 0.2384033 0.8847656
vt 0.2099609 0.8881836
vt 0.2425537 0.9111328
vt 0.2143555 0.9169922
vt 0.2165527 0.9301758
vt 0.08721924 0.8393555
vt 0.08581543 0.8833008
vt 0.09100342 0.8833008
vt 0.09234619 0.840332
vt 0.09210205 0.9121094
vt 0.08691406 0.9121094
vt 0.09234619 0.9262695
vt 0.08728027 0.9267578
vt 0.06549072 0.909668
vt 0.06817627 0.9272461
vt 0.06756592 0.9321289
vt 0.08837891 0.9311523
vt 0.06109619 0.9145508
vt 0.06323242 0.9277344
vt 0.0647583 0.8867188
vt 0.06713867 0.8393555
vt 0.0881958 0.8349609
vt 0.06640625 0.8344727
vt 0.06207275 0.8398438
vt 0.05987549 0.8823242
vt 0.03924561 0.909668
vt 0.0383606 0.9140625
vt 0.06109619 0.9145508
vt 0.03924561 0.8881836
vt 0.05987549 0.8823242
vt 0.0380249 0.8837891
vt 0.03421021 0.8876953
vt 0.03414917 0.9101563
vt 0.1506348 0.9892578
vt 0.1342773 0.9619141
vt 0.1293945 0.9633789
vt 0.1452637 0.9902344
vt 0.100708 0.9633789
vt 0.1005249 0.9902344
vt 0.09515381 0.8891602
vt 0.128418 0.8925781
vt 0.1308594 0.8881836
vt 0.09759521 0.8842773
vt 0.1275635 0.9106445
vt 0.1329346 0.9121094
vt 0.1330566 0.8925781
vt 0.1590576 0.8867188
vt 0.1595459 0.8916016
vt 0.1881104 0.8842773
vt 0.1870117 0.8891602
vt 0.09375 0.9091797
vt 0.09539795 0.9140625
vt 0.1273193 0.9150391
vt 0.1574707 0.9116211
vt 0.1888428 0.9082031
vt 0.1939697 0.9077148
vt 0.1921387 0.8881836
vt 0.1622314 0.9160156
vt 0.190918 0.9125977
vt 0.1552734 0.9360352
vt 0.1600342 0.9370117
vt 0.1622314 0.9160156
vt 0.1555176 0.940918
vt 0.1317139 0.9404297
vt 0.1324463 0.9355469
vt 0.1273193 0.9150391
vt 0.1275635 0.9360352
vt 0.07348633 0.9633789
vt 0.07330322 0.9902344
vt 0.07843018 0.9902344
vt 0.07861328 0.9633789
vt 0.04974365 0.9902344
vt 0.05007935 0.9628906
vt 0.04495239 0.9628906
vt 0.0446167 0.9902344
vt 0.100708 0.9633789
vt 0.1005249 0.9902344
vt 0.02252197 0.9897461
vt 0.02284241 0.9628906
vt 0.02284241 0.9628906
vt 0.008659363 0.9897461
vt 0.02252197 0.9897461
vn -0.04426168 -0.985988 0.1608378
vn -0.09738486 -0.9939597 -0.0506005
vn -0.9866153 -0.1517191 -0.05976215
vn -0.986236 -0.1227726 0.1107495
vn -0.9862387 0.1220241 0.11155
vn -0.9866235 0.1517216 -0.05962207
vn -0.04819558 -0.9953435 -0.08347729
vn 0.06226749 -0.9921871 0.108109
vn 0.006775016 -0.9884917 -0.1511238
vn 0.0688803 -0.9905227 0.1188282
vn 0.2887034 -0.9394187 -0.1847778
vn 0.4260531 -0.119449 0.8967779
vn 0.4943074 -0.1487575 0.8564645
vn 0.06226749 -0.9921871 0.108109
vn -0.04426168 -0.985988 0.1608378
vn 0.0688803 -0.9905227 0.1188282
vn 0.4941376 -0.1556247 0.8553414
vn 0.2887034 -0.9394187 -0.1847778
vn 0.6610569 -0.1083875 0.7424662
vn 0.5275575 0.02298575 0.8492083
vn 0.6597156 0.1168548 0.7423747
vn 0.5942471 0.09802977 -0.7982861
vn 0.5904393 -0.1235143 -0.7975748
vn 0.1417579 0.9595903 0.2430867
vn 0.3284164 0.9256056 -0.1881408
vn 0.4791913 0.04747529 0.8764256
vn 0.4260022 0.1220584 0.8964507
vn -0.986236 -0.1227726 0.1107495
vn -0.9862387 0.1220241 0.11155
vn -0.04071095 0.9854511 0.1650118
vn 0.08843131 0.9842031 0.1533763
vn 0.5929224 0.1129121 0.7973041
vn 0.9057918 0.1290114 -0.4036056
vn 0.9324241 -5.298286E-05 -0.3613657
vn 0.3942288 0.1131033 0.9120259
vn -0.7763968 0 0.6302444
vn -0.7996545 0.1287278 0.5864996
vn -0.05561753 0.9871273 0.1499545
vn 0.1580277 0.9870834 0.0263366
vn -0.9862387 0.1220241 0.11155
vn -0.9866235 0.1517216 -0.05962207
vn -0.0991428 0.9936214 -0.05373153
vn -0.04071095 0.9854511 0.1650118
vn -0.06279092 0.9920611 -0.1089593
vn 0.08843131 0.9842031 0.1533763
vn 0.5904393 -0.1235143 -0.7975748
vn 0.438045 -0.1514872 -0.8860971
vn 0.006775016 -0.9884917 -0.1511238
vn 0.2887034 -0.9394187 -0.1847778
vn 0.4328014 0.09825013 -0.8961194
vn -0.4266525 0.002270185 -0.9044127
vn -0.4296812 -0.1549151 -0.8895929
vn -0.04819558 -0.9953435 -0.08347729
vn -0.4945292 -0.1475152 -0.8565512
vn -0.09738486 -0.9939597 -0.0506005
vn -0.5527145 -0.1414399 -0.8212803
vn 0.5942471 0.09802977 -0.7982861
vn 0.3284164 0.9256056 -0.1881408
vn 0.3272584 0.7504689 -0.5741937
vn -0.5242422 0.03530889 -0.8508369
vn -0.5514687 0.1488688 -0.8208047
vn -0.9866235 0.1517216 -0.05962207
vn -0.9866153 -0.1517191 -0.05976215
vn -0.06279092 0.9920611 -0.1089593
vn -0.0991428 0.9936214 -0.05373153
vn -0.5939477 0.1138311 -0.7964098
vn -0.9077509 0.128728 0.3992709
vn -0.9340062 0 0.3572567
vn -0.1574325 0.9871821 -0.02619857
vn 0.05544186 0.9872255 -0.1493719
vn -0.3899603 0.113732 -0.9137812
vn 0.7804967 -0.0004332355 -0.6251597
vn 0.7975211 0.1294859 -0.5892312
vn -0.1574325 0.9871821 -0.02619857
vn -0.05561753 0.9871273 0.1499545
vn -0.7996545 0.1287278 0.5864996
vn -0.9077509 0.128728 0.3992709
vn 0.1580277 0.9870834 0.0263366
vn 0.05544186 0.9872255 -0.1493719
vn 0.7975211 0.1294859 -0.5892312
vn 0.9057918 0.1290114 -0.4036056
vn -0.9340062 0 0.3572567
vn -0.7763968 0 0.6302444
vn 0.9324241 -5.298286E-05 -0.3613657
vn 0.7804967 -0.0004332355 -0.6251597
vn 0.3272584 0.7504689 -0.5741937
vn 0.3284164 0.9256056 -0.1881408
vn 0.1417579 0.9595903 0.2430867
g m_dlc07_map_crenellation_01_0
f 3/3/3 2/2/2 1/1/1
f 4/4/4 3/3/3 1/1/1
f 3/3/3 4/4/4 5/5/5
f 6/6/6 3/3/3 5/5/5
f 1/1/1 2/2/2 7/7/7
f 8/8/8 1/1/1 7/7/7
f 8/8/8 7/7/7 9/9/9
f 10/10/10 8/8/8 9/9/9
f 10/10/10 9/9/9 11/11/11
f 14/14/14 13/13/13 12/12/12
f 15/15/15 14/14/14 12/12/12
f 14/14/14 16/16/16 13/13/13
f 16/16/16 17/17/17 13/13/13
f 17/17/17 16/16/16 18/18/18
f 19/19/19 17/17/17 18/18/18
f 17/17/17 19/19/19 20/20/20
f 19/19/19 21/21/21 20/20/20
f 22/22/22 21/21/21 19/19/19
f 23/23/23 22/22/22 19/19/19
f 23/23/23 19/19/19 18/18/18
f 24/24/24 20/20/20 21/21/21
f 25/25/25 24/24/24 21/21/21
f 22/22/22 25/25/25 21/21/21
f 13/13/13 26/26/26 12/12/12
f 17/17/17 20/20/20 26/26/26
f 13/13/13 17/17/17 26/26/26
f 26/26/26 27/27/27 12/12/12
f 12/12/12 27/27/27 28/28/28
f 12/12/12 28/28/28 15/15/15
f 27/27/27 29/29/29 28/28/28
f 27/27/27 26/26/26 30/30/30
f 27/27/27 30/30/30 29/29/29
f 26/26/26 31/31/31 30/30/30
f 20/20/20 32/32/32 26/26/26
f 33/33/33 32/32/32 20/20/20
f 34/34/34 33/33/33 20/20/20
f 32/32/32 35/35/35 26/26/26
f 26/26/26 35/35/35 36/36/36
f 35/35/35 37/37/37 36/36/36
f 35/35/35 32/32/32 38/38/38
f 37/37/37 35/35/35 38/38/38
f 32/32/32 39/39/39 38/38/38
f 32/32/32 33/33/33 39/39/39
f 42/42/42 41/41/41 40/40/40
f 43/43/43 42/42/42 40/40/40
f 44/44/44 42/42/42 43/43/43
f 45/45/45 44/44/44 43/43/43
f 48/48/48 47/47/47 46/46/46
f 49/49/49 48/48/48 46/46/46
f 46/46/46 47/47/47 50/50/50
f 50/50/50 47/47/47 51/51/51
f 47/47/47 52/52/52 51/51/51
f 47/47/47 48/48/48 52/52/52
f 48/48/48 53/53/53 52/52/52
f 53/53/53 54/54/54 52/52/52
f 51/51/51 52/52/52 54/54/54
f 54/54/54 53/53/53 55/55/55
f 56/56/56 54/54/54 55/55/55
f 57/57/57 46/46/46 50/50/50
f 57/57/57 50/50/50 58/58/58
f 50/50/50 59/59/59 58/58/58
f 50/50/50 51/51/51 59/59/59
f 60/60/60 51/51/51 54/54/54
f 60/60/60 54/54/54 56/56/56
f 61/61/61 60/60/60 56/56/56
f 61/61/61 56/56/56 62/62/62
f 56/56/56 63/63/63 62/62/62
f 63/63/63 56/56/56 55/55/55
f 64/64/64 60/60/60 61/61/61
f 65/65/65 64/64/64 61/61/61
f 65/65/65 61/61/61 62/62/62
f 60/60/60 66/66/66 51/51/51
f 67/67/67 66/66/66 60/60/60
f 68/68/68 67/67/67 60/60/60
f 67/67/67 69/69/69 66/66/66
f 69/69/69 70/70/70 66/66/66
f 70/70/70 71/71/71 66/66/66
f 66/66/66 71/71/71 51/51/51
f 51/51/51 71/71/71 72/72/72
f 71/71/71 73/73/73 72/72/72
f 73/73/73 71/71/71 70/70/70
f 76/76/76 75/75/75 74/74/74
f 77/77/77 76/76/76 74/74/74
f 75/75/75 78/78/78 74/74/74
f 78/78/78 79/79/79 74/74/74
f 80/80/80 79/79/79 78/78/78
f 81/81/81 80/80/80 78/78/78
f 76/76/76 77/77/77 82/82/82
f 83/83/83 76/76/76 82/82/82
f 80/80/80 81/81/81 84/84/84
f 85/85/85 80/80/80 84/84/84
f 88/88/88 87/87/87 86/86/86
