g m_dlc08_map_rope_05
v -0.0841806 0.06956255 -0.08865569
v -0.1081121 0.09537803 -0.1132914
v -0.009272233 0.09358512 -0.1574039
v -0.007691126 0.06817507 -0.1227931
v -0.1268304 0.05826632 -0.0174425
v -0.1632243 0.08078097 -0.02126948
v -0.1193497 0.0386011 0.06364543
v -0.1535578 0.05536959 0.08351254
v -0.06459601 0.01807848 0.1236353
v -0.08280488 0.02885016 0.1610315
v 0.01651677 0.004537263 0.1396129
v 0.02200925 0.01135214 0.1816779
v 0.09300624 0.003149782 0.1054754
v 0.1208492 0.009559274 0.1375654
v 0.135656 0.01444598 0.03426225
v 0.1759613 0.02415629 0.04554351
v 0.1281754 0.0341112 -0.04682566
v 0.1662948 0.04956767 -0.05923853
v 0.07342166 0.05463385 -0.1068155
v 0.0955419 0.07608713 -0.1367575
v -0.007691126 0.06817507 -0.1227931
v -0.009272233 0.09358512 -0.1574039
v -0.1925232 0.04106246 0.09662598
v -0.204435 0.07237631 -0.0324944
v -0.1053361 0.008383203 0.1921508
v 0.02382386 -0.01317914 0.2175928
v 0.1456219 -0.0153885 0.163234
v 0.2135353 0.002599054 0.04983762
v 0.2016235 0.03391291 -0.07928272
v 0.1144364 0.06659216 -0.1748075
v -0.01472356 0.08815455 -0.2002495
v -0.22541 0.03763064 -0.04440138
v -0.1521591 0.05703188 -0.16671
v -0.1365216 0.09036388 -0.1458908
v -0.01472356 0.08815455 -0.2002495
v -0.02078851 0.05464892 -0.225341
v -0.1185226 -0.03139192 0.1978994
v -0.212562 0.00385573 0.09486701
v 0.212562 -0.003855719 -0.09486699
v 0.2254099 -0.03763063 0.04440137
v 0.152159 -0.05703191 0.16671
v 0.02078851 -0.05464891 0.225341
v -0.2016235 -0.0339129 0.07928275
v -0.2135353 -0.002599081 -0.04983763
v -0.1456219 0.01538851 -0.163234
v -0.0238239 0.01317915 -0.2175928
v 0.01472356 -0.08815453 0.2002496
v -0.1144364 -0.06659219 0.1748076
v 0.1365216 -0.09036385 0.1458908
v 0.204435 -0.0723763 0.0324944
v 0.1925232 -0.04106248 -0.09662595
v 0.1185226 0.03139189 -0.1978993
v -0.02078851 0.05464892 -0.225341
v 0.1053361 -0.008383192 -0.1921507
v -0.0238239 0.01317915 -0.2175928
v -0.09554192 -0.07608712 0.1367575
v -0.1662949 -0.04956765 0.05923854
v -0.1759614 -0.02415628 -0.04554348
v -0.1208492 -0.009559263 -0.1375654
v -0.02200928 -0.01135213 -0.1816779
v 0.1535578 -0.05536958 -0.08351252
v 0.1632243 -0.08078095 0.02126949
v 0.1081121 -0.095378 0.1132914
v 0.009272241 -0.0935851 0.1574039
v -0.01651677 -0.004537215 -0.1396129
v -0.09300627 -0.003149733 -0.1054755
v -0.1356561 -0.01444601 -0.03426223
v -0.1281754 -0.03411115 0.04682571
v -0.07342166 -0.05463384 0.1068155
v 0.007691106 -0.06817506 0.1227932
v 0.08418059 -0.0695625 0.08865569
v 0.1268304 -0.05826627 0.01744251
v 0.1193497 -0.03860113 -0.06364542
v 0.08280486 -0.02885015 -0.1610315
v -0.02200928 -0.01135213 -0.1816779
v 0.06459601 -0.01807844 -0.1236352
v -0.01651677 -0.004537215 -0.1396129
v -0.0841806 0.06956255 -0.08865569
v -0.007691126 0.06817507 -0.1227931
v -0.01651677 -0.004537215 -0.1396129
v -0.09300627 -0.003149733 -0.1054755
v -0.1268304 0.05826632 -0.0174425
v -0.1356561 -0.01444601 -0.03426223
v -0.1193497 0.0386011 0.06364543
v -0.1281754 -0.03411115 0.04682571
v -0.06459601 0.01807848 0.1236353
v -0.07342166 -0.05463384 0.1068155
v 0.01651677 0.004537263 0.1396129
v 0.007691106 -0.06817506 0.1227932
v 0.09300624 0.003149782 0.1054754
v 0.08418059 -0.0695625 0.08865569
v 0.135656 0.01444598 0.03426225
v 0.1268304 -0.05826627 0.01744251
v 0.1281754 0.0341112 -0.04682566
v 0.1193497 -0.03860113 -0.06364542
v 0.07342166 0.05463385 -0.1068155
v 0.06459601 -0.01807844 -0.1236352
v -0.007691126 0.06817507 -0.1227931
v -0.01651677 -0.004537215 -0.1396129
vt 0.006721497 -1.045898
vt 0.1694336 -1.047852
vt 0.1688232 -1.420898
vt 0.006057739 -1.418945
vt 0.007381439 -0.6728516
vt 0.170166 -0.6748047
vt 0.008033752 -0.2995605
vt 0.1707764 -0.302002
vt 0.008705139 0.07330322
vt 0.1715088 0.07092285
vt 0.009361267 0.4462891
vt 0.1721191 0.4438477
vt 0.01002502 0.8193359
vt 0.1727295 0.8168945
vt 0.01068878 1.192383
vt 0.1734619 1.189453
vt 0.01135254 1.56543
vt 0.1740723 1.5625
vt 0.01200867 1.938477
vt 0.1748047 1.935547
vt 0.01268005 2.310547
vt 0.175415 2.308594
vt 0.3334961 -0.3044434
vt 0.3327637 -0.6772461
vt 0.3342285 0.06854248
vt 0.3349609 0.4414063
vt 0.3354492 0.8144531
vt 0.3361816 1.1875
vt 0.3369141 1.560547
vt 0.3374023 1.933594
vt 0.3381348 2.306641
vt 0.4956055 -0.6796875
vt 0.494873 -1.052734
vt 0.3322754 -1.050781
vt 0.331543 -1.422852
vt 0.4943848 -1.425781
vt 0.4970703 0.06616211
vt 0.4963379 -0.3068848
vt 0.4995117 1.557617
vt 0.4990234 1.18457
vt 0.498291 0.8120117
vt 0.4975586 0.439209
vt 0.6591797 -0.309082
vt 0.6582031 -0.6821289
vt 0.6577148 -1.054688
vt 0.6572266 -1.427734
vt 0.6601563 0.4367676
vt 0.659668 0.06378174
vt 0.6611328 0.8095703
vt 0.6616211 1.182617
vt 0.6625977 1.555664
vt 0.5004883 1.930664
vt 0.5009766 2.304688
vt 0.6630859 1.928711
vt 0.6635742 2.300781
vt 0.8222656 0.06143188
vt 0.8217773 -0.3115234
vt 0.8212891 -0.6845703
vt 0.8203125 -1.057617
vt 0.8198242 -1.430664
vt 0.8251953 1.553711
vt 0.8242188 1.180664
vt 0.8237305 0.8071289
vt 0.8232422 0.4343262
vt 0.9824219 -1.432617
vt 0.9833984 -1.05957
vt 0.9838867 -0.6870117
vt 0.984375 -0.3139648
vt 0.9853516 0.05908203
vt 0.9858398 0.4321289
vt 0.9863281 0.8051758
vt 0.9873047 1.177734
vt 0.987793 1.550781
vt 0.8256836 1.925781
vt 0.8266602 2.298828
vt 0.9882813 1.923828
vt 0.9892578 2.296875
vt 0.006721497 -1.045898
vt 0.006057739 -1.418945
vt 0.9824219 -1.432617
vt 0.9833984 -1.05957
vt 0.007381439 -0.6728516
vt 0.9838867 -0.6870117
vt 0.008033752 -0.2995605
vt 0.984375 -0.3139648
vt 0.008705139 0.07330322
vt 0.9853516 0.05908203
vt 0.009361267 0.4462891
vt 0.9858398 0.4321289
vt 0.01002502 0.8193359
vt 0.9863281 0.8051758
vt 0.01068878 1.192383
vt 0.9873047 1.177734
vt 0.01135254 1.56543
vt 0.987793 1.550781
vt 0.01200867 1.938477
vt 0.9882813 1.923828
vt 0.01268005 2.310547
vt 0.9892578 2.296875
vn 0.6293191 0.251467 0.7353378
vn 0.05025948 0.9874513 0.1497128
vn 0.1077315 0.9864088 0.1240628
vn 0.1348286 0.2604367 0.9560304
vn 0.905042 0.3244951 0.2749579
vn 0.01821366 0.9789636 0.2032204
vn 0.8566812 0.4516266 -0.2492606
vn 0.02383446 0.9641879 0.264147
vn 0.5027083 0.5843021 -0.6370836
vn 0.06497488 0.9487678 0.3092213
vn -0.02167067 0.6718433 -0.7403762
vn 0.1259208 0.9385933 0.3212266
vn -0.5161608 0.6808132 -0.5196839
vn 0.1833928 0.9375508 0.2955768
vn -0.7918839 0.6077853 -0.05930363
vn 0.2154384 0.9460383 0.2420697
vn -0.7435229 0.4806537 0.4649148
vn 0.2098177 0.9608142 0.1811426
vn -0.3895505 0.347978 0.8527377
vn 0.1686773 0.9762344 0.1360679
vn 0.1348286 0.2604367 0.9560304
vn 0.1077315 0.9864088 0.1240628
vn -0.6027448 0.6568716 0.4530105
vn -0.6439053 0.7650746 0.006843107
vn -0.3014748 0.5439505 0.7830905
vn 0.1448293 0.4694429 0.8710039
vn 0.5656949 0.4618083 0.6831707
vn 0.800366 0.523963 0.2913365
vn 0.7592054 0.6321664 -0.1548313
vn 0.4579354 0.7450879 -0.4849115
vn 0.01163105 0.8195953 -0.5728248
vn -0.9682437 0.1616416 -0.1907252
vn -0.6535957 0.2449794 -0.716099
vn -0.4092346 0.8272296 -0.3849912
vn 0.01163105 0.8195953 -0.5728248
vn -0.08929646 0.2347434 -0.9679471
vn -0.5091108 -0.1348433 0.8500726
vn -0.9130553 0.01656223 0.4074992
vn 0.9130554 -0.01656227 -0.4074992
vn 0.9682437 -0.1616418 0.190725
vn 0.6535958 -0.2449794 0.716099
vn 0.08929657 -0.2347431 0.9679472
vn -0.7592052 -0.6321666 0.1548313
vn -0.8003657 -0.5239637 -0.2913361
vn -0.5656951 -0.4618087 -0.6831704
vn -0.1448293 -0.4694429 -0.8710039
vn -0.01163106 -0.8195955 0.5728247
vn -0.4579352 -0.745088 0.4849116
vn 0.4092348 -0.8272296 0.3849909
vn 0.6439054 -0.7650746 -0.006842893
vn 0.6027449 -0.6568715 -0.4530104
vn 0.509111 0.1348432 -0.8500725
vn -0.08929646 0.2347434 -0.9679471
vn 0.3014749 -0.5439503 -0.7830907
vn -0.1448293 -0.4694429 -0.8710039
vn -0.1686773 -0.9762344 -0.136068
vn -0.2098175 -0.9608142 -0.1811425
vn -0.2154381 -0.9460384 -0.2420695
vn -0.1833924 -0.9375508 -0.295577
vn -0.1259207 -0.9385933 -0.3212267
vn -0.02383465 -0.9641879 -0.2641471
vn -0.01821405 -0.9789637 -0.2032199
vn -0.05025966 -0.9874513 -0.1497126
vn -0.1077316 -0.9864088 -0.124063
vn 0.02167041 -0.6718433 0.7403762
vn 0.5161611 -0.6808131 0.5196839
vn 0.7918842 -0.607785 0.0593032
vn 0.7435231 -0.4806533 -0.4649149
vn 0.3895503 -0.3479781 -0.8527378
vn -0.1348287 -0.2604368 -0.9560302
vn -0.6293191 -0.2514668 -0.7353379
vn -0.9050421 -0.3244951 -0.2749579
vn -0.856681 -0.4516268 0.2492605
vn -0.06497493 -0.9487679 -0.3092212
vn -0.1259207 -0.9385933 -0.3212267
vn -0.5027086 -0.5843018 0.6370836
vn 0.02167041 -0.6718433 0.7403762
vn 0.6293191 0.251467 0.7353378
vn 0.1348286 0.2604367 0.9560304
vn 0.02167041 -0.6718433 0.7403762
vn 0.5161611 -0.6808131 0.5196839
vn 0.905042 0.3244951 0.2749579
vn 0.7918842 -0.607785 0.0593032
vn 0.8566812 0.4516266 -0.2492606
vn 0.7435231 -0.4806533 -0.4649149
vn 0.5027083 0.5843021 -0.6370836
vn 0.3895503 -0.3479781 -0.8527378
vn -0.02167067 0.6718433 -0.7403762
vn -0.1348287 -0.2604368 -0.9560302
vn -0.5161608 0.6808132 -0.5196839
vn -0.6293191 -0.2514668 -0.7353379
vn -0.7918839 0.6077853 -0.05930363
vn -0.9050421 -0.3244951 -0.2749579
vn -0.7435229 0.4806537 0.4649148
vn -0.856681 -0.4516268 0.2492605
vn -0.3895505 0.347978 0.8527377
vn -0.5027086 -0.5843018 0.6370836
vn 0.1348286 0.2604367 0.9560304
vn 0.02167041 -0.6718433 0.7403762
g m_dlc08_map_rope_05_0
f 3/3/3 2/2/2 1/1/1
f 4/4/4 3/3/3 1/1/1
f 1/1/1 2/2/2 5/5/5
f 2/2/2 6/6/6 5/5/5
f 5/5/5 6/6/6 7/7/7
f 6/6/6 8/8/8 7/7/7
f 7/7/7 8/8/8 9/9/9
f 8/8/8 10/10/10 9/9/9
f 9/9/9 10/10/10 11/11/11
f 10/10/10 12/12/12 11/11/11
f 11/11/11 12/12/12 13/13/13
f 12/12/12 14/14/14 13/13/13
f 13/13/13 14/14/14 15/15/15
f 14/14/14 16/16/16 15/15/15
f 15/15/15 16/16/16 17/17/17
f 16/16/16 18/18/18 17/17/17
f 17/17/17 18/18/18 19/19/19
f 18/18/18 20/20/20 19/19/19
f 19/19/19 20/20/20 21/21/21
f 20/20/20 22/22/22 21/21/21
f 8/8/8 23/23/23 10/10/10
f 24/24/24 23/23/23 8/8/8
f 23/23/23 25/25/25 10/10/10
f 10/10/10 25/25/25 12/12/12
f 25/25/25 26/26/26 12/12/12
f 12/12/12 26/26/26 14/14/14
f 26/26/26 27/27/27 14/14/14
f 14/14/14 27/27/27 16/16/16
f 27/27/27 28/28/28 16/16/16
f 16/16/16 28/28/28 18/18/18
f 28/28/28 29/29/29 18/18/18
f 18/18/18 29/29/29 20/20/20
f 29/29/29 30/30/30 20/20/20
f 20/20/20 30/30/30 22/22/22
f 30/30/30 31/31/31 22/22/22
f 24/24/24 32/32/32 23/23/23
f 33/33/33 32/32/32 24/24/24
f 34/34/34 33/33/33 24/24/24
f 34/34/34 24/24/24 6/6/6
f 2/2/2 34/34/34 6/6/6
f 35/35/35 34/34/34 2/2/2
f 3/3/3 35/35/35 2/2/2
f 6/6/6 24/24/24 8/8/8
f 36/36/36 33/33/33 34/34/34
f 35/35/35 36/36/36 34/34/34
f 25/25/25 37/37/37 26/26/26
f 38/38/38 37/37/37 25/25/25
f 32/32/32 38/38/38 23/23/23
f 23/23/23 38/38/38 25/25/25
f 29/29/29 39/39/39 30/30/30
f 40/40/40 39/39/39 29/29/29
f 28/28/28 40/40/40 29/29/29
f 41/41/41 40/40/40 28/28/28
f 27/27/27 41/41/41 28/28/28
f 42/42/42 41/41/41 27/27/27
f 37/37/37 42/42/42 26/26/26
f 26/26/26 42/42/42 27/27/27
f 38/38/38 43/43/43 37/37/37
f 44/44/44 43/43/43 38/38/38
f 32/32/32 44/44/44 38/38/38
f 45/45/45 44/44/44 32/32/32
f 33/33/33 45/45/45 32/32/32
f 46/46/46 45/45/45 33/33/33
f 36/36/36 46/46/46 33/33/33
f 42/42/42 47/47/47 41/41/41
f 48/48/48 47/47/47 42/42/42
f 43/43/43 48/48/48 37/37/37
f 37/37/37 48/48/48 42/42/42
f 47/47/47 49/49/49 41/41/41
f 41/41/41 49/49/49 40/40/40
f 49/49/49 50/50/50 40/40/40
f 40/40/40 50/50/50 39/39/39
f 50/50/50 51/51/51 39/39/39
f 39/39/39 51/51/51 52/52/52
f 39/39/39 52/52/52 30/30/30
f 30/30/30 52/52/52 31/31/31
f 52/52/52 53/53/53 31/31/31
f 51/51/51 54/54/54 52/52/52
f 52/52/52 54/54/54 53/53/53
f 54/54/54 55/55/55 53/53/53
f 48/48/48 56/56/56 47/47/47
f 57/57/57 56/56/56 48/48/48
f 43/43/43 57/57/57 48/48/48
f 58/58/58 57/57/57 43/43/43
f 44/44/44 58/58/58 43/43/43
f 59/59/59 58/58/58 44/44/44
f 45/45/45 59/59/59 44/44/44
f 60/60/60 59/59/59 45/45/45
f 46/46/46 60/60/60 45/45/45
f 51/51/51 61/61/61 54/54/54
f 62/62/62 61/61/61 51/51/51
f 50/50/50 62/62/62 51/51/51
f 63/63/63 62/62/62 50/50/50
f 49/49/49 63/63/63 50/50/50
f 64/64/64 63/63/63 49/49/49
f 56/56/56 64/64/64 47/47/47
f 47/47/47 64/64/64 49/49/49
f 60/60/60 65/65/65 59/59/59
f 65/65/65 66/66/66 59/59/59
f 59/59/59 66/66/66 58/58/58
f 66/66/66 67/67/67 58/58/58
f 58/58/58 67/67/67 57/57/57
f 67/67/67 68/68/68 57/57/57
f 57/57/57 68/68/68 56/56/56
f 68/68/68 69/69/69 56/56/56
f 56/56/56 69/69/69 64/64/64
f 69/69/69 70/70/70 64/64/64
f 64/64/64 70/70/70 63/63/63
f 70/70/70 71/71/71 63/63/63
f 63/63/63 71/71/71 62/62/62
f 71/71/71 72/72/72 62/62/62
f 72/72/72 73/73/73 61/61/61
f 62/62/62 72/72/72 61/61/61
f 61/61/61 73/73/73 74/74/74
f 61/61/61 74/74/74 54/54/54
f 54/54/54 74/74/74 55/55/55
f 74/74/74 75/75/75 55/55/55
f 73/73/73 76/76/76 74/74/74
f 74/74/74 76/76/76 75/75/75
f 76/76/76 77/77/77 75/75/75
f 80/80/80 79/79/79 78/78/78
f 81/81/81 80/80/80 78/78/78
f 81/81/81 78/78/78 82/82/82
f 83/83/83 81/81/81 82/82/82
f 83/83/83 82/82/82 84/84/84
f 85/85/85 83/83/83 84/84/84
f 85/85/85 84/84/84 86/86/86
f 87/87/87 85/85/85 86/86/86
f 87/87/87 86/86/86 88/88/88
f 89/89/89 87/87/87 88/88/88
f 89/89/89 88/88/88 90/90/90
f 91/91/91 89/89/89 90/90/90
f 91/91/91 90/90/90 92/92/92
f 93/93/93 91/91/91 92/92/92
f 93/93/93 92/92/92 94/94/94
f 95/95/95 93/93/93 94/94/94
f 95/95/95 94/94/94 96/96/96
f 97/97/97 95/95/95 96/96/96
f 97/97/97 96/96/96 98/98/98
f 99/99/99 97/97/97 98/98/98
