g m_dlc08_map_rope_06
v -0.04674149 -0.02634072 -0.1300252
v -0.05853038 -0.02972998 -0.171203
v 0.04227234 -0.06864981 -0.1646827
v 0.03126696 -0.05645968 -0.1249793
v -0.1021677 0.02473705 -0.09346117
v -0.1301523 0.03627281 -0.1239548
v -0.1138408 0.07726364 -0.02925346
v -0.1452362 0.1041477 -0.04098547
v -0.07730195 0.1111756 0.03807277
v -0.0980207 0.147969 0.04601366
v -0.006507846 0.1135199 0.08280117
v -0.006540385 0.1509982 0.1038118
v 0.07150058 0.08340091 0.08784704
v 0.09426234 0.1120784 0.1103321
v 0.1269268 0.03232314 0.05128302
v 0.1658842 0.04607559 0.06308398
v 0.1385999 -0.0202034 -0.01292469
v 0.1809682 -0.02179936 -0.0198854
v 0.1020611 -0.05411543 -0.08025091
v 0.1337527 -0.06562056 -0.1068845
v 0.03126696 -0.05645968 -0.1249793
v 0.04227234 -0.06864981 -0.1646827
v -0.1882221 0.1070189 -0.03474599
v -0.1696345 0.02337818 -0.1369871
v -0.1300395 0.1610187 0.07246095
v -0.01731053 0.1647515 0.1436842
v 0.1069062 0.1167916 0.151719
v 0.1951642 0.03545791 0.09349629
v 0.2137518 -0.04818276 -0.008744867
v 0.1555692 -0.1021826 -0.1159518
v 0.04284021 -0.1059155 -0.1871751
v -0.1967347 -0.006514554 -0.1242989
v -0.1015403 -0.09424052 -0.1870976
v -0.08137656 -0.05795548 -0.1952099
v 0.04284021 -0.1059155 -0.1871751
v 0.03243909 -0.1459698 -0.1784313
v -0.1540278 0.1419436 0.1016104
v -0.2167832 0.08369975 -0.01402231
v 0.2167832 -0.08369973 0.01402231
v 0.1967347 0.006514563 0.1242989
v 0.1015403 0.09424052 0.1870976
v -0.03243907 0.1459698 0.1784313
v -0.2137518 0.04818279 0.008744871
v -0.1951642 -0.03545792 -0.09349629
v -0.1069063 -0.1167916 -0.151719
v 0.01731051 -0.1647515 -0.1436843
v -0.04284022 0.1059154 0.1871751
v -0.1555692 0.1021826 0.1159518
v 0.08137653 0.05795547 0.1952099
v 0.1696345 -0.02337819 0.1369871
v 0.1882221 -0.1070189 0.034746
v 0.1540278 -0.1419436 -0.1016103
v 0.03243909 -0.1459698 -0.1784313
v 0.1300395 -0.1610187 -0.07246091
v 0.01731051 -0.1647515 -0.1436843
v -0.1337527 0.06562061 0.1068845
v -0.1809682 0.02179939 0.01988539
v -0.1658843 -0.04607562 -0.06308398
v -0.09426235 -0.1120784 -0.1103321
v 0.006540365 -0.1509982 -0.1038119
v 0.1452362 -0.1041478 0.04098548
v 0.1301523 -0.0362728 0.1239548
v 0.05853037 0.02972999 0.171203
v -0.04227235 0.06864982 0.1646827
v 0.006507854 -0.1135199 -0.08280121
v -0.07150061 -0.08340093 -0.08784708
v -0.1269268 -0.03232314 -0.05128303
v -0.1385999 0.02020343 0.01292469
v -0.1020611 0.05411548 0.08025091
v -0.03126696 0.05645969 0.1249793
v 0.04674149 0.02634071 0.1300252
v 0.1021677 -0.02473702 0.09346117
v 0.1138408 -0.07726361 0.02925346
v 0.0980207 -0.147969 -0.04601363
v 0.006540365 -0.1509982 -0.1038119
v 0.07730196 -0.1111756 -0.03807277
v 0.006507854 -0.1135199 -0.08280121
v -0.04674149 -0.02634072 -0.1300252
v 0.03126696 -0.05645968 -0.1249793
v 0.006507854 -0.1135199 -0.08280121
v -0.07150061 -0.08340093 -0.08784708
v -0.1021677 0.02473705 -0.09346117
v -0.1269268 -0.03232314 -0.05128303
v -0.1138408 0.07726364 -0.02925346
v -0.1385999 0.02020343 0.01292469
v -0.07730195 0.1111756 0.03807277
v -0.1020611 0.05411548 0.08025091
v -0.006507846 0.1135199 0.08280117
v -0.03126696 0.05645969 0.1249793
v 0.07150058 0.08340091 0.08784704
v 0.04674149 0.02634071 0.1300252
v 0.1269268 0.03232314 0.05128302
v 0.1021677 -0.02473702 0.09346117
v 0.1385999 -0.0202034 -0.01292469
v 0.1138408 -0.07726361 0.02925346
v 0.1020611 -0.05411543 -0.08025091
v 0.07730196 -0.1111756 -0.03807277
v 0.03126696 -0.05645968 -0.1249793
v 0.006507854 -0.1135199 -0.08280121
vt 0.006721497 -1.045898
vt 0.1694336 -1.047852
vt 0.1688232 -1.420898
vt 0.006057739 -1.418945
vt 0.007381439 -0.6728516
vt 0.170166 -0.6748047
vt 0.008033752 -0.2995605
vt 0.1707764 -0.302002
vt 0.008705139 0.07330322
vt 0.1715088 0.07092285
vt 0.009361267 0.4462891
vt 0.1721191 0.4438477
vt 0.01002502 0.8193359
vt 0.1727295 0.8168945
vt 0.01068878 1.192383
vt 0.1734619 1.189453
vt 0.01135254 1.56543
vt 0.1740723 1.5625
vt 0.01200867 1.938477
vt 0.1748047 1.935547
vt 0.01268005 2.310547
vt 0.175415 2.308594
vt 0.3334961 -0.3044434
vt 0.3327637 -0.6772461
vt 0.3342285 0.06854248
vt 0.3349609 0.4414063
vt 0.3354492 0.8144531
vt 0.3361816 1.1875
vt 0.3369141 1.560547
vt 0.3374023 1.933594
vt 0.3381348 2.306641
vt 0.4956055 -0.6796875
vt 0.494873 -1.052734
vt 0.3322754 -1.050781
vt 0.331543 -1.422852
vt 0.4943848 -1.425781
vt 0.4970703 0.06616211
vt 0.4963379 -0.3068848
vt 0.4995117 1.557617
vt 0.4990234 1.18457
vt 0.498291 0.8120117
vt 0.4975586 0.439209
vt 0.6591797 -0.309082
vt 0.6582031 -0.6821289
vt 0.6577148 -1.054688
vt 0.6572266 -1.427734
vt 0.6601563 0.4367676
vt 0.659668 0.06378174
vt 0.6611328 0.8095703
vt 0.6616211 1.182617
vt 0.6625977 1.555664
vt 0.5004883 1.930664
vt 0.5009766 2.304688
vt 0.6630859 1.928711
vt 0.6635742 2.300781
vt 0.8222656 0.06143188
vt 0.8217773 -0.3115234
vt 0.8212891 -0.6845703
vt 0.8203125 -1.057617
vt 0.8198242 -1.430664
vt 0.8251953 1.553711
vt 0.8242188 1.180664
vt 0.8237305 0.8071289
vt 0.8232422 0.4343262
vt 0.9824219 -1.432617
vt 0.9833984 -1.05957
vt 0.9838867 -0.6870117
vt 0.984375 -0.3139648
vt 0.9853516 0.05908203
vt 0.9858398 0.4321289
vt 0.9863281 0.8051758
vt 0.9873047 1.177734
vt 0.987793 1.550781
vt 0.8256836 1.925781
vt 0.8266602 2.298828
vt 0.9882813 1.923828
vt 0.9892578 2.296875
vt 0.006721497 -1.045898
vt 0.006057739 -1.418945
vt 0.9824219 -1.432617
vt 0.9833984 -1.05957
vt 0.007381439 -0.6728516
vt 0.9838867 -0.6870117
vt 0.008033752 -0.2995605
vt 0.984375 -0.3139648
vt 0.008705139 0.07330322
vt 0.9853516 0.05908203
vt 0.009361267 0.4462891
vt 0.9858398 0.4321289
vt 0.01002502 0.8193359
vt 0.9863281 0.8051758
vt 0.01068878 1.192383
vt 0.9873047 1.177734
vt 0.01135254 1.56543
vt 0.987793 1.550781
vt 0.01200867 1.938477
vt 0.9882813 1.923828
vt 0.01268005 2.310547
vt 0.9892578 2.296875
vn 0.5409309 0.7205279 0.4338585
vn 0.2833174 0.714084 -0.6401682
vn 0.3419308 0.6914533 -0.636377
vn 0.03662041 0.9152415 0.4012382
vn 0.8992512 0.3903197 0.1974786
vn 0.2416714 0.7524623 -0.6126953
vn 0.9747152 0.05074519 -0.2176121
vn 0.2329007 0.7919294 -0.5644513
vn 0.7384987 -0.16849 -0.6528636
vn 0.2603549 0.8174099 -0.5138642
vn 0.2808279 -0.1836448 -0.9420245
vn 0.3135476 0.819171 -0.4802568
vn -0.2234822 0.01106864 -0.9746451
vn 0.3721611 0.7965406 -0.4764654
vn -0.5818026 0.3412769 -0.7382653
vn 0.4138068 0.7581623 -0.5039383
vn -0.6572667 0.6808515 -0.3231744
vn 0.4225775 0.7186954 -0.5521821
vn -0.4210503 0.9000863 0.1120771
vn 0.3951232 0.6932148 -0.6027694
vn 0.03662041 0.9152415 0.4012382
vn 0.3419308 0.6914533 -0.636377
vn -0.4750343 0.7739244 -0.418788
vn -0.4108064 0.484909 -0.7720761
vn -0.2739878 0.9605175 -0.04834103
vn 0.1155402 0.9734161 0.1977663
vn 0.5447638 0.8076934 0.22553
vn 0.8497337 0.5266497 0.02434544
vn 0.9139621 0.2376343 -0.3289426
vn 0.7129155 0.0510412 -0.6993899
vn 0.3233878 0.03814271 -0.9454975
vn -0.8450697 -0.02798302 -0.5339233
vn -0.4361641 -0.404808 -0.8036736
vn -0.1058362 0.2038655 -0.9732613
vn 0.3233878 0.03814271 -0.9454975
vn 0.1393417 -0.6270101 -0.7664478
vn -0.6616232 0.6097155 0.4364651
vn -0.9311874 0.3595305 -0.06023267
vn 0.9311873 -0.3595306 0.0602325
vn 0.8450697 0.02798317 0.5339234
vn 0.4361644 0.4048081 0.8036734
vn -0.1393413 0.6270101 0.7664479
vn -0.9139621 -0.2376345 0.3289426
vn -0.8497337 -0.5266498 -0.02434533
vn -0.5447636 -0.8076934 -0.2255305
vn -0.1155401 -0.973416 -0.1977667
vn -0.3233876 -0.03814269 0.9454976
vn -0.7129157 -0.05104134 0.6993898
vn 0.1058362 -0.2038655 0.9732613
vn 0.4108063 -0.4849088 0.7720761
vn 0.4750346 -0.7739242 0.418788
vn 0.6616231 -0.6097156 -0.4364649
vn 0.1393417 -0.6270101 -0.7664478
vn 0.2739882 -0.9605173 0.04834108
vn -0.1155401 -0.973416 -0.1977667
vn -0.3951233 -0.6932146 0.6027696
vn -0.4225775 -0.7186952 0.5521823
vn -0.4138068 -0.7581623 0.5039384
vn -0.3721611 -0.7965407 0.4764652
vn -0.3135477 -0.8191712 0.4802565
vn -0.2329007 -0.7919293 0.5644513
vn -0.2416715 -0.7524622 0.6126953
vn -0.2833174 -0.714084 0.6401682
vn -0.3419307 -0.6914533 0.636377
vn -0.2808281 0.1836448 0.9420245
vn 0.2234823 -0.01106875 0.9746451
vn 0.5818027 -0.3412769 0.7382653
vn 0.6572665 -0.6808516 0.3231746
vn 0.4210499 -0.9000866 -0.1120768
vn -0.0366209 -0.9152415 -0.4012378
vn -0.5409309 -0.720528 -0.4338586
vn -0.8992511 -0.3903198 -0.1974789
vn -0.9747154 -0.05074523 0.2176119
vn -0.2603548 -0.8174098 0.5138642
vn -0.3135477 -0.8191712 0.4802565
vn -0.7384988 0.1684897 0.6528635
vn -0.2808281 0.1836448 0.9420245
vn 0.5409309 0.7205279 0.4338585
vn 0.03662041 0.9152415 0.4012382
vn -0.2808281 0.1836448 0.9420245
vn 0.2234823 -0.01106875 0.9746451
vn 0.8992512 0.3903197 0.1974786
vn 0.5818027 -0.3412769 0.7382653
vn 0.9747152 0.05074519 -0.2176121
vn 0.6572665 -0.6808516 0.3231746
vn 0.7384987 -0.16849 -0.6528636
vn 0.4210499 -0.9000866 -0.1120768
vn 0.2808279 -0.1836448 -0.9420245
vn -0.0366209 -0.9152415 -0.4012378
vn -0.2234822 0.01106864 -0.9746451
vn -0.5409309 -0.720528 -0.4338586
vn -0.5818026 0.3412769 -0.7382653
vn -0.8992511 -0.3903198 -0.1974789
vn -0.6572667 0.6808515 -0.3231744
vn -0.9747154 -0.05074523 0.2176119
vn -0.4210503 0.9000863 0.1120771
vn -0.7384988 0.1684897 0.6528635
vn 0.03662041 0.9152415 0.4012382
vn -0.2808281 0.1836448 0.9420245
g m_dlc08_map_rope_06_0
f 3/3/3 2/2/2 1/1/1
f 4/4/4 3/3/3 1/1/1
f 1/1/1 2/2/2 5/5/5
f 2/2/2 6/6/6 5/5/5
f 5/5/5 6/6/6 7/7/7
f 6/6/6 8/8/8 7/7/7
f 7/7/7 8/8/8 9/9/9
f 8/8/8 10/10/10 9/9/9
f 9/9/9 10/10/10 11/11/11
f 10/10/10 12/12/12 11/11/11
f 11/11/11 12/12/12 13/13/13
f 12/12/12 14/14/14 13/13/13
f 13/13/13 14/14/14 15/15/15
f 14/14/14 16/16/16 15/15/15
f 15/15/15 16/16/16 17/17/17
f 16/16/16 18/18/18 17/17/17
f 17/17/17 18/18/18 19/19/19
f 18/18/18 20/20/20 19/19/19
f 19/19/19 20/20/20 21/21/21
f 20/20/20 22/22/22 21/21/21
f 8/8/8 23/23/23 10/10/10
f 24/24/24 23/23/23 8/8/8
f 23/23/23 25/25/25 10/10/10
f 10/10/10 25/25/25 12/12/12
f 25/25/25 26/26/26 12/12/12
f 12/12/12 26/26/26 14/14/14
f 26/26/26 27/27/27 14/14/14
f 14/14/14 27/27/27 16/16/16
f 27/27/27 28/28/28 16/16/16
f 16/16/16 28/28/28 18/18/18
f 28/28/28 29/29/29 18/18/18
f 18/18/18 29/29/29 20/20/20
f 29/29/29 30/30/30 20/20/20
f 20/20/20 30/30/30 22/22/22
f 30/30/30 31/31/31 22/22/22
f 24/24/24 32/32/32 23/23/23
f 33/33/33 32/32/32 24/24/24
f 34/34/34 33/33/33 24/24/24
f 34/34/34 24/24/24 6/6/6
f 2/2/2 34/34/34 6/6/6
f 35/35/35 34/34/34 2/2/2
f 3/3/3 35/35/35 2/2/2
f 6/6/6 24/24/24 8/8/8
f 36/36/36 33/33/33 34/34/34
f 35/35/35 36/36/36 34/34/34
f 25/25/25 37/37/37 26/26/26
f 38/38/38 37/37/37 25/25/25
f 32/32/32 38/38/38 23/23/23
f 23/23/23 38/38/38 25/25/25
f 29/29/29 39/39/39 30/30/30
f 40/40/40 39/39/39 29/29/29
f 28/28/28 40/40/40 29/29/29
f 41/41/41 40/40/40 28/28/28
f 27/27/27 41/41/41 28/28/28
f 42/42/42 41/41/41 27/27/27
f 37/37/37 42/42/42 26/26/26
f 26/26/26 42/42/42 27/27/27
f 38/38/38 43/43/43 37/37/37
f 44/44/44 43/43/43 38/38/38
f 32/32/32 44/44/44 38/38/38
f 45/45/45 44/44/44 32/32/32
f 33/33/33 45/45/45 32/32/32
f 46/46/46 45/45/45 33/33/33
f 36/36/36 46/46/46 33/33/33
f 42/42/42 47/47/47 41/41/41
f 48/48/48 47/47/47 42/42/42
f 43/43/43 48/48/48 37/37/37
f 37/37/37 48/48/48 42/42/42
f 47/47/47 49/49/49 41/41/41
f 41/41/41 49/49/49 40/40/40
f 49/49/49 50/50/50 40/40/40
f 40/40/40 50/50/50 39/39/39
f 50/50/50 51/51/51 39/39/39
f 39/39/39 51/51/51 52/52/52
f 39/39/39 52/52/52 30/30/30
f 30/30/30 52/52/52 31/31/31
f 52/52/52 53/53/53 31/31/31
f 51/51/51 54/54/54 52/52/52
f 52/52/52 54/54/54 53/53/53
f 54/54/54 55/55/55 53/53/53
f 48/48/48 56/56/56 47/47/47
f 57/57/57 56/56/56 48/48/48
f 43/43/43 57/57/57 48/48/48
f 58/58/58 57/57/57 43/43/43
f 44/44/44 58/58/58 43/43/43
f 59/59/59 58/58/58 44/44/44
f 45/45/45 59/59/59 44/44/44
f 60/60/60 59/59/59 45/45/45
f 46/46/46 60/60/60 45/45/45
f 51/51/51 61/61/61 54/54/54
f 62/62/62 61/61/61 51/51/51
f 50/50/50 62/62/62 51/51/51
f 63/63/63 62/62/62 50/50/50
f 49/49/49 63/63/63 50/50/50
f 64/64/64 63/63/63 49/49/49
f 56/56/56 64/64/64 47/47/47
f 47/47/47 64/64/64 49/49/49
f 60/60/60 65/65/65 59/59/59
f 65/65/65 66/66/66 59/59/59
f 59/59/59 66/66/66 58/58/58
f 66/66/66 67/67/67 58/58/58
f 58/58/58 67/67/67 57/57/57
f 67/67/67 68/68/68 57/57/57
f 57/57/57 68/68/68 56/56/56
f 68/68/68 69/69/69 56/56/56
f 56/56/56 69/69/69 64/64/64
f 69/69/69 70/70/70 64/64/64
f 64/64/64 70/70/70 63/63/63
f 70/70/70 71/71/71 63/63/63
f 63/63/63 71/71/71 62/62/62
f 71/71/71 72/72/72 62/62/62
f 72/72/72 73/73/73 61/61/61
f 62/62/62 72/72/72 61/61/61
f 61/61/61 73/73/73 74/74/74
f 61/61/61 74/74/74 54/54/54
f 54/54/54 74/74/74 55/55/55
f 74/74/74 75/75/75 55/55/55
f 73/73/73 76/76/76 74/74/74
f 74/74/74 76/76/76 75/75/75
f 76/76/76 77/77/77 75/75/75
f 80/80/80 79/79/79 78/78/78
f 81/81/81 80/80/80 78/78/78
f 81/81/81 78/78/78 82/82/82
f 83/83/83 81/81/81 82/82/82
f 83/83/83 82/82/82 84/84/84
f 85/85/85 83/83/83 84/84/84
f 85/85/85 84/84/84 86/86/86
f 87/87/87 85/85/85 86/86/86
f 87/87/87 86/86/86 88/88/88
f 89/89/89 87/87/87 88/88/88
f 89/89/89 88/88/88 90/90/90
f 91/91/91 89/89/89 90/90/90
f 91/91/91 90/90/90 92/92/92
f 93/93/93 91/91/91 92/92/92
f 93/93/93 92/92/92 94/94/94
f 95/95/95 93/93/93 94/94/94
f 95/95/95 94/94/94 96/96/96
f 97/97/97 95/95/95 96/96/96
f 97/97/97 96/96/96 98/98/98
f 99/99/99 97/97/97 98/98/98
