g m_dlc08_map_rope_02
v 0.03740731 0.04203747 -0.1289135
v 0.04770142 0.05995838 -0.1665824
v 0.1347263 0.069782 -0.1029536
v 0.1047534 0.04963963 -0.07967296
v -0.04583709 0.03264065 -0.1289135
v -0.05986724 0.04781582 -0.1665824
v -0.1131832 0.02503842 -0.07967292
v -0.1468921 0.03799229 -0.1029536
v -0.1389072 0.02213467 6.301952E-09
v -0.1801326 0.03424 6.301952E-09
v -0.1131832 0.02503845 0.07967297
v -0.1468921 0.03799229 0.1029536
v -0.04583709 0.03264065 0.1289135
v -0.05986724 0.04781582 0.1665824
v 0.03740731 0.04203747 0.1289135
v 0.04770146 0.05995838 0.1665824
v 0.1047534 0.04963963 0.07967293
v 0.1347263 0.069782 0.1029536
v 0.1304774 0.05254338 6.301952E-09
v 0.1679668 0.07353428 6.301952E-09
v 0.1047534 0.04963963 -0.07967296
v 0.1347263 0.069782 -0.1029536
v -0.1778619 0.0189143 -0.1268672
v -0.07062324 0.03101963 -0.2052755
v -0.2188234 0.01429047 6.301952E-09
v -0.1778619 0.0189143 0.1268673
v -0.07062324 0.03101963 0.2052755
v 0.061931 0.04598263 0.2052755
v 0.1691696 0.05808796 0.1268673
v 0.2101312 0.06271183 6.301952E-09
v 0.1691696 0.05808796 -0.1268673
v -0.07148612 -0.008069493 -0.2214087
v 0.07148606 0.008069499 -0.2214088
v 0.06193104 0.04598263 -0.2052755
v 0.1691696 0.05808796 -0.1268673
v 0.1871529 0.02112625 -0.1368382
v -0.2313338 -0.02611347 4.444892E-08
v -0.1871529 -0.02112625 -0.1368381
v 0.1871529 0.02112625 0.1368381
v 0.07148602 0.008069499 0.2214087
v -0.07148605 -0.008069493 0.2214088
v -0.1871529 -0.02112625 0.1368382
v -0.1691697 -0.05808799 -0.1268672
v -0.06193107 -0.04598266 -0.2052755
v 0.07062321 -0.03101967 -0.2052755
v 0.1778619 -0.01891433 -0.1268673
v -0.1691697 -0.05808799 0.1268673
v -0.2101312 -0.06271183 6.301952E-09
v -0.061931 -0.04598266 0.2052755
v 0.07062325 -0.03101967 0.2052755
v 0.1778619 -0.01891433 0.1268673
v 0.2313337 0.02611347 6.301952E-09
v 0.1871529 0.02112625 -0.1368382
v 0.2188234 -0.01429046 6.301952E-09
v 0.1778619 -0.01891433 -0.1268673
v -0.1679668 -0.07353424 6.301952E-09
v -0.1347263 -0.06978194 -0.1029536
v -0.04770149 -0.05995841 -0.1665824
v 0.05986718 -0.04781581 -0.1665824
v 0.146892 -0.03799228 -0.1029536
v 0.146892 -0.03799228 0.1029536
v 0.05986721 -0.04781581 0.1665824
v -0.04770141 -0.05995845 0.1665824
v -0.1347262 -0.06978194 0.1029536
v 0.1131832 -0.02503841 -0.07967296
v 0.0458371 -0.03264061 -0.1289135
v -0.03740729 -0.04203742 -0.1289135
v -0.1047535 -0.04963962 -0.07967292
v -0.1304774 -0.05254337 6.301952E-09
v -0.1047534 -0.04963958 0.07967297
v -0.03740729 -0.04203742 0.1289135
v 0.0458371 -0.03264061 0.1289135
v 0.1131833 -0.02503841 0.07967293
v 0.1801326 -0.03424 6.301952E-09
v 0.146892 -0.03799228 -0.1029536
v 0.1389072 -0.02213466 6.301952E-09
v 0.1131832 -0.02503841 -0.07967296
v 0.03740731 0.04203747 -0.1289135
v 0.1047534 0.04963963 -0.07967296
v 0.1131832 -0.02503841 -0.07967296
v 0.0458371 -0.03264061 -0.1289135
v -0.04583709 0.03264065 -0.1289135
v -0.03740729 -0.04203742 -0.1289135
v -0.1131832 0.02503842 -0.07967292
v -0.1047535 -0.04963962 -0.07967292
v -0.1389072 0.02213467 6.301952E-09
v -0.1304774 -0.05254337 6.301952E-09
v -0.1131832 0.02503845 0.07967297
v -0.1047534 -0.04963958 0.07967297
v -0.04583709 0.03264065 0.1289135
v -0.03740729 -0.04203742 0.1289135
v 0.03740731 0.04203747 0.1289135
v 0.0458371 -0.03264061 0.1289135
v 0.1047534 0.04963963 0.07967293
v 0.1131833 -0.02503841 0.07967293
v 0.1304774 0.05254338 6.301952E-09
v 0.1389072 -0.02213466 6.301952E-09
v 0.1047534 0.04963963 -0.07967296
v 0.1131832 -0.02503841 -0.07967296
vt 0.006721497 -1.045898
vt 0.1694336 -1.047852
vt 0.1688232 -1.420898
vt 0.006057739 -1.418945
vt 0.007381439 -0.6728516
vt 0.170166 -0.6748047
vt 0.008033752 -0.2995605
vt 0.1707764 -0.302002
vt 0.008705139 0.07330322
vt 0.1715088 0.07092285
vt 0.009361267 0.4462891
vt 0.1721191 0.4438477
vt 0.01002502 0.8193359
vt 0.1727295 0.8168945
vt 0.01068878 1.192383
vt 0.1734619 1.189453
vt 0.01135254 1.56543
vt 0.1740723 1.5625
vt 0.01200867 1.938477
vt 0.1748047 1.935547
vt 0.01268005 2.310547
vt 0.175415 2.308594
vt 0.3334961 -0.3044434
vt 0.3327637 -0.6772461
vt 0.3342285 0.06854248
vt 0.3349609 0.4414063
vt 0.3354492 0.8144531
vt 0.3361816 1.1875
vt 0.3369141 1.560547
vt 0.3374023 1.933594
vt 0.3381348 2.306641
vt 0.4956055 -0.6796875
vt 0.494873 -1.052734
vt 0.3322754 -1.050781
vt 0.331543 -1.422852
vt 0.4943848 -1.425781
vt 0.4970703 0.06616211
vt 0.4963379 -0.3068848
vt 0.4995117 1.557617
vt 0.4990234 1.18457
vt 0.498291 0.8120117
vt 0.4975586 0.439209
vt 0.6591797 -0.309082
vt 0.6582031 -0.6821289
vt 0.6577148 -1.054688
vt 0.6572266 -1.427734
vt 0.6601563 0.4367676
vt 0.659668 0.06378174
vt 0.6611328 0.8095703
vt 0.6616211 1.182617
vt 0.6625977 1.555664
vt 0.5004883 1.930664
vt 0.5009766 2.304688
vt 0.6630859 1.928711
vt 0.6635742 2.300781
vt 0.8222656 0.06143188
vt 0.8217773 -0.3115234
vt 0.8212891 -0.6845703
vt 0.8203125 -1.057617
vt 0.8198242 -1.430664
vt 0.8251953 1.553711
vt 0.8242188 1.180664
vt 0.8237305 0.8071289
vt 0.8232422 0.4343262
vt 0.9824219 -1.432617
vt 0.9833984 -1.05957
vt 0.9838867 -0.6870117
vt 0.984375 -0.3139648
vt 0.9853516 0.05908203
vt 0.9858398 0.4321289
vt 0.9863281 0.8051758
vt 0.9873047 1.177734
vt 0.987793 1.550781
vt 0.8256836 1.925781
vt 0.8266602 2.298828
vt 0.9882813 1.923828
vt 0.9892578 2.296875
vt 0.006721497 -1.045898
vt 0.006057739 -1.418945
vt 0.9824219 -1.432617
vt 0.9833984 -1.05957
vt 0.007381439 -0.6728516
vt 0.9838867 -0.6870117
vt 0.008033752 -0.2995605
vt 0.984375 -0.3139648
vt 0.008705139 0.07330322
vt 0.9853516 0.05908203
vt 0.009361267 0.4462891
vt 0.9858398 0.4321289
vt 0.01002502 0.8193359
vt 0.9863281 0.8051758
vt 0.01068878 1.192383
vt 0.9873047 1.177734
vt 0.01135254 1.56543
vt 0.987793 1.550781
vt 0.01200867 1.938477
vt 0.9882813 1.923828
vt 0.01268005 2.310547
vt 0.9892578 2.296875
vn -0.3231211 0.4483679 0.8334021
vn -0.08031251 0.9920522 -0.09686264
vn -0.02971064 0.9977643 -0.05986419
vn -0.7585015 0.3992214 0.5150707
vn 0.2150385 0.5091161 0.8334023
vn -0.1428603 0.9849916 -0.09686282
vn 0.6504189 0.5582626 0.515071
vn -0.1934625 0.9792796 -0.05986439
vn 0.8167188 0.577036 -5.328467E-07
vn -0.2127905 0.9770979 -2.416274E-07
vn 0.6504186 0.5582628 -0.5150711
vn -0.1934624 0.9792796 0.05986453
vn 0.2150381 0.5091164 -0.8334021
vn -0.1428602 0.9849916 0.09686307
vn -0.3231215 0.4483677 -0.8334019
vn -0.08031257 0.9920522 0.0968625
vn -0.7585016 0.3992209 -0.5150709
vn -0.02971063 0.9977643 0.059864
vn -0.9248019 0.3804489 0
vn -0.01038228 0.9999461 -1.13707E-07
vn -0.7585015 0.3992214 0.5150707
vn -0.02971064 0.9977643 -0.05986419
vn -0.6742949 0.5942621 -0.4383822
vn -0.3037382 0.6360912 -0.7093173
vn -0.8158348 0.5782852 -1.236076E-07
vn -0.6742946 0.5942625 0.4383819
vn -0.303738 0.6360919 0.7093168
vn 0.154295 0.6877955 0.7093168
vn 0.5248516 0.7296245 0.4383823
vn 0.6663918 0.7456018 0
vn 0.5248514 0.7296246 -0.4383822
vn -0.3070673 -0.03466239 -0.9510564
vn 0.3070664 0.03466262 -0.9510567
vn 0.1542948 0.6877953 -0.7093171
vn 0.5248514 0.7296246 -0.4383822
vn 0.8039114 0.0907475 -0.5877851
vn -0.9936891 -0.1121691 2.839093E-07
vn -0.8039118 -0.09074697 -0.5877848
vn 0.8039113 0.09074754 0.5877852
vn 0.3070667 0.03466263 0.9510565
vn -0.3070666 -0.03466251 0.9510565
vn -0.8039114 -0.09074715 0.5877851
vn -0.5248517 -0.7296245 -0.438382
vn -0.1542949 -0.687795 -0.7093173
vn 0.3037378 -0.6360914 -0.7093174
vn 0.6742948 -0.5942624 -0.4383819
vn -0.5248513 -0.729625 0.4383818
vn -0.6663914 -0.7456021 0
vn -0.1542946 -0.6877956 0.7093168
vn 0.3037385 -0.6360914 0.7093171
vn 0.674295 -0.5942621 0.4383821
vn 0.9936891 0.1121697 0
vn 0.8039114 0.0907475 -0.5877851
vn 0.8158349 -0.5782849 0
vn 0.6742948 -0.5942624 -0.4383819
vn 0.01038289 -0.9999461 0
vn 0.02971092 -0.9977643 -0.05986412
vn 0.08031286 -0.9920522 -0.09686188
vn 0.14286 -0.9849918 -0.09686188
vn 0.1934618 -0.9792797 -0.05986392
vn 0.1934619 -0.9792797 0.05986354
vn 0.1428602 -0.9849918 0.09686156
vn 0.08031289 -0.9920522 0.09686151
vn 0.02971104 -0.9977643 0.05986387
vn -0.6504189 -0.5582626 0.5150709
vn -0.2150382 -0.5091161 0.8334023
vn 0.3231214 -0.4483679 0.8334019
vn 0.7585015 -0.3992215 0.5150706
vn 0.9248021 -0.3804487 -3.074116E-07
vn 0.7585015 -0.3992211 -0.5150709
vn 0.3231213 -0.4483677 -0.833402
vn -0.2150384 -0.5091161 -0.8334023
vn -0.6504191 -0.5582626 -0.5150707
vn 0.2127905 -0.9770979 -1.066003E-07
vn 0.1934618 -0.9792797 -0.05986392
vn -0.8167192 -0.5770352 2.254352E-07
vn -0.6504189 -0.5582626 0.5150709
vn -0.3231211 0.4483679 0.8334021
vn -0.7585015 0.3992214 0.5150707
vn -0.6504189 -0.5582626 0.5150709
vn -0.2150382 -0.5091161 0.8334023
vn 0.2150385 0.5091161 0.8334023
vn 0.3231214 -0.4483679 0.8334019
vn 0.6504189 0.5582626 0.515071
vn 0.7585015 -0.3992215 0.5150706
vn 0.8167188 0.577036 -5.328467E-07
vn 0.9248021 -0.3804487 -3.074116E-07
vn 0.6504186 0.5582628 -0.5150711
vn 0.7585015 -0.3992211 -0.5150709
vn 0.2150381 0.5091164 -0.8334021
vn 0.3231213 -0.4483677 -0.833402
vn -0.3231215 0.4483677 -0.8334019
vn -0.2150384 -0.5091161 -0.8334023
vn -0.7585016 0.3992209 -0.5150709
vn -0.6504191 -0.5582626 -0.5150707
vn -0.9248019 0.3804489 0
vn -0.8167192 -0.5770352 2.254352E-07
vn -0.7585015 0.3992214 0.5150707
vn -0.6504189 -0.5582626 0.5150709
g m_dlc08_map_rope_02_0
f 3/3/3 2/2/2 1/1/1
f 4/4/4 3/3/3 1/1/1
f 1/1/1 2/2/2 5/5/5
f 2/2/2 6/6/6 5/5/5
f 5/5/5 6/6/6 7/7/7
f 6/6/6 8/8/8 7/7/7
f 7/7/7 8/8/8 9/9/9
f 8/8/8 10/10/10 9/9/9
f 9/9/9 10/10/10 11/11/11
f 10/10/10 12/12/12 11/11/11
f 11/11/11 12/12/12 13/13/13
f 12/12/12 14/14/14 13/13/13
f 13/13/13 14/14/14 15/15/15
f 14/14/14 16/16/16 15/15/15
f 15/15/15 16/16/16 17/17/17
f 16/16/16 18/18/18 17/17/17
f 17/17/17 18/18/18 19/19/19
f 18/18/18 20/20/20 19/19/19
f 19/19/19 20/20/20 21/21/21
f 20/20/20 22/22/22 21/21/21
f 8/8/8 23/23/23 10/10/10
f 24/24/24 23/23/23 8/8/8
f 23/23/23 25/25/25 10/10/10
f 10/10/10 25/25/25 12/12/12
f 25/25/25 26/26/26 12/12/12
f 12/12/12 26/26/26 14/14/14
f 26/26/26 27/27/27 14/14/14
f 14/14/14 27/27/27 16/16/16
f 27/27/27 28/28/28 16/16/16
f 16/16/16 28/28/28 18/18/18
f 28/28/28 29/29/29 18/18/18
f 18/18/18 29/29/29 20/20/20
f 29/29/29 30/30/30 20/20/20
f 20/20/20 30/30/30 22/22/22
f 30/30/30 31/31/31 22/22/22
f 24/24/24 32/32/32 23/23/23
f 33/33/33 32/32/32 24/24/24
f 34/34/34 33/33/33 24/24/24
f 34/34/34 24/24/24 6/6/6
f 2/2/2 34/34/34 6/6/6
f 35/35/35 34/34/34 2/2/2
f 3/3/3 35/35/35 2/2/2
f 6/6/6 24/24/24 8/8/8
f 36/36/36 33/33/33 34/34/34
f 35/35/35 36/36/36 34/34/34
f 25/25/25 37/37/37 26/26/26
f 38/38/38 37/37/37 25/25/25
f 32/32/32 38/38/38 23/23/23
f 23/23/23 38/38/38 25/25/25
f 29/29/29 39/39/39 30/30/30
f 40/40/40 39/39/39 29/29/29
f 28/28/28 40/40/40 29/29/29
f 41/41/41 40/40/40 28/28/28
f 27/27/27 41/41/41 28/28/28
f 42/42/42 41/41/41 27/27/27
f 37/37/37 42/42/42 26/26/26
f 26/26/26 42/42/42 27/27/27
f 38/38/38 43/43/43 37/37/37
f 44/44/44 43/43/43 38/38/38
f 32/32/32 44/44/44 38/38/38
f 45/45/45 44/44/44 32/32/32
f 33/33/33 45/45/45 32/32/32
f 46/46/46 45/45/45 33/33/33
f 36/36/36 46/46/46 33/33/33
f 42/42/42 47/47/47 41/41/41
f 48/48/48 47/47/47 42/42/42
f 43/43/43 48/48/48 37/37/37
f 37/37/37 48/48/48 42/42/42
f 47/47/47 49/49/49 41/41/41
f 41/41/41 49/49/49 40/40/40
f 49/49/49 50/50/50 40/40/40
f 40/40/40 50/50/50 39/39/39
f 50/50/50 51/51/51 39/39/39
f 39/39/39 51/51/51 52/52/52
f 39/39/39 52/52/52 30/30/30
f 30/30/30 52/52/52 31/31/31
f 52/52/52 53/53/53 31/31/31
f 51/51/51 54/54/54 52/52/52
f 52/52/52 54/54/54 53/53/53
f 54/54/54 55/55/55 53/53/53
f 48/48/48 56/56/56 47/47/47
f 57/57/57 56/56/56 48/48/48
f 43/43/43 57/57/57 48/48/48
f 58/58/58 57/57/57 43/43/43
f 44/44/44 58/58/58 43/43/43
f 59/59/59 58/58/58 44/44/44
f 45/45/45 59/59/59 44/44/44
f 60/60/60 59/59/59 45/45/45
f 46/46/46 60/60/60 45/45/45
f 51/51/51 61/61/61 54/54/54
f 62/62/62 61/61/61 51/51/51
f 50/50/50 62/62/62 51/51/51
f 63/63/63 62/62/62 50/50/50
f 49/49/49 63/63/63 50/50/50
f 64/64/64 63/63/63 49/49/49
f 56/56/56 64/64/64 47/47/47
f 47/47/47 64/64/64 49/49/49
f 60/60/60 65/65/65 59/59/59
f 65/65/65 66/66/66 59/59/59
f 59/59/59 66/66/66 58/58/58
f 66/66/66 67/67/67 58/58/58
f 58/58/58 67/67/67 57/57/57
f 67/67/67 68/68/68 57/57/57
f 57/57/57 68/68/68 56/56/56
f 68/68/68 69/69/69 56/56/56
f 56/56/56 69/69/69 64/64/64
f 69/69/69 70/70/70 64/64/64
f 64/64/64 70/70/70 63/63/63
f 70/70/70 71/71/71 63/63/63
f 63/63/63 71/71/71 62/62/62
f 71/71/71 72/72/72 62/62/62
f 72/72/72 73/73/73 61/61/61
f 62/62/62 72/72/72 61/61/61
f 61/61/61 73/73/73 74/74/74
f 61/61/61 74/74/74 54/54/54
f 54/54/54 74/74/74 55/55/55
f 74/74/74 75/75/75 55/55/55
f 73/73/73 76/76/76 74/74/74
f 74/74/74 76/76/76 75/75/75
f 76/76/76 77/77/77 75/75/75
f 80/80/80 79/79/79 78/78/78
f 81/81/81 80/80/80 78/78/78
f 81/81/81 78/78/78 82/82/82
f 83/83/83 81/81/81 82/82/82
f 83/83/83 82/82/82 84/84/84
f 85/85/85 83/83/83 84/84/84
f 85/85/85 84/84/84 86/86/86
f 87/87/87 85/85/85 86/86/86
f 87/87/87 86/86/86 88/88/88
f 89/89/89 87/87/87 88/88/88
f 89/89/89 88/88/88 90/90/90
f 91/91/91 89/89/89 90/90/90
f 91/91/91 90/90/90 92/92/92
f 93/93/93 91/91/91 92/92/92
f 93/93/93 92/92/92 94/94/94
f 95/95/95 93/93/93 94/94/94
f 95/95/95 94/94/94 96/96/96
f 97/97/97 95/95/95 96/96/96
f 97/97/97 96/96/96 98/98/98
f 99/99/99 97/97/97 98/98/98
