g m_map_tile_collision_01
v 0.116839 0.3009671 0.5248822
v 0.250368 0.3009671 0.4936328
v 0.2503681 -0.30098 0.5095605
v 0.1168391 -0.30098 0.4783112
v 0.352572 0.3009671 0.3869995
v 0.2878584 -0.30098 0.3685541
v 0.4270405 -0.30098 0.2837951
v 0.3931427 0.3009671 0.242868
v 0.4984278 -0.30098 0.1584131
v 0.4891827 0.3009671 0.1362353
v -0.03518067 0.3009671 0.4936328
v -0.03518059 -0.30098 0.5095605
v -0.1779546 -0.30098 0.4720624
v -0.1779547 0.3009671 0.531131
v -0.3207294 0.3009671 0.4936328
v -0.3207293 -0.30098 0.5095605
v -0.3774175 -0.30098 0.3638391
v -0.3681732 0.3009671 0.3416626
v -0.43956 0.3009671 0.2162799
v -0.4734582 -0.30098 0.2572064
v -0.5140288 -0.30098 0.113075
v -0.5787427 0.3009671 0.1315204
v -0.6043253 0.3009671 0.03529912
v -0.5837717 -0.30098 0.04247878
v 0.5454675 0.3009671 -0.007896118
v 0.5454676 -0.30098 0.008031616
v 0.4891828 -0.30098 -0.1360998
v 0.4984277 0.3009671 -0.1582776
v 0.4270404 0.3009671 -0.2836597
v 0.3931428 -0.30098 -0.2427325
v 0.3525721 -0.30098 -0.386864
v 0.2878583 0.3009671 -0.3684186
v 0.250368 0.3009671 -0.5094244
v 0.2503681 -0.30098 -0.4934979
v 0.1168391 -0.30098 -0.5247467
v 0.116839 0.3009671 -0.4781756
v -0.03518067 0.3009671 -0.5094244
v -0.03518059 -0.30098 -0.4934979
v -0.1779546 -0.30098 -0.5309955
v -0.1779547 0.3009671 -0.4719269
v -0.3681731 -0.30098 -0.3415271
v -0.3207293 -0.30098 -0.4934979
v -0.3207294 0.3009671 -0.5094244
v -0.3774176 0.3009671 -0.3637036
v -0.1779546 -0.30098 -0.5309955
v -0.1779547 0.3009671 -0.4719269
v -0.4734583 0.3009671 -0.2570709
v -0.4395598 -0.30098 -0.2161444
v -0.5787426 -0.30098 -0.1313849
v -0.514029 0.3009671 -0.1129394
v -0.6162324 0.3009671 -0.009485474
v -0.6162323 -0.30098 0.009620971
v -0.03206783 0.3009671 6.773084E-05
v 0.116839 0.3009671 -0.4781756
v 0.250368 0.3009671 -0.5094244
v 0.2878583 0.3009671 -0.3684186
v 0.4270404 0.3009671 -0.2836597
v 0.4984277 0.3009671 -0.1582776
v 0.5454675 0.3009671 -0.007896118
v 0.4891827 0.3009671 0.1362353
v 0.3931427 0.3009671 0.242868
v 0.352572 0.3009671 0.3869995
v 0.250368 0.3009671 0.4936328
v 0.116839 0.3009671 0.5248822
v -0.03518067 0.3009671 0.4936328
v -0.1779547 0.3009671 0.531131
v -0.3207294 0.3009671 0.4936328
v -0.3681732 0.3009671 0.3416626
v -0.43956 0.3009671 0.2162799
v -0.5787427 0.3009671 0.1315204
v -0.6043253 0.3009671 0.03529912
v -0.6162324 0.3009671 -0.009485474
v -0.514029 0.3009671 -0.1129394
v -0.4734583 0.3009671 -0.2570709
v -0.3774176 0.3009671 -0.3637036
v -0.3207294 0.3009671 -0.5094244
v -0.1779547 0.3009671 -0.4719269
v -0.03518067 0.3009671 -0.5094244
v -0.03206771 -0.30098 6.774902E-05
v 0.1168391 -0.30098 0.4783112
v 0.2503681 -0.30098 0.5095605
v 0.2878584 -0.30098 0.3685541
v 0.4270405 -0.30098 0.2837951
v 0.4984278 -0.30098 0.1584131
v 0.5454676 -0.30098 0.008031616
v 0.4891828 -0.30098 -0.1360998
v 0.3931428 -0.30098 -0.2427325
v 0.3525721 -0.30098 -0.386864
v 0.2503681 -0.30098 -0.4934979
v 0.1168391 -0.30098 -0.5247467
v -0.03518059 -0.30098 -0.4934979
v -0.1779546 -0.30098 -0.5309955
v -0.3207293 -0.30098 -0.4934979
v -0.3681731 -0.30098 -0.3415271
v -0.4395598 -0.30098 -0.2161444
v -0.5787426 -0.30098 -0.1313849
v -0.6162323 -0.30098 0.009620971
v -0.5837717 -0.30098 0.04247878
v -0.5140288 -0.30098 0.113075
v -0.4734582 -0.30098 0.2572064
v -0.3774175 -0.30098 0.3638391
v -0.3207293 -0.30098 0.5095605
v -0.1779546 -0.30098 0.4720624
v -0.03518059 -0.30098 0.5095605
vt 0.4998051 0.1851012
vt 0.5386858 0.1851012
vt 0.5364953 0.04580408
vt 0.50395 0.04580408
vt 0.5806805 0.1851012
vt 0.5699964 0.04580408
vt 0.6181576 0.04580408
vt 0.6237438 0.1851012
vt 0.6601607 0.04580408
vt 0.6656744 0.1851012
vt 0.4546077 0.1851012
vt 0.4546056 0.04580408
vt 0.4075082 0.04580408
vt 0.4124893 0.1851012
vt 0.3704968 0.1851012
vt 0.3726858 0.04580408
vt 0.3335517 0.04580408
vt 0.3307087 0.1851012
vt 0.2814471 0.1851012
vt 0.2877924 0.04580408
vt 0.2398628 0.04580408
vt 0.2407468 0.1851012
vt 0.2129771 0.1851012
vt 0.216295 0.04580408
vt 0.7085936 0.1851012
vt 0.7041973 0.04580408
vt 0.7471168 0.04580408
vt 0.7526305 0.1851012
vt 0.7946334 0.1851012
vt 0.7890473 0.04580408
vt 0.8321105 0.04580408
vt 0.8427945 0.1851012
vt 0.8762955 0.1851012
vt 0.8741053 0.04580408
vt 0.912986 0.04580408
vt 0.9088411 0.1851012
vt 0.9581851 0.1851012
vt 0.9581833 0.04580408
vt 1 0.04580408
vt 1 0.1851012
vt 0.0746693 0.04580408
vt 0.034881 0.04580408
vt 0.03269213 0.1851012
vt 0.0718261 0.1851012
vt 0 0.04580408
vt 0 0.1851012
vt 0.1175855 0.1851012
vt 0.1239309 0.04580408
vt 0.1646311 0.04580408
vt 0.1655149 0.1851012
vt 0.2000521 0.1851012
vt 0.2053257 0.04580408
vt 0.726922 0.6633946
vt 0.9088179 0.8448704
vt 0.9196982 0.891363
vt 0.8706022 0.9044164
vt 0.8410904 0.9528779
vt 0.7974342 0.9777337
vt 0.7450736 0.9941125
vt 0.6948891 0.9745148
vt 0.6577613 0.941075
vt 0.6075768 0.9269489
vt 0.5704488 0.891363
vt 0.5595682 0.8448704
vt 0.5704488 0.7919395
vt 0.5573925 0.7422276
vt 0.5704488 0.6925156
vt 0.6233625 0.6759965
vt 0.6670188 0.6511407
vt 0.6965309 0.6026793
vt 0.7089389 0.5993804
vt 0.745627 0.5896261
vt 0.7816482 0.6252117
vt 0.8318326 0.6393377
vt 0.8689605 0.6727777
vt 0.9196982 0.6925156
vt 0.9066421 0.7422276
vt 0.9196982 0.7919395
vt 0.240741 0.7169566
vt 0.07550257 0.8470038
vt 0.06462201 0.8934963
vt 0.1137183 0.9065499
vt 0.1432302 0.9550114
vt 0.1868864 0.979867
vt 0.2392469 0.9962456
vt 0.2894314 0.9766483
vt 0.3265592 0.9432087
vt 0.3767438 0.9290824
vt 0.413872 0.8934963
vt 0.4247524 0.8470038
vt 0.413872 0.7940727
vt 0.4269281 0.744361
vt 0.413872 0.6946491
vt 0.360958 0.6781298
vt 0.3173017 0.6532738
vt 0.2877896 0.6048127
vt 0.2386936 0.5917593
vt 0.2246395 0.6056435
vt 0.2026724 0.627345
vt 0.1524879 0.6414711
vt 0.11536 0.6749109
vt 0.06462201 0.6946491
vt 0.07767826 0.744361
vt 0.06462201 0.7940727
vn 0 -0.03104262 0.999518
vn 0.5214547 -0.05138952 0.8517301
vn 0.5179474 -0.05376336 0.8537213
vn 0 -0.03135526 0.9995084
vn 0.8357409 -0.03358858 0.5480958
vn 0.8251304 -0.03532935 0.5638366
vn 0.7850901 0.03065442 0.6186227
vn 0.812221 0.03214145 0.5824636
vn 0.8915821 0.04770175 0.4503398
vn 0.8845211 0.04626545 0.4642003
vn 0.003314933 -0.03721903 0.9993017
vn -0.003136271 -0.0375906 0.9992884
vn 0 -0.04407073 0.9990284
vn 0 -0.04362891 0.9990478
vn -0.6309188 -0.01087814 0.7757726
vn -0.585551 -0.01218028 0.8105441
vn -0.8853973 0.04656788 0.4624967
vn -0.8924121 0.04707736 0.4487588
vn -0.7843411 0.03034116 0.6195874
vn -0.8114939 0.03246041 0.5834587
vn -0.8308741 -0.038029 0.5551595
vn -0.8092714 -0.0394355 0.5861097
vn -0.8867303 -0.05591806 0.4588928
vn -0.8469055 -0.05826424 0.5285416
vn 0.9999981 -0.0005282793 -0.001922343
vn 0.9999974 0.00053344 0.002253709
vn 0.8847876 -0.0467183 -0.4636468
vn 0.8918815 -0.04722657 -0.4497967
vn 0.7843395 -0.03034156 -0.6195892
vn 0.811493 -0.032461 -0.5834598
vn 0.8353795 0.03393064 -0.5486254
vn 0.824771 0.03497147 -0.5643844
vn 0.5181491 0.05329702 -0.8536282
vn 0.5216297 0.05195978 -0.8515883
vn 0 0.03135648 -0.9995083
vn 0 0.03104386 -0.999518
vn -0.003314928 0.03722024 -0.9993016
vn 0.003136269 0.03759184 -0.9992883
vn 0 0.04407196 -0.9990283
vn 0 0.04363009 -0.9990477
vn -0.8921148 -0.04755125 -0.4492995
vn -0.6300851 0.01099449 -0.7764482
vn -0.5845789 0.0120682 -0.8112472
vn -0.885133 -0.04611658 -0.4630474
vn 0 0.04407196 -0.9990283
vn 0 0.04363009 -0.9990477
vn -0.8122206 -0.03214103 -0.5824643
vn -0.7850901 -0.03065468 -0.6186225
vn -0.8236034 0.0342708 -0.5661299
vn -0.8338372 0.03262431 -0.5510455
vn -0.9428948 0.04673074 -0.3297963
vn -0.9703366 0.04598966 -0.2373436
vn 0 1 0
vn 0 1 0
vn 0 1 0
vn 0 1 0
vn 0 1 0
vn 0 1 0
vn 0 1 0
vn 0 1 0
vn 0 1 0
vn 0 1 0
vn 0 1 0
vn 0 1 0
vn 0 1 0
vn 0 1 0
vn 0 1 0
vn 0 1 0
vn 0 1 0
vn 0 1 0
vn 0 1 0
vn 0 1 0
vn 0 1 0
vn 0 1 0
vn 0 1 0
vn 0 1 0
vn 0 1 0
vn 0 1 0
vn 0 -1 0
vn 0 -1 0
vn 0 -1 0
vn 0 -1 0
vn 0 -1 0
vn 0 -1 0
vn 0 -1 0
vn 0 -1 0
vn 0 -1 0
vn 0 -1 0
vn 0 -1 0
vn 0 -1 0
vn 0 -1 0
vn 0 -1 0
vn 0 -1 0
vn 0 -1 0
vn 0 -1 0
vn 0 -1 0
vn 0 -1 0
vn 0 -1 1.718901E-07
vn 0 -1 0
vn 0 -1 0
vn 0 -1 0
vn 0 -1 0
vn 0 -1 0
vn 0 -1 0
g m_map_tile_collision_01_0
f 3/3/3 2/2/2 1/1/1
f 4/4/4 3/3/3 1/1/1
f 5/5/5 2/2/2 3/3/3
f 6/6/6 5/5/5 3/3/3
f 6/6/6 7/7/7 5/5/5
f 7/7/7 8/8/8 5/5/5
f 8/8/8 7/7/7 9/9/9
f 10/10/10 8/8/8 9/9/9
f 1/1/1 11/11/11 4/4/4
f 11/11/11 12/12/12 4/4/4
f 13/13/13 12/12/12 11/11/11
f 14/14/14 13/13/13 11/11/11
f 14/14/14 15/15/15 13/13/13
f 15/15/15 16/16/16 13/13/13
f 17/17/17 16/16/16 15/15/15
f 18/18/18 17/17/17 15/15/15
f 18/18/18 19/19/19 17/17/17
f 19/19/19 20/20/20 17/17/17
f 21/21/21 20/20/20 19/19/19
f 22/22/22 21/21/21 19/19/19
f 22/22/22 23/23/23 21/21/21
f 23/23/23 24/24/24 21/21/21
f 10/10/10 9/9/9 25/25/25
f 9/9/9 26/26/26 25/25/25
f 25/25/25 26/26/26 27/27/27
f 28/28/28 25/25/25 27/27/27
f 28/28/28 27/27/27 29/29/29
f 27/27/27 30/30/30 29/29/29
f 29/29/29 30/30/30 31/31/31
f 32/32/32 29/29/29 31/31/31
f 32/32/32 31/31/31 33/33/33
f 31/31/31 34/34/34 33/33/33
f 33/33/33 34/34/34 35/35/35
f 36/36/36 33/33/33 35/35/35
f 36/36/36 35/35/35 37/37/37
f 35/35/35 38/38/38 37/37/37
f 37/37/37 38/38/38 39/39/39
f 40/40/40 37/37/37 39/39/39
f 43/43/43 42/42/42 41/41/41
f 44/44/44 43/43/43 41/41/41
f 45/45/45 42/42/42 43/43/43
f 46/46/46 45/45/45 43/43/43
f 44/44/44 41/41/41 47/47/47
f 41/41/41 48/48/48 47/47/47
f 47/47/47 48/48/48 49/49/49
f 50/50/50 47/47/47 49/49/49
f 50/50/50 49/49/49 51/51/51
f 49/49/49 52/52/52 51/51/51
f 51/51/51 52/52/52 24/24/24
f 23/23/23 51/51/51 24/24/24
f 55/55/55 54/54/54 53/53/53
f 53/53/53 56/56/56 55/55/55
f 57/57/57 56/56/56 53/53/53
f 58/58/58 57/57/57 53/53/53
f 59/59/59 58/58/58 53/53/53
f 53/53/53 60/60/60 59/59/59
f 61/61/61 60/60/60 53/53/53
f 62/62/62 61/61/61 53/53/53
f 63/63/63 62/62/62 53/53/53
f 53/53/53 64/64/64 63/63/63
f 65/65/65 64/64/64 53/53/53
f 66/66/66 65/65/65 53/53/53
f 67/67/67 66/66/66 53/53/53
f 53/53/53 68/68/68 67/67/67
f 69/69/69 68/68/68 53/53/53
f 70/70/70 69/69/69 53/53/53
f 71/71/71 70/70/70 53/53/53
f 72/72/72 71/71/71 53/53/53
f 53/53/53 73/73/73 72/72/72
f 74/74/74 73/73/73 53/53/53
f 75/75/75 74/74/74 53/53/53
f 76/76/76 75/75/75 53/53/53
f 53/53/53 77/77/77 76/76/76
f 78/78/78 77/77/77 53/53/53
f 54/54/54 78/78/78 53/53/53
f 81/81/81 80/80/80 79/79/79
f 79/79/79 82/82/82 81/81/81
f 83/83/83 82/82/82 79/79/79
f 84/84/84 83/83/83 79/79/79
f 85/85/85 84/84/84 79/79/79
f 79/79/79 86/86/86 85/85/85
f 87/87/87 86/86/86 79/79/79
f 88/88/88 87/87/87 79/79/79
f 89/89/89 88/88/88 79/79/79
f 79/79/79 90/90/90 89/89/89
f 91/91/91 90/90/90 79/79/79
f 92/92/92 91/91/91 79/79/79
f 93/93/93 92/92/92 79/79/79
f 79/79/79 94/94/94 93/93/93
f 95/95/95 94/94/94 79/79/79
f 96/96/96 95/95/95 79/79/79
f 97/97/97 96/96/96 79/79/79
f 79/79/79 98/98/98 97/97/97
f 79/79/79 99/99/99 98/98/98
f 100/100/100 99/99/99 79/79/79
f 101/101/101 100/100/100 79/79/79
f 102/102/102 101/101/101 79/79/79
f 79/79/79 103/103/103 102/102/102
f 104/104/104 103/103/103 79/79/79
f 80/80/80 104/104/104 79/79/79
