g m_map_roudabout_01
v 0.8510896 -0.03003951 -0.2280487
v 0.6331834 0.02643744 -0.1696609
v 0.5676967 0.02643744 -0.3277597
v 0.763066 -0.03003951 -0.4405563
v 0.4635224 0.02643744 -0.4635223
v 0.6230407 -0.03003951 -0.6230406
v 0.3277599 0.02643744 -0.5676966
v 0.4405564 -0.03003951 -0.7630659
v 0.1696611 0.02643744 -0.6331832
v 0.2280488 -0.03003951 -0.8510895
v 9.271128E-08 0.02643744 -0.6555195
v 8.518129E-08 -0.03003951 -0.8811128
v -0.1696609 0.02643744 -0.6331834
v -0.2280487 -0.03003951 -0.8510896
v -0.3277598 0.02643744 -0.5676968
v -0.4405564 -0.03003951 -0.7630661
v -0.4635224 0.02643744 -0.4635224
v -0.6230407 -0.03003951 -0.623041
v -0.5676968 0.02643744 -0.3277599
v -0.7630661 -0.03003951 -0.4405566
v -0.6331834 0.02643744 -0.1696611
v -0.8510897 -0.03003951 -0.2280488
v -0.6555198 0.02643744 -2.086301E-08
v -0.8811129 -0.03003951 -7.733792E-08
v -0.6331835 0.02643744 0.169661
v -0.8510899 -0.03003951 0.2280488
v -0.5676968 0.02643744 0.3277599
v -0.7630663 -0.03003951 0.4405564
v -0.4635224 0.02643744 0.4635225
v -0.623041 -0.03003951 0.6230409
v -0.3277599 0.02643744 0.5676968
v -0.4405566 -0.03003951 0.7630662
v -0.169661 0.02643744 0.6331835
v -0.2280488 -0.03003951 0.8510897
v -4.968795E-09 0.02643744 0.6555198
v -4.611481E-08 -0.03003951 0.8811131
v 0.169661 0.02643744 0.6331836
v 0.2280488 -0.03003951 0.8510898
v 0.3277599 0.02643744 0.5676969
v 0.4405566 -0.03003951 0.7630663
v 0.4635225 0.02643744 0.4635226
v 0.623041 -0.03003951 0.623041
v 0.567697 0.02643744 0.32776
v 0.7630663 -0.03003951 0.4405566
v 0.6331837 0.02643744 0.1696611
v 0.8510899 -0.03003951 0.2280489
v 0.65552 0.02643744 1.820904E-08
v 0.8811132 -0.03003951 -2.481948E-08
v -5.020532E-08 -0.04805619 0.9035403
v -0.2338534 -0.04805619 0.8727527
v 0.2338534 -0.04805619 0.8727529
v 0.4517702 -0.04805619 0.7824888
v 0.6388994 -0.04805619 0.6388994
v 0.7824888 -0.04805619 0.4517702
v 0.8727529 -0.04805619 0.2338535
v 0.9035404 -0.04805619 -2.909714E-08
v 0.8727527 -0.04805619 -0.2338533
v 0.7824886 -0.04805619 -0.4517699
v 0.6388992 -0.04805619 -0.6388991
v 0.45177 -0.04805619 -0.7824885
v 0.2338534 -0.04805619 -0.8727524
v 8.443269E-08 -0.04805619 -0.90354
v -0.2338533 -0.04805619 -0.8727527
v -0.45177 -0.04805619 -0.7824886
v -0.6388992 -0.04805619 -0.6388994
v -0.7824886 -0.04805619 -0.4517702
v -0.8727527 -0.04805619 -0.2338534
v -0.9035402 -0.04805619 -8.295235E-08
v -0.8727529 -0.04805619 0.2338534
v -0.7824888 -0.04805619 0.45177
v -0.6388994 -0.04805619 0.6388993
v -0.4517702 -0.04805619 0.7824888
v -0.1177009 0.07137753 -0.1177009
v -0.0430815 0.07137753 -0.1607825
v 0.04308157 0.07137753 -0.1607824
v 0.1177009 0.07137753 -0.1177009
v -0.1607825 0.07137753 -0.04308149
v 0.1607825 0.07137753 -0.04308148
v -0.1607825 0.07137753 0.04308157
v 0.1607826 0.07137753 0.04308158
v -0.1177009 0.07137753 0.117701
v 0.117701 0.07137753 0.117701
v -0.04308153 0.07137753 0.1607826
v 0.04308158 0.07137753 0.1607826
v 0.2365537 0.02643744 -0.06338432
v 0.2365538 0.02643744 0.06338441
v 0.1731693 0.02643744 -0.1731693
v 0.0633844 0.02643744 -0.2365536
v -0.06338433 0.02643744 -0.2365536
v -0.1731693 0.02643744 -0.1731693
v -0.2365537 0.02643744 -0.0633844
v -0.2365537 0.02643744 0.06338438
v -0.1731693 0.02643744 0.1731693
v -0.06338438 0.02643744 0.2365537
v 0.0633844 0.02643744 0.2365537
v 0.1731693 0.02643744 0.1731694
v 0.2365538 0.02643744 0.06338441
v 0.2129197 0.08551802 0.05705167
v 0.2129196 0.08551802 -0.05705157
v 0.2365537 0.02643744 -0.06338432
v 0.1558679 0.08551802 -0.1558679
v 0.1731693 0.02643744 -0.1731693
v 0.05705165 0.08551802 -0.2129195
v 0.0633844 0.02643744 -0.2365536
v -0.05705159 0.08551802 -0.2129195
v -0.06338433 0.02643744 -0.2365536
v 0.1731693 0.02643744 0.1731694
v 0.155868 0.08551802 0.155868
v 0.0633844 0.02643744 0.2365537
v 0.05705165 0.08551802 0.2129196
v -0.06338438 0.02643744 0.2365537
v -0.05705163 0.08551802 0.2129196
v -0.1731693 0.02643744 0.1731693
v -0.1558679 0.08551802 0.155868
v -0.2365537 0.02643744 0.06338438
v -0.2129196 0.08551802 0.05705164
v -0.2365537 0.02643744 -0.0633844
v -0.2129195 0.08551802 -0.05705165
v -0.1731693 0.02643744 -0.1731693
v -0.1558679 0.08551802 -0.1558679
v -0.06338433 0.02643744 -0.2365536
v -0.05705159 0.08551802 -0.2129195
v 0.2129197 0.08551802 0.05705167
v 0.1701532 0.08551802 0.04559243
v 0.1701531 0.08551802 -0.04559232
v 0.2129196 0.08551802 -0.05705157
v 0.1245607 0.08551802 -0.1245607
v 0.1558679 0.08551802 -0.1558679
v 0.04559241 0.08551802 -0.170153
v 0.05705165 0.08551802 -0.2129195
v -0.04559234 0.08551802 -0.1701531
v -0.05705159 0.08551802 -0.2129195
v -0.1245607 0.08551802 -0.1245607
v -0.1558679 0.08551802 -0.1558679
v -0.1701531 0.08551802 -0.04559233
v -0.2129195 0.08551802 -0.05705165
v -0.1701531 0.08551802 0.04559241
v -0.2129196 0.08551802 0.05705164
v -0.1245607 0.08551802 0.1245607
v -0.1558679 0.08551802 0.155868
v -0.04559238 0.08551802 0.1701532
v -0.05705163 0.08551802 0.2129196
v 0.04559242 0.08551802 0.1701532
v 0.05705165 0.08551802 0.2129196
v 0.1245607 0.08551802 0.1245608
v 0.155868 0.08551802 0.155868
v 0.1701532 0.08551802 0.04559243
v 0.1607826 0.07137753 0.04308158
v 0.1607825 0.07137753 -0.04308148
v 0.1701531 0.08551802 -0.04559232
v 0.1177009 0.07137753 -0.1177009
v 0.1245607 0.08551802 -0.1245607
v 0.04308157 0.07137753 -0.1607824
v 0.04559241 0.08551802 -0.170153
v -0.0430815 0.07137753 -0.1607825
v -0.04559234 0.08551802 -0.1701531
v 0.1245607 0.08551802 0.1245608
v 0.117701 0.07137753 0.117701
v 0.04559242 0.08551802 0.1701532
v 0.04308158 0.07137753 0.1607826
v -0.04559238 0.08551802 0.1701532
v -0.04308153 0.07137753 0.1607826
v -0.1245607 0.08551802 0.1245607
v -0.1177009 0.07137753 0.117701
v -0.1701531 0.08551802 0.04559241
v -0.1607825 0.07137753 0.04308157
v -0.1701531 0.08551802 -0.04559233
v -0.1607825 0.07137753 -0.04308149
v -0.1245607 0.08551802 -0.1245607
v -0.1177009 0.07137753 -0.1177009
v -0.04559234 0.08551802 -0.1701531
v -0.0430815 0.07137753 -0.1607825
vt 0.8810158 0.3466415
vt 0.7725874 0.3756947
vt 0.7400019 0.2970262
vt 0.8372158 0.2408999
vt 0.6881659 0.2294722
vt 0.7675407 0.1500974
vt 0.620612 0.1776361
vt 0.6767385 0.08042215
vt 0.5419434 0.1450505
vt 0.5709965 0.03662251
vt 0.4575217 0.1339362
vt 0.4575217 0.02168317
vt 0.3731 0.1450505
vt 0.3440468 0.03662242
vt 0.2944317 0.177636
vt 0.2383051 0.08042205
vt 0.2268775 0.2294721
vt 0.1475027 0.1500973
vt 0.1750414 0.2970262
vt 0.07782733 0.2408997
vt 0.1424558 0.3756947
vt 0.0340277 0.3466414
vt 0.1313413 0.4601164
vt 0.01908839 0.4601163
vt 0.1424558 0.544538
vt 0.03402758 0.5735911
vt 0.1750413 0.6232065
vt 0.07782722 0.6793331
vt 0.2268775 0.6907606
vt 0.1475025 0.7701355
vt 0.2944317 0.7425969
vt 0.2383051 0.8398107
vt 0.3731 0.7751824
vt 0.3440468 0.8836103
vt 0.4575217 0.7862967
vt 0.4575217 0.8985496
vt 0.5419434 0.7751824
vt 0.5709965 0.8836103
vt 0.620612 0.7425969
vt 0.6767385 0.8398107
vt 0.6881659 0.6907607
vt 0.7675407 0.7701355
vt 0.7400019 0.6232065
vt 0.8372159 0.6793331
vt 0.7725877 0.544538
vt 0.8810158 0.5735911
vt 0.7837021 0.4601164
vt 0.8959551 0.4601164
vt 0.4575217 0.9097093
vt 0.3411585 0.8943896
vt 0.5738848 0.8943897
vt 0.6823181 0.8494752
vt 0.7754319 0.7780266
vt 0.8468806 0.6849128
vt 0.891795 0.5764796
vt 0.9071146 0.4601164
vt 0.891795 0.3437532
vt 0.8468804 0.23532
vt 0.7754318 0.1422064
vt 0.6823181 0.07075758
vt 0.5738848 0.02584322
vt 0.4575217 0.01052363
vt 0.3411585 0.0258431
vt 0.2327254 0.07075758
vt 0.1396115 0.1422063
vt 0.06816304 0.2353199
vt 0.02324843 0.3437531
vt 0.007928848 0.4601163
vt 0.02324831 0.5764794
vt 0.06816292 0.6849128
vt 0.1396115 0.7780266
vt 0.2327251 0.8494752
vt 0.8493521 0.05657095
vt 0.8838043 0.0366798
vt 0.9235864 0.0366798
vt 0.958039 0.05657095
vt 0.829461 0.09102321
vt 0.9779298 0.09102321
vt 0.8294609 0.1308054
vt 0.9779298 0.1308054
vt 0.8493521 0.1652578
vt 0.958039 0.1652578
vt 0.8838043 0.185149
vt 0.9235864 0.185149
vt 0.5752286 0.4285769
vt 0.5752286 0.4916558
vt 0.543689 0.373949
vt 0.4890611 0.3424095
vt 0.4259822 0.3424095
vt 0.3713543 0.373949
vt 0.3398149 0.4285769
vt 0.3398149 0.4916558
vt 0.3713542 0.5462837
vt 0.4259821 0.5778231
vt 0.4890611 0.5778231
vt 0.543689 0.5462837
vt 0.4889462 0.9263579
vt 0.4889462 0.964502
vt 0.5490139 0.964502
vt 0.5490139 0.9263579
vt 0.6090814 0.964502
vt 0.6090814 0.9263579
vt 0.6691493 0.964502
vt 0.6691493 0.9263579
vt 0.7292168 0.964502
vt 0.7292168 0.9263579
vt 0.4288785 0.9263579
vt 0.4288783 0.964502
vt 0.3688107 0.9263579
vt 0.3688104 0.964502
vt 0.3087431 0.9263579
vt 0.308743 0.964502
vt 0.2486751 0.9263579
vt 0.2486751 0.964502
vt 0.1886076 0.9263579
vt 0.1886076 0.964502
vt 0.1285398 0.9263579
vt 0.1285398 0.964502
vt 0.06847227 0.9263579
vt 0.06847239 0.964502
vt 0.008404851 0.9263579
vt 0.008404851 0.964502
vt 0.9427308 0.9240799
vt 0.9229852 0.918789
vt 0.9229852 0.8766884
vt 0.9427305 0.8713976
vt 0.9019345 0.8402282
vt 0.9163893 0.8257734
vt 0.8654741 0.8191777
vt 0.870765 0.7994322
vt 0.8233734 0.8191777
vt 0.8180827 0.7994322
vt 0.7869133 0.8402282
vt 0.7724586 0.8257734
vt 0.7658631 0.8766884
vt 0.7461174 0.8713975
vt 0.7658631 0.918789
vt 0.7461174 0.9240799
vt 0.7869133 0.9552493
vt 0.7724586 0.9697042
vt 0.8233734 0.9762996
vt 0.8180827 0.9960454
vt 0.8654741 0.9762996
vt 0.870765 0.9960454
vt 0.9019347 0.9552493
vt 0.9163896 0.9697042
vt 0.4867556 0.9812212
vt 0.4867556 0.9903507
vt 0.5468233 0.9903507
vt 0.5468233 0.9812212
vt 0.6068908 0.9903507
vt 0.6068908 0.9812212
vt 0.6669587 0.9903507
vt 0.6669587 0.9812212
vt 0.7270262 0.9903507
vt 0.7270262 0.9812212
vt 0.4266877 0.9812212
vt 0.4266877 0.9903507
vt 0.3666201 0.9812212
vt 0.3666201 0.9903507
vt 0.3065524 0.9812212
vt 0.3065524 0.9903507
vt 0.2464845 0.9812212
vt 0.2464845 0.9903507
vt 0.186417 0.9812212
vt 0.186417 0.9903507
vt 0.1263492 0.9812212
vt 0.1263492 0.9903507
vt 0.0662818 0.9812212
vt 0.0662818 0.9903507
vt 0.006214261 0.9812212
vt 0.006214261 0.9903507
vn 0.2907052 0.9536367 -0.07789452
vn 0.144168 0.9887989 -0.03862986
vn 0.1305129 0.988579 -0.07535169
vn 0.260639 0.9536367 -0.1504801
vn 0.1055383 0.9887989 -0.1055383
vn 0.2128109 0.9536367 -0.2128109
vn 0.07535169 0.988579 -0.1305129
vn 0.1504802 0.9536367 -0.2606392
vn 0.03862974 0.9887989 -0.144168
vn 0.07789428 0.9536367 -0.2907053
vn 0 0.988579 -0.1507033
vn 1.126993E-07 0.9536367 -0.3009602
vn -0.03862965 0.9887989 -0.1441681
vn -0.0778941 0.9536367 -0.2907052
vn -0.07535163 0.988579 -0.1305129
vn -0.15048 0.9536367 -0.2606392
vn -0.1055383 0.9887989 -0.1055383
vn -0.2128109 0.9536367 -0.212811
vn -0.1305129 0.988579 -0.07535171
vn -0.2606392 0.9536367 -0.1504802
vn -0.144168 0.9887989 -0.03862975
vn -0.2907052 0.9536367 -0.07789429
vn -0.1507033 0.988579 0
vn -0.3009601 0.9536367 -1.275607E-07
vn -0.144168 0.9887989 0.03862967
vn -0.2907052 0.9536367 0.07789415
vn -0.1305128 0.988579 0.07535168
vn -0.2606391 0.9536367 0.1504801
vn -0.1055383 0.9887989 0.1055383
vn -0.2128109 0.9536367 0.2128109
vn -0.07535164 0.988579 0.1305129
vn -0.15048 0.9536367 0.2606391
vn -0.03862974 0.9887989 0.144168
vn -0.07789428 0.9536367 0.2907052
vn 0 0.988579 0.1507033
vn 0 0.9536367 0.3009602
vn 0.03862969 0.9887989 0.144168
vn 0.07789421 0.9536367 0.2907052
vn 0.07535164 0.988579 0.1305129
vn 0.1504801 0.9536367 0.2606392
vn 0.1055382 0.9887989 0.1055383
vn 0.2128109 0.9536367 0.212811
vn 0.1305129 0.988579 0.07535168
vn 0.2606392 0.9536367 0.1504802
vn 0.144168 0.9887989 0.03862972
vn 0.2907053 0.9536367 0.07789426
vn 0.1507034 0.988579 -1.124599E-07
vn 0.3009602 0.9536367 -1.975335E-07
vn -2.247614E-07 0.7795969 0.6262817
vn -0.1620938 0.7795968 0.6049418
vn 0.1620936 0.7795971 0.6049414
vn 0.3131407 0.7795972 0.5423756
vn 0.4428479 0.7795969 0.442848
vn 0.5423761 0.7795966 0.3131411
vn 0.6049413 0.7795972 0.1620936
vn 0.6262814 0.7795971 -3.420282E-07
vn 0.604941 0.7795973 -0.162094
vn 0.5423744 0.7795982 -0.3131401
vn 0.4428476 0.7795975 -0.4428475
vn 0.3131408 0.7795971 -0.5423756
vn 0.1620938 0.7795965 -0.604942
vn 2.101033E-07 0.7795963 -0.6262823
vn -0.1620934 0.7795969 -0.6049417
vn -0.3131404 0.7795973 -0.5423755
vn -0.4428475 0.7795973 -0.4428477
vn -0.5423758 0.7795969 -0.3131409
vn -0.6049427 0.779596 -0.1620941
vn -0.6262825 0.7795962 -2.491923E-07
vn -0.6049418 0.7795968 0.1620936
vn -0.5423759 0.7795968 0.313141
vn -0.442848 0.779597 0.4428478
vn -0.3131404 0.7795972 0.5423755
vn 0 1 0
vn 0 1 0
vn 0 1 0
vn 0 1 0
vn 0 1 0
vn 0 1 0
vn 0 1 0
vn 0 1 0
vn 0 1 0
vn 0 1 0
vn 0 1 0
vn 0 1 0
vn 0 1 0
vn 0 1 0
vn 0 1 0
vn 0 1 0
vn 0 1 0
vn 0 1 0
vn 0 1 0
vn 0 1 0
vn 0 1 0
vn 0 1 0
vn 0 1 0
vn 0 1 0
vn 0.8924211 0.3826283 0.2391234
vn 0.8924211 0.3826284 0.2391234
vn 0.8924211 0.3826283 -0.239124
vn 0.8924211 0.3826283 -0.239124
vn 0.6532978 0.3826281 -0.6532976
vn 0.6532977 0.3826281 -0.6532977
vn 0.2391236 0.3826282 -0.8924211
vn 0.2391236 0.3826282 -0.8924211
vn -0.2391234 0.3826282 -0.8924212
vn -0.2391234 0.3826282 -0.8924211
vn 0.6532976 0.3826281 0.6532979
vn 0.6532976 0.3826281 0.6532978
vn 0.2391234 0.3826282 0.8924212
vn 0.2391234 0.3826282 0.8924212
vn -0.2391237 0.3826281 0.8924211
vn -0.2391237 0.3826281 0.8924211
vn -0.6532977 0.3826282 0.6532975
vn -0.6532977 0.3826283 0.6532977
vn -0.8924211 0.3826286 0.2391234
vn -0.8924211 0.3826286 0.2391234
vn -0.8924211 0.3826284 -0.2391237
vn -0.8924211 0.3826284 -0.2391237
vn -0.6532974 0.3826283 -0.6532978
vn -0.6532975 0.3826283 -0.6532978
vn -0.2391234 0.3826282 -0.8924211
vn -0.2391234 0.3826282 -0.8924212
vn 0 1 0
vn 0 1 0
vn 0 1 0
vn 0 1 0
vn 0 1 -1.738013E-07
vn 0 1 -1.738013E-07
vn 0 1 -2.824272E-07
vn 0 1 -2.824272E-07
vn 0 1 -1.30351E-07
vn 0 1 -1.30351E-07
vn 0 1 0
vn 0 1 0
vn 0 1 0
vn 0 1 0
vn 0 1 0
vn 0 1 0
vn 0 1 0
vn 0 1 0
vn 0 1 0
vn 0 1 0
vn 0 1 0
vn 0 1 0
vn 0 1 -1.194884E-07
vn 0 1 -1.194884E-07
vn -0.7965 0.56572 -0.2134213
vn -0.7965 0.56572 -0.2134213
vn -0.7965 0.5657197 0.2134219
vn -0.7965 0.5657198 0.2134219
vn -0.5830787 0.5657194 0.5830786
vn -0.5830787 0.5657194 0.5830787
vn -0.2134218 0.5657194 0.7965004
vn -0.2134217 0.5657194 0.7965004
vn 0.2134215 0.5657194 0.7965004
vn 0.2134215 0.5657194 0.7965004
vn -0.5830787 0.5657194 -0.5830786
vn -0.5830787 0.5657195 -0.5830787
vn -0.2134216 0.5657192 -0.7965004
vn -0.2134216 0.5657192 -0.7965004
vn 0.2134218 0.5657195 -0.7965002
vn 0.2134218 0.5657195 -0.7965001
vn 0.5830786 0.5657197 -0.5830786
vn 0.5830787 0.5657197 -0.5830786
vn 0.7965007 0.5657189 -0.2134215
vn 0.7965007 0.5657189 -0.2134215
vn 0.7965008 0.5657186 0.213422
vn 0.7965007 0.5657186 0.213422
vn 0.5830786 0.5657194 0.5830789
vn 0.5830787 0.5657193 0.5830789
vn 0.2134215 0.5657194 0.7965004
vn 0.2134215 0.5657194 0.7965004
g m_map_roudabout_01_0
f 3/3/3 2/2/2 1/1/1
f 4/4/4 3/3/3 1/1/1
f 5/5/5 3/3/3 4/4/4
f 6/6/6 5/5/5 4/4/4
f 7/7/7 5/5/5 6/6/6
f 8/8/8 7/7/7 6/6/6
f 9/9/9 7/7/7 8/8/8
f 10/10/10 9/9/9 8/8/8
f 11/11/11 9/9/9 10/10/10
f 12/12/12 11/11/11 10/10/10
f 13/13/13 11/11/11 12/12/12
f 14/14/14 13/13/13 12/12/12
f 15/15/15 13/13/13 14/14/14
f 16/16/16 15/15/15 14/14/14
f 17/17/17 15/15/15 16/16/16
f 18/18/18 17/17/17 16/16/16
f 19/19/19 17/17/17 18/18/18
f 20/20/20 19/19/19 18/18/18
f 21/21/21 19/19/19 20/20/20
f 22/22/22 21/21/21 20/20/20
f 23/23/23 21/21/21 22/22/22
f 24/24/24 23/23/23 22/22/22
f 25/25/25 23/23/23 24/24/24
f 26/26/26 25/25/25 24/24/24
f 27/27/27 25/25/25 26/26/26
f 28/28/28 27/27/27 26/26/26
f 29/29/29 27/27/27 28/28/28
f 30/30/30 29/29/29 28/28/28
f 31/31/31 29/29/29 30/30/30
f 32/32/32 31/31/31 30/30/30
f 33/33/33 31/31/31 32/32/32
f 34/34/34 33/33/33 32/32/32
f 35/35/35 33/33/33 34/34/34
f 36/36/36 35/35/35 34/34/34
f 37/37/37 35/35/35 36/36/36
f 38/38/38 37/37/37 36/36/36
f 39/39/39 37/37/37 38/38/38
f 40/40/40 39/39/39 38/38/38
f 41/41/41 39/39/39 40/40/40
f 42/42/42 41/41/41 40/40/40
f 43/43/43 41/41/41 42/42/42
f 44/44/44 43/43/43 42/42/42
f 45/45/45 43/43/43 44/44/44
f 46/46/46 45/45/45 44/44/44
f 47/47/47 45/45/45 46/46/46
f 48/48/48 47/47/47 46/46/46
f 2/2/2 47/47/47 48/48/48
f 1/1/1 2/2/2 48/48/48
f 36/36/36 49/49/49 38/38/38
f 50/50/50 49/49/49 36/36/36
f 49/49/49 51/51/51 38/38/38
f 38/38/38 51/51/51 40/40/40
f 51/51/51 52/52/52 40/40/40
f 40/40/40 52/52/52 42/42/42
f 52/52/52 53/53/53 42/42/42
f 42/42/42 53/53/53 44/44/44
f 53/53/53 54/54/54 44/44/44
f 44/44/44 54/54/54 46/46/46
f 54/54/54 55/55/55 46/46/46
f 46/46/46 55/55/55 48/48/48
f 55/55/55 56/56/56 48/48/48
f 48/48/48 56/56/56 1/1/1
f 56/56/56 57/57/57 1/1/1
f 1/1/1 57/57/57 4/4/4
f 57/57/57 58/58/58 4/4/4
f 4/4/4 58/58/58 6/6/6
f 58/58/58 59/59/59 6/6/6
f 6/6/6 59/59/59 8/8/8
f 59/59/59 60/60/60 8/8/8
f 8/8/8 60/60/60 10/10/10
f 60/60/60 61/61/61 10/10/10
f 10/10/10 61/61/61 12/12/12
f 61/61/61 62/62/62 12/12/12
f 12/12/12 62/62/62 14/14/14
f 62/62/62 63/63/63 14/14/14
f 14/14/14 63/63/63 16/16/16
f 63/63/63 64/64/64 16/16/16
f 16/16/16 64/64/64 18/18/18
f 64/64/64 65/65/65 18/18/18
f 18/18/18 65/65/65 20/20/20
f 65/65/65 66/66/66 20/20/20
f 20/20/20 66/66/66 22/22/22
f 66/66/66 67/67/67 22/22/22
f 22/22/22 67/67/67 24/24/24
f 67/67/67 68/68/68 24/24/24
f 24/24/24 68/68/68 26/26/26
f 68/68/68 69/69/69 26/26/26
f 26/26/26 69/69/69 28/28/28
f 69/69/69 70/70/70 28/28/28
f 28/28/28 70/70/70 30/30/30
f 70/70/70 71/71/71 30/30/30
f 30/30/30 71/71/71 32/32/32
f 71/71/71 72/72/72 32/32/32
f 32/32/32 72/72/72 34/34/34
f 72/72/72 50/50/50 34/34/34
f 34/34/34 50/50/50 36/36/36
f 75/75/75 74/74/74 73/73/73
f 73/73/73 76/76/76 75/75/75
f 73/73/73 77/77/77 76/76/76
f 77/77/77 78/78/78 76/76/76
f 77/77/77 79/79/79 78/78/78
f 79/79/79 80/80/80 78/78/78
f 79/79/79 81/81/81 80/80/80
f 81/81/81 82/82/82 80/80/80
f 81/81/81 83/83/83 82/82/82
f 83/83/83 84/84/84 82/82/82
f 85/85/85 47/47/47 2/2/2
f 85/85/85 86/86/86 47/47/47
f 3/3/3 85/85/85 2/2/2
f 87/87/87 85/85/85 3/3/3
f 87/87/87 3/3/3 5/5/5
f 7/7/7 87/87/87 5/5/5
f 88/88/88 87/87/87 7/7/7
f 88/88/88 7/7/7 9/9/9
f 11/11/11 88/88/88 9/9/9
f 89/89/89 88/88/88 11/11/11
f 89/89/89 11/11/11 13/13/13
f 15/15/15 89/89/89 13/13/13
f 90/90/90 89/89/89 15/15/15
f 90/90/90 15/15/15 17/17/17
f 19/19/19 90/90/90 17/17/17
f 91/91/91 90/90/90 19/19/19
f 91/91/91 19/19/19 21/21/21
f 23/23/23 91/91/91 21/21/21
f 92/92/92 91/91/91 23/23/23
f 92/92/92 23/23/23 25/25/25
f 27/27/27 92/92/92 25/25/25
f 93/93/93 92/92/92 27/27/27
f 93/93/93 27/27/27 29/29/29
f 31/31/31 93/93/93 29/29/29
f 94/94/94 93/93/93 31/31/31
f 94/94/94 31/31/31 33/33/33
f 35/35/35 94/94/94 33/33/33
f 95/95/95 94/94/94 35/35/35
f 95/95/95 35/35/35 37/37/37
f 39/39/39 95/95/95 37/37/37
f 96/96/96 95/95/95 39/39/39
f 96/96/96 39/39/39 41/41/41
f 43/43/43 96/96/96 41/41/41
f 86/86/86 96/96/96 43/43/43
f 86/86/86 43/43/43 45/45/45
f 47/47/47 86/86/86 45/45/45
f 99/99/99 98/98/98 97/97/97
f 100/100/100 99/99/99 97/97/97
f 101/101/101 99/99/99 100/100/100
f 102/102/102 101/101/101 100/100/100
f 103/103/103 101/101/101 102/102/102
f 104/104/104 103/103/103 102/102/102
f 105/105/105 103/103/103 104/104/104
f 106/106/106 105/105/105 104/104/104
f 97/97/97 98/98/98 107/107/107
f 98/98/98 108/108/108 107/107/107
f 107/107/107 108/108/108 109/109/109
f 108/108/108 110/110/110 109/109/109
f 109/109/109 110/110/110 111/111/111
f 110/110/110 112/112/112 111/111/111
f 111/111/111 112/112/112 113/113/113
f 112/112/112 114/114/114 113/113/113
f 113/113/113 114/114/114 115/115/115
f 114/114/114 116/116/116 115/115/115
f 115/115/115 116/116/116 117/117/117
f 116/116/116 118/118/118 117/117/117
f 117/117/117 118/118/118 119/119/119
f 118/118/118 120/120/120 119/119/119
f 119/119/119 120/120/120 121/121/121
f 120/120/120 122/122/122 121/121/121
f 125/125/125 124/124/124 123/123/123
f 126/126/126 125/125/125 123/123/123
f 127/127/127 125/125/125 126/126/126
f 128/128/128 127/127/127 126/126/126
f 129/129/129 127/127/127 128/128/128
f 130/130/130 129/129/129 128/128/128
f 131/131/131 129/129/129 130/130/130
f 132/132/132 131/131/131 130/130/130
f 133/133/133 131/131/131 132/132/132
f 134/134/134 133/133/133 132/132/132
f 135/135/135 133/133/133 134/134/134
f 136/136/136 135/135/135 134/134/134
f 137/137/137 135/135/135 136/136/136
f 138/138/138 137/137/137 136/136/136
f 139/139/139 137/137/137 138/138/138
f 140/140/140 139/139/139 138/138/138
f 141/141/141 139/139/139 140/140/140
f 142/142/142 141/141/141 140/140/140
f 143/143/143 141/141/141 142/142/142
f 144/144/144 143/143/143 142/142/142
f 145/145/145 143/143/143 144/144/144
f 146/146/146 145/145/145 144/144/144
f 124/124/124 145/145/145 146/146/146
f 123/123/123 124/124/124 146/146/146
f 149/149/149 148/148/148 147/147/147
f 150/150/150 149/149/149 147/147/147
f 151/151/151 149/149/149 150/150/150
f 152/152/152 151/151/151 150/150/150
f 153/153/153 151/151/151 152/152/152
f 154/154/154 153/153/153 152/152/152
f 155/155/155 153/153/153 154/154/154
f 156/156/156 155/155/155 154/154/154
f 147/147/147 148/148/148 157/157/157
f 148/148/148 158/158/158 157/157/157
f 157/157/157 158/158/158 159/159/159
f 158/158/158 160/160/160 159/159/159
f 159/159/159 160/160/160 161/161/161
f 160/160/160 162/162/162 161/161/161
f 161/161/161 162/162/162 163/163/163
f 162/162/162 164/164/164 163/163/163
f 163/163/163 164/164/164 165/165/165
f 164/164/164 166/166/166 165/165/165
f 165/165/165 166/166/166 167/167/167
f 166/166/166 168/168/168 167/167/167
f 167/167/167 168/168/168 169/169/169
f 168/168/168 170/170/170 169/169/169
f 169/169/169 170/170/170 171/171/171
f 170/170/170 172/172/172 171/171/171
