g m_map_raft_rock_02
v -13.19184 0.3701598 4.998967
v -12.9557 0.4107473 4.897291
v -12.95131 0.4473863 4.929954
v -13.18338 0.4043398 5.033211
v -12.90532 0.4321145 4.904626
v -13.18338 0.4043398 5.033211
v -12.93315 0.3068157 5.586179
v -12.96884 0.2735242 5.592923
v -13.20947 0.3651562 5.058887
v -12.93315 0.3068157 5.586179
v -12.39977 0.4197615 5.312656
v -12.38577 0.3740448 5.341222
v -12.91477 0.265682 5.616074
v -12.34461 -0.1925969 5.348308
v -13.02893 -0.1889153 5.713014
v -12.91477 0.265682 5.616074
v -13.02893 -0.1889153 5.713014
v -13.08452 -0.1862362 5.691136
v -12.96884 0.2735242 5.592923
v -12.93315 0.3068157 5.586179
v -12.9557 0.4107473 4.897291
v -12.63199 0.1019125 4.736272
v -12.61208 0.1489513 4.757129
v -12.90532 0.4321145 4.904626
v -12.48635 0.4392241 5.086932
v -12.58368 0.09997392 4.762655
v -12.96722 0.08313778 4.879169
v -12.62898 -0.1929028 4.718054
v -12.57813 -0.1929551 4.74475
v -13.23456 0.2101977 5.009858
v -13.19184 0.3701598 4.998967
v -13.27788 0.04100027 5.022535
v -13.33963 -0.1898403 5.040039
v -12.90532 0.4321145 4.904626
v -12.48635 0.4392241 5.086932
v -12.4758 0.4552571 5.13795
v -12.95131 0.4473863 4.929954
v -12.39977 0.4197615 5.312656
v -13.18338 0.4043398 5.033211
v -12.93315 0.3068157 5.586179
v -12.39977 0.4197615 5.312656
v -12.4758 0.4552571 5.13795
v -12.44564 0.4136898 5.11982
v -12.37162 0.3813632 5.284263
v -12.58368 0.09997392 4.762655
v -12.48635 0.4392241 5.086932
v -12.61208 0.1489513 4.757129
v -12.57813 -0.1929551 4.74475
v -12.33069 -0.1926825 5.292614
v -12.34461 -0.1925969 5.348308
v -12.38577 0.3740448 5.341222
v -12.57813 -0.1929551 4.74475
v -12.58368 0.09997392 4.762655
v -12.63199 0.1019125 4.736272
v -13.19184 0.3701598 4.998967
v -13.18338 0.4043398 5.033211
v -13.20947 0.3651562 5.058887
v -13.23456 0.2101977 5.009858
v -13.24625 0.221762 5.066984
v -13.13886 0.1697441 5.34329
v -12.96884 0.2735242 5.592923
v -13.08452 -0.1862362 5.691136
v -13.28421 0.06488115 5.077219
v -13.35483 -0.1871475 5.095129
v -13.33963 -0.1898403 5.040039
v -13.27788 0.04100027 5.022535
v -13.28421 0.06488115 5.077219
v -13.27788 0.04100027 5.022535
v -13.25611 0.08167689 5.048659
v -13.13886 0.1697441 5.34329
v -13.14213 0.1579208 5.288189
v -13.14213 0.1579208 5.288189
v -13.22636 0.1796428 5.047644
v -13.24625 0.221762 5.066984
v -13.13886 0.1697441 5.34329
v -13.23456 0.2101977 5.009858
v -12.96722 0.08313778 4.879169
v -13.23456 0.2101977 5.009858
v -13.22636 0.1796428 5.047644
v -13.02705 0.09187707 4.92361
v -13.02705 0.09187707 4.92361
v -13.25611 0.08167689 5.048659
v -13.27788 0.04100027 5.022535
v -12.96722 0.08313778 4.879169
v -13.22636 0.1796428 5.047644
v -13.14213 0.1579208 5.288189
v -13.02705 0.09187707 4.92361
v -13.25611 0.08167689 5.048659
v -13.02705 0.09187707 4.92361
v -13.14213 0.1579208 5.288189
v -12.77674 0.2534151 5.504471
v -12.24866 0.1497539 5.50107
v -12.25657 0.1076284 5.541022
v -12.78383 0.2124171 5.546374
v -12.31619 -0.1980016 5.524393
v -12.8446 -0.1960413 5.530236
v -12.24866 0.1497539 5.50107
v -12.26722 0.1405012 5.056911
v -12.23654 0.09122125 5.05835
v -12.21538 0.1005199 5.498973
v -12.21538 0.1005199 5.498973
v -12.27515 -0.2006442 5.480134
v -12.31619 -0.1980016 5.524393
v -12.25657 0.1076284 5.541022
v -12.24866 0.1497539 5.50107
v -12.79836 0.2034205 4.897493
v -12.27214 0.1010672 5.015578
v -12.26722 0.1405012 5.056911
v -12.79442 0.2432408 4.93998
v -12.77674 0.2534151 5.504471
v -12.24866 0.1497539 5.50107
v -12.27214 0.1010672 5.015578
v -12.34144 -0.1962548 4.995948
v -12.30578 -0.1996936 5.038036
v -12.23654 0.09122125 5.05835
v -12.26722 0.1405012 5.056911
v -12.79836 0.2034205 4.897493
v -12.86748 -0.1943898 4.877675
v -12.34144 -0.1962548 4.995948
v -12.27214 0.1010672 5.015578
v -12.21538 0.1005199 5.498973
v -12.23654 0.09122125 5.05835
v -12.30578 -0.1996936 5.038036
v -12.27515 -0.2006442 5.480134
vt 0.9482422 0.4816895
vt 0.8930664 0.4853516
vt 0.8950195 0.4956055
vt 0.9487305 0.4921875
vt 0.8837891 0.4929199
vt 0.8745117 0.8349609
vt 0.753418 0.8696289
vt 0.7563477 0.8793945
vt 0.8720703 0.8457031
vt 0.6147461 0.2636719
vt 0.6362305 0.1379395
vt 0.6245117 0.1375732
vt 0.6035156 0.2619629
vt 0.5029297 0.1375732
vt 0.5131836 0.3037109
vt 0.6035156 0.2619629
vt 0.5131836 0.3037109
vt 0.5170898 0.3156738
vt 0.6098633 0.2727051
vt 0.6147461 0.2636719
vt 0.7919922 0.5209961
vt 0.7241211 0.4494629
vt 0.7197266 0.4597168
vt 0.78125 0.5258789
vt 0.6884766 0.5493164
vt 0.7128906 0.4499512
vt 0.7998047 0.451416
vt 0.7231445 0.3886719
vt 0.7109375 0.3886719
vt 0.8583984 0.4858398
vt 0.8457031 0.5180664
vt 0.8710938 0.4421387
vt 0.8852539 0.394043
vt 0.8837891 0.4929199
vt 0.8149414 0.5610352
vt 0.8173828 0.5722656
vt 0.8950195 0.4956055
vt 0.8193359 0.6132813
vt 0.9487305 0.4921875
vt 0.9482422 0.6210938
vt 0.7768555 0.6416016
vt 0.7666016 0.6811523
vt 0.777832 0.6831055
vt 0.7871094 0.6469727
vt 0.8334961 0.7685547
vt 0.7700195 0.6923828
vt 0.8222656 0.7709961
vt 0.8959961 0.7705078
vt 0.9052734 0.6416016
vt 0.9047852 0.6298828
vt 0.7866211 0.6352539
vt 0.7109375 0.3886719
vt 0.7128906 0.4499512
vt 0.7241211 0.4494629
vt 0.8833008 0.8398438
vt 0.8745117 0.8349609
vt 0.8720703 0.8457031
vt 0.890625 0.8740234
vt 0.878418 0.8745117
vt 0.8217773 0.9003906
vt 0.7563477 0.8793945
vt 0.753418 0.9799805
vt 0.8828125 0.9267578
vt 0.8901367 0.9799805
vt 0.9018555 0.9775391
vt 0.8950195 0.9277344
vt 0.8828125 0.9267578
vt 0.8950195 0.9277344
vt 0.8876953 0.9194336
vt 0.8217773 0.9003906
vt 0.8334961 0.9013672
vt 0.8334961 0.9013672
vt 0.8847656 0.8828125
vt 0.878418 0.8745117
vt 0.8217773 0.9003906
vt 0.890625 0.8740234
vt 0.7998047 0.451416
vt 0.8583984 0.4858398
vt 0.862793 0.4765625
vt 0.8154297 0.4541016
vt 0.8154297 0.4541016
vt 0.8696289 0.4528809
vt 0.8710938 0.4421387
vt 0.7998047 0.451416
vt 0.5556641 0.7294922
vt 0.5141602 0.7636719
vt 0.5957031 0.7636719
vt 0.1958008 0.6381836
vt 0.2347412 0.6762695
vt 0.2347412 0.5952148
vt 0.01000214 0.1661377
vt 0.1228638 0.1656494
vt 0.1228027 0.1533203
vt 0.01008606 0.1538086
vt 0.1228638 0.08795166
vt 0.01400757 0.06719971
vt 0.5180664 0.130249
vt 0.6118164 0.130249
vt 0.6103516 0.1182251
vt 0.5214844 0.1182251
vt 0.5214844 0.1182251
vt 0.5200195 0.05426025
vt 0.5068359 0.05441284
vt 0.5092773 0.12146
vt 0.5180664 0.130249
vt 0.2939453 0.1859131
vt 0.2678223 0.07385254
vt 0.2558594 0.07531738
vt 0.2817383 0.1876221
vt 0.1633301 0.1859131
vt 0.1625977 0.07312012
vt 0.6210938 0.1219482
vt 0.6333008 0.05950928
vt 0.621582 0.05764771
vt 0.6103516 0.1182251
vt 0.6118164 0.130249
vt 0.6450195 0.08886719
vt 0.6455078 0.1737061
vt 0.7568359 0.1529541
vt 0.7602539 0.08886719
vt 0.5214844 0.1182251
vt 0.6103516 0.1182251
vt 0.621582 0.05764771
vt 0.5200195 0.05426025
vn -0.5548148 0.2810239 -0.7830747
vn -0.3494899 0.215781 -0.911754
vn -0.09800199 0.9707219 0.219305
vn -0.09800199 0.9707219 0.219305
vn 0.174402 0.7106239 -0.6816139
vn -0.09800199 0.9707219 0.219305
vn -0.09800199 0.9707219 0.219305
vn -0.7280357 0.4063889 0.5520978
vn -0.8193629 0.4451089 0.361279
vn -0.09800199 0.9707219 0.219305
vn -0.09800199 0.9707219 0.219305
vn 0.5124518 0.115067 0.8509716
vn 0.4161429 0.105813 0.9031217
vn 0.5220569 0.06026499 0.8507789
vn 0.3950601 0.08136202 0.9150453
vn 0.4161429 0.105813 0.9031217
vn 0.3950601 0.08136202 0.9150453
vn -0.7642168 0.2941719 0.5739648
vn -0.7280357 0.4063889 0.5520978
vn -0.09800199 0.9707219 0.219305
vn -0.3494899 0.215781 -0.911754
vn -0.228894 0.117211 -0.966369
vn 0.3383019 0.5519459 -0.7621729
vn 0.174402 0.7106239 -0.6816139
vn 0.3889492 0.6940122 -0.6058592
vn 0.864366 0.09089001 -0.494581
vn -0.412464 0.041612 -0.910023
vn -0.2867411 0.04427702 -0.9569843
vn 0.8794571 0.055707 -0.472707
vn -0.5788699 -0.03338899 -0.8147359
vn -0.5548148 0.2810239 -0.7830747
vn -0.4762932 0.07920102 -0.8757123
vn -0.4930537 0.05649596 -0.8681626
vn 0.174402 0.7106239 -0.6816139
vn 0.3889492 0.6940122 -0.6058592
vn -0.09800199 0.9707219 0.219305
vn -0.09800199 0.9707219 0.219305
vn -0.09800199 0.9707219 0.219305
vn -0.09800199 0.9707219 0.219305
vn -0.09800199 0.9707219 0.219305
vn -0.09800199 0.9707219 0.219305
vn -0.09800199 0.9707219 0.219305
vn 0.8713941 0.2224081 -0.437272
vn 0.9538192 0.106486 -0.2808731
vn 0.864366 0.09089001 -0.494581
vn 0.3889492 0.6940122 -0.6058592
vn 0.3383019 0.5519459 -0.7621729
vn 0.8794571 0.055707 -0.472707
vn 0.9478368 0.06311899 -0.3124439
vn 0.5220569 0.06026499 0.8507789
vn 0.5124518 0.115067 0.8509716
vn 0.8794571 0.055707 -0.472707
vn 0.864366 0.09089001 -0.494581
vn -0.228894 0.117211 -0.966369
vn -0.5548148 0.2810239 -0.7830747
vn -0.09800199 0.9707219 0.219305
vn -0.8193629 0.4451089 0.361279
vn -0.5788699 -0.03338899 -0.8147359
vn -0.9149763 0.2076711 0.3459641
vn -0.8668139 0.281992 0.4112349
vn -0.7280357 0.4063889 0.5520978
vn -0.7642168 0.2941719 0.5739648
vn -0.8926401 0.3319831 0.304928
vn -0.9079709 0.275903 0.315383
vn -0.4930537 0.05649596 -0.8681626
vn -0.4762932 0.07920102 -0.8757123
vn -0.8926401 0.3319831 0.304928
vn -0.4762932 0.07920102 -0.8757123
vn -0.2731369 0.9115185 -0.3074578
vn -0.8668139 0.281992 0.4112349
vn -0.3163118 0.9356335 -0.1566419
vn -0.6477787 -0.7464836 0.1521349
vn -0.5258589 -0.8500298 -0.03036399
vn -0.9149763 0.2076711 0.3459641
vn -0.8668139 0.281992 0.4112349
vn -0.5788699 -0.03338899 -0.8147359
vn -0.412464 0.041612 -0.910023
vn -0.5788699 -0.03338899 -0.8147359
vn -0.5258589 -0.8500298 -0.03036399
vn -0.5197958 -0.8018377 -0.2947349
vn -0.2975141 0.8276592 -0.4758841
vn -0.2731369 0.9115185 -0.3074578
vn -0.4762932 0.07920102 -0.8757123
vn -0.412464 0.041612 -0.910023
vn -0.5258589 -0.8500298 -0.03036399
vn -0.6477787 -0.7464836 0.1521349
vn -0.5197958 -0.8018377 -0.2947349
vn -0.2731369 0.9115185 -0.3074578
vn -0.2975141 0.8276592 -0.4758841
vn -0.3163118 0.9356335 -0.1566419
vn 0.19491 0.9794307 0.05220599
vn 0.254939 0.965679 0.04970299
vn 0.08332303 0.04247101 0.9956172
vn 0.026635 0.06220102 0.9977082
vn 0.06088401 -0.05822601 0.9964451
vn 0.005868001 -0.04682001 0.9988862
vn 0.254939 0.965679 0.04970299
vn 0.257434 0.9626676 -0.08365898
vn 0.9885482 -0.09679803 -0.11577
vn 0.9951042 -0.09309901 0.03317101
vn 0.9951042 -0.09309901 0.03317101
vn 0.9765109 -0.212592 0.03508599
vn 0.06088401 -0.05822601 0.9964451
vn 0.08332303 0.04247101 0.9956172
vn 0.254939 0.965679 0.04970299
vn 0.2363829 0.1055269 -0.9659126
vn 0.2831931 0.103578 -0.9534533
vn 0.257434 0.9626676 -0.08365898
vn 0.2120901 0.9708164 -0.111952
vn 0.19491 0.9794307 0.05220599
vn 0.254939 0.965679 0.04970299
vn 0.2831931 0.103578 -0.9534533
vn 0.258081 0.002111 -0.966121
vn 0.9698188 -0.20404 -0.133488
vn 0.9885482 -0.09679803 -0.11577
vn 0.257434 0.9626676 -0.08365898
vn 0.2363829 0.1055269 -0.9659126
vn 0.2202291 0.01150001 -0.9753804
vn 0.258081 0.002111 -0.966121
vn 0.2831931 0.103578 -0.9534533
vn 0.9951042 -0.09309901 0.03317101
vn 0.9885482 -0.09679803 -0.11577
vn 0.9698188 -0.20404 -0.133488
vn 0.9765109 -0.212592 0.03508599
g m_map_raft_rock_02_0
f 3/3/3 2/2/2 1/1/1
f 4/4/4 3/3/3 1/1/1
f 3/3/3 5/5/5 2/2/2
f 8/8/8 7/7/7 6/6/6
f 9/9/9 8/8/8 6/6/6
f 12/12/12 11/11/11 10/10/10
f 13/13/13 12/12/12 10/10/10
f 14/14/14 12/12/12 13/13/13
f 15/15/15 14/14/14 13/13/13
f 18/18/18 17/17/17 16/16/16
f 19/19/19 18/18/18 16/16/16
f 19/19/19 16/16/16 20/20/20
f 23/23/23 22/22/22 21/21/21
f 24/24/24 23/23/23 21/21/21
f 24/24/24 25/25/25 23/23/23
f 26/26/26 22/22/22 23/23/23
f 27/27/27 21/21/21 22/22/22
f 27/27/27 22/22/22 28/28/28
f 28/28/28 22/22/22 29/29/29
f 30/30/30 21/21/21 27/27/27
f 31/31/31 21/21/21 30/30/30
f 32/32/32 27/27/27 28/28/28
f 33/33/33 32/32/32 28/28/28
f 36/36/36 35/35/35 34/34/34
f 37/37/37 36/36/36 34/34/34
f 36/36/36 37/37/37 38/38/38
f 38/38/38 37/37/37 39/39/39
f 38/38/38 39/39/39 40/40/40
f 43/43/43 42/42/42 41/41/41
f 44/44/44 43/43/43 41/41/41
f 43/43/43 44/44/44 45/45/45
f 43/43/43 45/45/45 46/46/46
f 42/42/42 43/43/43 46/46/46
f 45/45/45 47/47/47 46/46/46
f 45/45/45 44/44/44 48/48/48
f 48/48/48 44/44/44 49/49/49
f 50/50/50 49/49/49 44/44/44
f 51/51/51 50/50/50 44/44/44
f 51/51/51 44/44/44 41/41/41
f 54/54/54 53/53/53 52/52/52
f 57/57/57 56/56/56 55/55/55
f 55/55/55 58/58/58 57/57/57
f 58/58/58 59/59/59 57/57/57
f 59/59/59 60/60/60 57/57/57
f 60/60/60 61/61/61 57/57/57
f 60/60/60 62/62/62 61/61/61
f 63/63/63 62/62/62 60/60/60
f 62/62/62 63/63/63 64/64/64
f 65/65/65 64/64/64 63/63/63
f 66/66/66 65/65/65 63/63/63
f 69/69/69 68/68/68 67/67/67
f 67/67/67 70/70/70 69/69/69
f 70/70/70 71/71/71 69/69/69
f 74/74/74 73/73/73 72/72/72
f 75/75/75 74/74/74 72/72/72
f 74/74/74 76/76/76 73/73/73
f 79/79/79 78/78/78 77/77/77
f 80/80/80 79/79/79 77/77/77
f 83/83/83 82/82/82 81/81/81
f 84/84/84 83/83/83 81/81/81
f 87/87/87 86/86/86 85/85/85
f 90/90/90 89/89/89 88/88/88
f 93/93/93 92/92/92 91/91/91
f 94/94/94 93/93/93 91/91/91
f 95/95/95 93/93/93 94/94/94
f 96/96/96 95/95/95 94/94/94
f 99/99/99 98/98/98 97/97/97
f 100/100/100 99/99/99 97/97/97
f 103/103/103 102/102/102 101/101/101
f 104/104/104 103/103/103 101/101/101
f 104/104/104 101/101/101 105/105/105
f 108/108/108 107/107/107 106/106/106
f 109/109/109 108/108/108 106/106/106
f 108/108/108 109/109/109 110/110/110
f 111/111/111 108/108/108 110/110/110
f 114/114/114 113/113/113 112/112/112
f 115/115/115 114/114/114 112/112/112
f 116/116/116 115/115/115 112/112/112
f 119/119/119 118/118/118 117/117/117
f 120/120/120 119/119/119 117/117/117
f 123/123/123 122/122/122 121/121/121
f 124/124/124 123/123/123 121/121/121
