g m_map_mine_crystal_03
v -0.1559235 0.00964018 -0.004831883
v -0.1538239 -0.001256861 -0.002123143
v -0.1121136 -0.001256858 -0.03864231
v -0.1143512 0.009324259 -0.04109897
v -0.1562994 0.04132074 -0.004999119
v -0.1738946 -0.001256858 0.1737167
v -0.1604266 -0.001256858 0.04090664
v -0.1559235 0.00964018 -0.004831883
v -0.1141937 0.04100071 -0.04173252
v -0.03791321 0.4365046 0.04239956
v -0.0798761 0.4368243 0.07900845
v -0.1562994 0.04132074 -0.004999119
v -0.1559235 0.00964018 -0.004831883
v -0.1143512 0.009324259 -0.04109897
v -0.02379944 0.4643085 0.05897671
v -0.06512634 0.4646235 0.0950314
v -0.1143512 0.009324259 -0.04109897
v -0.07135925 -0.001256858 -0.03938632
v 0.05750915 -0.001256857 -0.03489353
v -0.1141937 0.04100071 -0.04173252
v -0.1121136 -0.001256858 -0.03864231
v -0.07135925 -0.001256858 -0.03938632
v -0.03791321 0.4365046 0.04239956
v 0.05750915 -0.001256857 -0.03489353
v 0.0787738 -0.001256858 -0.03302219
v 0.0773883 -0.00614935 -0.0341019
v 0.1870111 0.3811471 0.05135708
v 0.1861932 0.4126264 0.06733975
v -0.02379944 0.4643085 0.05897671
v 0.1117755 0.5865858 0.2106539
v -0.02379944 0.4643085 0.05897671
v 0.1117755 0.5865858 0.2106539
v 0.06781799 0.58692 0.2490036
v -0.06512634 0.4646235 0.0950314
v -0.06512634 0.4646235 0.0950314
v -0.08575989 0.4146954 0.3045968
v -0.1019769 0.3833456 0.3034787
v -0.0798761 0.4368243 0.07900845
v -0.1562994 0.04132074 -0.004999119
v -0.1738946 -0.001256858 0.1737167
v -0.1745624 -0.001256881 0.1870944
v 0.06781799 0.58692 0.2490036
v -0.1751239 -0.00422974 0.1861947
v -0.08575989 0.4146954 0.3045968
v 0.06781799 0.58692 0.2490036
v 0.1039093 0.5675536 0.2905392
v -0.051828 0.3964886 0.3436459
v -0.051828 0.3964886 0.3436459
v 0.158161 0.3448067 0.3520114
v 0.1574017 0.3095007 0.3520895
v -0.06752502 0.3648577 0.3431295
v 0.1039093 0.5675536 0.2905392
v 0.1478656 0.5672194 0.252192
v 0.1994867 0.3444917 0.3159579
v -0.08575989 0.4146954 0.3045968
v -0.1019769 0.3833456 0.3034787
v 0.199361 0.309181 0.3154806
v 0.07028015 -0.001256862 0.2550552
v 0.1124481 -0.001256852 0.2184463
v -0.1364972 -0.001256859 0.2324856
v 0.07028015 -0.001256862 0.2550552
v 0.1994867 0.3444917 0.3159579
v 0.2201215 0.3944195 0.10639
v 0.2214655 0.3626591 0.0910104
v 0.199361 0.309181 0.3154806
v 0.1478656 0.5672194 0.252192
v 0.1117755 0.5865858 0.2106539
v 0.1861932 0.4126264 0.06733975
v 0.1124481 -0.001256852 0.2184463
v 0.1185846 -0.001256874 0.01084927
v 0.2201215 0.3944195 0.10639
v 0.1861932 0.4126264 0.06733975
v 0.1870111 0.3811471 0.05135708
v 0.2214655 0.3626591 0.0910104
v 0.1185846 -0.001256874 0.01084927
v 0.0787738 -0.001256858 -0.03302219
v 0.1117755 0.5865858 0.2106539
v 0.1478656 0.5672194 0.252192
v 0.1039093 0.5675536 0.2905392
v 0.06781799 0.58692 0.2490036
v -0.02785095 0.547718 -0.3455509
v -0.03506042 0.7886359 -0.2190616
v -0.08172058 0.7840334 -0.2135758
v -0.07126404 0.5433751 -0.3404483
v -0.2061224 0.54182 -0.2173014
v -0.2119537 0.4983513 -0.2159439
v -0.06877746 0.5001414 -0.3467203
v 0.1293719 0.5750589 -0.2567362
v -0.02320984 0.504824 -0.3520902
v 0.1437116 0.5339396 -0.2577994
v 0.03937927 -0.001256862 -0.2675217
v -0.006751099 -0.001256857 -0.2629313
v -0.006751099 -0.001256857 -0.2629313
v -0.1243427 -0.001256876 -0.1559513
v 0.1773956 -0.001256862 -0.1872629
v 0.03937927 -0.001256862 -0.2675217
v -0.2061224 0.54182 -0.2173014
v -0.08172058 0.7840334 -0.2135758
v -0.09146057 0.788008 -0.1675589
v -0.2151898 0.5454825 -0.1744535
v -0.1413129 0.5718629 -0.009534031
v -0.1430133 0.5301329 0.004161037
v -0.2214655 0.5021198 -0.1709671
v -0.2119537 0.4983513 -0.2159439
v -0.1243427 -0.001256876 -0.1559513
v -0.1331927 -0.001256857 -0.1105106
v -0.1331927 -0.001256857 -0.1105106
v -0.06563171 -0.001256876 0.03414089
v -0.1413129 0.5718629 -0.009534031
v -0.09146057 0.788008 -0.1675589
v -0.05082214 0.7950667 -0.1445999
v -0.1034784 0.5784713 0.01183194
v 0.07703308 0.5963279 -0.009402196
v 0.08834168 0.5562443 0.004018214
v -0.1033124 0.537144 0.02657681
v -0.01596497 0.7954549 -0.1764334
v 0.1094586 0.5967478 -0.03903354
v -0.1430133 0.5301329 0.004161037
v 0.1223688 0.5568069 -0.02710849
v -0.06563171 -0.001256876 0.03414089
v -0.02490295 -0.001256857 0.05695767
v 0.1311261 -0.001256881 0.03971157
v 0.1651874 -0.001256857 0.008636134
v -0.02490295 -0.001256857 0.05695767
v 0.1311261 -0.001256881 0.03971157
v 0.1094586 0.5967478 -0.03903354
v 0.1471368 0.5814025 -0.2170767
v 0.1623663 0.5406009 -0.2161551
v 0.1223688 0.5568069 -0.02710849
v -0.01596497 0.7954549 -0.1764334
v -0.03506042 0.7886359 -0.2190616
v 0.1293719 0.5750589 -0.2567362
v 0.1437116 0.5339396 -0.2577994
v 0.1964581 -0.001256876 -0.144766
v 0.1773956 -0.001256862 -0.1872629
v 0.1651874 -0.001256857 0.008636134
v 0.1964581 -0.001256876 -0.144766
v -0.08172058 0.7840334 -0.2135758
v -0.03506042 0.7886359 -0.2190616
v -0.01596497 0.7954549 -0.1764334
v -0.09146057 0.788008 -0.1675589
v -0.05082214 0.7950667 -0.1445999
v -0.1745624 -0.001256881 0.1870944
v -0.1019769 0.3833456 0.3034787
v -0.06752502 0.3648577 0.3431295
v -0.1364972 -0.001256859 0.2324856
v -0.1538239 -0.001256861 -0.002123143
v -0.1559235 0.00964018 -0.004831883
v -0.1604266 -0.001256858 0.04090664
vt 0.6083984 0.4667969
vt 0.6108398 0.4663086
vt 0.609375 0.4550781
vt 0.6074219 0.4558105
vt 0.4926758 0.333252
vt 0.494873 0.2954102
vt 0.4868164 0.3217773
vt 0.4863281 0.3312988
vt 0.6010742 0.4562988
vt 0.5180664 0.4553223
vt 0.5166016 0.4665527
vt 0.6020508 0.4677734
vt 0.6083984 0.4667969
vt 0.6074219 0.4558105
vt 0.5107422 0.4543457
vt 0.5097656 0.4655762
vt 0.6074219 0.4558105
vt 0.6083984 0.4467773
vt 0.6054688 0.4204102
vt 0.6010742 0.4562988
vt 0.609375 0.4550781
vt 0.6083984 0.4467773
vt 0.5180664 0.4553223
vt 0.6054688 0.4204102
vt 0.6049805 0.4160156
vt 0.605957 0.4162598
vt 0.5175781 0.4077148
vt 0.5102539 0.4094238
vt 0.5107422 0.4543457
vt 0.4672852 0.4335938
vt 0.9663086 0.6767578
vt 0.9658203 0.7255859
vt 0.9780273 0.7255859
vt 0.9775391 0.6767578
vt 0.5854492 0.3325195
vt 0.5854492 0.2878418
vt 0.5786133 0.286377
vt 0.5786133 0.3342285
vt 0.4926758 0.333252
vt 0.494873 0.2954102
vt 0.4956055 0.2927246
vt 0.6293945 0.3100586
vt 0.494873 0.2929688
vt 0.4907227 0.7978516
vt 0.5224609 0.8354492
vt 0.5322266 0.828125
vt 0.4997559 0.7915039
vt 0.4997559 0.7915039
vt 0.5419922 0.7802734
vt 0.5419922 0.7734375
vt 0.4960938 0.7851563
vt 0.5322266 0.828125
vt 0.5449219 0.8295898
vt 0.5532227 0.7807617
vt 0.4907227 0.7978516
vt 0.4865723 0.7915039
vt 0.5537109 0.7729492
vt 0.5297852 0.706543
vt 0.5410156 0.7045898
vt 0.4870605 0.7006836
vt 0.5297852 0.706543
vt 0.5859375 0.3969727
vt 0.5786133 0.3535156
vt 0.5717773 0.3527832
vt 0.5786133 0.3994141
vt 0.6254883 0.3642578
vt 0.628418 0.3522949
vt 0.5800781 0.3422852
vt 0.5063477 0.3986816
vt 0.4934082 0.3574219
vt 0.5786133 0.3535156
vt 0.5800781 0.3422852
vt 0.5727539 0.3413086
vt 0.5717773 0.3527832
vt 0.4934082 0.3574219
vt 0.4892578 0.3461914
vt 0.9658203 0.7255859
vt 0.9658203 0.737793
vt 0.9780273 0.737793
vt 0.9780273 0.7255859
vt 0.05831909 0.8071289
vt 0.05661011 0.7529297
vt 0.04629517 0.7529297
vt 0.04934692 0.8076172
vt 0.0124588 0.8041992
vt 0.01000214 0.8134766
vt 0.04937744 0.8164063
vt 0.09515381 0.800293
vt 0.05874634 0.815918
vt 0.09777832 0.8095703
vt 0.06408691 0.9199219
vt 0.05456543 0.9194336
vt 0.05456543 0.9194336
vt 0.02253723 0.9233398
vt 0.09619141 0.9272461
vt 0.06408691 0.9199219
vt 0.2015381 0.6069336
vt 0.1950684 0.5517578
vt 0.1853027 0.5527344
vt 0.1923828 0.6074219
vt 0.1553955 0.6025391
vt 0.152832 0.6118164
vt 0.1923828 0.6162109
vt 0.2019043 0.6162109
vt 0.1949463 0.7211914
vt 0.1854248 0.7207031
vt 0.1854248 0.7207031
vt 0.152832 0.7255859
vt 0.01165009 0.6918945
vt 0.02984619 0.7456055
vt 0.03939819 0.7431641
vt 0.02046204 0.6904297
vt 0.05789185 0.6894531
vt 0.05926514 0.6806641
vt 0.01947021 0.6811523
vt 0.04925537 0.7456055
vt 0.0668335 0.690918
vt 0.01000214 0.6826172
vt 0.06860352 0.6816406
vt 0.01306152 0.5693359
vt 0.02244568 0.5688477
vt 0.05462646 0.565918
vt 0.06402588 0.5644531
vt 0.02244568 0.5688477
vt 0.05462646 0.565918
vt 0.4675293 0.6186523
vt 0.4628906 0.581543
vt 0.4541016 0.5810547
vt 0.4584961 0.6206055
vt 0.5175781 0.5888672
vt 0.519043 0.5795898
vt 0.4633789 0.5722656
vt 0.4543457 0.5717773
vt 0.3430176 0.5883789
vt 0.3432617 0.5786133
vt 0.3395996 0.6206055
vt 0.3430176 0.5883789
vt 0.5092773 0.4848633
vt 0.5014648 0.4904785
vt 0.5043945 0.4997559
vt 0.5170898 0.4904785
vt 0.5141602 0.4997559
vt 0.4956055 0.2927246
vt 0.5786133 0.286377
vt 0.5776367 0.2746582
vt 0.4975586 0.28125
vt 0.4841309 0.3300781
vt 0.4863281 0.3312988
vt 0.4868164 0.3217773
vn -0.6284982 -0.2995673 -0.7178088
vn -0.6284857 -0.2995948 -0.7178082
vn -0.6284858 -0.2995948 -0.7178082
vn -0.6284981 -0.2995673 -0.7178088
vn -0.9714604 0.2042361 -0.120633
vn -0.9948213 -0.01236627 -0.1008837
vn -0.9948213 -0.01236627 -0.1008837
vn -0.9392097 -0.183744 -0.2900399
vn 0.01398 0.1967431 -0.9803554
vn 0.015831 0.2172421 -0.9759893
vn -0.9672086 0.2247179 -0.118361
vn -0.9714604 0.2042361 -0.120633
vn -0.9392097 -0.183744 -0.2900399
vn -0.161581 -0.18966 -0.9684631
vn 0.06627298 0.686941 -0.723685
vn -0.7200257 0.6929228 -0.03769599
vn -0.161581 -0.18966 -0.9684631
vn 0.03483149 -0.02016626 -0.9991897
vn 0.0348315 -0.02016627 -0.9991897
vn 0.01398 0.1967431 -0.9803554
vn -0.01773982 -0.2296811 -0.9731042
vn -0.01773982 -0.2296811 -0.9731042
vn 0.015831 0.2172421 -0.9759893
vn 0.08604198 0.1913891 -0.9777356
vn 0.08604199 0.1913891 -0.9777356
vn 0.152355 0.162687 -0.974844
vn 0.1598929 0.1817859 -0.9702516
vn 0.3141021 0.6259453 -0.7138153
vn 0.06627298 0.686941 -0.723685
vn 0.212367 0.764351 -0.608825
vn 0.06627298 0.686941 -0.723685
vn 0.212367 0.764351 -0.608825
vn -0.6253759 0.7707209 0.122042
vn -0.7200257 0.6929228 -0.03769599
vn -0.7200257 0.6929228 -0.03769599
vn -0.744379 0.633998 0.209634
vn -0.981365 0.190465 0.02541
vn -0.9672086 0.2247179 -0.118361
vn -0.9714604 0.2042361 -0.120633
vn -0.9786839 0.1994824 -0.04883228
vn -0.9786839 0.1994824 -0.04883229
vn -0.6253759 0.7707209 0.122042
vn -0.9850579 0.171336 0.017463
vn -0.744379 0.633998 0.209634
vn -0.6253759 0.7707209 0.122042
vn 0.06245499 0.4016279 0.9136709
vn -0.09878601 0.287568 0.952652
vn -0.09878601 0.287568 0.952652
vn 0.149043 0.226575 0.9625227
vn -0.03017599 -0.2781009 0.9600777
vn -0.174238 -0.242645 0.9543399
vn 0.06245499 0.4016279 0.9136709
vn 0.9001968 0.3952569 0.1828049
vn 0.9353436 0.2205909 0.2765359
vn -0.744379 0.633998 0.209634
vn -0.981365 0.190465 0.02541
vn 0.9528641 -0.285577 0.10245
vn 0.6045377 -0.3869009 0.6963059
vn 0.6045378 -0.3869008 0.6963059
vn -0.1044891 -0.2696188 0.9572814
vn -0.1044891 -0.2696188 0.9572814
vn 0.9353436 0.2205909 0.2765359
vn 0.9596974 0.2795141 0.02920601
vn 0.9670205 -0.2513238 -0.04132198
vn 0.9528641 -0.285577 0.10245
vn 0.9001968 0.3952569 0.1828049
vn 0.212367 0.764351 -0.608825
vn 0.3141021 0.6259453 -0.7138153
vn 0.9602427 -0.2777195 0.02839024
vn 0.9602427 -0.2777194 0.02839024
vn 0.9596974 0.2795141 0.02920601
vn 0.3141021 0.6259453 -0.7138153
vn 0.1598929 0.1817859 -0.9702516
vn 0.9670205 -0.2513238 -0.04132198
vn 0.7391567 -0.06120923 -0.6707465
vn 0.7391567 -0.06120923 -0.6707464
vn 0.212367 0.764351 -0.608825
vn 0.9001968 0.3952569 0.1828049
vn 0.06245499 0.4016279 0.9136709
vn -0.6253759 0.7707209 0.122042
vn 0.289311 0.4310221 -0.8547041
vn 0.3276961 0.5681533 -0.7548624
vn -0.595542 0.4770979 -0.6463029
vn -0.5556011 0.3470111 -0.7555732
vn -0.7063835 0.3454422 -0.6178123
vn -0.705943 -0.200153 -0.6793991
vn -0.610991 -0.198461 -0.7663571
vn 0.4651241 0.4614931 -0.7554362
vn 0.4438002 -0.08826502 -0.8917683
vn 0.5549011 -0.06856501 -0.8290861
vn -0.09745102 -0.1757502 -0.9795995
vn -0.09745103 -0.1757502 -0.9795995
vn -0.6590224 -0.2025584 -0.7243338
vn -0.6590224 -0.2025585 -0.7243338
vn 0.5009971 -0.08201393 -0.8615541
vn 0.5009971 -0.08201392 -0.8615541
vn -0.7063835 0.3454422 -0.6178123
vn -0.595542 0.4770979 -0.6463029
vn -0.7882491 0.555748 0.264211
vn -0.8829322 0.417013 0.21571
vn -0.8002931 0.4465221 0.4001861
vn -0.8733328 -0.09546097 0.4776789
vn -0.9253428 -0.114033 0.3615759
vn -0.705943 -0.200153 -0.6793991
vn -0.9633905 -0.1914733 -0.1876611
vn -0.9633905 -0.1914732 -0.1876611
vn -0.9008042 -0.1074392 0.4207242
vn -0.900804 -0.1074392 0.4207242
vn -0.8002931 0.4465221 0.4001861
vn -0.7882491 0.555748 0.264211
vn 0.015817 0.6954039 0.7184449
vn -0.06417597 0.5747657 0.8157977
vn 0.1377229 0.5945877 0.7921476
vn 0.1720921 0.08116602 0.9817313
vn 0.04487902 0.06795604 0.9966785
vn 0.7055606 0.7030827 0.08865096
vn 0.7687127 0.6022068 0.2154709
vn -0.8733328 -0.09546097 0.4776789
vn 0.9604071 0.09620701 0.261462
vn -0.4886137 -0.02194186 0.8722243
vn -0.4886136 -0.02194187 0.8722243
vn 0.6707447 0.09854548 0.7351125
vn 0.6707447 0.09854547 0.7351125
vn 0.1095517 0.07188737 0.9913782
vn 0.1095517 0.07188737 0.9913782
vn 0.7687127 0.6022068 0.2154709
vn 0.8108959 0.5849599 0.016433
vn 0.987046 0.08574801 0.1356
vn 0.9604071 0.09620701 0.261462
vn 0.7055606 0.7030827 0.08865096
vn 0.3276961 0.5681533 -0.7548624
vn 0.4651241 0.4614931 -0.7554362
vn 0.5549011 -0.06856501 -0.8290861
vn 0.912406 0.003483506 -0.4092714
vn 0.912406 0.003483506 -0.4092714
vn 0.976076 0.08763264 0.1989877
vn 0.976076 0.08763264 0.1989877
vn -0.595542 0.4770979 -0.6463029
vn 0.3276961 0.5681533 -0.7548624
vn 0.7055606 0.7030827 0.08865096
vn -0.7882491 0.555748 0.264211
vn 0.015817 0.6954039 0.7184449
vn -0.7652867 -0.0497757 0.6417621
vn -0.981365 0.190465 0.02541
vn -0.174238 -0.242645 0.9543399
vn -0.7652867 -0.0497757 0.6417621
vn -0.9636601 -0.222469 -0.1478747
vn -0.9392097 -0.183744 -0.2900399
vn -0.9636601 -0.222469 -0.1478747
g m_map_mine_crystal_03_0
f 3/3/3 2/2/2 1/1/1
f 4/4/4 3/3/3 1/1/1
f 7/7/7 6/6/6 5/5/5
f 8/8/8 7/7/7 5/5/5
f 11/11/11 10/10/10 9/9/9
f 12/12/12 11/11/11 9/9/9
f 12/12/12 9/9/9 13/13/13
f 9/9/9 14/14/14 13/13/13
f 10/10/10 11/11/11 15/15/15
f 11/11/11 16/16/16 15/15/15
f 19/19/19 18/18/18 17/17/17
f 20/20/20 19/19/19 17/17/17
f 22/22/22 21/21/21 17/17/17
f 24/24/24 20/20/20 23/23/23
f 25/25/25 24/24/24 23/23/23
f 24/24/24 25/25/25 26/26/26
f 23/23/23 27/27/27 25/25/25
f 28/28/28 27/27/27 23/23/23
f 29/29/29 28/28/28 23/23/23
f 29/29/29 30/30/30 28/28/28
f 33/33/33 32/32/32 31/31/31
f 34/34/34 33/33/33 31/31/31
f 37/37/37 36/36/36 35/35/35
f 38/38/38 37/37/37 35/35/35
f 37/37/37 38/38/38 39/39/39
f 37/37/37 39/39/39 40/40/40
f 40/40/40 41/41/41 37/37/37
f 36/36/36 42/42/42 35/35/35
f 40/40/40 43/43/43 41/41/41
f 46/46/46 45/45/45 44/44/44
f 47/47/47 46/46/46 44/44/44
f 50/50/50 49/49/49 48/48/48
f 51/51/51 50/50/50 48/48/48
f 49/49/49 52/52/52 48/48/48
f 53/53/53 52/52/52 49/49/49
f 54/54/54 53/53/53 49/49/49
f 51/51/51 48/48/48 55/55/55
f 56/56/56 51/51/51 55/55/55
f 57/57/57 54/54/54 49/49/49
f 50/50/50 57/57/57 49/49/49
f 57/57/57 50/50/50 58/58/58
f 59/59/59 57/57/57 58/58/58
f 50/50/50 51/51/51 60/60/60
f 61/61/61 50/50/50 60/60/60
f 64/64/64 63/63/63 62/62/62
f 65/65/65 64/64/64 62/62/62
f 63/63/63 66/66/66 62/62/62
f 67/67/67 66/66/66 63/63/63
f 68/68/68 67/67/67 63/63/63
f 64/64/64 65/65/65 69/69/69
f 70/70/70 64/64/64 69/69/69
f 73/73/73 72/72/72 71/71/71
f 74/74/74 73/73/73 71/71/71
f 73/73/73 74/74/74 75/75/75
f 76/76/76 73/73/73 75/75/75
f 79/79/79 78/78/78 77/77/77
f 80/80/80 79/79/79 77/77/77
f 83/83/83 82/82/82 81/81/81
f 84/84/84 83/83/83 81/81/81
f 85/85/85 83/83/83 84/84/84
f 86/86/86 85/85/85 84/84/84
f 87/87/87 86/86/86 84/84/84
f 87/87/87 84/84/84 81/81/81
f 81/81/81 82/82/82 88/88/88
f 81/81/81 88/88/88 89/89/89
f 89/89/89 87/87/87 81/81/81
f 88/88/88 90/90/90 89/89/89
f 87/87/87 89/89/89 91/91/91
f 92/92/92 87/87/87 91/91/91
f 86/86/86 87/87/87 93/93/93
f 94/94/94 86/86/86 93/93/93
f 89/89/89 90/90/90 95/95/95
f 96/96/96 89/89/89 95/95/95
f 99/99/99 98/98/98 97/97/97
f 100/100/100 99/99/99 97/97/97
f 101/101/101 99/99/99 100/100/100
f 102/102/102 101/101/101 100/100/100
f 103/103/103 102/102/102 100/100/100
f 103/103/103 100/100/100 97/97/97
f 104/104/104 103/103/103 97/97/97
f 103/103/103 104/104/104 105/105/105
f 106/106/106 103/103/103 105/105/105
f 102/102/102 103/103/103 107/107/107
f 108/108/108 102/102/102 107/107/107
f 111/111/111 110/110/110 109/109/109
f 112/112/112 111/111/111 109/109/109
f 113/113/113 111/111/111 112/112/112
f 114/114/114 113/113/113 112/112/112
f 115/115/115 114/114/114 112/112/112
f 115/115/115 112/112/112 109/109/109
f 116/116/116 111/111/111 113/113/113
f 117/117/117 116/116/116 113/113/113
f 118/118/118 115/115/115 109/109/109
f 119/119/119 117/117/117 113/113/113
f 114/114/114 119/119/119 113/113/113
f 115/115/115 118/118/118 120/120/120
f 121/121/121 115/115/115 120/120/120
f 119/119/119 114/114/114 122/122/122
f 123/123/123 119/119/119 122/122/122
f 114/114/114 115/115/115 124/124/124
f 125/125/125 114/114/114 124/124/124
f 128/128/128 127/127/127 126/126/126
f 129/129/129 128/128/128 126/126/126
f 127/127/127 130/130/130 126/126/126
f 131/131/131 130/130/130 127/127/127
f 132/132/132 131/131/131 127/127/127
f 133/133/133 132/132/132 127/127/127
f 128/128/128 133/133/133 127/127/127
f 133/133/133 128/128/128 134/134/134
f 135/135/135 133/133/133 134/134/134
f 128/128/128 129/129/129 136/136/136
f 137/137/137 128/128/128 136/136/136
f 140/140/140 139/139/139 138/138/138
f 138/138/138 141/141/141 140/140/140
f 141/141/141 142/142/142 140/140/140
f 145/145/145 144/144/144 143/143/143
f 146/146/146 145/145/145 143/143/143
f 149/149/149 148/148/148 147/147/147
