g m_map_switchbutton_glow_01
v -1.050398 0.09297266 -0.6493459
v -0.7407548 0.09297266 -0.6269428
v -0.7407548 0.09297266 0.6269428
v -1.050398 0.09297266 0.6493459
v -0.7342206 0.09297266 0.6722476
v -1.030616 0.09297266 0.7865075
v -0.7071097 0.09297266 0.7125071
v -0.9315827 0.09297266 0.933571
v -0.6671034 0.09297266 0.7403467
v -0.7857633 0.09297266 1.035043
v -0.6196213 0.09297266 0.7478939
v -0.6442771 0.09297266 1.057532
v -1.030616 0.09297266 -0.7865075
v -0.7342206 0.09297266 -0.6722476
v -0.9315827 0.09297266 -0.933571
v -0.7071097 0.09297266 -0.7125071
v -0.7857633 0.09297266 -1.035043
v -0.6671034 0.09297266 -0.7403467
v -0.6442771 0.09297266 -1.057532
v -0.6196213 0.09297266 -0.7478939
v 0.644277 0.09297266 -1.057532
v 0.6196215 0.09297266 -0.7478939
v 0.6196215 0.09297266 0.7478939
v 0.644277 0.09297266 1.057532
v 0.6671035 0.09297266 0.7403467
v 0.7857634 0.09297266 1.035043
v 0.70711 0.09297266 0.7125071
v 0.9315829 0.09297266 0.933571
v 0.7342208 0.09297266 0.6722476
v 1.030615 0.09297266 0.7865081
v 0.7407551 0.09297266 0.6269428
v 1.050398 0.09297266 0.6493464
v 0.7407551 0.09297266 -0.6269428
v 1.050398 0.09297266 -0.6493464
v 0.7342208 0.09297266 -0.6722476
v 1.030615 0.09297266 -0.7865081
v 0.70711 0.09297266 -0.7125071
v 0.9315829 0.09297266 -0.933571
v 0.6671035 0.09297266 -0.7403467
v 0.7857634 0.09297266 -1.035043
v -2.298709E-07 0.09297267 -6.167953E-20
vt 0.003763199 0.8066406
vt 0.1500244 0.7963867
vt 0.1500244 0.2038574
vt 0.003763199 0.1932373
vt 0.1530762 0.182373
vt 0.0131073 0.128418
vt 0.1658936 0.1634521
vt 0.05990601 0.05895996
vt 0.1848145 0.1502686
vt 0.1287842 0.01101685
vt 0.2072754 0.1467285
vt 0.1956787 0.0003921986
vt 0.0131073 0.871582
vt 0.1530762 0.8173828
vt 0.05990601 0.940918
vt 0.1658936 0.8364258
vt 0.1287842 0.9887695
vt 0.1848145 0.8496094
vt 0.1956787 0.9995117
vt 0.2072754 0.8535156
vt 0.8041992 0.9995117
vt 0.7929688 0.8535156
vt 0.7929688 0.1467285
vt 0.8041992 0.0003921986
vt 0.8149414 0.1502686
vt 0.8710938 0.01101685
vt 0.8339844 0.1634521
vt 0.9399414 0.05895996
vt 0.8466797 0.182373
vt 0.9868164 0.128418
vt 0.8500977 0.2038574
vt 0.9960938 0.1932373
vt 0.8500977 0.7963867
vt 0.9960938 0.8066406
vt 0.8466797 0.8173828
vt 0.9868164 0.871582
vt 0.8339844 0.8364258
vt 0.9399414 0.940918
vt 0.8149414 0.8496094
vt 0.8710938 0.9887695
vt 0.5 0.5
vn 0 1 0
vn 0 1 0
vn 0 1 0
vn 0 1 0
vn 0 1 0
vn 0 1 0
vn 0 1 0
vn 0 1 0
vn 0 1 0
vn 0 1 0
vn 0 1 0
vn 0 1 0
vn 0 1 0
vn 0 1 0
vn 0 1 0
vn 0 1 0
vn 0 1 0
vn 0 1 0
vn 0 1 0
vn 0 1 0
vn 0 1 0
vn 0 1 0
vn 0 1 0
vn 0 1 0
vn 0 1 0
vn 0 1 0
vn 0 1 0
vn 0 1 0
vn 0 1 0
vn 0 1 0
vn 0 1 0
vn 0 1 0
vn 0 1 0
vn 0 1 0
vn 0 1 0
vn 0 1 0
vn 0 1 0
vn 0 1 0
vn 0 1 0
vn 0 1 0
vn 0 1 0
g m_map_switchbutton_glow_01_0
f 3/3/3 2/2/2 1/1/1
f 4/4/4 3/3/3 1/1/1
f 3/3/3 4/4/4 5/5/5
f 4/4/4 6/6/6 5/5/5
f 5/5/5 6/6/6 7/7/7
f 6/6/6 8/8/8 7/7/7
f 7/7/7 8/8/8 9/9/9
f 8/8/8 10/10/10 9/9/9
f 9/9/9 10/10/10 11/11/11
f 10/10/10 12/12/12 11/11/11
f 13/13/13 1/1/1 2/2/2
f 14/14/14 13/13/13 2/2/2
f 15/15/15 13/13/13 14/14/14
f 16/16/16 15/15/15 14/14/14
f 17/17/17 15/15/15 16/16/16
f 18/18/18 17/17/17 16/16/16
f 19/19/19 17/17/17 18/18/18
f 20/20/20 19/19/19 18/18/18
f 19/19/19 20/20/20 21/21/21
f 20/20/20 22/22/22 21/21/21
f 23/23/23 11/11/11 12/12/12
f 24/24/24 23/23/23 12/12/12
f 23/23/23 24/24/24 25/25/25
f 24/24/24 26/26/26 25/25/25
f 25/25/25 26/26/26 27/27/27
f 26/26/26 28/28/28 27/27/27
f 27/27/27 28/28/28 29/29/29
f 28/28/28 30/30/30 29/29/29
f 29/29/29 30/30/30 31/31/31
f 30/30/30 32/32/32 31/31/31
f 33/33/33 31/31/31 32/32/32
f 34/34/34 33/33/33 32/32/32
f 33/33/33 34/34/34 35/35/35
f 34/34/34 36/36/36 35/35/35
f 35/35/35 36/36/36 37/37/37
f 36/36/36 38/38/38 37/37/37
f 37/37/37 38/38/38 39/39/39
f 38/38/38 40/40/40 39/39/39
f 39/39/39 40/40/40 22/22/22
f 40/40/40 21/21/21 22/22/22
f 29/29/29 41/41/41 27/27/27
f 31/31/31 41/41/41 29/29/29
f 31/31/31 33/33/33 41/41/41
f 35/35/35 41/41/41 33/33/33
f 37/37/37 41/41/41 35/35/35
f 39/39/39 41/41/41 37/37/37
f 22/22/22 41/41/41 39/39/39
f 22/22/22 20/20/20 41/41/41
f 18/18/18 41/41/41 20/20/20
f 16/16/16 41/41/41 18/18/18
f 14/14/14 41/41/41 16/16/16
f 2/2/2 41/41/41 14/14/14
f 2/2/2 3/3/3 41/41/41
f 5/5/5 41/41/41 3/3/3
f 7/7/7 41/41/41 5/5/5
f 9/9/9 41/41/41 7/7/7
f 11/11/11 41/41/41 9/9/9
f 11/11/11 23/23/23 41/41/41
f 25/25/25 41/41/41 23/23/23
f 27/27/27 41/41/41 25/25/25
