g m_map_flag_locked_01
v 0.5755055 0.02071714 -0.1869929
v 0.5410299 0.09855278 -0.1757912
v 0.4602276 0.09855274 -0.3343751
v 0.4895543 0.02071714 -0.3556821
v 0.334375 0.09855276 -0.4602276
v 0.355682 0.02071714 -0.4895543
v 0.1757913 0.0985528 -0.5410296
v 0.186993 0.02071714 -0.5755053
v 1.597394E-09 0.0985528 -0.5688719
v -1.493465E-09 0.02071714 -0.6051216
v 0.6051217 0.02071714 0
v 0.5688722 0.0985528 -2.568707E-08
v 0.575505 0.02071714 0.1869929
v 0.5559919 0.1226604 -1.741734E-08
v 0.5287803 0.1226604 -0.1718113
v 0.4498073 0.1226603 -0.326804
v 0.3268042 0.1226604 -0.449807
v 0.1718111 0.1226604 -0.5287803
v 2.005649E-09 0.1226604 -0.5559916
v 0.5287798 0.1226604 0.1718113
v 0.5410295 0.09855278 0.1757911
v -1.493465E-09 0.02071714 -0.6051216
v 1.597394E-09 0.0985528 -0.5688719
v -0.1757914 0.0985528 -0.5410296
v -0.1869931 0.02071714 -0.5755053
v -0.3343748 0.09855276 -0.4602276
v -0.3556819 0.02071714 -0.4895543
v -0.4602273 0.09855274 -0.3343751
v -0.489554 0.02071714 -0.3556821
v -0.5410298 0.09855278 -0.1757911
v -0.5755054 0.02071714 -0.1869929
v 2.005649E-09 0.1226604 -0.5559916
v -0.1718112 0.1226604 -0.5287803
v -0.326804 0.1226604 -0.449807
v -0.4498071 0.1226603 -0.326804
v -0.52878 0.1226604 -0.1718113
v -0.5755054 0.02071714 -0.1869929
v -0.5410298 0.09855278 -0.1757911
v -0.5688722 0.0985528 7.175158E-11
v -0.6051219 0.02071714 0
v -0.5410298 0.09855278 0.1757911
v -0.5755054 0.02071714 0.1869929
v -0.4602273 0.09855274 0.3343751
v -0.489554 0.02071714 0.3556821
v -0.3343747 0.09855276 0.4602276
v -0.3556818 0.02071714 0.4895543
v -0.1757911 0.0985528 0.5410296
v -0.1869928 0.02071714 0.5755053
v 2.386659E-09 0.0985528 0.5688719
v -1.493465E-09 0.02071714 0.6051216
v 0.1757911 0.0985528 0.5410296
v -0.52878 0.1226604 -0.1718113
v -0.5559922 0.1226604 0
v -0.52878 0.1226604 0.1718113
v -0.449807 0.1226603 0.326804
v -0.326804 0.1226604 0.449807
v -0.171811 0.1226604 0.5287803
v 2.243159E-09 0.1226604 0.5559916
v -1.493465E-09 0.02071714 0.6051216
v 0.1757911 0.0985528 0.5410296
v 0.1869929 0.02071714 0.5755053
v 0.3343747 0.09855276 0.4602276
v 0.3556817 0.02071714 0.4895543
v 0.4602272 0.09855274 0.3343751
v 0.4895537 0.02071714 0.3556821
v 0.5410295 0.09855278 0.1757911
v 0.575505 0.02071714 0.1869929
v 0.5688722 0.0985528 -2.568707E-08
v 0.171811 0.1226604 0.5287803
v 2.243159E-09 0.1226604 0.5559916
v 0.3268039 0.1226604 0.449807
v 0.449807 0.1226603 0.326804
v 0.5287798 0.1226604 0.1718113
v 0.4988727 0.1293502 -0.1620934
v 0 0.1541991 0
v 0.4243664 0.1293502 -0.3083202
v 0.3083203 0.1293502 -0.4243663
v 0.1620936 0.1293502 -0.4988726
v 2.026266E-09 0.1293502 -0.5245448
v -0.1620937 0.1293502 -0.4988727
v -0.3083202 0.1293502 -0.4243663
v -0.4243663 0.1293502 -0.3083202
v -0.4988725 0.1293502 -0.1620934
v -0.5245456 0.1293502 0
v -0.4988725 0.1293502 0.1620934
v -0.4243662 0.1293502 0.3083202
v -0.3083201 0.1293502 0.4243663
v -0.1620934 0.1293502 0.4988727
v 2.243159E-09 0.1293502 0.5245448
v 0.1620934 0.1293502 0.4988727
v 0.3083201 0.1293502 0.4243663
v 0.424366 0.1293502 0.3083202
v 0.4988724 0.1293502 0.1620934
v 0.5245454 0.1293502 -5.386107E-09
v 0.5287803 0.1226604 -0.1718113
v 0.5559919 0.1226604 -1.741734E-08
v 0.5245454 0.1293502 -5.386107E-09
v 0.4988727 0.1293502 -0.1620934
v 0.4498073 0.1226603 -0.326804
v 0.4243664 0.1293502 -0.3083202
v 0.3268042 0.1226604 -0.449807
v 0.3083203 0.1293502 -0.4243663
v 0.1718111 0.1226604 -0.5287803
v 0.1620936 0.1293502 -0.4988726
v 2.005649E-09 0.1226604 -0.5559916
v 2.026266E-09 0.1293502 -0.5245448
v -0.1718112 0.1226604 -0.5287803
v -0.1620937 0.1293502 -0.4988727
v -0.326804 0.1226604 -0.449807
v -0.3083202 0.1293502 -0.4243663
v -0.4498071 0.1226603 -0.326804
v -0.4243663 0.1293502 -0.3083202
v -0.52878 0.1226604 -0.1718113
v -0.4988725 0.1293502 -0.1620934
v -0.5559922 0.1226604 0
v -0.5245456 0.1293502 0
v -0.52878 0.1226604 0.1718113
v -0.4988725 0.1293502 0.1620934
v -0.449807 0.1226603 0.326804
v -0.4243662 0.1293502 0.3083202
v -0.326804 0.1226604 0.449807
v -0.3083201 0.1293502 0.4243663
v -0.171811 0.1226604 0.5287803
v -0.1620934 0.1293502 0.4988727
v 2.243159E-09 0.1226604 0.5559916
v 2.243159E-09 0.1293502 0.5245448
v 0.171811 0.1226604 0.5287803
v 0.1620934 0.1293502 0.4988727
v 0.3268039 0.1226604 0.449807
v 0.3083201 0.1293502 0.4243663
v 0.449807 0.1226603 0.326804
v 0.424366 0.1293502 0.3083202
v 0.5287798 0.1226604 0.1718113
v 0.4988724 0.1293502 0.1620934
vt 0.3613281 0.2322998
vt 0.3283691 0.2233887
vt 0.3098145 0.2641602
vt 0.338623 0.282959
vt 0.2797852 0.2971191
vt 0.3012695 0.3237305
vt 0.2407227 0.3190918
vt 0.2529297 0.3513184
vt 0.1970215 0.328125
vt 0.1987305 0.3623047
vt 0.3676758 0.1772461
vt 0.333252 0.1789551
vt 0.3564453 0.1229248
vt 0.3220215 0.1794434
vt 0.3173828 0.2203369
vt 0.3005371 0.2578125
vt 0.2727051 0.2883301
vt 0.2368164 0.3085938
vt 0.1965332 0.3168945
vt 0.3137207 0.1391602
vt 0.3244629 0.1351318
vt 0.1987305 0.3623047
vt 0.1970215 0.328125
vt 0.1525879 0.3232422
vt 0.1436768 0.3562012
vt 0.1118164 0.3046875
vt 0.09313965 0.333252
vt 0.07885742 0.2744141
vt 0.05215454 0.2958984
vt 0.0567627 0.2355957
vt 0.02476501 0.2478027
vt 0.1965332 0.3168945
vt 0.1556396 0.3122559
vt 0.118103 0.295166
vt 0.08764648 0.2675781
vt 0.06732178 0.2316895
vt 0.02476501 0.2478027
vt 0.0567627 0.2355957
vt 0.04782104 0.1917725
vt 0.01358795 0.1934814
vt 0.05282593 0.1473389
vt 0.01974487 0.1384277
vt 0.0713501 0.1066284
vt 0.04260254 0.08789063
vt 0.1015015 0.0736084
vt 0.07995605 0.04696655
vt 0.1403809 0.05157471
vt 0.1281738 0.01954651
vt 0.1842041 0.04260254
vt 0.1824951 0.008377075
vt 0.2286377 0.04760742
vt 0.06732178 0.2316895
vt 0.05908203 0.1912842
vt 0.06365967 0.1503906
vt 0.08068848 0.112854
vt 0.1085205 0.0824585
vt 0.1442871 0.06213379
vt 0.1846924 0.05386353
vt 0.1824951 0.008377075
vt 0.2286377 0.04760742
vt 0.2375488 0.01452637
vt 0.2692871 0.06610107
vt 0.2880859 0.03741455
vt 0.3022461 0.09631348
vt 0.3291016 0.07476807
vt 0.3244629 0.1351318
vt 0.3564453 0.1229248
vt 0.333252 0.1789551
vt 0.2255859 0.05847168
vt 0.1846924 0.05386353
vt 0.2631836 0.07550049
vt 0.293457 0.1032715
vt 0.3137207 0.1391602
vt 0.684082 0.7607422
vt 0.3852539 0.6635742
vt 0.6396484 0.8481445
vt 0.5698242 0.9179688
vt 0.4824219 0.9624023
vt 0.3852539 0.9780273
vt 0.2883301 0.9624023
vt 0.2006836 0.9179688
vt 0.1311035 0.8481445
vt 0.08654785 0.7607422
vt 0.07116699 0.6635742
vt 0.08654785 0.5664063
vt 0.1311035 0.4790039
vt 0.2006836 0.4094238
vt 0.2883301 0.3649902
vt 0.3852539 0.3496094
vt 0.4824219 0.3649902
vt 0.5698242 0.4094238
vt 0.6396484 0.4790039
vt 0.684082 0.5664063
vt 0.6992188 0.6635742
vt 0.3173828 0.2203369
vt 0.3220215 0.1794434
vt 0.310791 0.1799316
vt 0.3066406 0.2174072
vt 0.3005371 0.2578125
vt 0.2910156 0.251709
vt 0.2727051 0.2883301
vt 0.265625 0.2792969
vt 0.2368164 0.3085938
vt 0.2329102 0.2980957
vt 0.1965332 0.3168945
vt 0.1960449 0.3054199
vt 0.1556396 0.3122559
vt 0.1585693 0.3012695
vt 0.118103 0.295166
vt 0.1243286 0.2858887
vt 0.08764648 0.2675781
vt 0.09655762 0.260498
vt 0.06732178 0.2316895
vt 0.07800293 0.2276611
vt 0.05908203 0.1912842
vt 0.07043457 0.1907959
vt 0.06365967 0.1503906
vt 0.074646 0.1534424
vt 0.08068848 0.112854
vt 0.09020996 0.1191406
vt 0.1085205 0.0824585
vt 0.1156006 0.09136963
vt 0.1442871 0.06213379
vt 0.1483154 0.07275391
vt 0.1846924 0.05386353
vt 0.1851807 0.06518555
vt 0.2255859 0.05847168
vt 0.2225342 0.06939697
vt 0.2631836 0.07550049
vt 0.2568359 0.08496094
vt 0.293457 0.1032715
vt 0.284668 0.1103516
vt 0.3137207 0.1391602
vt 0.3032227 0.1430664
vn 0.7890937 0.558207 -0.2563906
vn 0.7936492 0.5510205 -0.2578706
vn 0.6751177 0.5510213 -0.4905014
vn 0.6712428 0.5582073 -0.487686
vn 0.4905007 0.5510212 -0.6751183
vn 0.4876855 0.5582075 -0.6712432
vn 0.2578705 0.5510204 -0.7936493
vn 0.2563904 0.5582073 -0.7890936
vn 0 0.5510202 -0.834492
vn 0 0.558207 -0.8297017
vn 0.8297021 0.5582066 1.021684E-06
vn 0.8344921 0.55102 1.108391E-06
vn 0.7890934 0.5582066 0.2563917
vn 0.6060294 0.7954423 7.741533E-07
vn 0.5763679 0.7954426 -0.1872732
vn 0.4902869 0.7954435 -0.3562138
vn 0.356215 0.7954428 -0.4902872
vn 0.1872722 0.7954417 -0.5763694
vn 0 0.7954427 -0.6060289
vn 0.5763686 0.7954419 0.1872741
vn 0.7936491 0.5510201 0.2578719
vn 0 0.558207 -0.8297017
vn 0 0.5510202 -0.834492
vn -0.2578705 0.5510205 -0.7936492
vn -0.2563904 0.5582073 -0.7890934
vn -0.4905013 0.5510212 -0.6751179
vn -0.4876859 0.5582075 -0.6712428
vn -0.6751179 0.5510212 -0.4905014
vn -0.6712429 0.5582075 -0.4876859
vn -0.7936489 0.5510206 -0.2578716
vn -0.7890933 0.5582072 -0.2563914
vn 0 0.7954427 -0.6060289
vn -0.1872725 0.7954417 -0.5763692
vn -0.3562156 0.7954425 -0.4902873
vn -0.4902883 0.7954425 -0.3562145
vn -0.5763686 0.7954417 -0.1872743
vn -0.7890933 0.5582072 -0.2563914
vn -0.7936489 0.5510206 -0.2578716
vn -0.8344918 0.5510203 0
vn -0.8297019 0.5582069 0
vn -0.7936488 0.5510206 0.2578716
vn -0.7890933 0.5582072 0.2563916
vn -0.6751177 0.5510211 0.4905016
vn -0.6712428 0.5582074 0.4876861
vn -0.4905011 0.5510212 0.6751181
vn -0.4876856 0.5582074 0.671243
vn -0.2578707 0.5510204 0.7936492
vn -0.2563904 0.5582073 0.7890934
vn 0 0.5510203 0.8344919
vn 0 0.558207 0.8297017
vn 0.2578706 0.5510206 0.7936492
vn -0.5763686 0.7954417 -0.1872743
vn -0.6060297 0.795442 0
vn -0.5763686 0.7954417 0.1872744
vn -0.4902881 0.7954423 0.3562148
vn -0.3562154 0.7954425 0.4902875
vn -0.1872725 0.7954416 0.5763694
vn 0 0.7954425 0.6060292
vn 0 0.558207 0.8297017
vn 0.2578706 0.5510206 0.7936492
vn 0.2563904 0.5582073 0.7890934
vn 0.4905014 0.5510212 0.6751179
vn 0.487686 0.5582074 0.6712428
vn 0.6751183 0.5510208 0.4905011
vn 0.6712433 0.558207 0.4876857
vn 0.7936491 0.5510201 0.2578719
vn 0.7890934 0.5582066 0.2563917
vn 0.8344921 0.55102 1.108391E-06
vn 0.1872725 0.7954417 0.5763692
vn 0 0.7954425 0.6060292
vn 0.3562153 0.7954425 0.4902876
vn 0.490288 0.7954426 0.3562144
vn 0.5763686 0.7954419 0.1872741
vn 0 1 0
vn 0 1 0
vn 0 1 0
vn 0 1 0
vn 0 1 0
vn 0 1 0
vn 0 1 0
vn 0 1 0
vn 0 1 0
vn 0 1 0
vn 0 1 0
vn 0 1 0
vn 0 1 0
vn 0 1 0
vn 0 1 0
vn 0 1 0
vn 0 1 0
vn 0 1 0
vn 0 1 0
vn 0 1 0
vn 0 1 0
vn 0.5763679 0.7954426 -0.1872732
vn 0.6060294 0.7954423 7.741533E-07
vn 0 1 0
vn 0 1 0
vn 0.4902869 0.7954435 -0.3562138
vn 0 1 0
vn 0.356215 0.7954428 -0.4902872
vn 0 1 0
vn 0.1872722 0.7954417 -0.5763694
vn 0 1 0
vn 0 0.7954427 -0.6060289
vn 0 1 0
vn -0.1872725 0.7954417 -0.5763692
vn 0 1 0
vn -0.3562156 0.7954425 -0.4902873
vn 0 1 0
vn -0.4902883 0.7954425 -0.3562145
vn 0 1 0
vn -0.5763686 0.7954417 -0.1872743
vn 0 1 0
vn -0.6060297 0.795442 0
vn 0 1 0
vn -0.5763686 0.7954417 0.1872744
vn 0 1 0
vn -0.4902881 0.7954423 0.3562148
vn 0 1 0
vn -0.3562154 0.7954425 0.4902875
vn 0 1 0
vn -0.1872725 0.7954416 0.5763694
vn 0 1 0
vn 0 0.7954425 0.6060292
vn 0 1 0
vn 0.1872725 0.7954417 0.5763692
vn 0 1 0
vn 0.3562153 0.7954425 0.4902876
vn 0 1 0
vn 0.490288 0.7954426 0.3562144
vn 0 1 0
vn 0.5763686 0.7954419 0.1872741
vn 0 1 0
g m_map_flag_locked_01_0
f 3/3/3 2/2/2 1/1/1
f 4/4/4 3/3/3 1/1/1
f 5/5/5 3/3/3 4/4/4
f 6/6/6 5/5/5 4/4/4
f 7/7/7 5/5/5 6/6/6
f 8/8/8 7/7/7 6/6/6
f 9/9/9 7/7/7 8/8/8
f 10/10/10 9/9/9 8/8/8
f 1/1/1 2/2/2 11/11/11
f 2/2/2 12/12/12 11/11/11
f 11/11/11 12/12/12 13/13/13
f 14/14/14 12/12/12 2/2/2
f 15/15/15 14/14/14 2/2/2
f 2/2/2 3/3/3 15/15/15
f 3/3/3 16/16/16 15/15/15
f 3/3/3 5/5/5 16/16/16
f 5/5/5 17/17/17 16/16/16
f 5/5/5 7/7/7 17/17/17
f 7/7/7 18/18/18 17/17/17
f 7/7/7 9/9/9 18/18/18
f 9/9/9 19/19/19 18/18/18
f 12/12/12 14/14/14 20/20/20
f 21/21/21 12/12/12 20/20/20
f 24/24/24 23/23/23 22/22/22
f 25/25/25 24/24/24 22/22/22
f 26/26/26 24/24/24 25/25/25
f 27/27/27 26/26/26 25/25/25
f 28/28/28 26/26/26 27/27/27
f 29/29/29 28/28/28 27/27/27
f 30/30/30 28/28/28 29/29/29
f 31/31/31 30/30/30 29/29/29
f 23/23/23 24/24/24 32/32/32
f 24/24/24 33/33/33 32/32/32
f 24/24/24 26/26/26 33/33/33
f 26/26/26 34/34/34 33/33/33
f 26/26/26 28/28/28 34/34/34
f 28/28/28 35/35/35 34/34/34
f 28/28/28 30/30/30 35/35/35
f 30/30/30 36/36/36 35/35/35
f 39/39/39 38/38/38 37/37/37
f 40/40/40 39/39/39 37/37/37
f 41/41/41 39/39/39 40/40/40
f 42/42/42 41/41/41 40/40/40
f 43/43/43 41/41/41 42/42/42
f 44/44/44 43/43/43 42/42/42
f 45/45/45 43/43/43 44/44/44
f 46/46/46 45/45/45 44/44/44
f 47/47/47 45/45/45 46/46/46
f 48/48/48 47/47/47 46/46/46
f 49/49/49 47/47/47 48/48/48
f 50/50/50 49/49/49 48/48/48
f 51/51/51 49/49/49 50/50/50
f 38/38/38 39/39/39 52/52/52
f 39/39/39 53/53/53 52/52/52
f 39/39/39 41/41/41 53/53/53
f 41/41/41 54/54/54 53/53/53
f 41/41/41 43/43/43 54/54/54
f 43/43/43 55/55/55 54/54/54
f 43/43/43 45/45/45 55/55/55
f 45/45/45 56/56/56 55/55/55
f 45/45/45 47/47/47 56/56/56
f 47/47/47 57/57/57 56/56/56
f 47/47/47 49/49/49 57/57/57
f 49/49/49 58/58/58 57/57/57
f 49/49/49 51/51/51 58/58/58
f 61/61/61 60/60/60 59/59/59
f 62/62/62 60/60/60 61/61/61
f 63/63/63 62/62/62 61/61/61
f 64/64/64 62/62/62 63/63/63
f 65/65/65 64/64/64 63/63/63
f 66/66/66 64/64/64 65/65/65
f 67/67/67 66/66/66 65/65/65
f 68/68/68 66/66/66 67/67/67
f 60/60/60 62/62/62 69/69/69
f 60/60/60 69/69/69 70/70/70
f 62/62/62 71/71/71 69/69/69
f 62/62/62 64/64/64 71/71/71
f 64/64/64 72/72/72 71/71/71
f 64/64/64 66/66/66 72/72/72
f 66/66/66 73/73/73 72/72/72
f 76/76/76 75/75/75 74/74/74
f 77/77/77 75/75/75 76/76/76
f 78/78/78 75/75/75 77/77/77
f 79/79/79 75/75/75 78/78/78
f 80/80/80 75/75/75 79/79/79
f 81/81/81 75/75/75 80/80/80
f 82/82/82 75/75/75 81/81/81
f 83/83/83 75/75/75 82/82/82
f 84/84/84 75/75/75 83/83/83
f 85/85/85 75/75/75 84/84/84
f 86/86/86 75/75/75 85/85/85
f 87/87/87 75/75/75 86/86/86
f 88/88/88 75/75/75 87/87/87
f 89/89/89 75/75/75 88/88/88
f 90/90/90 75/75/75 89/89/89
f 91/91/91 75/75/75 90/90/90
f 92/92/92 75/75/75 91/91/91
f 93/93/93 75/75/75 92/92/92
f 94/94/94 75/75/75 93/93/93
f 74/74/74 75/75/75 94/94/94
f 97/97/97 96/96/96 95/95/95
f 98/98/98 97/97/97 95/95/95
f 95/95/95 99/99/99 98/98/98
f 99/99/99 100/100/100 98/98/98
f 99/99/99 101/101/101 100/100/100
f 101/101/101 102/102/102 100/100/100
f 101/101/101 103/103/103 102/102/102
f 103/103/103 104/104/104 102/102/102
f 103/103/103 105/105/105 104/104/104
f 105/105/105 106/106/106 104/104/104
f 105/105/105 107/107/107 106/106/106
f 107/107/107 108/108/108 106/106/106
f 107/107/107 109/109/109 108/108/108
f 109/109/109 110/110/110 108/108/108
f 109/109/109 111/111/111 110/110/110
f 111/111/111 112/112/112 110/110/110
f 111/111/111 113/113/113 112/112/112
f 113/113/113 114/114/114 112/112/112
f 113/113/113 115/115/115 114/114/114
f 115/115/115 116/116/116 114/114/114
f 115/115/115 117/117/117 116/116/116
f 117/117/117 118/118/118 116/116/116
f 117/117/117 119/119/119 118/118/118
f 119/119/119 120/120/120 118/118/118
f 119/119/119 121/121/121 120/120/120
f 121/121/121 122/122/122 120/120/120
f 121/121/121 123/123/123 122/122/122
f 123/123/123 124/124/124 122/122/122
f 123/123/123 125/125/125 124/124/124
f 125/125/125 126/126/126 124/124/124
f 125/125/125 127/127/127 126/126/126
f 127/127/127 128/128/128 126/126/126
f 127/127/127 129/129/129 128/128/128
f 129/129/129 130/130/130 128/128/128
f 129/129/129 131/131/131 130/130/130
f 131/131/131 132/132/132 130/130/130
f 131/131/131 133/133/133 132/132/132
f 133/133/133 134/134/134 132/132/132
f 133/133/133 96/96/96 134/134/134
f 96/96/96 97/97/97 134/134/134
