g Map_Skyscraper_A3
v -0.2682739 -0.9450009 0.2682742
v -0.3261853 1.066039 0.3261858
v 0.3261853 1.066039 0.3261858
v 0.2682739 -0.9450009 0.2682742
v -0.2618811 0.988553 0.2618809
v -0.2618811 0.988553 -0.2618809
v 0.2618811 0.988553 -0.2618809
v 0.2618811 0.988553 0.2618809
v -0.3261853 1.066039 -0.3261858
v -0.2682739 -0.9450009 -0.2682742
v 0.2682739 -0.9450009 -0.2682742
v 0.3261853 1.066039 -0.3261858
v 0.2682739 -0.9450009 0.2682742
v 0.3261853 1.066039 0.3261858
v 0.3261853 1.066039 -0.3261858
v 0.2682739 -0.9450009 -0.2682742
v -0.2682739 -0.9450009 -0.2682742
v -0.3261853 1.066039 -0.3261858
v -0.3261853 1.066039 0.3261858
v -0.2682739 -0.9450009 0.2682742
v -0.3261853 1.066039 0.3261858
v -0.2618811 1.066039 0.2618809
v 0.2618811 1.066039 0.2618809
v 0.3261853 1.066039 0.3261858
v 0.2618811 1.066039 -0.2618809
v 0.3261853 1.066039 -0.3261858
v -0.2618811 1.066039 -0.2618809
v -0.3261853 1.066039 -0.3261858
v -0.2618811 1.066039 0.2618809
v -0.2618811 0.988553 0.2618809
v 0.2618811 0.988553 0.2618809
v 0.2618811 1.066039 0.2618809
v 0.2618811 1.066039 0.2618809
v 0.2618811 0.988553 0.2618809
v 0.2618811 0.988553 -0.2618809
v 0.2618811 1.066039 -0.2618809
v 0.2618811 1.066039 -0.2618809
v 0.2618811 0.988553 -0.2618809
v -0.2618811 0.988553 -0.2618809
v -0.2618811 1.066039 -0.2618809
v -0.2618811 1.066039 -0.2618809
v -0.2618811 0.988553 -0.2618809
v -0.2618811 0.988553 0.2618809
v -0.2618811 1.066039 0.2618809
vt 0.7192709 0.01499137
vt 0.7192709 0.9850088
vt 0.9807292 0.9850088
vt 0.9807292 0.01499137
vt 0.33526 0.6352601
vt 0.33526 0.96474
vt 0.66474 0.96474
vt 0.66474 0.6352601
vt 0.980729 0.9850086
vt 0.980729 0.01499134
vt 0.7192708 0.01499146
vt 0.7192708 0.9850086
vt 0.7192709 0.01499137
vt 0.7192709 0.9850086
vt 0.9807292 0.9850086
vt 0.9807292 0.01499137
vt 0.7192709 0.01499128
vt 0.7192709 0.9850086
vt 0.9807292 0.9850086
vt 0.9807292 0.01499128
vt 0.33526 0.6352601
vt 0.33526 0.6352601
vt 0.66474 0.6352601
vt 0.66474 0.6352601
vt 0.66474 0.96474
vt 0.66474 0.96474
vt 0.33526 0.96474
vt 0.33526 0.96474
vt 0.33526 0.6352601
vt 0.33526 0.6352601
vt 0.66474 0.6352601
vt 0.66474 0.6352601
vt 0.66474 0.6352601
vt 0.66474 0.6352601
vt 0.66474 0.96474
vt 0.66474 0.96474
vt 0.66474 0.96474
vt 0.66474 0.96474
vt 0.33526 0.96474
vt 0.33526 0.96474
vt 0.33526 0.96474
vt 0.33526 0.96474
vt 0.33526 0.6352601
vt 0.33526 0.6352601
vn 0 -0.02878491 0.9995857
vn 0 -0.02878491 0.9995857
vn 0 -0.02878491 0.9995857
vn 0 -0.02878491 0.9995857
vn 0 1 0
vn 0 1 0
vn 0 1 0
vn 0 1 0
vn 0 -0.02878491 -0.9995857
vn 0 -0.02878491 -0.9995857
vn 0 -0.02878491 -0.9995857
vn 0 -0.02878491 -0.9995857
vn 0.9995857 -0.02878488 0
vn 0.9995857 -0.02878488 0
vn 0.9995857 -0.02878488 0
vn 0.9995857 -0.02878488 0
vn -0.9995857 -0.02878472 0
vn -0.9995857 -0.02878472 0
vn -0.9995857 -0.02878472 0
vn -0.9995857 -0.02878472 0
vn 0 1 -3.228043E-07
vn 0 1 -3.228043E-07
vn 0 1 -3.228043E-07
vn 0 1 -3.228043E-07
vn 0 1 0
vn 0 1 0
vn 0 1 3.228043E-07
vn 0 1 3.228043E-07
vn 0 0 -1
vn 0 0 -1
vn 0 0 -1
vn 0 0 -1
vn -1 0 0
vn -1 0 0
vn -1 0 0
vn -1 0 0
vn 0 0 1
vn 0 0 1
vn 0 0 1
vn 0 0 1
vn 1 0 0
vn 1 0 0
vn 1 0 0
vn 1 0 0
g Map_Skyscraper_A3_0
f 3/3/3 2/2/2 1/1/1
f 4/4/4 3/3/3 1/1/1
f 7/7/7 6/6/6 5/5/5
f 8/8/8 7/7/7 5/5/5
f 11/11/11 10/10/10 9/9/9
f 12/12/12 11/11/11 9/9/9
f 15/15/15 14/14/14 13/13/13
f 16/16/16 15/15/15 13/13/13
f 19/19/19 18/18/18 17/17/17
f 20/20/20 19/19/19 17/17/17
f 23/23/23 22/22/22 21/21/21
f 24/24/24 23/23/23 21/21/21
f 25/25/25 23/23/23 24/24/24
f 26/26/26 25/25/25 24/24/24
f 27/27/27 25/25/25 26/26/26
f 28/28/28 27/27/27 26/26/26
f 22/22/22 27/27/27 28/28/28
f 21/21/21 22/22/22 28/28/28
f 31/31/31 30/30/30 29/29/29
f 32/32/32 31/31/31 29/29/29
f 35/35/35 34/34/34 33/33/33
f 36/36/36 35/35/35 33/33/33
f 39/39/39 38/38/38 37/37/37
f 40/40/40 39/39/39 37/37/37
f 43/43/43 42/42/42 41/41/41
f 44/44/44 43/43/43 41/41/41
