g Map_Border_mesh
v 28.12235 0.1968345 -24.78146
v 28.12235 -1.057149 -24.78146
v 3.662109E-06 -1.057149 -24.78146
v 3.662109E-06 0.1968345 -24.78146
v 28.24973 0.5173243 -24.90821
v 3.662109E-06 0.517324 -24.90821
v -28.24972 0.5173238 -24.90821
v -28.12234 0.1968345 -24.78146
v -28.12234 -1.057149 -24.78146
v 1.220703E-06 -1.057149 -26.78146
v 30.13234 -1.057149 -26.78146
v 30.13234 0.9246145 -26.78146
v 1.220703E-06 0.9246145 -26.78146
v -30.13234 -1.057149 -26.78146
v -30.13234 0.9246145 -26.78146
v 29.99915 1.057146 -26.64893
v 28.98696 1.057146 -25.64178
v 1.220703E-06 1.057146 -25.64178
v 1.220703E-06 1.057146 -26.64893
v 28.71354 0.9509584 -25.36972
v 1.220703E-06 0.9509584 -25.36972
v 1.220703E-06 0.7573748 -25.11942
v 28.46199 0.7573745 -25.11942
v 3.662109E-06 0.517324 -24.90821
v 28.24973 0.5173243 -24.90821
v 1.220703E-06 0.9246145 -26.78146
v 30.13234 0.9246145 -26.78146
v -30.13234 0.9246145 -26.78146
v -29.99915 1.057146 -26.64893
v -28.98696 1.057146 -25.64178
v -28.71354 0.9509584 -25.36972
v -28.46199 0.7573751 -25.11942
v -28.24972 0.5173238 -24.90821
v 30.13234 -1.057149 -26.78146
v 30.13234 -1.057146 -1.501985
v 30.13234 0.924617 -1.501985
v 30.13234 0.9246145 -26.78146
v 29.99915 1.057149 -1.501985
v 29.99915 1.057146 -26.64893
v 29.99915 1.057146 26.64893
v 30.13234 0.9246145 26.78146
v 30.13234 -1.057149 26.78146
v 29.99915 1.057146 -26.64893
v 29.99915 1.057149 -1.501985
v 28.98696 1.057149 -1.501985
v 28.98696 1.057146 -25.64178
v 28.71354 0.9509609 -1.501985
v 28.71354 0.9509584 -25.36972
v 28.71354 0.9509584 25.36972
v 28.98696 1.057146 25.64178
v 29.99915 1.057146 26.64893
v 28.71354 0.9509584 -25.36972
v 28.71354 0.9509609 -1.501985
v 28.46199 0.7573772 -1.501985
v 28.46199 0.7573745 -25.11942
v 28.24973 0.5173265 -1.501985
v 28.24973 0.5173243 -24.90821
v 28.12234 0.196837 -1.501985
v 28.12235 0.1968345 -24.78146
v 28.12234 -1.057146 -1.501985
v 28.12235 -1.057149 -24.78146
v 28.12234 0.1968345 24.78146
v 28.24972 0.5173238 24.90821
v 28.46199 0.7573751 25.11942
v 28.71354 0.9509584 25.36972
v 28.12234 -1.057149 24.78146
v -28.12234 0.1968345 -24.78146
v -28.12234 0.196837 -1.501985
v -28.24973 0.5173265 -1.501985
v -28.24972 0.5173238 -24.90821
v -28.46199 0.7573772 -1.501985
v -28.46199 0.7573751 -25.11942
v -28.71354 0.9509609 -1.501985
v -28.71354 0.9509584 -25.36972
v -28.12234 -1.057149 -24.78146
v -28.12234 -1.057146 -1.501985
v -28.71354 0.9509584 25.36972
v -28.46199 0.7573745 25.11942
v -28.24973 0.5173243 24.90821
v -28.12235 0.1968345 24.78146
v -28.12235 -1.057149 24.78146
v -28.71354 0.9509584 -25.36972
v -28.71354 0.9509609 -1.501985
v -28.98696 1.057149 -1.501985
v -28.98696 1.057146 -25.64178
v -29.99915 1.057149 -1.501985
v -29.99915 1.057146 -26.64893
v -29.99915 1.057146 26.64893
v -28.98696 1.057146 25.64178
v -28.71354 0.9509584 25.36972
v -29.99915 1.057146 -26.64893
v -29.99915 1.057149 -1.501985
v -30.13234 0.924617 -1.501985
v -30.13234 0.9246145 -26.78146
v -30.13234 -1.057146 -1.501985
v -30.13234 -1.057149 -26.78146
v -30.13234 -1.057149 26.78146
v -30.13234 0.9246145 26.78146
v -29.99915 1.057146 26.64893
v -28.12235 0.1968345 24.78146
v -28.12235 -1.057149 24.78146
v -3.662109E-06 -1.057149 24.78146
v -3.662109E-06 0.1968345 24.78146
v -28.24973 0.5173243 24.90821
v -3.662109E-06 0.517324 24.90821
v 28.24972 0.5173238 24.90821
v 28.12234 0.1968345 24.78146
v 28.12234 -1.057149 24.78146
v -1.220703E-06 -1.057149 26.78146
v -30.13234 -1.057149 26.78146
v -30.13234 0.9246145 26.78146
v -1.220703E-06 0.9246145 26.78146
v 30.13234 -1.057149 26.78146
v 30.13234 0.9246145 26.78146
v -29.99915 1.057146 26.64893
v -28.98696 1.057146 25.64178
v -1.220703E-06 1.057146 25.64178
v -2.441406E-06 1.057146 26.64893
v -28.71354 0.9509584 25.36972
v -1.220703E-06 0.9509584 25.36972
v -2.441406E-06 0.7573748 25.11942
v -28.46199 0.7573745 25.11942
v -3.662109E-06 0.517324 24.90821
v -28.24973 0.5173243 24.90821
v -1.220703E-06 0.9246145 26.78146
v -30.13234 0.9246145 26.78146
v 30.13234 0.9246145 26.78146
v 29.99915 1.057146 26.64893
v 28.98696 1.057146 25.64178
v 28.71354 0.9509584 25.36972
v 28.46199 0.7573751 25.11942
v 28.24972 0.5173238 24.90821
vt 0.7074536 0.03058219
vt 0.6713964 0.03058219
vt 0.6713964 0.4705471
vt 0.7074536 0.4705471
vt 0.7166688 0.02858934
vt 0.7166688 0.4705471
vt 0.7166688 0.9125049
vt 0.7074536 0.910512
vt 0.6713964 0.910512
vt 0.5927756 0.5
vt 0.5927756 0.02858928
vt 0.5357922 0.02858928
vt 0.5357922 0.5
vt 0.5927756 0.9714106
vt 0.5357922 0.9714106
vt 0.6553774 0.03067303
vt 0.6264176 0.0465084
vt 0.6264176 0.5
vt 0.6553774 0.5
vt 0.6185951 0.05078584
vt 0.6185951 0.5
vt 0.611398 0.5
vt 0.611398 0.0547213
vt 0.6053247 0.5
vt 0.6053247 0.0580422
vt 0.6591882 0.5
vt 0.6591882 0.02858928
vt 0.6591882 0.9714106
vt 0.6553776 0.9693269
vt 0.6264176 0.9534916
vt 0.6185951 0.9492142
vt 0.611398 0.9452786
vt 0.6053247 0.9419579
vt 0.7882534 0.02858934
vt 0.7882534 0.4735619
vt 0.852367 0.4735619
vt 0.8523668 0.02858934
vt 0.8566545 0.4735619
vt 0.8566543 0.03092206
vt 0.8566543 0.9690779
vt 0.8523668 0.9714106
vt 0.7882534 0.9714106
vt 0.909094 0.9667453
vt 0.9090938 0.5241054
vt 0.876348 0.5241054
vt 0.876348 0.949017
vt 0.8675025 0.5241054
vt 0.8675025 0.9442284
vt 0.8675025 0.05110613
vt 0.876348 0.0463174
vt 0.9090938 0.02858928
vt 0.9861431 0.9217117
vt 0.9861432 0.5015886
vt 0.9798803 0.5015886
vt 0.9798803 0.9173059
vt 0.9721143 0.5015886
vt 0.9721142 0.913588
vt 0.961746 0.5015886
vt 0.9617459 0.9113569
vt 0.9211774 0.5015886
vt 0.9211771 0.9113569
vt 0.9617459 0.03894401
vt 0.9721142 0.03671297
vt 0.9798803 0.0329951
vt 0.9861431 0.02858934
vt 0.9211771 0.03894401
vt 0.4398102 0.03894386
vt 0.4398102 0.4487123
vt 0.4501787 0.4487123
vt 0.4501785 0.03671288
vt 0.4579448 0.4487123
vt 0.4579448 0.03299499
vt 0.4642077 0.4487123
vt 0.4642075 0.02858928
vt 0.3992419 0.03894386
vt 0.3992419 0.4487123
vt 0.4642075 0.9217116
vt 0.4579448 0.9173059
vt 0.4501785 0.9135879
vt 0.4398102 0.9113569
vt 0.3992419 0.9113569
vt 0.3871588 0.9442282
vt 0.3871588 0.5241053
vt 0.3783132 0.5241053
vt 0.3783132 0.949017
vt 0.3455671 0.5241053
vt 0.3455672 0.966745
vt 0.3455671 0.02858928
vt 0.3783132 0.04631725
vt 0.3871588 0.05110598
vt 0.3347189 0.9690779
vt 0.334719 0.5264382
vt 0.3304315 0.5264382
vt 0.3304313 0.9714106
vt 0.266318 0.5264382
vt 0.266318 0.9714106
vt 0.266318 0.02858928
vt 0.3304313 0.02858928
vt 0.3347189 0.03092211
vt 0.1586766 0.910512
vt 0.1947333 0.910512
vt 0.1947333 0.4705471
vt 0.1586766 0.4705471
vt 0.149461 0.9125047
vt 0.149461 0.4705471
vt 0.149461 0.0285894
vt 0.1586766 0.03058234
vt 0.1947333 0.03058234
vt 0.01385677 0.5
vt 0.01385677 0.9714106
vt 0.07084048 0.9714106
vt 0.07084048 0.5
vt 0.01385677 0.02858934
vt 0.07084048 0.02858934
vt 0.08720019 0.9693267
vt 0.1161599 0.9534916
vt 0.1161599 0.4999999
vt 0.08720019 0.5
vt 0.1239826 0.949214
vt 0.1239826 0.4999999
vt 0.1311797 0.5
vt 0.1311797 0.9452784
vt 0.1372528 0.5
vt 0.1372528 0.9419577
vt 0.08338955 0.4999999
vt 0.08338955 0.9714106
vt 0.08338934 0.02858934
vt 0.08719999 0.03067318
vt 0.1161599 0.04650846
vt 0.1239826 0.05078605
vt 0.1311797 0.0547215
vt 0.1372528 0.05804238
vn 0 0.0940624 0.9955663
vn 0 0 1
vn 0 0 1
vn 0 0.08038605 0.9967638
vn 0 0.5580427 0.8298123
vn 0 0.5167845 0.8561156
vn 0 0.5580426 0.8298123
vn 0 0.09406242 0.9955663
vn 0 0 1
vn 1.046635E-07 0 -1
vn 1.046635E-07 0 -1
vn 1.043266E-07 0.03887662 -0.999244
vn 1.040453E-07 0.0624306 -0.9980494
vn 0 0 -1
vn 0 0.03887661 -0.999244
vn 0 0.9647624 -0.2631227
vn 0 0.9994633 0.03275954
vn 0 0.9966889 0.08130959
vn 0 0.9930776 -0.1174605
vn 0 0.8979068 0.4401856
vn 0 0.8676483 0.4971785
vn 0 0.7290433 0.6844676
vn 0 0.7540675 0.6567969
vn 0 0.5167845 0.8561156
vn 0 0.5580427 0.8298123
vn 1.040453E-07 0.0624306 -0.9980494
vn 1.043266E-07 0.03887662 -0.999244
vn 0 0.03887661 -0.999244
vn 0 0.9647626 -0.2631218
vn 0 0.9994633 0.03275951
vn 0 0.8979069 0.4401854
vn 0 0.7540678 0.6567966
vn 0 0.5580426 0.8298123
vn 1 0 0
vn 1 0 0
vn 0.9980306 0.06272868 0
vn 0.9992315 0.03919612 0
vn 0.1171209 0.9931176 0
vn 0.2611324 0.9653029 0
vn 0.2606961 0.9654209 0
vn 0.9992311 0.03920764 0
vn 1 0 0
vn 0.2611324 0.9653029 0
vn 0.1171209 0.9931176 0
vn -0.08073427 0.9967356 0
vn -0.03270257 0.9994652 -1.01426E-07
vn -0.4952342 0.8687596 0
vn -0.4386573 0.8986544 -1.046762E-07
vn -0.438721 0.8986234 0
vn -0.03278911 0.9994623 0
vn 0.2606961 0.9654209 0
vn -0.4386573 0.8986544 -1.046762E-07
vn -0.4952342 0.8687596 0
vn -0.682618 0.7307754 0
vn -0.6550378 0.7555961 -1.404936E-07
vn -0.8549422 0.5187232 -1.16218E-07
vn -0.8286116 0.5598241 -2.057029E-07
vn -0.9967301 0.08080389 -1.468687E-07
vn -0.9955255 0.09449265 -2.181719E-07
vn -1 0 -1.477761E-07
vn -1 0 -2.097475E-07
vn -0.9955277 0.09447061 0
vn -0.8286471 0.5597714 0
vn -0.655073 0.7555656 0
vn -0.438721 0.8986234 0
vn -1 0 0
vn 0.9955254 0.09449428 1.983236E-07
vn 0.99673 0.08080517 1.468948E-07
vn 0.8549395 0.5187278 1.073359E-07
vn 0.8286068 0.5598308 0
vn 0.6826165 0.7307768 0
vn 0.6550381 0.7555959 0
vn 0.495237 0.8687579 0
vn 0.4386598 0.8986532 0
vn 1 0 2.097475E-07
vn 1 0 1.477762E-07
vn 0.4387257 0.898621 1.165791E-07
vn 0.6550709 0.7555674 1.038859E-07
vn 0.8286458 0.5597733 1.063895E-07
vn 0.9955276 0.09447195 1.008779E-07
vn 1 0 0
vn 0.4386598 0.8986532 0
vn 0.495237 0.8687579 0
vn 0.08073433 0.9967356 0
vn 0.0327025 0.9994652 -1.019367E-07
vn -0.1171208 0.9931177 0
vn -0.2611315 0.9653032 -1.22514E-07
vn -0.2606967 0.9654207 0
vn 0.03278909 0.9994623 0
vn 0.4387257 0.898621 1.165791E-07
vn -0.2611315 0.9653032 -1.22514E-07
vn -0.1171208 0.9931177 0
vn -0.9980306 0.06272825 0
vn -0.9992315 0.03919671 -1.003482E-07
vn -1 0 0
vn -1 0 0
vn -1 0 0
vn -0.9992311 0.03920645 0
vn -0.2606967 0.9654207 0
vn 0 0.09406239 -0.9955663
vn 0 0 -1
vn 0 0 -1
vn 0 0.08038604 -0.9967638
vn 0 0.5580425 -0.8298123
vn 0 0.5167842 -0.8561157
vn 0 0.5580425 -0.8298123
vn 0 0.09406242 -0.9955663
vn 0 0 -1
vn -1.046635E-07 0 1
vn -1.046635E-07 0 1
vn -1.043266E-07 0.03887662 0.999244
vn -1.040453E-07 0.06243037 0.9980494
vn -1.046635E-07 0 1
vn -1.043266E-07 0.03887627 0.9992441
vn 0 0.9647624 0.2631225
vn 0 0.9994633 -0.03275945
vn 0 0.9966889 -0.08130956
vn 0 0.9930775 0.1174608
vn 0 0.8979068 -0.4401856
vn 0 0.8676484 -0.4971783
vn 0 0.7290432 -0.6844676
vn 0 0.7540674 -0.6567971
vn 0 0.5167842 -0.8561157
vn 0 0.5580425 -0.8298123
vn -1.040453E-07 0.06243037 0.9980494
vn -1.043266E-07 0.03887662 0.999244
vn -1.043266E-07 0.03887627 0.9992441
vn 0 0.9647625 0.2631222
vn 0 0.9994633 -0.03275953
vn 0 0.8979071 -0.440185
vn 0 0.7540679 -0.6567965
vn 0 0.5580425 -0.8298123
g Map_Border_mesh_0
f 3/3/3 2/2/2 1/1/1
f 4/4/4 3/3/3 1/1/1
f 4/4/4 1/1/1 5/5/5
f 6/6/6 4/4/4 5/5/5
f 6/6/6 7/7/7 4/4/4
f 7/7/7 8/8/8 4/4/4
f 4/4/4 8/8/8 3/3/3
f 8/8/8 9/9/9 3/3/3
f 12/12/12 11/11/11 10/10/10
f 13/13/13 12/12/12 10/10/10
f 13/13/13 10/10/10 14/14/14
f 15/15/15 13/13/13 14/14/14
f 18/18/18 17/17/17 16/16/16
f 19/19/19 18/18/18 16/16/16
f 20/20/20 17/17/17 18/18/18
f 21/21/21 20/20/20 18/18/18
f 21/21/21 22/22/22 20/20/20
f 22/22/22 23/23/23 20/20/20
f 22/22/22 24/24/24 23/23/23
f 24/24/24 25/25/25 23/23/23
f 19/19/19 16/16/16 26/26/26
f 16/16/16 27/27/27 26/26/26
f 19/19/19 26/26/26 28/28/28
f 29/29/29 19/19/19 28/28/28
f 19/19/19 29/29/29 18/18/18
f 29/29/29 30/30/30 18/18/18
f 21/21/21 18/18/18 30/30/30
f 31/31/31 21/21/21 30/30/30
f 21/21/21 31/31/31 22/22/22
f 31/31/31 32/32/32 22/22/22
f 22/22/22 32/32/32 24/24/24
f 32/32/32 33/33/33 24/24/24
f 36/36/36 35/35/35 34/34/34
f 37/37/37 36/36/36 34/34/34
f 38/38/38 36/36/36 37/37/37
f 39/39/39 38/38/38 37/37/37
f 36/36/36 38/38/38 40/40/40
f 41/41/41 36/36/36 40/40/40
f 35/35/35 36/36/36 41/41/41
f 42/42/42 35/35/35 41/41/41
f 45/45/45 44/44/44 43/43/43
f 46/46/46 45/45/45 43/43/43
f 47/47/47 45/45/45 46/46/46
f 48/48/48 47/47/47 46/46/46
f 45/45/45 47/47/47 49/49/49
f 50/50/50 45/45/45 49/49/49
f 44/44/44 45/45/45 50/50/50
f 51/51/51 44/44/44 50/50/50
f 54/54/54 53/53/53 52/52/52
f 55/55/55 54/54/54 52/52/52
f 56/56/56 54/54/54 55/55/55
f 57/57/57 56/56/56 55/55/55
f 58/58/58 56/56/56 57/57/57
f 59/59/59 58/58/58 57/57/57
f 60/60/60 58/58/58 59/59/59
f 61/61/61 60/60/60 59/59/59
f 56/56/56 58/58/58 62/62/62
f 63/63/63 56/56/56 62/62/62
f 54/54/54 56/56/56 63/63/63
f 64/64/64 54/54/54 63/63/63
f 53/53/53 54/54/54 64/64/64
f 65/65/65 53/53/53 64/64/64
f 58/58/58 60/60/60 66/66/66
f 62/62/62 58/58/58 66/66/66
f 69/69/69 68/68/68 67/67/67
f 70/70/70 69/69/69 67/67/67
f 71/71/71 69/69/69 70/70/70
f 72/72/72 71/71/71 70/70/70
f 73/73/73 71/71/71 72/72/72
f 74/74/74 73/73/73 72/72/72
f 67/67/67 68/68/68 75/75/75
f 68/68/68 76/76/76 75/75/75
f 71/71/71 73/73/73 77/77/77
f 78/78/78 71/71/71 77/77/77
f 69/69/69 71/71/71 78/78/78
f 79/79/79 69/69/69 78/78/78
f 68/68/68 69/69/69 79/79/79
f 80/80/80 68/68/68 79/79/79
f 76/76/76 68/68/68 80/80/80
f 81/81/81 76/76/76 80/80/80
f 84/84/84 83/83/83 82/82/82
f 85/85/85 84/84/84 82/82/82
f 86/86/86 84/84/84 85/85/85
f 87/87/87 86/86/86 85/85/85
f 84/84/84 86/86/86 88/88/88
f 89/89/89 84/84/84 88/88/88
f 83/83/83 84/84/84 89/89/89
f 90/90/90 83/83/83 89/89/89
f 93/93/93 92/92/92 91/91/91
f 94/94/94 93/93/93 91/91/91
f 95/95/95 93/93/93 94/94/94
f 96/96/96 95/95/95 94/94/94
f 93/93/93 95/95/95 97/97/97
f 98/98/98 93/93/93 97/97/97
f 92/92/92 93/93/93 98/98/98
f 99/99/99 92/92/92 98/98/98
f 102/102/102 101/101/101 100/100/100
f 103/103/103 102/102/102 100/100/100
f 103/103/103 100/100/100 104/104/104
f 105/105/105 103/103/103 104/104/104
f 105/105/105 106/106/106 103/103/103
f 106/106/106 107/107/107 103/103/103
f 103/103/103 107/107/107 102/102/102
f 107/107/107 108/108/108 102/102/102
f 111/111/111 110/110/110 109/109/109
f 112/112/112 111/111/111 109/109/109
f 112/112/112 109/109/109 113/113/113
f 114/114/114 112/112/112 113/113/113
f 117/117/117 116/116/116 115/115/115
f 118/118/118 117/117/117 115/115/115
f 119/119/119 116/116/116 117/117/117
f 120/120/120 119/119/119 117/117/117
f 120/120/120 121/121/121 119/119/119
f 121/121/121 122/122/122 119/119/119
f 121/121/121 123/123/123 122/122/122
f 123/123/123 124/124/124 122/122/122
f 118/118/118 115/115/115 125/125/125
f 115/115/115 126/126/126 125/125/125
f 118/118/118 125/125/125 127/127/127
f 128/128/128 118/118/118 127/127/127
f 118/118/118 128/128/128 117/117/117
f 128/128/128 129/129/129 117/117/117
f 120/120/120 117/117/117 129/129/129
f 130/130/130 120/120/120 129/129/129
f 120/120/120 130/130/130 121/121/121
f 130/130/130 131/131/131 121/121/121
f 121/121/121 131/131/131 123/123/123
f 131/131/131 132/132/132 123/123/123
