g Map_Tile_Bottom
v -6.103516E-05 -9.9 -1.136868E-13
v 28.24353 -9.9 -50.94928
v 14.89063 -9.9 -47.82434
v 31.99255 -9.9 -36.84863
v 45.91077 -9.9 -28.37274
v 53.0495 -9.9 -15.83453
v 57.75348 -9.9 -0.7963867
v 52.125 -9.9 13.61676
v 42.521 -9.9 24.28003
v 38.46393 -9.9 38.69318
v 28.24353 -9.9 49.35657
v 14.89063 -9.9 52.48145
v -0.3113403 -9.9 49.35657
v -14.58875 -9.9 53.10632
v -28.86621 -9.9 49.35657
v -33.6106 -9.9 34.15948
v -40.74927 -9.9 21.62122
v -54.66754 -9.9 13.14526
v -58.4165 -9.9 -0.9553223
v -48.19617 -9.9 -11.30072
v -44.1391 -9.9 -25.71387
v -34.53503 -9.9 -36.37714
v -28.86621 -9.9 -50.94928
v -14.58875 -9.9 -47.19946
v -0.3113403 -9.9 -50.94928
vt 0.3983141 0.6059625
vt 0.2546532 0.8677124
vt 0.3225729 0.8514024
vt 0.2355845 0.7941151
vt 0.1647889 0.7498759
vt 0.1284784 0.6844338
vt 0.1045511 0.6059431
vt 0.1331804 0.5307149
vt 0.182031 0.4750588
vt 0.2026674 0.3998305
vt 0.2546532 0.3441739
vt 0.3225729 0.3278636
vt 0.3998976 0.3441739
vt 0.4725195 0.3246019
vt 0.5451413 0.344174
vt 0.5692738 0.4234941
vt 0.6055846 0.4889362
vt 0.6763797 0.5331752
vt 0.6954487 0.6067728
vt 0.6434636 0.6607703
vt 0.6228269 0.7359984
vt 0.573976 0.7916546
vt 0.5451413 0.8677124
vt 0.4725195 0.8481402
vt 0.3998976 0.8677124
vn 0 -1 0
vn 0 -1 0
vn 0 -1 0
vn 0 -1 0
vn 0 -1 0
vn 0 -1 0
vn 0 -1 0
vn 0 -1 0
vn 0 -1 0
vn 0 -1 0
vn 0 -1 0
vn 0 -1 0
vn 0 -1 0
vn 0 -1 0
vn 0 -1 0
vn 0 -1 0
vn 0 -1 0
vn 0 -1 0
vn 0 -1 0
vn 0 -1 0
vn 0 -1 0
vn 0 -1 0
vn 0 -1 0
vn 0 -1 0
vn 0 -1 0
g Map_Tile_Bottom_0
f 3/3/3 2/2/2 1/1/1
f 4/4/4 1/1/1 2/2/2
f 4/4/4 5/5/5 1/1/1
f 5/5/5 6/6/6 1/1/1
f 6/6/6 7/7/7 1/1/1
f 8/8/8 1/1/1 7/7/7
f 8/8/8 9/9/9 1/1/1
f 9/9/9 10/10/10 1/1/1
f 10/10/10 11/11/11 1/1/1
f 12/12/12 1/1/1 11/11/11
f 12/12/12 13/13/13 1/1/1
f 13/13/13 14/14/14 1/1/1
f 14/14/14 15/15/15 1/1/1
f 16/16/16 1/1/1 15/15/15
f 16/16/16 17/17/17 1/1/1
f 17/17/17 18/18/18 1/1/1
f 18/18/18 19/19/19 1/1/1
f 20/20/20 1/1/1 19/19/19
f 20/20/20 21/21/21 1/1/1
f 21/21/21 22/22/22 1/1/1
f 22/22/22 23/23/23 1/1/1
f 24/24/24 1/1/1 23/23/23
f 24/24/24 25/25/25 1/1/1
f 25/25/25 3/3/3 1/1/1
