g Map_Skyscraper_B
v -0.2682742 -0.01079591 0.2682739
v -0.1108111 1.080668 0.1108112
v 0.1108111 1.080668 0.1108112
v 0.2682742 -0.01079591 0.2682739
v -0.1108111 1.080668 0.1108112
v -0.1108111 1.080668 -0.1108112
v 0.1108111 1.080668 -0.1108112
v 0.1108111 1.080668 0.1108112
v -0.1108111 1.080668 -0.1108112
v -0.2682742 -0.01079591 -0.2682742
v 0.2682742 -0.01079591 -0.2682742
v 0.1108111 1.080668 -0.1108112
v 0.2682742 -0.01079591 0.2682739
v 0.1108111 1.080668 0.1108112
v 0.1108111 1.080668 -0.1108112
v 0.2682742 -0.01079591 -0.2682742
v -0.2682742 -0.01079591 -0.2682742
v -0.1108111 1.080668 -0.1108112
v -0.1108111 1.080668 0.1108112
v -0.2682742 -0.01079591 0.2682739
vt 0.7192709 0.01499137
vt 0.7192709 0.9850088
vt 0.9807292 0.9850088
vt 0.9807292 0.01499137
vt 0.33526 0.6352601
vt 0.33526 0.96474
vt 0.66474 0.96474
vt 0.66474 0.6352601
vt 0.980729 0.9850086
vt 0.980729 0.01499134
vt 0.7192708 0.01499146
vt 0.7192708 0.9850086
vt 0.7192709 0.01499137
vt 0.7192709 0.9850086
vt 0.9807292 0.9850086
vt 0.9807292 0.01499137
vt 0.7192709 0.01499128
vt 0.7192709 0.9850086
vt 0.9807292 0.9850086
vt 0.9807292 0.01499128
vn 0 0.1427894 0.9897531
vn 0 0.1427894 0.9897531
vn 0 0.1427894 0.9897531
vn 0 0.1427894 0.9897531
vn 0 1 0
vn 0 1 0
vn 0 1 0
vn 0 1 0
vn 0 0.1427895 -0.9897531
vn 0 0.1427895 -0.9897531
vn 0 0.1427895 -0.9897531
vn 0 0.1427895 -0.9897531
vn 0.9897531 0.1427895 0
vn 0.9897531 0.1427895 0
vn 0.9897531 0.1427895 0
vn 0.9897531 0.1427895 0
vn -0.9897531 0.1427895 0
vn -0.9897531 0.1427895 0
vn -0.9897531 0.1427895 0
vn -0.9897531 0.1427895 0
g Map_Skyscraper_B_0
f 3/3/3 2/2/2 1/1/1
f 4/4/4 3/3/3 1/1/1
f 7/7/7 6/6/6 5/5/5
f 8/8/8 7/7/7 5/5/5
f 11/11/11 10/10/10 9/9/9
f 12/12/12 11/11/11 9/9/9
f 15/15/15 14/14/14 13/13/13
f 16/16/16 15/15/15 13/13/13
f 19/19/19 18/18/18 17/17/17
f 20/20/20 19/19/19 17/17/17
