g Map_Tree_City_B
v 16.12951 56.66211 -5.240794
v -1.206992E-05 99.38686 -9.951296E-06
v 13.72057 56.66211 -9.968576
v -1.206992E-05 99.38686 -9.951296E-06
v 9.968554 56.66211 -13.72053
v -1.206992E-05 99.38686 -9.951296E-06
v 5.240772 56.66211 -16.12953
v -1.206992E-05 99.38686 -9.951296E-06
v -1.206992E-05 56.66211 -16.9596
v -1.206992E-05 99.38686 -9.951296E-06
v -5.240796 56.66211 -16.12953
v -1.206992E-05 99.38686 -9.951296E-06
v -9.968579 56.66211 -13.72053
v -1.206992E-05 99.38686 -9.951296E-06
v -13.72059 56.66211 -9.968576
v -1.206992E-05 99.38686 -9.951296E-06
v -16.12947 56.66211 -5.240794
v -1.206992E-05 99.38686 -9.951296E-06
v -16.95955 56.66211 -9.951296E-06
v -1.206992E-05 99.38686 -9.951296E-06
v -16.12947 56.66211 5.240835
v -1.206992E-05 99.38686 -9.951296E-06
v -13.72059 56.66211 9.968557
v -1.206992E-05 99.38686 -9.951296E-06
v -9.968579 56.66211 13.72057
v -1.206992E-05 99.38686 -9.951296E-06
v -5.240796 56.66211 16.12951
v -1.206992E-05 99.38686 -9.951296E-06
v -1.206992E-05 56.66211 16.95952
v -1.206992E-05 99.38686 -9.951296E-06
v 5.240772 56.66211 16.12951
v -1.206992E-05 99.38686 -9.951296E-06
v 9.968554 56.66211 13.72057
v -1.206992E-05 99.38686 -9.951296E-06
v 13.72057 56.66211 9.968557
v -1.206992E-05 99.38686 -9.951296E-06
v 16.12951 56.66211 5.240835
v -1.206992E-05 99.38686 -9.951296E-06
v 16.95958 56.66211 -9.951296E-06
v -1.206992E-05 99.38686 -9.951296E-06
v 16.12951 56.66211 -5.240794
v 20.33587 39.5573 -6.607493
v -1.206992E-05 75.19098 -9.951296E-06
v 17.29876 39.5573 -12.56831
v -1.206992E-05 75.19098 -9.951296E-06
v 12.56829 39.5573 -17.29878
v -1.206992E-05 75.19098 -9.951296E-06
v 6.607532 39.5573 -20.33589
v -1.206992E-05 75.19098 -9.951296E-06
v -1.206992E-05 39.5573 -21.38246
v -1.206992E-05 75.19098 -9.951296E-06
v -6.607495 39.5573 -20.33589
v -1.206992E-05 75.19098 -9.951296E-06
v -12.56831 39.5573 -17.29878
v -1.206992E-05 75.19098 -9.951296E-06
v -17.29878 39.5573 -12.56831
v -1.206992E-05 75.19098 -9.951296E-06
v -20.33589 39.5573 -6.607493
v -1.206992E-05 75.19098 -9.951296E-06
v -21.38246 39.5573 -9.951296E-06
v -1.206992E-05 75.19098 -9.951296E-06
v -20.33589 39.5573 6.607534
v -1.206992E-05 75.19098 -9.951296E-06
v -17.29878 39.5573 12.56829
v -1.206992E-05 75.19098 -9.951296E-06
v -12.56825 39.5573 17.29876
v -1.206992E-05 75.19098 -9.951296E-06
v -6.607495 39.5573 20.33593
v -1.206992E-05 75.19098 -9.951296E-06
v -1.206992E-05 39.5573 21.38244
v -1.206992E-05 75.19098 -9.951296E-06
v 6.607532 39.5573 20.33593
v -1.206992E-05 75.19098 -9.951296E-06
v 12.56829 39.5573 17.29876
v -1.206992E-05 75.19098 -9.951296E-06
v 17.29876 39.5573 12.56829
v -1.206992E-05 75.19098 -9.951296E-06
v 20.33587 39.5573 6.607534
v -1.206992E-05 75.19098 -9.951296E-06
v 21.3825 39.5573 -9.951296E-06
v -1.206992E-05 75.19098 -9.951296E-06
v 20.33587 39.5573 -6.607493
v 23.67638 24.03953 -7.692942
v -1.206992E-05 56.59452 -9.951296E-06
v 20.14031 24.03953 -14.63282
v -1.206992E-05 56.59452 -9.951296E-06
v 14.6328 24.03953 -20.14033
v -1.206992E-05 56.59452 -9.951296E-06
v 7.69292 24.03953 -23.6764
v -1.206992E-05 56.59452 -9.951296E-06
v -1.206992E-05 24.03953 -24.89485
v -1.206992E-05 56.59452 -9.951296E-06
v -7.692944 24.03953 -23.6764
v -1.206992E-05 56.59452 -9.951296E-06
v -14.63276 24.03953 -20.14033
v -1.206992E-05 56.59452 -9.951296E-06
v -20.14033 24.03953 -14.63282
v -1.206992E-05 56.59452 -9.951296E-06
v -23.67634 24.03953 -7.692942
v -1.206992E-05 56.59452 -9.951296E-06
v -24.89479 24.03953 -9.951296E-06
v -1.206992E-05 56.59452 -9.951296E-06
v -23.67634 24.03953 7.692922
v -1.206992E-05 56.59452 -9.951296E-06
v -20.14033 24.03953 14.6328
v -1.206992E-05 56.59452 -9.951296E-06
v -14.63276 24.03953 20.14031
v -1.206992E-05 56.59452 -9.951296E-06
v -7.692944 24.03953 23.67632
v -1.206992E-05 56.59452 -9.951296E-06
v -1.206992E-05 24.03953 24.89477
v -1.206992E-05 56.59452 -9.951296E-06
v 7.69292 24.03953 23.67632
v -1.206992E-05 56.59452 -9.951296E-06
v 14.6328 24.03953 20.14031
v -1.206992E-05 56.59452 -9.951296E-06
v 20.14031 24.03953 14.6328
v -1.206992E-05 56.59452 -9.951296E-06
v 23.67638 24.03953 7.692922
v -1.206992E-05 56.59452 -9.951296E-06
v 24.89482 24.03953 -9.951296E-06
v -1.206992E-05 56.59452 -9.951296E-06
v 23.67638 24.03953 -7.692942
vt 0.0006813258 0.5
vt 0.2506813 1
vt 0.02568133 0.5
vt 0.2506813 1
vt 0.05068134 0.5
vt 0.2506813 1
vt 0.07568134 0.5
vt 0.2506813 1
vt 0.1006813 0.5
vt 0.2506813 1
vt 0.1256814 0.5
vt 0.2506813 1
vt 0.1506814 0.5
vt 0.2506813 1
vt 0.1756814 0.5
vt 0.2506813 1
vt 0.2006814 0.5
vt 0.2506813 1
vt 0.2256814 0.5
vt 0.2506813 1
vt 0.2506814 0.5
vt 0.2506813 1
vt 0.2756813 0.5
vt 0.2506813 1
vt 0.3006813 0.5
vt 0.2506813 1
vt 0.3256813 0.5
vt 0.2506813 1
vt 0.3506813 0.5
vt 0.2506813 1
vt 0.3756813 0.5
vt 0.2506813 1
vt 0.4006812 0.5
vt 0.2506813 1
vt 0.4256812 0.5
vt 0.2506813 1
vt 0.4506812 0.5
vt 0.2506813 1
vt 0.4756812 0.5
vt 0.2506813 1
vt 0.5006812 0.5
vt 0.0006813258 0.2076577
vt 0.2506813 0.5923424
vt 0.02568133 0.2076577
vt 0.2506813 0.5923424
vt 0.05068134 0.2076577
vt 0.2506813 0.5923424
vt 0.07568134 0.2076577
vt 0.2506813 0.5923424
vt 0.1006813 0.2076577
vt 0.2506813 0.5923424
vt 0.1256814 0.2076577
vt 0.2506813 0.5923424
vt 0.1506814 0.2076577
vt 0.2506813 0.5923424
vt 0.1756814 0.2076577
vt 0.2506813 0.5923424
vt 0.2006814 0.2076577
vt 0.2506813 0.5923424
vt 0.2256814 0.2076577
vt 0.2506813 0.5923424
vt 0.2506814 0.2076577
vt 0.2506813 0.5923424
vt 0.2756813 0.2076577
vt 0.2506813 0.5923424
vt 0.3006813 0.2076577
vt 0.2506813 0.5923424
vt 0.3256813 0.2076577
vt 0.2506813 0.5923424
vt 0.3506813 0.2076577
vt 0.2506813 0.5923424
vt 0.3756813 0.2076577
vt 0.2506813 0.5923424
vt 0.4006812 0.2076577
vt 0.2506813 0.5923424
vt 0.4256812 0.2076577
vt 0.2506813 0.5923424
vt 0.4506812 0.2076577
vt 0.2506813 0.5923424
vt 0.4756812 0.2076577
vt 0.2506813 0.5923424
vt 0.5006812 0.2076577
vt 0.0006813258 0.01021615
vt 0.2506813 0.2897838
vt 0.02568133 0.01021615
vt 0.2506813 0.2897838
vt 0.05068134 0.01021615
vt 0.2506813 0.2897838
vt 0.07568134 0.01021615
vt 0.2506813 0.2897838
vt 0.1006813 0.01021615
vt 0.2506813 0.2897838
vt 0.1256814 0.01021615
vt 0.2506813 0.2897838
vt 0.1506814 0.01021615
vt 0.2506813 0.2897838
vt 0.1756814 0.01021615
vt 0.2506813 0.2897838
vt 0.2006814 0.01021615
vt 0.2506813 0.2897838
vt 0.2256814 0.01021615
vt 0.2506813 0.2897838
vt 0.2506814 0.01021615
vt 0.2506813 0.2897838
vt 0.2756813 0.01021615
vt 0.2506813 0.2897838
vt 0.3006813 0.01021615
vt 0.2506813 0.2897838
vt 0.3256813 0.01021615
vt 0.2506813 0.2897838
vt 0.3506813 0.01021615
vt 0.2506813 0.2897838
vt 0.3756813 0.01021615
vt 0.2506813 0.2897838
vt 0.4006812 0.01021615
vt 0.2506813 0.2897838
vt 0.4256812 0.01021615
vt 0.2506813 0.2897838
vt 0.4506812 0.01021615
vt 0.2506813 0.2897838
vt 0.4756812 0.01021615
vt 0.2506813 0.2897838
vt 0.5006812 0.01021615
vn 0.883962 0.3689424 -0.2872153
vn 0 1 0
vn 0.751942 0.3689419 -0.5463197
vn 0 1 0
vn 0.5463164 0.3689409 -0.7519448
vn 0 1 0
vn 0.2872195 0.3689461 -0.8839592
vn 0 1 0
vn 0 0.3689467 -0.9294505
vn 0 1 0
vn -0.2872195 0.368946 -0.8839592
vn 0 1 0
vn -0.5463151 0.3689462 -0.7519432
vn 0 1 0
vn -0.7519443 0.368943 -0.5463156
vn 0 1 0
vn -0.8839647 0.3689395 -0.2872108
vn 0 1 0
vn -0.9294515 0.3689444 0
vn 0 1 0
vn -0.8839626 0.368943 0.2872128
vn 0 1 0
vn -0.7519448 0.3689413 0.5463162
vn 0 1 0
vn -0.5463151 0.3689462 0.7519432
vn 0 1 0
vn -0.2872194 0.3689496 0.8839577
vn 0 1 0
vn 0 0.3689502 0.9294491
vn 0 1 0
vn 0.2872199 0.3689461 0.8839591
vn 0 1 0
vn 0.5463159 0.3689427 0.7519443
vn 0 1 0
vn 0.7519421 0.3689419 0.5463195
vn 0 1 0
vn 0.8839605 0.3689443 0.2872175
vn 0 1 0
vn 0.9294508 0.3689461 0
vn 0 1 0
vn 0.883962 0.3689424 -0.2872153
vn 0.8154987 0.5145378 -0.264977
vn 0 1 0
vn 0.6937053 0.5145388 -0.5040069
vn 0 1 0
vn 0.5040027 0.5145368 -0.6937098
vn 0 1 0
vn 0.2649774 0.5145339 -0.815501
vn 0 1 0
vn 0 0.5145364 -0.8574687
vn 0 1 0
vn -0.2649778 0.5145312 -0.8155025
vn 0 1 0
vn -0.5040012 0.5145354 -0.6937119
vn 0 1 0
vn -0.6937041 0.5145414 -0.5040057
vn 0 1 0
vn -0.8154996 0.5145383 -0.2649733
vn 0 1 0
vn -0.8574689 0.5145357 0
vn 0 1 0
vn -0.8155019 0.5145352 0.2649719
vn 0 1 0
vn -0.6937039 0.5145379 0.5040097
vn 0 1 0
vn -0.504007 0.5145322 0.69371
vn 0 1 0
vn -0.2649785 0.5145328 0.8155013
vn 0 1 0
vn 0 0.5145338 0.8574702
vn 0 1 0
vn 0.2649773 0.5145338 0.815501
vn 0 1 0
vn 0.5040069 0.5145376 0.6937061
vn 0 1 0
vn 0.6937059 0.5145376 0.5040073
vn 0 1 0
vn 0.8155012 0.5145348 0.2649751
vn 0 1 0
vn 0.8574689 0.5145358 0
vn 0 1 0
vn 0.8154987 0.5145378 -0.264977
vn 0.7554799 0.6074486 -0.2454716
vn 0 1 0
vn 0.6426447 0.6074509 -0.4669167
vn 0 1 0
vn 0.4669161 0.6074432 -0.6426525
vn 0 1 0
vn 0.2454808 0.6074452 -0.7554796
vn 0 1 0
vn 0 0.6074504 -0.7943577
vn 0 1 0
vn -0.2454817 0.6074448 -0.7554796
vn 0 1 0
vn -0.466916 0.6074432 -0.6426525
vn 0 1 0
vn -0.6426448 0.6074509 -0.4669166
vn 0 1 0
vn -0.7554811 0.607448 -0.2454692
vn 0 1 0
vn -0.7943615 0.6074454 0
vn 0 1 0
vn -0.7554805 0.607449 0.2454688
vn 0 1 0
vn -0.6426477 0.6074495 0.4669145
vn 0 1 0
vn -0.4669164 0.6074432 0.6426523
vn 0 1 0
vn -0.2454701 0.6074467 0.755482
vn 0 1 0
vn 0 0.6074484 0.794359
vn 0 1 0
vn 0.2454698 0.6074451 0.7554833
vn 0 1 0
vn 0.4669162 0.6074432 0.6426523
vn 0 1 0
vn 0.6426483 0.6074484 0.4669148
vn 0 1 0
vn 0.7554799 0.6074486 0.2454716
vn 0 1 0
vn 0.794363 0.6074433 0
vn 0 1 0
vn 0.7554799 0.6074486 -0.2454716
g Map_Tree_City_B_0
f 3/3/3 2/2/2 1/1/1
f 5/5/5 4/4/4 3/3/3
f 7/7/7 6/6/6 5/5/5
f 9/9/9 8/8/8 7/7/7
f 11/11/11 10/10/10 9/9/9
f 13/13/13 12/12/12 11/11/11
f 15/15/15 14/14/14 13/13/13
f 17/17/17 16/16/16 15/15/15
f 19/19/19 18/18/18 17/17/17
f 21/21/21 20/20/20 19/19/19
f 23/23/23 22/22/22 21/21/21
f 25/25/25 24/24/24 23/23/23
f 27/27/27 26/26/26 25/25/25
f 29/29/29 28/28/28 27/27/27
f 31/31/31 30/30/30 29/29/29
f 33/33/33 32/32/32 31/31/31
f 35/35/35 34/34/34 33/33/33
f 37/37/37 36/36/36 35/35/35
f 39/39/39 38/38/38 37/37/37
f 41/41/41 40/40/40 39/39/39
f 44/44/44 43/43/43 42/42/42
f 46/46/46 45/45/45 44/44/44
f 48/48/48 47/47/47 46/46/46
f 50/50/50 49/49/49 48/48/48
f 52/52/52 51/51/51 50/50/50
f 54/54/54 53/53/53 52/52/52
f 56/56/56 55/55/55 54/54/54
f 58/58/58 57/57/57 56/56/56
f 60/60/60 59/59/59 58/58/58
f 62/62/62 61/61/61 60/60/60
f 64/64/64 63/63/63 62/62/62
f 66/66/66 65/65/65 64/64/64
f 68/68/68 67/67/67 66/66/66
f 70/70/70 69/69/69 68/68/68
f 72/72/72 71/71/71 70/70/70
f 74/74/74 73/73/73 72/72/72
f 76/76/76 75/75/75 74/74/74
f 78/78/78 77/77/77 76/76/76
f 80/80/80 79/79/79 78/78/78
f 82/82/82 81/81/81 80/80/80
f 85/85/85 84/84/84 83/83/83
f 87/87/87 86/86/86 85/85/85
f 89/89/89 88/88/88 87/87/87
f 91/91/91 90/90/90 89/89/89
f 93/93/93 92/92/92 91/91/91
f 95/95/95 94/94/94 93/93/93
f 97/97/97 96/96/96 95/95/95
f 99/99/99 98/98/98 97/97/97
f 101/101/101 100/100/100 99/99/99
f 103/103/103 102/102/102 101/101/101
f 105/105/105 104/104/104 103/103/103
f 107/107/107 106/106/106 105/105/105
f 109/109/109 108/108/108 107/107/107
f 111/111/111 110/110/110 109/109/109
f 113/113/113 112/112/112 111/111/111
f 115/115/115 114/114/114 113/113/113
f 117/117/117 116/116/116 115/115/115
f 119/119/119 118/118/118 117/117/117
f 121/121/121 120/120/120 119/119/119
f 123/123/123 122/122/122 121/121/121
