g m_dlc07_map_plank_01
v -0.3834282 -0.03875585 -1.654511
v -0.3088289 0.03744319 -1.629942
v -0.3261397 0.1429864 0.2171813
v -0.400739 0.07008194 0.2502703
v -0.08837962 0.1429864 0.2171813
v -0.35387 0.07284486 0.2986242
v -0.35387 -0.03900145 0.305015
v -0.400739 -0.04176435 0.2566611
v -0.06064937 0.07284486 0.2986242
v -0.06064937 -0.03900145 0.305015
v -0.01378032 -0.04176435 0.2566611
v -0.01378032 0.07008194 0.2502703
v -0.0344477 -0.03875585 -1.654511
v -0.109047 0.03744319 -1.629942
v -0.08131675 -0.04088756 -1.691819
v -0.3365592 -0.04088756 -1.691819
v -0.3834282 -0.1506021 -1.648121
v -0.3365592 -0.1527339 -1.685428
v -0.08131675 -0.1527339 -1.685428
v -0.0344477 -0.1506021 -1.648121
v -0.02672954 -0.03337295 2.388345
v -0.1013289 0.04268568 2.363345
v -0.05758128 0.137763 0.515653
v 0.01701804 0.06467223 0.4829775
v -0.3182232 0.137763 0.515653
v -0.02985101 0.06716117 0.4346087
v -0.02985101 -0.04471954 0.4288516
v 0.01701804 -0.04720847 0.4772204
v -0.3459535 0.06716117 0.4346087
v -0.3459535 -0.04471954 0.4288516
v -0.3928224 -0.04720847 0.4772204
v -0.3928224 0.06467223 0.4829775
v -0.37571 -0.03337295 2.388345
v -0.3011107 0.04268568 2.363345
v -0.328841 -0.03529327 2.425664
v -0.07359859 -0.03529327 2.425664
v -0.02672954 -0.1452537 2.382588
v -0.07359859 -0.147174 2.419907
v -0.328841 -0.147174 2.419907
v -0.37571 -0.1452537 2.382588
v -0.01666566 -0.03875585 -2.276955
v 0.05793365 0.03744319 -2.252386
v 0.04183764 0.1429864 -0.4052623
v -0.03276168 0.07008194 -0.3721733
v 0.2765054 0.1429864 -0.4052623
v 0.01410738 0.07284486 -0.3238193
v 0.01410738 -0.03900145 -0.3174286
v -0.03276168 -0.04176435 -0.3657825
v 0.3042356 0.07284486 -0.3238193
v 0.3042356 -0.03900145 -0.3174286
v 0.3511047 -0.04176435 -0.3657825
v 0.3511047 0.07008194 -0.3721733
v 0.3323148 -0.03875585 -2.276955
v 0.2577155 0.03744319 -2.252386
v 0.2854458 -0.04088756 -2.314262
v 0.03020339 -0.04088756 -2.314262
v -0.01666566 -0.1506021 -2.270564
v 0.03020339 -0.1527339 -2.307872
v 0.2854458 -0.1527339 -2.307872
v 0.3323148 -0.1506021 -2.270564
v 0.3527454 -0.03342092 1.881038
v 0.278146 0.04362107 1.859255
v 0.2686055 0.2227479 0.02408502
v 0.3527454 0.1446032 -0.01852716
v 0.07836416 0.04362107 1.859255
v 0.0506339 -0.03690774 1.918243
v 0.3058763 -0.03690774 1.918243
v 0.3527454 -0.1449609 1.870584
v 0.3058763 -0.1484477 1.907789
v 0.05379906 0.2162564 0.01719066
v 0.1371273 0.1491225 -0.06674867
v 0.02606879 0.1491225 -0.06674868
v 0.003764887 -0.03342092 1.881038
v -0.0208002 0.1446032 -0.01852716
v -0.0208002 0.03306326 -0.02898056
v 0.02606879 0.0375825 -0.07720208
v 0.0506339 -0.1484477 1.907789
v 0.003764887 -0.1449609 1.870584
v 0.1222857 0.0375825 -0.07720209
v 0.3527454 0.03306326 -0.02898056
v 0.2302113 0.1491225 -0.02273471
v 0.2090091 0.07753187 -0.03318812
v 0.2534461 0.1491225 -0.06674867
v 0.3058763 0.1491225 -0.06674868
v 0.3058763 0.0375825 -0.07720208
v 0.2386046 0.0375825 -0.07720209
v -0.72588 0.002440348 -0.6001843
v -0.6512808 0.07711372 -0.5713081
v -0.6512808 0.07711372 1.278828
v -0.72588 0.002440348 1.307704
v -0.4227439 0.07711372 1.278828
v -0.4237686 0.002440348 1.356137
v -0.679011 0.002440348 1.356137
v -0.679011 -0.1095884 1.356137
v -0.72588 -0.1095884 1.307704
v -0.4237686 -0.1095884 1.356137
v -0.3768996 -0.1095884 1.307704
v -0.3481447 0.002440348 1.307704
v -0.4227439 0.07711372 -0.5713081
v -0.3481447 0.002440348 -0.6001843
v -0.4237686 0.002440348 -0.6375524
v -0.679011 0.002440348 -0.6375524
v -0.72588 -0.1095884 -0.6001843
v -0.679011 -0.1095884 -0.6375524
v -0.3768996 -0.1095884 -0.6001843
v -0.4237686 -0.1095884 -0.6375524
v 0.3212295 0.002440348 -1.258438
v 0.3958288 0.07711372 -1.229562
v 0.3958288 0.07711372 0.6205746
v 0.3212295 0.002440348 0.6494507
v 0.6139788 0.07711372 0.6205746
v 0.3864667 0.002440348 0.6978835
v 0.3395976 -0.1095884 0.6494507
v 0.3864667 -0.1095884 0.6978835
v 0.6417091 0.002440348 0.6978835
v 0.6417091 -0.1095884 0.6978835
v 0.6885782 -0.1095884 0.6494507
v 0.6885782 0.002440348 0.6494507
v 0.6139788 0.07711372 -1.229562
v 0.6885782 0.002440348 -1.258438
v 0.3864667 0.002440348 -1.295806
v 0.3395976 -0.1095884 -1.258438
v 0.3864667 -0.1095884 -1.295806
v 0.6417091 0.002440348 -1.295806
v 0.6417091 -0.1095884 -1.295806
v 0.6885782 -0.1095884 -1.258438
v -0.4549991 0.0260873 -0.5789645
v 0.3654965 0.0260873 -0.5789645
v 0.3654965 0.0260873 0.6369327
v -0.4549991 0.0260873 0.6369327
vt 0.4584961 0.01338196
vt 0.4538574 0.0152359
vt 0.456543 0.1002197
vt 0.4611816 0.1017456
vt 0.4460449 0.1003418
vt 0.4592285 0.1038818
vt 0.4611816 0.1070557
vt 0.4660645 0.1022339
vt 0.4438477 0.1040039
vt 0.4414063 0.1079102
vt 0.4367676 0.1029053
vt 0.4414063 0.1021729
vt 0.4404297 0.01387024
vt 0.4450684 0.01542664
vt 0.4423828 0.01224518
vt 0.4562988 0.01174164
vt 0.4631348 0.01263428
vt 0.4584961 0.008506775
vt 0.4401855 0.008804321
vt 0.4355469 0.013237
vt 0.4602051 0.1203003
vt 0.4558105 0.1220093
vt 0.4572754 0.2061768
vt 0.4619141 0.2078857
vt 0.4458008 0.2060547
vt 0.4599609 0.2099609
vt 0.4619141 0.2131348
vt 0.4667969 0.208374
vt 0.4436035 0.2097168
vt 0.4411621 0.213501
vt 0.4365234 0.208374
vt 0.4414063 0.2077637
vt 0.442627 0.1203003
vt 0.4470215 0.1219482
vt 0.4445801 0.1187744
vt 0.458252 0.1185913
vt 0.4650879 0.1196289
vt 0.4604492 0.1154785
vt 0.4423828 0.1152954
vt 0.4377441 0.1195679
vt 0.3947754 0.1672363
vt 0.3911133 0.1685791
vt 0.3913574 0.2358398
vt 0.3950195 0.2371826
vt 0.3833008 0.2357178
vt 0.3933105 0.2387695
vt 0.3950195 0.241333
vt 0.3989258 0.2376709
vt 0.3813477 0.2385254
vt 0.3793945 0.2415771
vt 0.3757324 0.2375488
vt 0.3796387 0.2370605
vt 0.3806152 0.1672363
vt 0.3842773 0.1685791
vt 0.3820801 0.1660156
vt 0.3930664 0.1658936
vt 0.3984375 0.166748
vt 0.3947754 0.1633301
vt 0.3803711 0.163208
vt 0.376709 0.166626
vt 0.340332 0.2196045
vt 0.3430176 0.2185059
vt 0.3422852 0.1689453
vt 0.3393555 0.1679688
vt 0.3481445 0.2183838
vt 0.3496094 0.2203369
vt 0.3415527 0.2205811
vt 0.3376465 0.2199707
vt 0.340332 0.2224121
vt 0.3479004 0.1687012
vt 0.3461914 0.1658936
vt 0.3493652 0.166626
vt 0.3508301 0.2193604
vt 0.3505859 0.1677246
vt 0.3535156 0.1674805
vt 0.3515625 0.1651611
vt 0.3510742 0.22229
vt 0.3537598 0.2197266
vt 0.3479004 0.1633301
vt 0.3364258 0.1677246
vt 0.3432617 0.1665039
vt 0.3432617 0.1643066
vt 0.3417969 0.1661377
vt 0.340332 0.166748
vt 0.3383789 0.1654053
vt 0.3405762 0.1639404
vt 0.2646484 0.1856689
vt 0.2658691 0.1887207
vt 0.3225098 0.1890869
vt 0.3237305 0.1860352
vt 0.3222656 0.1956787
vt 0.3249512 0.1968994
vt 0.3249512 0.1875
vt 0.3271484 0.1862793
vt 0.3239746 0.1828613
vt 0.3271484 0.1984863
vt 0.3239746 0.2020264
vt 0.3234863 0.1987305
vt 0.2658691 0.1953125
vt 0.2648926 0.1982422
vt 0.2634277 0.1965332
vt 0.2636719 0.1871338
vt 0.2644043 0.1824951
vt 0.2614746 0.1856689
vt 0.2641602 0.2015381
vt 0.2612305 0.1981201
vt 0.4848633 0.0111618
vt 0.4824219 0.01207733
vt 0.4831543 0.05792236
vt 0.4855957 0.05877686
vt 0.4780273 0.05801392
vt 0.4841309 0.06008911
vt 0.4882813 0.05911255
vt 0.4853516 0.06167603
vt 0.4768066 0.05984497
vt 0.4755859 0.06192017
vt 0.4729004 0.05932617
vt 0.4755859 0.05895996
vt 0.4772949 0.01212311
vt 0.4748535 0.01126099
vt 0.4836426 0.0100708
vt 0.4875488 0.01074982
vt 0.4848633 0.008506775
vt 0.4760742 0.01039124
vt 0.4748535 0.008537292
vt 0.4724121 0.01091766
vt 0.480957 0.1456299
vt 0.4885254 0.1452637
vt 0.4880371 0.1339111
vt 0.4804688 0.1342773
vn -0.942741 0.3303597 -0.04584792
vn 0 0.9983742 -0.05699853
vn 0 0.9983742 -0.05699853
vn -0.9437958 0.3304183 -0.008563839
vn 0 0.9983742 -0.05699853
vn -0.1147571 0.3744183 0.9201313
vn -0.1409892 0.05647658 0.9883989
vn -0.9998859 0.00086187 0.01508278
vn 0.1147571 0.3744183 0.9201313
vn 0.1409892 0.0564766 0.9883989
vn 0.9999104 0.0007639728 0.01337033
vn 0.9438733 0.330151 -0.01017941
vn 0.9426349 0.3304305 -0.04748696
vn 0 0.9983742 -0.05699853
vn 0.1045881 0.2212073 -0.9696023
vn -0.1045881 0.2212073 -0.9696023
vn -0.9994562 -0.001881051 -0.03292135
vn -0.1227547 -0.05661495 -0.9908208
vn 0.1227547 -0.05661498 -0.9908208
vn 0.9993979 -0.001979376 -0.03464111
vn 0.9418385 0.3312192 0.05686812
vn 0 0.9986781 0.05139888
vn 0 0.9986781 0.05139888
vn 0.9443381 0.3284022 0.01943267
vn 0 0.9986781 0.05139888
vn 0.1071531 0.3711385 -0.9223743
vn 0.1322618 0.05093835 -0.9899051
vn 0.9999988 8.202943E-05 -0.001593475
vn -0.1071531 0.3711386 -0.9223743
vn -0.1322618 0.05093832 -0.9899051
vn -0.9998844 0.0007813103 -0.0151886
vn -0.9437913 0.3304763 0.00659629
vn -0.9427473 0.3306088 0.04387875
vn 0 0.9986781 0.05139888
vn -0.1045881 0.2266969 0.9683335
vn 0.1045881 0.2266969 0.9683335
vn 0.9989167 -0.002391249 0.04647148
vn 0.1227551 -0.05100099 0.9911256
vn -0.1227551 -0.05100102 0.9911256
vn -0.9994596 -0.00168958 0.03282985
vn -0.9427786 0.3303339 -0.04525464
vn 0 0.9983742 -0.05699853
vn 0 0.9983742 -0.05699853
vn -0.9437671 0.3305148 -0.007979199
vn 0 0.9983742 -0.05699853
vn -0.1158679 0.3741327 0.9201084
vn -0.1422572 0.05646484 0.9882179
vn -0.9998763 0.0008972085 0.0157025
vn 0.1158679 0.3741327 0.9201084
vn 0.1422572 0.05646488 0.9882179
vn 0.999897 0.0008187304 0.01432821
vn 0.9438302 0.3303007 -0.009275709
vn 0.9426944 0.3303912 -0.04657022
vn 0 0.9983742 -0.05699853
vn 0.1045878 0.2212074 -0.9696023
vn -0.1045878 0.2212075 -0.9696023
vn -0.9994766 -0.001845544 -0.03229883
vn -0.1227545 -0.05661384 -0.9908209
vn 0.1227545 -0.05661384 -0.9908209
vn 0.9994308 -0.001924371 -0.03367912
vn 0.9385427 0.3415228 0.04999896
vn -0.01719984 0.9952905 0.09539909
vn -0.01719984 0.9952905 0.09539909
vn 0.9397007 0.3417556 0.01287947
vn -0.01719984 0.9952905 0.09539909
vn -0.104588 0.1858059 0.9770043
vn 0.1045879 0.1858059 0.9770045
vn 0.9997098 -0.00224772 0.02398202
vn 0.1227549 -0.09260488 0.9881071
vn -0.01719984 0.9952905 0.09539909
vn 0.1044274 0.5202117 -0.8476288
vn -0.2141701 0.4780706 -0.8518096
vn -0.9425088 0.3284971 0.06137441
vn -0.9439601 0.3291828 0.02404075
vn -0.999935 0.001063764 -0.01135048
vn -0.3063283 0.08882426 -0.9477728
vn -0.1227551 -0.09260488 0.9881071
vn -0.9993265 -0.003424221 0.03653739
vn 0.1390816 0.07105253 -0.9877286
vn 0.9997131 0.002234701 -0.02384641
vn -0.02721178 0.299536 -0.9536968
vn 0.02237884 0.1090492 -0.9937844
vn -0.3418674 0.3378299 -0.8769251
vn 0.40764 0.3187322 -0.8557099
vn 0.4132634 0.0849693 -0.9066387
vn -0.2771255 0.1476423 -0.9494226
vn -0.9432478 0.3315741 -0.01850301
vn 0 1 0
vn 0 1 0
vn -0.9433564 0.3312544 0.01869172
vn 0 1 0
vn 0.1133727 0.3395819 0.9337188
vn -0.1272849 0.3279469 0.9360819
vn -0.1582928 0 0.9873922
vn -0.9997131 0 0.02395087
vn 0.1512418 -0.01940996 0.9883062
vn 0.9688713 -0.245275 0.03359583
vn 0.9826493 0.1840081 0.02326964
vn 0 1 0
vn 0.9826538 0.1840395 -0.0228218
vn 0.09019706 0.2988972 -0.9500132
vn -0.102471 0.2854915 -0.9528874
vn -0.9997098 0 -0.02408702
vn -0.1227546 0 -0.9924371
vn 0.9686771 -0.2459555 -0.03421553
vn 0.1172433 -0.01504667 -0.9929892
vn -0.970687 0.239386 -0.02147332
vn 0 1 0
vn 0 1 0
vn -0.9707145 0.2392407 0.02184527
vn 0 1 0
vn -0.1193051 0.3318341 0.935763
vn -0.9867121 -0.1596385 0.03024724
vn -0.1537227 -0.0126021 0.9880336
vn 0.1282734 0.324184 0.9372569
vn 0.158293 0 0.9873921
vn 0.9997131 0 0.02395087
vn 0.9433564 0.3312544 0.0186917
vn 0 1 0
vn 0.9432478 0.3315739 -0.018503
vn -0.09528542 0.2909896 -0.9519694
vn -0.9866256 -0.1600902 -0.0306782
vn -0.119179 -0.009770275 -0.9928248
vn 0.1032264 0.282167 -0.9537957
vn 0.1227541 0 -0.9924372
vn 0.9997098 0 -0.02408703
vn 0 1 0
vn 0 1 0
vn 0 1 0
vn 0 1 0
g m_dlc07_map_plank_01_0
f 3/3/3 2/2/2 1/1/1
f 4/4/4 3/3/3 1/1/1
f 3/3/3 5/5/5 2/2/2
f 3/3/3 6/6/6 5/5/5
f 6/6/6 3/3/3 4/4/4
f 6/6/6 4/4/4 7/7/7
f 4/4/4 8/8/8 7/7/7
f 6/6/6 9/9/9 5/5/5
f 6/6/6 7/7/7 9/9/9
f 7/7/7 10/10/10 9/9/9
f 9/9/9 10/10/10 11/11/11
f 12/12/12 9/9/9 11/11/11
f 9/9/9 12/12/12 5/5/5
f 12/12/12 13/13/13 5/5/5
f 12/12/12 11/11/11 13/13/13
f 13/13/13 14/14/14 5/5/5
f 5/5/5 14/14/14 2/2/2
f 2/2/2 14/14/14 15/15/15
f 14/14/14 13/13/13 15/15/15
f 16/16/16 2/2/2 15/15/15
f 2/2/2 16/16/16 1/1/1
f 1/1/1 16/16/16 17/17/17
f 17/17/17 8/8/8 4/4/4
f 1/1/1 17/17/17 4/4/4
f 16/16/16 18/18/18 17/17/17
f 16/16/16 15/15/15 18/18/18
f 15/15/15 13/13/13 19/19/19
f 15/15/15 19/19/19 18/18/18
f 13/13/13 20/20/20 19/19/19
f 11/11/11 20/20/20 13/13/13
f 23/23/23 22/22/22 21/21/21
f 24/24/24 23/23/23 21/21/21
f 23/23/23 25/25/25 22/22/22
f 23/23/23 26/26/26 25/25/25
f 26/26/26 23/23/23 24/24/24
f 26/26/26 24/24/24 27/27/27
f 24/24/24 28/28/28 27/27/27
f 26/26/26 29/29/29 25/25/25
f 26/26/26 27/27/27 29/29/29
f 27/27/27 30/30/30 29/29/29
f 29/29/29 30/30/30 31/31/31
f 32/32/32 29/29/29 31/31/31
f 29/29/29 32/32/32 25/25/25
f 32/32/32 33/33/33 25/25/25
f 32/32/32 31/31/31 33/33/33
f 33/33/33 34/34/34 25/25/25
f 25/25/25 34/34/34 22/22/22
f 22/22/22 34/34/34 35/35/35
f 34/34/34 33/33/33 35/35/35
f 36/36/36 22/22/22 35/35/35
f 22/22/22 36/36/36 21/21/21
f 21/21/21 36/36/36 37/37/37
f 37/37/37 28/28/28 24/24/24
f 21/21/21 37/37/37 24/24/24
f 36/36/36 38/38/38 37/37/37
f 36/36/36 35/35/35 38/38/38
f 35/35/35 33/33/33 39/39/39
f 35/35/35 39/39/39 38/38/38
f 33/33/33 40/40/40 39/39/39
f 31/31/31 40/40/40 33/33/33
f 43/43/43 42/42/42 41/41/41
f 44/44/44 43/43/43 41/41/41
f 43/43/43 45/45/45 42/42/42
f 43/43/43 46/46/46 45/45/45
f 46/46/46 43/43/43 44/44/44
f 46/46/46 44/44/44 47/47/47
f 44/44/44 48/48/48 47/47/47
f 46/46/46 49/49/49 45/45/45
f 46/46/46 47/47/47 49/49/49
f 47/47/47 50/50/50 49/49/49
f 49/49/49 50/50/50 51/51/51
f 52/52/52 49/49/49 51/51/51
f 49/49/49 52/52/52 45/45/45
f 52/52/52 53/53/53 45/45/45
f 52/52/52 51/51/51 53/53/53
f 53/53/53 54/54/54 45/45/45
f 45/45/45 54/54/54 42/42/42
f 42/42/42 54/54/54 55/55/55
f 54/54/54 53/53/53 55/55/55
f 56/56/56 42/42/42 55/55/55
f 42/42/42 56/56/56 41/41/41
f 41/41/41 56/56/56 57/57/57
f 57/57/57 48/48/48 44/44/44
f 41/41/41 57/57/57 44/44/44
f 56/56/56 58/58/58 57/57/57
f 56/56/56 55/55/55 58/58/58
f 55/55/55 53/53/53 59/59/59
f 55/55/55 59/59/59 58/58/58
f 53/53/53 60/60/60 59/59/59
f 51/51/51 60/60/60 53/53/53
f 63/63/63 62/62/62 61/61/61
f 64/64/64 63/63/63 61/61/61
f 65/65/65 62/62/62 63/63/63
f 62/62/62 65/65/65 66/66/66
f 67/67/67 62/62/62 66/66/66
f 62/62/62 67/67/67 61/61/61
f 61/61/61 67/67/67 68/68/68
f 61/61/61 68/68/68 64/64/64
f 67/67/67 69/69/69 68/68/68
f 67/67/67 66/66/66 69/69/69
f 70/70/70 65/65/65 63/63/63
f 63/63/63 71/71/71 70/70/70
f 71/71/71 72/72/72 70/70/70
f 73/73/73 65/65/65 70/70/70
f 65/65/65 73/73/73 66/66/66
f 74/74/74 73/73/73 70/70/70
f 72/72/72 74/74/74 70/70/70
f 74/74/74 72/72/72 75/75/75
f 74/74/74 75/75/75 73/73/73
f 72/72/72 76/76/76 75/75/75
f 66/66/66 73/73/73 77/77/77
f 66/66/66 77/77/77 69/69/69
f 73/73/73 78/78/78 77/77/77
f 75/75/75 78/78/78 73/73/73
f 79/79/79 76/76/76 72/72/72
f 71/71/71 79/79/79 72/72/72
f 68/68/68 80/80/80 64/64/64
f 71/71/71 81/81/81 79/79/79
f 81/81/81 71/71/71 63/63/63
f 81/81/81 82/82/82 79/79/79
f 81/81/81 83/83/83 82/82/82
f 63/63/63 83/83/83 81/81/81
f 63/63/63 84/84/84 83/83/83
f 84/84/84 63/63/63 64/64/64
f 64/64/64 80/80/80 85/85/85
f 84/84/84 64/64/64 85/85/85
f 84/84/84 85/85/85 86/86/86
f 83/83/83 84/84/84 86/86/86
f 83/83/83 86/86/86 82/82/82
f 89/89/89 88/88/88 87/87/87
f 90/90/90 89/89/89 87/87/87
f 89/89/89 91/91/91 88/88/88
f 92/92/92 91/91/91 89/89/89
f 93/93/93 92/92/92 89/89/89
f 93/93/93 89/89/89 90/90/90
f 93/93/93 90/90/90 94/94/94
f 93/93/93 94/94/94 92/92/92
f 90/90/90 95/95/95 94/94/94
f 94/94/94 96/96/96 92/92/92
f 92/92/92 96/96/96 97/97/97
f 98/98/98 92/92/92 97/97/97
f 92/92/92 98/98/98 91/91/91
f 91/91/91 98/98/98 99/99/99
f 91/91/91 99/99/99 88/88/88
f 98/98/98 100/100/100 99/99/99
f 98/98/98 97/97/97 100/100/100
f 88/88/88 99/99/99 101/101/101
f 99/99/99 100/100/100 101/101/101
f 102/102/102 88/88/88 101/101/101
f 88/88/88 102/102/102 87/87/87
f 87/87/87 102/102/102 103/103/103
f 103/103/103 95/95/95 90/90/90
f 87/87/87 103/103/103 90/90/90
f 102/102/102 104/104/104 103/103/103
f 102/102/102 101/101/101 104/104/104
f 100/100/100 105/105/105 101/101/101
f 97/97/97 105/105/105 100/100/100
f 105/105/105 106/106/106 101/101/101
f 101/101/101 106/106/106 104/104/104
f 109/109/109 108/108/108 107/107/107
f 110/110/110 109/109/109 107/107/107
f 109/109/109 111/111/111 108/108/108
f 109/109/109 112/112/112 111/111/111
f 112/112/112 109/109/109 110/110/110
f 110/110/110 113/113/113 112/112/112
f 113/113/113 114/114/114 112/112/112
f 112/112/112 115/115/115 111/111/111
f 112/112/112 114/114/114 115/115/115
f 114/114/114 116/116/116 115/115/115
f 115/115/115 116/116/116 117/117/117
f 118/118/118 115/115/115 117/117/117
f 115/115/115 118/118/118 111/111/111
f 111/111/111 118/118/118 119/119/119
f 111/111/111 119/119/119 108/108/108
f 118/118/118 120/120/120 119/119/119
f 118/118/118 117/117/117 120/120/120
f 108/108/108 119/119/119 121/121/121
f 108/108/108 121/121/121 107/107/107
f 107/107/107 121/121/121 122/122/122
f 122/122/122 113/113/113 110/110/110
f 107/107/107 122/122/122 110/110/110
f 121/121/121 123/123/123 122/122/122
f 119/119/119 124/124/124 121/121/121
f 121/121/121 124/124/124 123/123/123
f 119/119/119 120/120/120 124/124/124
f 124/124/124 120/120/120 125/125/125
f 124/124/124 125/125/125 123/123/123
f 120/120/120 126/126/126 125/125/125
f 117/117/117 126/126/126 120/120/120
f 129/129/129 128/128/128 127/127/127
f 130/130/130 129/129/129 127/127/127
