g m_dlc08_map_rope_03
v 0.09690712 0.008758739 0.1015748
v 0.1246106 0.01649552 0.1334924
v 0.03190986 -0.01456436 0.1799716
v 0.02516857 -0.01527759 0.1375438
v 0.1300796 0.04254788 0.03246759
v 0.1674761 0.0601579 0.0441918
v 0.1120151 0.07318341 -0.04338144
v 0.1441332 0.09974521 -0.05382044
v 0.04961385 0.08896369 -0.09700044
v 0.06349811 0.1201365 -0.123107
v -0.03328913 0.08386112 -0.1079088
v -0.04362934 0.113543 -0.1372028
v -0.1050277 0.05982476 -0.07193983
v -0.1363301 0.08248317 -0.09072363
v -0.1382001 0.02603565 -0.002832546
v -0.1791956 0.03882077 -0.001423016
v -0.1201357 -0.004599873 0.07301645
v -0.1558527 -0.0007665603 0.09658926
v -0.05773441 -0.02038013 0.1266354
v -0.07521759 -0.02115787 0.1658758
v 0.02516857 -0.01527759 0.1375438
v 0.03190986 -0.01456436 0.1799716
v 0.180646 0.09728817 -0.07739446
v 0.209411 0.04850567 0.04338365
v 0.08128136 0.1224159 -0.1627747
v -0.05072921 0.1142908 -0.1801445
v -0.1649621 0.07601651 -0.1228694
v -0.2177842 0.02221241 -0.01282637
v -0.1890194 -0.02657009 0.1079518
v -0.08965467 -0.0516978 0.193332
v 0.04235593 -0.04357276 0.2107019
v 0.2303849 0.01417984 0.03031389
v 0.1734113 -0.04385288 0.1490056
v 0.1565888 -0.005298421 0.1534268
v 0.04235593 -0.04357276 0.2107019
v 0.05020051 -0.0851353 0.2107821
v 0.09218523 0.09389892 -0.1920471
v 0.1993593 0.06679638 -0.09995665
v -0.1993593 -0.06679633 0.09995661
v -0.2303849 -0.01417984 -0.03031389
v -0.1734113 0.04385288 -0.1490055
v -0.0502005 0.0851353 -0.2107821
v 0.1890194 0.02657009 -0.1079518
v 0.2177842 -0.02221241 0.01282633
v 0.1649621 -0.07601649 0.1228694
v 0.05072923 -0.1142908 0.1801445
v -0.0423559 0.04357277 -0.2107019
v 0.08965469 0.05169781 -0.193332
v -0.1565888 0.005298427 -0.1534267
v -0.2094109 -0.04850566 -0.04338373
v -0.180646 -0.09728817 0.07739443
v -0.09218523 -0.09389892 0.1920471
v 0.05020051 -0.0851353 0.2107821
v -0.08128133 -0.1224159 0.1627746
v 0.05072923 -0.1142908 0.1801445
v 0.07521758 0.02115788 -0.1658758
v 0.1558527 0.0007665665 -0.09658926
v 0.1791956 -0.03882076 0.001423015
v 0.1363301 -0.08248314 0.09072363
v 0.04362936 -0.113543 0.1372028
v -0.1441332 -0.09974521 0.05382044
v -0.1674761 -0.06015788 -0.04419184
v -0.1246106 -0.01649555 -0.1334925
v -0.03190985 0.01456433 -0.1799716
v 0.03328914 -0.08386112 0.1079088
v 0.1050277 -0.05982475 0.07193979
v 0.1382001 -0.02603561 0.002832508
v 0.1201357 0.004599917 -0.07301649
v 0.05773441 0.02038017 -0.1266354
v -0.02516857 0.01527764 -0.1375438
v -0.09690711 -0.008758732 -0.1015748
v -0.1300796 -0.04254783 -0.03246756
v -0.1120151 -0.07318339 0.04338144
v -0.06349812 -0.1201365 0.123107
v 0.04362936 -0.113543 0.1372028
v -0.04961386 -0.08896366 0.09700041
v 0.03328914 -0.08386112 0.1079088
v 0.09690712 0.008758739 0.1015748
v 0.02516857 -0.01527759 0.1375438
v 0.03328914 -0.08386112 0.1079088
v 0.1050277 -0.05982475 0.07193979
v 0.1300796 0.04254788 0.03246759
v 0.1382001 -0.02603561 0.002832508
v 0.1120151 0.07318341 -0.04338144
v 0.1201357 0.004599917 -0.07301649
v 0.04961385 0.08896369 -0.09700044
v 0.05773441 0.02038017 -0.1266354
v -0.03328913 0.08386112 -0.1079088
v -0.02516857 0.01527764 -0.1375438
v -0.1050277 0.05982476 -0.07193983
v -0.09690711 -0.008758732 -0.1015748
v -0.1382001 0.02603565 -0.002832546
v -0.1300796 -0.04254783 -0.03246756
v -0.1201357 -0.004599873 0.07301645
v -0.1120151 -0.07318339 0.04338144
v -0.05773441 -0.02038013 0.1266354
v -0.04961386 -0.08896366 0.09700041
v 0.02516857 -0.01527759 0.1375438
v 0.03328914 -0.08386112 0.1079088
vt 0.006721497 -1.045898
vt 0.1694336 -1.047852
vt 0.1688232 -1.420898
vt 0.006057739 -1.418945
vt 0.007381439 -0.6728516
vt 0.170166 -0.6748047
vt 0.008033752 -0.2995605
vt 0.1707764 -0.302002
vt 0.008705139 0.07330322
vt 0.1715088 0.07092285
vt 0.009361267 0.4462891
vt 0.1721191 0.4438477
vt 0.01002502 0.8193359
vt 0.1727295 0.8168945
vt 0.01068878 1.192383
vt 0.1734619 1.189453
vt 0.01135254 1.56543
vt 0.1740723 1.5625
vt 0.01200867 1.938477
vt 0.1748047 1.935547
vt 0.01268005 2.310547
vt 0.175415 2.308594
vt 0.3334961 -0.3044434
vt 0.3327637 -0.6772461
vt 0.3342285 0.06854248
vt 0.3349609 0.4414063
vt 0.3354492 0.8144531
vt 0.3361816 1.1875
vt 0.3369141 1.560547
vt 0.3374023 1.933594
vt 0.3381348 2.306641
vt 0.4956055 -0.6796875
vt 0.494873 -1.052734
vt 0.3322754 -1.050781
vt 0.331543 -1.422852
vt 0.4943848 -1.425781
vt 0.4970703 0.06616211
vt 0.4963379 -0.3068848
vt 0.4995117 1.557617
vt 0.4990234 1.18457
vt 0.498291 0.8120117
vt 0.4975586 0.439209
vt 0.6591797 -0.309082
vt 0.6582031 -0.6821289
vt 0.6577148 -1.054688
vt 0.6572266 -1.427734
vt 0.6601563 0.4367676
vt 0.659668 0.06378174
vt 0.6611328 0.8095703
vt 0.6616211 1.182617
vt 0.6625977 1.555664
vt 0.5004883 1.930664
vt 0.5009766 2.304688
vt 0.6630859 1.928711
vt 0.6635742 2.300781
vt 0.8222656 0.06143188
vt 0.8217773 -0.3115234
vt 0.8212891 -0.6845703
vt 0.8203125 -1.057617
vt 0.8198242 -1.430664
vt 0.8251953 1.553711
vt 0.8242188 1.180664
vt 0.8237305 0.8071289
vt 0.8232422 0.4343262
vt 0.9824219 -1.432617
vt 0.9833984 -1.05957
vt 0.9838867 -0.6870117
vt 0.984375 -0.3139648
vt 0.9853516 0.05908203
vt 0.9858398 0.4321289
vt 0.9863281 0.8051758
vt 0.9873047 1.177734
vt 0.987793 1.550781
vt 0.8256836 1.925781
vt 0.8266602 2.298828
vt 0.9882813 1.923828
vt 0.9892578 2.296875
vt 0.006721497 -1.045898
vt 0.006057739 -1.418945
vt 0.9824219 -1.432617
vt 0.9833984 -1.05957
vt 0.007381439 -0.6728516
vt 0.9838867 -0.6870117
vt 0.008033752 -0.2995605
vt 0.984375 -0.3139648
vt 0.008705139 0.07330322
vt 0.9853516 0.05908203
vt 0.009361267 0.4462891
vt 0.9858398 0.4321289
vt 0.01002502 0.8193359
vt 0.9863281 0.8051758
vt 0.01068878 1.192383
vt 0.9873047 1.177734
vt 0.01135254 1.56543
vt 0.987793 1.550781
vt 0.01200867 1.938477
vt 0.9882813 1.923828
vt 0.01268005 2.310547
vt 0.9892578 2.296875
vn -0.7047945 0.6047375 -0.3708874
vn -0.03162917 0.8886629 0.457469
vn -0.08553135 0.8706025 0.4844953
vn -0.2410178 0.7601283 -0.6034198
vn -0.9192479 0.3862974 0.07587831
vn -0.006704034 0.9140511 0.4055437
vn -0.8024651 0.1882439 0.5662278
vn -0.02027713 0.9370697 0.3485532
vn -0.3990521 0.08622743 0.9128649
vn -0.06716365 0.9489264 0.3082655
vn 0.1369003 0.1192141 0.9833851
vn -0.1294546 0.9450926 0.3000692
vn 0.6006767 0.274605 0.7508527
vn -0.1833571 0.9270324 0.3270952
vn 0.8151302 0.4930454 0.3040868
vn -0.2082818 0.9016442 0.3790205
vn 0.6983471 0.6910986 -0.1862631
vn -0.1947086 0.8786256 0.4360111
vn 0.2949347 0.7931153 -0.5328994
vn -0.1478219 0.8667686 0.4762992
vn -0.2410178 0.7601283 -0.6034198
vn -0.08553135 0.8706025 0.4844953
vn 0.5666977 0.8219139 -0.05754293
vn 0.6660929 0.6533491 0.3597987
vn 0.223349 0.9087411 -0.3525691
vn -0.2328054 0.8806654 -0.4125895
vn -0.6275304 0.7484109 -0.2146783
vn -0.8100539 0.5624942 0.1655685
vn -0.7106585 0.3939292 0.5829102
vn -0.3673101 0.3071019 0.8779361
vn 0.08884436 0.3351775 0.9379567
vn 0.9896135 0.06090932 0.1302128
vn 0.7448847 -0.1883691 0.6400499
vn 0.4835692 0.4674323 0.7400459
vn 0.08884436 0.3351775 0.9379567
vn 0.215635 -0.3656971 0.90541
vn 0.3959797 0.4033407 -0.8249342
vn 0.8563432 0.2869223 -0.429362
vn -0.8563436 -0.2869225 0.4293614
vn -0.9896135 -0.06090936 -0.1302125
vn -0.7448847 0.1883692 -0.64005
vn -0.2156353 0.3656969 -0.90541
vn 0.7106588 -0.3939292 -0.5829098
vn 0.810054 -0.562494 -0.1655687
vn 0.6275303 -0.7484111 0.214678
vn 0.2328052 -0.8806657 0.412589
vn -0.08884459 -0.3351776 -0.9379566
vn 0.3673103 -0.3071023 -0.8779358
vn -0.4835696 -0.4674318 -0.740046
vn -0.6660932 -0.6533487 -0.3597989
vn -0.5666977 -0.821914 0.05754263
vn -0.3959797 -0.4033409 0.8249341
vn 0.215635 -0.3656971 0.90541
vn -0.2233491 -0.9087412 0.3525687
vn 0.2328052 -0.8806657 0.412589
vn 0.147822 -0.8667688 -0.4762987
vn 0.1947083 -0.8786256 -0.436011
vn 0.2082816 -0.9016442 -0.3790205
vn 0.1833569 -0.9270322 -0.3270955
vn 0.1294546 -0.9450924 -0.3000698
vn 0.02027757 -0.9370697 -0.3485532
vn 0.006704335 -0.914051 -0.4055438
vn 0.03162901 -0.8886628 -0.4574692
vn 0.08553126 -0.8706025 -0.4844952
vn -0.1369002 -0.1192145 -0.9833851
vn -0.6006766 -0.2746052 -0.7508525
vn -0.8151305 -0.4930454 -0.3040866
vn -0.6983472 -0.6910985 0.1862632
vn -0.2949345 -0.793115 0.5329
vn 0.241018 -0.7601279 0.6034201
vn 0.7047945 -0.6047374 0.3708873
vn 0.919248 -0.3862973 -0.07587852
vn 0.8024649 -0.1882439 -0.5662282
vn 0.06716384 -0.9489264 -0.3082658
vn 0.1294546 -0.9450924 -0.3000698
vn 0.3990524 -0.08622723 -0.9128647
vn -0.1369002 -0.1192145 -0.9833851
vn -0.7047945 0.6047375 -0.3708874
vn -0.2410178 0.7601283 -0.6034198
vn -0.1369002 -0.1192145 -0.9833851
vn -0.6006766 -0.2746052 -0.7508525
vn -0.9192479 0.3862974 0.07587831
vn -0.8151305 -0.4930454 -0.3040866
vn -0.8024651 0.1882439 0.5662278
vn -0.6983472 -0.6910985 0.1862632
vn -0.3990521 0.08622743 0.9128649
vn -0.2949345 -0.793115 0.5329
vn 0.1369003 0.1192141 0.9833851
vn 0.241018 -0.7601279 0.6034201
vn 0.6006767 0.274605 0.7508527
vn 0.7047945 -0.6047374 0.3708873
vn 0.8151302 0.4930454 0.3040868
vn 0.919248 -0.3862973 -0.07587852
vn 0.6983471 0.6910986 -0.1862631
vn 0.8024649 -0.1882439 -0.5662282
vn 0.2949347 0.7931153 -0.5328994
vn 0.3990524 -0.08622723 -0.9128647
vn -0.2410178 0.7601283 -0.6034198
vn -0.1369002 -0.1192145 -0.9833851
g m_dlc08_map_rope_03_0
f 3/3/3 2/2/2 1/1/1
f 4/4/4 3/3/3 1/1/1
f 1/1/1 2/2/2 5/5/5
f 2/2/2 6/6/6 5/5/5
f 5/5/5 6/6/6 7/7/7
f 6/6/6 8/8/8 7/7/7
f 7/7/7 8/8/8 9/9/9
f 8/8/8 10/10/10 9/9/9
f 9/9/9 10/10/10 11/11/11
f 10/10/10 12/12/12 11/11/11
f 11/11/11 12/12/12 13/13/13
f 12/12/12 14/14/14 13/13/13
f 13/13/13 14/14/14 15/15/15
f 14/14/14 16/16/16 15/15/15
f 15/15/15 16/16/16 17/17/17
f 16/16/16 18/18/18 17/17/17
f 17/17/17 18/18/18 19/19/19
f 18/18/18 20/20/20 19/19/19
f 19/19/19 20/20/20 21/21/21
f 20/20/20 22/22/22 21/21/21
f 8/8/8 23/23/23 10/10/10
f 24/24/24 23/23/23 8/8/8
f 23/23/23 25/25/25 10/10/10
f 10/10/10 25/25/25 12/12/12
f 25/25/25 26/26/26 12/12/12
f 12/12/12 26/26/26 14/14/14
f 26/26/26 27/27/27 14/14/14
f 14/14/14 27/27/27 16/16/16
f 27/27/27 28/28/28 16/16/16
f 16/16/16 28/28/28 18/18/18
f 28/28/28 29/29/29 18/18/18
f 18/18/18 29/29/29 20/20/20
f 29/29/29 30/30/30 20/20/20
f 20/20/20 30/30/30 22/22/22
f 30/30/30 31/31/31 22/22/22
f 24/24/24 32/32/32 23/23/23
f 33/33/33 32/32/32 24/24/24
f 34/34/34 33/33/33 24/24/24
f 34/34/34 24/24/24 6/6/6
f 2/2/2 34/34/34 6/6/6
f 35/35/35 34/34/34 2/2/2
f 3/3/3 35/35/35 2/2/2
f 6/6/6 24/24/24 8/8/8
f 36/36/36 33/33/33 34/34/34
f 35/35/35 36/36/36 34/34/34
f 25/25/25 37/37/37 26/26/26
f 38/38/38 37/37/37 25/25/25
f 32/32/32 38/38/38 23/23/23
f 23/23/23 38/38/38 25/25/25
f 29/29/29 39/39/39 30/30/30
f 40/40/40 39/39/39 29/29/29
f 28/28/28 40/40/40 29/29/29
f 41/41/41 40/40/40 28/28/28
f 27/27/27 41/41/41 28/28/28
f 42/42/42 41/41/41 27/27/27
f 37/37/37 42/42/42 26/26/26
f 26/26/26 42/42/42 27/27/27
f 38/38/38 43/43/43 37/37/37
f 44/44/44 43/43/43 38/38/38
f 32/32/32 44/44/44 38/38/38
f 45/45/45 44/44/44 32/32/32
f 33/33/33 45/45/45 32/32/32
f 46/46/46 45/45/45 33/33/33
f 36/36/36 46/46/46 33/33/33
f 42/42/42 47/47/47 41/41/41
f 48/48/48 47/47/47 42/42/42
f 43/43/43 48/48/48 37/37/37
f 37/37/37 48/48/48 42/42/42
f 47/47/47 49/49/49 41/41/41
f 41/41/41 49/49/49 40/40/40
f 49/49/49 50/50/50 40/40/40
f 40/40/40 50/50/50 39/39/39
f 50/50/50 51/51/51 39/39/39
f 39/39/39 51/51/51 52/52/52
f 39/39/39 52/52/52 30/30/30
f 30/30/30 52/52/52 31/31/31
f 52/52/52 53/53/53 31/31/31
f 51/51/51 54/54/54 52/52/52
f 52/52/52 54/54/54 53/53/53
f 54/54/54 55/55/55 53/53/53
f 48/48/48 56/56/56 47/47/47
f 57/57/57 56/56/56 48/48/48
f 43/43/43 57/57/57 48/48/48
f 58/58/58 57/57/57 43/43/43
f 44/44/44 58/58/58 43/43/43
f 59/59/59 58/58/58 44/44/44
f 45/45/45 59/59/59 44/44/44
f 60/60/60 59/59/59 45/45/45
f 46/46/46 60/60/60 45/45/45
f 51/51/51 61/61/61 54/54/54
f 62/62/62 61/61/61 51/51/51
f 50/50/50 62/62/62 51/51/51
f 63/63/63 62/62/62 50/50/50
f 49/49/49 63/63/63 50/50/50
f 64/64/64 63/63/63 49/49/49
f 56/56/56 64/64/64 47/47/47
f 47/47/47 64/64/64 49/49/49
f 60/60/60 65/65/65 59/59/59
f 65/65/65 66/66/66 59/59/59
f 59/59/59 66/66/66 58/58/58
f 66/66/66 67/67/67 58/58/58
f 58/58/58 67/67/67 57/57/57
f 67/67/67 68/68/68 57/57/57
f 57/57/57 68/68/68 56/56/56
f 68/68/68 69/69/69 56/56/56
f 56/56/56 69/69/69 64/64/64
f 69/69/69 70/70/70 64/64/64
f 64/64/64 70/70/70 63/63/63
f 70/70/70 71/71/71 63/63/63
f 63/63/63 71/71/71 62/62/62
f 71/71/71 72/72/72 62/62/62
f 72/72/72 73/73/73 61/61/61
f 62/62/62 72/72/72 61/61/61
f 61/61/61 73/73/73 74/74/74
f 61/61/61 74/74/74 54/54/54
f 54/54/54 74/74/74 55/55/55
f 74/74/74 75/75/75 55/55/55
f 73/73/73 76/76/76 74/74/74
f 74/74/74 76/76/76 75/75/75
f 76/76/76 77/77/77 75/75/75
f 80/80/80 79/79/79 78/78/78
f 81/81/81 80/80/80 78/78/78
f 81/81/81 78/78/78 82/82/82
f 83/83/83 81/81/81 82/82/82
f 83/83/83 82/82/82 84/84/84
f 85/85/85 83/83/83 84/84/84
f 85/85/85 84/84/84 86/86/86
f 87/87/87 85/85/85 86/86/86
f 87/87/87 86/86/86 88/88/88
f 89/89/89 87/87/87 88/88/88
f 89/89/89 88/88/88 90/90/90
f 91/91/91 89/89/89 90/90/90
f 91/91/91 90/90/90 92/92/92
f 93/93/93 91/91/91 92/92/92
f 93/93/93 92/92/92 94/94/94
f 95/95/95 93/93/93 94/94/94
f 95/95/95 94/94/94 96/96/96
f 97/97/97 95/95/95 96/96/96
f 97/97/97 96/96/96 98/98/98
f 99/99/99 97/97/97 98/98/98
