g m_dlc4_map_pathedge_01
v -0.2797313 0.0899445 -0.1980542
v -0.2137368 0.2621166 -0.1747699
v -0.2354689 0.259453 -0.09646911
v -0.3012683 0.08758999 -0.120473
v -0.2530305 0.08104484 0.1493555
v -0.1999583 0.25524 0.1010175
v -0.1741455 0.3075042 -0.1203253
v -0.002336273 0.3150343 -0.3168778
v -0.06043327 0.2688184 -0.3500928
v -0.1338723 0.3021805 0.09966431
v -0.1429421 0.2543108 0.1644617
v -0.1991912 0.08016734 0.2092648
v 0.03766426 0.2553184 0.2171258
v 0.06631031 0.3032975 0.1580365
v 0.1344918 0.3167928 -0.3143262
v 0.01357052 0.2706875 -0.3831689
v 0.147579 0.2727351 -0.3815112
v -0.01307777 0.1002638 -0.4517743
v -0.08659702 0.09840694 -0.4189148
v 0.1473309 0.3064702 0.07954529
v 0.1824875 0.2590947 0.1358228
v 0.1213643 0.2569991 0.1959811
v 0.0613464 0.08162101 0.2852368
v 0.1394309 0.08318882 0.2655121
v 0.2008409 0.2720534 -0.3292352
v 0.2126369 0.2615025 0.06055603
v 0.249504 0.08755258 0.1568753
v 0.2794428 0.08994356 0.08213409
v 0.2652226 0.102408 -0.392821
v 0.2077372 0.1031438 -0.4492404
v 0.1722557 0 0.3048846
v 0.3015315 0 0.1782647
v 0.3399254 0 0.08213617
v 0.3216476 0 -0.4253056
v 0.06534075 0 0.3319716
v -0.2243978 0 0.2473146
v -0.2989947 0 0.1642381
v -0.3528255 0 -0.1330646
v -0.3244852 0 -0.234762
v -0.1151549 0 -0.474093
v -0.01958356 0 -0.516688
v 0.2342227 0 -0.5109388
vt 0.3422852 0.3105469
vt 0.3249512 0.3215332
vt 0.3291016 0.329834
vt 0.3481445 0.3212891
vt 0.3481445 0.3623047
vt 0.3303223 0.3532715
vt 0.3205566 0.3293457
vt 0.296875 0.3137207
vt 0.3022461 0.3071289
vt 0.3215332 0.354248
vt 0.3251953 0.3618164
vt 0.342041 0.3730469
vt 0.3056641 0.3723145
vt 0.3015137 0.3654785
vt 0.2827148 0.3173828
vt 0.293457 0.3059082
vt 0.2788086 0.3100586
vt 0.2939453 0.2854004
vt 0.3061523 0.2861328
vt 0.2910156 0.3598633
vt 0.2875977 0.3676758
vt 0.2958984 0.3725586
vt 0.3066406 0.3930664
vt 0.2941895 0.3925781
vt 0.2741699 0.3168945
vt 0.2822266 0.3608398
vt 0.2724609 0.3820801
vt 0.263916 0.373291
vt 0.2556152 0.3076172
vt 0.2626953 0.2978516
vt 0.2902832 0.4038086
vt 0.2631836 0.3908691
vt 0.2512207 0.3771973
vt 0.241333 0.3037109
vt 0.3088379 0.4042969
vt 0.3503418 0.3808594
vt 0.3596191 0.3642578
vt 0.3596191 0.3166504
vt 0.3508301 0.3005371
vt 0.309082 0.2724609
vt 0.2910156 0.2712402
vt 0.2531738 0.2866211
vn -0.8114195 0.1148998 -0.5730588
vn -0.7076098 0.4984813 -0.5008042
vn -0.8751938 0.4761715 0.08542023
vn -0.9929437 0.09379759 0.07255938
vn -0.9477683 0.09049434 0.3058529
vn -0.840132 0.4740788 0.2634911
vn -0.1024903 0.994733 -0.001476538
vn -0.05488677 0.9975923 -0.04238979
vn -0.6115201 0.5027914 -0.6109369
vn -0.08211657 0.9929138 0.08590067
vn -0.3478116 0.4636812 0.8148783
vn -0.4052572 0.08066395 0.9106371
vn -0.1532176 0.4648381 0.8720378
vn -0.008009909 0.9952852 0.09666087
vn 0.1139486 0.9931965 -0.02401027
vn -0.09811181 0.4964627 -0.8624958
vn 0.1691741 0.510075 -0.843329
vn -0.1118593 0.1314883 -0.9849864
vn -0.6832103 0.1203898 -0.7202292
vn 0.08444849 0.9956007 0.04059082
vn 0.6946342 0.4708371 0.5438711
vn 0.4830266 0.4701672 0.7386665
vn -0.1539294 0.08189531 0.9846821
vn 0.5455772 0.09858577 0.8322417
vn 0.8618531 0.4992142 -0.08941203
vn 0.8613423 0.5069767 0.03262172
vn 0.7945979 0.102777 0.5983738
vn 0.9920392 0.1210485 0.03472111
vn 0.9826785 0.1252728 -0.1365633
vn 0.2200584 0.1415394 -0.9651636
vn 0.5638045 -0.01447683 0.8257814
vn 0.7948983 -0.005555035 0.6067173
vn 0.9995027 0.01257182 0.02892048
vn 0.9909332 0.01677949 -0.133304
vn -0.1635489 -0.02845673 0.9861247
vn -0.3965289 -0.02973875 0.9175404
vn -0.955202 -0.02061632 0.2952356
vn -0.9969718 -0.01533847 0.07623608
vn -0.8118712 0.004719266 -0.5838174
vn -0.6894855 0.01009226 -0.7242292
vn -0.1028589 0.02511978 -0.9943787
vn 0.2069357 0.02881768 -0.9779301
g m_dlc4_map_pathedge_01_0
f 3/3/3 2/2/2 1/1/1
f 4/4/4 3/3/3 1/1/1
f 4/4/4 5/5/5 3/3/3
f 5/5/5 6/6/6 3/3/3
f 3/3/3 6/6/6 7/7/7
f 3/3/3 7/7/7 2/2/2
f 7/7/7 8/8/8 2/2/2
f 8/8/8 9/9/9 2/2/2
f 1/1/1 2/2/2 9/9/9
f 6/6/6 10/10/10 7/7/7
f 11/11/11 6/6/6 5/5/5
f 6/6/6 11/11/11 10/10/10
f 12/12/12 11/11/11 5/5/5
f 11/11/11 13/13/13 10/10/10
f 13/13/13 14/14/14 10/10/10
f 15/15/15 8/8/8 7/7/7
f 16/16/16 8/8/8 15/15/15
f 16/16/16 9/9/9 8/8/8
f 17/17/17 16/16/16 15/15/15
f 9/9/9 16/16/16 18/18/18
f 18/18/18 16/16/16 17/17/17
f 19/19/19 9/9/9 18/18/18
f 7/7/7 20/20/20 15/15/15
f 7/7/7 10/10/10 20/20/20
f 10/10/10 14/14/14 20/20/20
f 21/21/21 20/20/20 14/14/14
f 22/22/22 21/21/21 14/14/14
f 13/13/13 22/22/22 14/14/14
f 22/22/22 13/13/13 23/23/23
f 23/23/23 13/13/13 11/11/11
f 12/12/12 23/23/23 11/11/11
f 24/24/24 22/22/22 23/23/23
f 25/25/25 15/15/15 20/20/20
f 25/25/25 17/17/17 15/15/15
f 26/26/26 25/25/25 20/20/20
f 21/21/21 26/26/26 20/20/20
f 26/26/26 21/21/21 27/27/27
f 27/27/27 21/21/21 22/22/22
f 24/24/24 27/27/27 22/22/22
f 28/28/28 26/26/26 27/27/27
f 17/17/17 25/25/25 29/29/29
f 29/29/29 25/25/25 26/26/26
f 28/28/28 29/29/29 26/26/26
f 30/30/30 17/17/17 29/29/29
f 30/30/30 18/18/18 17/17/17
f 24/24/24 31/31/31 27/27/27
f 31/31/31 32/32/32 27/27/27
f 27/27/27 32/32/32 28/28/28
f 28/28/28 33/33/33 29/29/29
f 32/32/32 33/33/33 28/28/28
f 33/33/33 34/34/34 29/29/29
f 29/29/29 34/34/34 30/30/30
f 35/35/35 31/31/31 24/24/24
f 23/23/23 35/35/35 24/24/24
f 36/36/36 35/35/35 23/23/23
f 12/12/12 36/36/36 23/23/23
f 37/37/37 36/36/36 12/12/12
f 5/5/5 37/37/37 12/12/12
f 38/38/38 37/37/37 5/5/5
f 4/4/4 38/38/38 5/5/5
f 39/39/39 38/38/38 4/4/4
f 1/1/1 39/39/39 4/4/4
f 40/40/40 39/39/39 1/1/1
f 19/19/19 40/40/40 1/1/1
f 19/19/19 1/1/1 9/9/9
f 41/41/41 40/40/40 19/19/19
f 18/18/18 41/41/41 19/19/19
f 42/42/42 41/41/41 18/18/18
f 30/30/30 42/42/42 18/18/18
f 34/34/34 42/42/42 30/30/30
