g m_dlc7_map_cobble_06
v -0.2190253 0.05532605 0.09068451
v -0.2190253 0.05532605 -0.09068451
v -0.1672797 0.09443966 -0.07771499
v -0.1672797 0.09443966 0.07771499
v -0.1112354 0.110641 -0.07327255
v -0.1112354 0.110641 0.07327255
v 0.111235 0.110641 -0.07327255
v -0.1179797 0.09443966 -0.1270151
v 0.1179794 0.09443966 -0.1270151
v -0.1376688 0.05532605 -0.172041
v 0.1376685 0.05532605 -0.172041
v 0.111235 0.110641 0.07327255
v 0.1179794 0.09443966 0.1270149
v -0.1179797 0.09443966 0.1270149
v 0.1376685 0.05532605 0.172041
v -0.1376688 0.05532605 0.172041
v 0.1672793 0.09443966 -0.07771499
v 0.1672793 0.09443965 0.07771499
v 0.219025 0.05532605 -0.09068451
v 0.219025 0.05532605 0.09068451
v 0.1512512 6.183658E-09 0.1890149
v 0.1951959 0.05532605 0.1482123
v 0.2144543 6.386401E-09 0.1628349
v 0.2406341 6.183658E-09 0.09963165
v -0.1512515 6.386401E-09 0.1890149
v -0.2144547 7.096001E-09 0.1628349
v -0.1951962 0.05532605 0.1482123
v -0.2406345 5.169944E-09 0.09963165
v 0.2406341 6.893258E-09 -0.09963165
v 0.1951959 0.05532605 -0.1482123
v 0.2144543 7.197372E-09 -0.1628351
v 0.1512512 7.501487E-09 -0.1890149
v -0.1512515 6.690515E-09 -0.1890149
v -0.1951962 0.05532605 -0.1482123
v -0.2144547 5.676801E-09 -0.1628351
v -0.2406345 6.082287E-09 -0.09963165
v -0.1638947 0.08725102 0.1221858
v -0.1638947 0.08725102 -0.1221858
v 0.1638943 0.08725102 -0.1221858
v 0.1638943 0.08725102 0.1221858
vt 0.4956055 0.4797363
vt 0.4958496 0.4914551
vt 0.4997559 0.4904785
vt 0.4995117 0.4807129
vt 0.503418 0.4899902
vt 0.5029297 0.4812012
vt 0.5166016 0.4897461
vt 0.5029297 0.4934082
vt 0.5175781 0.4931641
vt 0.5014648 0.4968262
vt 0.519043 0.496582
vt 0.5166016 0.480957
vt 0.5170898 0.4775391
vt 0.5024414 0.4777832
vt 0.5185547 0.473877
vt 0.5009766 0.4741211
vt 0.5205078 0.4899902
vt 0.5200195 0.4804688
vt 0.5244141 0.4912109
vt 0.5239258 0.479248
vt 0.5200195 0.470459
vt 0.5219727 0.4758301
vt 0.5249023 0.4733887
vt 0.527832 0.4780273
vt 0.4992676 0.4707031
vt 0.494873 0.4736328
vt 0.4973145 0.4760742
vt 0.4921875 0.4785156
vt 0.527832 0.4924316
vt 0.5224609 0.494873
vt 0.5249023 0.4970703
vt 0.5205078 0.5
vt 0.4997559 0.5004883
vt 0.4975586 0.4951172
vt 0.4951172 0.4975586
vt 0.4921875 0.4929199
vt 0.4997559 0.4780273
vt 0.5 0.4931641
vt 0.5200195 0.4929199
vt 0.5200195 0.4777832
vn -0.8121732 0.5789717 0.07187662
vn -0.8121729 0.5789723 -0.07187655
vn -0.4650846 0.8841422 -0.0445963
vn -0.4650847 0.8841422 0.04459617
vn -0.05331721 0.9954945 -0.07840815
vn -0.05331712 0.9954946 0.07840818
vn 0.05331734 0.9954945 -0.07840818
vn -0.0320393 0.8609678 -0.5076495
vn 0.0320392 0.8609679 -0.5076493
vn -0.05347809 0.505338 -0.8612627
vn 0.05347805 0.5053384 -0.8612625
vn 0.05331733 0.9954945 0.07840829
vn 0.03203918 0.8609678 0.5076494
vn -0.0320391 0.8609676 0.5076497
vn 0.05347778 0.5053383 0.8612627
vn -0.05347772 0.5053382 0.8612627
vn 0.4650882 0.8841403 -0.0445963
vn 0.4650881 0.8841405 0.04459628
vn 0.8121734 0.5789717 -0.07187667
vn 0.8121729 0.5789724 0.07187627
vn 0.08114319 0.31049 0.9471071
vn 0.5823649 0.5648344 0.5846481
vn 0.6582326 0.39801 0.6389976
vn 0.9213562 0.3758865 0.09905649
vn -0.08114311 0.3104896 0.9471072
vn -0.6582327 0.3980114 0.6389966
vn -0.5823646 0.5648359 0.5846466
vn -0.9213577 0.3758825 0.09905683
vn 0.9213566 0.3758852 -0.09905703
vn 0.5823668 0.5648329 -0.5846475
vn 0.658235 0.3980076 -0.6389967
vn 0.08114381 0.3104902 -0.947107
vn -0.08114391 0.310489 -0.9471073
vn -0.5823645 0.5648362 -0.5846466
vn -0.6582327 0.3980117 -0.6389962
vn -0.9213574 0.3758836 -0.09905668
vn -0.3654526 0.85294 0.3727438
vn -0.365452 0.8529401 -0.3727438
vn 0.3654526 0.8529398 -0.3727439
vn 0.3654523 0.85294 0.3727441
g m_dlc7_map_cobble_06_0
f 3/3/3 2/2/2 1/1/1
f 4/4/4 3/3/3 1/1/1
f 5/5/5 3/3/3 4/4/4
f 6/6/6 5/5/5 4/4/4
f 7/7/7 5/5/5 6/6/6
f 5/5/5 7/7/7 8/8/8
f 5/5/5 8/8/8 3/3/3
f 7/7/7 9/9/9 8/8/8
f 8/8/8 9/9/9 10/10/10
f 9/9/9 11/11/11 10/10/10
f 12/12/12 7/7/7 6/6/6
f 13/13/13 12/12/12 6/6/6
f 14/14/14 13/13/13 6/6/6
f 6/6/6 4/4/4 14/14/14
f 15/15/15 13/13/13 14/14/14
f 16/16/16 15/15/15 14/14/14
f 17/17/17 7/7/7 12/12/12
f 7/7/7 17/17/17 9/9/9
f 18/18/18 17/17/17 12/12/12
f 12/12/12 13/13/13 18/18/18
f 19/19/19 17/17/17 18/18/18
f 20/20/20 19/19/19 18/18/18
f 21/21/21 15/15/15 16/16/16
f 15/15/15 21/21/21 22/22/22
f 20/20/20 18/18/18 22/22/22
f 15/15/15 22/22/22 13/13/13
f 22/22/22 23/23/23 20/20/20
f 21/21/21 23/23/23 22/22/22
f 23/23/23 24/24/24 20/20/20
f 25/25/25 21/21/21 16/16/16
f 26/26/26 25/25/25 16/16/16
f 27/27/27 26/26/26 16/16/16
f 16/16/16 14/14/14 27/27/27
f 28/28/28 26/26/26 27/27/27
f 1/1/1 28/28/28 27/27/27
f 29/29/29 19/19/19 20/20/20
f 24/24/24 29/29/29 20/20/20
f 19/19/19 29/29/29 30/30/30
f 19/19/19 30/30/30 17/17/17
f 29/29/29 31/31/31 30/30/30
f 30/30/30 31/31/31 11/11/11
f 31/31/31 32/32/32 11/11/11
f 11/11/11 32/32/32 10/10/10
f 32/32/32 33/33/33 10/10/10
f 10/10/10 33/33/33 34/34/34
f 33/33/33 35/35/35 34/34/34
f 34/34/34 35/35/35 2/2/2
f 28/28/28 1/1/1 2/2/2
f 35/35/35 36/36/36 2/2/2
f 36/36/36 28/28/28 2/2/2
f 1/1/1 27/27/27 4/4/4
f 27/27/27 37/37/37 4/4/4
f 4/4/4 37/37/37 14/14/14
f 14/14/14 37/37/37 27/27/27
f 10/10/10 34/34/34 8/8/8
f 34/34/34 38/38/38 8/8/8
f 3/3/3 38/38/38 34/34/34
f 2/2/2 3/3/3 34/34/34
f 8/8/8 38/38/38 3/3/3
f 11/11/11 9/9/9 30/30/30
f 9/9/9 39/39/39 30/30/30
f 30/30/30 39/39/39 17/17/17
f 17/17/17 39/39/39 9/9/9
f 18/18/18 40/40/40 22/22/22
f 13/13/13 40/40/40 18/18/18
f 22/22/22 40/40/40 13/13/13
