g m_dlc7_map_cobble_08
v -0.2115314 0.05532605 0.09927017
v -0.191228 0.05532605 -0.09068466
v -0.1404138 0.09443965 -0.07726555
v -0.1597858 0.09443965 0.08630035
v -0.08516663 0.110641 -0.07246505
v -0.1037415 0.110641 0.08185799
v 0.0631372 0.110641 -0.03105255
v -0.09018188 0.09443966 -0.1270151
v 0.0715271 0.09443965 -0.09791107
v -0.1098718 0.05532605 -0.1720412
v 0.09602173 0.05532605 -0.1539258
v 0.1062579 0.110641 0.08094215
v 0.1179797 0.09443966 0.127015
v -0.1104852 0.09443966 0.1356006
v 0.1376691 0.05532605 0.1720412
v -0.1301746 0.05532605 0.1806267
v 0.1328595 0.09443965 -0.03657913
v 0.1652924 0.09443966 0.0822979
v 0.1972339 0.05532605 -0.05271415
v 0.2190253 0.05532605 0.09068466
v 0.1512512 5.778172E-09 0.1890149
v 0.1951965 0.05532605 0.1482123
v 0.2144543 7.298744E-09 0.1628351
v 0.2406341 6.386401E-09 0.09963165
v -0.1437573 7.400115E-09 0.1976002
v -0.2069611 7.704229E-09 0.1714204
v -0.187702 0.05532605 0.1567978
v -0.2331403 5.676801E-09 0.1082172
v 0.2241168 7.400115E-09 -0.06384476
v 0.1675891 0.05532605 -0.1242816
v 0.1915478 8.109715E-09 -0.142473
v 0.1129193 6.487772E-09 -0.175042
v -0.123454 5.676801E-09 -0.1890149
v -0.1673993 0.05532605 -0.1482123
v -0.1866577 6.589143E-09 -0.1628351
v -0.2128375 6.791887E-09 -0.09963165
v -0.1564008 0.08725102 0.1307712
v -0.136098 0.08725102 -0.1221858
v 0.1286487 0.08725102 -0.09190308
v 0.1638947 0.08725102 0.1221858
vt 0.5410156 0.4614258
vt 0.5537109 0.4599609
vt 0.5522461 0.4562988
vt 0.5424805 0.4575195
vt 0.5517578 0.4526367
vt 0.5424805 0.4538574
vt 0.5493164 0.4436035
vt 0.5551758 0.453125
vt 0.5537109 0.4428711
vt 0.5585938 0.4545898
vt 0.5576172 0.4411621
vt 0.5424805 0.4411621
vt 0.5395508 0.4406738
vt 0.5390625 0.4545898
vt 0.5361328 0.439209
vt 0.5356445 0.4560547
vt 0.5498047 0.439209
vt 0.5419922 0.4377441
vt 0.5507813 0.4345703
vt 0.5410156 0.4338379
vt 0.5322266 0.4375
vt 0.5375977 0.4355469
vt 0.5351563 0.4331055
vt 0.5400391 0.4304199
vt 0.5322266 0.4577637
vt 0.5351563 0.4624023
vt 0.5375977 0.4597168
vt 0.5400391 0.4648438
vt 0.5517578 0.4306641
vt 0.5551758 0.4365234
vt 0.5576172 0.4335938
vt 0.5610352 0.439209
vt 0.5620117 0.4560547
vt 0.5571289 0.458252
vt 0.5595703 0.4606934
vt 0.5546875 0.463623
vt 0.5395508 0.4572754
vt 0.5551758 0.4558105
vt 0.5532227 0.4394531
vt 0.5395508 0.4377441
vn -0.8204774 0.5716727 0.002655435
vn -0.8029945 0.580359 -0.1355856
vn -0.4591813 0.8840613 -0.08710911
vn -0.4763736 0.8792403 -0.002141063
vn -0.05274807 0.9947202 -0.08803012
vn -0.07160991 0.9936767 0.08647864
vn 0.05169806 0.9964871 -0.06588406
vn 0.02067465 0.8761231 -0.4816439
vn 0.09931644 0.8946094 -0.4356722
vn -0.007134579 0.5336006 -0.8457065
vn 0.1305201 0.5629935 -0.8160899
vn 0.06696394 0.993762 0.08917962
vn 0.04877868 0.8515081 0.5220676
vn -0.01901728 0.8530543 0.5214755
vn 0.07735661 0.506891 0.8585321
vn -0.03197041 0.5035073 0.8633994
vn 0.3837363 0.9151379 -0.1235678
vn 0.4379292 0.8984573 -0.03150259
vn 0.7485846 0.640678 -0.1707421
vn 0.7929667 0.6092174 -0.007614669
vn 0.105006 0.3100756 0.9448951
vn 0.5819202 0.5627038 0.5871399
vn 0.6582344 0.3980051 0.6389987
vn 0.9126633 0.4069582 0.03782383
vn -0.06057929 0.311412 0.948342
vn -0.6582324 0.398013 0.638996
vn -0.5823629 0.5648366 0.5846478
vn -0.9256329 0.3774013 0.02778448
vn 0.881591 0.428019 -0.1989901
vn 0.5388671 0.6446626 -0.5422474
vn 0.6333953 0.4751143 -0.6108001
vn 0.1619961 0.363035 -0.9175853
vn -0.04913455 0.3402466 -0.9390517
vn -0.5823922 0.5642221 -0.5852118
vn -0.6582318 0.3980106 -0.638998
vn -0.91372 0.3719692 -0.1635693
vn -0.3654511 0.8529404 0.3727438
vn -0.364936 0.8522521 -0.3748175
vn 0.3087575 0.8972834 -0.3155176
vn 0.3674399 0.848506 0.380822
g m_dlc7_map_cobble_08_0
f 3/3/3 2/2/2 1/1/1
f 4/4/4 3/3/3 1/1/1
f 5/5/5 3/3/3 4/4/4
f 6/6/6 5/5/5 4/4/4
f 7/7/7 5/5/5 6/6/6
f 5/5/5 7/7/7 8/8/8
f 5/5/5 8/8/8 3/3/3
f 7/7/7 9/9/9 8/8/8
f 8/8/8 9/9/9 10/10/10
f 9/9/9 11/11/11 10/10/10
f 12/12/12 7/7/7 6/6/6
f 13/13/13 12/12/12 6/6/6
f 14/14/14 13/13/13 6/6/6
f 6/6/6 4/4/4 14/14/14
f 15/15/15 13/13/13 14/14/14
f 16/16/16 15/15/15 14/14/14
f 17/17/17 7/7/7 12/12/12
f 7/7/7 17/17/17 9/9/9
f 18/18/18 17/17/17 12/12/12
f 12/12/12 13/13/13 18/18/18
f 19/19/19 17/17/17 18/18/18
f 20/20/20 19/19/19 18/18/18
f 21/21/21 15/15/15 16/16/16
f 15/15/15 21/21/21 22/22/22
f 20/20/20 18/18/18 22/22/22
f 15/15/15 22/22/22 13/13/13
f 22/22/22 23/23/23 20/20/20
f 21/21/21 23/23/23 22/22/22
f 23/23/23 24/24/24 20/20/20
f 25/25/25 21/21/21 16/16/16
f 26/26/26 25/25/25 16/16/16
f 27/27/27 26/26/26 16/16/16
f 16/16/16 14/14/14 27/27/27
f 28/28/28 26/26/26 27/27/27
f 1/1/1 28/28/28 27/27/27
f 29/29/29 19/19/19 20/20/20
f 24/24/24 29/29/29 20/20/20
f 19/19/19 29/29/29 30/30/30
f 19/19/19 30/30/30 17/17/17
f 29/29/29 31/31/31 30/30/30
f 30/30/30 31/31/31 11/11/11
f 31/31/31 32/32/32 11/11/11
f 11/11/11 32/32/32 10/10/10
f 32/32/32 33/33/33 10/10/10
f 10/10/10 33/33/33 34/34/34
f 33/33/33 35/35/35 34/34/34
f 34/34/34 35/35/35 2/2/2
f 28/28/28 1/1/1 2/2/2
f 35/35/35 36/36/36 2/2/2
f 36/36/36 28/28/28 2/2/2
f 1/1/1 27/27/27 4/4/4
f 27/27/27 37/37/37 4/4/4
f 4/4/4 37/37/37 14/14/14
f 14/14/14 37/37/37 27/27/27
f 10/10/10 34/34/34 8/8/8
f 34/34/34 38/38/38 8/8/8
f 3/3/3 38/38/38 34/34/34
f 2/2/2 3/3/3 34/34/34
f 8/8/8 38/38/38 3/3/3
f 11/11/11 9/9/9 30/30/30
f 9/9/9 39/39/39 30/30/30
f 30/30/30 39/39/39 17/17/17
f 17/17/17 39/39/39 9/9/9
f 18/18/18 40/40/40 22/22/22
f 13/13/13 40/40/40 18/18/18
f 22/22/22 40/40/40 13/13/13
