g m_dlc07_map_brick_01
v -0.9026912 -0.289713 0.2296128
v -0.9026912 -0.289713 -0.2296129
v -0.9600863 -0.2323169 -0.2296129
v -0.9600863 -0.2323169 0.2296128
v -0.05739827 -0.289713 0.2296128
v -0.05739827 -0.289713 -0.2296129
v -8.145018E-07 -0.2323169 0.2296128
v -8.145018E-07 -0.2323169 -0.2296129
v -0.05739827 -0.2323169 -0.2870089
v -0.9026912 -0.2323169 -0.2870089
v -0.9026912 0.2323169 -0.2870089
v -0.9600863 0.2323169 -0.2296129
v -0.9600863 -0.2323169 -0.2296129
v -0.05739827 0.2323169 -0.2870089
v -0.05739827 0.289713 -0.2296129
v -0.9026912 0.289713 -0.2296129
v -8.145018E-07 -0.2323169 -0.2296129
v -8.145018E-07 0.2323169 -0.2296129
v -0.9026912 0.289713 0.2296128
v -0.9600863 0.2323169 0.2296128
v -0.9600863 0.2323169 -0.2296129
v -0.05739827 0.289713 0.2296128
v -0.05739827 0.2323169 0.2870088
v -0.9026912 0.2323169 0.2870088
v -8.145018E-07 0.2323169 -0.2296129
v -8.145018E-07 0.2323169 0.2296128
v -0.9026912 -0.2323169 0.2870088
v -0.9600863 -0.2323169 0.2296128
v -0.9600863 0.2323169 0.2296128
v -0.05739827 -0.2323169 0.2870088
v -0.05739827 -0.289713 0.2296128
v -0.9026912 -0.289713 0.2296128
v -8.145018E-07 0.2323169 0.2296128
v -8.145018E-07 -0.2323169 0.2296128
v -8.145018E-07 0.2323169 -0.2296129
v -8.145018E-07 -0.2323169 -0.2296129
v -0.9600863 -0.2323169 -0.2296129
v -0.9600863 0.2323169 -0.2296129
vt 0.6191406 0.5761719
vt 0.6181641 0.590332
vt 0.6206055 0.5908203
vt 0.621582 0.5761719
vt 0.5927734 0.574707
vt 0.5917969 0.5888672
vt 0.590332 0.5742188
vt 0.5893555 0.5888672
vt 0.5917969 0.5913086
vt 0.6176758 0.5927734
vt 0.6171875 0.6069336
vt 0.6201172 0.6069336
vt 0.6201172 0.5927734
vt 0.5908203 0.605957
vt 0.5908203 0.6083984
vt 0.6171875 0.609375
vt 0.5893555 0.5908203
vt 0.5883789 0.6054688
vt 0.6171875 0.6235352
vt 0.6196289 0.6235352
vt 0.6196289 0.609375
vt 0.590332 0.6230469
vt 0.590332 0.6254883
vt 0.6166992 0.6259766
vt 0.5883789 0.6079102
vt 0.5878906 0.6230469
vt 0.6166992 0.6401367
vt 0.6191406 0.640625
vt 0.6196289 0.6259766
vt 0.590332 0.6401367
vt 0.590332 0.6425781
vt 0.6171875 0.6430664
vt 0.5878906 0.6254883
vt 0.5878906 0.6401367
vt 0.5737305 0.6254883
vt 0.5737305 0.6401367
vt 0.6337891 0.640625
vt 0.6337891 0.6259766
vn -0.05871613 -0.9926199 0.1061041
vn -0.05871616 -0.9926199 -0.1061041
vn -0.9895126 -0.1015645 -0.1027103
vn -0.9895126 -0.1015644 0.1027103
vn 0.05871606 -0.9926199 0.106104
vn 0.0587161 -0.9926199 -0.106104
vn 0.9895119 -0.1015672 0.1027145
vn 0.9895119 -0.1015672 -0.1027145
vn 0.0587683 -0.1050112 -0.992733
vn -0.05876843 -0.1050114 -0.992733
vn -0.05876843 0.1050114 -0.992733
vn -0.9895126 0.1015645 -0.1027103
vn -0.9895126 -0.1015645 -0.1027103
vn 0.0587683 0.1050112 -0.992733
vn 0.0587161 0.9926199 -0.106104
vn -0.05871616 0.9926199 -0.1061041
vn 0.9895119 -0.1015672 -0.1027145
vn 0.9895119 0.1015672 -0.1027145
vn -0.05871613 0.9926199 0.1061041
vn -0.9895126 0.1015644 0.1027103
vn -0.9895126 0.1015645 -0.1027103
vn 0.05871606 0.9926199 0.106104
vn 0.05876848 0.1050112 0.992733
vn -0.0587686 0.1050114 0.992733
vn 0.9895119 0.1015672 -0.1027145
vn 0.9895119 0.1015672 0.1027145
vn -0.0587686 -0.1050114 0.992733
vn -0.9895126 -0.1015644 0.1027103
vn -0.9895126 0.1015644 0.1027103
vn 0.05876848 -0.1050112 0.992733
vn 0.05871606 -0.9926199 0.106104
vn -0.05871613 -0.9926199 0.1061041
vn 0.9895119 0.1015672 0.1027145
vn 0.9895119 -0.1015672 0.1027145
vn 0.9895119 0.1015672 -0.1027145
vn 0.9895119 -0.1015672 -0.1027145
vn -0.9895126 -0.1015645 -0.1027103
vn -0.9895126 0.1015645 -0.1027103
g m_dlc07_map_brick_01_0
f 3/3/3 2/2/2 1/1/1
f 4/4/4 3/3/3 1/1/1
f 5/5/5 1/1/1 2/2/2
f 6/6/6 5/5/5 2/2/2
f 5/5/5 6/6/6 7/7/7
f 6/6/6 8/8/8 7/7/7
f 9/9/9 6/6/6 2/2/2
f 10/10/10 9/9/9 2/2/2
f 9/9/9 10/10/10 11/11/11
f 11/11/11 10/10/10 12/12/12
f 10/10/10 13/13/13 12/12/12
f 10/10/10 2/2/2 13/13/13
f 14/14/14 9/9/9 11/11/11
f 15/15/15 14/14/14 11/11/11
f 16/16/16 15/15/15 11/11/11
f 17/17/17 9/9/9 14/14/14
f 9/9/9 17/17/17 6/6/6
f 18/18/18 17/17/17 14/14/14
f 15/15/15 16/16/16 19/19/19
f 19/19/19 16/16/16 20/20/20
f 16/16/16 21/21/21 20/20/20
f 16/16/16 11/11/11 21/21/21
f 22/22/22 15/15/15 19/19/19
f 23/23/23 22/22/22 19/19/19
f 24/24/24 23/23/23 19/19/19
f 25/25/25 15/15/15 22/22/22
f 15/15/15 25/25/25 14/14/14
f 26/26/26 25/25/25 22/22/22
f 23/23/23 24/24/24 27/27/27
f 27/27/27 24/24/24 28/28/28
f 24/24/24 29/29/29 28/28/28
f 24/24/24 19/19/19 29/29/29
f 30/30/30 23/23/23 27/27/27
f 31/31/31 30/30/30 27/27/27
f 32/32/32 31/31/31 27/27/27
f 27/27/27 28/28/28 32/32/32
f 33/33/33 23/23/23 30/30/30
f 23/23/23 33/33/33 22/22/22
f 34/34/34 33/33/33 30/30/30
f 30/30/30 31/31/31 34/34/34
f 35/35/35 33/33/33 34/34/34
f 36/36/36 35/35/35 34/34/34
f 28/28/28 29/29/29 37/37/37
f 29/29/29 38/38/38 37/37/37
