g m_dlc08_map_rope_07
v 0.1205041 0.06300042 0.0359844
v 0.1547342 0.08697201 0.0459709
v 0.09213731 0.08430951 0.1342488
v 0.07206202 0.06093995 0.1043002
v 0.1204347 0.05506997 -0.04741247
v 0.1546445 0.07672433 -0.06179471
v 0.07188037 0.04017777 -0.1140355
v 0.09190255 0.05748063 -0.1478852
v -0.006612742 0.02401223 -0.1384371
v -0.009526455 0.03659143 -0.179417
v -0.08506297 0.01274793 -0.1112966
v -0.1109 0.02203565 -0.1443459
v -0.133505 0.01068749 -0.04298074
v -0.173497 0.01937318 -0.05606798
v -0.1334356 0.01861794 0.04041609
v -0.1734073 0.0296209 0.05169764
v -0.08488131 0.03351006 0.1070392
v -0.1106653 0.0488646 0.1377881
v -0.006388218 0.04967564 0.1314407
v -0.009236328 0.06975377 0.1693199
v 0.07206202 0.06093995 0.1043002
v 0.09213731 0.08430951 0.1342488
v 0.118107 0.04329934 -0.1796213
v 0.1954224 0.06701287 -0.07353399
v -0.006881573 0.01755807 -0.2184771
v -0.1318018 -0.0003786375 -0.1752599
v -0.2089385 -0.003659582 -0.06647711
v -0.2088279 0.008968439 0.06631987
v -0.1315125 0.03268197 0.1724072
v -0.006524021 0.05842324 0.2112629
v 0.1183963 0.07635995 0.1680457
v 0.2180109 0.03130315 -0.07542272
v 0.2181301 0.04492368 0.06781118
v 0.1955329 0.0796409 0.05926302
v 0.1183963 0.07635995 0.1680457
v 0.134931 0.04138486 0.1851435
v -0.0001928256 -0.02203845 -0.2317574
v 0.1346189 0.005725908 -0.1898478
v -0.1346189 -0.005725889 0.1898477
v -0.2180109 -0.03130317 0.07542269
v -0.2181301 -0.04492366 -0.06781121
v -0.134931 -0.04138488 -0.1851436
v 0.1315126 -0.03268195 -0.1724072
v 0.208828 -0.008968458 -0.06631994
v 0.2089385 0.003659601 0.06647715
v 0.1318018 0.0003786562 0.1752599
v -0.1183962 -0.07635993 -0.1680458
v 0.006524017 -0.05842322 -0.211263
v -0.1955329 -0.07964087 -0.05926301
v -0.1954224 -0.06701285 0.07353396
v -0.118107 -0.04329932 0.1796212
v 0.0001928212 0.02203843 0.2317574
v 0.134931 0.04138486 0.1851435
v 0.006881549 -0.01755809 0.2184771
v 0.1318018 0.0003786562 0.1752599
v 0.009236304 -0.06975375 -0.1693199
v 0.1106653 -0.04886454 -0.1377881
v 0.1734073 -0.02962089 -0.05169767
v 0.173497 -0.01937316 0.05606795
v 0.1109001 -0.02203567 0.1443459
v -0.09190253 -0.05748061 0.1478852
v -0.1546445 -0.07672431 0.06179468
v -0.1547342 -0.08697205 -0.04597093
v -0.09213728 -0.08430955 -0.1342489
v 0.08506298 -0.01274791 0.1112966
v 0.133505 -0.01068748 0.04298075
v 0.1334356 -0.01861789 -0.04041616
v 0.08488131 -0.03351004 -0.1070392
v 0.006388194 -0.04967562 -0.1314408
v -0.07206202 -0.06093993 -0.1043002
v -0.120504 -0.06300037 -0.0359844
v -0.1204347 -0.05506995 0.04741247
v -0.07188037 -0.04017779 0.1140355
v 0.00952645 -0.03659141 0.1794169
v 0.1109001 -0.02203567 0.1443459
v 0.006612727 -0.02401221 0.1384371
v 0.08506298 -0.01274791 0.1112966
v 0.1205041 0.06300042 0.0359844
v 0.07206202 0.06093995 0.1043002
v 0.08506298 -0.01274791 0.1112966
v 0.133505 -0.01068748 0.04298075
v 0.1204347 0.05506997 -0.04741247
v 0.1334356 -0.01861789 -0.04041616
v 0.07188037 0.04017777 -0.1140355
v 0.08488131 -0.03351004 -0.1070392
v -0.006612742 0.02401223 -0.1384371
v 0.006388194 -0.04967562 -0.1314408
v -0.08506297 0.01274793 -0.1112966
v -0.07206202 -0.06093993 -0.1043002
v -0.133505 0.01068749 -0.04298074
v -0.120504 -0.06300037 -0.0359844
v -0.1334356 0.01861794 0.04041609
v -0.1204347 -0.05506995 0.04741247
v -0.08488131 0.03351006 0.1070392
v -0.07188037 -0.04017779 0.1140355
v -0.006388218 0.04967564 0.1314407
v 0.006612727 -0.02401221 0.1384371
v 0.07206202 0.06093995 0.1043002
v 0.08506298 -0.01274791 0.1112966
vt 0.006721497 -1.045898
vt 0.1694336 -1.047852
vt 0.1688232 -1.420898
vt 0.006057739 -1.418945
vt 0.007381439 -0.6728516
vt 0.170166 -0.6748047
vt 0.008033752 -0.2995605
vt 0.1707764 -0.302002
vt 0.008705139 0.07330322
vt 0.1715088 0.07092285
vt 0.009361267 0.4462891
vt 0.1721191 0.4438477
vt 0.01002502 0.8193359
vt 0.1727295 0.8168945
vt 0.01068878 1.192383
vt 0.1734619 1.189453
vt 0.01135254 1.56543
vt 0.1740723 1.5625
vt 0.01200867 1.938477
vt 0.1748047 1.935547
vt 0.01268005 2.310547
vt 0.175415 2.308594
vt 0.3334961 -0.3044434
vt 0.3327637 -0.6772461
vt 0.3342285 0.06854248
vt 0.3349609 0.4414063
vt 0.3354492 0.8144531
vt 0.3361816 1.1875
vt 0.3369141 1.560547
vt 0.3374023 1.933594
vt 0.3381348 2.306641
vt 0.4956055 -0.6796875
vt 0.494873 -1.052734
vt 0.3322754 -1.050781
vt 0.331543 -1.422852
vt 0.4943848 -1.425781
vt 0.4970703 0.06616211
vt 0.4963379 -0.3068848
vt 0.4995117 1.557617
vt 0.4990234 1.18457
vt 0.498291 0.8120117
vt 0.4975586 0.439209
vt 0.6591797 -0.309082
vt 0.6582031 -0.6821289
vt 0.6577148 -1.054688
vt 0.6572266 -1.427734
vt 0.6601563 0.4367676
vt 0.659668 0.06378174
vt 0.6611328 0.8095703
vt 0.6616211 1.182617
vt 0.6625977 1.555664
vt 0.5004883 1.930664
vt 0.5009766 2.304688
vt 0.6630859 1.928711
vt 0.6635742 2.300781
vt 0.8222656 0.06143188
vt 0.8217773 -0.3115234
vt 0.8212891 -0.6845703
vt 0.8203125 -1.057617
vt 0.8198242 -1.430664
vt 0.8251953 1.553711
vt 0.8242188 1.180664
vt 0.8237305 0.8071289
vt 0.8232422 0.4343262
vt 0.9824219 -1.432617
vt 0.9833984 -1.05957
vt 0.9838867 -0.6870117
vt 0.984375 -0.3139648
vt 0.9853516 0.05908203
vt 0.9858398 0.4321289
vt 0.9863281 0.8051758
vt 0.9873047 1.177734
vt 0.987793 1.550781
vt 0.8256836 1.925781
vt 0.8266602 2.298828
vt 0.9882813 1.923828
vt 0.9892578 2.296875
vt 0.006721497 -1.045898
vt 0.006057739 -1.418945
vt 0.9824219 -1.432617
vt 0.9833984 -1.05957
vt 0.007381439 -0.6728516
vt 0.9838867 -0.6870117
vt 0.008033752 -0.2995605
vt 0.984375 -0.3139648
vt 0.008705139 0.07330322
vt 0.9853516 0.05908203
vt 0.009361267 0.4462891
vt 0.9858398 0.4321289
vt 0.01002502 0.8193359
vt 0.9863281 0.8051758
vt 0.01068878 1.192383
vt 0.9873047 1.177734
vt 0.01135254 1.56543
vt 0.987793 1.550781
vt 0.01200867 1.938477
vt 0.9882813 1.923828
vt 0.01268005 2.310547
vt 0.9892578 2.296875
vn -0.9044065 0.3032973 -0.3000994
vn -0.07666755 0.9950678 -0.06294556
vn -0.1130654 0.9935196 -0.01161545
vn -0.5912374 0.3166176 -0.741749
vn -0.9039579 0.354566 0.2390459
vn -0.07671965 0.9891092 -0.1256071
vn -0.5900631 0.450841 0.669752
vn -0.113202 0.9779196 -0.1756662
vn -0.08262002 0.5553489 0.8275033
vn -0.1721793 0.9657732 -0.194001
vn 0.4245462 0.6281705 0.6520447
vn -0.2311246 0.9573096 -0.1736081
vn 0.7377149 0.6414909 0.2103953
vn -0.2675227 0.9557613 -0.1222777
vn 0.7372663 0.5902222 -0.3287493
vn -0.2674708 0.9617199 -0.05961544
vn 0.4233721 0.4939471 -0.7594553
vn -0.2309882 0.9729096 -0.009556952
vn -0.08407142 0.3894395 -0.9172071
vn -0.1720104 0.985056 0.008777189
vn -0.5912374 0.3166176 -0.741749
vn -0.1130654 0.9935196 -0.01161545
vn 0.3160326 0.6715102 -0.670222
vn 0.5831916 0.7534508 -0.3036437
vn -0.1158576 0.582563 -0.8044857
vn -0.5475121 0.5205838 -0.6551512
vn -0.8140531 0.5092465 -0.279259
vn -0.8136714 0.5528817 0.179613
vn -0.5465125 0.6348225 0.5461909
vn -0.114622 0.7237703 0.6804546
vn 0.3170321 0.7857493 0.5311202
vn 0.936461 0.134462 -0.3239766
vn 0.9369729 0.1929686 0.2912813
vn 0.5835732 0.7970862 0.1552283
vn 0.3170321 0.7857493 0.5311202
vn 0.5795929 0.1777679 0.7952802
vn -0.0008282865 -0.09466562 -0.9955088
vn 0.5782527 0.02459574 -0.8154869
vn -0.5782529 -0.02459563 0.8154868
vn -0.936461 -0.1344623 0.3239765
vn -0.9369729 -0.1929685 -0.2912815
vn -0.5795932 -0.1777677 -0.79528
vn 0.5465124 -0.6348227 -0.5461906
vn 0.8136712 -0.5528819 -0.179613
vn 0.814053 -0.5092464 0.2792593
vn 0.5475116 -0.5205836 0.6551517
vn -0.3170322 -0.7857492 -0.5311204
vn 0.1146222 -0.7237702 -0.6804546
vn -0.5835732 -0.7970863 -0.1552282
vn -0.5831915 -0.7534508 0.3036436
vn -0.3160328 -0.6715103 0.6702217
vn 0.0008283118 0.09466571 0.9955088
vn 0.5795929 0.1777679 0.7952802
vn 0.1158575 -0.5825627 0.8044859
vn 0.5475116 -0.5205836 0.6551517
vn 0.1720107 -0.985056 -0.008777272
vn 0.2309878 -0.9729096 0.009557304
vn 0.2674701 -0.9617202 0.05961556
vn 0.2675223 -0.9557615 0.1222775
vn 0.2311244 -0.9573096 0.1736082
vn 0.113202 -0.9779196 0.1756662
vn 0.07671951 -0.9891092 0.1256077
vn 0.07666744 -0.9950678 0.06294566
vn 0.1130654 -0.9935196 0.01161521
vn -0.4245461 -0.6281702 -0.6520451
vn -0.7377151 -0.6414905 -0.2103958
vn -0.7372667 -0.5902217 0.3287495
vn -0.4233718 -0.4939469 0.7594556
vn 0.08407172 -0.3894394 0.9172072
vn 0.5912376 -0.3166177 0.7417488
vn 0.9044065 -0.3032974 0.3000994
vn 0.9039579 -0.3545664 -0.2390456
vn 0.5900636 -0.4508412 -0.6697515
vn 0.1721794 -0.9657733 0.1940008
vn 0.2311244 -0.9573096 0.1736082
vn 0.08262 -0.5553488 -0.8275033
vn -0.4245461 -0.6281702 -0.6520451
vn -0.9044065 0.3032973 -0.3000994
vn -0.5912374 0.3166176 -0.741749
vn -0.4245461 -0.6281702 -0.6520451
vn -0.7377151 -0.6414905 -0.2103958
vn -0.9039579 0.354566 0.2390459
vn -0.7372667 -0.5902217 0.3287495
vn -0.5900631 0.450841 0.669752
vn -0.4233718 -0.4939469 0.7594556
vn -0.08262002 0.5553489 0.8275033
vn 0.08407172 -0.3894394 0.9172072
vn 0.4245462 0.6281705 0.6520447
vn 0.5912376 -0.3166177 0.7417488
vn 0.7377149 0.6414909 0.2103953
vn 0.9044065 -0.3032974 0.3000994
vn 0.7372663 0.5902222 -0.3287493
vn 0.9039579 -0.3545664 -0.2390456
vn 0.4233721 0.4939471 -0.7594553
vn 0.5900636 -0.4508412 -0.6697515
vn -0.08407142 0.3894395 -0.9172071
vn 0.08262 -0.5553488 -0.8275033
vn -0.5912374 0.3166176 -0.741749
vn -0.4245461 -0.6281702 -0.6520451
g m_dlc08_map_rope_07_0
f 3/3/3 2/2/2 1/1/1
f 4/4/4 3/3/3 1/1/1
f 1/1/1 2/2/2 5/5/5
f 2/2/2 6/6/6 5/5/5
f 5/5/5 6/6/6 7/7/7
f 6/6/6 8/8/8 7/7/7
f 7/7/7 8/8/8 9/9/9
f 8/8/8 10/10/10 9/9/9
f 9/9/9 10/10/10 11/11/11
f 10/10/10 12/12/12 11/11/11
f 11/11/11 12/12/12 13/13/13
f 12/12/12 14/14/14 13/13/13
f 13/13/13 14/14/14 15/15/15
f 14/14/14 16/16/16 15/15/15
f 15/15/15 16/16/16 17/17/17
f 16/16/16 18/18/18 17/17/17
f 17/17/17 18/18/18 19/19/19
f 18/18/18 20/20/20 19/19/19
f 19/19/19 20/20/20 21/21/21
f 20/20/20 22/22/22 21/21/21
f 8/8/8 23/23/23 10/10/10
f 24/24/24 23/23/23 8/8/8
f 23/23/23 25/25/25 10/10/10
f 10/10/10 25/25/25 12/12/12
f 25/25/25 26/26/26 12/12/12
f 12/12/12 26/26/26 14/14/14
f 26/26/26 27/27/27 14/14/14
f 14/14/14 27/27/27 16/16/16
f 27/27/27 28/28/28 16/16/16
f 16/16/16 28/28/28 18/18/18
f 28/28/28 29/29/29 18/18/18
f 18/18/18 29/29/29 20/20/20
f 29/29/29 30/30/30 20/20/20
f 20/20/20 30/30/30 22/22/22
f 30/30/30 31/31/31 22/22/22
f 24/24/24 32/32/32 23/23/23
f 33/33/33 32/32/32 24/24/24
f 34/34/34 33/33/33 24/24/24
f 34/34/34 24/24/24 6/6/6
f 2/2/2 34/34/34 6/6/6
f 35/35/35 34/34/34 2/2/2
f 3/3/3 35/35/35 2/2/2
f 6/6/6 24/24/24 8/8/8
f 36/36/36 33/33/33 34/34/34
f 35/35/35 36/36/36 34/34/34
f 25/25/25 37/37/37 26/26/26
f 38/38/38 37/37/37 25/25/25
f 32/32/32 38/38/38 23/23/23
f 23/23/23 38/38/38 25/25/25
f 29/29/29 39/39/39 30/30/30
f 40/40/40 39/39/39 29/29/29
f 28/28/28 40/40/40 29/29/29
f 41/41/41 40/40/40 28/28/28
f 27/27/27 41/41/41 28/28/28
f 42/42/42 41/41/41 27/27/27
f 37/37/37 42/42/42 26/26/26
f 26/26/26 42/42/42 27/27/27
f 38/38/38 43/43/43 37/37/37
f 44/44/44 43/43/43 38/38/38
f 32/32/32 44/44/44 38/38/38
f 45/45/45 44/44/44 32/32/32
f 33/33/33 45/45/45 32/32/32
f 46/46/46 45/45/45 33/33/33
f 36/36/36 46/46/46 33/33/33
f 42/42/42 47/47/47 41/41/41
f 48/48/48 47/47/47 42/42/42
f 43/43/43 48/48/48 37/37/37
f 37/37/37 48/48/48 42/42/42
f 47/47/47 49/49/49 41/41/41
f 41/41/41 49/49/49 40/40/40
f 49/49/49 50/50/50 40/40/40
f 40/40/40 50/50/50 39/39/39
f 50/50/50 51/51/51 39/39/39
f 39/39/39 51/51/51 52/52/52
f 39/39/39 52/52/52 30/30/30
f 30/30/30 52/52/52 31/31/31
f 52/52/52 53/53/53 31/31/31
f 51/51/51 54/54/54 52/52/52
f 52/52/52 54/54/54 53/53/53
f 54/54/54 55/55/55 53/53/53
f 48/48/48 56/56/56 47/47/47
f 57/57/57 56/56/56 48/48/48
f 43/43/43 57/57/57 48/48/48
f 58/58/58 57/57/57 43/43/43
f 44/44/44 58/58/58 43/43/43
f 59/59/59 58/58/58 44/44/44
f 45/45/45 59/59/59 44/44/44
f 60/60/60 59/59/59 45/45/45
f 46/46/46 60/60/60 45/45/45
f 51/51/51 61/61/61 54/54/54
f 62/62/62 61/61/61 51/51/51
f 50/50/50 62/62/62 51/51/51
f 63/63/63 62/62/62 50/50/50
f 49/49/49 63/63/63 50/50/50
f 64/64/64 63/63/63 49/49/49
f 56/56/56 64/64/64 47/47/47
f 47/47/47 64/64/64 49/49/49
f 60/60/60 65/65/65 59/59/59
f 65/65/65 66/66/66 59/59/59
f 59/59/59 66/66/66 58/58/58
f 66/66/66 67/67/67 58/58/58
f 58/58/58 67/67/67 57/57/57
f 67/67/67 68/68/68 57/57/57
f 57/57/57 68/68/68 56/56/56
f 68/68/68 69/69/69 56/56/56
f 56/56/56 69/69/69 64/64/64
f 69/69/69 70/70/70 64/64/64
f 64/64/64 70/70/70 63/63/63
f 70/70/70 71/71/71 63/63/63
f 63/63/63 71/71/71 62/62/62
f 71/71/71 72/72/72 62/62/62
f 72/72/72 73/73/73 61/61/61
f 62/62/62 72/72/72 61/61/61
f 61/61/61 73/73/73 74/74/74
f 61/61/61 74/74/74 54/54/54
f 54/54/54 74/74/74 55/55/55
f 74/74/74 75/75/75 55/55/55
f 73/73/73 76/76/76 74/74/74
f 74/74/74 76/76/76 75/75/75
f 76/76/76 77/77/77 75/75/75
f 80/80/80 79/79/79 78/78/78
f 81/81/81 80/80/80 78/78/78
f 81/81/81 78/78/78 82/82/82
f 83/83/83 81/81/81 82/82/82
f 83/83/83 82/82/82 84/84/84
f 85/85/85 83/83/83 84/84/84
f 85/85/85 84/84/84 86/86/86
f 87/87/87 85/85/85 86/86/86
f 87/87/87 86/86/86 88/88/88
f 89/89/89 87/87/87 88/88/88
f 89/89/89 88/88/88 90/90/90
f 91/91/91 89/89/89 90/90/90
f 91/91/91 90/90/90 92/92/92
f 93/93/93 91/91/91 92/92/92
f 93/93/93 92/92/92 94/94/94
f 95/95/95 93/93/93 94/94/94
f 95/95/95 94/94/94 96/96/96
f 97/97/97 95/95/95 96/96/96
f 97/97/97 96/96/96 98/98/98
f 99/99/99 97/97/97 98/98/98
