g m_dlc07_map_brick_02
v -0.9026912 -0.289713 0.2296128
v -0.9026912 -0.289713 -0.2296129
v -0.9600863 -0.2323169 -0.2296129
v -0.9600863 -0.2323169 0.2296128
v -0.05739827 -0.289713 0.2296128
v -0.05739827 -0.289713 -0.2296129
v -8.145018E-07 -0.2323169 0.2296128
v -8.145018E-07 -0.2323169 -0.2296129
v -0.05739827 -0.2323169 -0.2870089
v -0.9026912 -0.2323169 -0.2870089
v -0.9600863 -0.2323169 -0.2296129
v -0.9600863 0.2323169 -0.2296129
v -0.9026912 0.2323169 -0.2870089
v -8.145018E-07 -0.2323169 -0.2296129
v -0.05739827 0.2323169 -0.2870089
v -8.145018E-07 0.2323169 -0.2296129
v -0.4272054 0.001661873 -0.2870089
v -0.3496737 0.2323169 -0.2870089
v -0.3800081 0.2256778 -0.2675627
v -0.3818831 0.2707087 -0.2234078
v -0.3530501 0.289713 -0.2296129
v -0.4222249 0.2704924 -0.1167028
v -0.4169564 0.289713 -0.05592152
v -0.42868 0.07846401 -0.2691457
v -0.05739827 0.289713 0.2296128
v -0.9026912 0.289713 0.2296128
v -0.05739827 0.2323169 0.2870088
v -0.9026912 0.2323169 0.2870088
v -0.9026912 -0.2323169 0.2870088
v -0.9600863 -0.2323169 0.2296128
v -0.9600863 0.2323169 0.2296128
v -0.05739827 -0.2323169 0.2870088
v -0.05739827 -0.289713 0.2296128
v -0.9026912 -0.289713 0.2296128
v -8.145018E-07 0.2323169 0.2296128
v -8.145018E-07 -0.2323169 0.2296128
v -8.145018E-07 0.2323169 -0.2296129
v -8.145018E-07 -0.2323169 -0.2296129
v -0.9600863 -0.2323169 -0.2296129
v -0.9600863 0.2323169 -0.2296129
v -0.9600863 0.2323169 0.2296128
v -0.9026912 0.289713 -0.2296129
v -0.9600863 0.2323169 -0.2296129
v -0.5216463 0.289713 -0.2296129
v -0.5254964 0.232317 -0.2870089
v -0.4947689 0.2271357 -0.2697188
v -0.42868 0.07846401 -0.2691457
v -0.4907601 0.2706988 -0.2289318
v -0.4222249 0.2704924 -0.1167028
v -0.05739827 0.289713 -0.2296129
v -8.145018E-07 0.2323169 -0.2296129
v -8.145018E-07 0.2323169 0.2296128
vt 0.5556641 0.5957031
vt 0.5551758 0.6103516
vt 0.5576172 0.6103516
vt 0.5581055 0.5961914
vt 0.5292969 0.5952148
vt 0.5288086 0.609375
vt 0.5268555 0.5952148
vt 0.5263672 0.609375
vt 0.5292969 0.6123047
vt 0.5551758 0.612793
vt 0.5576172 0.6123047
vt 0.5581055 0.6269531
vt 0.5556641 0.6269531
vt 0.5268555 0.6113281
vt 0.527832 0.6264648
vt 0.5253906 0.6259766
vt 0.5400391 0.6201172
vt 0.5366211 0.6264648
vt 0.5375977 0.6269531
vt 0.5375977 0.6289063
vt 0.5371094 0.6289063
vt 0.5400391 0.6318359
vt 0.5395508 0.6342773
vt 0.5400391 0.6225586
vt 0.5283203 0.6430664
vt 0.5551758 0.6435547
vt 0.5283203 0.6455078
vt 0.5546875 0.6459961
vt 0.5546875 0.6601563
vt 0.5571289 0.6606445
vt 0.5571289 0.6455078
vt 0.5283203 0.6601563
vt 0.5283203 0.6625977
vt 0.5546875 0.6625977
vt 0.5258789 0.6455078
vt 0.5258789 0.6601563
vt 0.5117188 0.6455078
vt 0.5117188 0.6601563
vt 0.5717773 0.6601563
vt 0.5717773 0.6459961
vt 0.5576172 0.6435547
vt 0.5551758 0.6293945
vt 0.5576172 0.6289063
vt 0.543457 0.6289063
vt 0.5439453 0.6269531
vt 0.5429688 0.6269531
vt 0.5400391 0.6225586
vt 0.5429688 0.6289063
vt 0.5400391 0.6318359
vt 0.5283203 0.6289063
vt 0.5258789 0.628418
vt 0.5253906 0.6430664
vn -0.05871613 -0.9926199 0.106104
vn -0.05871616 -0.9926199 -0.106104
vn -0.989513 -0.1015614 -0.1027104
vn -0.989513 -0.1015613 0.1027103
vn 0.05871595 -0.9926199 0.1061038
vn 0.05871599 -0.9926199 -0.1061038
vn 0.9895119 -0.1015669 0.1027145
vn 0.9895119 -0.101567 -0.1027145
vn 0.141054 -0.2520445 -0.9573805
vn -0.1252816 -0.2238618 -0.9665353
vn -0.989513 -0.1015614 -0.1027104
vn -0.989513 0.1015614 -0.1027104
vn -0.1343673 0.1106153 -0.9847383
vn 0.9895119 -0.101567 -0.1027145
vn 0.1657135 0.1072501 -0.9803247
vn 0.9895119 0.101567 -0.1027145
vn 7.324728E-05 0.001654177 -0.9999987
vn -0.02124082 0.1154423 -0.993087
vn -0.8086036 0.3085048 -0.500984
vn -0.8250374 0.4418657 -0.3522329
vn -0.01951611 0.9926075 -0.11979
vn -0.778185 0.5556905 -0.2926366
vn 9.841457E-05 0.9999977 -0.00212981
vn -0.7089706 0.238856 -0.6635576
vn 0.1387874 0.9580387 0.2507985
vn -0.1248388 0.9661902 0.2255923
vn 0.05876848 0.1050113 0.992733
vn -0.0587686 0.1050115 0.992733
vn -0.0587686 -0.1050115 0.992733
vn -0.989513 -0.1015613 0.1027103
vn -0.989513 0.1015613 0.1027103
vn 0.05876848 -0.1050113 0.992733
vn 0.05871595 -0.9926199 0.1061038
vn -0.05871613 -0.9926199 0.106104
vn 0.9895119 0.1015669 0.1027145
vn 0.9895119 -0.1015669 0.1027145
vn 0.9895119 0.101567 -0.1027145
vn 0.9895119 -0.101567 -0.1027145
vn -0.989513 -0.1015614 -0.1027104
vn -0.989513 0.1015614 -0.1027104
vn -0.989513 0.1015613 0.1027103
vn -0.1392969 0.9834365 -0.1159699
vn -0.989513 0.1015614 -0.1027104
vn 0.01240789 0.9942477 -0.1063841
vn 0.01418307 0.1106348 -0.9937599
vn 0.7171472 0.352967 -0.6009278
vn 0.6448419 0.2841362 -0.7095389
vn 0.7314566 0.4891882 -0.4750433
vn 0.6933891 0.5871435 -0.4177008
vn 0.1759392 0.9776423 -0.1151562
vn 0.9895119 0.101567 -0.1027145
vn 0.9895119 0.1015669 0.1027145
g m_dlc07_map_brick_02_0
f 3/3/3 2/2/2 1/1/1
f 4/4/4 3/3/3 1/1/1
f 5/5/5 1/1/1 2/2/2
f 6/6/6 5/5/5 2/2/2
f 5/5/5 6/6/6 7/7/7
f 6/6/6 8/8/8 7/7/7
f 9/9/9 6/6/6 2/2/2
f 10/10/10 9/9/9 2/2/2
f 10/10/10 2/2/2 11/11/11
f 10/10/10 11/11/11 12/12/12
f 13/13/13 10/10/10 12/12/12
f 9/9/9 14/14/14 6/6/6
f 14/14/14 9/9/9 15/15/15
f 16/16/16 14/14/14 15/15/15
f 17/17/17 9/9/9 10/10/10
f 17/17/17 10/10/10 13/13/13
f 18/18/18 15/15/15 9/9/9
f 17/17/17 18/18/18 9/9/9
f 18/18/18 17/17/17 19/19/19
f 18/18/18 19/19/19 20/20/20
f 21/21/21 18/18/18 20/20/20
f 21/21/21 20/20/20 22/22/22
f 23/23/23 21/21/21 22/22/22
f 17/17/17 24/24/24 19/19/19
f 20/20/20 19/19/19 24/24/24
f 22/22/22 20/20/20 24/24/24
f 23/23/23 25/25/25 21/21/21
f 25/25/25 23/23/23 26/26/26
f 27/27/27 25/25/25 26/26/26
f 28/28/28 27/27/27 26/26/26
f 27/27/27 28/28/28 29/29/29
f 29/29/29 28/28/28 30/30/30
f 28/28/28 31/31/31 30/30/30
f 28/28/28 26/26/26 31/31/31
f 32/32/32 27/27/27 29/29/29
f 33/33/33 32/32/32 29/29/29
f 34/34/34 33/33/33 29/29/29
f 29/29/29 30/30/30 34/34/34
f 35/35/35 27/27/27 32/32/32
f 27/27/27 35/35/35 25/25/25
f 36/36/36 35/35/35 32/32/32
f 32/32/32 33/33/33 36/36/36
f 37/37/37 35/35/35 36/36/36
f 38/38/38 37/37/37 36/36/36
f 30/30/30 31/31/31 39/39/39
f 31/31/31 40/40/40 39/39/39
f 26/26/26 42/42/42 41/41/41
f 42/42/42 43/43/43 41/41/41
f 42/42/42 13/13/13 43/43/43
f 42/42/42 44/44/44 13/13/13
f 44/44/44 42/42/42 26/26/26
f 44/44/44 45/45/45 13/13/13
f 45/45/45 44/44/44 46/46/46
f 45/45/45 46/46/46 47/47/47
f 17/17/17 45/45/45 47/47/47
f 45/45/45 17/17/17 13/13/13
f 44/44/44 48/48/48 46/46/46
f 48/48/48 44/44/44 23/23/23
f 23/23/23 44/44/44 26/26/26
f 49/49/49 48/48/48 23/23/23
f 46/46/46 48/48/48 49/49/49
f 47/47/47 46/46/46 49/49/49
f 51/51/51 50/50/50 25/25/25
f 52/52/52 51/51/51 25/25/25
f 50/50/50 51/51/51 15/15/15
f 25/25/25 50/50/50 21/21/21
f 50/50/50 15/15/15 18/18/18
f 21/21/21 50/50/50 18/18/18
