g m_dlc4_map_pathedge_02
v 0.2912445 0.05233362 -0.3229405
v 0.2294133 0.2152967 -0.3361228
v 0.2491165 0.2164181 -0.4100019
v 0.3107715 0.05371214 -0.3961265
v 0.262876 0.06031616 -0.6494303
v 0.2138692 0.2217944 -0.5953648
v 0.1917912 0.2605687 -0.3847648
v 0.03205841 0.2587991 -0.198172
v 0.08688247 0.2137042 -0.1696844
v 0.1518536 0.2659668 -0.5912721
v 0.1596567 0.2240183 -0.6544639
v 0.2116832 0.06241614 -0.7052372
v -0.01068512 0.2278226 -0.7021836
v -0.03695099 0.2701837 -0.644163
v -0.1124097 0.2696593 -0.5695219
v -0.1461192 0.2278711 -0.624271
v -0.0892015 0.2285905 -0.6814548
v -0.03404633 0.06790428 -0.7740738
v -0.1072926 0.0686207 -0.7547385
v -0.09664246 0.2608654 -0.1991976
v -0.1590211 0.2182837 -0.1866636
v -0.173768 0.2266696 -0.5531779
v -0.2097923 0.06786464 -0.6514524
v -0.2372485 0.06667166 -0.5808555
v -0.2194237 0.05608596 -0.1342777
v -0.1084422 0.216359 -0.1380306
v -0.1648331 0.05400862 -0.08178996
v 0.01759766 0.214069 -0.1378306
v 0.04285309 0.0507086 -0.0816244
v 0.1116852 0.05034622 -0.1132713
v -0.1409041 0 -0.8114023
v -0.2624411 0 -0.6900935
v -0.2982887 0 -0.5981561
v -0.276541 0 -0.1194125
v -0.1917835 0 -0.03747007
v 0.0493364 0 -0.03437021
v 0.1402579 0 -0.0761572
v 0.3358263 0 -0.3046963
v 0.3617806 0 -0.4021905
v 0.3077975 0 -0.6829361
v 0.2355765 0 -0.7613675
v -0.0391827 0 -0.8383393
v 0.2018431 0.09060936 0.3638223
v 0.1423256 0.2530795 0.3586892
v 0.1384294 0.2486512 0.282111
v 0.197952 0.08663464 0.2882678
v 0.1199384 0.07570007 0.05916489
v 0.08026489 0.2413414 0.1121368
v 0.08857483 0.2956977 0.3208833
v 0.04588806 0.3060595 0.5011705
v 0.1053812 0.2626804 0.5190968
v 0.02153488 0.2865165 0.1280316
v 0.01731873 0.2400603 0.06830887
v 0.0577742 0.07443494 0.01588211
v -0.100415 0.242209 0.07131515
v -0.1038654 0.2888049 0.1312352
v -0.1708826 0.2990814 0.3022447
v -0.2216034 0.2542023 0.264248
v -0.1647357 0.2457203 0.1166748
v -0.1466345 0.078165 0.02110062
v -0.2084851 0.08154174 0.06471787
v -0.1119676 0.3087038 0.5007826
v -0.1727075 0.2673877 0.5193341
v -0.2248125 0.2583327 0.3404751
v -0.2875748 0.09388053 0.2704823
v -0.2907559 0.09797607 0.3460634
v -0.2204437 0.1097345 0.5881411
v -0.111741 0.268811 0.5651962
v -0.1599123 0.1111475 0.6336735
v 0.04680908 0.2661547 0.5655835
v 0.0913179 0.1069389 0.6342871
v 0.1505952 0.1034223 0.5872438
v -0.2592735 0 0.04891877
v -0.3487017 0 0.2775888
v -0.352466 0 0.3712645
v -0.2722423 0 0.6385195
v -0.1834655 0 0.704973
v 0.1036882 0 0.70566
v 0.1921944 0 0.636189
v 0.2523088 0 0.3873722
v 0.2476663 0 0.2963151
v 0.1594733 0 0.04412078
v 0.0680991 0 -0.01957206
v -0.1706602 0 -0.01381941
vt 0.2851563 0.4226074
vt 0.2954102 0.4394531
vt 0.3032227 0.4353027
vt 0.2954102 0.4169922
vt 0.3339844 0.4174805
vt 0.3254395 0.4343262
vt 0.3027344 0.4436035
vt 0.2878418 0.4660645
vt 0.2814941 0.4609375
vt 0.3261719 0.4423828
vt 0.3334961 0.4389648
vt 0.3442383 0.4230957
vt 0.3432617 0.4570313
vt 0.3366699 0.4611816
vt 0.331543 0.4711914
vt 0.3391113 0.4741211
vt 0.3435059 0.4663086
vt 0.362793 0.4560547
vt 0.3625488 0.4677734
vt 0.2912598 0.4797363
vt 0.2910156 0.487793
vt 0.3325195 0.479248
vt 0.3530273 0.4880371
vt 0.3447266 0.4963379
vt 0.282959 0.5063477
vt 0.2844238 0.4833984
vt 0.2729492 0.4992676
vt 0.2802734 0.4694824
vt 0.2607422 0.4689941
vt 0.2614746 0.4570313
vt 0.3737793 0.470459
vt 0.3620605 0.494873
vt 0.3503418 0.5063477
vt 0.2822266 0.5161133
vt 0.2666016 0.5058594
vt 0.2524414 0.4707031
vt 0.2536621 0.4541016
vt 0.2797852 0.4157715
vt 0.2944336 0.407959
vt 0.3381348 0.407959
vt 0.3527832 0.4165039
vt 0.3740234 0.4541016
vt 0.1688232 0.4812012
vt 0.1508789 0.4902344
vt 0.1542969 0.4980469
vt 0.1728516 0.4914551
vt 0.1712646 0.527832
vt 0.1550293 0.5185547
vt 0.145752 0.4970703
vt 0.1334229 0.4819336
vt 0.138916 0.4765625
vt 0.1469727 0.5185547
vt 0.1499023 0.5258789
vt 0.1645508 0.5371094
vt 0.137085 0.5302734
vt 0.1341553 0.5234375
vt 0.1202393 0.5107422
vt 0.1154175 0.5175781
vt 0.128418 0.5292969
vt 0.1358643 0.5493164
vt 0.1243896 0.5478516
vt 0.118042 0.4892578
vt 0.1099243 0.489502
vt 0.1119385 0.5097656
vt 0.09844971 0.5273438
vt 0.09320068 0.5175781
vt 0.09350586 0.4804688
vt 0.1146851 0.482666
vt 0.09918213 0.4707031
vt 0.1307373 0.4746094
vt 0.1326904 0.4562988
vt 0.1437988 0.4584961
vt 0.1173706 0.5576172
vt 0.08612061 0.5332031
vt 0.07891846 0.5185547
vt 0.07891846 0.4743652
vt 0.08880615 0.4589844
vt 0.1295166 0.4411621
vt 0.1478271 0.4440918
vt 0.1778564 0.4719238
vt 0.1842041 0.4868164
vt 0.1817627 0.5292969
vt 0.1710205 0.5449219
vt 0.1357422 0.5600586
vn 0.8173652 0.08433805 0.5699134
vn 0.7139121 0.4712819 0.5179026
vn 0.8756296 0.4778303 -0.07036375
vn 0.9924347 0.09502304 -0.0777429
vn 0.9449442 0.1034543 -0.3104475
vn 0.8388019 0.4846963 -0.2479536
vn 0.1052732 0.9931855 0.04999948
vn 0.05808458 0.9941115 0.09147995
vn 0.6189286 0.4703179 0.6290695
vn 0.08403067 0.9957704 -0.03715176
vn 0.3410281 0.5029188 -0.7942119
vn 0.3964537 0.1250199 -0.9095024
vn 0.145882 0.5073681 -0.8492916
vn 0.009827313 0.9988447 -0.04703743
vn -0.08207045 0.9965773 0.009903213
vn -0.6986644 0.4989484 -0.5127558
vn -0.4890085 0.5074977 -0.7094483
vn 0.1444107 0.130516 -0.9808726
vn -0.5535074 0.1411923 -0.8207887
vn -0.110936 0.991024 0.074596
vn -0.8595309 0.4961121 0.122798
vn -0.8602055 0.5099459 0.001301926
vn -0.8001848 0.1342941 -0.5845249
vn -0.9919927 0.1249015 -0.01871107
vn -0.9809268 0.1205626 0.1524705
vn -0.1594072 0.4678016 0.8693394
vn -0.2101051 0.0937639 0.9731722
vn 0.1080198 0.452639 0.8851269
vn 0.1219625 0.08197661 0.9891436
vn 0.6906344 0.08278121 0.7184506
vn -0.5719855 0.0279917 -0.819786
vn -0.8008692 0.0265135 -0.5982521
vn -0.9997009 0.0162867 -0.01824688
vn -0.9895157 0.01238469 0.1438933
vn -0.1971713 -0.01948509 0.9801754
vn 0.1127582 -0.0247081 0.9933152
vn 0.6966417 -0.02759421 0.7168884
vn 0.8176171 -0.02624378 0.5751639
vn 0.9961223 -0.0138035 -0.08688993
vn 0.9521731 -0.008063727 -0.3054529
vn 0.3873489 0.01511919 -0.9218091
vn 0.1537069 0.02035186 -0.9879069
vn 0.9841353 0.09981007 0.1466817
vn 0.8686244 0.482354 0.1132532
vn 0.8475031 0.4658653 -0.2543778
vn 0.9625698 0.07884825 -0.2593114
vn 0.8802829 0.07307681 -0.4687876
vn 0.7867469 0.4585572 -0.4132247
vn 0.1124368 0.9918972 -0.05914417
vn 0.09198651 0.9951543 0.03473388
vn 0.8186097 0.4941398 0.2927527
vn 0.09202302 0.9869168 -0.1323902
vn 0.1331775 0.4318923 -0.8920385
vn 0.1567982 0.05529351 -0.9860816
vn -0.1540115 0.4358455 -0.8867463
vn -0.04884388 0.9904878 -0.1286399
vn -0.08271495 0.995041 -0.0552437
vn -0.8273051 0.4901222 -0.274493
vn -0.7535639 0.4819748 -0.4470367
vn -0.1927815 0.0610229 -0.9793423
vn -0.8576545 0.1006317 -0.5042838
vn -0.06166949 0.9974341 0.03636178
vn -0.7886099 0.5230926 0.3232158
vn -0.8428426 0.5148846 0.1565574
vn -0.953487 0.1099354 -0.2806721
vn -0.9714687 0.1356294 0.1945592
vn -0.8979951 0.1498143 0.4137153
vn -0.1172044 0.5291768 0.8403779
vn -0.1557528 0.1641509 0.9740614
vn 0.1352407 0.5252169 0.840153
vn 0.1629819 0.1590054 0.9737321
vn 0.9170291 0.1183439 0.3808574
vn -0.8708391 -0.01157868 -0.4914317
vn -0.9597865 0.001190067 -0.2807282
vn -0.9782977 0.02749642 0.2053718
vn -0.910243 0.03741825 0.4123803
vn -0.1457184 0.05528734 0.98778
vn 0.148924 0.050302 0.9875684
vn 0.9257789 0.004585801 0.3780374
vn 0.9875807 -0.008284751 0.1568939
vn 0.965641 -0.03010841 -0.25813
vn 0.8891905 -0.03939026 -0.4558384
vn 0.1406425 -0.05523737 -0.9885183
vn -0.1814611 -0.04945853 -0.9821536
g m_dlc4_map_pathedge_02_0
f 3/3/3 2/2/2 1/1/1
f 4/4/4 3/3/3 1/1/1
f 4/4/4 5/5/5 3/3/3
f 5/5/5 6/6/6 3/3/3
f 3/3/3 6/6/6 7/7/7
f 3/3/3 7/7/7 2/2/2
f 7/7/7 8/8/8 2/2/2
f 8/8/8 9/9/9 2/2/2
f 1/1/1 2/2/2 9/9/9
f 6/6/6 10/10/10 7/7/7
f 11/11/11 6/6/6 5/5/5
f 6/6/6 11/11/11 10/10/10
f 12/12/12 11/11/11 5/5/5
f 11/11/11 13/13/13 10/10/10
f 13/13/13 14/14/14 10/10/10
f 10/10/10 14/14/14 15/15/15
f 15/15/15 7/7/7 10/10/10
f 16/16/16 15/15/15 14/14/14
f 17/17/17 16/16/16 14/14/14
f 13/13/13 17/17/17 14/14/14
f 17/17/17 13/13/13 18/18/18
f 18/18/18 13/13/13 11/11/11
f 12/12/12 18/18/18 11/11/11
f 19/19/19 17/17/17 18/18/18
f 15/15/15 20/20/20 7/7/7
f 20/20/20 8/8/8 7/7/7
f 21/21/21 20/20/20 15/15/15
f 22/22/22 21/21/21 15/15/15
f 16/16/16 22/22/22 15/15/15
f 22/22/22 16/16/16 23/23/23
f 23/23/23 16/16/16 17/17/17
f 19/19/19 23/23/23 17/17/17
f 24/24/24 22/22/22 23/23/23
f 25/25/25 21/21/21 22/22/22
f 24/24/24 25/25/25 22/22/22
f 26/26/26 21/21/21 25/25/25
f 21/21/21 26/26/26 20/20/20
f 27/27/27 26/26/26 25/25/25
f 26/26/26 28/28/28 20/20/20
f 28/28/28 8/8/8 20/20/20
f 29/29/29 28/28/28 26/26/26
f 27/27/27 29/29/29 26/26/26
f 9/9/9 28/28/28 29/29/29
f 28/28/28 9/9/9 8/8/8
f 30/30/30 9/9/9 29/29/29
f 30/30/30 1/1/1 9/9/9
f 19/19/19 31/31/31 23/23/23
f 31/31/31 32/32/32 23/23/23
f 23/23/23 32/32/32 24/24/24
f 24/24/24 33/33/33 25/25/25
f 32/32/32 33/33/33 24/24/24
f 33/33/33 34/34/34 25/25/25
f 25/25/25 34/34/34 27/27/27
f 27/27/27 35/35/35 29/29/29
f 34/34/34 35/35/35 27/27/27
f 35/35/35 36/36/36 29/29/29
f 29/29/29 36/36/36 30/30/30
f 30/30/30 37/37/37 1/1/1
f 36/36/36 37/37/37 30/30/30
f 37/37/37 38/38/38 1/1/1
f 1/1/1 38/38/38 4/4/4
f 38/38/38 39/39/39 4/4/4
f 4/4/4 39/39/39 5/5/5
f 39/39/39 40/40/40 5/5/5
f 5/5/5 40/40/40 12/12/12
f 40/40/40 41/41/41 12/12/12
f 12/12/12 41/41/41 18/18/18
f 41/41/41 42/42/42 18/18/18
f 42/42/42 31/31/31 19/19/19
f 18/18/18 42/42/42 19/19/19
f 45/45/45 44/44/44 43/43/43
f 46/46/46 45/45/45 43/43/43
f 46/46/46 47/47/47 45/45/45
f 47/47/47 48/48/48 45/45/45
f 45/45/45 48/48/48 49/49/49
f 45/45/45 49/49/49 44/44/44
f 49/49/49 50/50/50 44/44/44
f 50/50/50 51/51/51 44/44/44
f 43/43/43 44/44/44 51/51/51
f 48/48/48 52/52/52 49/49/49
f 53/53/53 48/48/48 47/47/47
f 48/48/48 53/53/53 52/52/52
f 54/54/54 53/53/53 47/47/47
f 53/53/53 55/55/55 52/52/52
f 55/55/55 56/56/56 52/52/52
f 49/49/49 52/52/52 56/56/56
f 56/56/56 57/57/57 49/49/49
f 58/58/58 57/57/57 56/56/56
f 59/59/59 58/58/58 56/56/56
f 55/55/55 59/59/59 56/56/56
f 59/59/59 55/55/55 60/60/60
f 60/60/60 55/55/55 53/53/53
f 54/54/54 60/60/60 53/53/53
f 61/61/61 59/59/59 60/60/60
f 57/57/57 62/62/62 49/49/49
f 62/62/62 50/50/50 49/49/49
f 63/63/63 62/62/62 57/57/57
f 64/64/64 63/63/63 57/57/57
f 58/58/58 64/64/64 57/57/57
f 64/64/64 58/58/58 65/65/65
f 65/65/65 58/58/58 59/59/59
f 61/61/61 65/65/65 59/59/59
f 66/66/66 64/64/64 65/65/65
f 67/67/67 63/63/63 64/64/64
f 66/66/66 67/67/67 64/64/64
f 68/68/68 63/63/63 67/67/67
f 63/63/63 68/68/68 62/62/62
f 69/69/69 68/68/68 67/67/67
f 68/68/68 70/70/70 62/62/62
f 70/70/70 50/50/50 62/62/62
f 71/71/71 70/70/70 68/68/68
f 69/69/69 71/71/71 68/68/68
f 51/51/51 70/70/70 71/71/71
f 70/70/70 51/51/51 50/50/50
f 72/72/72 51/51/51 71/71/71
f 72/72/72 43/43/43 51/51/51
f 61/61/61 73/73/73 65/65/65
f 73/73/73 74/74/74 65/65/65
f 65/65/65 74/74/74 66/66/66
f 66/66/66 75/75/75 67/67/67
f 74/74/74 75/75/75 66/66/66
f 75/75/75 76/76/76 67/67/67
f 67/67/67 76/76/76 69/69/69
f 69/69/69 77/77/77 71/71/71
f 76/76/76 77/77/77 69/69/69
f 77/77/77 78/78/78 71/71/71
f 71/71/71 78/78/78 72/72/72
f 72/72/72 79/79/79 43/43/43
f 78/78/78 79/79/79 72/72/72
f 79/79/79 80/80/80 43/43/43
f 43/43/43 80/80/80 46/46/46
f 80/80/80 81/81/81 46/46/46
f 46/46/46 81/81/81 47/47/47
f 81/81/81 82/82/82 47/47/47
f 47/47/47 82/82/82 54/54/54
f 82/82/82 83/83/83 54/54/54
f 54/54/54 83/83/83 60/60/60
f 83/83/83 84/84/84 60/60/60
f 84/84/84 73/73/73 61/61/61
f 60/60/60 84/84/84 61/61/61
