g m_dlc08_map_popcorn_03
v -0.1254858 0.06942229 0.06675415
v -0.06100769 0.1122201 0.1109326
v -0.1498767 0.1380906 0.1112463
v -0.1011194 0.1380906 0.1834326
v -0.04535278 0.0694223 0.1838769
v -0.06100769 0.02662446 0.1109326
v -0.1254858 0.06942229 0.06675415
v -0.1899878 0.1122203 0.1837451
v -0.2056433 0.06942236 0.1108008
v -0.1255102 0.06942233 0.2279236
v -0.1254858 0.06942229 0.06675415
v -0.1498767 0.1380906 0.1112463
v -0.2056433 0.06942236 0.1108008
v -0.1498767 0.0007540798 0.1112463
v -0.1899878 0.02662438 0.1837451
v -0.1011194 0.0007541275 0.1834326
v -0.06100769 0.02662446 0.1109326
v -0.1254858 0.06942229 0.06675415
v -0.04535278 0.0694223 0.1838769
v -0.1255102 0.06942233 0.2279236
v -0.1899878 0.1122203 0.1837451
v -0.2056433 0.06942236 0.1108008
v -0.1255102 0.06942233 0.2279236
v -0.1011194 0.1380906 0.1834326
v 0.0680896 0.0870246 -0.2791125
v 0.1119244 0.08342747 -0.3002942
v 0.10547 0.138805 -0.2340063
v 0.1200403 0.1164932 -0.1591943
v 0.1800598 0.1091705 -0.2586121
v 0.1653796 0.1140248 -0.1763757
v 0.0680896 0.0870246 -0.2791125
v 0.1032202 -0.01287828 -0.194624
v 0.08868347 0.004523485 -0.2716333
v 0.0680896 0.0870246 -0.2791125
v 0.08868347 0.004523485 -0.2716333
v 0.1119244 0.08342747 -0.3002942
v 0.1707153 0.02660884 -0.2824512
v 0.1800598 0.1091705 -0.2586121
v 0.1200403 0.1164932 -0.1591943
v 0.1427582 0.03539543 -0.1463611
v 0.1032202 -0.01287828 -0.194624
v 0.1653796 0.1140248 -0.1763757
v 0.203941 0.04572869 -0.2049756
v 0.1800598 0.1091705 -0.2586121
v 0.1707153 0.02660884 -0.2824512
v 0.1032202 -0.01287828 -0.194624
v 0.1490747 -0.01819797 -0.2139331
v 0.08868347 0.004523485 -0.2716333
v 0.1427582 0.03539543 -0.1463611
v 0.1707153 0.02660884 -0.2824512
v 0.203941 0.04572869 -0.2049756
v 0.0680896 0.0870246 -0.2791125
v 0.02028015 -0.01083574 -0.2645422
v 0.1032202 -0.01287828 -0.194624
v -0.02830139 0.09453703 -0.2697144
v 0.0680896 0.0870246 -0.2791125
v 0.1200403 0.1164932 -0.1591943
v 0.04059692 0.1686631 -0.2127148
v -0.02830139 0.09453703 -0.2697144
v 0.04393066 0.1361094 -0.1012732
v -0.05499329 0.1271075 -0.1614673
v 0.02028015 -0.01083574 -0.2645422
v 0.02361511 -0.04339097 -0.1530981
v 0.1032202 -0.01287828 -0.194624
v -0.06755005 0.01617041 -0.1934998
v 0.09251282 0.03073584 -0.09609985
v -0.02290466 0.04186272 -0.08939453
v 0.1032202 -0.01287828 -0.194624
v 0.09251282 0.03073584 -0.09609985
v 0.1200403 0.1164932 -0.1591943
v 0.04393066 0.1361094 -0.1012732
v -0.02290466 0.04186272 -0.08939453
v -0.05499329 0.1271075 -0.1614673
v -0.02830139 0.09453703 -0.2697144
v -0.06755005 0.01617041 -0.1934998
v 0.02028015 -0.01083574 -0.2645422
v -0.05499329 0.1271075 -0.1614673
v -0.02290466 0.04186272 -0.08939453
v 0.04356323 0.1777187 0.15953
v 0.02962524 0.1896167 0.214646
v -0.0241333 0.1213424 0.1700561
v 0.1233984 0.1607299 0.2119751
v -0.02095825 0.1268389 0.264845
v 0.06946106 0.1515197 0.291698
v 0.1282806 0.08017875 0.2668921
v 0.140589 0.07129657 0.2095032
v 0.04356323 0.1777187 0.15953
v 0.04032715 0.05869832 0.2981189
v -0.02095825 0.1268389 0.264845
v 0.04356323 0.1777187 0.15953
v -0.0241333 0.1213424 0.1700561
v -0.001535645 0.03405964 0.169978
v -0.0241333 0.1213424 0.1700561
v -0.01715088 0.04088487 0.2252112
v -0.001535645 0.03405964 0.169978
v -0.02095825 0.1268389 0.264845
v 0.04032715 0.05869832 0.2981189
v -0.001535645 0.03405964 0.169978
v 0.07621582 0.01055101 0.2226953
v 0.140589 0.07129657 0.2095032
v -0.01715088 0.04088487 0.2252112
v 0.1282806 0.08017875 0.2668921
v 0.04032715 0.05869832 0.2981189
v 0.04356323 0.1777187 0.15953
v 0.1683478 0.1709562 0.1389478
v 0.140589 0.07129657 0.2095032
v 0.07193481 0.1950941 0.05039917
v -0.03139526 0.1164314 0.07962646
v 0.05131836 0.083623 -0.01937622
v 0.1747662 0.1173255 0.01728638
v 0.134989 -0.009407787 0.02605347
v 0.04356323 0.1777187 0.15953
v -0.001535645 0.03405964 0.169978
v -0.03139526 0.1164314 0.07962646
v 0.007575683 -0.009954729 0.06457885
v 0.05131836 0.083623 -0.01937622
v 0.1683478 0.1709562 0.1389478
v 0.2073181 0.0445688 0.1239001
v 0.140589 0.07129657 0.2095032
v 0.1747662 0.1173255 0.01728638
v 0.134989 -0.009407787 0.02605347
v 0.140589 0.07129657 0.2095032
v 0.103988 -0.03409402 0.1531274
v -0.001535645 0.03405964 0.169978
v 0.2073181 0.0445688 0.1239001
v 0.007575683 -0.009954729 0.06457885
v 0.134989 -0.009407787 0.02605347
v 0.05131836 0.083623 -0.01937622
vt 0.9931641 0.09637451
vt 0.9936523 0.09515381
vt 0.9921875 0.09552002
vt 0.9926758 0.09429932
vt 0.9936523 0.09393311
vt 0.9946289 0.0947876
vt 0.9946289 0.09613037
vt 0.9912109 0.09466553
vt 0.9907227 0.0958252
vt 0.9916992 0.09338379
vt 0.9555664 0.1126709
vt 0.9555664 0.1114502
vt 0.9541016 0.1121216
vt 0.9545898 0.1134033
vt 0.9536133 0.1129761
vt 0.9536133 0.1143799
vt 0.9550781 0.1148071
vt 0.9555664 0.1137695
vt 0.9541016 0.1156616
vt 0.9526367 0.1140137
vt 0.9521484 0.1127319
vt 0.953125 0.1118164
vt 0.9526367 0.1151123
vt 0.953125 0.116333
vt 0.9838867 0.1074219
vt 0.9833984 0.1085205
vt 0.9848633 0.1085205
vt 0.9858398 0.1082153
vt 0.984375 0.1096802
vt 0.9858398 0.109375
vt 0.8886719 0.09814453
vt 0.8896484 0.09643555
vt 0.8881836 0.09674072
vt 0.9389648 0.08880615
vt 0.9379883 0.08959961
vt 0.9389648 0.08984375
vt 0.9379883 0.09075928
vt 0.9394531 0.09106445
vt 0.9018555 0.09484863
vt 0.9008789 0.09576416
vt 0.9018555 0.09680176
vt 0.9008789 0.09448242
vt 0.8999023 0.09503174
vt 0.8999023 0.09381104
vt 0.8989258 0.09436035
vt 0.9516602 0.09057617
vt 0.9526367 0.09014893
vt 0.9521484 0.08917236
vt 0.9526367 0.09136963
vt 0.953125 0.08917236
vt 0.9541016 0.0904541
vt 0.8886719 0.09814453
vt 0.890625 0.0980835
vt 0.8896484 0.09643555
vt 0.8896484 0.09979248
vt 0.9838867 0.1074219
vt 0.9858398 0.1082153
vt 0.9858398 0.1064453
vt 0.984375 0.1052856
vt 0.9873047 0.1065674
vt 0.9863281 0.1047363
vt 0.9467773 0.09698486
vt 0.9453125 0.09710693
vt 0.9458008 0.09881592
vt 0.9458008 0.09527588
vt 0.9438477 0.0982666
vt 0.9438477 0.09606934
vt 0.9311523 0.1053467
vt 0.9311523 0.1072998
vt 0.9326172 0.1066284
vt 0.9326172 0.1085815
vt 0.9306641 0.1091919
vt 0.9321289 0.1104736
vt 0.9321289 0.1109619
vt 0.9335938 0.1123047
vt 0.934082 0.1104736
vt 0.9316406 0.112854
vt 0.9331055 0.1141968
vt 0.9624023 0.1071777
vt 0.9633789 0.1075439
vt 0.9633789 0.1060791
vt 0.9628906 0.1088867
vt 0.9648438 0.1070557
vt 0.9643555 0.1086426
vt 0.9638672 0.1101074
vt 0.9624023 0.1104126
vt 0.9614258 0.1084595
vt 0.965332 0.1098633
vt 0.9658203 0.1083984
vt 0.9760742 0.1027222
vt 0.9750977 0.1040039
vt 0.9760742 0.1051025
vt 0.9697266 0.09124756
vt 0.96875 0.09051514
vt 0.96875 0.09173584
vt 0.9697266 0.08972168
vt 0.96875 0.08898926
vt 0.8969727 0.1153564
vt 0.8959961 0.1140137
vt 0.8950195 0.114624
vt 0.8974609 0.1140137
vt 0.8950195 0.1131592
vt 0.8964844 0.1126709
vt 0.9077148 0.09777832
vt 0.9101563 0.09820557
vt 0.909668 0.09594727
vt 0.9086914 0.09979248
vt 0.9067383 0.1000977
vt 0.9086914 0.1019287
vt 0.9106445 0.100769
vt 0.9106445 0.1032104
vt 0.9760742 0.1027222
vt 0.9760742 0.1051025
vt 0.9780273 0.1037598
vt 0.9785156 0.1060791
vt 0.9799805 0.1047363
vt 0.9467773 0.116272
vt 0.9492188 0.1164551
vt 0.9477539 0.1143799
vt 0.9477539 0.1184082
vt 0.9501953 0.1185303
vt 0.8950195 0.114624
vt 0.8955078 0.1166992
vt 0.8969727 0.1153564
vt 0.8930664 0.1166992
vt 0.8969727 0.117981
vt 0.8950195 0.1187744
vt 0.8964844 0.1203613
vn 0.0007297862 0 -0.9999998
vn 0.6831236 0.5561883 -0.4732828
vn -0.2482753 0.8576434 -0.4503413
vn 0.2482748 0.8576428 0.4503426
vn 0.8726657 -1.132831E-06 0.4883182
vn 0.6831205 -0.5561912 -0.473284
vn 0.0007297862 0 -0.9999998
vn -0.6831185 0.5561933 0.4732844
vn -0.8726675 -1.004925E-06 -0.4883149
vn -0.0007284543 -3.989551E-07 0.9999998
vn 0.0007297862 0 -0.9999998
vn -0.2482753 0.8576434 -0.4503413
vn -0.8726675 -1.004925E-06 -0.4883149
vn -0.2482757 -0.8576434 -0.4503409
vn -0.6831191 -0.5561935 0.4732834
vn 0.2482774 -0.8576421 0.4503424
vn 0.6831205 -0.5561912 -0.473284
vn 0.0007297862 0 -0.9999998
vn 0.8726657 -1.132831E-06 0.4883182
vn -0.0007284543 -3.989551E-07 0.9999998
vn -0.6831185 0.5561933 0.4732844
vn -0.8726675 -1.004925E-06 -0.4883149
vn -0.0007284543 -3.989551E-07 0.9999998
vn 0.2482748 0.8576428 0.4503426
vn -0.77118 0.2646222 -0.5790133
vn -0.06335947 0.2701056 -0.9607437
vn -0.2109567 0.9660718 -0.1490052
vn -0.1610382 0.6077769 0.7776078
vn 0.6706143 0.6003469 -0.4357293
vn 0.5778977 0.6352744 0.512309
vn -0.77118 0.2646222 -0.5790133
vn -0.448493 -0.8030524 0.3923783
vn -0.4759659 -0.6685287 -0.5714245
vn -0.77118 0.2646222 -0.5790133
vn -0.4759659 -0.6685287 -0.5714245
vn -0.06335947 0.2701056 -0.9607437
vn 0.5569446 -0.4039288 -0.7257094
vn 0.6706143 0.6003469 -0.4357293
vn -0.1610382 0.6077769 0.7776078
vn 0.1887237 -0.297378 0.9359219
vn -0.448493 -0.8030524 0.3923783
vn 0.5778977 0.6352744 0.512309
vn 0.9610852 -0.171348 0.2166913
vn 0.6706143 0.6003469 -0.4357293
vn 0.5569446 -0.4039288 -0.7257094
vn -0.448493 -0.8030524 0.3923783
vn 0.3592946 -0.9303853 0.07273615
vn -0.4759659 -0.6685287 -0.5714245
vn 0.1887237 -0.297378 0.9359219
vn 0.5569446 -0.4039288 -0.7257094
vn 0.9610852 -0.171348 0.2166913
vn 0.3277434 0.2276591 -0.9169273
vn -0.1070614 -0.6651229 -0.7390191
vn 0.6843958 -0.7198498 -0.1158391
vn -0.5468563 0.2887944 -0.7858409
vn 0.3277434 0.2276591 -0.9169273
vn 0.8239653 0.5132143 0.2401923
vn 0.0768668 0.9598302 -0.2698471
vn -0.5468563 0.2887944 -0.7858409
vn 0.1070503 0.6651317 0.7390129
vn -0.7884846 0.5836285 0.194087
vn -0.1070614 -0.6651229 -0.7390191
vn -0.07685788 -0.9598306 0.2698481
vn 0.6843958 -0.7198498 -0.1158391
vn -0.9021475 -0.4206384 -0.09588169
vn 0.5468599 -0.2887895 0.7858402
vn -0.4980029 -0.1880557 0.846539
vn 0.6843958 -0.7198498 -0.1158391
vn 0.5468599 -0.2887895 0.7858402
vn 0.8239653 0.5132143 0.2401923
vn 0.1070503 0.6651317 0.7390129
vn -0.4980029 -0.1880557 0.846539
vn -0.7884846 0.5836285 0.194087
vn -0.5468563 0.2887944 -0.7858409
vn -0.9021475 -0.4206384 -0.09588169
vn -0.1070614 -0.6651229 -0.7390191
vn -0.7884846 0.5836285 0.194087
vn -0.4980029 -0.1880557 0.846539
vn -0.02326331 0.7571077 -0.6528758
vn -0.2719551 0.9585581 0.08489327
vn -0.8509969 0.2356177 -0.4693492
vn 0.7639235 0.6399291 -0.08313589
vn -0.8012422 0.287768 0.5245954
vn 0.1738718 0.553948 0.814193
vn 0.766348 -0.1955757 0.6119321
vn 0.919428 -0.307317 -0.2453742
vn -0.02326331 0.7571077 -0.6528758
vn -0.1403244 -0.4470777 0.8834198
vn -0.8012422 0.287768 0.5245954
vn -0.02326331 0.7571077 -0.6528758
vn -0.8509969 0.2356177 -0.4693492
vn -0.4926273 -0.6903074 -0.5298999
vn -0.8509969 0.2356177 -0.4693492
vn -0.7677209 -0.608332 0.2013377
vn -0.4926273 -0.6903074 -0.5298999
vn -0.8012422 0.287768 0.5245954
vn -0.1403244 -0.4470777 0.8834198
vn -0.4926273 -0.6903074 -0.5298999
vn 0.2562748 -0.9655716 0.04466176
vn 0.919428 -0.307317 -0.2453742
vn -0.7677209 -0.608332 0.2013377
vn 0.766348 -0.1955757 0.6119321
vn -0.1403244 -0.4470777 0.8834198
vn -0.3565902 0.8208041 0.4462332
vn 0.6349787 0.7145126 0.293724
vn 0.4549088 -0.0814554 0.8868049
vn -0.1266044 0.9051797 -0.405735
vn -0.9427978 0.2838252 -0.1748581
vn -0.2894379 0.02467002 -0.9568788
vn 0.6856642 0.2908643 -0.6672799
vn 0.3714791 -0.7101758 -0.5980416
vn -0.3565902 0.8208041 0.4462332
vn -0.7423564 -0.4082815 0.5312375
vn -0.9427978 0.2838252 -0.1748581
vn -0.6349739 -0.7145157 -0.2937264
vn -0.2894379 0.02467002 -0.9568788
vn 0.6349787 0.7145126 0.293724
vn 0.9427994 -0.2838241 0.1748516
vn 0.4549088 -0.0814554 0.8868049
vn 0.6856642 0.2908643 -0.6672799
vn 0.3714791 -0.7101758 -0.5980416
vn 0.4549088 -0.0814554 0.8868049
vn 0.1265888 -0.9051841 0.4057303
vn -0.7423564 -0.4082815 0.5312375
vn 0.9427994 -0.2838241 0.1748516
vn -0.6349739 -0.7145157 -0.2937264
vn 0.3714791 -0.7101758 -0.5980416
vn -0.2894379 0.02467002 -0.9568788
g m_dlc08_map_popcorn_03_0
f 3/3/3 2/2/2 1/1/1
f 3/3/3 4/4/4 2/2/2
f 4/4/4 5/5/5 2/2/2
f 2/2/2 5/5/5 6/6/6
f 2/2/2 6/6/6 7/7/7
f 8/8/8 4/4/4 3/3/3
f 9/9/9 8/8/8 3/3/3
f 8/8/8 10/10/10 4/4/4
f 13/13/13 12/12/12 11/11/11
f 14/14/14 13/13/13 11/11/11
f 14/14/14 15/15/15 13/13/13
f 16/16/16 15/15/15 14/14/14
f 17/17/17 16/16/16 14/14/14
f 17/17/17 14/14/14 18/18/18
f 19/19/19 16/16/16 17/17/17
f 16/16/16 20/20/20 15/15/15
f 15/15/15 20/20/20 21/21/21
f 15/15/15 21/21/21 22/22/22
f 19/19/19 23/23/23 16/16/16
f 24/24/24 23/23/23 19/19/19
f 27/27/27 26/26/26 25/25/25
f 28/28/28 27/27/27 25/25/25
f 27/27/27 29/29/29 26/26/26
f 28/28/28 30/30/30 27/27/27
f 30/30/30 29/29/29 27/27/27
f 33/33/33 32/32/32 31/31/31
f 36/36/36 35/35/35 34/34/34
f 36/36/36 37/37/37 35/35/35
f 38/38/38 37/37/37 36/36/36
f 41/41/41 40/40/40 39/39/39
f 40/40/40 42/42/42 39/39/39
f 40/40/40 43/43/43 42/42/42
f 42/42/42 43/43/43 44/44/44
f 44/44/44 43/43/43 45/45/45
f 48/48/48 47/47/47 46/46/46
f 47/47/47 49/49/49 46/46/46
f 50/50/50 47/47/47 48/48/48
f 47/47/47 51/51/51 49/49/49
f 50/50/50 51/51/51 47/47/47
f 54/54/54 53/53/53 52/52/52
f 53/53/53 55/55/55 52/52/52
f 58/58/58 57/57/57 56/56/56
f 59/59/59 58/58/58 56/56/56
f 58/58/58 60/60/60 57/57/57
f 59/59/59 61/61/61 58/58/58
f 61/61/61 60/60/60 58/58/58
f 64/64/64 63/63/63 62/62/62
f 63/63/63 65/65/65 62/62/62
f 66/66/66 63/63/63 64/64/64
f 63/63/63 67/67/67 65/65/65
f 66/66/66 67/67/67 63/63/63
f 70/70/70 69/69/69 68/68/68
f 71/71/71 69/69/69 70/70/70
f 71/71/71 72/72/72 69/69/69
f 73/73/73 72/72/72 71/71/71
f 76/76/76 75/75/75 74/74/74
f 75/75/75 77/77/77 74/74/74
f 75/75/75 78/78/78 77/77/77
f 81/81/81 80/80/80 79/79/79
f 80/80/80 82/82/82 79/79/79
f 81/81/81 83/83/83 80/80/80
f 80/80/80 84/84/84 82/82/82
f 83/83/83 84/84/84 80/80/80
f 84/84/84 85/85/85 82/82/82
f 82/82/82 85/85/85 86/86/86
f 82/82/82 86/86/86 87/87/87
f 84/84/84 88/88/88 85/85/85
f 89/89/89 88/88/88 84/84/84
f 92/92/92 91/91/91 90/90/90
f 95/95/95 94/94/94 93/93/93
f 94/94/94 96/96/96 93/93/93
f 94/94/94 97/97/97 96/96/96
f 100/100/100 99/99/99 98/98/98
f 99/99/99 101/101/101 98/98/98
f 102/102/102 99/99/99 100/100/100
f 99/99/99 103/103/103 101/101/101
f 102/102/102 103/103/103 99/99/99
f 106/106/106 105/105/105 104/104/104
f 105/105/105 107/107/107 104/104/104
f 107/107/107 108/108/108 104/104/104
f 107/107/107 109/109/109 108/108/108
f 105/105/105 110/110/110 107/107/107
f 110/110/110 109/109/109 107/107/107
f 110/110/110 111/111/111 109/109/109
f 114/114/114 113/113/113 112/112/112
f 114/114/114 115/115/115 113/113/113
f 116/116/116 115/115/115 114/114/114
f 119/119/119 118/118/118 117/117/117
f 118/118/118 120/120/120 117/117/117
f 118/118/118 121/121/121 120/120/120
f 124/124/124 123/123/123 122/122/122
f 123/123/123 125/125/125 122/122/122
f 126/126/126 123/123/123 124/124/124
f 123/123/123 127/127/127 125/125/125
f 126/126/126 127/127/127 123/123/123
f 128/128/128 127/127/127 126/126/126
