g m_dlc08_map_rope_02
v 0.1295376 0.0498445 0.02281861
v 0.1673779 0.06967787 0.02738209
v 0.1052546 0.1024471 0.1097552
v 0.08146209 0.07520372 0.08656491
v 0.1281065 0.01877547 -0.05496699
v 0.1655286 0.02953039 -0.07313266
v 0.07771532 -0.006136033 -0.1170804
v 0.100413 -0.002660347 -0.1533958
v -0.002388089 -0.01537469 -0.1397965
v -0.003096822 -0.01459859 -0.1827497
v -0.081607 -0.005411698 -0.1144384
v -0.1054637 -0.001724373 -0.1499819
v -0.1296825 0.01994749 -0.05069217
v -0.167587 0.03104483 -0.06760878
v -0.1282513 0.05101645 0.0270934
v -0.1657377 0.07119231 0.032906
v -0.07786025 0.07592802 0.08920685
v -0.1006222 0.103383 0.1131691
v 0.002243144 0.08516672 0.111923
v 0.002887656 0.1153213 0.1425229
v 0.08146209 0.07520372 0.08656491
v 0.1052546 0.1024471 0.1097552
v 0.1237907 -0.02935529 -0.1786114
v 0.204031 0.0103126 -0.079705
v -0.003761991 -0.04406652 -0.2147834
v -0.1299063 -0.02820192 -0.1744044
v -0.2064593 0.01217879 -0.07289798
v -0.2041804 0.06165156 0.0509639
v -0.1239401 0.1013194 0.1498703
v 0.003612544 0.1160306 0.1860422
v 0.1297569 0.1001661 0.1456634
v 0.2201471 -0.02768694 -0.07046931
v 0.222605 0.02567404 0.06312732
v 0.2063099 0.05978537 0.04415694
v 0.1297569 0.1001661 0.1456634
v 0.1400355 0.06922843 0.1726115
v -0.003977063 -0.08633989 -0.2161639
v 0.1336004 -0.07047243 -0.1771491
v -0.1336004 0.07047243 0.177149
v -0.220147 0.0276869 0.07046929
v -0.222605 -0.02567407 -0.06312732
v -0.1400355 -0.06922841 -0.1726114
v 0.1239401 -0.1013194 -0.1498703
v 0.2041804 -0.06165155 -0.05096392
v 0.2064593 -0.01217878 0.07289799
v 0.1299063 0.02820192 0.1744044
v -0.1297568 -0.1001661 -0.1456634
v -0.00361255 -0.1160307 -0.1860423
v -0.2063099 -0.05978536 -0.0441569
v -0.204031 -0.01031263 0.07970498
v -0.1237907 0.02935526 0.1786113
v 0.003977076 0.08633985 0.2161639
v 0.1400355 0.06922843 0.1726115
v 0.003761966 0.04406649 0.2147833
v 0.1299063 0.02820192 0.1744044
v -0.002887681 -0.1153213 -0.1425229
v 0.1006222 -0.103383 -0.1131692
v 0.1657377 -0.07119229 -0.03290599
v 0.167587 -0.03104482 0.06760877
v 0.1054638 0.00172438 0.1499819
v -0.100413 0.002660354 0.1533958
v -0.1655286 -0.02953043 0.07313266
v -0.1673779 -0.0696779 -0.02738208
v -0.1052546 -0.1024471 -0.1097552
v 0.08160701 0.005411742 0.1144384
v 0.1296825 -0.01994745 0.05069217
v 0.1282514 -0.05101648 -0.02709346
v 0.07786027 -0.07592802 -0.08920687
v -0.00224315 -0.08516668 -0.111923
v -0.08146209 -0.07520368 -0.08656489
v -0.1295376 -0.04984449 -0.02281863
v -0.1281065 -0.0187755 0.05496695
v -0.07771533 0.006136039 0.1170804
v 0.003096816 0.0145986 0.1827496
v 0.1054638 0.00172438 0.1499819
v 0.002388064 0.01537474 0.1397965
v 0.08160701 0.005411742 0.1144384
v 0.1295376 0.0498445 0.02281861
v 0.08146209 0.07520372 0.08656491
v 0.08160701 0.005411742 0.1144384
v 0.1296825 -0.01994745 0.05069217
v 0.1281065 0.01877547 -0.05496699
v 0.1282514 -0.05101648 -0.02709346
v 0.07771532 -0.006136033 -0.1170804
v 0.07786027 -0.07592802 -0.08920687
v -0.002388089 -0.01537469 -0.1397965
v -0.00224315 -0.08516668 -0.111923
v -0.081607 -0.005411698 -0.1144384
v -0.08146209 -0.07520368 -0.08656489
v -0.1296825 0.01994749 -0.05069217
v -0.1295376 -0.04984449 -0.02281863
v -0.1282513 0.05101645 0.0270934
v -0.1281065 -0.0187755 0.05496695
v -0.07786025 0.07592802 0.08920685
v -0.07771533 0.006136039 0.1170804
v 0.002243144 0.08516672 0.111923
v 0.002388064 0.01537474 0.1397965
v 0.08146209 0.07520372 0.08656491
v 0.08160701 0.005411742 0.1144384
vt 0.006721497 -1.045898
vt 0.1694336 -1.047852
vt 0.1688232 -1.420898
vt 0.006057739 -1.418945
vt 0.007381439 -0.6728516
vt 0.170166 -0.6748047
vt 0.008033752 -0.2995605
vt 0.1707764 -0.302002
vt 0.008705139 0.07330322
vt 0.1715088 0.07092285
vt 0.009361267 0.4462891
vt 0.1721191 0.4438477
vt 0.01002502 0.8193359
vt 0.1727295 0.8168945
vt 0.01068878 1.192383
vt 0.1734619 1.189453
vt 0.01135254 1.56543
vt 0.1740723 1.5625
vt 0.01200867 1.938477
vt 0.1748047 1.935547
vt 0.01268005 2.310547
vt 0.175415 2.308594
vt 0.3334961 -0.3044434
vt 0.3327637 -0.6772461
vt 0.3342285 0.06854248
vt 0.3349609 0.4414063
vt 0.3354492 0.8144531
vt 0.3361816 1.1875
vt 0.3369141 1.560547
vt 0.3374023 1.933594
vt 0.3381348 2.306641
vt 0.4956055 -0.6796875
vt 0.494873 -1.052734
vt 0.3322754 -1.050781
vt 0.331543 -1.422852
vt 0.4943848 -1.425781
vt 0.4970703 0.06616211
vt 0.4963379 -0.3068848
vt 0.4995117 1.557617
vt 0.4990234 1.18457
vt 0.498291 0.8120117
vt 0.4975586 0.439209
vt 0.6591797 -0.309082
vt 0.6582031 -0.6821289
vt 0.6577148 -1.054688
vt 0.6572266 -1.427734
vt 0.6601563 0.4367676
vt 0.659668 0.06378174
vt 0.6611328 0.8095703
vt 0.6616211 1.182617
vt 0.6625977 1.555664
vt 0.5004883 1.930664
vt 0.5009766 2.304688
vt 0.6630859 1.928711
vt 0.6635742 2.300781
vt 0.8222656 0.06143188
vt 0.8217773 -0.3115234
vt 0.8212891 -0.6845703
vt 0.8203125 -1.057617
vt 0.8198242 -1.430664
vt 0.8251953 1.553711
vt 0.8242188 1.180664
vt 0.8237305 0.8071289
vt 0.8232422 0.4343262
vt 0.9824219 -1.432617
vt 0.9833984 -1.05957
vt 0.9838867 -0.6870117
vt 0.984375 -0.3139648
vt 0.9853516 0.05908203
vt 0.9858398 0.4321289
vt 0.9863281 0.8051758
vt 0.9873047 1.177734
vt 0.987793 1.550781
vt 0.8256836 1.925781
vt 0.8266602 2.298828
vt 0.9882813 1.923828
vt 0.9892578 2.296875
vt 0.006721497 -1.045898
vt 0.006057739 -1.418945
vt 0.9824219 -1.432617
vt 0.9833984 -1.05957
vt 0.007381439 -0.6728516
vt 0.9838867 -0.6870117
vt 0.008033752 -0.2995605
vt 0.984375 -0.3139648
vt 0.008705139 0.07330322
vt 0.9853516 0.05908203
vt 0.009361267 0.4462891
vt 0.9858398 0.4321289
vt 0.01002502 0.8193359
vt 0.9863281 0.8051758
vt 0.01068878 1.192383
vt 0.9873047 1.177734
vt 0.01135254 1.56543
vt 0.987793 1.550781
vt 0.01200867 1.938477
vt 0.9882813 1.923828
vt 0.01268005 2.310547
vt 0.9892578 2.296875
vn -0.838834 0.3507792 -0.4163069
vn 0.09546658 0.935076 -0.3413487
vn 0.05934434 0.9541305 -0.2934509
vn -0.5280347 0.1868368 -0.828415
vn -0.8295819 0.5516347 0.08656265
vn 0.09439132 0.9117319 -0.3997941
vn -0.5038126 0.7126831 0.4881143
vn 0.05652911 0.8930141 -0.4464644
vn 0.01404103 0.7724098 0.6349694
vn -0.003658199 0.8860723 -0.4635326
vn 0.5261765 0.7080005 0.4710345
vn -0.06318132 0.8935583 -0.4444792
vn 0.8369756 0.5440583 0.05892657
vn -0.09930385 0.9126123 -0.3965825
vn 0.8277239 0.3432026 -0.4439428
vn -0.09822831 0.9359568 -0.3381363
vn 0.5019546 0.1821542 -0.8454948
vn -0.06036595 0.9546745 -0.2914662
vn -0.01589881 0.1224276 -0.99235
vn -0.0001785769 0.9616163 -0.2743975
vn -0.5280347 0.1868368 -0.828415
vn 0.05934434 0.9541305 -0.2934509
vn 0.4267248 0.3928641 -0.8145942
vn 0.7039902 0.5299342 -0.4728293
vn -0.01402576 0.34203 -0.9395843
vn -0.4499097 0.396849 -0.8000576
vn -0.7144341 0.5363823 -0.4493082
vn -0.7065598 0.7073325 -0.02131061
vn -0.4292941 0.8444024 0.3204545
vn 0.01145643 0.8952363 0.4454444
vn 0.4473404 0.8404171 0.3059174
vn 0.9456368 -0.1189286 -0.3026994
vn 0.956195 0.1102825 0.271162
vn 0.7118648 0.7008842 -0.04483207
vn 0.4473404 0.8404171 0.3059174
vn 0.601519 0.2973693 0.7414489
vn -0.01708359 -0.370871 -0.9285272
vn 0.5738775 -0.3027129 -0.7609399
vn -0.5738774 0.3027127 0.7609401
vn -0.9456369 0.1189288 0.3026993
vn -0.956195 -0.1102821 -0.2711621
vn -0.6015193 -0.297369 -0.7414487
vn 0.4292939 -0.8444027 -0.3204539
vn 0.7065594 -0.7073328 0.02131055
vn 0.7144338 -0.5363827 0.4493081
vn 0.4499094 -0.3968495 0.8000575
vn -0.4473404 -0.8404171 -0.3059175
vn -0.01145673 -0.8952366 -0.4454439
vn -0.7118649 -0.700884 0.04483193
vn -0.7039903 -0.5299341 0.4728292
vn -0.4267249 -0.3928643 0.814594
vn 0.01708351 0.3708708 0.9285273
vn 0.601519 0.2973693 0.7414489
vn 0.01402562 -0.3420306 0.9395841
vn 0.4499094 -0.3968495 0.8000575
vn 0.0001784898 -0.9616162 0.2743979
vn 0.06036578 -0.9546745 0.2914664
vn 0.09822822 -0.9359568 0.3381364
vn 0.09930353 -0.9126124 0.3965821
vn 0.06318109 -0.8935584 0.444479
vn -0.0565289 -0.8930141 0.4464642
vn -0.09439132 -0.9117318 0.3997943
vn -0.09546667 -0.9350762 0.3413483
vn -0.05934418 -0.9541305 0.293451
vn -0.5261764 -0.7080003 -0.4710349
vn -0.8369758 -0.5440581 -0.05892655
vn -0.8277237 -0.3432025 0.4439431
vn -0.5019545 -0.1821543 0.8454948
vn 0.01589908 -0.1224277 0.99235
vn 0.528035 -0.1868368 0.8284148
vn 0.8388339 -0.3507791 0.4163072
vn 0.8295819 -0.5516347 -0.08656228
vn 0.503813 -0.7126827 -0.4881145
vn 0.003658266 -0.8860726 0.4635321
vn 0.06318109 -0.8935584 0.444479
vn -0.01404073 -0.7724091 -0.63497
vn -0.5261764 -0.7080003 -0.4710349
vn -0.838834 0.3507792 -0.4163069
vn -0.5280347 0.1868368 -0.828415
vn -0.5261764 -0.7080003 -0.4710349
vn -0.8369758 -0.5440581 -0.05892655
vn -0.8295819 0.5516347 0.08656265
vn -0.8277237 -0.3432025 0.4439431
vn -0.5038126 0.7126831 0.4881143
vn -0.5019545 -0.1821543 0.8454948
vn 0.01404103 0.7724098 0.6349694
vn 0.01589908 -0.1224277 0.99235
vn 0.5261765 0.7080005 0.4710345
vn 0.528035 -0.1868368 0.8284148
vn 0.8369756 0.5440583 0.05892657
vn 0.8388339 -0.3507791 0.4163072
vn 0.8277239 0.3432026 -0.4439428
vn 0.8295819 -0.5516347 -0.08656228
vn 0.5019546 0.1821542 -0.8454948
vn 0.503813 -0.7126827 -0.4881145
vn -0.01589881 0.1224276 -0.99235
vn -0.01404073 -0.7724091 -0.63497
vn -0.5280347 0.1868368 -0.828415
vn -0.5261764 -0.7080003 -0.4710349
g m_dlc08_map_rope_02_0
f 3/3/3 2/2/2 1/1/1
f 4/4/4 3/3/3 1/1/1
f 1/1/1 2/2/2 5/5/5
f 2/2/2 6/6/6 5/5/5
f 5/5/5 6/6/6 7/7/7
f 6/6/6 8/8/8 7/7/7
f 7/7/7 8/8/8 9/9/9
f 8/8/8 10/10/10 9/9/9
f 9/9/9 10/10/10 11/11/11
f 10/10/10 12/12/12 11/11/11
f 11/11/11 12/12/12 13/13/13
f 12/12/12 14/14/14 13/13/13
f 13/13/13 14/14/14 15/15/15
f 14/14/14 16/16/16 15/15/15
f 15/15/15 16/16/16 17/17/17
f 16/16/16 18/18/18 17/17/17
f 17/17/17 18/18/18 19/19/19
f 18/18/18 20/20/20 19/19/19
f 19/19/19 20/20/20 21/21/21
f 20/20/20 22/22/22 21/21/21
f 8/8/8 23/23/23 10/10/10
f 24/24/24 23/23/23 8/8/8
f 23/23/23 25/25/25 10/10/10
f 10/10/10 25/25/25 12/12/12
f 25/25/25 26/26/26 12/12/12
f 12/12/12 26/26/26 14/14/14
f 26/26/26 27/27/27 14/14/14
f 14/14/14 27/27/27 16/16/16
f 27/27/27 28/28/28 16/16/16
f 16/16/16 28/28/28 18/18/18
f 28/28/28 29/29/29 18/18/18
f 18/18/18 29/29/29 20/20/20
f 29/29/29 30/30/30 20/20/20
f 20/20/20 30/30/30 22/22/22
f 30/30/30 31/31/31 22/22/22
f 24/24/24 32/32/32 23/23/23
f 33/33/33 32/32/32 24/24/24
f 34/34/34 33/33/33 24/24/24
f 34/34/34 24/24/24 6/6/6
f 2/2/2 34/34/34 6/6/6
f 35/35/35 34/34/34 2/2/2
f 3/3/3 35/35/35 2/2/2
f 6/6/6 24/24/24 8/8/8
f 36/36/36 33/33/33 34/34/34
f 35/35/35 36/36/36 34/34/34
f 25/25/25 37/37/37 26/26/26
f 38/38/38 37/37/37 25/25/25
f 32/32/32 38/38/38 23/23/23
f 23/23/23 38/38/38 25/25/25
f 29/29/29 39/39/39 30/30/30
f 40/40/40 39/39/39 29/29/29
f 28/28/28 40/40/40 29/29/29
f 41/41/41 40/40/40 28/28/28
f 27/27/27 41/41/41 28/28/28
f 42/42/42 41/41/41 27/27/27
f 37/37/37 42/42/42 26/26/26
f 26/26/26 42/42/42 27/27/27
f 38/38/38 43/43/43 37/37/37
f 44/44/44 43/43/43 38/38/38
f 32/32/32 44/44/44 38/38/38
f 45/45/45 44/44/44 32/32/32
f 33/33/33 45/45/45 32/32/32
f 46/46/46 45/45/45 33/33/33
f 36/36/36 46/46/46 33/33/33
f 42/42/42 47/47/47 41/41/41
f 48/48/48 47/47/47 42/42/42
f 43/43/43 48/48/48 37/37/37
f 37/37/37 48/48/48 42/42/42
f 47/47/47 49/49/49 41/41/41
f 41/41/41 49/49/49 40/40/40
f 49/49/49 50/50/50 40/40/40
f 40/40/40 50/50/50 39/39/39
f 50/50/50 51/51/51 39/39/39
f 39/39/39 51/51/51 52/52/52
f 39/39/39 52/52/52 30/30/30
f 30/30/30 52/52/52 31/31/31
f 52/52/52 53/53/53 31/31/31
f 51/51/51 54/54/54 52/52/52
f 52/52/52 54/54/54 53/53/53
f 54/54/54 55/55/55 53/53/53
f 48/48/48 56/56/56 47/47/47
f 57/57/57 56/56/56 48/48/48
f 43/43/43 57/57/57 48/48/48
f 58/58/58 57/57/57 43/43/43
f 44/44/44 58/58/58 43/43/43
f 59/59/59 58/58/58 44/44/44
f 45/45/45 59/59/59 44/44/44
f 60/60/60 59/59/59 45/45/45
f 46/46/46 60/60/60 45/45/45
f 51/51/51 61/61/61 54/54/54
f 62/62/62 61/61/61 51/51/51
f 50/50/50 62/62/62 51/51/51
f 63/63/63 62/62/62 50/50/50
f 49/49/49 63/63/63 50/50/50
f 64/64/64 63/63/63 49/49/49
f 56/56/56 64/64/64 47/47/47
f 47/47/47 64/64/64 49/49/49
f 60/60/60 65/65/65 59/59/59
f 65/65/65 66/66/66 59/59/59
f 59/59/59 66/66/66 58/58/58
f 66/66/66 67/67/67 58/58/58
f 58/58/58 67/67/67 57/57/57
f 67/67/67 68/68/68 57/57/57
f 57/57/57 68/68/68 56/56/56
f 68/68/68 69/69/69 56/56/56
f 56/56/56 69/69/69 64/64/64
f 69/69/69 70/70/70 64/64/64
f 64/64/64 70/70/70 63/63/63
f 70/70/70 71/71/71 63/63/63
f 63/63/63 71/71/71 62/62/62
f 71/71/71 72/72/72 62/62/62
f 72/72/72 73/73/73 61/61/61
f 62/62/62 72/72/72 61/61/61
f 61/61/61 73/73/73 74/74/74
f 61/61/61 74/74/74 54/54/54
f 54/54/54 74/74/74 55/55/55
f 74/74/74 75/75/75 55/55/55
f 73/73/73 76/76/76 74/74/74
f 74/74/74 76/76/76 75/75/75
f 76/76/76 77/77/77 75/75/75
f 80/80/80 79/79/79 78/78/78
f 81/81/81 80/80/80 78/78/78
f 81/81/81 78/78/78 82/82/82
f 83/83/83 81/81/81 82/82/82
f 83/83/83 82/82/82 84/84/84
f 85/85/85 83/83/83 84/84/84
f 85/85/85 84/84/84 86/86/86
f 87/87/87 85/85/85 86/86/86
f 87/87/87 86/86/86 88/88/88
f 89/89/89 87/87/87 88/88/88
f 89/89/89 88/88/88 90/90/90
f 91/91/91 89/89/89 90/90/90
f 91/91/91 90/90/90 92/92/92
f 93/93/93 91/91/91 92/92/92
f 93/93/93 92/92/92 94/94/94
f 95/95/95 93/93/93 94/94/94
f 95/95/95 94/94/94 96/96/96
f 97/97/97 95/95/95 96/96/96
f 97/97/97 96/96/96 98/98/98
f 99/99/99 97/97/97 98/98/98
