g m_map_planet_ring_01
v -0.454517 0.9879153 1.663924
v -0.3149544 0.9878852 1.14307
v -0.1645383 0.9883909 1.17299
v -0.2349217 0.9884688 1.707605
v -0.6665321 0.9873019 1.591956
v -0.4601783 0.9873531 1.093773
v -0.8673393 0.9869386 1.492928
v -0.5977254 0.9871404 1.025943
v -1.053504 0.9873614 1.368538
v -0.7252418 0.9875097 0.9407388
v -1.221838 0.9884099 1.220911
v -0.8405464 0.9882206 0.8396196
v -1.369464 0.988732 1.052577
v -0.9416655 0.9884042 0.7243152
v -1.493855 0.9878643 0.8664129
v -1.026869 0.9878443 0.5967986
v -1.592882 0.986998 0.6656052
v -1.0947 0.9872938 0.4592516
v -1.664852 0.9873614 0.4535904
v -1.143997 0.9875064 0.3140276
v -1.708532 0.9884099 0.2339951
v -1.173917 0.9882156 0.1636116
v -1.723175 0.9887874 0.01057712
v -1.183947 0.9885732 0.01057707
v -1.708532 0.9884099 -0.2128408
v -1.173917 0.9882206 -0.1424574
v -1.664852 0.9873614 -0.4324361
v -1.143997 0.9875097 -0.2928736
v -1.592882 0.9869386 -0.6444513
v -1.0947 0.9871404 -0.4380974
v -1.493855 0.9873614 -0.8452585
v -1.026869 0.9875097 -0.5756446
v -1.369464 0.9884099 -1.031422
v -0.9416656 0.9882206 -0.7031608
v -1.221838 0.9887874 -1.199757
v -0.8405464 0.9885778 -0.8184655
v -1.053504 0.9884099 -1.347383
v -0.725242 0.9882206 -0.9195845
v -0.8673394 0.9873614 -1.471774
v -0.5977255 0.9875097 -1.004788
v -0.6665324 0.9869386 -1.5708
v -0.4601786 0.9871404 -1.072619
v -0.4545172 0.9873614 -1.64277
v -0.3149546 0.9875097 -1.121916
v -0.2349221 0.9884099 -1.68645
v -0.1645386 0.9882206 -1.151836
v -0.0115042 0.9887874 -1.701094
v -0.0115041 0.9885778 -1.161866
v 0.2119136 0.9884099 -1.68645
v 0.1415304 0.9882206 -1.151836
v 0.4315089 0.9873614 -1.64277
v 0.2919465 0.9875097 -1.121916
v 0.6435237 0.9869386 -1.5708
v 0.4371702 0.9871404 -1.072619
v 0.8443309 0.9873614 -1.471773
v 0.5747172 0.9875097 -1.004788
v 1.030495 0.9884099 -1.347382
v 0.7022336 0.9882206 -0.9195842
v 1.198829 0.9887874 -1.199757
v 0.817538 0.9885778 -0.8184654
v 1.346455 0.9884099 -1.031422
v 0.9186571 0.9882206 -0.7031608
v 1.470846 0.9873614 -0.8452585
v 1.003861 0.9875097 -0.5756446
v 1.569873 0.9869386 -0.6444511
v 1.071691 0.9871404 -0.4380974
v 1.641842 0.9873614 -0.4324362
v 1.120988 0.9875097 -0.2928736
v 1.685522 0.9884099 -0.2128411
v 1.150908 0.9882206 -0.1424576
v 1.700166 0.9887874 0.01057676
v 1.160938 0.9885778 0.01057682
v 1.685522 0.9884688 0.2339944
v 1.150908 0.9883955 0.1636112
v 1.641842 0.9879155 0.4535896
v 1.120988 0.9878904 0.3140272
v 1.569872 0.9873019 0.6656043
v 1.071691 0.9873563 0.4592508
v 1.470846 0.986998 0.8664116
v 1.00386 0.9872938 0.5967978
v 1.346455 0.9878643 1.052575
v 0.9186569 0.9878443 0.7243142
v 1.198829 0.988732 1.22091
v 0.8175377 0.9884042 0.8396185
v 1.030495 0.9884099 1.368536
v 0.7022335 0.9882206 0.9407377
v 0.8443307 0.9873614 1.492926
v 0.574717 0.9875097 1.025941
v 0.6435236 0.9869386 1.591953
v 0.43717 0.9871404 1.093772
v 0.4315088 0.9873614 1.663923
v 0.2919464 0.9875097 1.143069
v 0.2119137 0.9884099 1.707603
v 0.1415304 0.9882206 1.172988
v -0.01150396 0.9887874 1.722246
v -0.01150394 0.9885778 1.183019
v -0.2349217 0.9884688 1.707605
v -0.1645383 0.9883909 1.17299
v 0.5950506 0.9881802 0.6171314
v 0.6690326 0.9878209 0.5327709
v 0.5106902 0.9880998 0.6911134
v 0.4173948 0.9875905 0.7534512
v 0.316761 0.987204 0.8030784
v 0.2105105 0.9875905 0.8391455
v 0.1004612 0.9880998 0.8610356
v -0.01150378 0.988505 0.8683741
v -0.1234688 0.9884138 0.8610367
v 0.7313704 0.9874805 0.4394757
v 0.7809976 0.987314 0.3388419
v 0.8170649 0.9878705 0.2325913
v 0.838955 0.9884239 0.122542
v 0.8462936 0.988505 0.01057701
v 0.838955 0.9880998 -0.101388
v 0.8170651 0.9875905 -0.2114373
v 0.7809978 0.987204 -0.3176879
v 0.7313707 0.9875905 -0.4183218
v 0.6690328 0.9880998 -0.5116171
v 0.5950506 0.988505 -0.5959775
v 0.5106903 0.9880998 -0.6699597
v 0.417395 0.9875905 -0.7322977
v 0.3167611 0.987204 -0.7819248
v 0.2105105 0.9875905 -0.8179921
v 0.1004612 0.9880998 -0.8398822
v -0.01150389 0.988505 -0.8472208
v -0.123469 0.9880998 -0.8398822
v -0.2335183 0.9875905 -0.8179922
v -0.3397689 0.987204 -0.781925
v -0.4404029 0.9875905 -0.7322978
v -0.5336982 0.9880998 -0.6699598
v -0.6180586 0.988505 -0.5959776
v -0.6920409 0.9880998 -0.5116172
v -0.7543788 0.9875905 -0.4183219
v -0.8040059 0.987204 -0.317688
v -0.840073 0.9875905 -0.2114373
v -0.8619632 0.9880998 -0.1013879
v -0.869302 0.9884948 0.01057719
v -0.8619632 0.988089 0.1225423
v -0.840073 0.9875833 0.2325917
v -0.8040059 0.9874805 0.3388423
v -0.7543786 0.9878209 0.4394762
v -0.6920407 0.9881802 0.5327716
v -0.6180586 0.9880998 0.6171322
v -0.5336981 0.9875905 0.6911142
v -0.4404028 0.987204 0.7534521
v -0.3397688 0.9873069 0.8030794
v -0.2335182 0.9878595 0.8391467
v -0.1234688 0.9884138 0.8610367
vt 0.03485107 0.9838867
vt 0.03485107 0.8720703
vt 0.01470184 0.8720703
vt 0.01470184 0.9838867
vt 0.05502319 0.9838867
vt 0.05502319 0.8720703
vt 0.07519531 0.9838867
vt 0.07519531 0.8720703
vt 0.09533691 0.9838867
vt 0.09533691 0.8720703
vt 0.1155396 0.9838867
vt 0.1155396 0.8720703
vt 0.1356201 0.9838867
vt 0.1356201 0.8720703
vt 0.1558838 0.9838867
vt 0.1558838 0.8720703
vt 0.1760254 0.9838867
vt 0.1760254 0.8720703
vt 0.196167 0.9838867
vt 0.196167 0.8720703
vt 0.2163086 0.9838867
vt 0.2163086 0.8720703
vt 0.2364502 0.9838867
vt 0.2364502 0.8720703
vt 0.2565918 0.9838867
vt 0.2565918 0.8720703
vt 0.2768555 0.9838867
vt 0.2768555 0.8720703
vt 0.296875 0.9838867
vt 0.296875 0.8720703
vt 0.3171387 0.9838867
vt 0.3171387 0.8720703
vt 0.3374023 0.9838867
vt 0.3374023 0.8720703
vt 0.3574219 0.9838867
vt 0.3574219 0.8720703
vt 0.3776855 0.9838867
vt 0.3776855 0.8720703
vt 0.3977051 0.9838867
vt 0.3977051 0.8720703
vt 0.4179688 0.9838867
vt 0.4179688 0.8720703
vt 0.4379883 0.9838867
vt 0.4379883 0.8720703
vt 0.458252 0.9838867
vt 0.458252 0.8720703
vt 0.4785156 0.9838867
vt 0.4785156 0.8720703
vt 0.4985352 0.9838867
vt 0.4985352 0.8720703
vt 0.5185547 0.9838867
vt 0.5185547 0.8720703
vt 0.5390625 0.9838867
vt 0.5390625 0.8720703
vt 0.559082 0.9838867
vt 0.559082 0.8720703
vt 0.5791016 0.9838867
vt 0.5791016 0.8720703
vt 0.5996094 0.9838867
vt 0.5996094 0.8720703
vt 0.6196289 0.9838867
vt 0.6196289 0.8720703
vt 0.6396484 0.9838867
vt 0.6396484 0.8720703
vt 0.659668 0.9838867
vt 0.659668 0.8720703
vt 0.6801758 0.9838867
vt 0.6801758 0.8720703
vt 0.7001953 0.9838867
vt 0.7001953 0.8720703
vt 0.7202148 0.9838867
vt 0.7202148 0.8720703
vt 0.7407227 0.9838867
vt 0.7407227 0.8720703
vt 0.7607422 0.9838867
vt 0.7607422 0.8720703
vt 0.7807617 0.9838867
vt 0.7807617 0.8720703
vt 0.8007813 0.9838867
vt 0.8007813 0.8720703
vt 0.8212891 0.9838867
vt 0.8212891 0.8720703
vt 0.8413086 0.9838867
vt 0.8413086 0.8720703
vt 0.8613281 0.9838867
vt 0.8613281 0.8720703
vt 0.8818359 0.9838867
vt 0.8818359 0.8720703
vt 0.9018555 0.9838867
vt 0.9018555 0.8720703
vt 0.921875 0.9838867
vt 0.921875 0.8720703
vt 0.9423828 0.9838867
vt 0.9423828 0.8720703
vt 0.9624023 0.9838867
vt 0.9624023 0.8720703
vt 0.9824219 0.9838867
vt 0.9824219 0.8720703
vt 0.8413086 0.7587891
vt 0.8212891 0.7587891
vt 0.8613281 0.7587891
vt 0.8818359 0.7587891
vt 0.9018555 0.7587891
vt 0.921875 0.7587891
vt 0.9423828 0.7587891
vt 0.9624023 0.7587891
vt 0.9824219 0.7587891
vt 0.8007813 0.7587891
vt 0.7807617 0.7587891
vt 0.7607422 0.7587891
vt 0.7407227 0.7587891
vt 0.7202148 0.7587891
vt 0.7001953 0.7587891
vt 0.6801758 0.7587891
vt 0.659668 0.7587891
vt 0.6396484 0.7587891
vt 0.6196289 0.7587891
vt 0.5996094 0.7587891
vt 0.5791016 0.7587891
vt 0.559082 0.7587891
vt 0.5390625 0.7587891
vt 0.5185547 0.7587891
vt 0.4985352 0.7587891
vt 0.4785156 0.7587891
vt 0.458252 0.7587891
vt 0.4379883 0.7587891
vt 0.4179688 0.7587891
vt 0.3977051 0.7587891
vt 0.3776855 0.7587891
vt 0.3574219 0.7587891
vt 0.3374023 0.7587891
vt 0.3171387 0.7587891
vt 0.296875 0.7587891
vt 0.2768555 0.7587891
vt 0.2565918 0.7587891
vt 0.2364502 0.7587891
vt 0.2163086 0.7587891
vt 0.196167 0.7587891
vt 0.1760254 0.7587891
vt 0.1558838 0.7587891
vt 0.1356201 0.7587891
vt 0.1155396 0.7587891
vt 0.09533691 0.7587891
vt 0.07519531 0.7587891
vt 0.05502319 0.7587891
vt 0.03485107 0.7587891
vt 0.01470184 0.7587891
vn -0.002807658 0.9999957 -0.000801897
vn -0.003099604 0.9999949 -0.0008842894
vn -0.002150263 0.9999976 -0.0004907337
vn -0.002026858 0.9999979 -0.000500263
vn -0.002177515 0.9999974 -0.0007110343
vn -0.002253466 0.9999971 -0.0007796217
vn 4.578662E-05 0.9999999 0.0004864914
vn 0.0001923798 0.9999999 0.0005274056
vn 0.002548067 0.9999943 0.002242056
vn 0.002635662 0.9999939 0.002279012
vn 0.002388135 0.9999955 0.001868986
vn 0.002359083 0.9999956 0.001818064
vn -0.0002942248 0.9999992 -0.001317435
vn -0.0002858231 0.9999992 -0.001327924
vn -0.001862197 0.9999928 -0.00329056
vn -0.001805637 0.9999932 -0.003209515
vn -0.0008940732 0.9999993 -0.0008390016
vn -0.0008864338 0.9999993 -0.0008330264
vn 0.000528232 0.9999952 0.003068793
vn 0.0005142378 0.9999954 0.003012918
vn 0.0007299568 0.9999945 0.003240056
vn 0.0007332531 0.9999942 0.003354906
vn 0.0005034839 0.9999999 6.494604E-06
vn 0.0005045256 0.9999999 1.27432E-05
vn 0.0007239063 0.9999945 -0.003236447
vn 0.0007255194 0.9999942 -0.003347388
vn 0.0006569008 0.9999943 -0.003329773
vn 0.0007038256 0.9999939 -0.00341247
vn -0.0004268613 0.9999999 -0.0001767967
vn -0.0004150738 0.9999999 -0.000171833
vn -0.001889864 0.9999943 0.002818871
vn -0.001915188 0.9999939 0.002910635
vn -0.001782469 0.9999945 0.002803477
vn -0.001864174 0.9999942 0.002887096
vn 0.0003516049 0.9999999 0.0003516702
vn 0.000351264 0.9999999 0.0003512238
vn 0.002803745 0.9999945 -0.001782391
vn 0.002887407 0.9999942 -0.001864147
vn 0.002818865 0.9999943 -0.001890032
vn 0.002910548 0.9999939 -0.001915326
vn -0.0001768109 0.9999999 -0.0004270192
vn -0.0001719292 0.9999999 -0.0004151632
vn -0.003329573 0.9999943 0.0006569111
vn -0.003412309 0.9999939 0.0007038234
vn -0.003242946 0.9999945 0.0007221762
vn -0.003359876 0.9999942 0.0007235087
vn 0 0.9999999 0.0004971848
vn 0 0.9999999 0.0004966442
vn 0.003242945 0.9999945 0.0007221274
vn 0.003359876 0.9999942 0.0007234702
vn 0.003329576 0.9999943 0.0006569116
vn 0.003412312 0.9999939 0.0007038241
vn 0.0001768132 0.9999999 -0.0004270188
vn 0.0001719297 0.9999999 -0.0004151835
vn -0.00281886 0.9999943 -0.001890032
vn -0.002910548 0.9999939 -0.001915407
vn -0.002803748 0.9999945 -0.001782635
vn -0.002887409 0.9999942 -0.001864325
vn -0.0003516044 0.9999999 0.0003516714
vn -0.000351264 0.9999999 0.0003512645
vn 0.00178247 0.9999945 0.002803719
vn 0.001864176 0.9999942 0.002887353
vn 0.001889866 0.9999943 0.002818633
vn 0.00191519 0.9999939 0.002910462
vn 0.0004268623 0.9999999 -0.0001770362
vn 0.0004150743 0.9999999 -0.0001721687
vn -0.0006569024 0.9999943 -0.00332978
vn -0.0007038274 0.9999939 -0.003412557
vn -0.0007221537 0.9999945 -0.003242948
vn -0.0007235368 0.9999942 -0.003359817
vn -0.0004231766 0.9999999 -0.0003054871
vn -0.000393652 0.9999999 -0.0004766667
vn -0.0004930348 0.9999979 0.002021017
vn -0.0004812051 0.9999976 0.00213815
vn -0.0007944943 0.9999957 0.002811665
vn -0.0008752731 0.9999949 0.003105839
vn -0.000544858 0.999998 0.001952463
vn -0.0005372661 0.9999981 0.001911734
vn 0.001080938 0.9999989 -0.0009826059
vn 0.001121716 0.9999988 -0.001109977
vn 0.002275735 0.9999928 -0.003019242
vn 0.002209089 0.9999932 -0.0029462
vn 0.0004636688 0.9999992 -0.001267888
vn 0.0004567082 0.9999992 -0.001279357
vn -0.002611606 0.9999955 0.001540774
vn -0.002576171 0.9999956 0.001494185
vn -0.002818865 0.9999943 0.001889974
vn -0.002910549 0.9999939 0.001915325
vn 0.0001768128 0.9999999 0.0004270189
vn 0.0001719294 0.9999999 0.000415204
vn 0.003329576 0.9999943 -0.0006569118
vn 0.003412312 0.9999939 -0.0007037845
vn 0.003242949 0.9999945 -0.0007221029
vn 0.003359878 0.9999942 -0.0007234472
vn 0.000299711 0.9999999 -0.0004257608
vn 0.0004649716 0.9999999 -0.0003971708
vn -0.002026858 0.9999979 -0.000500263
vn -0.002150263 0.9999976 -0.0004907337
vn 0.0004382882 0.999999 -0.001309705
vn 0.002032727 0.9999942 -0.002752916
vn -0.002482398 0.9999961 0.001370898
vn -0.003153167 0.9999931 0.001982408
vn 0.0001590091 1 0.0003839381
vn 0.003631253 0.9999931 -0.0008278209
vn 0.003669303 0.9999931 -0.0007270052
vn 0.0009022736 0.9999995 -0.0003215155
vn -0.002476822 0.9999969 -0.0004655161
vn 0.001229624 0.9999982 -0.001447031
vn -0.0005171749 0.9999982 0.001803953
vn -0.001089031 0.9999919 0.003884289
vn -0.0004499009 0.9999969 0.002448114
vn -0.0003155232 0.9999995 -0.0009296471
vn -0.000727197 0.9999931 -0.003669082
vn -0.0008280021 0.9999931 -0.003631606
vn 0.0003838814 1 -0.0001592865
vn 0.001982201 0.9999931 0.00315346
vn 0.002080386 0.9999931 0.003108661
vn -0.0003503573 0.9999999 0.0003501936
vn -0.003108794 0.9999931 -0.002080493
vn -0.003153167 0.9999931 -0.001982551
vn 0.0001590064 1 -0.0003838646
vn 0.00363125 0.9999931 0.0008279654
vn 0.003669302 0.9999931 0.0007270225
vn 0 0.9999999 0.000495214
vn -0.003669301 0.9999931 0.0007270348
vn -0.003631249 0.9999931 0.0008279649
vn -0.0001590103 1 -0.0003837896
vn 0.003153163 0.9999931 -0.001982256
vn 0.003108792 0.9999931 -0.00208049
vn 0.0003503603 0.9999999 0.0003500441
vn -0.002080383 0.9999931 0.003108364
vn -0.001982198 0.9999931 0.003153457
vn -0.0003838808 1 -0.0001586997
vn 0.0008279996 0.9999931 -0.003631302
vn 0.0007297884 0.9999931 -0.003640964
vn 0.0005072821 0.9999999 2.928091E-05
vn 0.0007419756 0.9999931 0.003658827
vn 0.000477205 0.9999958 0.002865053
vn -0.0008662168 0.9999993 -0.0008172106
vn -0.001655968 0.9999942 -0.002995053
vn -0.0002635854 0.999999 -0.001355672
vn 0.002282207 0.9999961 0.001683312
vn 0.002867458 0.9999931 0.002376803
vn 0.0005802994 0.9999996 0.0006356728
vn -0.002454448 0.9999965 -0.0009611191
vn -0.003872155 0.9999919 -0.001102318
vn -0.002476822 0.9999969 -0.0004655161
g m_map_planet_ring_01_0
f 3/3/3 2/2/2 1/1/1
f 4/4/4 3/3/3 1/1/1
f 1/1/1 2/2/2 5/5/5
f 2/2/2 6/6/6 5/5/5
f 5/5/5 6/6/6 7/7/7
f 6/6/6 8/8/8 7/7/7
f 7/7/7 8/8/8 9/9/9
f 8/8/8 10/10/10 9/9/9
f 9/9/9 10/10/10 11/11/11
f 10/10/10 12/12/12 11/11/11
f 11/11/11 12/12/12 13/13/13
f 12/12/12 14/14/14 13/13/13
f 13/13/13 14/14/14 15/15/15
f 14/14/14 16/16/16 15/15/15
f 15/15/15 16/16/16 17/17/17
f 16/16/16 18/18/18 17/17/17
f 17/17/17 18/18/18 19/19/19
f 18/18/18 20/20/20 19/19/19
f 19/19/19 20/20/20 21/21/21
f 20/20/20 22/22/22 21/21/21
f 21/21/21 22/22/22 23/23/23
f 22/22/22 24/24/24 23/23/23
f 23/23/23 24/24/24 25/25/25
f 24/24/24 26/26/26 25/25/25
f 25/25/25 26/26/26 27/27/27
f 26/26/26 28/28/28 27/27/27
f 27/27/27 28/28/28 29/29/29
f 28/28/28 30/30/30 29/29/29
f 29/29/29 30/30/30 31/31/31
f 30/30/30 32/32/32 31/31/31
f 31/31/31 32/32/32 33/33/33
f 32/32/32 34/34/34 33/33/33
f 33/33/33 34/34/34 35/35/35
f 34/34/34 36/36/36 35/35/35
f 35/35/35 36/36/36 37/37/37
f 36/36/36 38/38/38 37/37/37
f 37/37/37 38/38/38 39/39/39
f 38/38/38 40/40/40 39/39/39
f 39/39/39 40/40/40 41/41/41
f 40/40/40 42/42/42 41/41/41
f 41/41/41 42/42/42 43/43/43
f 42/42/42 44/44/44 43/43/43
f 43/43/43 44/44/44 45/45/45
f 44/44/44 46/46/46 45/45/45
f 45/45/45 46/46/46 47/47/47
f 46/46/46 48/48/48 47/47/47
f 47/47/47 48/48/48 49/49/49
f 48/48/48 50/50/50 49/49/49
f 49/49/49 50/50/50 51/51/51
f 50/50/50 52/52/52 51/51/51
f 51/51/51 52/52/52 53/53/53
f 52/52/52 54/54/54 53/53/53
f 53/53/53 54/54/54 55/55/55
f 54/54/54 56/56/56 55/55/55
f 55/55/55 56/56/56 57/57/57
f 56/56/56 58/58/58 57/57/57
f 57/57/57 58/58/58 59/59/59
f 58/58/58 60/60/60 59/59/59
f 59/59/59 60/60/60 61/61/61
f 60/60/60 62/62/62 61/61/61
f 61/61/61 62/62/62 63/63/63
f 62/62/62 64/64/64 63/63/63
f 63/63/63 64/64/64 65/65/65
f 64/64/64 66/66/66 65/65/65
f 65/65/65 66/66/66 67/67/67
f 66/66/66 68/68/68 67/67/67
f 67/67/67 68/68/68 69/69/69
f 68/68/68 70/70/70 69/69/69
f 69/69/69 70/70/70 71/71/71
f 70/70/70 72/72/72 71/71/71
f 71/71/71 72/72/72 73/73/73
f 72/72/72 74/74/74 73/73/73
f 73/73/73 74/74/74 75/75/75
f 74/74/74 76/76/76 75/75/75
f 75/75/75 76/76/76 77/77/77
f 76/76/76 78/78/78 77/77/77
f 77/77/77 78/78/78 79/79/79
f 78/78/78 80/80/80 79/79/79
f 79/79/79 80/80/80 81/81/81
f 80/80/80 82/82/82 81/81/81
f 81/81/81 82/82/82 83/83/83
f 82/82/82 84/84/84 83/83/83
f 83/83/83 84/84/84 85/85/85
f 84/84/84 86/86/86 85/85/85
f 85/85/85 86/86/86 87/87/87
f 86/86/86 88/88/88 87/87/87
f 87/87/87 88/88/88 89/89/89
f 88/88/88 90/90/90 89/89/89
f 89/89/89 90/90/90 91/91/91
f 90/90/90 92/92/92 91/91/91
f 91/91/91 92/92/92 93/93/93
f 92/92/92 94/94/94 93/93/93
f 93/93/93 94/94/94 95/95/95
f 94/94/94 96/96/96 95/95/95
f 95/95/95 96/96/96 97/97/97
f 96/96/96 98/98/98 97/97/97
f 84/84/84 99/99/99 86/86/86
f 100/100/100 99/99/99 84/84/84
f 99/99/99 101/101/101 86/86/86
f 86/86/86 101/101/101 88/88/88
f 101/101/101 102/102/102 88/88/88
f 88/88/88 102/102/102 90/90/90
f 102/102/102 103/103/103 90/90/90
f 90/90/90 103/103/103 92/92/92
f 103/103/103 104/104/104 92/92/92
f 92/92/92 104/104/104 94/94/94
f 104/104/104 105/105/105 94/94/94
f 94/94/94 105/105/105 96/96/96
f 105/105/105 106/106/106 96/96/96
f 96/96/96 106/106/106 98/98/98
f 106/106/106 107/107/107 98/98/98
f 108/108/108 100/100/100 82/82/82
f 80/80/80 108/108/108 82/82/82
f 109/109/109 108/108/108 80/80/80
f 78/78/78 109/109/109 80/80/80
f 110/110/110 109/109/109 78/78/78
f 76/76/76 110/110/110 78/78/78
f 111/111/111 110/110/110 76/76/76
f 74/74/74 111/111/111 76/76/76
f 112/112/112 111/111/111 74/74/74
f 72/72/72 112/112/112 74/74/74
f 113/113/113 112/112/112 72/72/72
f 70/70/70 113/113/113 72/72/72
f 114/114/114 113/113/113 70/70/70
f 68/68/68 114/114/114 70/70/70
f 115/115/115 114/114/114 68/68/68
f 66/66/66 115/115/115 68/68/68
f 116/116/116 115/115/115 66/66/66
f 64/64/64 116/116/116 66/66/66
f 117/117/117 116/116/116 64/64/64
f 62/62/62 117/117/117 64/64/64
f 118/118/118 117/117/117 62/62/62
f 60/60/60 118/118/118 62/62/62
f 119/119/119 118/118/118 60/60/60
f 58/58/58 119/119/119 60/60/60
f 120/120/120 119/119/119 58/58/58
f 56/56/56 120/120/120 58/58/58
f 121/121/121 120/120/120 56/56/56
f 54/54/54 121/121/121 56/56/56
f 122/122/122 121/121/121 54/54/54
f 52/52/52 122/122/122 54/54/54
f 123/123/123 122/122/122 52/52/52
f 50/50/50 123/123/123 52/52/52
f 124/124/124 123/123/123 50/50/50
f 48/48/48 124/124/124 50/50/50
f 125/125/125 124/124/124 48/48/48
f 46/46/46 125/125/125 48/48/48
f 126/126/126 125/125/125 46/46/46
f 44/44/44 126/126/126 46/46/46
f 127/127/127 126/126/126 44/44/44
f 42/42/42 127/127/127 44/44/44
f 128/128/128 127/127/127 42/42/42
f 40/40/40 128/128/128 42/42/42
f 129/129/129 128/128/128 40/40/40
f 38/38/38 129/129/129 40/40/40
f 130/130/130 129/129/129 38/38/38
f 36/36/36 130/130/130 38/38/38
f 131/131/131 130/130/130 36/36/36
f 34/34/34 131/131/131 36/36/36
f 132/132/132 131/131/131 34/34/34
f 32/32/32 132/132/132 34/34/34
f 133/133/133 132/132/132 32/32/32
f 30/30/30 133/133/133 32/32/32
f 134/134/134 133/133/133 30/30/30
f 28/28/28 134/134/134 30/30/30
f 135/135/135 134/134/134 28/28/28
f 26/26/26 135/135/135 28/28/28
f 136/136/136 135/135/135 26/26/26
f 24/24/24 136/136/136 26/26/26
f 137/137/137 136/136/136 24/24/24
f 22/22/22 137/137/137 24/24/24
f 138/138/138 137/137/137 22/22/22
f 20/20/20 138/138/138 22/22/22
f 139/139/139 138/138/138 20/20/20
f 18/18/18 139/139/139 20/20/20
f 140/140/140 139/139/139 18/18/18
f 16/16/16 140/140/140 18/18/18
f 141/141/141 140/140/140 16/16/16
f 14/14/14 141/141/141 16/16/16
f 142/142/142 141/141/141 14/14/14
f 12/12/12 142/142/142 14/14/14
f 143/143/143 142/142/142 12/12/12
f 10/10/10 143/143/143 12/12/12
f 144/144/144 143/143/143 10/10/10
f 8/8/8 144/144/144 10/10/10
f 145/145/145 144/144/144 8/8/8
f 6/6/6 145/145/145 8/8/8
f 146/146/146 145/145/145 6/6/6
f 2/2/2 146/146/146 6/6/6
f 147/147/147 146/146/146 2/2/2
f 3/3/3 147/147/147 2/2/2
f 82/82/82 100/100/100 84/84/84
