g m_map_switchbutton_01
v -0.720358 0.03900976 0.6096797
v -0.7140037 0.03900976 0.6537372
v -0.7332718 0.03550366 0.6632782
v -0.7418375 0.03507816 0.6145294
v -0.8135965 0.007615342 0.6689958
v -0.8048453 0.007615335 0.7250363
v -0.7418375 0.03507816 -0.6145294
v -0.8135965 0.007615335 -0.6689958
v -0.8048453 0.007615339 -0.7250364
v -0.7332718 0.03550366 -0.6632782
v -0.7140037 0.03900976 -0.6537372
v -0.720358 0.03900976 -0.6096797
v -0.7029471 0.03563997 0.7080389
v -0.6876395 0.03900976 0.6928881
v -0.7707602 0.007615337 0.7762427
v -0.6584589 0.03552358 0.7391478
v -0.6487345 0.03900976 0.7199612
v -0.6074601 0.03511548 0.7487974
v -0.6025599 0.03900976 0.7273004
v -0.7199225 0.007615337 0.8112677
v -0.6614506 0.007615332 0.8212864
v 0.60256 0.03900976 0.7273004
v 0.6074603 0.03511548 0.7487974
v 0.6584591 0.03552358 0.7391478
v 0.6614507 0.007615342 0.8212864
v 0.7199227 0.007615335 0.8112677
v 0.6487346 0.03900976 0.7199612
v 0.7029474 0.03563997 0.7080389
v 0.7707605 0.007615337 0.7762427
v 0.7332721 0.03550366 0.6632782
v 0.8048456 0.007615339 0.7250364
v 0.7418377 0.03507816 0.6145294
v 0.8135968 0.007615335 0.6689958
v 0.714004 0.03900976 0.6537372
v 0.7203582 0.03900976 0.6096797
v 0.7203582 0.03900976 -0.6096797
v 0.7418377 0.03507816 -0.6145294
v 0.7332721 0.03550366 -0.6632782
v 0.714004 0.03900976 -0.6537372
v 0.8135968 0.007615342 -0.6689958
v 0.8048456 0.007615335 -0.7250363
v 0.6876397 0.03900976 0.6928881
v 0.7029474 0.03563997 -0.7080389
v 0.6876397 0.03900976 -0.6928881
v 0.7707605 0.007615337 -0.7762427
v 0.6584591 0.03552358 -0.7391478
v 0.6487346 0.03900976 -0.7199612
v 0.6074603 0.03511548 -0.7487974
v 0.60256 0.03900976 -0.7273004
v 0.7199227 0.007615337 -0.8112677
v 0.6614507 0.007615332 -0.8212864
v -0.6074601 0.03511548 -0.7487974
v -0.6614506 0.007615342 -0.8212864
v -0.6584589 0.03552358 -0.7391478
v -0.7199225 0.007615335 -0.8112677
v -0.6025599 0.03900976 -0.7273004
v -0.6487345 0.03900976 -0.7199612
v -0.7029471 0.03563997 -0.7080389
v -0.7707602 0.007615337 -0.7762427
v -0.6876395 0.03900976 -0.6928881
v 2.278928E-07 0.03900976 0
v -7.728298E-08 0.03900976 0
v -2.298709E-07 0.03900976 0
v 2.278928E-07 0.03900976 0
v -2.298709E-07 0.03900976 0
v -0.8120194 -0.02448393 0.6676988
v -0.8135965 0.007615342 0.6689958
v -0.8048453 0.007615335 0.7250363
v -0.8024167 -0.02448393 0.7228486
v -0.7707602 0.007615337 0.7762427
v -0.7681919 -0.02448393 0.7736561
v -0.7199225 0.007615337 0.8112677
v -0.7177158 -0.02448393 0.808781
v -0.6614506 0.007615332 0.8212864
v -0.6601038 -0.02448393 0.8196142
v 0.660104 -0.02448393 0.8196142
v 0.6614507 0.007615342 0.8212864
v 0.717716 -0.02448393 0.808781
v 0.7199227 0.007615335 0.8112677
v 0.7681921 -0.02448393 0.7736561
v 0.7707605 0.007615337 0.7762427
v 0.802417 -0.02448393 0.7228486
v 0.8048456 0.007615339 0.7250364
v 0.8120195 -0.02448393 0.6676988
v 0.8135968 0.007615335 0.6689958
v 0.8135968 0.007615342 -0.6689958
v 0.8120195 -0.02448393 -0.6676988
v 0.8048456 0.007615335 -0.7250363
v 0.802417 -0.02448393 -0.7228486
v 0.7707605 0.007615337 -0.7762427
v 0.7681921 -0.02448393 -0.7736561
v 0.7199227 0.007615337 -0.8112677
v 0.717716 -0.02448393 -0.808781
v 0.6614507 0.007615332 -0.8212864
v 0.660104 -0.02448393 -0.8196142
v -0.6614506 0.007615342 -0.8212864
v -0.6601038 -0.02448393 -0.8196142
v -0.7177158 -0.02448393 -0.808781
v -0.7199225 0.007615335 -0.8112677
v -0.7681919 -0.02448393 -0.7736561
v -0.7707602 0.007615337 -0.7762427
v -0.8024167 -0.02448393 -0.7228486
v -0.8048453 0.007615339 -0.7250364
v -0.8120194 -0.02448393 -0.6676988
v -0.8135965 0.007615335 -0.6689958
v 2.278928E-07 0.03900976 0
v -0.6025599 0.03900976 -0.7273004
v -7.728298E-08 0.03900976 0
v -0.6025599 0.03900976 0.7273004
v -2.298709E-07 0.03900976 0
v 0.7203582 0.03900976 0.6096797
v 0.7203582 0.03900976 -0.6096797
vt 0.09332275 0.1557617
vt 0.09686279 0.1308594
vt 0.08599854 0.1254883
vt 0.08117676 0.1530762
vt 0.04064941 0.1223145
vt 0.04559326 0.09063721
vt 0.08117676 0.847168
vt 0.04064941 0.8779297
vt 0.04559326 0.9091797
vt 0.08599854 0.8745117
vt 0.09686279 0.8691406
vt 0.09332275 0.8442383
vt 0.1031494 0.1002808
vt 0.1117554 0.1088257
vt 0.06481934 0.06173706
vt 0.1282959 0.08270264
vt 0.1337891 0.09350586
vt 0.1569824 0.07727051
vt 0.15979 0.08935547
vt 0.09356689 0.04196167
vt 0.1265869 0.03631592
vt 0.840332 0.08935547
vt 0.8427734 0.07727051
vt 0.871582 0.08270264
vt 0.8735352 0.03631592
vt 0.90625 0.04196167
vt 0.8662109 0.09350586
vt 0.8969727 0.1002808
vt 0.9350586 0.06173706
vt 0.9140625 0.1254883
vt 0.9545898 0.09063721
vt 0.9189453 0.1530762
vt 0.9594727 0.1223145
vt 0.9033203 0.1308594
vt 0.9067383 0.1557617
vt 0.9067383 0.8442383
vt 0.9189453 0.847168
vt 0.9140625 0.8745117
vt 0.9033203 0.8691406
vt 0.9594727 0.8779297
vt 0.9545898 0.9091797
vt 0.8881836 0.1088257
vt 0.8969727 0.8999023
vt 0.8881836 0.8911133
vt 0.9350586 0.9384766
vt 0.871582 0.9174805
vt 0.8662109 0.90625
vt 0.8427734 0.9228516
vt 0.840332 0.9106445
vt 0.90625 0.9580078
vt 0.8735352 0.9638672
vt 0.1569824 0.9228516
vt 0.1265869 0.9638672
vt 0.1282959 0.9174805
vt 0.09356689 0.9580078
vt 0.15979 0.9106445
vt 0.1337891 0.90625
vt 0.1031494 0.8999023
vt 0.06481934 0.9384766
vt 0.1117554 0.8911133
vt 0.5 0.5
vt 0.5 0.5
vt 0.5 0.5
vt 0.5 0.5
vt 0.5 0.5
vt 0.04153442 0.1230469
vt 0.04064941 0.1223145
vt 0.04559326 0.09063721
vt 0.04696655 0.09191895
vt 0.06481934 0.06173706
vt 0.06628418 0.06323242
vt 0.09356689 0.04196167
vt 0.0947876 0.04336548
vt 0.1265869 0.03631592
vt 0.1273193 0.03726196
vt 0.8725586 0.03726196
vt 0.8735352 0.03631592
vt 0.9052734 0.04336548
vt 0.90625 0.04196167
vt 0.9335938 0.06323242
vt 0.9350586 0.06173706
vt 0.953125 0.09191895
vt 0.9545898 0.09063721
vt 0.9584961 0.1230469
vt 0.9594727 0.1223145
vt 0.9594727 0.8779297
vt 0.9584961 0.8769531
vt 0.9545898 0.9091797
vt 0.953125 0.9082031
vt 0.9350586 0.9384766
vt 0.9335938 0.9370117
vt 0.90625 0.9580078
vt 0.9052734 0.956543
vt 0.8735352 0.9638672
vt 0.8725586 0.9628906
vt 0.1265869 0.9638672
vt 0.1273193 0.9628906
vt 0.0947876 0.956543
vt 0.09356689 0.9580078
vt 0.06628418 0.9370117
vt 0.06481934 0.9384766
vt 0.04696655 0.9082031
vt 0.04559326 0.9091797
vt 0.04153442 0.8769531
vt 0.04064941 0.8779297
vt 0.5 0.5
vt 0.15979 0.9106445
vt 0.5 0.5
vt 0.15979 0.08935547
vt 0.5 0.5
vt 0.9067383 0.1557617
vt 0.9067383 0.8442383
vn 0 1 0
vn 0 1 0
vn -0.2658936 0.9593168 0.09493075
vn -0.3320046 0.9432755 0.002069206
vn -0.7374325 0.6753124 0.01209979
vn -0.5539823 0.7973394 0.2394858
vn -0.3320047 0.9432755 -0.002069203
vn -0.7374327 0.6753123 -0.01209978
vn -0.5539824 0.7973393 -0.239486
vn -0.2658936 0.9593168 -0.09493069
vn 0 1 0
vn 0 1 0
vn -0.1880409 0.9646134 0.1848289
vn 0 1 0
vn -0.4155116 0.8119957 0.4098941
vn -0.09764782 0.9599137 0.2627369
vn 0 1 0
vn -0.002436848 0.9442 0.3293636
vn 0 1 0
vn -0.2442536 0.7979385 0.5510303
vn -0.01371199 0.6814546 0.731732
vn 0 1 0
vn 0.002436835 0.9442001 0.3293635
vn 0.09764795 0.9599137 0.2627369
vn 0.01371201 0.6814545 0.731732
vn 0.2442535 0.7979385 0.5510303
vn 0 1 0
vn 0.1880409 0.9646134 0.184829
vn 0.4155113 0.8119957 0.4098944
vn 0.2658936 0.9593168 0.09493069
vn 0.5539824 0.7973393 0.239486
vn 0.3320047 0.9432755 0.002069202
vn 0.7374327 0.6753123 0.01209978
vn 0 1 0
vn 0 1 0
vn 0 1 0
vn 0.3320048 0.9432755 -0.002069207
vn 0.2658936 0.9593168 -0.09493075
vn 0 1 0
vn 0.7374325 0.6753124 -0.01209979
vn 0.5539823 0.7973394 -0.2394858
vn 0 1 0
vn 0.1880409 0.9646134 -0.1848289
vn 0 1 0
vn 0.4155116 0.8119956 -0.4098941
vn 0.09764782 0.9599137 -0.2627369
vn 0 1 0
vn 0.002436848 0.9442 -0.3293636
vn 0 1 0
vn 0.2442536 0.7979385 -0.5510303
vn 0.01371199 0.6814546 -0.731732
vn -0.002436835 0.9442001 -0.3293635
vn -0.01371201 0.6814545 -0.731732
vn -0.09764795 0.9599137 -0.2627369
vn -0.2442535 0.7979385 -0.5510303
vn 0 1 0
vn 0 1 0
vn -0.1880409 0.9646134 -0.184829
vn -0.4155113 0.8119957 -0.4098944
vn 0 1 0
vn 0 1 0
vn 0 1 0
vn 0 1 0
vn 0 1 0
vn 0 1 0
vn -0.9990076 -0.04295826 0.01176916
vn -0.7374325 0.6753124 0.01209979
vn -0.5539823 0.7973394 0.2394858
vn -0.9243338 -0.09029425 0.370748
vn -0.4155116 0.8119957 0.4098941
vn -0.7082812 -0.1079532 0.6976273
vn -0.2442536 0.7979385 0.5510303
vn -0.3804023 -0.09217086 0.9202167
vn -0.01371199 0.6814546 0.731732
vn -0.01348637 -0.04568458 0.9988649
vn 0.01348637 -0.04568456 0.9988649
vn 0.01371201 0.6814545 0.731732
vn 0.3804019 -0.0921709 0.9202168
vn 0.2442535 0.7979385 0.5510303
vn 0.7082806 -0.1079533 0.697628
vn 0.4155113 0.8119957 0.4098944
vn 0.9243339 -0.09029371 0.3707479
vn 0.5539824 0.7973393 0.239486
vn 0.9990075 -0.04295864 0.01176915
vn 0.7374327 0.6753123 0.01209978
vn 0.7374325 0.6753124 -0.01209979
vn 0.9990076 -0.04295825 -0.01176916
vn 0.5539823 0.7973394 -0.2394858
vn 0.9243338 -0.09029425 -0.370748
vn 0.4155116 0.8119956 -0.4098941
vn 0.7082812 -0.1079532 -0.6976273
vn 0.2442536 0.7979385 -0.5510303
vn 0.3804023 -0.09217084 -0.9202167
vn 0.01371199 0.6814546 -0.731732
vn 0.01348637 -0.04568457 -0.9988649
vn -0.01371201 0.6814545 -0.731732
vn -0.01348637 -0.04568456 -0.9988649
vn -0.3804019 -0.0921709 -0.9202168
vn -0.2442535 0.7979385 -0.5510303
vn -0.7082806 -0.1079533 -0.697628
vn -0.4155113 0.8119957 -0.4098944
vn -0.9243339 -0.09029371 -0.3707479
vn -0.5539824 0.7973393 -0.239486
vn -0.9990075 -0.04295864 -0.01176915
vn -0.7374327 0.6753123 -0.01209978
vn 0 1 0
vn 0 1 0
vn 0 1 0
vn 0 1 0
vn 0 1 0
vn 0 1 0
vn 0 1 0
g m_map_switchbutton_01_0
f 3/3/3 2/2/2 1/1/1
f 4/4/4 3/3/3 1/1/1
f 4/4/4 5/5/5 3/3/3
f 5/5/5 6/6/6 3/3/3
f 4/4/4 7/7/7 5/5/5
f 7/7/7 8/8/8 5/5/5
f 9/9/9 8/8/8 7/7/7
f 10/10/10 9/9/9 7/7/7
f 11/11/11 10/10/10 7/7/7
f 12/12/12 11/11/11 7/7/7
f 12/12/12 7/7/7 4/4/4
f 1/1/1 12/12/12 4/4/4
f 3/3/3 13/13/13 2/2/2
f 3/3/3 6/6/6 13/13/13
f 13/13/13 14/14/14 2/2/2
f 6/6/6 15/15/15 13/13/13
f 13/13/13 16/16/16 14/14/14
f 13/13/13 15/15/15 16/16/16
f 16/16/16 17/17/17 14/14/14
f 16/16/16 18/18/18 17/17/17
f 18/18/18 19/19/19 17/17/17
f 16/16/16 20/20/20 18/18/18
f 15/15/15 20/20/20 16/16/16
f 20/20/20 21/21/21 18/18/18
f 19/19/19 18/18/18 22/22/22
f 18/18/18 23/23/23 22/22/22
f 22/22/22 23/23/23 24/24/24
f 23/23/23 25/25/25 24/24/24
f 25/25/25 23/23/23 18/18/18
f 21/21/21 25/25/25 18/18/18
f 25/25/25 26/26/26 24/24/24
f 27/27/27 22/22/22 24/24/24
f 24/24/24 26/26/26 28/28/28
f 27/27/27 24/24/24 28/28/28
f 26/26/26 29/29/29 28/28/28
f 28/28/28 29/29/29 30/30/30
f 29/29/29 31/31/31 30/30/30
f 30/30/30 31/31/31 32/32/32
f 31/31/31 33/33/33 32/32/32
f 34/34/34 30/30/30 32/32/32
f 35/35/35 34/34/34 32/32/32
f 35/35/35 32/32/32 36/36/36
f 32/32/32 37/37/37 36/36/36
f 37/37/37 38/38/38 36/36/36
f 38/38/38 39/39/39 36/36/36
f 37/37/37 40/40/40 38/38/38
f 40/40/40 37/37/37 32/32/32
f 33/33/33 40/40/40 32/32/32
f 40/40/40 41/41/41 38/38/38
f 42/42/42 28/28/28 30/30/30
f 34/34/34 42/42/42 30/30/30
f 42/42/42 27/27/27 28/28/28
f 38/38/38 43/43/43 39/39/39
f 38/38/38 41/41/41 43/43/43
f 43/43/43 44/44/44 39/39/39
f 41/41/41 45/45/45 43/43/43
f 43/43/43 46/46/46 44/44/44
f 43/43/43 45/45/45 46/46/46
f 46/46/46 47/47/47 44/44/44
f 46/46/46 48/48/48 47/47/47
f 48/48/48 49/49/49 47/47/47
f 46/46/46 50/50/50 48/48/48
f 45/45/45 50/50/50 46/46/46
f 50/50/50 51/51/51 48/48/48
f 52/52/52 48/48/48 51/51/51
f 49/49/49 48/48/48 52/52/52
f 53/53/53 52/52/52 51/51/51
f 52/52/52 53/53/53 54/54/54
f 53/53/53 55/55/55 54/54/54
f 56/56/56 52/52/52 54/54/54
f 56/56/56 49/49/49 52/52/52
f 57/57/57 56/56/56 54/54/54
f 54/54/54 55/55/55 58/58/58
f 57/57/57 54/54/54 58/58/58
f 55/55/55 59/59/59 58/58/58
f 58/58/58 59/59/59 10/10/10
f 59/59/59 9/9/9 10/10/10
f 60/60/60 58/58/58 10/10/10
f 60/60/60 57/57/57 58/58/58
f 11/11/11 60/60/60 10/10/10
f 61/61/61 57/57/57 60/60/60
f 61/61/61 56/56/56 57/57/57
f 11/11/11 61/61/61 60/60/60
f 11/11/11 12/12/12 61/61/61
f 1/1/1 61/61/61 12/12/12
f 1/1/1 2/2/2 61/61/61
f 61/61/61 2/2/2 14/14/14
f 17/17/17 61/61/61 14/14/14
f 19/19/19 61/61/61 17/17/17
f 22/22/22 62/62/62 19/19/19
f 22/22/22 61/61/61 62/62/62
f 62/62/62 61/61/61 63/63/63
f 61/61/61 62/62/62 63/63/63
f 27/27/27 61/61/61 22/22/22
f 61/61/61 27/27/27 42/42/42
f 34/34/34 61/61/61 42/42/42
f 35/35/35 61/61/61 34/34/34
f 64/64/64 63/63/63 62/62/62
f 63/63/63 64/64/64 62/62/62
f 61/61/61 49/49/49 62/62/62
f 47/47/47 49/49/49 61/61/61
f 56/56/56 62/62/62 49/49/49
f 36/36/36 65/65/65 35/35/35
f 61/61/61 36/36/36 39/39/39
f 61/61/61 39/39/39 44/44/44
f 47/47/47 61/61/61 44/44/44
f 68/68/68 67/67/67 66/66/66
f 69/69/69 68/68/68 66/66/66
f 70/70/70 68/68/68 69/69/69
f 71/71/71 70/70/70 69/69/69
f 72/72/72 70/70/70 71/71/71
f 73/73/73 72/72/72 71/71/71
f 74/74/74 72/72/72 73/73/73
f 75/75/75 74/74/74 73/73/73
f 75/75/75 76/76/76 74/74/74
f 76/76/76 77/77/77 74/74/74
f 77/77/77 76/76/76 78/78/78
f 79/79/79 77/77/77 78/78/78
f 79/79/79 78/78/78 80/80/80
f 81/81/81 79/79/79 80/80/80
f 81/81/81 80/80/80 82/82/82
f 83/83/83 81/81/81 82/82/82
f 83/83/83 82/82/82 84/84/84
f 85/85/85 83/83/83 84/84/84
f 85/85/85 84/84/84 86/86/86
f 84/84/84 87/87/87 86/86/86
f 88/88/88 86/86/86 87/87/87
f 89/89/89 88/88/88 87/87/87
f 90/90/90 88/88/88 89/89/89
f 91/91/91 90/90/90 89/89/89
f 92/92/92 90/90/90 91/91/91
f 93/93/93 92/92/92 91/91/91
f 94/94/94 92/92/92 93/93/93
f 95/95/95 94/94/94 93/93/93
f 96/96/96 94/94/94 95/95/95
f 97/97/97 96/96/96 95/95/95
f 96/96/96 97/97/97 98/98/98
f 99/99/99 96/96/96 98/98/98
f 99/99/99 98/98/98 100/100/100
f 101/101/101 99/99/99 100/100/100
f 101/101/101 100/100/100 102/102/102
f 103/103/103 101/101/101 102/102/102
f 103/103/103 102/102/102 104/104/104
f 105/105/105 103/103/103 104/104/104
f 67/67/67 105/105/105 104/104/104
f 66/66/66 67/67/67 104/104/104
f 108/108/108 107/107/107 106/106/106
f 109/109/109 108/108/108 106/106/106
f 111/111/111 110/110/110 106/106/106
f 112/112/112 106/106/106 110/110/110
