g m_map_building_awning_01
v -0.2337901 0.2466927 -0.8257408
v -0.2343735 0.2200996 -0.8564903
v -0.09987892 0.1987975 -0.8564903
v -0.09163429 0.2241772 -0.8257408
v 0.03070213 0.1322637 -0.8564903
v 0.04638817 0.1538526 -0.8257408
v 0.1343276 0.02863548 -0.8564903
v 0.155917 0.04432091 -0.8257408
v 0.2008633 -0.1019442 -0.8564903
v 0.2262441 -0.09369782 -0.8257408
v 0.2198721 -0.2117278 -0.8564903
v 0.2446133 -0.2097063 -0.8256041
v 0.2236831 -0.2398273 -0.8268712
v 0.2198721 -0.2117278 -0.8564903
v -0.2446274 -0.2185754 -0.8564903
v -0.2446274 -0.2466927 -0.8147056
v 0.2008633 -0.1019442 -0.8564903
v 0.1343276 0.02863548 -0.8564903
v 0.03070213 0.1322637 -0.8564903
v -0.09987892 0.1987975 -0.8564903
v -0.2343735 0.2200996 -0.8564903
v 0.2446133 -0.2097063 -0.8256041
v 0.2236831 -0.2398273 -0.8268712
v 0.2236831 -0.2398273 -0.06345806
v 0.2446279 -0.2097701 -0.06345806
v 0.2446133 -0.2097063 0.8256044
v 0.2236831 -0.2398273 0.8268739
v -0.2337901 0.2466927 -0.8257408
v -0.09163429 0.2241772 -0.8257408
v -0.09163429 0.2241773 -0.06345806
v -0.2337901 0.2466927 -0.06345806
v 0.04638817 0.1538526 -0.06345806
v 0.04638817 0.1538526 -0.8257408
v 0.155917 0.04432091 -0.06345806
v 0.155917 0.04432091 -0.8257408
v 0.2262441 -0.09369782 -0.06345806
v 0.2262441 -0.09369782 -0.8257408
v 0.2446279 -0.2097701 -0.06345806
v 0.2446133 -0.2097063 -0.8256041
v -0.2337901 0.2466927 0.825746
v -0.09163429 0.2241772 0.825746
v 0.04638817 0.1538526 0.825746
v 0.155917 0.04432091 0.825746
v 0.2262441 -0.09369782 0.825746
v 0.2446133 -0.2097063 0.8256044
v 0.2236831 -0.2398273 -0.8268712
v 0.2446133 -0.2097063 -0.8256041
v 0.2198721 -0.2117278 -0.8564903
v -0.2337901 0.2466927 0.825746
v -0.09163429 0.2241772 0.825746
v -0.09987892 0.1987975 0.8564906
v -0.2343735 0.2200996 0.8564906
v 0.03070213 0.1322637 0.8564906
v 0.04638817 0.1538526 0.825746
v 0.1343276 0.02863548 0.8564906
v 0.155917 0.04432091 0.825746
v 0.2008633 -0.1019442 0.8564906
v 0.2262441 -0.09369782 0.825746
v 0.2198721 -0.2117278 0.8564906
v 0.2446133 -0.2097063 0.8256044
v -0.09987892 0.1987975 0.8564906
v -0.2446274 -0.2185754 0.8564906
v -0.2343735 0.2200996 0.8564906
v 0.03070213 0.1322637 0.8564906
v 0.1343276 0.02863548 0.8564906
v 0.2008633 -0.1019442 0.8564906
v 0.2198721 -0.2117278 0.8564906
v 0.2236831 -0.2398273 0.8268739
v 0.2446133 -0.2097063 0.8256044
v -0.2446274 -0.2466927 0.8147084
vt 0.2401123 0.6586914
vt 0.2408447 0.6523438
vt 0.2199707 0.6479492
vt 0.2178955 0.6542969
vt 0.199707 0.6376953
vt 0.1960449 0.6430664
vt 0.1829834 0.6225586
vt 0.1781006 0.6269531
vt 0.1716309 0.6035156
vt 0.1655273 0.605957
vt 0.1687012 0.5869141
vt 0.1623535 0.5869141
vt 0.1655273 0.581543
vt 0.1687012 0.5869141
vt 0.2408447 0.5791016
vt 0.2388916 0.5712891
vt 0.1716309 0.6035156
vt 0.1829834 0.6225586
vt 0.199707 0.6376953
vt 0.2199707 0.6479492
vt 0.2408447 0.6523438
vt 0.1680908 0.232666
vt 0.1623535 0.2324219
vt 0.1623535 0.3522949
vt 0.1680908 0.3522949
vt 0.1680908 0.4921875
vt 0.1623535 0.4921875
vt 0.2822266 0.2325439
vt 0.2595215 0.2325439
vt 0.2595215 0.3522949
vt 0.2822266 0.3522949
vt 0.2352295 0.3522949
vt 0.2352295 0.2325439
vt 0.2109375 0.3522949
vt 0.2109375 0.2325439
vt 0.1865234 0.3522949
vt 0.1865234 0.2325439
vt 0.1680908 0.3522949
vt 0.1680908 0.232666
vt 0.2822266 0.4921875
vt 0.2595215 0.4921875
vt 0.2352295 0.4921875
vt 0.2109375 0.4921875
vt 0.1865234 0.4921875
vt 0.1680908 0.4921875
vt 0.1655273 0.581543
vt 0.1623535 0.5869141
vt 0.1687012 0.5869141
vt 0.3684082 0.1815186
vt 0.390625 0.1766357
vt 0.3884277 0.1704102
vt 0.3674316 0.1749268
vt 0.4086914 0.1602783
vt 0.4123535 0.1658936
vt 0.425293 0.1452637
vt 0.4304199 0.1496582
vt 0.4367676 0.1260986
vt 0.4428711 0.1286621
vt 0.4396973 0.1096802
vt 0.4460449 0.109436
vt 0.3884277 0.1704102
vt 0.3674316 0.1016235
vt 0.3674316 0.1749268
vt 0.4086914 0.1602783
vt 0.425293 0.1452637
vt 0.4367676 0.1260986
vt 0.4396973 0.1096802
vt 0.4428711 0.1043091
vt 0.4460449 0.109436
vt 0.3696289 0.09375
vn 0.1563621 0.9872255 -0.03060573
vn 0.02271867 0.143439 -0.9893984
vn 0.04596095 0.1386961 -0.9892679
vn 0.3143939 0.9487962 -0.03069509
vn 0.08526003 0.117347 -0.9894243
vn 0.5875079 0.808636 -0.03069599
vn 0.115952 0.08424299 -0.9896758
vn 0.808636 0.5875079 -0.03069599
vn 0.133478 0.04704802 -0.9899344
vn 0.9436268 0.3296199 -0.03031899
vn 0.09051303 -0.3915311 -0.9157023
vn 0.9994992 -0.016992 -0.026696
vn 0.5541279 -0.772036 -0.3112919
vn 0.09051303 -0.3915311 -0.9157023
vn 0.001598 -0.3610819 -0.9325328
vn 0.003478 -0.7856071 -0.6187161
vn 0.133478 0.04704802 -0.9899344
vn 0.115952 0.08424299 -0.9896758
vn 0.08526003 0.117347 -0.9894243
vn 0.04596095 0.1386961 -0.9892679
vn 0.02271867 0.143439 -0.9893984
vn 0.9994992 -0.016992 -0.026696
vn 0.5541279 -0.772036 -0.3112919
vn 0.8208262 -0.5711781 0
vn 0.9998448 -0.017615 0
vn 0.9995828 -0.017478 0.02299199
vn 0.586144 -0.759178 0.282991
vn 0.1563621 0.9872255 -0.03060573
vn 0.3143939 0.9487962 -0.03069509
vn 0.314544 0.9492429 0
vn 0.156435 0.9876882 0
vn 0.5877851 0.8090171 0
vn 0.5875079 0.808636 -0.03069599
vn 0.8090166 0.5877858 0
vn 0.808636 0.5875079 -0.03069599
vn 0.9441081 0.329636 0
vn 0.9436268 0.3296199 -0.03031899
vn 0.9998448 -0.017615 0
vn 0.9994992 -0.016992 -0.026696
vn 0.1563809 0.9873446 0.02637499
vn 0.314434 0.9489108 0.026451
vn 0.5875791 0.8087343 0.02645101
vn 0.8087334 0.5875803 0.02645101
vn 0.9437423 0.3296481 0.02612701
vn 0.9995828 -0.017478 0.02299199
vn 0.5541279 -0.772036 -0.3112919
vn 0.9994992 -0.016992 -0.026696
vn 0.09051303 -0.3915311 -0.9157023
vn 0.1563809 0.9873446 0.02637499
vn 0.314434 0.9489108 0.026451
vn 0.04595601 0.138689 0.9892692
vn 0.02271799 0.1434309 0.9893995
vn 0.08525598 0.117345 0.9894248
vn 0.5875791 0.8087343 0.02645101
vn 0.115949 0.08424204 0.9896763
vn 0.8087334 0.5875803 0.02645101
vn 0.133476 0.047048 0.9899347
vn 0.9437423 0.3296481 0.02612701
vn 0.09051298 -0.3915249 0.9157049
vn 0.9995828 -0.017478 0.02299199
vn 0.04595601 0.138689 0.9892692
vn 0.001598 -0.361076 0.9325351
vn 0.02271799 0.1434309 0.9893995
vn 0.08525598 0.117345 0.9894248
vn 0.115949 0.08424204 0.9896763
vn 0.133476 0.047048 0.9899347
vn 0.09051298 -0.3915249 0.9157049
vn 0.586144 -0.759178 0.282991
vn 0.9995828 -0.017478 0.02299199
vn 0.003476999 -0.7856017 0.6187229
g m_map_building_awning_01_0
f 3/3/3 2/2/2 1/1/1
f 4/4/4 3/3/3 1/1/1
f 5/5/5 3/3/3 4/4/4
f 6/6/6 5/5/5 4/4/4
f 7/7/7 5/5/5 6/6/6
f 8/8/8 7/7/7 6/6/6
f 9/9/9 7/7/7 8/8/8
f 10/10/10 9/9/9 8/8/8
f 11/11/11 9/9/9 10/10/10
f 12/12/12 11/11/11 10/10/10
f 15/15/15 14/14/14 13/13/13
f 16/16/16 15/15/15 13/13/13
f 15/15/15 17/17/17 14/14/14
f 15/15/15 18/18/18 17/17/17
f 15/15/15 19/19/19 18/18/18
f 15/15/15 20/20/20 19/19/19
f 15/15/15 21/21/21 20/20/20
f 24/24/24 23/23/23 22/22/22
f 25/25/25 24/24/24 22/22/22
f 24/24/24 25/25/25 26/26/26
f 27/27/27 24/24/24 26/26/26
f 30/30/30 29/29/29 28/28/28
f 31/31/31 30/30/30 28/28/28
f 30/30/30 32/32/32 29/29/29
f 32/32/32 33/33/33 29/29/29
f 32/32/32 34/34/34 33/33/33
f 34/34/34 35/35/35 33/33/33
f 34/34/34 36/36/36 35/35/35
f 36/36/36 37/37/37 35/35/35
f 36/36/36 38/38/38 37/37/37
f 38/38/38 39/39/39 37/37/37
f 30/30/30 31/31/31 40/40/40
f 41/41/41 30/30/30 40/40/40
f 32/32/32 30/30/30 41/41/41
f 42/42/42 32/32/32 41/41/41
f 34/34/34 32/32/32 42/42/42
f 43/43/43 34/34/34 42/42/42
f 36/36/36 34/34/34 43/43/43
f 44/44/44 36/36/36 43/43/43
f 38/38/38 36/36/36 44/44/44
f 45/45/45 38/38/38 44/44/44
f 48/48/48 47/47/47 46/46/46
f 51/51/51 50/50/50 49/49/49
f 52/52/52 51/51/51 49/49/49
f 51/51/51 53/53/53 50/50/50
f 53/53/53 54/54/54 50/50/50
f 53/53/53 55/55/55 54/54/54
f 55/55/55 56/56/56 54/54/54
f 55/55/55 57/57/57 56/56/56
f 57/57/57 58/58/58 56/56/56
f 57/57/57 59/59/59 58/58/58
f 59/59/59 60/60/60 58/58/58
f 63/63/63 62/62/62 61/61/61
f 61/61/61 62/62/62 64/64/64
f 64/64/64 62/62/62 65/65/65
f 65/65/65 62/62/62 66/66/66
f 66/66/66 62/62/62 67/67/67
f 67/67/67 62/62/62 68/68/68
f 69/69/69 67/67/67 68/68/68
f 62/62/62 70/70/70 68/68/68
