g m_map_raft_rock_03
v -0.05256424 -0.3012315 0.3327613
v -0.000192415 0.1710976 0.2203138
v 0.02955002 0.1803185 0.251391
v -0.02391922 -0.2985992 0.3632166
v -0.05636306 -0.3038723 0.03808597
v -0.03233597 0.07284795 0.02413944
v -0.03026078 -0.3185308 0.003740267
v -0.00754471 0.07687439 -0.008767363
v 0.006288297 0.1070726 0.01423343
v 0.03678024 0.2030779 0.2075306
v 0.2269487 0.1808481 0.2516696
v 0.2225847 0.1563951 0.2975861
v 0.02955002 0.1803185 0.251391
v -0.000192415 0.1710976 0.2203138
v 0.257636 0.1514976 0.2701868
v -0.000192415 0.1710976 0.2203138
v -0.03233597 0.07284795 0.02413944
v 0.006288297 0.1070726 0.01423343
v 0.03678024 0.2030779 0.2075306
v -0.00754471 0.07687439 -0.008767363
v 0.2415556 0.0332909 0.01402835
v 0.2307463 0.06488208 0.03624698
v 0.006288297 0.1070726 0.01423343
v 0.256403 -0.3187059 0.03050968
v -0.03026078 -0.3185308 0.003740267
v 0.2415556 0.0332909 0.01402835
v 0.256403 -0.3187059 0.03050968
v 0.2797233 -0.3077465 0.06281497
v 0.2634587 0.03493641 0.04559665
v 0.257636 0.1514976 0.2701868
v 0.2928655 -0.3048418 0.3765326
v 0.2307463 0.06488208 0.03624698
v 0.2634587 0.03493641 0.04559665
v 0.257636 0.1514976 0.2701868
v 0.2269487 0.1808481 0.2516696
v 0.2307463 0.06488208 0.03624698
v 0.257636 0.1514976 0.2701868
v 0.2928655 -0.3048418 0.3765326
v 0.2577544 -0.2985431 0.4028943
v 0.2225847 0.1563951 0.2975861
v 0.02955002 0.1803185 0.251391
v -0.02391922 -0.2985992 0.3632166
v 0.2307463 0.06488208 0.03624698
v 0.2269487 0.1808481 0.2516696
v 0.03678024 0.2030779 0.2075306
v 0.006288297 0.1070726 0.01423343
v -0.3004707 -0.3008772 -0.05475003
v -0.1424947 0.2817585 -0.1408856
v -0.1357356 0.3007004 -0.09090939
v -0.2974751 -0.3026836 -0.003782621
v -0.001369173 -0.3025504 0.2868583
v 0.0509172 0.2654246 0.1310001
v -0.05130081 -0.3039657 -0.3992947
v -0.009597933 0.1396371 -0.3962133
v -0.09658645 0.3187059 -0.1263131
v 0.08618454 0.2859256 0.08921999
v 0.0509172 0.2654246 0.1310001
v -0.1357356 0.3007004 -0.09090939
v 0.2758952 0.1148007 -0.1601318
v 0.03393966 0.1762995 -0.3799032
v 0.1029607 0.2476678 0.1275565
v -0.1424947 0.2817585 -0.1408856
v -0.009597933 0.1396371 -0.3962133
v 0.03393966 0.1762995 -0.3799032
v -0.09658645 0.3187059 -0.1263131
v 0.04658615 0.121478 -0.3988671
v 0.2882231 0.06463911 -0.1815783
v 0.2758952 0.1148007 -0.1601318
v 0.03393966 0.1762995 -0.3799032
v -0.009597933 0.1396371 -0.3962133
v -0.05130081 -0.3039657 -0.3992947
v 0.007556608 -0.3041743 -0.4028946
v 0.04658615 0.121478 -0.3988671
v 0.2913554 -0.3043863 -0.1489825
v 0.2882231 0.06463911 -0.1815783
v 0.2882231 0.06463911 -0.1815783
v 0.2913554 -0.3043863 -0.1489825
v 0.3004716 -0.3048544 -0.09076321
v 0.2970183 0.08178201 -0.1249902
v 0.1029607 0.2476678 0.1275565
v 0.05201584 -0.3014098 0.2796964
v 0.2970183 0.08178201 -0.1249902
v 0.1029607 0.2476678 0.1275565
v 0.08618454 0.2859256 0.08921999
v 0.2758952 0.1148007 -0.1601318
v 0.2882231 0.06463911 -0.1815783
v 0.1029607 0.2476678 0.1275565
v 0.05201584 -0.3014098 0.2796964
v -0.001369173 -0.3025504 0.2868583
v 0.0509172 0.2654246 0.1310001
v -0.09658645 0.3187059 -0.1263131
v -0.1357356 0.3007004 -0.09090939
v -0.1424947 0.2817585 -0.1408856
v 0.03393966 0.1762995 -0.3799032
v -0.009597933 0.1396371 -0.3962133
v 0.04658615 0.121478 -0.3988671
vt 0.965332 0.8764648
vt 0.9648438 0.9790039
vt 0.9741211 0.9799805
vt 0.9741211 0.8764648
vt 0.9052734 0.8901367
vt 0.9199219 0.9677734
vt 0.8955078 0.8891602
vt 0.9116211 0.9707031
vt 0.9160156 0.9780273
vt 0.4489746 0.333252
vt 0.4370117 0.2946777
vt 0.4260254 0.2963867
vt 0.439209 0.3371582
vt 0.4465332 0.3432617
vt 0.4301758 0.2880859
vt 0.4465332 0.3432617
vt 0.4914551 0.3544922
vt 0.4921875 0.3432617
vt 0.4489746 0.333252
vt 0.8500977 0.02825928
vt 0.8413086 0.08068848
vt 0.8491211 0.0791626
vt 0.8579102 0.03179932
vt 0.7670898 0.08416748
vt 0.7670898 0.02380371
vt 0.9399414 0.01294708
vt 0.8657227 0.01000214
vt 0.8671875 0.0186615
vt 0.9384766 0.02096558
vt 0.9633789 0.06762695
vt 0.8657227 0.08508301
vt 0.9472656 0.01699829
vt 0.9384766 0.02096558
vt 0.9633789 0.06762695
vt 0.972168 0.06280518
vt 0.9472656 0.01699829
vt 0.925293 0.6640625
vt 0.9077148 0.7607422
vt 0.9165039 0.7617188
vt 0.9345703 0.6655273
vt 0.9760742 0.6625977
vt 0.9760742 0.7666016
vt 0.4909668 0.2927246
vt 0.4370117 0.2946777
vt 0.4489746 0.333252
vt 0.4921875 0.3432617
vt 0.3857422 0.1407471
vt 0.3964844 0.2680664
vt 0.4074707 0.2700195
vt 0.3959961 0.1381836
vt 0.4831543 0.1381836
vt 0.4682617 0.2612305
vt 0.3017578 0.1710205
vt 0.3295898 0.2602539
vt 0.4714355 0.06622314
vt 0.4887695 0.1223145
vt 0.5009766 0.1208496
vt 0.4821777 0.06182861
vt 0.4106445 0.126709
vt 0.4072266 0.0539856
vt 0.4963379 0.1312256
vt 0.4733887 0.0539856
vt 0.4077148 0.04153442
vt 0.4072266 0.0539856
vt 0.4714355 0.06622314
vt 0.310791 0.1084595
vt 0.3195801 0.0406189
vt 0.3078613 0.03985596
vt 0.2983398 0.109314
vt 0.3056641 0.1195068
vt 0.3977051 0.1312256
vt 0.3984375 0.1189575
vt 0.310791 0.1084595
vt 0.3984375 0.03759766
vt 0.3195801 0.0406189
vt 0.8666992 0.2366943
vt 0.8652344 0.3149414
vt 0.8779297 0.3164063
vt 0.8793945 0.2355957
vt 0.9443359 0.1982422
vt 0.972168 0.3164063
vt 0.8793945 0.2355957
vt 0.9443359 0.1982422
vt 0.9384766 0.1875
vt 0.8730469 0.2264404
vt 0.8666992 0.2366943
vt 0.01000214 0.7104492
vt 0.01011658 0.8305664
vt 0.02130127 0.8320313
vt 0.02130127 0.7084961
vt 0.4714355 0.06622314
vt 0.4821777 0.06182861
vt 0.4733887 0.0539856
vt 0.2983398 0.109314
vt 0.3056641 0.1195068
vt 0.310791 0.1084595
vn -0.9772081 0.127161 0.169983
vn -0.9709416 0.1943299 0.139672
vn -0.2424029 0.2954419 0.9240968
vn -0.2589471 0.2341431 0.9370824
vn -0.9948949 0.089667 -0.046305
vn -0.9907426 0.1301389 -0.03863899
vn -0.020832 -0.03303301 -0.9992372
vn -0.02379599 0.014909 -0.9996057
vn 0.03490198 0.8562274 -0.5154187
vn 0.06876702 0.9345491 -0.349126
vn 0.2894121 0.9075353 -0.3043361
vn -0.05688602 0.2791451 0.9585624
vn -0.2424029 0.2954419 0.9240968
vn -0.9709416 0.1943299 0.139672
vn 0.9842489 0.152456 0.089505
vn -0.9709416 0.1943299 0.139672
vn -0.9907426 0.1301389 -0.03863899
vn 0.03490198 0.8562274 -0.5154187
vn 0.06876702 0.9345491 -0.349126
vn -0.02379599 0.014909 -0.9996057
vn 0.1762139 0.000101 -0.9843518
vn 0.3050911 0.8052543 -0.5084141
vn 0.03490198 0.8562274 -0.5154187
vn 0.1740069 -0.03555198 -0.9841025
vn -0.020832 -0.03303301 -0.9992372
vn 0.1762139 0.000101 -0.9843518
vn 0.1740069 -0.03555198 -0.9841025
vn 0.9940182 0.05497801 -0.09436802
vn 0.9910075 0.09455895 -0.09467096
vn 0.9842489 0.152456 0.089505
vn 0.9888833 0.09380902 0.115368
vn 0.3050911 0.8052543 -0.5084141
vn 0.9910075 0.09455895 -0.09467096
vn 0.9842489 0.152456 0.089505
vn 0.2894121 0.9075353 -0.3043361
vn 0.3050911 0.8052543 -0.5084141
vn 0.9842489 0.152456 0.089505
vn 0.9888833 0.09380902 0.115368
vn -0.03342101 0.236866 0.9709673
vn -0.05688602 0.2791451 0.9585624
vn -0.2424029 0.2954419 0.9240968
vn -0.2589471 0.2341431 0.9370824
vn 0.3050911 0.8052543 -0.5084141
vn 0.2894121 0.9075353 -0.3043361
vn 0.06876702 0.9345491 -0.349126
vn 0.03490198 0.8562274 -0.5154187
vn -0.8764896 0.1475349 -0.4582568
vn -0.8504444 0.2091691 -0.4826932
vn -0.7235461 0.330634 0.605939
vn -0.7451529 0.2726979 0.6085909
vn -0.6150733 0.2758191 0.7386533
vn -0.6211239 0.3155629 0.7173738
vn -0.7713032 0.108837 -0.6270932
vn -0.7700351 0.150531 -0.619989
vn 0.451696 0.8566919 -0.2490979
vn 0.451696 0.8566919 -0.2490979
vn -0.6211239 0.3155629 0.7173738
vn -0.7235461 0.330634 0.605939
vn 0.451696 0.8566919 -0.2490979
vn 0.451696 0.8566919 -0.2490979
vn 0.753821 0.161487 0.6369269
vn -0.8504444 0.2091691 -0.4826932
vn -0.7700351 0.150531 -0.619989
vn 0.451696 0.8566919 -0.2490979
vn 0.451696 0.8566919 -0.2490979
vn 0.5763346 0.007903995 -0.8171756
vn 0.728626 -0.008756999 -0.6848559
vn 0.451696 0.8566919 -0.2490979
vn 0.451696 0.8566919 -0.2490979
vn -0.7700351 0.150531 -0.619989
vn -0.7713032 0.108837 -0.6270932
vn 0.5671497 -0.04708598 -0.8222677
vn 0.5763346 0.007903995 -0.8171756
vn 0.7332921 -0.05056101 -0.6780311
vn 0.728626 -0.008756999 -0.6848559
vn 0.728626 -0.008756999 -0.6848559
vn 0.7332921 -0.05056101 -0.6780311
vn 0.8592492 0.06499001 0.5074121
vn 0.858485 0.106629 0.5016311
vn 0.753821 0.161487 0.6369269
vn 0.7354059 0.108703 0.668851
vn 0.858485 0.106629 0.5016311
vn 0.753821 0.161487 0.6369269
vn 0.451696 0.8566919 -0.2490979
vn 0.451696 0.8566919 -0.2490979
vn 0.728626 -0.008756999 -0.6848559
vn 0.753821 0.161487 0.6369269
vn 0.7354059 0.108703 0.668851
vn -0.6150733 0.2758191 0.7386533
vn -0.6211239 0.3155629 0.7173738
vn 0.451696 0.8566919 -0.2490979
vn -0.7235461 0.330634 0.605939
vn -0.8504444 0.2091691 -0.4826932
vn 0.451696 0.8566919 -0.2490979
vn -0.7700351 0.150531 -0.619989
vn 0.5763346 0.007903995 -0.8171756
g m_map_raft_rock_03_0
f 3/3/3 2/2/2 1/1/1
f 4/4/4 3/3/3 1/1/1
f 5/5/5 1/1/1 2/2/2
f 6/6/6 5/5/5 2/2/2
f 7/7/7 5/5/5 6/6/6
f 8/8/8 7/7/7 6/6/6
f 8/8/8 6/6/6 9/9/9
f 12/12/12 11/11/11 10/10/10
f 13/13/13 12/12/12 10/10/10
f 14/14/14 13/13/13 10/10/10
f 15/15/15 11/11/11 12/12/12
f 18/18/18 17/17/17 16/16/16
f 19/19/19 18/18/18 16/16/16
f 22/22/22 21/21/21 20/20/20
f 23/23/23 22/22/22 20/20/20
f 21/21/21 24/24/24 20/20/20
f 24/24/24 25/25/25 20/20/20
f 28/28/28 27/27/27 26/26/26
f 29/29/29 28/28/28 26/26/26
f 28/28/28 29/29/29 30/30/30
f 31/31/31 28/28/28 30/30/30
f 32/32/32 29/29/29 26/26/26
f 35/35/35 34/34/34 33/33/33
f 36/36/36 35/35/35 33/33/33
f 39/39/39 38/38/38 37/37/37
f 40/40/40 39/39/39 37/37/37
f 39/39/39 40/40/40 41/41/41
f 42/42/42 39/39/39 41/41/41
f 45/45/45 44/44/44 43/43/43
f 46/46/46 45/45/45 43/43/43
f 49/49/49 48/48/48 47/47/47
f 50/50/50 49/49/49 47/47/47
f 50/50/50 51/51/51 49/49/49
f 51/51/51 52/52/52 49/49/49
f 53/53/53 47/47/47 48/48/48
f 54/54/54 53/53/53 48/48/48
f 57/57/57 56/56/56 55/55/55
f 58/58/58 57/57/57 55/55/55
f 55/55/55 56/56/56 59/59/59
f 60/60/60 55/55/55 59/59/59
f 61/61/61 56/56/56 57/57/57
f 64/64/64 63/63/63 62/62/62
f 65/65/65 64/64/64 62/62/62
f 68/68/68 67/67/67 66/66/66
f 69/69/69 68/68/68 66/66/66
f 72/72/72 71/71/71 70/70/70
f 73/73/73 72/72/72 70/70/70
f 74/74/74 72/72/72 73/73/73
f 75/75/75 74/74/74 73/73/73
f 78/78/78 77/77/77 76/76/76
f 79/79/79 78/78/78 76/76/76
f 78/78/78 79/79/79 80/80/80
f 81/81/81 78/78/78 80/80/80
f 84/84/84 83/83/83 82/82/82
f 85/85/85 84/84/84 82/82/82
f 85/85/85 82/82/82 86/86/86
f 89/89/89 88/88/88 87/87/87
f 90/90/90 89/89/89 87/87/87
f 93/93/93 92/92/92 91/91/91
f 96/96/96 95/95/95 94/94/94
