g m_mapspc_rock_03
v -0.2406516 0.2021477 0.4415701
v -0.3437743 0.2942891 0.3203618
v -0.2484967 0.3579308 0.4075714
v 0.06895225 0.4689125 0.3858499
v -0.09960578 0.1469858 0.452612
v 0.2338247 0.2680346 0.4269632
v 0.1646533 0.4474515 0.3015549
v 0.04093773 0.5237418 0.2999937
v 0.1090278 0.7277647 0.3306439
v -0.09114471 0.5547784 0.2959985
v 0.2319916 0.6069739 0.3165349
v 0.2290263 0.3680093 0.2728529
v 0.4363969 0.231509 0.2121782
v 0.3392382 0.1656693 0.2277089
v 0.3003055 0.2256761 0.3800738
v 0.3302914 0.09854113 0.3726556
v 0.3514262 0.005122575 0.2726654
v 0.2606097 0.1073132 0.4204724
v 0.4777086 0.04835262 0.2209467
v 0.5100657 -0.09152304 0.135782
v 0.3623 -0.2575907 0.1347548
v 0.4010248 -0.269453 0.02750595
v 0.2332146 -0.298056 0.221568
v 0.2283878 -0.3837963 0.1105278
v 0.2752108 -0.1136652 0.3141457
v 0.09920585 -0.2539915 0.2707967
v 0.5355446 0.01558176 0.1617172
v 0.577341 -0.07469038 -0.07837906
v 0.5253093 -0.1675876 -0.07363953
v 0.505803 -0.1694923 -0.1669258
v 0.5287727 -0.08590515 -0.2232779
v 0.539292 0.0159064 -0.20074
v 0.4114808 0.05448818 -0.3505127
v 0.419117 -0.08664245 -0.3412071
v 0.556887 0.1105759 -0.009164887
v 0.3269429 -0.002842698 -0.4024412
v 0.1502318 -0.1764029 -0.397323
v 0.343738 -0.2086407 -0.3164848
v -0.0245404 -0.3299809 -0.2846211
v 0.1316436 -0.3903635 -0.17069
v -0.08413139 -0.1997168 -0.3675069
v -0.27884 -0.3565185 -0.2498695
v -0.2378577 -0.4228044 -0.1051756
v -0.008160286 -0.4293618 -0.07351725
v 0.002703705 -0.4250032 0.07348053
v -0.3377463 -0.3467031 0.005791168
v 0.3524895 0.1574177 -0.3391656
v 0.4052213 0.2400234 -0.2548302
v 0.4808133 0.1555101 -0.2343401
v 0.3215478 0.3780986 -0.1904686
v -0.03976211 -0.141116 -0.3786256
v 0.2014129 0.05213033 -0.396387
v -0.07357841 0.04697879 -0.3836404
v 0.1262254 0.2406737 -0.2878828
v -0.2046149 0.2042525 -0.2591161
v 0.185349 0.08517808 -0.2649025
v -0.326185 0.2160819 -0.2226569
v -0.3883624 -0.02813451 -0.3315193
v -0.4816176 0.05142187 -0.2504992
v -0.4321458 -0.2515211 -0.2309445
v 0.2562663 0.2792994 -0.1870493
v 0.1718016 0.3387452 -0.2125584
v 0.005738754 0.4068819 -0.081754
v 0.08108352 0.6162702 0.04485794
v 0.2609969 0.4736214 -0.1090747
v 0.1831165 0.6373352 -0.008075256
v -0.4289189 0.301426 -0.1132959
v -0.5450825 0.06108224 -0.176149
v -0.457556 0.4576459 0.1113582
v -0.5719905 0.2020085 -0.002662964
v -0.6387909 0.08424435 0.1355524
v -0.5973729 0.001661706 -0.04403503
v -0.4807472 -0.2139483 -0.1868063
v -0.5238298 -0.1492895 -0.01512115
v -0.3822992 -0.3520971 -0.1343263
v -0.4246577 -0.2470164 0.03301788
v -0.4207626 0.5973014 0.2326317
v -0.5516077 0.356572 0.2414497
v -0.3263029 0.7352507 0.2934195
v -0.2198457 0.8531761 0.2592847
v -0.5123447 0.4168591 0.3169788
v -0.6309028 0.1687452 0.2024884
v -0.5927007 0.1558694 0.3224011
v -0.4190465 -0.06454889 0.2211763
v -0.5458554 0.209979 0.3616073
v -0.3313698 0.001207674 0.2857187
v -0.2563545 -0.1202261 0.2478969
v -0.2256451 0.1113118 0.4258493
v -0.1710633 0.8155361 0.3242058
v -0.1019347 0.8574203 0.2881479
v -0.09209228 0.8787397 0.2302267
v -0.1040031 0.8767436 0.1910065
v -0.2019777 0.8324466 0.1856711
v -0.06587394 0.7811778 0.1025534
v -0.3800058 0.6021937 0.1730656
v -0.2148735 0.6788896 0.1333612
v -0.348 0.5015175 0.1115649
v -0.3409708 0.5399178 0.04342697
v -0.05634025 0.6751884 0.08714096
v -0.1645221 0.6704298 0.05797897
v -0.07113785 0.6564345 0.01736175
v -0.3022475 0.299948 -0.06505188
v -0.3274365 0.2628187 -0.1653426
v -0.1679129 0.2652145 -0.1209131
v -0.2143413 0.4005909 -0.131906
v -0.312634 0.4052826 -0.07745636
v -0.1974366 0.5748507 -0.0006660461
v -0.04579315 0.4851144 -0.0362619
v 0.07243225 0.5723589 -0.05671127
v 0.09761451 0.7014314 0.04164276
v -0.08083557 0.2948112 -0.1248201
v 0.02413956 0.7880521 0.08599899
v 0.3988491 0.4560377 0.1403389
v 0.3751383 0.5085928 0.07549378
v 0.5507705 0.1047817 0.1042581
v 0.2770641 0.6677448 0.1521881
v 0.4808133 0.1555101 -0.2343401
v 0.4052213 0.2400234 -0.2548302
v 0.208812 0.6525249 -0.0003836059
v 0.176774 0.7772793 0.1890991
v 0.02413956 0.7880521 0.08599899
v -0.1040031 0.8767436 0.1910065
v 0.04093986 0.853938 0.2205781
v 0.3215478 0.3780986 -0.1904686
v -0.05286018 0.8264422 0.3118784
v -0.1262218 0.6686093 0.345172
v -0.1019347 0.8574203 0.2881479
v -0.09209228 0.8787397 0.2302267
v 0.2609969 0.4736214 -0.1090747
v 0.1831165 0.6373352 -0.008075256
v 0.09761451 0.7014314 0.04164276
v -0.2834293 0.6679644 0.3682512
v -0.1710633 0.8155361 0.3242058
v -0.419461 0.479869 0.3633491
v -0.2545723 0.4795347 0.3036676
v -0.1613567 0.454928 0.3893463
v -0.4989728 0.2780709 0.3822632
v -0.0783033 -0.2652427 0.2445268
v 0.1642933 -0.05177027 0.3699159
v 0.07547393 -0.3693364 0.1718184
v 0.1742634 -0.4119523 -0.04837443
v -0.2834293 0.6679644 0.3682512
v -0.419461 0.479869 0.3633491
v -0.3857358 0.6112807 0.3434526
v -0.4989728 0.2780709 0.3822632
v -0.5458554 0.209979 0.3616073
vt 0.1638578 0.07872392
vt 0.1665414 0.06063835
vt 0.150443 0.07146125
vt 0.1238024 0.09918998
vt 0.1606012 0.09277548
vt 0.13786 0.1190336
vt 0.1177516 0.1143637
vt 0.1148467 0.09678979
vt 0.09196857 0.1035253
vt 0.1175685 0.08022918
vt 0.1015093 0.1186026
vt 0.1224511 0.1259889
vt 0.1331725 0.1524901
vt 0.1385825 0.1433818
vt 0.1390891 0.1273258
vt 0.1477799 0.1334634
vt 0.1513225 0.143909
vt 0.1491197 0.1257919
vt 0.1484202 0.1576221
vt 0.1584155 0.1657374
vt 0.1669868 0.1551745
vt 0.1732485 0.1655709
vt 0.16898 0.1397651
vt 0.1765462 0.1467523
vt 0.1592847 0.1364276
vt 0.1723927 0.1254537
vt 0.1516538 0.1656834
vt 0.165577 0.187345
vt 0.1721127 0.1818893
vt 0.1801596 0.1876828
vt 0.181224 0.1968342
vt 0.1895734 0.2136513
vt 0.213125 0.2008897
vt 0.2022661 0.193542
vt 0.1467941 0.1835939
vt 0.2170025 0.1905506
vt 0.2185283 0.1707713
vt 0.2019392 0.1830551
vt 0.2161613 0.1506992
vt 0.200587 0.1565699
vt 0.2266586 0.1505764
vt 0.2236473 0.1290739
vt 0.2122314 0.1230857
vt 0.1995482 0.1396675
vt 0.1897192 0.1304349
vt 0.210074 0.107584
vt 0.2292763 0.2006143
vt 0.2363012 0.2111682
vt 0.2139406 0.2161617
vt 0.2684253 0.2009333
vt 0.2293781 0.1561099
vt 0.229661 0.1826983
vt 0.2419689 0.1542752
vt 0.2576812 0.1736529
vt 0.2592957 0.1382419
vt 0.2447528 0.1818945
vt 0.2590464 0.1246237
vt 0.2401194 0.125395
vt 0.2438698 0.114354
vt 0.2287674 0.1172928
vt 0.2610766 0.1905636
vt 0.2698609 0.1774453
vt 0.285712 0.1524568
vt 0.3156987 0.1541531
vt 0.2904543 0.190039
vt 0.317869 0.1697015
vt 0.2631968 0.1077845
vt 0.2423604 0.1053995
vt 0.277543 0.08686651
vt 0.2492092 0.08909003
vt 0.2313672 0.07677577
vt 0.2335717 0.09410264
vt 0.2289805 0.111664
vt 0.2231501 0.09719484
vt 0.2203207 0.1145593
vt 0.2139075 0.09971769
vt 0.2955429 0.07985221
vt 0.2604957 0.06742992
vt 0.3160045 0.08093573
vt 0.3313774 0.09298138
vt 0.2699025 0.06255777
vt 0.2362265 0.06858452
vt 0.2226937 0.0566151
vt 0.203452 0.08389534
vt 0.2033 0.04964564
vt 0.1912869 0.08234225
vt 0.1907968 0.0945995
vt 0.1707881 0.08407645
vt 0.3371634 0.08499928
vt 0.3439388 0.09493874
vt 0.342579 0.1032989
vt 0.3394541 0.1078593
vt 0.3287606 0.1018533
vt 0.3297511 0.1240207
vt 0.2973903 0.08870114
vt 0.3128793 0.1092217
vt 0.2892277 0.09722222
vt 0.2919802 0.1059056
vt 0.3188018 0.1316036
vt 0.3105891 0.1209303
vt 0.3112949 0.1341887
vt 0.2720409 0.1180799
vt 0.2637936 0.1209697
vt 0.271525 0.1358588
vt 0.2815455 0.1291033
vt 0.280361 0.1169452
vt 0.2998115 0.1229502
vt 0.294342 0.1445179
vt 0.3030888 0.1574645
vt 0.3259818 0.1522214
vt 0.2740786 0.1452919
vt 0.3337947 0.1353871
vt 0.1098755 0.1516415
vt 0.1021876 0.1556038
vt 0.1458443 0.1714014
vt 0.08868301 0.1347735
vt 0.1399391 0.2068111
vt 0.1243507 0.2050612
vt 0.07574128 0.1493531
vt 0.08054727 0.1191346
vt 0.06062244 0.1168189
vt 0.06380054 0.08921976
vt 0.07431497 0.1018657
vt 0.1038845 0.1915191
vt 0.08282477 0.08544491
vt 0.1043569 0.07475109
vt 0.0770506 0.0813043
vt 0.06886472 0.08715881
vt 0.09082514 0.1762958
vt 0.07316607 0.151163
vt 0.06550074 0.1344462
vt 0.1112351 0.05479203
vt 0.08597876 0.06999581
vt 0.1471892 0.04355235
vt 0.1354208 0.06281234
vt 0.1360854 0.07692806
vt 0.1849443 0.04674594
vt 0.1825406 0.1117512
vt 0.1611202 0.1235188
vt 0.1800539 0.1299849
vt 0.1894753 0.1528367
vt 0.3169897 0.06728147
vt 0.2842585 0.05909182
vt 0.3016597 0.06863587
vt 0.2540917 0.04726852
vt 0.2392053 0.05047844
vn -0.2596092 0.1167468 0.9586309
vn -0.1026388 -0.03457611 0.9941176
vn -0.1992755 0.2563647 0.9458152
vn 0.1077383 0.4211936 0.9005491
vn -0.03158632 -0.2038095 0.9785009
vn 0.2888262 0.27732 0.9163367
vn 0.2898 0.07587767 0.9540747
vn 0.01239665 0.2592453 0.965732
vn 0.2474948 0.2663971 0.9315465
vn 0.05572793 0.2603081 0.963916
vn 0.5225207 0.1855412 0.8321939
vn 0.4579047 0.08623353 0.884809
vn 0.6590214 0.1996778 0.7251343
vn 0.743461 0.1908682 0.6409643
vn 0.8824762 0.3839803 0.2716522
vn 0.915892 0.007810651 0.4013487
vn 0.6729355 -0.232497 0.7022129
vn 0.1875416 -0.2184472 0.957658
vn 0.5602427 -0.1223398 0.8192441
vn 0.6822846 -0.4483623 0.577459
vn 0.6012418 -0.5706559 0.5593389
vn 0.604063 -0.7959346 0.03995144
vn 0.3281643 -0.6702104 0.6656774
vn 0.4169275 -0.8925744 0.1717049
vn 0.4200138 -0.4231932 0.8028051
vn 0.008952432 -0.5395375 0.841914
vn 0.8988789 -0.06376083 0.4335335
vn 0.9870733 -0.1602249 -0.00376582
vn 0.827709 -0.5528722 0.09607386
vn 0.6248809 -0.7332315 -0.2681335
vn 0.8667271 -0.1160982 -0.4850829
vn 0.9048417 0.1366791 -0.4032125
vn 0.6485945 0.1765271 -0.7403806
vn 0.5361509 -0.2684754 -0.8002894
vn 0.937328 0.3374165 -0.08698399
vn 0.2254369 -0.1134568 -0.967629
vn 0.08949686 -0.4096051 -0.9078623
vn 0.4082031 -0.6579287 -0.6328507
vn 0.020452 -0.7415612 -0.6705734
vn 0.2340343 -0.8465352 -0.4781277
vn -0.164389 -0.3749823 -0.9123402
vn -0.2209694 -0.6110224 -0.7601475
vn -0.1138806 -0.9784887 -0.172021
vn 0.04441022 -0.977109 -0.2080519
vn -0.1990188 -0.8113998 0.5495651
vn -0.369447 -0.7081771 0.6016597
vn 0.2215626 0.4910897 -0.8424612
vn 0.6449763 0.5644466 -0.5151754
vn 0.7984573 0.4489008 -0.4011907
vn -0.1679212 0.6375771 -0.7518629
vn 0.1193419 0.07589714 -0.989948
vn -0.4217082 0.4694696 -0.7757322
vn 0.0692139 0.216102 -0.9739144
vn 0.2430565 0.3578316 -0.9015986
vn -0.1820259 0.6008235 -0.7783814
vn -0.08566733 0.3762603 -0.922545
vn -0.3139009 0.5175754 -0.7959785
vn -0.3536073 0.004115319 -0.9353849
vn -0.6028284 0.2470749 -0.7586514
vn -0.4616109 -0.3966111 -0.7934828
vn -0.3846904 0.5663068 -0.7289101
vn 0.2729084 0.5514988 -0.7882703
vn -0.2638275 0.4492573 -0.853559
vn -0.189072 0.4402627 -0.8777361
vn -0.4377397 0.3394861 -0.8325462
vn -0.4142416 0.3319308 -0.8474821
vn -0.5746516 0.5849062 -0.5724162
vn -0.7855465 0.2487623 -0.5665988
vn -0.7491652 0.5338189 -0.3921592
vn -0.8330753 0.4114113 -0.3697653
vn -0.9954305 -0.09439165 0.0144366
vn -0.9644282 -0.07183781 -0.2543966
vn -0.8402776 -0.4452165 -0.3093799
vn -0.7875376 -0.5746443 0.2226397
vn -0.6713455 -0.737745 -0.0709062
vn -0.5957043 -0.6378525 0.4881399
vn -0.841787 0.5286586 -0.1091544
vn -0.880922 0.4501634 -0.1460455
vn -0.6695892 0.6192146 0.410151
vn -0.649736 0.7556689 -0.08250808
vn -0.8132146 0.4228238 0.3998774
vn -0.9477322 0.3133965 -0.0598856
vn -0.7161511 -0.3340673 0.6128024
vn -0.4566097 -0.6241261 0.6340143
vn -0.3111681 -0.229635 0.9221942
vn -0.3299896 -0.4121502 0.8492579
vn -0.3641902 -0.6086447 0.7049235
vn -0.1704711 -0.4389119 0.8822108
vn -0.04470978 0.3491702 0.9359921
vn 0.1170042 0.8545667 0.5059898
vn -0.006150458 0.9810197 0.1938106
vn -0.02416249 0.8546566 -0.5186312
vn -0.5100539 0.520368 -0.6848811
vn -0.291407 0.3828303 -0.8766544
vn -0.5928783 0.5232515 -0.61213
vn -0.4080749 0.4397565 -0.8000557
vn -0.6817579 0.4255131 -0.5951005
vn -0.7824164 0.4235055 -0.4565825
vn -0.1919743 0.4527101 -0.8707465
vn -0.2587124 0.818391 -0.5131314
vn -0.0346307 0.6925096 -0.7205769
vn -0.2236629 0.6175325 -0.7540745
vn 0.06619286 0.8658212 -0.4959556
vn -0.1410238 0.6687694 -0.7299724
vn -0.1254452 0.3234671 -0.9378873
vn -0.7771023 0.1320103 -0.6153741
vn -0.193386 0.563108 -0.8034371
vn -0.09567916 0.4694485 -0.8777605
vn 0.003405559 0.5491136 -0.8357408
vn -0.2795074 0.1716718 -0.9446716
vn -0.1617384 0.670873 -0.7237196
vn 0.2725861 0.7825762 -0.5597065
vn 0.8692123 0.3845751 0.3107603
vn 0.7929541 0.5437489 -0.2748831
vn 0.9192607 0.3064876 0.2470325
vn 0.7887144 0.6147171 -0.007240065
vn 0.7984573 0.4489008 -0.4011907
vn 0.6449763 0.5644466 -0.5151754
vn 0.5704286 0.6673759 -0.47877
vn 0.5524561 0.8171954 -0.1642682
vn 0.2725861 0.7825762 -0.5597065
vn -0.02416249 0.8546566 -0.5186312
vn 0.3813996 0.9227209 -0.05586075
vn -0.1679212 0.6375771 -0.7518629
vn 0.2099582 0.5023333 0.838796
vn 0.1390669 -0.0549406 0.9887578
vn 0.1170042 0.8545667 0.5059898
vn -0.006150458 0.9810197 0.1938106
vn -0.4377397 0.3394861 -0.8325462
vn -0.4142416 0.3319308 -0.8474821
vn -0.2795074 0.1716718 -0.9446716
vn -0.1365745 0.2448437 0.9598954
vn -0.04470978 0.3491702 0.9359921
vn -0.1439734 0.07457466 0.9867676
vn 0.0808133 -0.04831823 0.9955575
vn -0.1287634 0.5628198 0.8164887
vn 0.05790659 -0.03434723 0.997731
vn -0.1909751 -0.5774564 0.7937711
vn 0.03277941 -0.4313436 0.901592
vn -0.1551995 -0.7211569 0.6751636
vn 0.3847882 -0.9181711 -0.09433837
vn -0.1365745 0.2448437 0.9598954
vn -0.1439734 0.07457466 0.9867676
vn -0.6215187 0.4418201 0.6469231
vn 0.05790659 -0.03434723 0.997731
vn -0.3111681 -0.229635 0.9221942
g m_mapspc_rock_03_0
f 3/3/3 2/2/2 1/1/1
f 3/3/3 1/1/1 4/4/4
f 1/1/1 5/5/5 4/4/4
f 5/5/5 6/6/6 4/4/4
f 7/7/7 4/4/4 6/6/6
f 7/7/7 8/8/8 4/4/4
f 8/8/8 7/7/7 9/9/9
f 9/9/9 10/10/10 8/8/8
f 7/7/7 11/11/11 9/9/9
f 11/11/11 7/7/7 12/12/12
f 13/13/13 11/11/11 12/12/12
f 14/14/14 13/13/13 12/12/12
f 12/12/12 15/15/15 14/14/14
f 15/15/15 12/12/12 7/7/7
f 6/6/6 15/15/15 7/7/7
f 15/15/15 16/16/16 14/14/14
f 6/6/6 16/16/16 15/15/15
f 16/16/16 17/17/17 14/14/14
f 5/5/5 18/18/18 6/6/6
f 6/6/6 18/18/18 16/16/16
f 13/13/13 14/14/14 19/19/19
f 14/14/14 17/17/17 19/19/19
f 20/20/20 19/19/19 17/17/17
f 21/21/21 20/20/20 17/17/17
f 20/20/20 21/21/21 22/22/22
f 21/21/21 23/23/23 22/22/22
f 23/23/23 24/24/24 22/22/22
f 25/25/25 23/23/23 21/21/21
f 17/17/17 25/25/25 21/21/21
f 18/18/18 25/25/25 16/16/16
f 25/25/25 17/17/17 16/16/16
f 23/23/23 25/25/25 26/26/26
f 19/19/19 20/20/20 27/27/27
f 19/19/19 27/27/27 13/13/13
f 27/27/27 20/20/20 28/28/28
f 20/20/20 29/29/29 28/28/28
f 22/22/22 29/29/29 20/20/20
f 28/28/28 29/29/29 30/30/30
f 30/30/30 29/29/29 22/22/22
f 31/31/31 28/28/28 30/30/30
f 31/31/31 32/32/32 28/28/28
f 32/32/32 31/31/31 33/33/33
f 31/31/31 34/34/34 33/33/33
f 34/34/34 31/31/31 30/30/30
f 32/32/32 35/35/35 28/28/28
f 35/35/35 27/27/27 28/28/28
f 36/36/36 33/33/33 34/34/34
f 36/36/36 34/34/34 37/37/37
f 34/34/34 38/38/38 37/37/37
f 30/30/30 38/38/38 34/34/34
f 37/37/37 38/38/38 39/39/39
f 38/38/38 40/40/40 39/39/39
f 41/41/41 37/37/37 39/39/39
f 42/42/42 41/41/41 39/39/39
f 43/43/43 42/42/42 39/39/39
f 44/44/44 43/43/43 39/39/39
f 40/40/40 44/44/44 39/39/39
f 43/43/43 44/44/44 45/45/45
f 45/45/45 46/46/46 43/43/43
f 33/33/33 36/36/36 47/47/47
f 33/33/33 47/47/47 48/48/48
f 49/49/49 33/33/33 48/48/48
f 48/48/48 47/47/47 50/50/50
f 37/37/37 41/41/41 51/51/51
f 36/36/36 37/37/37 51/51/51
f 51/51/51 52/52/52 36/36/36
f 47/47/47 52/52/52 50/50/50
f 53/53/53 51/51/51 41/41/41
f 51/51/51 53/53/53 54/54/54
f 54/54/54 53/53/53 55/55/55
f 56/56/56 51/51/51 54/54/54
f 50/50/50 52/52/52 56/56/56
f 51/51/51 56/56/56 52/52/52
f 57/57/57 55/55/55 53/53/53
f 58/58/58 57/57/57 53/53/53
f 59/59/59 57/57/57 58/58/58
f 59/59/59 58/58/58 60/60/60
f 56/56/56 54/54/54 61/61/61
f 61/61/61 50/50/50 56/56/56
f 54/54/54 62/62/62 61/61/61
f 54/54/54 63/63/63 62/62/62
f 64/64/64 61/61/61 62/62/62
f 61/61/61 64/64/64 65/65/65
f 65/65/65 50/50/50 61/61/61
f 64/64/64 66/66/66 65/65/65
f 57/57/57 59/59/59 67/67/67
f 57/57/57 67/67/67 55/55/55
f 59/59/59 68/68/68 67/67/67
f 69/69/69 67/67/67 68/68/68
f 70/70/70 69/69/69 68/68/68
f 71/71/71 70/70/70 68/68/68
f 72/72/72 71/71/71 68/68/68
f 73/73/73 72/72/72 68/68/68
f 59/59/59 60/60/60 73/73/73
f 68/68/68 59/59/59 73/73/73
f 72/72/72 73/73/73 74/74/74
f 72/72/72 74/74/74 71/71/71
f 74/74/74 73/73/73 75/75/75
f 75/75/75 73/73/73 60/60/60
f 76/76/76 74/74/74 75/75/75
f 77/77/77 69/69/69 70/70/70
f 78/78/78 77/77/77 70/70/70
f 77/77/77 78/78/78 79/79/79
f 80/80/80 77/77/77 79/79/79
f 78/78/78 81/81/81 79/79/79
f 81/81/81 78/78/78 82/82/82
f 82/82/82 78/78/78 70/70/70
f 71/71/71 82/82/82 70/70/70
f 71/71/71 74/74/74 83/83/83
f 81/81/81 82/82/82 83/83/83
f 82/82/82 71/71/71 83/83/83
f 83/83/83 74/74/74 84/84/84
f 76/76/76 84/84/84 74/74/74
f 84/84/84 85/85/85 83/83/83
f 85/85/85 84/84/84 86/86/86
f 86/86/86 84/84/84 87/87/87
f 86/86/86 87/87/87 88/88/88
f 86/86/86 88/88/88 1/1/1
f 79/79/79 89/89/89 80/80/80
f 89/89/89 90/90/90 80/80/80
f 90/90/90 91/91/91 80/80/80
f 91/91/91 92/92/92 80/80/80
f 92/92/92 93/93/93 80/80/80
f 93/93/93 92/92/92 94/94/94
f 93/93/93 94/94/94 95/95/95
f 94/94/94 96/96/96 95/95/95
f 95/95/95 96/96/96 97/97/97
f 97/97/97 96/96/96 98/98/98
f 99/99/99 96/96/96 94/94/94
f 100/100/100 98/98/98 96/96/96
f 96/96/96 99/99/99 100/100/100
f 99/99/99 101/101/101 100/100/100
f 97/97/97 98/98/98 102/102/102
f 102/102/102 69/69/69 97/97/97
f 95/95/95 97/97/97 69/69/69
f 69/69/69 102/102/102 103/103/103
f 55/55/55 103/103/103 102/102/102
f 104/104/104 55/55/55 102/102/102
f 105/105/105 104/104/104 102/102/102
f 106/106/106 105/105/105 102/102/102
f 98/98/98 106/106/106 102/102/102
f 106/106/106 98/98/98 100/100/100
f 105/105/105 106/106/106 107/107/107
f 107/107/107 100/100/100 101/101/101
f 107/107/107 106/106/106 100/100/100
f 105/105/105 107/107/107 63/63/63
f 107/107/107 108/108/108 63/63/63
f 108/108/108 107/107/107 101/101/101
f 109/109/109 108/108/108 101/101/101
f 64/64/64 101/101/101 99/99/99
f 109/109/109 101/101/101 64/64/64
f 110/110/110 64/64/64 99/99/99
f 94/94/94 110/110/110 99/99/99
f 67/67/67 103/103/103 55/55/55
f 67/67/67 69/69/69 103/103/103
f 105/105/105 63/63/63 111/111/111
f 104/104/104 111/111/111 55/55/55
f 104/104/104 105/105/105 111/111/111
f 111/111/111 63/63/63 54/54/54
f 111/111/111 54/54/54 55/55/55
f 94/94/94 112/112/112 110/110/110
f 92/92/92 112/112/112 94/94/94
f 62/62/62 63/63/63 108/108/108
f 109/109/109 62/62/62 108/108/108
f 64/64/64 62/62/62 109/109/109
f 110/110/110 66/66/66 64/64/64
f 35/35/35 114/114/114 113/113/113
f 115/115/115 35/35/35 113/113/113
f 113/113/113 13/13/13 115/115/115
f 113/113/113 114/114/114 116/116/116
f 113/113/113 116/116/116 13/13/13
f 116/116/116 114/114/114 117/117/117
f 114/114/114 35/35/35 117/117/117
f 117/117/117 35/35/35 32/32/32
f 118/118/118 116/116/116 117/117/117
f 118/118/118 119/119/119 116/116/116
f 116/116/116 119/119/119 120/120/120
f 11/11/11 116/116/116 120/120/120
f 116/116/116 11/11/11 13/13/13
f 119/119/119 121/121/121 120/120/120
f 121/121/121 122/122/122 120/120/120
f 122/122/122 123/123/123 120/120/120
f 119/119/119 118/118/118 124/124/124
f 9/9/9 120/120/120 123/123/123
f 9/9/9 11/11/11 120/120/120
f 9/9/9 123/123/123 125/125/125
f 125/125/125 126/126/126 9/9/9
f 123/123/123 127/127/127 125/125/125
f 127/127/127 123/123/123 128/128/128
f 123/123/123 122/122/122 128/128/128
f 124/124/124 129/129/129 119/119/119
f 129/129/129 130/130/130 119/119/119
f 119/119/119 130/130/130 121/121/121
f 130/130/130 131/131/131 121/121/121
f 126/126/126 125/125/125 132/132/132
f 125/125/125 133/133/133 132/132/132
f 127/127/127 133/133/133 125/125/125
f 126/126/126 132/132/132 134/134/134
f 126/126/126 134/134/134 135/135/135
f 135/135/135 10/10/10 126/126/126
f 9/9/9 126/126/126 10/10/10
f 135/135/135 136/136/136 10/10/10
f 3/3/3 136/136/136 135/135/135
f 3/3/3 4/4/4 136/136/136
f 136/136/136 4/4/4 8/8/8
f 10/10/10 136/136/136 8/8/8
f 3/3/3 135/135/135 2/2/2
f 2/2/2 135/135/135 134/134/134
f 137/137/137 2/2/2 134/134/134
f 2/2/2 137/137/137 86/86/86
f 86/86/86 1/1/1 2/2/2
f 85/85/85 86/86/86 137/137/137
f 88/88/88 5/5/5 1/1/1
f 5/5/5 88/88/88 138/138/138
f 139/139/139 5/5/5 138/138/138
f 26/26/26 139/139/139 138/138/138
f 26/26/26 138/138/138 140/140/140
f 138/138/138 87/87/87 140/140/140
f 88/88/88 87/87/87 138/138/138
f 23/23/23 26/26/26 140/140/140
f 45/45/45 140/140/140 87/87/87
f 46/46/46 45/45/45 87/87/87
f 87/87/87 84/84/84 46/46/46
f 84/84/84 76/76/76 46/46/46
f 76/76/76 75/75/75 46/46/46
f 43/43/43 46/46/46 75/75/75
f 26/26/26 25/25/25 139/139/139
f 25/25/25 18/18/18 139/139/139
f 18/18/18 5/5/5 139/139/139
f 140/140/140 45/45/45 24/24/24
f 23/23/23 140/140/140 24/24/24
f 42/42/42 43/43/43 75/75/75
f 42/42/42 75/75/75 60/60/60
f 60/60/60 58/58/58 42/42/42
f 58/58/58 41/41/41 42/42/42
f 41/41/41 58/58/58 53/53/53
f 141/141/141 24/24/24 45/45/45
f 22/22/22 24/24/24 141/141/141
f 30/30/30 22/22/22 141/141/141
f 38/38/38 30/30/30 141/141/141
f 38/38/38 141/141/141 40/40/40
f 40/40/40 141/141/141 44/44/44
f 44/44/44 141/141/141 45/45/45
f 144/144/144 143/143/143 142/142/142
f 144/144/144 81/81/81 143/143/143
f 81/81/81 145/145/145 143/143/143
f 142/142/142 89/89/89 144/144/144
f 89/89/89 79/79/79 144/144/144
f 79/79/79 81/81/81 144/144/144
f 146/146/146 145/145/145 81/81/81
f 83/83/83 146/146/146 81/81/81
f 80/80/80 93/93/93 95/95/95
f 77/77/77 80/80/80 95/95/95
f 77/77/77 95/95/95 69/69/69
f 33/33/33 49/49/49 32/32/32
f 115/115/115 27/27/27 35/35/35
f 27/27/27 115/115/115 13/13/13
f 52/52/52 47/47/47 36/36/36
