g m_mapspc_rock_02
v 0.3173576 0.1514435 -0.1470295
v 0.2792134 0.1183312 -0.1954872
v 0.1718282 0.01086667 -0.1328836
v 0.3397809 0.1248887 0.09929062
v 0.05412994 -0.09911843 -0.2646121
v 0.186063 0.08972658 -0.4209351
v 0.0657843 0.01557877 -0.4842527
v -0.07133383 -0.149805 -0.4012967
v 0.3786323 0.2423411 -0.06610832
v 0.1278652 -0.05264945 0.03551502
v 0.2094907 0.01237194 0.135727
v -0.01927002 -0.2052961 -0.08025502
v 0.2737204 0.1649108 -0.3360643
v 0.3476273 0.3792393 -0.3324655
v 0.2603493 0.4113977 -0.4544676
v 0.1708131 0.473965 -0.5153238
v 0.3505379 0.2719643 -0.2468602
v 0.3142765 0.4593263 -0.2736188
v 0.312704 0.3448417 -0.2073377
v 0.1276305 0.3192765 -0.2033907
v 0.09819034 0.4044494 -0.2235933
v 0.2740285 0.5602593 -0.2910324
v 0.01279822 0.4365869 -0.1000228
v 0.06249239 0.3615316 -0.04132228
v 0.07762665 0.3889099 0.1195283
v 0.02105404 0.4767607 0.1356085
v 0.1577231 0.2837747 -0.1226841
v 0.1327546 0.5853043 -0.5284504
v -0.007257843 0.2621659 -0.5851898
v -0.129044 0.3479972 -0.5905296
v 0.05117149 0.6919361 -0.5223691
v -0.2750461 0.2964239 -0.5762967
v -0.2228407 0.1406101 -0.5758471
v -0.1088899 0.05199029 -0.5684708
v -0.4220294 0.5157855 -0.5068446
v -0.4731927 0.3023792 -0.5055603
v -0.4815241 0.507185 -0.4438193
v -0.5750214 0.1983726 -0.4164198
v -0.583317 0.3004726 -0.3808115
v -0.3245519 -0.04775168 -0.4968136
v -0.1475434 -0.1266803 -0.4428367
v -0.4646541 0.4458438 -0.3552413
v -0.4005518 0.5478652 -0.3454033
v -0.3548244 0.7148304 -0.3691223
v -0.3348603 0.6750464 -0.48688
v -0.3128544 0.6749436 -0.2588791
v -0.2907256 0.7758882 -0.3268013
v -0.1669949 0.7985328 -0.4363197
v -0.2891493 0.6470501 -0.5161314
v 0.05209999 0.7627203 -0.4899295
v -0.1667828 0.8315414 -0.3357248
v -0.2346474 0.8118786 -0.08593971
v 0.09262458 0.8574743 -0.09706177
v 0.0277932 0.8141162 -0.4241701
v 0.2537317 0.7653769 -0.3963426
v 0.1994139 0.8205177 -0.2461742
v 0.2993874 0.6585761 -0.3599748
v 0.3325664 0.5348651 -0.3578555
v 0.1620905 0.6912101 -0.5039999
v -0.2293769 0.7937812 0.02549477
v -0.2568348 0.7060384 -0.1007525
v -0.2516101 0.6355876 0.2574744
v -0.2649111 0.5078639 0.156965
v -0.2033468 0.6210272 -0.07212951
v -0.2002534 0.4168784 0.07935908
v -0.2232298 0.4809041 -0.2514823
v -0.2049712 0.3989137 -0.190921
v -0.2517778 0.5508383 -0.2679055
v -0.2719472 0.5336314 0.2548134
v -0.2892253 0.4776388 -0.3181344
v -0.2964801 0.2625211 -0.3416261
v -0.3716531 0.1228347 -0.323644
v -0.3113143 0.1256638 -0.3064426
v -0.3371511 0.07569187 -0.2487748
v -0.2207027 0.2407658 -0.08897247
v -0.1968385 0.3374257 0.01338175
v -0.2905525 0.0775178 -0.1510903
v -0.3382097 0.07603135 -0.1232991
v -0.2295036 0.3021735 0.05573731
v -0.3294005 0.3539698 0.1421477
v -0.2002534 0.4168784 0.07935908
v -0.2649111 0.5078639 0.156965
v -0.479197 0.2109561 -0.06188201
v -0.5433109 0.2213323 -0.1756105
v -0.4239293 0.1216926 -0.2862517
v -0.5451064 0.2649133 -0.2695942
v -0.5069183 0.3384219 -0.3283614
v -0.3295515 0.3876779 0.2741084
v -0.5513372 0.1907741 0.06205841
v -0.649082 0.2039928 -0.2718104
v -0.1968385 0.3374257 0.01338175
v -0.614512 0.1338393 -0.3450551
v -0.6019465 0.07081465 -0.2651735
v -0.3800779 -0.1697012 -0.2859527
v -0.4712413 -0.05318732 -0.09566559
v -0.6383513 0.1470394 -0.1278232
v -0.1819749 -0.2591565 -0.3028575
v -0.1383282 -0.2811252 -0.1855486
v -0.3084453 -0.2387516 -0.1815539
v -0.3931025 0.06593437 0.240564
v -0.5647826 0.155906 0.08926361
v -0.412264 0.1200416 0.270556
v -0.1293737 0.06598247 0.5000114
v -0.1492844 0.09929331 0.5140701
v -0.3473827 0.2918679 0.3184032
v -0.05346069 0.1842817 0.5855111
v -0.2841812 0.493569 0.2985497
v -0.2719472 0.5336314 0.2548134
v -0.2516101 0.6355876 0.2574744
v 0.03827683 0.05917091 0.5511593
v -0.01377464 -0.05270465 0.2369353
v -0.2332405 -0.01709783 0.2488637
v -0.1652757 -0.257671 -0.09945496
v 0.1380585 0.1347235 0.5889593
v -0.1273712 0.4769526 0.4058832
v 0.1454596 -0.0005650234 0.2869222
v -0.2286054 0.6956467 0.2257371
v 0.2449336 0.06894445 0.3749401
v 0.3130578 0.2006941 0.3935944
v 0.3571075 0.1583078 0.1875389
v 0.3518054 0.2342052 0.2567887
v 0.3187327 0.339513 0.2043067
v 0.3298523 0.3116171 -0.07284762
v 0.1924529 0.5456642 0.2852054
v 0.09272344 0.4333294 0.1983891
v 0.06684189 0.5074425 0.2037784
v 0.1121538 0.648869 0.2478476
v 0.04218226 0.6065233 0.3139577
v 0.002882843 0.7185149 0.231606
v 0.2525697 0.3067831 0.4384955
v 0.02105404 0.4767607 0.1356085
v 0.01444464 0.5312046 0.1491809
v 0.09862281 0.6719614 0.1889786
v 0.0157456 0.6142303 0.1360391
v 0.30119 0.3340828 0.1214583
v 0.1985225 0.3349236 0.1187374
v 0.05361046 0.8120808 0.07631416
v 0.002882843 0.7185149 0.231606
v -0.2286054 0.6956467 0.2257371
v 0.1121538 0.648869 0.2478476
v 0.09862281 0.6719614 0.1889786
v 0.09480661 0.8006113 -0.06127389
v 0.0157456 0.6142303 0.1360391
v 0.0148456 0.6939162 -0.07788591
v -0.02748726 0.619675 -0.02734142
v 0.01444464 0.5312046 0.1491809
v 0.01175058 0.6300498 -0.1419748
v 0.05134619 0.5162562 -0.2132493
v 0.223829 0.7124627 -0.2599677
v -0.6383513 0.1470394 -0.1278232
v -0.649082 0.2039928 -0.2718104
v -0.5647826 0.155906 0.08926361
vt 0.8801931 0.8620462
vt 0.8793898 0.8570204
vt 0.8668159 0.8553731
vt 0.8699943 0.8775607
vt 0.862602 0.8436376
vt 0.8820212 0.838537
vt 0.8746333 0.8303747
vt 0.8594244 0.8299032
vt 0.8856301 0.8714679
vt 0.855358 0.8606411
vt 0.8571538 0.8702136
vt 0.8487974 0.8478715
vt 0.886441 0.846915
vt 0.8979424 0.8446971
vt 0.8952526 0.8314095
vt 0.893034 0.8214016
vt 0.8928232 0.8557537
vt 0.9020699 0.8431743
vt 0.8965356 0.8554071
vt 0.913491 0.8575611
vt 0.9184217 0.8501351
vt 0.9083037 0.835288
vt 0.9268878 0.8601576
vt 0.9184151 0.8744871
vt 0.9090114 0.8997287
vt 0.9382117 0.8771598
vt 0.9075425 0.8688267
vt 0.894869 0.8149424
vt 0.8794279 0.8143476
vt 0.876327 0.8034275
vt 0.8959388 0.8054774
vt 0.865786 0.7977271
vt 0.8645582 0.8054544
vt 0.8681305 0.8153624
vt 0.8627759 0.7823883
vt 0.8525048 0.7880992
vt 0.8567213 0.7776123
vt 0.8393109 0.7907649
vt 0.838673 0.7844275
vt 0.8518269 0.8072263
vt 0.8571378 0.8230783
vt 0.8521589 0.7762923
vt 0.8638651 0.7724568
vt 0.8767292 0.7713593
vt 0.875465 0.7803809
vt 0.8831553 0.7670958
vt 0.8874735 0.7723318
vt 0.8926926 0.7849636
vt 0.877317 0.7844768
vt 0.8998977 0.8026251
vt 0.8990204 0.780037
vt 0.907957 0.7651218
vt 0.9302113 0.8038707
vt 0.9038286 0.7985622
vt 0.9103093 0.8177353
vt 0.9206508 0.8131489
vt 0.9088864 0.827903
vt 0.9043795 0.8359065
vt 0.9003448 0.8135546
vt 0.9168725 0.7609352
vt 0.9016771 0.7608868
vt 0.9264781 0.7364987
vt 0.9102494 0.7254506
vt 0.8923661 0.7497422
vt 0.8811369 0.7208275
vt 0.8644053 0.7554547
vt 0.8550652 0.7486168
vt 0.8704576 0.7595805
vt 0.9174395 0.7235146
vt 0.8611125 0.7626296
vt 0.8438396 0.7619997
vt 0.8304538 0.7695301
vt 0.8294991 0.7639596
vt 0.817059 0.7697369
vt 0.7841558 0.7796847
vt 0.861604 0.7241432
vt 0.8044097 0.7734523
vt 0.8020712 0.7824787
vt 0.7740768 0.8110614
vt 0.7788571 0.8353965
vt 0.7625159 0.8254076
vt 0.7657065 0.8599532
vt 0.8036983 0.7991086
vt 0.8170118 0.7915975
vt 0.8252279 0.7757468
vt 0.8298366 0.7851804
vt 0.8413919 0.7800498
vt 0.7809579 0.8536932
vt 0.8014784 0.8139905
vt 0.825207 0.7927665
vt 0.7688364 0.8038058
vt 0.8315986 0.7955399
vt 0.8265487 0.8022606
vt 0.8356637 0.8179873
vt 0.821402 0.8194994
vt 0.8156758 0.8030813
vt 0.8471522 0.8295228
vt 0.8445796 0.8370965
vt 0.8340001 0.8271591
vt 0.8056157 0.8408489
vt 0.8024961 0.8179462
vt 0.8004732 0.841454
vt 0.8152493 0.8698848
vt 0.8120925 0.8705304
vt 0.7880598 0.8516641
vt 0.8159659 0.8814995
vt 0.7780237 0.8714536
vt 0.7728055 0.8725213
vt 0.776099 0.8938094
vt 0.8265501 0.8794707
vt 0.8357985 0.86132
vt 0.8185 0.8500944
vt 0.8390812 0.8390067
vt 0.8309687 0.888351
vt 0.7984134 0.8938633
vt 0.8453613 0.8726672
vt 0.7760398 0.9066744
vt 0.8482006 0.8833503
vt 0.8533784 0.8942521
vt 0.8672706 0.8841349
vt 0.8658814 0.8922548
vt 0.870467 0.8972931
vt 0.8896662 0.8708292
vt 0.8479746 0.9190264
vt 0.8848437 0.9137542
vt 0.8730242 0.9234495
vt 0.836844 0.9288533
vt 0.8264169 0.9193598
vt 0.8124745 0.9264572
vt 0.8462651 0.9012905
vt 0.8880805 0.9242388
vt 0.8768643 0.9311733
vt 0.8439401 0.9363505
vt 0.8653418 0.9402572
vt 0.8798894 0.8923064
vt 0.8905534 0.8961264
vt 0.9439005 0.7998424
vt 0.9572934 0.786962
vt 0.930374 0.7465959
vt 0.9690035 0.8070551
vt 0.9621214 0.8069272
vt 0.9331057 0.805081
vt 0.9566634 0.8372082
vt 0.9378294 0.8260624
vt 0.9410207 0.8394672
vt 0.9489215 0.8637344
vt 0.9327562 0.8354753
vt 0.9247466 0.8431517
vt 0.9164569 0.8217564
vt 0.8156758 0.8030813
vt 0.825207 0.7927665
vt 0.8024961 0.8179462
vn 0.7735745 -0.6134274 -0.1590267
vn 0.7357076 -0.6575944 -0.1621848
vn 0.6969917 -0.7059883 -0.1256304
vn 0.8257476 -0.5640398 0.0001044936
vn 0.6723258 -0.7108105 -0.2067038
vn 0.6754349 -0.4276714 -0.600737
vn 0.5672697 -0.4648462 -0.6797964
vn 0.5174178 -0.7405074 -0.4288678
vn 0.9941778 0.102842 -0.0321549
vn 0.5793725 -0.8089457 0.09967237
vn 0.6301698 -0.7764545 -0.002098238
vn 0.3955648 -0.8815199 0.2577814
vn 0.8015816 -0.3444759 -0.488675
vn 0.9156843 -0.1161601 -0.3847454
vn 0.6841456 -0.0867212 -0.7241715
vn 0.5020831 -0.0754092 -0.8615255
vn 0.9732934 -0.1758787 -0.1475355
vn 0.4644615 0.3082187 0.830227
vn 0.375552 0.7525422 0.5409631
vn 0.2956682 0.6996259 0.6504644
vn 0.5588827 0.3045336 0.7713038
vn 0.4686024 0.157194 0.8693111
vn 0.9189102 0.337017 0.2049969
vn 0.7755912 0.6302326 -0.03556953
vn 0.6077645 0.7293861 -0.3140354
vn 0.8834181 0.3969038 -0.2490778
vn 0.05502553 0.9913093 0.1194907
vn 0.3025599 0.09244677 -0.9486364
vn 0.3269182 -0.1042807 -0.9392816
vn -0.007696445 0.1269782 -0.9918756
vn 0.00613305 0.248824 -0.9685292
vn -0.2565431 -0.05457626 -0.9649908
vn -0.1338358 -0.1076849 -0.9851355
vn 0.1046915 -0.309669 -0.9450634
vn -0.362884 0.1930859 -0.9116101
vn -0.4891065 -0.08272447 -0.8682923
vn -0.8922447 0.3948363 -0.2190973
vn -0.5576556 -0.1526784 -0.8159102
vn -0.8682195 0.3926826 -0.3033074
vn -0.4599057 -0.4903505 -0.7402993
vn 0.04583611 -0.6518263 -0.7569819
vn -0.237935 0.2283995 0.9440449
vn -0.4930735 0.06342129 0.8676729
vn -0.8364775 0.5221573 0.1663045
vn -0.353989 0.4606885 -0.8139152
vn -0.8930256 0.005399567 0.4499732
vn -0.7426006 0.6684718 0.04110881
vn -0.1970376 0.7064265 -0.6798071
vn -0.1470309 0.289678 -0.9457635
vn 0.04944077 0.6227881 -0.7808269
vn -0.1468807 0.9850774 -0.08971435
vn -0.4592638 0.8796862 0.123406
vn 0.2391045 0.9603114 0.1436353
vn 0.1174234 0.958887 -0.2583554
vn 0.6476665 0.5858791 -0.4871077
vn 0.7932138 0.4991012 0.3488694
vn 0.9106361 0.2867862 0.297482
vn 0.8551693 0.1699066 -0.4897113
vn 0.6071147 0.2205139 -0.7634038
vn -0.6510378 0.7063258 0.2779455
vn -0.987193 -0.01561728 0.1587638
vn -0.9261067 0.263827 0.2696694
vn -0.9739668 0.1192037 -0.1928186
vn -0.9611247 -0.2755287 0.01797981
vn -0.9193131 0.04328742 -0.391139
vn -0.9530815 -0.02786915 0.3014284
vn -0.9757754 0.04772391 0.2135064
vn -0.6983182 -0.3557515 0.621122
vn -0.9539043 0.2896632 -0.07849624
vn -0.5822285 -0.1116199 0.8053267
vn -0.392074 0.09564766 0.9149477
vn 0.1004046 0.2662515 0.9586601
vn -0.8094271 0.3830581 0.4450777
vn -0.6581836 0.6849946 0.3123727
vn -0.9457097 0.3003423 0.1242082
vn -0.9375519 0.2897934 -0.1923961
vn -0.822396 0.566389 -0.05355801
vn 0.1236326 0.8396465 -0.5288749
vn -0.1999971 0.6536206 -0.7299186
vn -0.4134856 0.7601779 -0.5011579
vn -0.9193131 0.04328742 -0.391139
vn -0.9739668 0.1192037 -0.1928186
vn 0.06757908 0.8965908 -0.4376734
vn 0.3256249 0.945478 0.006309379
vn 0.6110447 0.7023406 0.3651604
vn -0.01679334 0.7933198 0.6085735
vn -0.1214439 0.4859082 0.8655314
vn -0.806932 0.5850076 0.08140579
vn -0.7168505 0.6747229 0.1757106
vn -0.9194095 0.3920875 0.03088357
vn -0.9375519 0.2897934 -0.1923961
vn -0.7049798 -0.4953905 -0.5075349
vn -0.7305131 -0.6132554 -0.300447
vn -0.610451 -0.7167678 -0.3370363
vn -0.6704801 -0.6721925 0.314028
vn -0.9073392 -0.3490875 0.2342512
vn -0.04984618 -0.910112 -0.4113533
vn 0.3426654 -0.9257075 -0.1601444
vn -0.513866 -0.8291211 0.2202268
vn -0.56687 -0.6929719 0.4454755
vn -0.7747989 -0.4207149 0.4718959
vn -0.7427253 -0.0731205 0.6655918
vn -0.2435743 -0.8684768 0.4317633
vn -0.6263856 0.01182462 0.7794237
vn -0.6759302 0.2028161 0.7085083
vn -0.3424983 0.2814269 0.8963782
vn -0.6455168 0.2771924 0.7116688
vn -0.9539043 0.2896632 -0.07849624
vn -0.9261067 0.263827 0.2696694
vn 0.08966903 -0.8817167 0.4631793
vn 0.08085458 -0.9193749 0.3849833
vn -0.2153865 -0.8613075 0.4601717
vn -0.1102105 -0.8688985 0.4825649
vn 0.3971912 -0.1136903 0.9106667
vn -0.1363798 0.5084404 0.8502287
vn 0.3015878 -0.9166678 0.2622308
vn -0.1689313 0.7719188 0.612865
vn 0.5882437 -0.7334455 0.3406273
vn 0.9067234 -0.04358486 0.4194676
vn 0.9132283 -0.3817979 0.1422832
vn 0.9266947 0.3027814 0.2226215
vn 0.8516898 0.5191 0.07183132
vn 0.4898104 0.8695688 0.06273806
vn 0.7134405 0.6796027 0.1707128
vn 0.3840989 0.5912741 -0.7091282
vn 0.6718503 0.07504743 -0.7368751
vn 0.8895641 0.4564437 -0.01830015
vn 0.06851427 0.5772601 0.8136809
vn -0.0372021 0.7727926 0.6335674
vn 0.5123557 0.4707295 0.7182656
vn 0.8834181 0.3969038 -0.2490778
vn 0.9497452 0.03590281 -0.3109585
vn 0.8559282 -0.3682449 -0.3630187
vn 0.8101773 -0.4745926 -0.3440562
vn -0.001734413 0.9905071 -0.1374502
vn 0.2753924 0.8876504 -0.3691013
vn 0.0870894 0.9140511 0.396139
vn -0.0372021 0.7727926 0.6335674
vn -0.1689313 0.7719188 0.612865
vn 0.8895641 0.4564437 -0.01830015
vn 0.8559282 -0.3682449 -0.3630187
vn 0.9063879 -0.3368323 0.2549606
vn 0.8101773 -0.4745926 -0.3440562
vn 0.802519 -0.5806389 -0.1371921
vn 0.9989079 -0.03299942 -0.03307821
vn 0.9497452 0.03590281 -0.3109585
vn 0.7019795 -0.3395482 0.6260446
vn 0.7170026 0.01380899 0.6969336
vn 0.6760558 -0.1159066 0.7276772
vn -0.9073392 -0.3490875 0.2342512
vn -0.9194095 0.3920875 0.03088357
vn -0.7747989 -0.4207149 0.4718959
g m_mapspc_rock_02_0
f 3/3/3 2/2/2 1/1/1
f 4/4/4 3/3/3 1/1/1
f 2/2/2 3/3/3 5/5/5
f 6/6/6 2/2/2 5/5/5
f 7/7/7 6/6/6 5/5/5
f 8/8/8 7/7/7 5/5/5
f 9/9/9 4/4/4 1/1/1
f 3/3/3 4/4/4 10/10/10
f 4/4/4 11/11/11 10/10/10
f 3/3/3 10/10/10 12/12/12
f 3/3/3 12/12/12 5/5/5
f 2/2/2 6/6/6 13/13/13
f 2/2/2 13/13/13 1/1/1
f 14/14/14 13/13/13 6/6/6
f 15/15/15 14/14/14 6/6/6
f 6/6/6 16/16/16 15/15/15
f 6/6/6 7/7/7 16/16/16
f 1/1/1 17/17/17 9/9/9
f 13/13/13 17/17/17 1/1/1
f 13/13/13 14/14/14 17/17/17
f 17/17/17 14/14/14 18/18/18
f 19/19/19 17/17/17 18/18/18
f 18/18/18 20/20/20 19/19/19
f 21/21/21 20/20/20 18/18/18
f 22/22/22 21/21/21 18/18/18
f 21/21/21 23/23/23 20/20/20
f 23/23/23 24/24/24 20/20/20
f 24/24/24 23/23/23 25/25/25
f 23/23/23 26/26/26 25/25/25
f 24/24/24 27/27/27 20/20/20
f 25/25/25 27/27/27 24/24/24
f 15/15/15 16/16/16 28/28/28
f 16/16/16 29/29/29 28/28/28
f 28/28/28 29/29/29 30/30/30
f 28/28/28 30/30/30 31/31/31
f 29/29/29 32/32/32 30/30/30
f 33/33/33 32/32/32 29/29/29
f 34/34/34 33/33/33 29/29/29
f 34/34/34 29/29/29 7/7/7
f 32/32/32 35/35/35 30/30/30
f 32/32/32 36/36/36 35/35/35
f 37/37/37 35/35/35 36/36/36
f 36/36/36 38/38/38 37/37/37
f 38/38/38 39/39/39 37/37/37
f 36/36/36 32/32/32 40/40/40
f 38/38/38 36/36/36 40/40/40
f 34/34/34 40/40/40 33/33/33
f 40/40/40 32/32/32 33/33/33
f 41/41/41 40/40/40 34/34/34
f 7/7/7 41/41/41 34/34/34
f 37/37/37 39/39/39 42/42/42
f 42/42/42 43/43/43 37/37/37
f 44/44/44 37/37/37 43/43/43
f 45/45/45 37/37/37 44/44/44
f 37/37/37 45/45/45 35/35/35
f 43/43/43 46/46/46 44/44/44
f 46/46/46 47/47/47 44/44/44
f 45/45/45 44/44/44 47/47/47
f 48/48/48 45/45/45 47/47/47
f 49/49/49 45/45/45 48/48/48
f 45/45/45 49/49/49 35/35/35
f 50/50/50 49/49/49 48/48/48
f 49/49/49 50/50/50 31/31/31
f 51/51/51 48/48/48 47/47/47
f 51/51/51 47/47/47 52/52/52
f 51/51/51 52/52/52 53/53/53
f 54/54/54 48/48/48 51/51/51
f 50/50/50 48/48/48 54/54/54
f 54/54/54 51/51/51 53/53/53
f 50/50/50 54/54/54 55/55/55
f 54/54/54 53/53/53 55/55/55
f 55/55/55 53/53/53 56/56/56
f 55/55/55 56/56/56 57/57/57
f 55/55/55 57/57/57 58/58/58
f 58/58/58 15/15/15 55/55/55
f 15/15/15 59/59/59 55/55/55
f 55/55/55 59/59/59 50/50/50
f 31/31/31 50/50/50 59/59/59
f 60/60/60 53/53/53 52/52/52
f 59/59/59 15/15/15 28/28/28
f 28/28/28 31/31/31 59/59/59
f 58/58/58 57/57/57 18/18/18
f 57/57/57 22/22/22 18/18/18
f 61/61/61 60/60/60 52/52/52
f 62/62/62 60/60/60 61/61/61
f 63/63/63 62/62/62 61/61/61
f 63/63/63 61/61/61 64/64/64
f 65/65/65 63/63/63 64/64/64
f 64/64/64 66/66/66 65/65/65
f 66/66/66 67/67/67 65/65/65
f 64/64/64 61/61/61 68/68/68
f 68/68/68 66/66/66 64/64/64
f 61/61/61 46/46/46 68/68/68
f 62/62/62 63/63/63 69/69/69
f 67/67/67 66/66/66 70/70/70
f 70/70/70 68/68/68 46/46/46
f 68/68/68 70/70/70 66/66/66
f 71/71/71 67/67/67 70/70/70
f 43/43/43 70/70/70 46/46/46
f 71/71/71 70/70/70 43/43/43
f 71/71/71 43/43/43 42/42/42
f 72/72/72 71/71/71 42/42/42
f 73/73/73 71/71/71 72/72/72
f 73/73/73 67/67/67 71/71/71
f 74/74/74 73/73/73 72/72/72
f 73/73/73 75/75/75 67/67/67
f 73/73/73 74/74/74 75/75/75
f 75/75/75 76/76/76 67/67/67
f 65/65/65 67/67/67 76/76/76
f 74/74/74 77/77/77 75/75/75
f 78/78/78 77/77/77 74/74/74
f 78/78/78 79/79/79 77/77/77
f 80/80/80 79/79/79 78/78/78
f 81/81/81 79/79/79 80/80/80
f 82/82/82 81/81/81 80/80/80
f 83/83/83 80/80/80 78/78/78
f 83/83/83 78/78/78 84/84/84
f 78/78/78 85/85/85 84/84/84
f 72/72/72 85/85/85 74/74/74
f 85/85/85 78/78/78 74/74/74
f 85/85/85 86/86/86 84/84/84
f 86/86/86 85/85/85 87/87/87
f 85/85/85 72/72/72 87/87/87
f 82/82/82 80/80/80 88/88/88
f 89/89/89 88/88/88 80/80/80
f 83/83/83 89/89/89 80/80/80
f 89/89/89 83/83/83 84/84/84
f 90/90/90 89/89/89 84/84/84
f 90/90/90 84/84/84 86/86/86
f 91/91/91 79/79/79 81/81/81
f 79/79/79 91/91/91 77/77/77
f 86/86/86 87/87/87 39/39/39
f 90/90/90 86/86/86 39/39/39
f 92/92/92 90/90/90 39/39/39
f 90/90/90 92/92/92 93/93/93
f 94/94/94 93/93/93 92/92/92
f 40/40/40 94/94/94 92/92/92
f 94/94/94 95/95/95 93/93/93
f 96/96/96 93/93/93 95/95/95
f 96/96/96 90/90/90 93/93/93
f 39/39/39 87/87/87 42/42/42
f 97/97/97 94/94/94 40/40/40
f 94/94/94 97/97/97 98/98/98
f 99/99/99 94/94/94 98/98/98
f 94/94/94 99/99/99 95/95/95
f 95/95/95 99/99/99 100/100/100
f 101/101/101 95/95/95 100/100/100
f 101/101/101 89/89/89 90/90/90
f 96/96/96 95/95/95 101/101/101
f 100/100/100 102/102/102 101/101/101
f 100/100/100 103/103/103 102/102/102
f 103/103/103 104/104/104 102/102/102
f 104/104/104 105/105/105 102/102/102
f 104/104/104 106/106/106 105/105/105
f 106/106/106 107/107/107 105/105/105
f 107/107/107 88/88/88 105/105/105
f 88/88/88 107/107/107 108/108/108
f 107/107/107 109/109/109 108/108/108
f 110/110/110 106/106/106 104/104/104
f 110/110/110 104/104/104 103/103/103
f 110/110/110 103/103/103 111/111/111
f 103/103/103 112/112/112 111/111/111
f 100/100/100 99/99/99 112/112/112
f 103/103/103 100/100/100 112/112/112
f 111/111/111 112/112/112 12/12/12
f 112/112/112 113/113/113 12/12/12
f 106/106/106 110/110/110 114/114/114
f 113/113/113 112/112/112 99/99/99
f 115/115/115 106/106/106 114/114/114
f 115/115/115 109/109/109 107/107/107
f 115/115/115 107/107/107 106/106/106
f 110/110/110 111/111/111 116/116/116
f 111/111/111 10/10/10 116/116/116
f 12/12/12 10/10/10 111/111/111
f 10/10/10 11/11/11 116/116/116
f 115/115/115 117/117/117 109/109/109
f 88/88/88 108/108/108 82/82/82
f 110/110/110 116/116/116 118/118/118
f 114/114/114 110/110/110 118/118/118
f 11/11/11 118/118/118 116/116/116
f 118/118/118 119/119/119 114/114/114
f 119/119/119 118/118/118 120/120/120
f 119/119/119 120/120/120 121/121/121
f 119/119/119 121/121/121 122/122/122
f 121/121/121 9/9/9 122/122/122
f 121/121/121 120/120/120 9/9/9
f 9/9/9 123/123/123 122/122/122
f 124/124/124 119/119/119 122/122/122
f 122/122/122 125/125/125 124/124/124
f 126/126/126 124/124/124 125/125/125
f 124/124/124 126/126/126 127/127/127
f 124/124/124 127/127/127 128/128/128
f 128/128/128 127/127/127 129/129/129
f 118/118/118 4/4/4 120/120/120
f 120/120/120 4/4/4 9/9/9
f 130/130/130 124/124/124 128/128/128
f 124/124/124 130/130/130 119/119/119
f 130/130/130 114/114/114 119/119/119
f 130/130/130 128/128/128 114/114/114
f 125/125/125 131/131/131 126/126/126
f 131/131/131 132/132/132 126/126/126
f 133/133/133 127/127/127 126/126/126
f 134/134/134 133/133/133 126/126/126
f 134/134/134 126/126/126 132/132/132
f 123/123/123 9/9/9 17/17/17
f 131/131/131 125/125/125 25/25/25
f 123/123/123 17/17/17 19/19/19
f 123/123/123 19/19/19 20/20/20
f 27/27/27 123/123/123 20/20/20
f 135/135/135 123/123/123 27/27/27
f 136/136/136 135/135/135 27/27/27
f 27/27/27 25/25/25 136/136/136
f 135/135/135 136/136/136 122/122/122
f 135/135/135 122/122/122 123/123/123
f 122/122/122 136/136/136 25/25/25
f 125/125/125 122/122/122 25/25/25
f 114/114/114 128/128/128 115/115/115
f 115/115/115 128/128/128 129/129/129
f 117/117/117 115/115/115 129/129/129
f 139/139/139 138/138/138 137/137/137
f 60/60/60 139/139/139 137/137/137
f 138/138/138 140/140/140 137/137/137
f 60/60/60 62/62/62 139/139/139
f 137/137/137 53/53/53 60/60/60
f 137/137/137 140/140/140 141/141/141
f 142/142/142 53/53/53 137/137/137
f 141/141/141 142/142/142 137/137/137
f 141/141/141 143/143/143 142/142/142
f 143/143/143 144/144/144 142/142/142
f 145/145/145 144/144/144 143/143/143
f 146/146/146 145/145/145 143/143/143
f 146/146/146 23/23/23 145/145/145
f 145/145/145 147/147/147 144/144/144
f 142/142/142 144/144/144 147/147/147
f 145/145/145 148/148/148 147/147/147
f 148/148/148 145/145/145 23/23/23
f 149/149/149 147/147/147 148/148/148
f 147/147/147 149/149/149 142/142/142
f 146/146/146 26/26/26 23/23/23
f 21/21/21 148/148/148 23/23/23
f 148/148/148 21/21/21 22/22/22
f 148/148/148 22/22/22 149/149/149
f 142/142/142 149/149/149 56/56/56
f 53/53/53 142/142/142 56/56/56
f 149/149/149 57/57/57 56/56/56
f 22/22/22 57/57/57 149/149/149
f 5/5/5 98/98/98 97/97/97
f 12/12/12 98/98/98 5/5/5
f 98/98/98 12/12/12 113/113/113
f 99/99/99 98/98/98 113/113/113
f 97/97/97 8/8/8 5/5/5
f 41/41/41 8/8/8 97/97/97
f 41/41/41 7/7/7 8/8/8
f 41/41/41 97/97/97 40/40/40
f 92/92/92 38/38/38 40/40/40
f 92/92/92 39/39/39 38/38/38
f 7/7/7 29/29/29 16/16/16
f 102/102/102 105/105/105 89/89/89
f 101/101/101 102/102/102 89/89/89
f 105/105/105 88/88/88 89/89/89
f 47/47/47 46/46/46 61/61/61
f 52/52/52 47/47/47 61/61/61
f 49/49/49 30/30/30 35/35/35
f 30/30/30 49/49/49 31/31/31
f 14/14/14 15/15/15 58/58/58
f 18/18/18 14/14/14 58/58/58
f 4/4/4 118/118/118 11/11/11
f 75/75/75 77/77/77 91/91/91
f 152/152/152 151/151/151 150/150/150
f 72/72/72 42/42/42 87/87/87
