g m_map_vanjetengine_01
v 0.177878 0.3159844 0
v 0.08205459 0.3386889 0
v 0.08205459 0.2933139 -0.1693414
v 0.1778779 0.2736513 -0.1579888
v 0.08205459 0.1693474 -0.2933081
v 0.177878 0.1579951 -0.273645
v 0.08205459 6.256103E-06 -0.3386829
v 0.177878 6.103515E-06 -0.3159785
v 0.08205459 -0.1693352 -0.2933081
v 0.177878 -0.1579831 -0.273645
v 0.08205459 -0.2933017 -0.1693414
v 0.1778779 -0.2736389 -0.1579888
v 0.08205459 -0.3386766 0
v 0.177878 -0.315972 0
v -0.002350922 0.3037677 -0.1753766
v -0.002350922 0.3507597 0
v -0.002350922 0.1753829 -0.3037617
v -0.002350922 6.103515E-06 -0.3507538
v -0.002350922 -0.1753708 -0.3037617
v -0.002350922 -0.3037555 -0.1753766
v -0.002350922 -0.3507477 0
v 0.247964 0.1382625 -0.2394672
v 0.247964 0.239473 -0.1382562
v 0.2663966 0.1287212 -0.2229413
v 0.2663966 0.2229472 -0.1287152
v 0.247964 0.2765189 0
v 0.2663966 0.2574364 0
v 0.2663966 6.256103E-06 -0.2574304
v 0.247964 6.103515E-06 -0.2765124
v 0.2663966 -0.1287089 -0.2229413
v 0.247964 -0.1382503 -0.2394672
v 0.2663966 -0.2229349 -0.1287152
v 0.247964 -0.2394609 -0.1382562
v 0.2663966 -0.2574238 0
v 0.247964 -0.2765065 0
v 0.2663966 6.256103E-06 -0.2112244
v 0.2663966 0.1056181 -0.1829254
v 0.2663966 -0.1056061 -0.1829254
v 0.266396 -0.1829195 -0.1056122
v 0.266396 -0.2112181 0
v 0.2663966 0.1829317 -0.1056122
v 0.2663966 0.2112304 0
v 0.2663966 0.1829317 -0.1056122
v 0.1961293 0.1311157 -0.07569641
v 0.1961293 0.1513984 0
v 0.2663966 0.2112304 0
v 0.2663966 0.1056181 -0.1829254
v 0.1961293 0.07570229 -0.1311096
v 0.2663966 6.256103E-06 -0.2112244
v 0.1961293 6.256103E-06 -0.1513922
v 0.2663966 -0.1056061 -0.1829254
v 0.1961293 -0.07569 -0.1311096
v 0.266396 -0.1829195 -0.1056122
v 0.1961293 -0.1311035 -0.07569641
v 0.266396 -0.2112181 0
v 0.1961293 -0.1513863 0
v 0.3645503 0.1349657 0
v 0.3645503 0.1168846 -0.06747978
v 0.390027 0.06921463 -0.03995726
v 0.390027 0.07992119 0
v 0.390027 0.03996368 -0.06920833
v 0.3645503 0.06748604 -0.1168787
v 0.390027 6.256103E-06 -0.07991516
v 0.3645503 6.256103E-06 -0.1349597
v 0.390027 -0.03995148 -0.06920833
v 0.3645503 -0.06747375 -0.1168787
v 0.390027 -0.06920227 -0.03995727
v 0.3645503 -0.1168723 -0.06747978
v 0.390027 -0.0799089 0
v 0.3645503 -0.1349535 0
v 0.1961293 0.1311157 -0.07569641
v 0.1961293 0.1513984 0
v 0.1961293 0.07570229 -0.1311096
v 0.1961293 6.256103E-06 -0.1513922
v 0.1961293 -0.07569 -0.1311096
v 0.1961293 -0.1311035 -0.07569641
v 0.1961293 -0.1513863 0
v 0.390027 0.06921463 -0.03995726
v 0.2396962 6.103515E-06 0
v 0.390027 0.07992119 0
v 0.390027 0.03996368 -0.06920833
v 0.390027 6.256103E-06 -0.07991516
v 0.390027 -0.03995148 -0.06920833
v 0.390027 -0.06920227 -0.03995727
v 0.390027 -0.0799089 0
v 0.177878 0.3159844 0
v 0.1778779 0.2736513 0.1579888
v 0.08205459 0.2933139 0.1693414
v 0.08205459 0.3386889 0
v 0.08205459 0.1693474 0.2933081
v 0.177878 0.1579951 0.273645
v 0.08205459 6.256103E-06 0.3386829
v 0.177878 6.103515E-06 0.3159785
v 0.08205459 -0.1693352 0.2933081
v 0.177878 -0.1579831 0.273645
v 0.08205459 -0.2933017 0.1693414
v 0.1778779 -0.2736389 0.1579888
v 0.08205459 -0.3386766 0
v 0.177878 -0.315972 0
v -0.002350922 0.3037677 0.1753766
v -0.002350922 0.3507597 0
v -0.002350922 0.1753829 0.3037617
v -0.002350922 6.103515E-06 0.3507538
v -0.002350922 -0.1753708 0.3037617
v -0.002350922 -0.3037555 0.1753766
v -0.002350922 -0.3507477 0
v 0.247964 0.1382625 0.2394672
v 0.247964 0.239473 0.1382562
v 0.2663966 0.1287212 0.2229413
v 0.2663966 0.2229472 0.1287152
v 0.247964 0.2765189 0
v 0.2663966 0.2574364 0
v 0.2663966 6.256103E-06 0.2574304
v 0.247964 6.103515E-06 0.2765124
v 0.2663966 -0.1287089 0.2229413
v 0.247964 -0.1382503 0.2394672
v 0.2663966 -0.2229349 0.1287152
v 0.247964 -0.2394609 0.1382562
v 0.2663966 -0.2574238 0
v 0.247964 -0.2765065 0
v 0.2663966 6.256103E-06 0.2112244
v 0.2663966 0.1056181 0.1829254
v 0.2663966 -0.1056061 0.1829254
v 0.266396 -0.1829195 0.1056122
v 0.266396 -0.2112181 0
v 0.2663966 0.1829317 0.1056122
v 0.2663966 0.2112304 0
v 0.2663966 0.1829317 0.1056122
v 0.2663966 0.2112304 0
v 0.1961293 0.1513984 0
v 0.1961293 0.1311157 0.07569641
v 0.2663966 0.1056181 0.1829254
v 0.1961293 0.07570229 0.1311096
v 0.2663966 6.256103E-06 0.2112244
v 0.1961293 6.256103E-06 0.1513922
v 0.2663966 -0.1056061 0.1829254
v 0.1961293 -0.07569 0.1311096
v 0.266396 -0.1829195 0.1056122
v 0.1961293 -0.1311035 0.07569641
v 0.266396 -0.2112181 0
v 0.1961293 -0.1513863 0
v 0.3645503 0.1349657 0
v 0.390027 0.07992119 0
v 0.390027 0.06921463 0.03995726
v 0.3645503 0.1168846 0.06747978
v 0.390027 0.03996368 0.06920833
v 0.3645503 0.06748604 0.1168787
v 0.390027 6.256103E-06 0.07991516
v 0.3645503 6.256103E-06 0.1349597
v 0.390027 -0.03995148 0.06920833
v 0.3645503 -0.06747375 0.1168787
v 0.390027 -0.06920227 0.03995727
v 0.3645503 -0.1168723 0.06747978
v 0.390027 -0.0799089 0
v 0.3645503 -0.1349535 0
v 0.1961293 0.1311157 0.07569641
v 0.1961293 0.1513984 0
v 0.1961293 0.07570229 0.1311096
v 0.1961293 6.256103E-06 0.1513922
v 0.1961293 -0.07569 0.1311096
v 0.1961293 -0.1311035 0.07569641
v 0.1961293 -0.1513863 0
v 0.390027 0.06921463 0.03995726
v 0.390027 0.07992119 0
v 0.2396962 6.103515E-06 0
v 0.390027 0.03996368 0.06920833
v 0.390027 6.256103E-06 0.07991516
v 0.390027 -0.03995148 0.06920833
v 0.390027 -0.06920227 0.03995727
v 0.390027 -0.0799089 0
vt 0.7514648 0.8544922
vt 0.7807617 0.8745117
vt 0.8120117 0.8227539
vt 0.78125 0.8085938
vt 0.8320313 0.7666016
vt 0.7993164 0.7592773
vt 0.8388672 0.7075195
vt 0.8056641 0.7080078
vt 0.8320313 0.6489258
vt 0.7993164 0.6567383
vt 0.8110352 0.5927734
vt 0.78125 0.6074219
vt 0.7802734 0.5419922
vt 0.7514648 0.5615234
vt 0.8388672 0.8349609
vt 0.8061523 0.8901367
vt 0.8608398 0.7729492
vt 0.8681641 0.7075195
vt 0.8598633 0.6420898
vt 0.8374023 0.5805664
vt 0.8051758 0.5263672
vt 0.7729492 0.7529297
vt 0.7573242 0.7958984
vt 0.7641602 0.7504883
vt 0.7495117 0.7915039
vt 0.7299805 0.8344727
vt 0.7236328 0.8271484
vt 0.769043 0.7080078
vt 0.777832 0.7080078
vt 0.7641602 0.6655273
vt 0.7729492 0.6630859
vt 0.7495117 0.625
vt 0.7573242 0.6201172
vt 0.7236328 0.5883789
vt 0.7299805 0.5810547
vt 0.7529297 0.7080078
vt 0.7485352 0.746582
vt 0.7485352 0.6694336
vt 0.7358398 0.6328125
vt 0.7138672 0.6020508
vt 0.7358398 0.7832031
vt 0.7143555 0.8139648
vt 0.7358398 0.7832031
vt 0.7080078 0.7666016
vt 0.6938477 0.7910156
vt 0.7143555 0.8139648
vt 0.7485352 0.746582
vt 0.7172852 0.7382813
vt 0.7529297 0.7080078
vt 0.7207031 0.7080078
vt 0.7485352 0.6694336
vt 0.7172852 0.6777344
vt 0.7358398 0.6328125
vt 0.7080078 0.6494141
vt 0.7138672 0.6020508
vt 0.6938477 0.6254883
vt 0.640625 0.7661133
vt 0.652832 0.7470703
vt 0.6352539 0.7358398
vt 0.6264648 0.7470703
vt 0.640625 0.722168
vt 0.6606445 0.7280273
vt 0.6430664 0.7075195
vt 0.6635742 0.7075195
vt 0.6420898 0.6923828
vt 0.6616211 0.6875
vt 0.6376953 0.6782227
vt 0.6552734 0.6674805
vt 0.6298828 0.6660156
vt 0.6435547 0.6479492
vt 0.7080078 0.7666016
vt 0.6938477 0.7910156
vt 0.7172852 0.7382813
vt 0.7207031 0.7080078
vt 0.7172852 0.6777344
vt 0.7080078 0.6494141
vt 0.6938477 0.6254883
vt 0.6352539 0.7358398
vt 0.5849609 0.7041016
vt 0.6264648 0.7470703
vt 0.640625 0.722168
vt 0.6430664 0.7075195
vt 0.6420898 0.6923828
vt 0.6376953 0.6782227
vt 0.6298828 0.6660156
vt 0.7514648 0.8544922
vt 0.78125 0.8085938
vt 0.8120117 0.8227539
vt 0.7807617 0.8745117
vt 0.8320313 0.7666016
vt 0.7993164 0.7592773
vt 0.8388672 0.7075195
vt 0.8056641 0.7080078
vt 0.8320313 0.6489258
vt 0.7993164 0.6567383
vt 0.8110352 0.5927734
vt 0.78125 0.6074219
vt 0.7802734 0.5419922
vt 0.7514648 0.5615234
vt 0.8388672 0.8349609
vt 0.8061523 0.8901367
vt 0.8608398 0.7729492
vt 0.8681641 0.7075195
vt 0.8598633 0.6420898
vt 0.8374023 0.5805664
vt 0.8051758 0.5263672
vt 0.7729492 0.7529297
vt 0.7573242 0.7958984
vt 0.7641602 0.7504883
vt 0.7495117 0.7915039
vt 0.7299805 0.8344727
vt 0.7236328 0.8271484
vt 0.769043 0.7080078
vt 0.777832 0.7080078
vt 0.7641602 0.6655273
vt 0.7729492 0.6630859
vt 0.7495117 0.625
vt 0.7573242 0.6201172
vt 0.7236328 0.5883789
vt 0.7299805 0.5810547
vt 0.7529297 0.7080078
vt 0.7485352 0.746582
vt 0.7485352 0.6694336
vt 0.7358398 0.6328125
vt 0.7138672 0.6020508
vt 0.7358398 0.7832031
vt 0.7143555 0.8139648
vt 0.7358398 0.7832031
vt 0.7143555 0.8139648
vt 0.6938477 0.7910156
vt 0.7080078 0.7666016
vt 0.7485352 0.746582
vt 0.7172852 0.7382813
vt 0.7529297 0.7080078
vt 0.7207031 0.7080078
vt 0.7485352 0.6694336
vt 0.7172852 0.6777344
vt 0.7358398 0.6328125
vt 0.7080078 0.6494141
vt 0.7138672 0.6020508
vt 0.6938477 0.6254883
vt 0.640625 0.7661133
vt 0.6264648 0.7470703
vt 0.6352539 0.7358398
vt 0.652832 0.7470703
vt 0.640625 0.722168
vt 0.6606445 0.7280273
vt 0.6430664 0.7075195
vt 0.6635742 0.7075195
vt 0.6420898 0.6923828
vt 0.6616211 0.6875
vt 0.6376953 0.6782227
vt 0.6552734 0.6674805
vt 0.6298828 0.6660156
vt 0.6435547 0.6479492
vt 0.7080078 0.7666016
vt 0.6938477 0.7910156
vt 0.7172852 0.7382813
vt 0.7207031 0.7080078
vt 0.7172852 0.6777344
vt 0.7080078 0.6494141
vt 0.6938477 0.6254883
vt 0.6352539 0.7358398
vt 0.6264648 0.7470703
vt 0.5849609 0.7041016
vt 0.640625 0.722168
vt 0.6430664 0.7075195
vt 0.6420898 0.6923828
vt 0.6376953 0.6782227
vt 0.6298828 0.6660156
vn 0.3365963 0.941649 0
vn 0.1869338 0.9823725 0
vn 0.1869342 0.8507591 -0.4911868
vn 0.3365963 0.815492 -0.4708243
vn 0.1869345 0.4911866 -0.8507591
vn 0.3365968 0.4708253 -0.8154913
vn 0.1869344 2.745909E-07 -0.9823723
vn 0.336597 -1.461424E-07 -0.9416488
vn 0.1869346 -0.4911862 -0.8507593
vn 0.3365966 -0.4708255 -0.8154913
vn 0.186935 -0.8507593 -0.4911864
vn 0.3365963 -0.8154923 -0.470824
vn 0.1869354 -0.9823722 0
vn 0.3365962 -0.9416491 0
vn 0.1415698 0.8573034 -0.4949636
vn 0.1415702 0.9899282 0
vn 0.1415696 0.494965 -0.8573026
vn 0.14157 -2.960942E-07 -0.9899283
vn 0.14157 -0.4949648 -0.8573026
vn 0.1415706 -0.8573033 -0.4949634
vn 0.1415715 -0.9899281 0
vn 0.5387654 0.4212284 -0.7295879
vn 0.5387659 0.7295877 -0.4212281
vn 0.9366238 0.1751684 -0.3034007
vn 0.9366238 0.3034005 -0.1751686
vn 0.5387669 0.842455 0
vn 0.9366236 0.3503374 0
vn 0.9366237 3.591601E-07 -0.350337
vn 0.538766 -1.222344E-07 -0.8424554
vn 0.9366245 -0.1751673 -0.303399
vn 0.5387655 -0.421228 -0.7295879
vn 0.9366256 -0.3033964 -0.1751659
vn 0.5387655 -0.7295884 -0.4212272
vn 0.9366263 -0.35033 0
vn 0.5387661 -0.8424554 0
vn 1 0 0
vn 1 -1.409285E-07 0
vn 1 1.550216E-06 3.306999E-06
vn 1 8.032951E-06 5.076721E-06
vn 1 1.324733E-05 0
vn 1 -3.875535E-07 0
vn 1 -5.284826E-07 0
vn 0.6483066 -0.6593738 0.3806897
vn 0.6483066 -0.6593736 0.3806902
vn 0.648307 -0.761379 0
vn 0.648307 -0.761379 0
vn 0.6483062 -0.3806894 0.6593744
vn 0.6483063 -0.3806894 0.6593744
vn 0.6483071 0 0.761379
vn 0.648307 0 0.761379
vn 0.6483073 0.3806872 0.6593746
vn 0.6483074 0.3806869 0.6593747
vn 0.648309 0.6593713 0.3806901
vn 0.6483091 0.6593713 0.3806902
vn 0.6483094 0.761377 0
vn 0.6483094 0.761377 0
vn 0.2663283 0.9638824 0
vn 0.2663292 0.8347469 -0.4819402
vn 0.9075105 0.3637564 -0.2100141
vn 0.9075103 0.4200298 0
vn 0.9075109 0.2100154 -0.3637546
vn 0.2663291 0.481941 -0.8347466
vn 0.9075108 0 -0.4200287
vn 0.2663288 0 -0.9638823
vn 0.9075109 -0.2100152 -0.3637547
vn 0.266329 -0.4819404 -0.8347468
vn 0.9075104 -0.3637566 -0.210014
vn 0.2663296 -0.8347466 -0.4819405
vn 0.9075103 -0.4200298 0
vn 0.2663291 -0.9638822 0
vn 0.09710802 0.8619327 -0.4976364
vn 0.09710803 0.9952739 0
vn 0.09710743 0.4976367 -0.8619327
vn 0.09710681 0 -0.995274
vn 0.09710763 -0.497636 -0.8619331
vn 0.09710862 -0.8619325 -0.4976368
vn 0.09710895 -0.9952738 0
vn 0.4693922 -0.7646915 0.4414952
vn 1 8.6851E-07 0
vn 0.4693927 -0.8829894 0
vn 0.4693922 -0.4414982 0.7646896
vn 0.4693931 0 0.8829893
vn 0.4693922 0.4414973 0.7646902
vn 0.4693916 0.764692 0.4414948
vn 0.4693924 0.8829897 0
vn 0.3365963 0.941649 0
vn 0.3365963 0.8154922 0.4708244
vn 0.1869341 0.8507591 0.4911868
vn 0.1869338 0.9823725 0
vn 0.1869345 0.4911865 0.8507593
vn 0.3365969 0.4708253 0.8154913
vn 0.1869345 2.785705E-07 0.9823723
vn 0.3365969 -1.19571E-07 0.9416488
vn 0.1869347 -0.4911863 0.8507593
vn 0.3365966 -0.4708255 0.8154913
vn 0.186935 -0.8507593 0.4911864
vn 0.3365962 -0.8154923 0.470824
vn 0.1869354 -0.9823722 0
vn 0.3365962 -0.9416491 0
vn 0.1415698 0.8573034 0.4949635
vn 0.1415702 0.9899282 0
vn 0.1415696 0.494965 0.8573026
vn 0.14157 -2.960942E-07 0.9899282
vn 0.1415701 -0.4949648 0.8573026
vn 0.1415706 -0.8573033 0.4949634
vn 0.1415715 -0.9899281 0
vn 0.5387653 0.4212284 0.7295879
vn 0.5387658 0.7295878 0.421228
vn 0.9366237 0.1751686 0.3034007
vn 0.9366237 0.3034008 0.1751686
vn 0.5387669 0.842455 0
vn 0.9366236 0.3503374 0
vn 0.9366237 3.01231E-07 0.3503369
vn 0.5387659 -1.145948E-07 0.8424554
vn 0.9366245 -0.1751675 0.303399
vn 0.5387654 -0.4212281 0.729588
vn 0.9366256 -0.3033963 0.1751659
vn 0.5387655 -0.7295885 0.4212273
vn 0.9366263 -0.35033 0
vn 0.5387661 -0.8424554 0
vn 1 0 0
vn 1 1.409284E-07 0
vn 1 1.550216E-06 -3.306999E-06
vn 1 8.314809E-06 -5.076721E-06
vn 1 1.324733E-05 0
vn 1 -1.409289E-07 0
vn 1 -5.284826E-07 0
vn 0.6483067 -0.6593739 -0.3806897
vn 0.648307 -0.761379 0
vn 0.648307 -0.761379 0
vn 0.6483066 -0.6593735 -0.3806902
vn 0.6483063 -0.3806894 -0.6593744
vn 0.6483063 -0.3806894 -0.6593744
vn 0.6483071 0 -0.7613789
vn 0.6483071 0 -0.761379
vn 0.6483073 0.3806871 -0.6593745
vn 0.6483074 0.3806869 -0.6593747
vn 0.6483091 0.6593713 -0.3806901
vn 0.6483091 0.6593713 -0.3806902
vn 0.6483094 0.761377 0
vn 0.6483094 0.761377 0
vn 0.2663283 0.9638824 0
vn 0.9075103 0.4200298 0
vn 0.9075106 0.3637562 0.2100141
vn 0.2663293 0.8347468 0.4819402
vn 0.9075109 0.2100155 0.3637546
vn 0.266329 0.481941 0.8347465
vn 0.9075108 2.792709E-07 0.4200285
vn 0.2663288 0 0.9638823
vn 0.9075109 -0.2100151 0.3637547
vn 0.2663291 -0.4819403 0.8347469
vn 0.9075104 -0.3637565 0.210014
vn 0.2663297 -0.8347466 0.4819406
vn 0.9075103 -0.4200298 0
vn 0.2663291 -0.9638822 0
vn 0.09710804 0.8619327 0.4976364
vn 0.09710803 0.9952739 0
vn 0.09710743 0.4976367 0.8619327
vn 0.09710678 0 0.995274
vn 0.09710762 -0.497636 0.8619331
vn 0.09710863 -0.8619325 0.4976368
vn 0.09710895 -0.9952738 0
vn 0.4693922 -0.7646915 -0.4414952
vn 0.4693927 -0.8829894 0
vn 1 8.6851E-07 0
vn 0.4693922 -0.4414983 -0.7646896
vn 0.4693931 0 -0.8829893
vn 0.4693922 0.4414974 -0.7646902
vn 0.4693916 0.764692 -0.4414948
vn 0.4693924 0.8829897 0
g m_map_vanjetengine_01_0
f 3/3/3 2/2/2 1/1/1
f 4/4/4 3/3/3 1/1/1
f 5/5/5 3/3/3 4/4/4
f 6/6/6 5/5/5 4/4/4
f 7/7/7 5/5/5 6/6/6
f 8/8/8 7/7/7 6/6/6
f 9/9/9 7/7/7 8/8/8
f 10/10/10 9/9/9 8/8/8
f 11/11/11 9/9/9 10/10/10
f 12/12/12 11/11/11 10/10/10
f 13/13/13 11/11/11 12/12/12
f 14/14/14 13/13/13 12/12/12
f 3/3/3 15/15/15 2/2/2
f 15/15/15 16/16/16 2/2/2
f 17/17/17 15/15/15 3/3/3
f 5/5/5 17/17/17 3/3/3
f 18/18/18 17/17/17 5/5/5
f 7/7/7 18/18/18 5/5/5
f 19/19/19 18/18/18 7/7/7
f 9/9/9 19/19/19 7/7/7
f 20/20/20 19/19/19 9/9/9
f 11/11/11 20/20/20 9/9/9
f 21/21/21 20/20/20 11/11/11
f 13/13/13 21/21/21 11/11/11
f 8/8/8 6/6/6 22/22/22
f 22/22/22 6/6/6 23/23/23
f 24/24/24 22/22/22 23/23/23
f 25/25/25 24/24/24 23/23/23
f 25/25/25 23/23/23 26/26/26
f 27/27/27 25/25/25 26/26/26
f 24/24/24 28/28/28 22/22/22
f 28/28/28 29/29/29 22/22/22
f 28/28/28 30/30/30 29/29/29
f 30/30/30 31/31/31 29/29/29
f 30/30/30 32/32/32 31/31/31
f 32/32/32 33/33/33 31/31/31
f 32/32/32 34/34/34 33/33/33
f 34/34/34 35/35/35 33/33/33
f 23/23/23 4/4/4 26/26/26
f 6/6/6 4/4/4 23/23/23
f 4/4/4 1/1/1 26/26/26
f 31/31/31 10/10/10 29/29/29
f 10/10/10 8/8/8 29/29/29
f 29/29/29 8/8/8 22/22/22
f 12/12/12 10/10/10 31/31/31
f 33/33/33 12/12/12 31/31/31
f 14/14/14 12/12/12 33/33/33
f 35/35/35 14/14/14 33/33/33
f 28/28/28 36/36/36 30/30/30
f 37/37/37 36/36/36 28/28/28
f 36/36/36 38/38/38 30/30/30
f 30/30/30 38/38/38 32/32/32
f 38/38/38 39/39/39 32/32/32
f 32/32/32 39/39/39 34/34/34
f 39/39/39 40/40/40 34/34/34
f 41/41/41 37/37/37 24/24/24
f 25/25/25 41/41/41 24/24/24
f 42/42/42 41/41/41 25/25/25
f 27/27/27 42/42/42 25/25/25
f 24/24/24 37/37/37 28/28/28
f 45/45/45 44/44/44 43/43/43
f 46/46/46 45/45/45 43/43/43
f 43/43/43 44/44/44 47/47/47
f 44/44/44 48/48/48 47/47/47
f 47/47/47 48/48/48 49/49/49
f 48/48/48 50/50/50 49/49/49
f 49/49/49 50/50/50 51/51/51
f 50/50/50 52/52/52 51/51/51
f 51/51/51 52/52/52 53/53/53
f 52/52/52 54/54/54 53/53/53
f 53/53/53 54/54/54 55/55/55
f 54/54/54 56/56/56 55/55/55
f 59/59/59 58/58/58 57/57/57
f 60/60/60 59/59/59 57/57/57
f 59/59/59 61/61/61 58/58/58
f 61/61/61 62/62/62 58/58/58
f 61/61/61 63/63/63 62/62/62
f 63/63/63 64/64/64 62/62/62
f 63/63/63 65/65/65 64/64/64
f 65/65/65 66/66/66 64/64/64
f 65/65/65 67/67/67 66/66/66
f 67/67/67 68/68/68 66/66/66
f 67/67/67 69/69/69 68/68/68
f 69/69/69 70/70/70 68/68/68
f 57/57/57 58/58/58 71/71/71
f 72/72/72 57/57/57 71/71/71
f 58/58/58 62/62/62 73/73/73
f 71/71/71 58/58/58 73/73/73
f 62/62/62 64/64/64 74/74/74
f 73/73/73 62/62/62 74/74/74
f 64/64/64 66/66/66 75/75/75
f 74/74/74 64/64/64 75/75/75
f 66/66/66 68/68/68 76/76/76
f 75/75/75 66/66/66 76/76/76
f 68/68/68 70/70/70 77/77/77
f 76/76/76 68/68/68 77/77/77
f 80/80/80 79/79/79 78/78/78
f 78/78/78 79/79/79 81/81/81
f 81/81/81 79/79/79 82/82/82
f 82/82/82 79/79/79 83/83/83
f 83/83/83 79/79/79 84/84/84
f 84/84/84 79/79/79 85/85/85
f 88/88/88 87/87/87 86/86/86
f 89/89/89 88/88/88 86/86/86
f 88/88/88 90/90/90 87/87/87
f 90/90/90 91/91/91 87/87/87
f 90/90/90 92/92/92 91/91/91
f 92/92/92 93/93/93 91/91/91
f 92/92/92 94/94/94 93/93/93
f 94/94/94 95/95/95 93/93/93
f 94/94/94 96/96/96 95/95/95
f 96/96/96 97/97/97 95/95/95
f 96/96/96 98/98/98 97/97/97
f 98/98/98 99/99/99 97/97/97
f 100/100/100 88/88/88 89/89/89
f 101/101/101 100/100/100 89/89/89
f 102/102/102 90/90/90 88/88/88
f 100/100/100 102/102/102 88/88/88
f 103/103/103 92/92/92 90/90/90
f 102/102/102 103/103/103 90/90/90
f 104/104/104 94/94/94 92/92/92
f 103/103/103 104/104/104 92/92/92
f 105/105/105 96/96/96 94/94/94
f 104/104/104 105/105/105 94/94/94
f 106/106/106 98/98/98 96/96/96
f 105/105/105 106/106/106 96/96/96
f 91/91/91 93/93/93 107/107/107
f 91/91/91 107/107/107 108/108/108
f 107/107/107 109/109/109 108/108/108
f 109/109/109 110/110/110 108/108/108
f 108/108/108 110/110/110 111/111/111
f 110/110/110 112/112/112 111/111/111
f 113/113/113 109/109/109 107/107/107
f 114/114/114 113/113/113 107/107/107
f 115/115/115 113/113/113 114/114/114
f 116/116/116 115/115/115 114/114/114
f 117/117/117 115/115/115 116/116/116
f 118/118/118 117/117/117 116/116/116
f 119/119/119 117/117/117 118/118/118
f 120/120/120 119/119/119 118/118/118
f 87/87/87 108/108/108 111/111/111
f 87/87/87 91/91/91 108/108/108
f 86/86/86 87/87/87 111/111/111
f 95/95/95 116/116/116 114/114/114
f 93/93/93 95/95/95 114/114/114
f 93/93/93 114/114/114 107/107/107
f 97/97/97 118/118/118 116/116/116
f 95/95/95 97/97/97 116/116/116
f 99/99/99 120/120/120 118/118/118
f 97/97/97 99/99/99 118/118/118
f 121/121/121 113/113/113 115/115/115
f 121/121/121 122/122/122 113/113/113
f 123/123/123 121/121/121 115/115/115
f 123/123/123 115/115/115 117/117/117
f 124/124/124 123/123/123 117/117/117
f 124/124/124 117/117/117 119/119/119
f 125/125/125 124/124/124 119/119/119
f 122/122/122 126/126/126 109/109/109
f 126/126/126 110/110/110 109/109/109
f 126/126/126 127/127/127 110/110/110
f 127/127/127 112/112/112 110/110/110
f 122/122/122 109/109/109 113/113/113
f 130/130/130 129/129/129 128/128/128
f 131/131/131 130/130/130 128/128/128
f 131/131/131 128/128/128 132/132/132
f 133/133/133 131/131/131 132/132/132
f 133/133/133 132/132/132 134/134/134
f 135/135/135 133/133/133 134/134/134
f 135/135/135 134/134/134 136/136/136
f 137/137/137 135/135/135 136/136/136
f 137/137/137 136/136/136 138/138/138
f 139/139/139 137/137/137 138/138/138
f 139/139/139 138/138/138 140/140/140
f 141/141/141 139/139/139 140/140/140
f 144/144/144 143/143/143 142/142/142
f 145/145/145 144/144/144 142/142/142
f 146/146/146 144/144/144 145/145/145
f 147/147/147 146/146/146 145/145/145
f 148/148/148 146/146/146 147/147/147
f 149/149/149 148/148/148 147/147/147
f 150/150/150 148/148/148 149/149/149
f 151/151/151 150/150/150 149/149/149
f 152/152/152 150/150/150 151/151/151
f 153/153/153 152/152/152 151/151/151
f 154/154/154 152/152/152 153/153/153
f 155/155/155 154/154/154 153/153/153
f 145/145/145 142/142/142 156/156/156
f 142/142/142 157/157/157 156/156/156
f 145/145/145 156/156/156 158/158/158
f 147/147/147 145/145/145 158/158/158
f 147/147/147 158/158/158 159/159/159
f 149/149/149 147/147/147 159/159/159
f 149/149/149 159/159/159 160/160/160
f 151/151/151 149/149/149 160/160/160
f 151/151/151 160/160/160 161/161/161
f 153/153/153 151/151/151 161/161/161
f 153/153/153 161/161/161 162/162/162
f 155/155/155 153/153/153 162/162/162
f 165/165/165 164/164/164 163/163/163
f 165/165/165 163/163/163 166/166/166
f 165/165/165 166/166/166 167/167/167
f 165/165/165 167/167/167 168/168/168
f 165/165/165 168/168/168 169/169/169
f 165/165/165 169/169/169 170/170/170
