g m_mapBallooncurve120_01
v 1.028411 0 0.2187186
v 0.9880034 0.03284292 0.2887392
v 1.028411 0.04912876 0.2187186
v 0.8657503 0.0003644752 0.5003891
v 0.8657503 0.03284292 0.5003891
v 0.9880034 0.04912875 0.2887392
v 0.7440661 0.03284292 0.7112713
v 0.7036591 0.0003644895 0.7812918
v 0.7036591 0.04912876 0.7812918
v 0.7440661 0.04912876 0.7112713
v 1.028411 0.04912876 0.2187186
v 0.9880034 0.04912875 0.2887392
v 0.7992393 0.04912822 0.1648477
v 0.8478809 0.04912804 0.1026604
v 0.6967728 0.04967093 -0.02985436
v 0.6422967 0.04953512 0.02637859
v 0.5780044 0.04922477 -0.1622596
v 0.5140294 0.04920067 -0.1157341
v 0.4682687 0.0495547 -0.3234932
v 0.3982888 0.04944514 -0.2830197
v 0.4681832 0.0007900224 -0.3234431
v 0.5779863 0.0004604693 -0.1622465
v 0.5780044 0.04922477 -0.1622596
v 0.4682687 0.0495547 -0.3234932
v 0.6967728 0.04967093 -0.02985436
v 0.6966845 0.0009059991 -0.02976325
v 0.8478809 0.04912804 0.1026604
v 0.8478814 0.0003637758 0.1026603
v 1.028411 0.04912876 0.2187186
v 1.028411 0 0.2187186
v 0.3982602 0.03315916 -0.2830029
v 0.5140234 0.03291482 -0.1157297
v 0.3237644 0.03284317 0.02263517
v 0.2048014 0.03285412 -0.1679287
v -0.004272857 0.03252681 -0.04700918
v 0.1322155 0.03277103 0.1619383
v 0.4800188 0.03284457 0.19389
v 0.6422673 0.03324905 0.02640902
v 0.3165389 0.03243702 0.3626419
v 0.6541552 0.03284292 0.3503349
v 0.7992394 0.03284238 0.1648476
v 0.507874 0.03284346 0.5373526
v 0.8657503 0.03284292 0.5003891
v 0.9880034 0.03284292 0.2887392
v 0.7440661 0.03284292 0.7112713
v 1.028411 0 0.2187186
v 0.8478814 0.0003637758 0.1026603
v 0.6541553 0.000364473 0.3503349
v 0.8657503 0.0003644752 0.5003891
v 0.7036591 0.0003644895 0.7812918
v 0.4592311 0.0003652129 0.5995413
v 0.4799598 0.0003656832 0.1939507
v 0.6966845 0.0009059991 -0.02976325
v 0.3237523 0.0003647077 0.02264396
v 0.5779863 0.0004604693 -0.1622465
v 0.2047444 0.0003754056 -0.1678953
v 0.4681832 0.0007900224 -0.3234431
v -0.07430955 -6.143678E-05 -0.006502204
v 0.06822979 0.000268499 0.2084716
v 0.2620012 -0.0001776706 0.4189384
v 0.9880034 0.03284292 0.2887392
v 0.7992394 0.03284238 0.1648476
v 0.7992393 0.04912822 0.1648477
v 0.9880034 0.04912875 0.2887392
v 0.6422967 0.04953512 0.02637859
v 0.6422673 0.03324905 0.02640902
v 0.5140294 0.04920067 -0.1157341
v 0.5140234 0.03291482 -0.1157297
v 0.3982888 0.04944514 -0.2830197
v 0.3982602 0.03315916 -0.2830029
v 0.7036591 0.04912876 0.7812918
v 0.459231 0.04912949 0.5995413
v 0.5078739 0.04912931 0.5373526
v 0.7440661 0.04912876 0.7112713
v 0.3165684 0.04872308 0.3626114
v 0.2620896 0.04858726 0.4188472
v 0.1322215 0.04905688 0.1619339
v 0.06824798 0.04903279 0.2084586
v -0.004244289 0.04881278 -0.04702592
v -0.07422401 0.04870323 -0.006552296
v -0.07430955 -6.143678E-05 -0.006502204
v -0.07422401 0.04870323 -0.006552296
v 0.06824798 0.04903279 0.2084586
v 0.06822979 0.000268499 0.2084716
v 0.2620012 -0.0001776706 0.4189384
v 0.2620896 0.04858726 0.4188472
v 0.4592311 0.0003652129 0.5995413
v 0.459231 0.04912949 0.5995413
v 0.7036591 0.0003644895 0.7812918
v 0.7036591 0.04912876 0.7812918
v 0.7440661 0.03284292 0.7112713
v 0.7440661 0.04912876 0.7112713
v 0.5078739 0.04912931 0.5373526
v 0.507874 0.03284346 0.5373526
v 0.3165389 0.03243702 0.3626419
v 0.3165684 0.04872308 0.3626114
v 0.1322155 0.03277103 0.1619383
v 0.1322215 0.04905688 0.1619339
v -0.004272857 0.03252681 -0.04700918
v -0.004244289 0.04881278 -0.04702592
v 0.4682687 0.0495547 -0.3234932
v 0.3982888 0.04944514 -0.2830197
v 0.3189457 0.04952429 -0.4634495
v 0.3917887 0.0496567 -0.4934837
v 0.3479545 0.04996992 -0.6681118
v 0.2725183 0.04975929 -0.6478242
v 0.3278278 0.04957483 -0.8348691
v 0.2493283 0.04946326 -0.8264143
v 0.324789 0.04912876 -1.000033
v 0.2439459 0.04912876 -1.000016
v 0.324789 0.04912876 -1.000033
v 0.2439459 0.03284292 -1.000016
v 0.3247892 0.0003644895 -1.000033
v -7.629394E-08 0.03284302 -0.9999672
v -7.629394E-08 0.0003644752 -0.9999672
v 0.2439459 0.04912876 -1.000016
v -0.3247899 0 -0.9999891
v -0.2439463 0.03284292 -1.000006
v -0.324789 0.04912877 -0.9999891
v -0.2439461 0.04912875 -1.000006
v 0.3247892 0.0003644895 -1.000033
v 0.3277251 0.000810115 -0.8348581
v 0.3278278 0.04957483 -0.8348691
v 0.324789 0.04912876 -1.000033
v 0.3479545 0.04996992 -0.6681118
v 0.347764 0.001204046 -0.6680606
v 0.3917887 0.0496567 -0.4934837
v 0.3916751 0.0008918119 -0.4934369
v 0.4682687 0.0495547 -0.3234932
v 0.4681832 0.0007900224 -0.3234431
v 0.2439459 0.03284292 -1.000016
v 0.249294 0.03317726 -0.8264107
v 0.01355863 0.03284222 -0.8010205
v -7.629394E-08 0.03284302 -0.9999672
v -0.2439463 0.03284292 -1.000006
v -0.2210492 0.03250877 -0.7757517
v 0.04673686 0.03284269 -0.5871031
v 0.2724547 0.03347291 -0.6478071
v -0.1786274 0.03221345 -0.5264943
v 0.1017032 0.03284339 -0.3738772
v 0.3189078 0.03323823 -0.4634339
v -0.1159088 0.0324478 -0.2841526
v 0.2048014 0.03285412 -0.1679287
v 0.3982602 0.03315916 -0.2830029
v -0.004272857 0.03252681 -0.04700918
v 0.4681832 0.0007900224 -0.3234431
v 0.3916751 0.0008918119 -0.4934369
v 0.1016275 0.00036453 -0.3738461
v 0.2047444 0.0003754056 -0.1678953
v -0.07430955 -6.143678E-05 -0.006502204
v -0.1888213 -0.000163443 -0.2540897
v 0.04661002 0.0003631786 -0.5870691
v 0.347764 0.001204046 -0.6680606
v 0.01349018 0.000363479 -0.8010131
v 0.3277251 0.000810115 -0.8348581
v -7.629394E-08 0.0003644752 -0.9999672
v 0.3247892 0.0003644895 -1.000033
v -0.3247899 0 -0.9999891
v -0.2996511 -8.156456E-05 -0.7672859
v -0.2541865 -0.0004766523 -0.5061736
v 0.3982602 0.03315916 -0.2830029
v 0.3189078 0.03323823 -0.4634339
v 0.3189457 0.04952429 -0.4634495
v 0.3982888 0.04944514 -0.2830197
v 0.2725183 0.04975929 -0.6478242
v 0.2724547 0.03347291 -0.6478071
v 0.2493283 0.04946326 -0.8264143
v 0.249294 0.03317726 -0.8264107
v 0.2439459 0.04912876 -1.000016
v 0.2439459 0.03284292 -1.000016
v -0.07422401 0.04870323 -0.006552296
v -0.1887074 0.04860144 -0.2541367
v -0.1158709 0.04873385 -0.2841682
v -0.004244289 0.04881278 -0.04702592
v -0.1785637 0.04849982 -0.5265114
v -0.2539955 0.04828921 -0.506225
v -0.2210149 0.04879475 -0.7757555
v -0.2995476 0.04868313 -0.767297
v -0.2439461 0.04912875 -1.000006
v -0.324789 0.04912877 -0.9999891
v -0.3247899 0 -0.9999891
v -0.324789 0.04912877 -0.9999891
v -0.2995476 0.04868313 -0.767297
v -0.2996511 -8.156456E-05 -0.7672859
v -0.2541865 -0.0004766523 -0.5061736
v -0.2539955 0.04828921 -0.506225
v -0.1888213 -0.000163443 -0.2540897
v -0.1887074 0.04860144 -0.2541367
v -0.07430955 -6.143678E-05 -0.006502204
v -0.07422401 0.04870323 -0.006552296
v -0.004272857 0.03252681 -0.04700918
v -0.004244289 0.04881278 -0.04702592
v -0.1158709 0.04873385 -0.2841682
v -0.1159088 0.0324478 -0.2841526
v -0.1786274 0.03221345 -0.5264943
v -0.1785637 0.04849982 -0.5265114
v -0.2210492 0.03250877 -0.7757517
v -0.2210149 0.04879475 -0.7757555
v -0.2439463 0.03284292 -1.000006
v -0.2439461 0.04912875 -1.000006
vt 0.9907227 0.4523926
vt 0.9580078 0.3984375
vt 0.9418945 0.4523926
vt 0.9907227 0.2375488
vt 0.9580078 0.2375488
vt 0.9418945 0.3984375
vt 0.9580078 0.07647705
vt 0.9907227 0.02261353
vt 0.9418945 0.02261353
vt 0.9418945 0.07647705
vt 0.5273438 1
vt 0.4729004 1
vt 0.4729004 0.7270508
vt 0.5273438 0.7260742
vt 0.5273438 0.4804688
vt 0.4729004 0.482666
vt 0.5273438 0.2485352
vt 0.4729004 0.2474365
vt 0.5273438 0
vt 0.4729004 0
vt 0.5766602 0
vt 0.5766602 0.2485352
vt 0.5273438 0.2485352
vt 0.5273438 0
vt 0.5273438 0.4804688
vt 0.5766602 0.4804688
vt 0.5273438 0.7260742
vt 0.5766602 0.7260742
vt 0.5273438 1
vt 0.5766602 1
vt 0.4543457 0
vt 0.4543457 0.2474365
vt 0.293457 0.244751
vt 0.293457 0
vt 0.1323242 0
vt 0.1323242 0.2423096
vt 0.293457 0.4885254
vt 0.4543457 0.482666
vt 0.1323242 0.4934082
vt 0.293457 0.7294922
vt 0.4543457 0.7270508
vt 0.1323242 0.7314453
vt 0.293457 1
vt 0.4543457 1
vt 0.1323242 1
vt 0.5766602 1
vt 0.5766602 0.7260742
vt 0.7539063 0.7294922
vt 0.7539063 1
vt 0.9233398 1
vt 0.9233398 0.7324219
vt 0.7539063 0.4885254
vt 0.5766602 0.4804688
vt 0.7539063 0.244751
vt 0.5766602 0.2485352
vt 0.7539063 0
vt 0.5766602 0
vt 0.9233398 0
vt 0.9233398 0.2415771
vt 0.9233398 0.494873
vt 0.4543457 1
vt 0.4543457 0.7270508
vt 0.4729004 0.7270508
vt 0.4729004 1
vt 0.4729004 0.482666
vt 0.4543457 0.482666
vt 0.4729004 0.2474365
vt 0.4543457 0.2474365
vt 0.4729004 0
vt 0.4543457 0
vt 0.05822754 1
vt 0.05822754 0.7324219
vt 0.1132202 0.7314453
vt 0.1132202 1
vt 0.1132202 0.4934082
vt 0.05822754 0.494873
vt 0.1132202 0.2423096
vt 0.05822754 0.2415771
vt 0.1132202 0
vt 0.05822754 0
vt 0.009056091 0
vt 0.05822754 0
vt 0.05822754 0.2415771
vt 0.009056091 0.2415771
vt 0.009056091 0.494873
vt 0.05822754 0.494873
vt 0.009056091 0.7324219
vt 0.05822754 0.7324219
vt 0.009056091 1
vt 0.05822754 1
vt 0.1323242 1
vt 0.1132202 1
vt 0.1132202 0.7314453
vt 0.1323242 0.7314453
vt 0.1323242 0.4934082
vt 0.1132202 0.4934082
vt 0.1323242 0.2423096
vt 0.1132202 0.2423096
vt 0.1323242 0
vt 0.1132202 0
vt 0.5273438 1
vt 0.4729004 1
vt 0.4729004 0.7373047
vt 0.5273438 0.7368164
vt 0.5273438 0.4997559
vt 0.4729004 0.5
vt 0.5273438 0.2663574
vt 0.4729004 0.2644043
vt 0.5273438 0
vt 0.4729004 0
vt 0.9423828 0.9804688
vt 0.9584961 0.9267578
vt 0.9912109 0.9804688
vt 0.9584961 0.765625
vt 0.9912109 0.765625
vt 0.9423828 0.9267578
vt 0.9912109 0.5507813
vt 0.9584961 0.6044922
vt 0.9423828 0.5507813
vt 0.9423828 0.6044922
vt 0.5766602 0
vt 0.5766602 0.2663574
vt 0.5273438 0.2663574
vt 0.5273438 0
vt 0.5273438 0.4997559
vt 0.5766602 0.4997559
vt 0.5273438 0.7368164
vt 0.5766602 0.7368164
vt 0.5273438 1
vt 0.5766602 1
vt 0.4543457 0
vt 0.4543457 0.2644043
vt 0.293457 0.2595215
vt 0.293457 0
vt 0.1323242 0
vt 0.1323242 0.2553711
vt 0.293457 0.5004883
vt 0.4543457 0.5
vt 0.1323242 0.5009766
vt 0.293457 0.7382813
vt 0.4543457 0.7373047
vt 0.1323242 0.7387695
vt 0.293457 1
vt 0.4543457 1
vt 0.1323242 1
vt 0.5766602 1
vt 0.5766602 0.7368164
vt 0.7539063 0.7382813
vt 0.7539063 1
vt 0.9233398 1
vt 0.9233398 0.7392578
vt 0.7539063 0.5004883
vt 0.5766602 0.4997559
vt 0.7539063 0.2595215
vt 0.5766602 0.2663574
vt 0.7539063 0
vt 0.5766602 0
vt 0.9233398 0
vt 0.9233398 0.2539063
vt 0.9233398 0.5009766
vt 0.4543457 1
vt 0.4543457 0.7373047
vt 0.4729004 0.7373047
vt 0.4729004 1
vt 0.4729004 0.5
vt 0.4543457 0.5
vt 0.4729004 0.2644043
vt 0.4543457 0.2644043
vt 0.4729004 0
vt 0.4543457 0
vt 0.05822754 1
vt 0.05822754 0.7392578
vt 0.1132202 0.7387695
vt 0.1132202 1
vt 0.1132202 0.5009766
vt 0.05822754 0.5009766
vt 0.1132202 0.2553711
vt 0.05822754 0.2539063
vt 0.1132202 0
vt 0.05822754 0
vt 0.009056091 0
vt 0.05822754 0
vt 0.05822754 0.2539063
vt 0.009056091 0.2539063
vt 0.009056091 0.5009766
vt 0.05822754 0.5009766
vt 0.009056091 0.7392578
vt 0.05822754 0.7392578
vt 0.009056091 1
vt 0.05822754 1
vt 0.1323242 1
vt 0.1132202 1
vt 0.1132202 0.7387695
vt 0.1323242 0.7387695
vt 0.1323242 0.5009766
vt 0.1132202 0.5009766
vt 0.1323242 0.2553711
vt 0.1132202 0.2553711
vt 0.1323242 0
vt 0.1132202 0
vn 0.8660228 -0.0002621785 0.5000046
vn 0.8659606 -0.0004158154 0.5001121
vn 0.8661284 0 0.4998214
vn 0.8660486 -0.0002380644 0.4999597
vn 0.8660486 -0.0002379939 0.4999597
vn 0.8661284 0 0.4998215
vn 0.8661444 -3.800739E-05 0.4997941
vn 0.8661385 -2.385057E-05 0.4998041
vn 0.8661287 0 0.4998211
vn 0.8661287 0 0.4998212
vn -1.766314E-06 1 -2.467379E-06
vn -1.766314E-06 1 -2.46738E-06
vn 0.0005662524 0.9999993 0.00104524
vn 0.0005551148 0.9999994 0.001024696
vn -0.0004059906 0.9999998 0.0006995869
vn -0.0003844109 0.9999996 0.0007196357
vn -0.000995654 0.9999994 0.0004171552
vn -0.0009410159 0.9999995 0.0004805511
vn -0.0005345002 0.9999989 0.001366253
vn -0.0005227521 0.9999989 0.001372162
vn 0.8715875 -0.001750625 -0.4902368
vn 0.7892312 -0.001380464 -0.6140946
vn 0.7892092 -0.001380541 -0.6141229
vn 0.8716509 -0.001751386 -0.4901242
vn 0.7005048 -0.001405612 -0.7136464
vn 0.7004981 -0.001405594 -0.7136529
vn 0.5995778 -0.0006247765 -0.8003162
vn 0.5994434 -0.0006233028 -0.8004169
vn 0.5407696 4.648195E-06 -0.8411708
vn 0.5407696 4.648195E-06 -0.8411707
vn -0.0008389239 0.9999993 0.0008697991
vn -0.0008280868 0.9999995 0.0005054278
vn -0.0007106967 0.9999996 0.0005850142
vn -0.001041171 0.9999993 0.0005405861
vn -0.001211745 0.9999993 0.000270083
vn -0.0006461486 0.9999996 0.0006134344
vn -0.00066384 0.9999996 0.0006683366
vn -0.0005645602 0.9999996 0.0006788181
vn -0.0007596419 0.9999995 0.0006440106
vn -0.0002838451 1 0.0002894651
vn 5.627295E-05 0.9999999 0.0005841749
vn -0.0005502494 0.9999999 4.597367E-05
vn 6.931827E-07 1 -8.858427E-07
vn -2.939814E-07 1 -1.550627E-06
vn 1.461359E-06 1 -3.685309E-07
vn -0.0009581054 -0.9999995 4.480369E-05
vn -0.0006824454 -0.9999995 -0.0006620532
vn 6.459517E-05 -1 -0.0002753653
vn -0.0004101821 -1 1.927176E-05
vn -1.75591E-06 -1 2.400724E-07
vn 0.000637879 -0.9999999 3.22479E-05
vn 0.0006635864 -0.9999996 -0.0006696535
vn 0.0005279378 -0.9999996 -0.0006837572
vn 0.0007079426 -0.9999996 -0.0005884873
vn 0.0008657932 -0.9999995 -0.0004858997
vn 0.001044133 -0.9999993 -0.000537873
vn 0.0007661464 -0.9999993 -0.0009883351
vn 0.001267873 -0.9999992 -0.0001797117
vn 0.0006247999 -0.9999996 -0.0006207335
vn 0.0007887615 -0.9999995 -0.0006380631
vn -0.5487035 -3.319677E-06 0.836017
vn -0.6044588 0.0006248062 0.7966362
vn -0.6045289 0.0006256137 0.7965829
vn -0.5487036 -3.319678E-06 0.836017
vn -0.7012951 0.001408835 0.7128696
vn -0.7012886 0.001408817 0.7128761
vn -0.7851953 0.001381958 0.6192467
vn -0.7852101 0.001381907 0.6192278
vn -0.8721204 0.00175708 0.4892882
vn -0.8720702 0.001756526 0.4893777
vn 2.462488E-06 1 2.564104E-07
vn -0.0008841265 0.9999996 -0.0002487372
vn -0.0009153161 0.9999995 -0.0002574968
vn 2.462488E-06 1 2.564104E-07
vn -0.0008493917 0.9999994 0.0006428281
vn -0.0008688404 0.9999994 0.0006216721
vn -0.0005326049 0.9999996 0.0006930727
vn -0.0005647502 0.9999996 0.0006445217
vn -0.001424262 0.999999 -6.036319E-05
vn -0.001422208 0.999999 -6.837771E-05
vn -0.8741628 0.001778555 0.4856297
vn -0.8741258 0.00177804 0.4856963
vn -0.7844778 0.001397604 0.6201553
vn -0.7844703 0.001397626 0.6201648
vn -0.7071859 0.001419226 0.7070262
vn -0.7071784 0.001419198 0.7070339
vn -0.6343946 0.0006092812 0.7730092
vn -0.6343439 0.0006084456 0.7730508
vn -0.5966951 0 0.802468
vn -0.5966951 0 0.802468
vn 0.592939 2.555426E-06 -0.8052474
vn 0.592939 2.555426E-06 -0.8052474
vn 0.6319814 -0.0006090662 -0.7749833
vn 0.632022 -0.0006097141 -0.7749503
vn 0.7068838 -0.001417695 -0.7073284
vn 0.7068785 -0.001417676 -0.7073336
vn 0.7872941 -0.001395907 -0.6165761
vn 0.787301 -0.001395888 -0.6165673
vn 0.8739388 -0.001773886 -0.4860328
vn 0.8739131 -0.001773495 -0.4860789
vn -0.0005345002 0.9999989 0.001366253
vn -0.0005227521 0.9999989 0.001372162
vn -0.001400862 0.999998 0.001461576
vn -0.00141861 0.9999979 0.001495313
vn -0.002039267 0.999998 8.780403E-05
vn -0.00200215 0.999998 0.0002665655
vn -0.001599913 0.9999968 -0.001997233
vn -0.001632755 0.9999968 -0.001985142
vn -0.0008216357 0.9999971 -0.002283772
vn -0.0008216358 0.9999971 -0.002283771
vn -0.0002066885 0 -1
vn -0.0002011479 7.297304E-06 -1
vn -0.0002032095 4.581619E-06 -1
vn -4.674856E-05 -0.0001898686 -1
vn -4.669365E-05 -0.0001899389 -1
vn -0.0002086122 0 -1
vn -1.750257E-05 -0.0002329223 -1
vn 9.308768E-05 -0.0003696338 -1
vn -0.000205924 0 -1
vn -0.0002039771 0 -1
vn 0.999836 -0.001053153 -0.01808069
vn 0.9975973 -0.002067245 -0.06924868
vn 0.9975864 -0.002070373 -0.06940667
vn 0.999836 -0.001053153 -0.01808069
vn 0.9828975 -0.003175292 -0.1841261
vn 0.9828972 -0.003175294 -0.1841273
vn 0.9440908 -0.002771528 -0.3296741
vn 0.944043 -0.002770709 -0.3298107
vn 0.8716509 -0.001751386 -0.4901242
vn 0.8715875 -0.001750625 -0.4902368
vn -0.0007437479 0.9999994 -0.0008575622
vn -0.00146024 0.9999988 -0.0006495863
vn -0.001381943 0.999999 0.0002047397
vn -0.0006931562 0.9999998 8.577177E-05
vn -0.0006522949 0.9999994 0.0008476608
vn -0.001296586 0.9999988 0.0008994722
vn -0.002076759 0.9999977 0.0004540399
vn -0.002063913 0.9999979 0.0002970964
vn -0.002108136 0.9999977 0.0004974031
vn -0.001757237 0.9999983 0.0005655067
vn -0.001635119 0.9999982 0.000943362
vn -0.00184159 0.9999983 0.0003003799
vn -0.001041171 0.9999993 0.0005405861
vn -0.0008389239 0.9999993 0.0008697991
vn -0.001211745 0.9999993 0.000270083
vn 0.0007661464 -0.9999993 -0.0009883351
vn 0.001584055 -0.9999982 -0.001070472
vn 0.001759679 -0.9999983 -0.0005557953
vn 0.001044133 -0.9999993 -0.000537873
vn 0.001267873 -0.9999992 -0.0001797117
vn 0.001875189 -0.9999982 -0.0002094492
vn 0.00207518 -0.9999977 -0.0004627179
vn 0.002058707 -0.9999979 -0.000247976
vn 0.001546677 -0.9999988 -1.339954E-06
vn 0.001488136 -0.9999985 0.0009568217
vn 0.001038801 -0.9999994 0.0003464785
vn 0.0007619297 -0.999999 0.001186705
vn 0.001252945 -0.9999992 -0.0003033908
vn 0.001572537 -0.9999986 -0.0007318209
vn 0.002115406 -0.9999976 -0.0005176706
vn -0.8720702 0.001756526 0.4893777
vn -0.9453572 0.002769539 0.3260248
vn -0.9453909 0.002770158 0.3259269
vn -0.8721204 0.00175708 0.4892882
vn -0.9820957 0.003173844 0.1883561
vn -0.9820943 0.003173857 0.1883632
vn -0.9967264 0.002080946 0.08082104
vn -0.9967352 0.002078735 0.08071336
vn -0.9995223 0.001055142 0.03088808
vn -0.9995223 0.001055142 0.03088809
vn -0.001422208 0.999999 -6.837771E-05
vn -0.00196825 0.9999981 -3.673851E-05
vn -0.0019961 0.9999981 -6.045488E-05
vn -0.001424262 0.999999 -6.036319E-05
vn -0.002113468 0.9999976 0.0006391167
vn -0.002135664 0.9999976 0.000570619
vn -0.001235068 0.9999979 0.0017099
vn -0.00121218 0.9999979 0.001712092
vn -0.0006061549 0.9999983 0.001770113
vn -0.0006061548 0.9999983 0.001770113
vn -0.994191 0.001071919 0.1076247
vn -0.994191 0.00107192 0.1076247
vn -0.9899159 0.002138264 0.1416402
vn -0.9899087 0.002139841 0.1416904
vn -0.9774554 0.003182604 0.211118
vn -0.9774591 0.003182561 0.2111006
vn -0.9409324 0.002775564 0.3385832
vn -0.9409064 0.002775134 0.3386551
vn -0.8741628 0.001778555 0.4856297
vn -0.8741258 0.00177804 0.4856963
vn 0.8739388 -0.001773886 -0.4860328
vn 0.8739131 -0.001773495 -0.4860789
vn 0.9397937 -0.002770818 -0.3417311
vn 0.9398144 -0.002771144 -0.341674
vn 0.9778767 -0.003173927 -0.209158
vn 0.9778804 -0.003173886 -0.2091409
vn 0.9906034 -0.002129504 -0.1367487
vn 0.9906109 -0.002127884 -0.1366953
vn 0.9948195 -0.001067361 -0.1016526
vn 0.9948195 -0.00106736 -0.1016526
g m_mapBallooncurve120_01_0
f 3/3/3 2/2/2 1/1/1
f 4/4/4 1/1/1 2/2/2
f 5/5/5 4/4/4 2/2/2
f 6/6/6 2/2/2 3/3/3
f 4/4/4 5/5/5 7/7/7
f 8/8/8 4/4/4 7/7/7
f 7/7/7 9/9/9 8/8/8
f 7/7/7 10/10/10 9/9/9
f 13/13/13 12/12/12 11/11/11
f 14/14/14 13/13/13 11/11/11
f 14/14/14 15/15/15 13/13/13
f 15/15/15 16/16/16 13/13/13
f 15/15/15 17/17/17 16/16/16
f 17/17/17 18/18/18 16/16/16
f 17/17/17 19/19/19 18/18/18
f 19/19/19 20/20/20 18/18/18
f 23/23/23 22/22/22 21/21/21
f 24/24/24 23/23/23 21/21/21
f 23/23/23 25/25/25 22/22/22
f 25/25/25 26/26/26 22/22/22
f 25/25/25 27/27/27 26/26/26
f 27/27/27 28/28/28 26/26/26
f 27/27/27 29/29/29 28/28/28
f 29/29/29 30/30/30 28/28/28
f 33/33/33 32/32/32 31/31/31
f 34/34/34 33/33/33 31/31/31
f 33/33/33 34/34/34 35/35/35
f 36/36/36 33/33/33 35/35/35
f 33/33/33 37/37/37 32/32/32
f 37/37/37 38/38/38 32/32/32
f 39/39/39 37/37/37 33/33/33
f 36/36/36 39/39/39 33/33/33
f 37/37/37 40/40/40 38/38/38
f 40/40/40 41/41/41 38/38/38
f 42/42/42 40/40/40 37/37/37
f 39/39/39 42/42/42 37/37/37
f 40/40/40 43/43/43 41/41/41
f 43/43/43 44/44/44 41/41/41
f 45/45/45 43/43/43 40/40/40
f 42/42/42 45/45/45 40/40/40
f 48/48/48 47/47/47 46/46/46
f 49/49/49 48/48/48 46/46/46
f 48/48/48 49/49/49 50/50/50
f 51/51/51 48/48/48 50/50/50
f 48/48/48 52/52/52 47/47/47
f 52/52/52 53/53/53 47/47/47
f 52/52/52 54/54/54 53/53/53
f 54/54/54 55/55/55 53/53/53
f 54/54/54 56/56/56 55/55/55
f 56/56/56 57/57/57 55/55/55
f 58/58/58 56/56/56 54/54/54
f 59/59/59 58/58/58 54/54/54
f 59/59/59 54/54/54 52/52/52
f 60/60/60 59/59/59 52/52/52
f 60/60/60 52/52/52 48/48/48
f 51/51/51 60/60/60 48/48/48
f 63/63/63 62/62/62 61/61/61
f 64/64/64 63/63/63 61/61/61
f 63/63/63 65/65/65 62/62/62
f 65/65/65 66/66/66 62/62/62
f 65/65/65 67/67/67 66/66/66
f 67/67/67 68/68/68 66/66/66
f 67/67/67 69/69/69 68/68/68
f 69/69/69 70/70/70 68/68/68
f 73/73/73 72/72/72 71/71/71
f 74/74/74 73/73/73 71/71/71
f 73/73/73 75/75/75 72/72/72
f 75/75/75 76/76/76 72/72/72
f 75/75/75 77/77/77 76/76/76
f 77/77/77 78/78/78 76/76/76
f 77/77/77 79/79/79 78/78/78
f 79/79/79 80/80/80 78/78/78
f 83/83/83 82/82/82 81/81/81
f 84/84/84 83/83/83 81/81/81
f 84/84/84 85/85/85 83/83/83
f 85/85/85 86/86/86 83/83/83
f 85/85/85 87/87/87 86/86/86
f 87/87/87 88/88/88 86/86/86
f 87/87/87 89/89/89 88/88/88
f 89/89/89 90/90/90 88/88/88
f 93/93/93 92/92/92 91/91/91
f 94/94/94 93/93/93 91/91/91
f 94/94/94 95/95/95 93/93/93
f 95/95/95 96/96/96 93/93/93
f 95/95/95 97/97/97 96/96/96
f 97/97/97 98/98/98 96/96/96
f 97/97/97 99/99/99 98/98/98
f 99/99/99 100/100/100 98/98/98
f 103/103/103 102/102/102 101/101/101
f 104/104/104 103/103/103 101/101/101
f 104/104/104 105/105/105 103/103/103
f 105/105/105 106/106/106 103/103/103
f 105/105/105 107/107/107 106/106/106
f 107/107/107 108/108/108 106/106/106
f 107/107/107 109/109/109 108/108/108
f 109/109/109 110/110/110 108/108/108
f 113/113/113 112/112/112 111/111/111
f 114/114/114 112/112/112 113/113/113
f 115/115/115 114/114/114 113/113/113
f 116/116/116 111/111/111 112/112/112
f 114/114/114 115/115/115 117/117/117
f 118/118/118 114/114/114 117/117/117
f 118/118/118 117/117/117 119/119/119
f 119/119/119 120/120/120 118/118/118
f 123/123/123 122/122/122 121/121/121
f 124/124/124 123/123/123 121/121/121
f 123/123/123 125/125/125 122/122/122
f 125/125/125 126/126/126 122/122/122
f 125/125/125 127/127/127 126/126/126
f 127/127/127 128/128/128 126/126/126
f 127/127/127 129/129/129 128/128/128
f 129/129/129 130/130/130 128/128/128
f 133/133/133 132/132/132 131/131/131
f 134/134/134 133/133/133 131/131/131
f 133/133/133 134/134/134 135/135/135
f 136/136/136 133/133/133 135/135/135
f 133/133/133 137/137/137 132/132/132
f 137/137/137 138/138/138 132/132/132
f 139/139/139 137/137/137 133/133/133
f 136/136/136 139/139/139 133/133/133
f 137/137/137 140/140/140 138/138/138
f 140/140/140 141/141/141 138/138/138
f 142/142/142 140/140/140 137/137/137
f 139/139/139 142/142/142 137/137/137
f 140/140/140 143/143/143 141/141/141
f 143/143/143 144/144/144 141/141/141
f 145/145/145 143/143/143 140/140/140
f 142/142/142 145/145/145 140/140/140
f 148/148/148 147/147/147 146/146/146
f 149/149/149 148/148/148 146/146/146
f 148/148/148 149/149/149 150/150/150
f 151/151/151 148/148/148 150/150/150
f 148/148/148 152/152/152 147/147/147
f 152/152/152 153/153/153 147/147/147
f 152/152/152 154/154/154 153/153/153
f 154/154/154 155/155/155 153/153/153
f 154/154/154 156/156/156 155/155/155
f 156/156/156 157/157/157 155/155/155
f 158/158/158 156/156/156 154/154/154
f 159/159/159 158/158/158 154/154/154
f 159/159/159 154/154/154 152/152/152
f 160/160/160 159/159/159 152/152/152
f 160/160/160 152/152/152 148/148/148
f 151/151/151 160/160/160 148/148/148
f 163/163/163 162/162/162 161/161/161
f 164/164/164 163/163/163 161/161/161
f 163/163/163 165/165/165 162/162/162
f 165/165/165 166/166/166 162/162/162
f 165/165/165 167/167/167 166/166/166
f 167/167/167 168/168/168 166/166/166
f 167/167/167 169/169/169 168/168/168
f 169/169/169 170/170/170 168/168/168
f 173/173/173 172/172/172 171/171/171
f 174/174/174 173/173/173 171/171/171
f 173/173/173 175/175/175 172/172/172
f 175/175/175 176/176/176 172/172/172
f 175/175/175 177/177/177 176/176/176
f 177/177/177 178/178/178 176/176/176
f 177/177/177 179/179/179 178/178/178
f 179/179/179 180/180/180 178/178/178
f 183/183/183 182/182/182 181/181/181
f 184/184/184 183/183/183 181/181/181
f 184/184/184 185/185/185 183/183/183
f 185/185/185 186/186/186 183/183/183
f 185/185/185 187/187/187 186/186/186
f 187/187/187 188/188/188 186/186/186
f 187/187/187 189/189/189 188/188/188
f 189/189/189 190/190/190 188/188/188
f 193/193/193 192/192/192 191/191/191
f 194/194/194 193/193/193 191/191/191
f 194/194/194 195/195/195 193/193/193
f 195/195/195 196/196/196 193/193/193
f 195/195/195 197/197/197 196/196/196
f 197/197/197 198/198/198 196/196/196
f 197/197/197 199/199/199 198/198/198
f 199/199/199 200/200/200 198/198/198
