g Map_Road
v -0.5 0.01504638 -0.08618087
v -0.08618087 0.01504638 -0.08618087
v -0.08951126 0.01504638 0.08618072
v -0.5 0.01504638 0.08618087
v -0.08618087 0.01504638 -0.08618087
v 0.08618087 0.01504638 -0.08659546
v 0.06867462 0.0150464 -0.01786896
v 0.03924728 0.0150464 0.03330627
v -0.08618087 0.01504638 -0.08618087
v -0.01637695 0.01504638 0.0779776
v -0.08951126 0.01504638 0.08618072
v -0.08618087 0.01504638 -0.08618087
v -0.08618087 0.01504638 -0.5
v 0.08618087 0.01504638 -0.5
v 0.08618087 0.01504638 -0.08659546
v -0.5 3.552714E-17 0.08618087
v -0.5 0.01504638 0.08618087
v -0.08951126 0.01504638 0.08618072
v -0.08951126 3.552714E-17 0.08618072
v -0.08618087 3.552714E-17 -0.08618087
v -0.08618087 0.01504638 -0.08618087
v -0.5 0.01504638 -0.08618087
v -0.5 3.552714E-17 -0.08618087
v 0.06867462 3.552714E-17 -0.01786896
v 0.06867462 0.0150464 -0.01786896
v 0.08618087 0.01504638 -0.08659546
v 0.08618087 3.552714E-17 -0.08659546
v 0.03924728 3.552714E-17 0.03330627
v 0.03924728 0.0150464 0.03330627
v -0.01637695 3.552714E-17 0.0779776
v -0.01637695 0.01504638 0.0779776
v -0.08951126 3.552714E-17 0.08618072
v -0.08951126 0.01504638 0.08618072
v 0.08618087 3.552714E-17 -0.08659546
v 0.08618087 0.01504638 -0.08659546
v 0.08618087 0.01504638 -0.5
v 0.08618087 3.552714E-17 -0.5
v -0.08618087 3.552714E-17 -0.5
v -0.08618087 0.01504638 -0.5
v -0.08618087 0.01504638 -0.08618087
v -0.08618087 3.552714E-17 -0.08618087
vt 0 0
vt 0 1
vt 1 1
vt 1 0
vt 0 0
vt 0 1
vt 0.477519 1
vt 1 1
vt 0 0
vt 1 0.518376
vt 1 0
vt 0 0
vt 0 1
vt 1 1
vt 1 0
vt 1 0
vt 1 0
vt 1 1
vt 1 1
vt 0 1
vt 0 1
vt 0 0
vt 0 0
vt 0.477519 1
vt 0.477519 1
vt 0 1
vt 0 1
vt 1 1
vt 1 1
vt 1 0.518376
vt 1 0.518376
vt 1 0
vt 1 0
vt 1 0
vt 1 0
vt 1 1
vt 1 1
vt 0 1
vt 0 1
vt 0 0
vt 0 0
vn 0 1 0
vn 0 1 0
vn 0 1 0
vn 0 1 0
vn 0 1 0
vn 0 1 0
vn 0 1 -1.55412E-07
vn -1.881116E-07 1 0
vn 0 1 0
vn -1.268959E-07 1 0
vn 0 1 0
vn 0 1 0
vn 0 1 0
vn 0 1 0
vn 0 1 0
vn 3.705767E-07 0 1
vn 3.705767E-07 0 1
vn 0.01695969 0 0.9998561
vn 0.01695969 0 0.9998561
vn -0.7071068 0 -0.7071068
vn -0.7071068 0 -0.7071068
vn 0 0 -1
vn 0 0 -1
vn 0.9312019 0 0.364504
vn 0.9312019 0 0.364504
vn 0.9993414 0 0.03628627
vn 0.9993414 0 0.03628627
vn 0.7479724 0 0.6637298
vn 0.7479724 0 0.6637298
vn 0.3798666 0 0.9250414
vn 0.3798665 0 0.9250413
vn 0.01695969 0 0.9998561
vn 0.01695969 0 0.9998561
vn 0.9993414 0 0.03628627
vn 0.9993414 0 0.03628627
vn 1 0 0
vn 1 0 0
vn -1 0 0
vn -1 0 0
vn -0.7071068 0 -0.7071068
vn -0.7071068 0 -0.7071068
g Map_Road_0
f 3/3/3 2/2/2 1/1/1
f 4/4/4 3/3/3 1/1/1
f 7/7/7 6/6/6 5/5/5
f 8/8/8 7/7/7 5/5/5
f 10/10/10 8/8/8 9/9/9
f 11/11/11 10/10/10 5/5/5
f 14/14/14 13/13/13 12/12/12
f 15/15/15 14/14/14 12/12/12
f 18/18/18 17/17/17 16/16/16
f 19/19/19 18/18/18 16/16/16
f 22/22/22 21/21/21 20/20/20
f 23/23/23 22/22/22 20/20/20
f 26/26/26 25/25/25 24/24/24
f 27/27/27 26/26/26 24/24/24
f 24/24/24 25/25/25 28/28/28
f 25/25/25 29/29/29 28/28/28
f 28/28/28 29/29/29 30/30/30
f 29/29/29 31/31/31 30/30/30
f 30/30/30 31/31/31 32/32/32
f 31/31/31 33/33/33 32/32/32
f 36/36/36 35/35/35 34/34/34
f 37/37/37 36/36/36 34/34/34
f 40/40/40 39/39/39 38/38/38
f 41/41/41 40/40/40 38/38/38
