g Map_Road1
v -0.08618087 0.01504639 0.5
v -0.08618087 0.01504639 0
v 0.08618087 0.01504639 0
v 0.08618087 0.01504639 0.5
v 0.08618087 -4.768371E-09 0.5
v 0.08618087 0.01504639 0.5
v 0.08618087 0.01504639 0
v 0.08618087 0 0
v -0.08618087 0 0
v -0.08618087 0.01504639 0
v -0.08618087 0.01504639 0.5
v -0.08618087 -4.768371E-09 0.5
vt 0 0
vt 0 1
vt 1 1
vt 1 0
vt 1 0
vt 1 0
vt 1 1
vt 1 1
vt 0 1
vt 0 1
vt 0 0
vt 0 0
vn 0 1 0
vn 0 1 0
vn 0 1 0
vn 0 1 0
vn 1 0 0
vn 1 0 0
vn 1 0 0
vn 1 0 0
vn -1 0 0
vn -1 0 0
vn -1 0 0
vn -1 0 0
g Map_Road1_0
f 3/3/3 2/2/2 1/1/1
f 4/4/4 3/3/3 1/1/1
f 7/7/7 6/6/6 5/5/5
f 8/8/8 7/7/7 5/5/5
f 11/11/11 10/10/10 9/9/9
f 12/12/12 11/11/11 9/9/9
