g map_tile_collider_doubleheight
v 0.5775003 -1.2 -1.000259
v 0.5775003 1.2 -1.000259
v -0.5774998 1.2 -1.000259
v -0.5774998 -1.2 -1.000259
v -0.5774998 -1.2 -1.000259
v -0.5774998 1.2 -1.000259
v -1.155 1.2 -1.721084E-07
v -1.155 -1.2 -1.721084E-07
v -1.155 -1.2 -1.721084E-07
v -1.155 1.2 -1.721084E-07
v -0.5775002 1.2 1.000259
v -0.5775002 -1.2 1.000259
v -0.5775002 -1.2 1.000259
v -0.5775002 1.2 1.000259
v 0.5774999 1.2 1.000259
v 0.5774999 -1.2 1.000259
v 0.5774999 -1.2 1.000259
v 0.5774999 1.2 1.000259
v 1.155 1.2 0
v 1.155 -1.2 0
v 1.155 -1.2 0
v 1.155 1.2 0
v 0.5775003 1.2 -1.000259
v 0.5775003 -1.2 -1.000259
v -0.5774998 -1.2 -1.000259
v 0 -1.2 0
v 0.5775003 -1.2 -1.000259
v -1.155 -1.2 -1.721084E-07
v -0.5775002 -1.2 1.000259
v 0.5774999 -1.2 1.000259
v 1.155 -1.2 0
v 0.5775003 1.2 -1.000259
v 0 1.2 0
v -0.5774998 1.2 -1.000259
v -1.155 1.2 -1.721084E-07
v -0.5775002 1.2 1.000259
v 0.5774999 1.2 1.000259
v 1.155 1.2 0
vt 0.375 0.3125
vt 0.375 0.6884398
vt 0.4166667 0.6884398
vt 0.4166667 0.3125
vt 0.4166667 0.3125
vt 0.4166667 0.6884398
vt 0.4583333 0.6884398
vt 0.4583333 0.3125
vt 0.4583333 0.3125
vt 0.4583333 0.6884398
vt 0.5 0.6884398
vt 0.5 0.3125
vt 0.5 0.3125
vt 0.5 0.6884398
vt 0.5416666 0.6884398
vt 0.5416666 0.3125
vt 0.5416666 0.3125
vt 0.5416666 0.6884398
vt 0.5833333 0.6884398
vt 0.5833333 0.3125
vt 0.5833333 0.3125
vt 0.5833333 0.6884398
vt 0.625 0.6884398
vt 0.625 0.3125
vt 0.421875 0.02093351
vt 0.5 0.15
vt 0.5781251 0.02093354
vt 0.34375 0.15625
vt 0.421875 0.2915665
vt 0.578125 0.2915665
vt 0.65625 0.15625
vt 0.578125 0.9790665
vt 0.5 0.8375
vt 0.421875 0.9790665
vt 0.34375 0.84375
vt 0.421875 0.7084335
vt 0.5781251 0.7084335
vt 0.65625 0.84375
vn 0 0 -1
vn 0 0 -1
vn 0 0 -1
vn 0 0 -1
vn -0.8660253 0 -0.5000002
vn -0.8660253 0 -0.5000002
vn -0.8660253 0 -0.5000002
vn -0.8660253 0 -0.5000002
vn -0.8660255 0 0.4999998
vn -0.8660255 0 0.4999998
vn -0.8660255 0 0.4999998
vn -0.8660255 0 0.4999998
vn 0 0 1
vn 0 0 1
vn 0 0 1
vn 0 0 1
vn 0.8660254 0 0.5
vn 0.8660254 0 0.5
vn 0.8660254 0 0.5
vn 0.8660254 0 0.5
vn 0.8660255 0 -0.4999998
vn 0.8660255 0 -0.4999998
vn 0.8660255 0 -0.4999998
vn 0.8660255 0 -0.4999998
vn 0 -1 0
vn 0 -1 0
vn 0 -1 0
vn 0 -1 0
vn 0 -1 0
vn 0 -1 0
vn 0 -1 0
vn 0 1 0
vn 0 1 0
vn 0 1 0
vn 0 1 0
vn 0 1 0
vn 0 1 0
vn 0 1 0
g map_tile_collider_doubleheight_0
f 3/3/3 2/2/2 1/1/1
f 4/4/4 3/3/3 1/1/1
f 7/7/7 6/6/6 5/5/5
f 8/8/8 7/7/7 5/5/5
f 11/11/11 10/10/10 9/9/9
f 12/12/12 11/11/11 9/9/9
f 15/15/15 14/14/14 13/13/13
f 16/16/16 15/15/15 13/13/13
f 19/19/19 18/18/18 17/17/17
f 20/20/20 19/19/19 17/17/17
f 23/23/23 22/22/22 21/21/21
f 24/24/24 23/23/23 21/21/21
f 27/27/27 26/26/26 25/25/25
f 25/25/25 26/26/26 28/28/28
f 28/28/28 26/26/26 29/29/29
f 29/29/29 26/26/26 30/30/30
f 30/30/30 26/26/26 31/31/31
f 31/31/31 26/26/26 27/27/27
f 34/34/34 33/33/33 32/32/32
f 35/35/35 33/33/33 34/34/34
f 36/36/36 33/33/33 35/35/35
f 37/37/37 33/33/33 36/36/36
f 38/38/38 33/33/33 37/37/37
f 32/32/32 33/33/33 38/38/38
