g Map_Tree_City_A
v 0.1612946 0.3875736 -0.05240783
v -5.581726E-07 0.8148211 0
v 0.1372059 0.3875736 -0.09968628
v -5.581726E-07 0.8148211 0
v 0.09968571 0.3875736 -0.1372064
v -5.581726E-07 0.8148211 0
v 0.05240789 0.3875736 -0.1612952
v -5.581726E-07 0.8148211 0
v -5.581726E-07 0.3875736 -0.1695959
v -5.581726E-07 0.8148211 0
v -0.05240778 0.3875736 -0.1612952
v -5.581726E-07 0.8148211 0
v -0.09968562 0.3875736 -0.1372058
v -5.581726E-07 0.8148211 0
v -0.1372058 0.3875736 -0.09968628
v -5.581726E-07 0.8148211 0
v -0.1612945 0.3875736 -0.05240783
v -5.581726E-07 0.8148211 0
v -0.1695959 0.3875736 0
v -5.581726E-07 0.8148211 0
v -0.1612945 0.3875736 0.05240783
v -5.581726E-07 0.8148211 0
v -0.1372058 0.3875736 0.09968567
v -5.581726E-07 0.8148211 0
v -0.09968562 0.3875736 0.1372058
v -5.581726E-07 0.8148211 0
v -0.05240778 0.3875736 0.1612945
v -5.581726E-07 0.8148211 0
v -5.581726E-07 0.3875736 0.1695953
v -5.581726E-07 0.8148211 0
v 0.05240789 0.3875736 0.1612945
v -5.581726E-07 0.8148211 0
v 0.09968571 0.3875736 0.1372058
v -5.581726E-07 0.8148211 0
v 0.1372059 0.3875736 0.09968567
v -5.581726E-07 0.8148211 0
v 0.1612946 0.3875736 0.05240783
v -5.581726E-07 0.8148211 0
v 0.1695954 0.3875736 0
v -5.581726E-07 0.8148211 0
v 0.1612946 0.3875736 -0.05240783
v 0.2033588 0.2165256 -0.06607544
v -5.581726E-07 0.5728623 0
v 0.1729877 0.2165256 -0.125683
v -5.581726E-07 0.5728623 0
v 0.125683 0.2165256 -0.1729877
v -5.581726E-07 0.5728623 0
v 0.06607488 0.2165256 -0.2033594
v -5.581726E-07 0.5728623 0
v -5.581726E-07 0.2165256 -0.2138245
v -5.581726E-07 0.5728623 0
v -0.06607538 0.2165256 -0.2033594
v -5.581726E-07 0.5728623 0
v -0.1256829 0.2165256 -0.1729877
v -5.581726E-07 0.5728623 0
v -0.1729876 0.2165256 -0.125683
v -5.581726E-07 0.5728623 0
v -0.2033587 0.2165256 -0.06607544
v -5.581726E-07 0.5728623 0
v -0.2138244 0.2165256 0
v -5.581726E-07 0.5728623 0
v -0.2033587 0.2165256 0.06607544
v -5.581726E-07 0.5728623 0
v -0.1729876 0.2165256 0.1256824
v -5.581726E-07 0.5728623 0
v -0.1256829 0.2165256 0.1729877
v -5.581726E-07 0.5728623 0
v -0.06607538 0.2165256 0.2033588
v -5.581726E-07 0.5728623 0
v -5.581726E-07 0.2165256 0.2138239
v -5.581726E-07 0.5728623 0
v 0.06607488 0.2165256 0.2033588
v -5.581726E-07 0.5728623 0
v 0.125683 0.2165256 0.1729877
v -5.581726E-07 0.5728623 0
v 0.1729877 0.2165256 0.1256824
v -5.581726E-07 0.5728623 0
v 0.2033588 0.2165256 0.06607544
v -5.581726E-07 0.5728623 0
v 0.2138239 0.2165256 0
v -5.581726E-07 0.5728623 0
v 0.2033588 0.2165256 -0.06607544
v 0.236764 0.06134786 -0.07692932
v -5.581726E-07 0.3868978 0
v 0.2014032 0.06134786 -0.1463281
v -5.581726E-07 0.3868978 0
v 0.1463288 0.06134786 -0.2014032
v -5.581726E-07 0.3868978 0
v 0.07692938 0.06134786 -0.2367639
v -5.581726E-07 0.3868978 0
v -5.581726E-07 0.06134786 -0.2489484
v -5.581726E-07 0.3868978 0
v -0.07692866 0.06134786 -0.2367639
v -5.581726E-07 0.3868978 0
v -0.1463287 0.06134786 -0.2014032
v -5.581726E-07 0.3868978 0
v -0.2014031 0.06134786 -0.1463281
v -5.581726E-07 0.3868978 0
v -0.2367638 0.06134786 -0.07692932
v -5.581726E-07 0.3868978 0
v -0.2489483 0.06134786 0
v -5.581726E-07 0.3868978 0
v -0.2367638 0.06134786 0.07692871
v -5.581726E-07 0.3868978 0
v -0.2014031 0.06134786 0.1463281
v -5.581726E-07 0.3868978 0
v -0.1463287 0.06134786 0.2014026
v -5.581726E-07 0.3868978 0
v -0.07692866 0.06134786 0.2367633
v -5.581726E-07 0.3868978 0
v -5.581726E-07 0.06134786 0.2489478
v -5.581726E-07 0.3868978 0
v 0.07692938 0.06134786 0.2367633
v -5.581726E-07 0.3868978 0
v 0.1463288 0.06134786 0.2014026
v -5.581726E-07 0.3868978 0
v 0.2014032 0.06134786 0.1463281
v -5.581726E-07 0.3868978 0
v 0.2367634 0.06134786 0.07692871
v -5.581726E-07 0.3868978 0
v 0.2489478 0.06134786 0
v -5.581726E-07 0.3868978 0
v 0.236764 0.06134786 -0.07692932
vt 0.5012974 0.5
vt 0.7512974 1
vt 0.5262974 0.5
vt 0.7512974 1
vt 0.5512974 0.5
vt 0.7512974 1
vt 0.5762974 0.5
vt 0.7512974 1
vt 0.6012974 0.5
vt 0.7512974 1
vt 0.6262974 0.5
vt 0.7512974 1
vt 0.6512974 0.5
vt 0.7512974 1
vt 0.6762974 0.5
vt 0.7512974 1
vt 0.7012975 0.5
vt 0.7512974 1
vt 0.7262974 0.5
vt 0.7512974 1
vt 0.7512974 0.5
vt 0.7512974 1
vt 0.7762974 0.5
vt 0.7512974 1
vt 0.8012974 0.5
vt 0.7512974 1
vt 0.8262973 0.5
vt 0.7512974 1
vt 0.8512973 0.5
vt 0.7512974 1
vt 0.8762973 0.5
vt 0.7512974 1
vt 0.9012973 0.5
vt 0.7512974 1
vt 0.9262972 0.5
vt 0.7512974 1
vt 0.9512972 0.5
vt 0.7512974 1
vt 0.9762972 0.5
vt 0.7512974 1
vt 1.001297 0.5
vt 0.5012974 0.2076577
vt 0.7512974 0.5923424
vt 0.5262974 0.2076577
vt 0.7512974 0.5923424
vt 0.5512974 0.2076577
vt 0.7512974 0.5923424
vt 0.5762974 0.2076577
vt 0.7512974 0.5923424
vt 0.6012974 0.2076577
vt 0.7512974 0.5923424
vt 0.6262974 0.2076577
vt 0.7512974 0.5923424
vt 0.6512974 0.2076577
vt 0.7512974 0.5923424
vt 0.6762974 0.2076577
vt 0.7512974 0.5923424
vt 0.7012975 0.2076577
vt 0.7512974 0.5923424
vt 0.7262974 0.2076577
vt 0.7512974 0.5923424
vt 0.7512974 0.2076577
vt 0.7512974 0.5923424
vt 0.7762974 0.2076577
vt 0.7512974 0.5923424
vt 0.8012974 0.2076577
vt 0.7512974 0.5923424
vt 0.8262973 0.2076577
vt 0.7512974 0.5923424
vt 0.8512973 0.2076577
vt 0.7512974 0.5923424
vt 0.8762973 0.2076577
vt 0.7512974 0.5923424
vt 0.9012973 0.2076577
vt 0.7512974 0.5923424
vt 0.9262972 0.2076577
vt 0.7512974 0.5923424
vt 0.9512972 0.2076577
vt 0.7512974 0.5923424
vt 0.9762972 0.2076577
vt 0.7512974 0.5923424
vt 1.001297 0.2076577
vt 0.5012974 0.01021615
vt 0.7512974 0.2897838
vt 0.5262974 0.01021615
vt 0.7512974 0.2897838
vt 0.5512974 0.01021615
vt 0.7512974 0.2897838
vt 0.5762974 0.01021615
vt 0.7512974 0.2897838
vt 0.6012974 0.01021615
vt 0.7512974 0.2897838
vt 0.6262974 0.01021615
vt 0.7512974 0.2897838
vt 0.6512974 0.01021615
vt 0.7512974 0.2897838
vt 0.6762974 0.01021615
vt 0.7512974 0.2897838
vt 0.7012975 0.01021615
vt 0.7512974 0.2897838
vt 0.7262974 0.01021615
vt 0.7512974 0.2897838
vt 0.7512974 0.01021615
vt 0.7512974 0.2897838
vt 0.7762974 0.01021615
vt 0.7512974 0.2897838
vt 0.8012974 0.01021615
vt 0.7512974 0.2897838
vt 0.8262973 0.01021615
vt 0.7512974 0.2897838
vt 0.8512973 0.01021615
vt 0.7512974 0.2897838
vt 0.8762973 0.01021615
vt 0.7512974 0.2897838
vt 0.9012973 0.01021615
vt 0.7512974 0.2897838
vt 0.9262972 0.01021615
vt 0.7512974 0.2897838
vt 0.9512972 0.01021615
vt 0.7512974 0.2897838
vt 0.9762972 0.01021615
vt 0.7512974 0.2897838
vt 1.001297 0.01021615
vn 0.883964 0.3689413 -0.2872107
vn -3.62317E-06 1 3.003051E-06
vn 0.7519497 0.368943 -0.5463083
vn -3.62317E-06 1 3.003051E-06
vn 0.546309 0.3689513 -0.7519451
vn -3.62317E-06 1 3.003051E-06
vn 0.287203 0.3689495 -0.883963
vn -3.62317E-06 1 3.003051E-06
vn 0 0.3689467 -0.9294505
vn -3.62317E-06 1 3.003051E-06
vn -0.2872139 0.3689452 -0.8839613
vn -3.62317E-06 1 3.003051E-06
vn -0.5463102 0.3689443 -0.7519477
vn -3.62317E-06 1 3.003051E-06
vn -0.7519472 0.3689425 -0.546312
vn -3.62317E-06 1 3.003051E-06
vn -0.8839628 0.3689407 -0.2872152
vn -3.62317E-06 1 3.003051E-06
vn -0.9294503 0.3689473 0
vn -3.62317E-06 1 3.003051E-06
vn -0.8839595 0.3689452 0.2872193
vn -3.62317E-06 1 3.003051E-06
vn -0.7519474 0.3689416 0.5463123
vn -3.62317E-06 1 3.003051E-06
vn -0.546316 0.3689426 0.7519443
vn -3.62317E-06 1 3.003051E-06
vn -0.2872141 0.3689452 0.8839612
vn -3.62317E-06 1 3.003051E-06
vn 0 0.3689432 0.929452
vn -3.62317E-06 1 3.003051E-06
vn 0.2872109 0.3689452 0.8839622
vn -3.62317E-06 1 3.003051E-06
vn 0.5463147 0.3689497 0.7519418
vn -3.62317E-06 1 3.003051E-06
vn 0.7519473 0.3689426 0.546312
vn -3.62317E-06 1 3.003051E-06
vn 0.8839615 0.368944 0.2872151
vn -3.62317E-06 1 3.003051E-06
vn 0.9294496 0.3689491 0
vn -3.62317E-06 1 3.003051E-06
vn 0.883964 0.3689413 -0.2872107
vn 0.8155044 0.5145341 -0.2649664
vn 5.109939E-07 1 -4.910987E-07
vn 0.6937088 0.5145362 -0.5040046
vn 5.109939E-07 1 -4.910987E-07
vn 0.5040004 0.514538 -0.6937106
vn 5.109939E-07 1 -4.910987E-07
vn 0.264969 0.5145384 -0.8155009
vn 5.109939E-07 1 -4.910987E-07
vn 0 0.5145364 -0.8574687
vn 5.109939E-07 1 -4.910987E-07
vn -0.2649722 0.5145338 -0.8155028
vn 5.109939E-07 1 -4.910987E-07
vn -0.5040022 0.5145367 -0.6937101
vn 5.109939E-07 1 -4.910987E-07
vn -0.6937093 0.514535 -0.504005
vn 5.109939E-07 1 -4.910987E-07
vn -0.8155051 0.514531 -0.2649701
vn 5.109939E-07 1 -4.910987E-07
vn -0.8574697 0.5145344 0
vn 5.109939E-07 1 -4.910987E-07
vn -0.8155026 0.514533 0.264974
vn 5.109939E-07 1 -4.910987E-07
vn -0.6937102 0.5145337 0.5040053
vn 5.109939E-07 1 -4.910987E-07
vn -0.504012 0.5145356 0.6937038
vn 5.109939E-07 1 -4.910987E-07
vn -0.2649655 0.5145348 0.8155044
vn 5.109939E-07 1 -4.910987E-07
vn 2.843348E-07 0.5145311 0.8574717
vn 5.109939E-07 1 -4.910987E-07
vn 0.264964 0.5145315 0.8155068
vn 5.109939E-07 1 -4.910987E-07
vn 0.5040117 0.5145317 0.693707
vn 5.109939E-07 1 -4.910987E-07
vn 0.6937109 0.5145323 0.5040056
vn 5.109939E-07 1 -4.910987E-07
vn 0.8155019 0.5145362 0.2649701
vn 5.109939E-07 1 -4.910987E-07
vn 0.8574681 0.5145371 0
vn 5.109939E-07 1 -4.910987E-07
vn 0.8155044 0.5145341 -0.2649664
vn 0.7554805 0.607449 -0.2454688
vn -1.020324E-06 1 -1.000702E-07
vn 0.6426553 0.6074464 -0.4669078
vn -1.020324E-06 1 -1.000702E-07
vn 0.4669145 0.6074471 -0.6426499
vn -1.020324E-06 1 -1.000702E-07
vn 0.2454622 0.6074452 -0.7554857
vn -1.020324E-06 1 -1.000702E-07
vn 5.698715E-07 0.6074499 -0.794358
vn -1.020324E-06 1 -1.000702E-07
vn -0.245462 0.6074539 -0.7554787
vn -1.020324E-06 1 -1.000702E-07
vn -0.4669125 0.6074479 -0.6426506
vn -1.020324E-06 1 -1.000702E-07
vn -0.642659 0.6074407 -0.4669104
vn -1.020324E-06 1 -1.000702E-07
vn -0.755482 0.6074456 -0.2454726
vn -1.020324E-06 1 -1.000702E-07
vn -0.7943591 0.6074484 0
vn -1.020324E-06 1 -1.000702E-07
vn -0.7554829 0.6074445 0.2454727
vn -1.020324E-06 1 -1.000702E-07
vn -0.6426506 0.6074474 0.466913
vn -1.020324E-06 1 -1.000702E-07
vn -0.4669086 0.6074476 0.6426536
vn -1.020324E-06 1 -1.000702E-07
vn -0.2454749 0.6074463 0.7554808
vn -1.020324E-06 1 -1.000702E-07
vn 1.024951E-07 0.6074481 0.7943594
vn -1.020324E-06 1 -1.000702E-07
vn 0.2454732 0.6074473 0.7554805
vn -1.020324E-06 1 -1.000702E-07
vn 0.4669098 0.6074488 0.6426516
vn -1.020324E-06 1 -1.000702E-07
vn 0.6426514 0.6074483 0.4669108
vn -1.020324E-06 1 -1.000702E-07
vn 0.7554826 0.6074461 0.2454696
vn -1.020324E-06 1 -1.000702E-07
vn 0.794359 0.6074484 2.865767E-06
vn -1.020324E-06 1 -1.000702E-07
vn 0.7554805 0.607449 -0.2454688
g Map_Tree_City_A_0
f 3/3/3 2/2/2 1/1/1
f 5/5/5 4/4/4 3/3/3
f 7/7/7 6/6/6 5/5/5
f 9/9/9 8/8/8 7/7/7
f 11/11/11 10/10/10 9/9/9
f 13/13/13 12/12/12 11/11/11
f 15/15/15 14/14/14 13/13/13
f 17/17/17 16/16/16 15/15/15
f 19/19/19 18/18/18 17/17/17
f 21/21/21 20/20/20 19/19/19
f 23/23/23 22/22/22 21/21/21
f 25/25/25 24/24/24 23/23/23
f 27/27/27 26/26/26 25/25/25
f 29/29/29 28/28/28 27/27/27
f 31/31/31 30/30/30 29/29/29
f 33/33/33 32/32/32 31/31/31
f 35/35/35 34/34/34 33/33/33
f 37/37/37 36/36/36 35/35/35
f 39/39/39 38/38/38 37/37/37
f 41/41/41 40/40/40 39/39/39
f 44/44/44 43/43/43 42/42/42
f 46/46/46 45/45/45 44/44/44
f 48/48/48 47/47/47 46/46/46
f 50/50/50 49/49/49 48/48/48
f 52/52/52 51/51/51 50/50/50
f 54/54/54 53/53/53 52/52/52
f 56/56/56 55/55/55 54/54/54
f 58/58/58 57/57/57 56/56/56
f 60/60/60 59/59/59 58/58/58
f 62/62/62 61/61/61 60/60/60
f 64/64/64 63/63/63 62/62/62
f 66/66/66 65/65/65 64/64/64
f 68/68/68 67/67/67 66/66/66
f 70/70/70 69/69/69 68/68/68
f 72/72/72 71/71/71 70/70/70
f 74/74/74 73/73/73 72/72/72
f 76/76/76 75/75/75 74/74/74
f 78/78/78 77/77/77 76/76/76
f 80/80/80 79/79/79 78/78/78
f 82/82/82 81/81/81 80/80/80
f 85/85/85 84/84/84 83/83/83
f 87/87/87 86/86/86 85/85/85
f 89/89/89 88/88/88 87/87/87
f 91/91/91 90/90/90 89/89/89
f 93/93/93 92/92/92 91/91/91
f 95/95/95 94/94/94 93/93/93
f 97/97/97 96/96/96 95/95/95
f 99/99/99 98/98/98 97/97/97
f 101/101/101 100/100/100 99/99/99
f 103/103/103 102/102/102 101/101/101
f 105/105/105 104/104/104 103/103/103
f 107/107/107 106/106/106 105/105/105
f 109/109/109 108/108/108 107/107/107
f 111/111/111 110/110/110 109/109/109
f 113/113/113 112/112/112 111/111/111
f 115/115/115 114/114/114 113/113/113
f 117/117/117 116/116/116 115/115/115
f 119/119/119 118/118/118 117/117/117
f 121/121/121 120/120/120 119/119/119
f 123/123/123 122/122/122 121/121/121
