g SM_MAP_lilypad_01
v 0.6380114 0.09473235 -0.2010553
v 0.6679218 0.09579874 -0.004869146
v 0.5716341 0.1364771 0.001474238
v 0.5430743 0.1367503 -0.1657781
v 0.5500402 0.09413695 -0.3946638
v 0.4720822 0.1370391 -0.3290613
v 0.3930601 0.09402557 -0.5442553
v 0.3434473 0.1373278 -0.4591268
v 0.2040962 0.09366867 -0.6365271
v 0.1824933 0.1375827 -0.5416117
v 0.005013698 0.09313383 -0.6686198
v 0.0109557 0.1377961 -0.5717081
v -0.1898447 0.09261199 -0.6417213
v -0.159637 0.1379657 -0.5514811
v -0.3984904 0.09090146 -0.5683628
v -0.3444463 0.137971 -0.4908689
v -0.5680159 0.09008597 -0.433693
v -0.4902548 0.138024 -0.3753067
v -0.6669288 0.09059286 -0.2394523
v -0.5746345 0.1380617 -0.2098702
v -0.6835569 0.0918161 -0.01037292
v -0.5888262 0.1380658 -0.01200595
v -0.6272595 0.09294102 0.2202803
v -0.5362141 0.1380319 0.1912636
v -0.5255264 0.09346737 0.398859
v -0.445049 0.1378963 0.3458478
v -0.373983 0.09386362 0.539261
v -0.3123394 0.1376987 0.4657114
v -0.1775775 0.09407382 0.6326713
v -0.1385389 0.1374672 0.5424609
v 0.05433079 0.09402408 0.6627296
v 0.063554 0.1371902 0.5636871
v 0.2904605 0.09319869 0.6217884
v 0.2647842 0.1368516 0.5257665
v 0.4908697 0.09379362 0.5086424
v 0.432654 0.1363967 0.428809
v 0.5691257 0.0896587 0.4382667
v 0.497738 0.1341047 0.3722126
v 0.2052446 0.09007679 0.3076257
v 0.3836296 0.1118094 0.2498747
v 0.4574386 0.06169224 0.2101798
v 0.5695862 0.08118698 0.3317032
v 0.3274717 0.05006495 0.1011078
v 0.282097 0.09996726 0.1717797
v 0.1372364 0.07815121 0.0502818
v -0.05831661 0.0860856 -0.03024554
v 0.1004 0.09001771 0.3256686
v -0.009246212 0.09006006 0.3158313
v -0.1076099 0.09009298 0.2781613
v -0.1833635 0.09013661 0.2129736
v -0.2310138 0.09017424 0.1301307
v -0.2513834 0.09021218 0.03043778
v -0.2393563 0.09024519 -0.07039905
v -0.1946447 0.0902522 -0.1593584
v -0.1214182 0.09022254 -0.2283272
v -0.03096183 0.09018276 -0.2706612
v 0.06217163 0.09013845 -0.2866337
v 0.1577648 0.09008472 -0.2731398
v 0.2431885 0.09003878 -0.2286191
v 0.3108164 0.08997645 -0.1602722
v 0.3556437 0.0899817 -0.07941455
v 0.3189847 0.1001314 0.05986691
v 0.4265257 0.1115625 0.08465055
v 0.4515364 0.06287385 0.166057
v 0.604861 0.0837773 0.1595977
v 0.5796246 0.1343605 0.08097874
v 0.6744693 0.09169852 0.08798543
v 0.5695862 0.08118698 0.3317032
v 0.5776995 -0.07055017 0.3403544
v 0.5709797 -0.06897371 0.4508451
v 0.5691257 0.0896587 0.4382667
v 0.6744693 0.09169852 0.08798543
v 0.6910784 -0.0639993 0.09160542
v 0.6219441 -0.06518421 0.1681246
v 0.604861 0.0837773 0.1595977
v 0.4515364 0.06287385 0.166057
v 0.3038554 0.05243948 0.143452
v 0.3189847 0.1001314 0.05986691
v -0.05831661 0.0860856 -0.03024554
v 0.3038554 0.05243948 0.143452
v 0.1372364 0.07815121 0.0502818
v -0.05831661 0.0860856 -0.03024554
v 0.6584484 -0.06377891 -0.2048889
v 0.6380114 0.09473235 -0.2010553
v 0.5500402 0.09413695 -0.3946638
v 0.5679615 -0.06424144 -0.4031597
v 0.3930601 0.09402557 -0.5442553
v 0.4061988 -0.06529329 -0.5555118
v 0.2040962 0.09366867 -0.6365271
v 0.2138457 -0.06622874 -0.6496716
v 0.6887061 -0.06408662 -0.005407132
v 0.6679218 0.09579874 -0.004869146
v 0.6744693 0.09169852 0.08798543
v 0.6910784 -0.0639993 0.09160542
v 0.2138457 -0.06622874 -0.6496716
v 0.2040962 0.09366867 -0.6365271
v 0.005013698 0.09313383 -0.6686198
v 0.009250453 -0.06751704 -0.6817578
v -0.1898447 0.09261199 -0.6417213
v -0.1902481 -0.06970733 -0.6508474
v -0.3984904 0.09090146 -0.5683628
v -0.3974637 -0.07248496 -0.570828
v -0.5680159 0.09008597 -0.433693
v -0.5676495 -0.07418586 -0.4307278
v -0.6669288 0.09059286 -0.2394523
v -0.668883 -0.07326019 -0.2323927
v -0.668883 -0.07326019 -0.2323927
v -0.6669288 0.09059286 -0.2394523
v -0.6835569 0.0918161 -0.01037292
v -0.6886767 -0.07065131 -0.00210124
v -0.6272595 0.09294102 0.2202803
v -0.636774 -0.06813606 0.2276296
v -0.5255264 0.09346737 0.398859
v -0.5358155 -0.0663821 0.4100476
v -0.373983 0.09386362 0.539261
v -0.3818093 -0.06518962 0.5546176
v -0.3818093 -0.06518962 0.5546176
v -0.373983 0.09386362 0.539261
v -0.1775775 0.09407382 0.6326713
v -0.1837616 -0.06445317 0.6503331
v 0.05433079 0.09402408 0.6627296
v 0.04957833 -0.06469481 0.6816878
v 0.2904605 0.09319869 0.6217884
v 0.2881906 -0.06604607 0.6387355
v 0.4908697 0.09379362 0.5086424
v 0.4914636 -0.06732191 0.524954
v 0.5691257 0.0896587 0.4382667
v 0.5709797 -0.06897371 0.4508451
v 0.5695862 0.08118698 0.3317032
v 0.4574386 0.06169224 0.2101798
v 0.4653723 -0.07026234 0.2095915
v 0.5776995 -0.07055017 0.3403544
v 0.3274717 0.05006495 0.1011078
v 0.333874 -0.07000799 0.09698895
v 0.1372364 0.07815121 0.0502818
v 0.1917667 -0.06918057 0.07408711
v 0.1917667 -0.06918057 0.07408711
v 0.1372364 0.07815121 0.0502818
v 0.3038554 0.05243948 0.143452
v 0.3050712 -0.06613347 0.1570091
v 0.4515364 0.06287385 0.166057
v 0.4598514 -0.06650946 0.1774125
v 0.604861 0.0837773 0.1595977
v 0.6219441 -0.06518421 0.1681246
vt 0.3483887 0.2093506
vt 0.338623 0.2270508
vt 0.34375 0.2288818
vt 0.3527832 0.2133789
vt 0.3642578 0.1942139
vt 0.3671875 0.199707
vt 0.3852539 0.1854248
vt 0.3862305 0.1911621
vt 0.4082031 0.1833496
vt 0.4072266 0.1889648
vt 0.4296875 0.1878662
vt 0.4272461 0.1928711
vt 0.4492188 0.1981201
vt 0.4455566 0.2022705
vt 0.4680176 0.2145996
vt 0.4631348 0.2171631
vt 0.4794922 0.2347412
vt 0.4741211 0.236084
vt 0.4829102 0.2573242
vt 0.4772949 0.2575684
vt 0.4772949 0.2817383
vt 0.4719238 0.2802734
vt 0.4633789 0.3046875
vt 0.4587402 0.3015137
vt 0.4467773 0.3198242
vt 0.4431152 0.3156738
vt 0.4265137 0.3295898
vt 0.4240723 0.324707
vt 0.4033203 0.3334961
vt 0.4023438 0.3276367
vt 0.378418 0.3295898
vt 0.3793945 0.3237305
vt 0.355957 0.3186035
vt 0.3588867 0.3134766
vt 0.340332 0.3015137
vt 0.3449707 0.298584
vt 0.3374023 0.295166
vt 0.3410645 0.2929688
vt 0.3713379 0.2895508
vt 0.3525391 0.2814941
vt 0.3476563 0.2797852
vt 0.3381348 0.2905273
vt 0.3642578 0.2692871
vt 0.3654785 0.2731934
vt 0.3874512 0.2595215
vt 0.411377 0.2578125
vt 0.3830566 0.2954102
vt 0.395752 0.2978516
vt 0.407959 0.2966309
vt 0.4189453 0.291748
vt 0.4272461 0.2836914
vt 0.4331055 0.2727051
vt 0.4353027 0.2602539
vt 0.4335938 0.2480469
vt 0.4282227 0.2368164
vt 0.4199219 0.2280273
vt 0.4104004 0.2220459
vt 0.3991699 0.2193604
vt 0.3876953 0.220459
vt 0.3774414 0.2250977
vt 0.3686523 0.2324219
vt 0.3649902 0.2484131
vt 0.3530273 0.243042
vt 0.3483887 0.2456055
vt 0.3381348 0.2371826
vt 0.3408203 0.234375
vt 0.3369141 0.2330322
vt 0.3381348 0.2905273
vt 0.3259277 0.2871094
vt 0.3249512 0.2961426
vt 0.3374023 0.295166
vt 0.3369141 0.2330322
vt 0.3249512 0.2362061
vt 0.3276367 0.2431641
vt 0.3381348 0.2371826
vt 0.3483887 0.2456055
vt 0.3640137 0.2521973
vt 0.3649902 0.2484131
vt 0.411377 0.2578125
vt 0.3640137 0.2521973
vt 0.3874512 0.2595215
vt 0.411377 0.2578125
vt 0.3356934 0.2019043
vt 0.3483887 0.2093506
vt 0.3642578 0.1942139
vt 0.3552246 0.1831055
vt 0.3852539 0.1854248
vt 0.3806152 0.171875
vt 0.4082031 0.1833496
vt 0.4074707 0.1689453
vt 0.3249512 0.2259521
vt 0.338623 0.2270508
vt 0.3369141 0.2330322
vt 0.3249512 0.2362061
vt 0.4074707 0.1689453
vt 0.4082031 0.1833496
vt 0.4296875 0.1878662
vt 0.4335938 0.1739502
vt 0.4492188 0.1981201
vt 0.4570313 0.1859131
vt 0.4680176 0.2145996
vt 0.4787598 0.2053223
vt 0.4794922 0.2347412
vt 0.4936523 0.2299805
vt 0.4829102 0.2573242
vt 0.4970703 0.2590332
vt 0.4970703 0.2590332
vt 0.4829102 0.2573242
vt 0.4772949 0.2817383
vt 0.4899902 0.2883301
vt 0.4633789 0.3046875
vt 0.4741211 0.3144531
vt 0.4467773 0.3198242
vt 0.4541016 0.3322754
vt 0.4265137 0.3295898
vt 0.4299316 0.3435059
vt 0.4299316 0.3435059
vt 0.4265137 0.3295898
vt 0.4033203 0.3334961
vt 0.402832 0.347168
vt 0.378418 0.3295898
vt 0.3740234 0.3432617
vt 0.355957 0.3186035
vt 0.347168 0.329834
vt 0.340332 0.3015137
vt 0.3276367 0.307373
vt 0.3374023 0.295166
vt 0.3249512 0.2961426
vt 0.3381348 0.2905273
vt 0.3476563 0.2797852
vt 0.3400879 0.2719727
vt 0.3259277 0.2871094
vt 0.3642578 0.2692871
vt 0.3603516 0.2624512
vt 0.3874512 0.2595215
vt 0.3762207 0.2600098
vt 0.3762207 0.2600098
vt 0.3874512 0.2595215
vt 0.3640137 0.2521973
vt 0.3608398 0.2595215
vt 0.3483887 0.2456055
vt 0.3417969 0.2541504
vt 0.3381348 0.2371826
vt 0.3276367 0.2431641
vn 0.935535 0.2564825 -0.2428807
vn 0.961836 0.2690554 -0.049805
vn -0.109957 0.9933028 -0.03548265
vn -0.08940917 0.9951822 0.04022887
vn 0.7790608 0.2507118 -0.5746371
vn -0.08695842 0.9938132 0.06909206
vn 0.5524707 0.2417747 -0.7976973
vn -0.06350085 0.9933108 0.09644292
vn 0.3198882 0.2302495 -0.9190521
vn -0.02932445 0.9937152 0.1080283
vn 0.04181691 0.2130457 -0.976147
vn 0.002957339 0.9944791 0.1048931
vn -0.2227744 0.1876551 -0.9566384
vn 0.02920946 0.9946367 0.09921977
vn -0.4773097 0.1539564 -0.8651432
vn 0.04956074 0.996354 0.06944479
vn -0.7680025 0.1405058 -0.6248443
vn 0.06322943 0.9969168 0.04646604
vn -0.9521913 0.1495098 -0.2664184
vn 0.07575805 0.9967887 0.02594346
vn -0.9822483 0.1722893 0.07419278
vn 0.08805446 0.9961156 0.0003293391
vn -0.9182434 0.1965249 0.3438126
vn 0.09447266 0.9950737 -0.03005354
vn -0.7701903 0.2108035 0.6019706
vn 0.08575257 0.9946201 -0.05811417
vn -0.5599258 0.2194802 0.7989439
vn 0.06923945 0.9938502 -0.08641462
vn -0.3201755 0.2234734 0.9206233
vn 0.0427054 0.9931787 -0.1085003
vn -0.0470822 0.2207731 0.9741882
vn 0.01003859 0.992914 -0.1184101
vn 0.2746616 0.2091925 0.9385092
vn -0.01139421 0.9959707 -0.0889525
vn 0.484195 0.2128253 0.8486817
vn -0.08113904 0.995196 -0.05478416
vn 0.8198961 0.178144 0.5440911
vn -0.01200225 0.9853711 -0.1699993
vn -0.08409297 0.9861953 -0.142643
vn -0.03823035 0.9725556 -0.229508
vn 0.7450356 0.2116785 -0.6325458
vn 0.8820894 0.2036124 -0.4248061
vn 0.6424755 0.3176902 -0.6973509
vn 0.01093714 0.9931805 -0.1160729
vn 0.5122787 0.538941 -0.6686651
vn -0.003870933 0.9999851 -0.003855205
vn 0.007121705 0.9796389 -0.2006412
vn 0.06232848 0.9792718 -0.1927222
vn 0.1127919 0.9792866 -0.1681539
vn 0.1535747 0.9802698 -0.1244423
vn 0.1795038 0.9811904 -0.07101952
vn 0.1842359 0.9827453 -0.01639491
vn 0.168102 0.9847161 0.0455631
vn 0.1334954 0.9852668 0.1069033
vn 0.08657082 0.9836886 0.1576777
vn 0.04052889 0.9817104 0.1860169
vn -0.01262792 0.9803987 0.196619
vn -0.07183163 0.9789315 0.1911369
vn -0.1255452 0.9783759 0.164374
vn -0.1722009 0.9784346 0.114073
vn -0.1762427 0.9843413 0.003241625
vn -0.1041186 0.9917117 0.07527976
vn -0.2392696 0.9650906 0.1065368
vn -0.1099239 0.1828353 0.976979
vn 0.2143087 0.1967868 0.9567376
vn -0.1586626 0.9836114 0.08564359
vn 0.9214721 0.2159423 0.3228903
vn 0.8820894 0.2036124 -0.4248061
vn 0.9141905 0.01920598 -0.4048296
vn 0.8468646 0.005990013 0.5317748
vn 0.8198961 0.178144 0.5440911
vn 0.9214721 0.2159423 0.3228903
vn 0.941391 0.04693259 0.3340366
vn 0.2773661 -0.003132347 0.9607592
vn 0.2143087 0.1967868 0.9567376
vn -0.1099239 0.1828353 0.976979
vn -0.2589007 0.2799164 0.9244552
vn -0.1041186 0.9917117 0.07527976
vn -0.003870933 0.9999851 -0.003855205
vn -0.2589007 0.2799164 0.9244552
vn -0.2691435 0.5060686 0.8194244
vn -0.003870933 0.9999851 -0.003855205
vn 0.9666112 0.05219353 -0.2508754
vn 0.935535 0.2564825 -0.2428807
vn 0.7790608 0.2507118 -0.5746371
vn 0.8051946 0.0463019 -0.5912004
vn 0.5524707 0.2417747 -0.7976973
vn 0.5712636 0.03736551 -0.8199158
vn 0.3198882 0.2302495 -0.9190521
vn 0.3331195 0.02791404 -0.9424714
vn 0.9971852 0.05329007 -0.05274348
vn 0.961836 0.2690554 -0.049805
vn 0.9214721 0.2159423 0.3228903
vn 0.941391 0.04693259 0.3340366
vn 0.3331195 0.02791404 -0.9424714
vn 0.3198882 0.2302495 -0.9190521
vn 0.04181691 0.2130457 -0.976147
vn 0.04699789 0.01151305 -0.9988286
vn -0.2227744 0.1876551 -0.9566384
vn -0.2262271 -0.01625375 -0.9739391
vn -0.4773097 0.1539564 -0.8651432
vn -0.4800274 -0.04639142 -0.876026
vn -0.7680025 0.1405058 -0.6248443
vn -0.7753798 -0.06490078 -0.6281512
vn -0.9521913 0.1495098 -0.2664184
vn -0.9639645 -0.05558378 -0.2601593
vn -0.9639645 -0.05558378 -0.2601593
vn -0.9521913 0.1495098 -0.2664184
vn -0.9822483 0.1722893 0.07419278
vn -0.9961113 -0.02984079 0.08289579
vn -0.9182434 0.1965249 0.3438126
vn -0.9355153 -0.005968648 0.3532357
vn -0.7701903 0.2108035 0.6019706
vn -0.7861197 0.01218244 0.6179542
vn -0.5599258 0.2194802 0.7989439
vn -0.571677 0.02210528 0.820181
vn -0.571677 0.02210528 0.820181
vn -0.5599258 0.2194802 0.7989439
vn -0.3201755 0.2234734 0.9206233
vn -0.3272045 0.02492524 0.9446248
vn -0.0470822 0.2207731 0.9741882
vn -0.04802168 0.01953354 0.9986553
vn 0.2746616 0.2091925 0.9385092
vn 0.2813146 0.008523145 0.9595777
vn 0.484195 0.2128253 0.8486817
vn 0.494883 0.00216487 0.8689569
vn 0.8198961 0.178144 0.5440911
vn 0.8468646 0.005990013 0.5317748
vn 0.8820894 0.2036124 -0.4248061
vn 0.7450356 0.2116785 -0.6325458
vn 0.7814173 0.02220092 -0.6236137
vn 0.9141905 0.01920598 -0.4048296
vn 0.6424755 0.3176902 -0.6973509
vn 0.6976396 0.01619982 -0.7162656
vn 0.5122787 0.538941 -0.6686651
vn 0.636407 0.009111158 -0.7712997
vn -0.2826075 -0.009822265 0.9591853
vn -0.2691435 0.5060686 0.8194244
vn -0.2589007 0.2799164 0.9244552
vn -0.2429847 -0.01742059 0.9698737
vn -0.1099239 0.1828353 0.976979
vn -0.07647032 -0.02262309 0.9968151
vn 0.2143087 0.1967868 0.9567376
vn 0.2773661 -0.003132347 0.9607592
g SM_MAP_lilypad_01_0
f 3/3/3 2/2/2 1/1/1
f 4/4/4 3/3/3 1/1/1
f 1/1/1 5/5/5 4/4/4
f 5/5/5 6/6/6 4/4/4
f 5/5/5 7/7/7 6/6/6
f 7/7/7 8/8/8 6/6/6
f 7/7/7 9/9/9 8/8/8
f 9/9/9 10/10/10 8/8/8
f 9/9/9 11/11/11 10/10/10
f 11/11/11 12/12/12 10/10/10
f 11/11/11 13/13/13 12/12/12
f 13/13/13 14/14/14 12/12/12
f 13/13/13 15/15/15 14/14/14
f 15/15/15 16/16/16 14/14/14
f 15/15/15 17/17/17 16/16/16
f 17/17/17 18/18/18 16/16/16
f 17/17/17 19/19/19 18/18/18
f 19/19/19 20/20/20 18/18/18
f 19/19/19 21/21/21 20/20/20
f 21/21/21 22/22/22 20/20/20
f 21/21/21 23/23/23 22/22/22
f 23/23/23 24/24/24 22/22/22
f 23/23/23 25/25/25 24/24/24
f 25/25/25 26/26/26 24/24/24
f 25/25/25 27/27/27 26/26/26
f 27/27/27 28/28/28 26/26/26
f 27/27/27 29/29/29 28/28/28
f 29/29/29 30/30/30 28/28/28
f 29/29/29 31/31/31 30/30/30
f 31/31/31 32/32/32 30/30/30
f 31/31/31 33/33/33 32/32/32
f 33/33/33 34/34/34 32/32/32
f 33/33/33 35/35/35 34/34/34
f 35/35/35 36/36/36 34/34/34
f 35/35/35 37/37/37 36/36/36
f 37/37/37 38/38/38 36/36/36
f 34/34/34 36/36/36 39/39/39
f 36/36/36 38/38/38 40/40/40
f 39/39/39 36/36/36 40/40/40
f 41/41/41 40/40/40 38/38/38
f 42/42/42 41/41/41 38/38/38
f 37/37/37 42/42/42 38/38/38
f 41/41/41 43/43/43 40/40/40
f 43/43/43 44/44/44 40/40/40
f 40/40/40 44/44/44 39/39/39
f 43/43/43 45/45/45 44/44/44
f 45/45/45 46/46/46 44/44/44
f 44/44/44 46/46/46 39/39/39
f 39/39/39 46/46/46 47/47/47
f 47/47/47 32/32/32 34/34/34
f 39/39/39 47/47/47 34/34/34
f 47/47/47 46/46/46 48/48/48
f 48/48/48 46/46/46 49/49/49
f 49/49/49 46/46/46 50/50/50
f 50/50/50 46/46/46 51/51/51
f 51/51/51 46/46/46 52/52/52
f 52/52/52 46/46/46 53/53/53
f 53/53/53 46/46/46 54/54/54
f 54/54/54 46/46/46 55/55/55
f 55/55/55 46/46/46 56/56/56
f 56/56/56 46/46/46 57/57/57
f 57/57/57 46/46/46 58/58/58
f 58/58/58 46/46/46 59/59/59
f 59/59/59 46/46/46 60/60/60
f 60/60/60 46/46/46 61/61/61
f 61/61/61 46/46/46 62/62/62
f 61/61/61 62/62/62 63/63/63
f 63/63/63 62/62/62 64/64/64
f 63/63/63 64/64/64 65/65/65
f 66/66/66 63/63/63 65/65/65
f 63/63/63 66/66/66 3/3/3
f 61/61/61 63/63/63 3/3/3
f 2/2/2 3/3/3 66/66/66
f 67/67/67 2/2/2 66/66/66
f 67/67/67 66/66/66 65/65/65
f 61/61/61 3/3/3 4/4/4
f 61/61/61 4/4/4 6/6/6
f 60/60/60 61/61/61 6/6/6
f 60/60/60 6/6/6 8/8/8
f 59/59/59 60/60/60 8/8/8
f 59/59/59 8/8/8 10/10/10
f 58/58/58 59/59/59 10/10/10
f 58/58/58 10/10/10 12/12/12
f 57/57/57 58/58/58 12/12/12
f 57/57/57 12/12/12 14/14/14
f 56/56/56 57/57/57 14/14/14
f 56/56/56 14/14/14 16/16/16
f 55/55/55 56/56/56 16/16/16
f 55/55/55 16/16/16 18/18/18
f 54/54/54 55/55/55 18/18/18
f 54/54/54 18/18/18 20/20/20
f 53/53/53 54/54/54 20/20/20
f 53/53/53 20/20/20 22/22/22
f 52/52/52 53/53/53 22/22/22
f 52/52/52 22/22/22 24/24/24
f 51/51/51 52/52/52 24/24/24
f 51/51/51 24/24/24 26/26/26
f 50/50/50 51/51/51 26/26/26
f 50/50/50 26/26/26 28/28/28
f 49/49/49 50/50/50 28/28/28
f 49/49/49 28/28/28 30/30/30
f 48/48/48 49/49/49 30/30/30
f 48/48/48 30/30/30 32/32/32
f 47/47/47 48/48/48 32/32/32
f 70/70/70 69/69/69 68/68/68
f 71/71/71 70/70/70 68/68/68
f 74/74/74 73/73/73 72/72/72
f 75/75/75 74/74/74 72/72/72
f 78/78/78 77/77/77 76/76/76
f 78/78/78 79/79/79 77/77/77
f 82/82/82 81/81/81 80/80/80
f 85/85/85 84/84/84 83/83/83
f 86/86/86 85/85/85 83/83/83
f 87/87/87 85/85/85 86/86/86
f 88/88/88 87/87/87 86/86/86
f 89/89/89 87/87/87 88/88/88
f 90/90/90 89/89/89 88/88/88
f 83/83/83 84/84/84 91/91/91
f 84/84/84 92/92/92 91/91/91
f 91/91/91 92/92/92 93/93/93
f 94/94/94 91/91/91 93/93/93
f 97/97/97 96/96/96 95/95/95
f 98/98/98 97/97/97 95/95/95
f 99/99/99 97/97/97 98/98/98
f 100/100/100 99/99/99 98/98/98
f 101/101/101 99/99/99 100/100/100
f 102/102/102 101/101/101 100/100/100
f 103/103/103 101/101/101 102/102/102
f 104/104/104 103/103/103 102/102/102
f 105/105/105 103/103/103 104/104/104
f 106/106/106 105/105/105 104/104/104
f 109/109/109 108/108/108 107/107/107
f 110/110/110 109/109/109 107/107/107
f 111/111/111 109/109/109 110/110/110
f 112/112/112 111/111/111 110/110/110
f 113/113/113 111/111/111 112/112/112
f 114/114/114 113/113/113 112/112/112
f 115/115/115 113/113/113 114/114/114
f 116/116/116 115/115/115 114/114/114
f 119/119/119 118/118/118 117/117/117
f 120/120/120 119/119/119 117/117/117
f 121/121/121 119/119/119 120/120/120
f 122/122/122 121/121/121 120/120/120
f 123/123/123 121/121/121 122/122/122
f 124/124/124 123/123/123 122/122/122
f 125/125/125 123/123/123 124/124/124
f 126/126/126 125/125/125 124/124/124
f 127/127/127 125/125/125 126/126/126
f 128/128/128 127/127/127 126/126/126
f 131/131/131 130/130/130 129/129/129
f 132/132/132 131/131/131 129/129/129
f 133/133/133 130/130/130 131/131/131
f 134/134/134 133/133/133 131/131/131
f 135/135/135 133/133/133 134/134/134
f 136/136/136 135/135/135 134/134/134
f 139/139/139 138/138/138 137/137/137
f 140/140/140 139/139/139 137/137/137
f 141/141/141 139/139/139 140/140/140
f 142/142/142 141/141/141 140/140/140
f 143/143/143 141/141/141 142/142/142
f 144/144/144 143/143/143 142/142/142
