g cone1
v 0.22066014 0.096451506 -0.14744022
v 0.054755285 0.6026769 -0.036586307
v 0.036586493 0.6026769 -0.05475517
v 0.14744037 0.096451506 -0.22066002
v 0.01284748 0.6026769 -0.06458797
v 0.05177433 0.096451506 -0.2602863
v -0.012847404 0.6026769 -0.06458828
v -0.051773947 0.096451506 -0.26028633
v -0.036586113 0.6026769 -0.054755017
v -0.1474403 0.096451506 -0.22066016
v -0.054755364 0.6026769 -0.036586154
v -0.22066005 0.096451506 -0.1474405
v -0.06458828 0.6026769 -0.012847407
v -0.2602863 0.096451506 -0.05177429
v -0.064587824 0.6026769 0.012847306
v -0.26028636 0.096451506 0.051774062
v -0.05475521 0.6026769 0.036586262
v -0.22066014 0.096451506 0.14744028
v -0.03658642 0.6026769 0.054755133
v -0.1474403 0.096451506 0.22066003
v -0.012847404 0.6026769 0.06458797
v -0.051774252 0.096451506 0.26028633
v -0.051774252 0.096451506 0.26028633
v -0.012847404 0.6026769 0.06458797
v 0.01284748 0.6026769 0.06458824
v 0.051774178 0.096451506 0.26028633
v 0.036586188 0.6026769 0.054755
v 0.14744037 0.096451506 0.22066009
v 0.054755438 0.6026769 0.03658613
v 0.22065997 0.096451506 0.14744036
v 0.06458835 0.6026769 0.012847402
v 0.2602863 0.096451506 0.05177416
v 0.0645879 0.6026769 -0.012847369
v 0.26028645 0.096451506 -0.051774178
v 0.054755285 0.6026769 -0.036586307
v 3.8146972E-08 0.6026769 -2.3841857E-09
v 0.036586493 0.6026769 -0.05475517
v 0.01284748 0.6026769 -0.06458797
v -0.012847404 0.6026769 -0.06458828
v -0.036586113 0.6026769 -0.054755017
v -0.054755364 0.6026769 -0.036586154
v -0.06458828 0.6026769 -0.012847407
v -0.064587824 0.6026769 0.012847306
v -0.05475521 0.6026769 0.036586262
v -0.03658642 0.6026769 0.054755133
v -0.012847404 0.6026769 0.06458797
v 0.01284748 0.6026769 0.06458824
v 0.036586188 0.6026769 0.054755
v 0.054755438 0.6026769 0.03658613
v 0.06458835 0.6026769 0.012847402
v 0.0645879 0.6026769 -0.012847369
v 0.14744037 0.096451506 -0.22066002
v 0.22568928 0.079937726 -0.36809555
v 0.36809558 0.079937726 -0.22568893
v 0.22066014 0.096451506 -0.14744022
v 0.05177433 0.096451506 -0.2602863
v 0.079251744 0.079937726 -0.36809614
v -0.051773947 0.096451506 -0.26028633
v -0.079251215 0.079937726 -0.36809614
v -0.1474403 0.096451506 -0.22066016
v -0.22568889 0.079937726 -0.36809555
v -0.22066005 0.096451506 -0.1474405
v -0.36809552 0.079937726 -0.22568928
v -0.2602863 0.096451506 -0.05177429
v -0.3680961 0.079937726 -0.07925167
v -0.26028636 0.096451506 0.051774062
v -0.3680962 0.079937726 0.07925133
v -0.22066014 0.096451506 0.14744028
v -0.36809552 0.079937726 0.22568896
v -0.1474403 0.096451506 0.22066003
v -0.2256892 0.079937726 0.36809552
v -0.051774252 0.096451506 0.26028633
v -0.07925151 0.079937726 0.3680961
v 0.051774178 0.096451506 0.26028633
v 0.07925144 0.079937726 0.36809614
v 0.14744037 0.096451506 0.22066009
v 0.22568911 0.079937726 0.36809552
v 0.22065997 0.096451506 0.14744036
v 0.36809558 0.079937726 0.22568911
v 0.2602863 0.096451506 0.05177416
v 0.3680962 0.079937726 0.079251476
v 0.26028645 0.096451506 -0.051774178
v 0.3680962 0.079937726 -0.07925151
v 0.22568928 0.079937726 -0.36809555
v 0.22568928 0.00026312 -0.36809555
v 0.36809558 0.00026312 -0.22568893
v 0.36809558 0.079937726 -0.22568893
v 0.079251744 0.079937726 -0.36809614
v 0.22568928 0.00026312 -0.36809555
v 0.079251744 0.00026312 -0.36809614
v -0.079251215 0.079937726 -0.36809614
v -0.079251215 0.00026312 -0.36809614
v -0.22568889 0.079937726 -0.36809555
v -0.22568889 0.00026312 -0.36809555
v -0.36809552 0.079937726 -0.22568928
v -0.22568889 0.00026312 -0.36809555
v -0.36809552 0.00026312 -0.22568928
v -0.3680961 0.079937726 -0.07925167
v -0.36809552 0.00026312 -0.22568928
v -0.3680961 0.00026312 -0.07925167
v -0.3680962 0.079937726 0.07925133
v -0.3680962 0.00026312 0.07925133
v -0.36809552 0.079937726 0.22568896
v -0.36809552 0.00026312 0.22568896
v -0.2256892 0.079937726 0.36809552
v -0.36809552 0.00026312 0.22568896
v -0.2256892 0.00026312 0.36809552
v -0.07925151 0.079937726 0.3680961
v -0.2256892 0.00026312 0.36809552
v -0.07925151 0.00026312 0.3680961
v 0.07925144 0.079937726 0.36809614
v 0.07925144 0.00026312 0.36809614
v 0.22568911 0.079937726 0.36809552
v 0.22568911 0.00026312 0.36809552
v 0.36809558 0.079937726 0.22568911
v 0.22568911 0.00026312 0.36809552
v 0.36809558 0.00026312 0.22568911
v 0.3680962 0.079937726 0.079251476
v 0.36809558 0.00026312 0.22568911
v 0.3680962 0.00026312 0.079251476
v 0.3680962 0.079937726 -0.07925151
v 0.3680962 0.00026312 -0.07925151
v 0.36809558 0.00026312 -0.22568893
vt 0.6172142 0.62630975
vt 0.9828613 0.60687816
vt 0.9828614 0.56268466
vt 0.6172169 0.56209826
vt 0.9828615 0.5183344
vt 0.6172173 0.4977333
vt 0.9828614 0.47398418
vt 0.61721545 0.4334407
vt 0.9828613 0.42978957
vt 0.6172112 0.3694462
vt 0.98286104 0.38590518
vt 0.61720467 0.30597237
vt 0.98286074 0.34248555
vt 0.6171959 0.2432428
vt 0.9828603 0.2996808
vt 0.61718476 0.18147779
vt 0.9828599 0.2576433
vt 0.6171715 0.12089434
vt 0.98285925 0.21651998
vt 0.617156 0.061702996
vt 0.9828586 0.17645326
vt 0.6171385 0.004111916
vt 0.61714995 0.9958881
vt 0.9828586 0.86021334
vt 0.98285925 0.82014775
vt 0.6171662 0.9372503
vt 0.9828599 0.7790234
vt 0.6171803 0.8771436
vt 0.9828603 0.7369859
vt 0.61719215 0.8157798
vt 0.98286074 0.6941823
vt 0.6172018 0.7533725
vt 0.98286104 0.65076256
vt 0.6172091 0.6901431
vt 0.21189281 0.31752527
vt 0.29999894 0.3
vt 0.21189281 0.2824747
vt 0.22530755 0.25009215
vt 0.25009102 0.22530651
vt 0.2824736 0.2118938
vt 0.31752634 0.2118938
vt 0.34990892 0.22530651
vt 0.3746924 0.25009215
vt 0.38810715 0.2824747
vt 0.38810715 0.31752527
vt 0.3746924 0.349908
vt 0.34990892 0.37469345
vt 0.31752425 0.38810617
vt 0.2824736 0.38810617
vt 0.25009102 0.37469345
vt 0.22530755 0.349908
vt 0.150721 0.393444
vt 0.052857 0.445344
vt 0.147065 0.539519
vt 0.199034 0.441706
vt 0.124608 0.330366
vt 0.05266 0.34856
vt 0.12459 0.262115
vt 0.052665 0.243841
vt 0.150641 0.199022
vt 0.052832 0.147033
vt 0.198917 0.150716
vt 0.147031 0.05284
vt 0.262005 0.124601
vt 0.243818 0.052657
vt 0.330238 0.12458
vt 0.348523 0.052685
vt 0.393289 0.150649
vt 0.445298 0.052889
vt 0.441567 0.198932
vt 0.539416 0.147083
vt 0.46767 0.261987
vt 0.539583 0.243824
vt 0.467649 0.330205
vt 0.539549 0.348479
vt 0.441604 0.393278
vt 0.53939 0.445222
vt 0.393373 0.441595
vt 0.445293 0.539413
vt 0.33034 0.46774
vt 0.348544 0.539649
vt 0.262123 0.467766
vt 0.243857 0.53967
vt 0.052857 0.445344
vt 0.0156 0.482614
vt 0.109807 0.576789
vt 0.147065 0.539519
vt 0.05266 0.34856
vt 0.00017 0.445444
vt 0 0.348608
vt 0.052665 0.243841
vt 0 0.243798
vt 0.052832 0.147033
vt 0.000141 0.146956
vt 0.147031 0.05284
vt 0.015568 0.109766
vt 0.109767 0.015573
vt 0.243818 0.052657
vt 0.14694 0.00015
vt 0.243782 0
vt 0.348523 0.052685
vt 0.348583 3.1E-05
vt 0.445298 0.052889
vt 0.445397 0.000213
vt 0.539416 0.147083
vt 0.482563 0.015654
vt 0.576681 0.109848
vt 0.539583 0.243824
vt 0.592077 0.147001
vt 0.592212 0.243791
vt 0.539549 0.348479
vt 0.592181 0.348528
vt 0.53939 0.445222
vt 0.592042 0.445298
vt 0.445293 0.539413
vt 0.576654 0.482449
vt 0.482557 0.57664
vt 0.348544 0.539649
vt 0.445416 0.592085
vt 0.348609 0.592293
vt 0.243857 0.53967
vt 0.243826 0.592323
vt 0.146999 0.592201
vn 0.7735496 0.3666998 -0.51686776
vn 0.7735496 0.3666998 -0.51686776
vn 0.5168689 0.3666999 -0.7735488
vn 0.5168689 0.3666999 -0.7735488
vn 0.18150099 0.36669996 -0.9124629
vn 0.18150099 0.36669996 -0.9124629
vn -0.1815 0.36669996 -0.91246307
vn -0.18149905 0.3667001 -0.9124633
vn -0.51686907 0.36669904 -0.77354914
vn -0.51686907 0.36669904 -0.77354914
vn -0.773548 0.3667 -0.5168701
vn -0.773548 0.3667 -0.5168701
vn -0.9124638 0.36669886 -0.18149896
vn -0.9124638 0.36669886 -0.18149896
vn -0.91246307 0.36669996 0.1815
vn -0.91246307 0.36669996 0.1815
vn -0.7735496 0.3666998 0.51686776
vn -0.7735496 0.3666998 0.51686776
vn -0.5168689 0.3666999 0.7735488
vn -0.5168689 0.3666999 0.7735488
vn -0.18150099 0.36669996 0.9124629
vn -0.18150099 0.36669996 0.9124629
vn -0.18150099 0.36669996 0.9124629
vn -0.18150099 0.36669996 0.9124629
vn 0.18150008 0.36669913 0.91246337
vn 0.18150008 0.36669913 0.91246337
vn 0.5168698 0.36669883 0.77354866
vn 0.5168698 0.36669883 0.77354866
vn 0.77354825 0.36669913 0.51687014
vn 0.77354825 0.36669913 0.51687014
vn 0.9124638 0.36669886 0.18149896
vn 0.9124636 0.36669883 0.18149991
vn 0.9124633 0.36669916 -0.18150106
vn 0.91246337 0.36669913 -0.18150008
vn -0 1 0
vn -0 1 0
vn -0 1 1E-06
vn -0 1 1E-06
vn -0 1 0
vn -0 1 0
vn -0 1 0
vn -0 1 0
vn -0 1 0
vn -0 1 0
vn -0 1 -1E-06
vn -0 1 -1E-06
vn -0 1 0
vn -0 1 0
vn -0 1 0
vn -0 1 0
vn -0 1 0
vn 0.052775014 0.9944733 -0.09076202
vn 0.053354975 0.99448955 -0.090242945
vn 0.090242945 0.99448955 -0.053354975
vn 0.09076202 0.9944733 -0.052775014
vn 0.010294999 0.99077094 -0.135155
vn 0.012107004 0.9911374 -0.13228804
vn -0.010293999 0.99077094 -0.135155
vn -0.012107004 0.9911374 -0.13228804
vn -0.052775014 0.9944733 -0.09076202
vn -0.053354975 0.99448955 -0.090242945
vn -0.09076202 0.9944733 -0.052775014
vn -0.090242945 0.99448955 -0.053354975
vn -0.135155 0.99077094 -0.010294999
vn -0.13228804 0.9911374 -0.012107004
vn -0.135155 0.99077094 0.010293999
vn -0.13228804 0.9911374 0.012107004
vn -0.09076202 0.9944733 0.052775014
vn -0.090242945 0.99448955 0.053354975
vn -0.052775014 0.9944733 0.09076202
vn -0.053354975 0.99448955 0.090242945
vn -0.010294999 0.99077094 0.135155
vn -0.012107004 0.9911374 0.13228804
vn 0.010293999 0.99077094 0.135155
vn 0.012107004 0.9911374 0.13228804
vn 0.052775014 0.9944733 0.09076202
vn 0.053354986 0.99448967 0.09024197
vn 0.09076202 0.9944733 0.052775014
vn 0.09024197 0.99448967 0.053354986
vn 0.135155 0.99077094 0.010294999
vn 0.13228804 0.9911374 0.012107004
vn 0.135155 0.99077094 -0.010293999
vn 0.13228804 0.9911374 -0.012107004
vn 0.4422018 0 -0.89691556
vn 0.4422018 0 -0.89691556
vn 0.89691603 0 -0.44220105
vn 0.89691603 0 -0.44220105
vn 2E-06 0 -1
vn 0.4422018 0 -0.89691556
vn 2E-06 0 -1
vn -2E-06 0 -1
vn -2E-06 0 -1
vn -0.44220024 0 -0.8969164
vn -0.44220024 0 -0.8969164
vn -0.89691556 0 -0.4422018
vn -0.44220024 0 -0.8969164
vn -0.89691556 0 -0.4422018
vn -1 0 -2E-06
vn -0.89691556 0 -0.4422018
vn -1 0 -2E-06
vn -1 0 2E-06
vn -1 0 2E-06
vn -0.89691603 0 0.44220105
vn -0.89691603 0 0.44220105
vn -0.44220105 0 0.89691603
vn -0.89691603 0 0.44220105
vn -0.44220105 0 0.89691603
vn -2E-06 0 1
vn -0.44220105 0 0.89691603
vn -2E-06 0 1
vn 2E-06 0 1
vn 2E-06 0 1
vn 0.44220105 0 0.89691603
vn 0.44220105 0 0.89691603
vn 0.89691603 0 0.44220105
vn 0.44220105 0 0.89691603
vn 0.89691603 0 0.44220105
vn 1 0 2E-06
vn 0.89691603 0 0.44220105
vn 1 0 2E-06
vn 1 0 -2E-06
vn 1 0 -2E-06
vn 0.89691603 0 -0.44220105
g cone1_0
f 3/3/3 2/2/2 1/1/1
f 4/4/4 3/3/3 1/1/1
f 5/5/5 3/3/3 4/4/4
f 6/6/6 5/5/5 4/4/4
f 7/7/7 5/5/5 6/6/6
f 8/8/8 7/7/7 6/6/6
f 9/9/9 7/7/7 8/8/8
f 10/10/10 9/9/9 8/8/8
f 11/11/11 9/9/9 10/10/10
f 12/12/12 11/11/11 10/10/10
f 13/13/13 11/11/11 12/12/12
f 14/14/14 13/13/13 12/12/12
f 15/15/15 13/13/13 14/14/14
f 16/16/16 15/15/15 14/14/14
f 17/17/17 15/15/15 16/16/16
f 18/18/18 17/17/17 16/16/16
f 19/19/19 17/17/17 18/18/18
f 20/20/20 19/19/19 18/18/18
f 21/21/21 19/19/19 20/20/20
f 22/22/22 21/21/21 20/20/20
f 25/25/25 24/24/24 23/23/23
f 26/26/26 25/25/25 23/23/23
f 27/27/27 25/25/25 26/26/26
f 28/28/28 27/27/27 26/26/26
f 29/29/29 27/27/27 28/28/28
f 30/30/30 29/29/29 28/28/28
f 31/31/31 29/29/29 30/30/30
f 32/32/32 31/31/31 30/30/30
f 33/33/33 31/31/31 32/32/32
f 34/34/34 33/33/33 32/32/32
f 2/2/2 33/33/33 34/34/34
f 1/1/1 2/2/2 34/34/34
f 37/37/37 36/36/36 35/35/35
f 38/38/38 36/36/36 37/37/37
f 39/39/39 36/36/36 38/38/38
f 40/40/40 36/36/36 39/39/39
f 41/41/41 36/36/36 40/40/40
f 42/42/42 36/36/36 41/41/41
f 43/43/43 36/36/36 42/42/42
f 44/44/44 36/36/36 43/43/43
f 45/45/45 36/36/36 44/44/44
f 46/46/46 36/36/36 45/45/45
f 47/47/47 36/36/36 46/46/46
f 48/48/48 36/36/36 47/47/47
f 49/49/49 36/36/36 48/48/48
f 50/50/50 36/36/36 49/49/49
f 51/51/51 36/36/36 50/50/50
f 35/35/35 36/36/36 51/51/51
f 54/54/54 53/53/53 52/52/52
f 55/55/55 54/54/54 52/52/52
f 52/52/52 53/53/53 56/56/56
f 53/53/53 57/57/57 56/56/56
f 56/56/56 57/57/57 58/58/58
f 57/57/57 59/59/59 58/58/58
f 58/58/58 59/59/59 60/60/60
f 59/59/59 61/61/61 60/60/60
f 60/60/60 61/61/61 62/62/62
f 61/61/61 63/63/63 62/62/62
f 62/62/62 63/63/63 64/64/64
f 63/63/63 65/65/65 64/64/64
f 64/64/64 65/65/65 66/66/66
f 65/65/65 67/67/67 66/66/66
f 66/66/66 67/67/67 68/68/68
f 67/67/67 69/69/69 68/68/68
f 68/68/68 69/69/69 70/70/70
f 69/69/69 71/71/71 70/70/70
f 70/70/70 71/71/71 72/72/72
f 71/71/71 73/73/73 72/72/72
f 72/72/72 73/73/73 74/74/74
f 73/73/73 75/75/75 74/74/74
f 74/74/74 75/75/75 76/76/76
f 75/75/75 77/77/77 76/76/76
f 76/76/76 77/77/77 78/78/78
f 77/77/77 79/79/79 78/78/78
f 78/78/78 79/79/79 80/80/80
f 79/79/79 81/81/81 80/80/80
f 80/80/80 81/81/81 82/82/82
f 81/81/81 83/83/83 82/82/82
f 82/82/82 83/83/83 55/55/55
f 83/83/83 54/54/54 55/55/55
f 86/86/86 85/85/85 84/84/84
f 87/87/87 86/86/86 84/84/84
f 84/84/84 89/89/89 88/88/88
f 89/89/89 90/90/90 88/88/88
f 88/88/88 90/90/90 91/91/91
f 90/90/90 92/92/92 91/91/91
f 91/91/91 92/92/92 93/93/93
f 92/92/92 94/94/94 93/93/93
f 93/93/93 96/96/96 95/95/95
f 96/96/96 97/97/97 95/95/95
f 95/95/95 99/99/99 98/98/98
f 99/99/99 100/100/100 98/98/98
f 98/98/98 100/100/100 101/101/101
f 100/100/100 102/102/102 101/101/101
f 101/101/101 102/102/102 103/103/103
f 102/102/102 104/104/104 103/103/103
f 103/103/103 106/106/106 105/105/105
f 106/106/106 107/107/107 105/105/105
f 105/105/105 109/109/109 108/108/108
f 109/109/109 110/110/110 108/108/108
f 108/108/108 110/110/110 111/111/111
f 110/110/110 112/112/112 111/111/111
f 111/111/111 112/112/112 113/113/113
f 112/112/112 114/114/114 113/113/113
f 113/113/113 116/116/116 115/115/115
f 116/116/116 117/117/117 115/115/115
f 115/115/115 119/119/119 118/118/118
f 119/119/119 120/120/120 118/118/118
f 118/118/118 120/120/120 121/121/121
f 120/120/120 122/122/122 121/121/121
f 121/121/121 122/122/122 87/87/87
f 122/122/122 123/123/123 87/87/87
