g m_city_picture_01
v 0.5292993 -0.7219664 0.044982262
v -0.5294702 -0.7219664 0.045156363
v -0.5239429 -0.7090507 0.05343639
v 0.5239477 -0.7090507 0.05343639
v 0.45508057 -0.6484074 0.05343639
v 0.45508057 0.64840764 0.05343639
v 0.44229248 -0.6240068 0.044996146
v 0.44229248 0.62400687 0.044996146
v 0.5239477 0.70905066 0.05343639
v 0.53774655 0.7135117 0.0449815
v 0.53775144 -0.71368515 0.04515514
v -0.45508057 0.64840764 0.05343639
v 0.43382078 0.6324468 0.044966392
v -0.4338159 0.6324468 0.044966545
v -0.5239429 0.70905066 0.05343639
v -0.5292993 0.72196645 0.044982262
v 0.5294751 0.72196645 0.045156363
v -0.53775144 -0.71351165 0.044981804
v -0.53775144 0.7136852 0.045155294
v -0.45508057 -0.6484074 0.05343639
v -0.4338159 -0.6324469 0.044966545
v -0.4422876 0.62400687 0.04499645
v -0.4422876 -0.6240068 0.04499645
v 0.43382078 -0.6324469 0.044966392
v 0.53775144 -0.71368515 0.04515514
v 0.53774655 -0.7133383 -0.05343647
v 0.52912354 -0.7219664 -0.053436317
v 0.5292993 -0.7219664 0.044982262
v -0.5294702 -0.7219664 0.045156363
v -0.52912354 -0.7219664 -0.05343647
v 0.5294751 0.72196645 0.045156363
v 0.52912354 0.72196645 -0.053436317
v 0.53774655 0.7133384 -0.05343647
v 0.53774655 0.7135117 0.0449815
v 0.53775144 -0.71368515 0.04515514
v 0.53774655 -0.7133383 -0.05343647
v -0.5294702 -0.7219664 0.045156363
v -0.52912354 -0.7219664 -0.05343647
v -0.53775144 -0.7133383 -0.053436317
v -0.53775144 -0.71351165 0.044981804
v -0.53775144 0.7133384 -0.053436317
v -0.53775144 0.7136852 0.045155294
v -0.53775144 0.7136852 0.045155294
v -0.53775144 0.7133384 -0.053436317
v -0.52912354 0.72196645 -0.05343647
v -0.5292993 0.72196645 0.044982262
v 0.5294751 0.72196645 0.045156363
v 0.52912354 0.72196645 -0.053436317
v 0.43382078 -0.6324469 0.044966392
v 0.43365967 -0.6324469 -0.053436317
v 0.4422876 -0.6238188 -0.053436317
v 0.44229248 -0.6240068 0.044996146
v 0.44229248 0.62400687 0.044996146
v 0.4422876 0.62381876 -0.053436317
v 0.43365967 0.6324468 -0.053436317
v 0.43382078 0.6324468 0.044966392
v -0.4338159 0.6324468 0.044966545
v -0.43365967 0.6324468 -0.053436317
v -0.44229248 0.62381876 -0.05343647
v -0.4422876 0.62400687 0.04499645
v 0.43382078 0.6324468 0.044966392
v 0.43365967 0.6324468 -0.053436317
v -0.4422876 -0.6240068 0.04499645
v -0.44229248 -0.6238188 -0.05343647
v -0.43365967 -0.6324469 -0.053436317
v -0.4338159 -0.6324469 0.044966545
v -0.4422876 0.62400687 0.04499645
v -0.44229248 0.62381876 -0.05343647
v -0.44229248 -0.6238188 -0.05343647
v -0.4422876 -0.6240068 0.04499645
v -0.4338159 -0.6324469 0.044966545
v -0.43365967 -0.6324469 -0.053436317
v 0.43365967 -0.6324469 -0.053436317
v 0.43382078 -0.6324469 0.044966392
v 0.44229248 -0.6240068 0.044996146
v 0.4422876 -0.6238188 -0.053436317
v 0.4422876 0.62381876 -0.053436317
v 0.44229248 0.62400687 0.044996146
v 0.4802954 -0.6448902 0.0103445025
v -0.48028564 -0.6448902 0.010344808
v -0.48028564 0.64489007 0.010344808
v 0.4802954 0.64489007 0.0103445025
vt 0.83691406 0.97216797
vt 0.83691406 0.37231445
vt 0.82958984 0.37524414
vt 0.82958984 0.9692383
vt 0.7949219 0.9301758
vt 0.05996704 0.9301758
vt 0.78125 0.92285156
vt 0.073791504 0.92285156
vt 0.02558899 0.9692383
vt 0.02305603 0.9770508
vt 0.83203125 0.9770508
vt 0.05996704 0.41430664
vt 0.06903076 0.91845703
vt 0.06903076 0.42651367
vt 0.02558899 0.37524414
vt 0.01826477 0.37231445
vt 0.01826477 0.97265625
vt 0.83203125 0.36743164
vt 0.022964478 0.36743164
vt 0.7949219 0.41430664
vt 0.7861328 0.42651367
vt 0.073791504 0.42163086
vt 0.78125 0.42163086
vt 0.7861328 0.91845703
vt 0.07897949 0.79296875
vt 0.07897949 0.8486328
vt 0.083862305 0.8486328
vt 0.08380127 0.79296875
vt 0.68408203 0.79296875
vt 0.68359375 0.8486328
vt 0.91015625 0.16333008
vt 0.9663086 0.16333008
vt 0.9663086 0.16821289
vt 0.91064453 0.16821289
vt 0.91015625 0.9770508
vt 0.9663086 0.9770508
vt 0.9008789 0.16333008
vt 0.84472656 0.16333008
vt 0.84472656 0.16821289
vt 0.9008789 0.16821289
vt 0.84472656 0.9770508
vt 0.9008789 0.9770508
vt 0.07897949 0.9140625
vt 0.07897949 0.85839844
vt 0.083862305 0.85839844
vt 0.08380127 0.9140625
vt 0.68408203 0.9140625
vt 0.68359375 0.85839844
vt 0.5756836 0.71777344
vt 0.5756836 0.6621094
vt 0.5805664 0.6621094
vt 0.5805664 0.71777344
vt 0.07897949 0.72753906
vt 0.07897949 0.7832031
vt 0.083862305 0.7832031
vt 0.08380127 0.72753906
vt 0.5756836 0.72753906
vt 0.5756836 0.7832031
vt 0.5805664 0.7832031
vt 0.5805664 0.72753906
vt 0.08380127 0.72753906
vt 0.083862305 0.7832031
vt 0.07897949 0.71777344
vt 0.07897949 0.6621094
vt 0.083862305 0.6621094
vt 0.08380127 0.71777344
vt 0.083862305 0.4711914
vt 0.083984375 0.5258789
vt 0.77734375 0.5258789
vt 0.77734375 0.4711914
vt 0.08380127 0.71777344
vt 0.083862305 0.6621094
vt 0.5756836 0.6621094
vt 0.5756836 0.71777344
vt 0.7758789 0.59277344
vt 0.7758789 0.53808594
vt 0.08251953 0.53808594
vt 0.08239746 0.59277344
vt 0.7651367 0.0069618225
vt 0.022064209 0.0069618225
vt 0.022064209 0.9902344
vt 0.7651367 0.9902344
vn 0.324055 -0.799414 0.505891
vn -0.33518398 -0.7931049 0.5085629
vn -0 0 1
vn -0 0 1
vn -0 0 1
vn -0 0 1
vn -0.77594924 0.2893341 0.56052524
vn -0.77594924 -0.2893341 0.56052524
vn -0 0 1
vn 0.7945715 0.3249808 0.5128777
vn 0.788423 -0.33656403 0.514892
vn -0 0 1
vn -0.29304492 -0.75831074 0.58231384
vn 0.29304492 -0.75831074 0.58231384
vn -0 0 1
vn -0.324055 0.799414 0.505891
vn 0.33518398 0.7931049 0.5085629
vn -0.7945715 -0.3249808 0.5128777
vn -0.788423 0.33656403 0.514892
vn -0 0 1
vn 0.29304492 0.75831074 0.58231384
vn 0.77594924 -0.2893341 0.56052524
vn 0.77594924 0.2893341 0.56052524
vn -0.29304492 0.75831074 0.58231384
vn 0.788423 -0.33656403 0.514892
vn 0.92290395 -0.38502893 -0.0010139998
vn 0.38033396 -0.9248487 -0.0010119998
vn 0.324055 -0.799414 0.505891
vn -0.33518398 -0.7931049 0.5085629
vn -0.38504383 -0.92289776 -0.0010149996
vn 0.33518398 0.7931049 0.5085629
vn 0.38504383 0.92289776 -0.0010149996
vn 0.9248548 0.38031894 -0.0010129998
vn 0.7945715 0.3249808 0.5128777
vn 0.788423 -0.33656403 0.514892
vn 0.92290395 -0.38502893 -0.0010139998
vn -0.33518398 -0.7931049 0.5085629
vn -0.38504383 -0.92289776 -0.0010149996
vn -0.9248548 -0.38031894 -0.0010129998
vn -0.7945715 -0.3249808 0.5128777
vn -0.92290395 0.38502893 -0.0010139998
vn -0.788423 0.33656403 0.514892
vn -0.788423 0.33656403 0.514892
vn -0.92290395 0.38502893 -0.0010139998
vn -0.38033396 0.9248487 -0.0010119998
vn -0.324055 0.799414 0.505891
vn 0.33518398 0.7931049 0.5085629
vn 0.38504383 0.92289776 -0.0010149996
vn -0.29304492 0.75831074 0.58231384
vn -0.38228008 0.9240462 0.0006730001
vn -0.9237124 0.38308614 0.00067300024
vn -0.77594924 0.2893341 0.56052524
vn -0.77594924 -0.2893341 0.56052524
vn -0.9237124 -0.38308614 0.00067300024
vn -0.38228008 -0.9240462 0.0006730001
vn -0.29304492 -0.75831074 0.58231384
vn 0.29304492 -0.75831074 0.58231384
vn 0.38228008 -0.9240462 0.0006730001
vn 0.9237124 -0.38308614 0.00067300024
vn 0.77594924 -0.2893341 0.56052524
vn -0.29304492 -0.75831074 0.58231384
vn -0.38228008 -0.9240462 0.0006730001
vn 0.77594924 0.2893341 0.56052524
vn 0.9237124 0.38308614 0.00067300024
vn 0.38228008 0.9240462 0.0006730001
vn 0.29304492 0.75831074 0.58231384
vn 0.77594924 -0.2893341 0.56052524
vn 0.9237124 -0.38308614 0.00067300024
vn 0.9237124 0.38308614 0.00067300024
vn 0.77594924 0.2893341 0.56052524
vn 0.29304492 0.75831074 0.58231384
vn 0.38228008 0.9240462 0.0006730001
vn -0.38228008 0.9240462 0.0006730001
vn -0.29304492 0.75831074 0.58231384
vn -0.77594924 0.2893341 0.56052524
vn -0.9237124 0.38308614 0.00067300024
vn -0.9237124 -0.38308614 0.00067300024
vn -0.77594924 -0.2893341 0.56052524
vn -0 0 1
vn -0 0 1
vn -0 0 1
vn -0 0 1
g m_city_picture_01_0
f 3/3/3 2/2/2 1/1/1
f 4/4/4 3/3/3 1/1/1
f 4/4/4 5/5/5 3/3/3
f 6/6/6 5/5/5 4/4/4
f 5/5/5 6/6/6 7/7/7
f 6/6/6 8/8/8 7/7/7
f 9/9/9 6/6/6 4/4/4
f 10/10/10 9/9/9 4/4/4
f 11/11/11 10/10/10 4/4/4
f 1/1/1 11/11/11 4/4/4
f 12/12/12 6/6/6 9/9/9
f 6/6/6 12/12/12 13/13/13
f 6/6/6 13/13/13 8/8/8
f 12/12/12 14/14/14 13/13/13
f 15/15/15 12/12/12 9/9/9
f 16/16/16 15/15/15 9/9/9
f 17/17/17 16/16/16 9/9/9
f 10/10/10 17/17/17 9/9/9
f 3/3/3 15/15/15 18/18/18
f 15/15/15 19/19/19 18/18/18
f 16/16/16 19/19/19 15/15/15
f 20/20/20 12/12/12 15/15/15
f 21/21/21 20/20/20 5/5/5
f 12/12/12 20/20/20 22/22/22
f 12/12/12 22/22/22 14/14/14
f 20/20/20 23/23/23 22/22/22
f 20/20/20 21/21/21 23/23/23
f 3/3/3 20/20/20 15/15/15
f 5/5/5 20/20/20 3/3/3
f 24/24/24 21/21/21 5/5/5
f 18/18/18 2/2/2 3/3/3
f 5/5/5 7/7/7 24/24/24
f 27/27/27 26/26/26 25/25/25
f 28/28/28 27/27/27 25/25/25
f 27/27/27 28/28/28 29/29/29
f 30/30/30 27/27/27 29/29/29
f 33/33/33 32/32/32 31/31/31
f 34/34/34 33/33/33 31/31/31
f 33/33/33 34/34/34 35/35/35
f 36/36/36 33/33/33 35/35/35
f 39/39/39 38/38/38 37/37/37
f 40/40/40 39/39/39 37/37/37
f 41/41/41 39/39/39 40/40/40
f 42/42/42 41/41/41 40/40/40
f 45/45/45 44/44/44 43/43/43
f 46/46/46 45/45/45 43/43/43
f 45/45/45 46/46/46 47/47/47
f 48/48/48 45/45/45 47/47/47
f 51/51/51 50/50/50 49/49/49
f 52/52/52 51/51/51 49/49/49
f 55/55/55 54/54/54 53/53/53
f 56/56/56 55/55/55 53/53/53
f 59/59/59 58/58/58 57/57/57
f 60/60/60 59/59/59 57/57/57
f 57/57/57 58/58/58 61/61/61
f 58/58/58 62/62/62 61/61/61
f 65/65/65 64/64/64 63/63/63
f 66/66/66 65/65/65 63/63/63
f 69/69/69 68/68/68 67/67/67
f 70/70/70 69/69/69 67/67/67
f 73/73/73 72/72/72 71/71/71
f 74/74/74 73/73/73 71/71/71
f 77/77/77 76/76/76 75/75/75
f 78/78/78 77/77/77 75/75/75
g m_city_picture_01_1
f 81/81/81 80/80/80 79/79/79
f 82/82/82 81/81/81 79/79/79
