g m_city_stairs_03
v 0.046327967 0.9944405 0.67847604
v 0.046327967 0.9944405 0.01420963
v 0.0124678 0.96058017 0.01420963
v 0.0124678 0.96058017 0.67847604
v 0.0124678 0.9944405 0.71233594
v 0.0124678 1.0890965 0.71233594
v 0.046327967 1.0890965 0.67847604
v 0.046327967 0.9944405 0.67847604
v 0.0124678 0.96058017 0.67847604
v -1.1999999 0.9944405 0.71233594
v -1.1999999 0.96058017 0.67847604
v -1.1999999 1.0890965 0.71233594
v 0.0124678 1.1229566 0.67847604
v 0.0124678 1.1229566 0.01420963
v 0.046327967 1.0890965 0.01420963
v 0.046327967 1.0890965 0.67847604
v -1.1999999 1.1229568 0.01420963
v -1.1999999 1.1229568 0.67847604
v 0.0124678 1.0890965 0.71233594
v 0.046327967 1.0890965 0.67847604
v -1.1999999 1.0890965 0.71233594
v -1.1999999 1.0890965 -0.01965054
v 0.0124678 1.0890965 -0.01965054
v 0.046327967 1.0890965 0.01420963
v 0.0124678 1.0890965 -0.01965054
v 0.0124678 0.9944405 -0.01965054
v 0.046327967 0.9944405 0.01420963
v 0.046327967 1.0890965 0.01420963
v 0.0124678 0.96058017 0.01420963
v -1.1999999 0.9944405 -0.01965054
v -1.1999999 1.0890965 -0.01965054
v -1.1999999 0.96058017 0.01420963
v 0.046327967 1.0890965 0.01420963
v 0.046327967 0.9944405 0.01420963
v 0.046327967 0.9944405 0.67847604
v 0.046327967 1.0890965 0.67847604
v -0 0 0.0351265
v -0 0 0.5648735
v -0 1 0.5648735
v -0 1 0.0351265
v -0.0351265 0 0.59999996
v -0.0351265 1 0.59999996
v -0 1 0.5648735
v -0 0 0.5648735
v -1.1999999 1 0.59999996
v -1.1999999 0 0.59999996
v -0.0351265 1 0
v -0.0351265 0 0
v -0 0 0.0351265
v -0 1 0.0351265
v -1.2000002 0 0
v -1.2000002 1 0
vt 0.6513672 0.71533203
vt 0.78515625 0.7158203
vt 0.78515625 0.7060547
vt 0.6513672 0.7060547
vt 0.62402344 0.74560547
vt 0.64208984 0.74560547
vt 0.6435547 0.7363281
vt 0.6225586 0.7368164
vt 0.6147461 0.7446289
vt 0.6230469 0.9902344
vt 0.61328125 0.9897461
vt 0.64208984 0.9902344
vt 0.6513672 0.7441406
vt 0.78564453 0.7441406
vt 0.78564453 0.7348633
vt 0.6513672 0.7348633
vt 0.78515625 0.9897461
vt 0.65185547 0.9897461
vt 0.64208984 0.74560547
vt 0.6435547 0.7363281
vt 0.64208984 0.9902344
vt 0.7944336 0.9897461
vt 0.7944336 0.74560547
vt 0.79345703 0.7363281
vt 0.7944336 0.74560547
vt 0.8129883 0.74560547
vt 0.81396484 0.7363281
vt 0.79345703 0.7363281
vt 0.82177734 0.7441406
vt 0.81347656 0.9897461
vt 0.7944336 0.9897461
vt 0.8232422 0.9897461
vt 0.78564453 0.7348633
vt 0.78515625 0.7158203
vt 0.6513672 0.71533203
vt 0.6513672 0.7348633
vt 0.2541504 0.9902344
vt 0.3605957 0.9902344
vt 0.3605957 0.7890625
vt 0.2541504 0.7890625
vt 0.37060547 0.9902344
vt 0.37060547 0.7890625
vt 0.3605957 0.7890625
vt 0.3605957 0.9902344
vt 0.6044922 0.7890625
vt 0.6044922 0.9902344
vt 0.24401855 0.7890625
vt 0.24401855 0.9902344
vt 0.2541504 0.9902344
vt 0.2541504 0.7890625
vt 0.010002136 0.9902344
vt 0.010002136 0.7890625
vn 0.70710826 -0.7071052 0
vn 0.70710826 -0.7071052 0
vn 0.70710826 -0.7071052 0
vn 0.70710826 -0.7071052 0
vn 0.024024999 -0.25310698 0.9671399
vn 0.024024999 0.25310698 0.9671399
vn 0.96685386 0.25169098 0.04295799
vn 0.9981766 -0.011412994 0.05927298
vn 0.012922995 -0.7070437 0.7070517
vn -0 -0.2547739 0.96700066
vn -0 -0.7071028 0.7071107
vn -0 0.2547739 0.96700066
vn 0.026699996 0.99848986 0.048010997
vn 0.026699996 0.99848986 -0.048010997
vn 0.96685386 0.25169098 -0.04295799
vn 0.96685386 0.25169098 0.04295799
vn -0 0.99882585 -0.04844499
vn -0 0.99882585 0.04844499
vn 0.024024999 0.25310698 0.9671399
vn 0.96685386 0.25169098 0.04295799
vn -0 0.2547739 0.96700066
vn -0 0.25477603 -0.9670001
vn 0.02402499 0.25310886 -0.9671395
vn 0.96685386 0.25169098 -0.04295799
vn 0.02402499 0.25310886 -0.9671395
vn 0.024024995 -0.2531079 -0.9671397
vn 0.9981766 -0.011412994 -0.05927298
vn 0.96685386 0.25169098 -0.04295799
vn 0.012923004 -0.7070462 -0.70704925
vn -0 -0.25477508 -0.9670003
vn -0 0.25477603 -0.9670001
vn -0 -0.7071053 -0.70710826
vn 0.96685386 0.25169098 -0.04295799
vn 0.9981766 -0.011412994 -0.05927298
vn 0.9981766 -0.011412994 0.05927298
vn 0.96685386 0.25169098 0.04295799
vn 0.99807215 0 -0.062065013
vn 0.99807215 0 0.062065013
vn 0.99807215 0 0.062065013
vn 0.99807215 0 -0.062065013
vn 0.029259995 0 0.99957186
vn 0.029259995 0 0.99957186
vn 0.99807215 0 0.062065013
vn 0.99807215 0 0.062065013
vn -0 0 1
vn -0 0 1
vn 0.029259995 0 -0.99957186
vn 0.029259995 0 -0.99957186
vn 0.99807215 0 -0.062065013
vn 0.99807215 0 -0.062065013
vn -0 0 -1
vn -0 0 -1
g m_city_stairs_03_0
f 3/3/3 2/2/2 1/1/1
f 4/4/4 3/3/3 1/1/1
f 7/7/7 6/6/6 5/5/5
f 8/8/8 7/7/7 5/5/5
f 5/5/5 9/9/9 8/8/8
f 9/9/9 5/5/5 10/10/10
f 10/10/10 5/5/5 6/6/6
f 11/11/11 9/9/9 10/10/10
f 12/12/12 10/10/10 6/6/6
f 15/15/15 14/14/14 13/13/13
f 16/16/16 15/15/15 13/13/13
f 13/13/13 14/14/14 17/17/17
f 18/18/18 13/13/13 17/17/17
f 19/19/19 13/13/13 18/18/18
f 19/19/19 20/20/20 13/13/13
f 21/21/21 19/19/19 18/18/18
f 17/17/17 14/14/14 22/22/22
f 14/14/14 23/23/23 22/22/22
f 14/14/14 24/24/24 23/23/23
f 27/27/27 26/26/26 25/25/25
f 28/28/28 27/27/27 25/25/25
f 29/29/29 26/26/26 27/27/27
f 25/25/25 26/26/26 30/30/30
f 31/31/31 25/25/25 30/30/30
f 26/26/26 29/29/29 32/32/32
f 30/30/30 26/26/26 32/32/32
f 35/35/35 34/34/34 33/33/33
f 36/36/36 35/35/35 33/33/33
f 39/39/39 38/38/38 37/37/37
f 40/40/40 39/39/39 37/37/37
f 43/43/43 42/42/42 41/41/41
f 44/44/44 43/43/43 41/41/41
f 42/42/42 45/45/45 41/41/41
f 45/45/45 46/46/46 41/41/41
f 49/49/49 48/48/48 47/47/47
f 50/50/50 49/49/49 47/47/47
f 47/47/47 48/48/48 51/51/51
f 52/52/52 47/47/47 51/51/51
