g m_city_stairs_01
v -2.3999999 1E-08 0
v -1.2000002 0 0
v -1.2000002 1 0
v -2.3999999 1 0
v -2.3999999 0.9944405 0.71233594
v -1.1999999 0.9944405 0.71233594
v -1.1999999 0.96058017 0.67847604
v -2.3999999 0.96058017 0.67847604
v -2.3999999 1.0890965 0.71233594
v -1.1999999 1.0890965 0.71233594
v -2.3999999 1.1229568 0.67847604
v -1.1999999 1.1229568 0.67847604
v -1.1999999 1.0890965 0.71233594
v -2.3999999 1.0890965 0.71233594
v -2.3999999 1.1229568 0.01420963
v -1.1999999 1.1229568 0.01420963
v -2.3999999 1.0890965 -0.01965054
v -1.1999999 1.0890965 -0.01965054
v -2.3999999 0.9944405 -0.01965054
v -1.1999999 0.9944405 -0.01965054
v -1.1999999 1.0890965 -0.01965054
v -2.3999999 1.0890965 -0.01965054
v -2.3999999 0.96058017 0.01420963
v -1.1999999 0.96058017 0.01420963
v -1.1999999 0 0.59999996
v -2.3999999 1E-08 0.59999996
v -2.3999999 1 0.59999996
v -1.1999999 1 0.59999996
vt 0.74658203 0.018539429
vt 0.5053711 0.018539429
vt 0.5053711 0.21948242
vt 0.74658203 0.21948242
vt 0.73583984 0.23327637
vt 0.73583984 0.47436523
vt 0.74560547 0.47436523
vt 0.74560547 0.23327637
vt 0.7167969 0.23327637
vt 0.7167969 0.47436523
vt 0.70751953 0.23327637
vt 0.70751953 0.47436523
vt 0.7167969 0.47436523
vt 0.7167969 0.23327637
vt 0.57373047 0.23327637
vt 0.57373047 0.47436523
vt 0.56396484 0.23327637
vt 0.56396484 0.47436523
vt 0.5449219 0.23327637
vt 0.5449219 0.47436523
vt 0.56396484 0.47436523
vt 0.56396484 0.23327637
vt 0.53564453 0.23327637
vt 0.53564453 0.47436523
vt 0.21655273 0.5722656
vt 0.21655273 0.3310547
vt 0.015602112 0.3310547
vt 0.015602112 0.5722656
vn -0 0 -1
vn -0 0 -1
vn -0 0 -1
vn -0 0 -1
vn -0 -0.2547739 0.96700066
vn -0 -0.2547739 0.96700066
vn -0 -0.7071028 0.7071107
vn -0 -0.7071028 0.7071107
vn -0 0.2547739 0.96700066
vn -0 0.2547739 0.96700066
vn -0 0.99882585 0.04844499
vn -0 0.99882585 0.04844499
vn -0 0.2547739 0.96700066
vn -0 0.2547739 0.96700066
vn -0 0.99882585 -0.04844499
vn -0 0.99882585 -0.04844499
vn -0 0.25477508 -0.9670003
vn -0 0.25477508 -0.9670003
vn -0 -0.25477508 -0.9670003
vn -0 -0.25477508 -0.9670003
vn -0 0.25477508 -0.9670003
vn -0 0.25477508 -0.9670003
vn -0 -0.7071053 -0.70710826
vn -0 -0.7071053 -0.70710826
vn -0 0 1
vn -0 0 1
vn -0 0 1
vn -0 0 1
g m_city_stairs_01_0
f 3/3/3 2/2/2 1/1/1
f 4/4/4 3/3/3 1/1/1
f 7/7/7 6/6/6 5/5/5
f 8/8/8 7/7/7 5/5/5
f 9/9/9 5/5/5 6/6/6
f 10/10/10 9/9/9 6/6/6
f 13/13/13 12/12/12 11/11/11
f 14/14/14 13/13/13 11/11/11
f 11/11/11 12/12/12 15/15/15
f 12/12/12 16/16/16 15/15/15
f 15/15/15 16/16/16 17/17/17
f 16/16/16 18/18/18 17/17/17
f 21/21/21 20/20/20 19/19/19
f 22/22/22 21/21/21 19/19/19
f 19/19/19 20/20/20 23/23/23
f 20/20/20 24/24/24 23/23/23
f 27/27/27 26/26/26 25/25/25
f 28/28/28 27/27/27 25/25/25
